<?xml version="1.0" encoding="utf-8"?>
<!-- Generator: Adobe Illustrator 21.0.2, SVG Export Plug-In . SVG Version: 6.00 Build 0)  -->
<svg version="1.1" xmlns="http://www.w3.org/2000/svg" xmlns:xlink="http://www.w3.org/1999/xlink" x="0px" y="0px"
	 viewBox="0 0 97.7 111.3" style="enable-background:new 0 0 97.7 111.3;" xml:space="preserve">
<style type="text/css">
	.st0{fill:#A29F9D;}
	.st1{fill:#8EBF22;}
	.st2{fill:#FEC92C;}
	.st3{fill:#DA2B18;}
	.st4{fill:#FFFFFF;}
	.st5{fill:#C6C3C2;}
	.st6{fill:#B5E1FA;}
	.st7{fill:#905D24;}
	.st8{fill:#FCD1A0;}
	.st9{fill:#6FBFEB;}
	.st10{fill:#CD6116;}
	.st11{display:none;fill:#FFFFFF;}
	.st12{fill:#D6D4D4;}
	.st13{fill:#5C5856;}
	.st14{fill:none;stroke:#A29F9D;stroke-width:0.2572;stroke-miterlimit:10;}
</style>
<g id="text_1_">
	<g>
		<g>
			<path class="st0" d="M-96.8,124.8h1v3.2h0c0.3-0.7,1.1-1,2-1c1.9,0,2.9,1.5,2.9,3.3c0,1.8-0.9,3.2-2.8,3.2c-0.6,0-1.5-0.2-2-1h0
				v0.8h-1V124.8z M-93.9,128c-1.4,0-1.9,1.2-1.9,2.3c0,1.2,0.6,2.4,2,2.4c1.4,0,1.9-1.2,1.9-2.4C-92,129.1-92.6,128-93.9,128z"/>
			<path class="st0" d="M-84.1,133.4c-0.2,0.1-0.4,0.2-0.7,0.2c-0.5,0-0.9-0.3-0.9-1c-0.6,0.7-1.3,1-2.2,1c-1.1,0-2.1-0.5-2.1-1.7
				c0-1.4,1-1.7,2.1-1.9c1.1-0.2,2.1-0.1,2.1-0.9c0-0.9-0.7-1-1.4-1c-0.9,0-1.5,0.3-1.5,1.2h-1c0.1-1.5,1.2-2.1,2.6-2.1
				c1.1,0,2.3,0.3,2.3,1.7v3.2c0,0.5,0,0.7,0.3,0.7c0.1,0,0.2,0,0.3-0.1V133.4z M-85.7,130.2c-0.4,0.3-1.2,0.3-1.8,0.4
				c-0.7,0.1-1.2,0.4-1.2,1.1c0,0.7,0.6,0.9,1.2,0.9c1.3,0,1.9-0.8,1.9-1.4V130.2z"/>
			<path class="st0" d="M-77.9,133.4h-1v-1h0c-0.4,0.8-1.1,1.1-2,1.1c-1.6,0-2.1-0.9-2.1-2.3v-4.1h1v4.2c0,0.8,0.5,1.2,1.3,1.2
				c1.2,0,1.8-0.8,1.8-1.9v-3.5h1V133.4z"/>
			<path class="st0" d="M-76.2,124.8h1v3.2h0c0.3-0.7,1.1-1,2-1c1.9,0,2.9,1.5,2.9,3.3c0,1.8-0.9,3.2-2.8,3.2c-0.6,0-1.5-0.2-2-1h0
				v0.8h-1V124.8z M-73.3,128c-1.4,0-1.9,1.2-1.9,2.3c0,1.2,0.6,2.4,2,2.4c1.4,0,1.9-1.2,1.9-2.4C-71.4,129.1-72,128-73.3,128z"/>
			<path class="st0" d="M-68.9,124.8h1v8.6h-1V124.8z"/>
			<path class="st0" d="M-60.9,131.4c-0.3,1.4-1.3,2.1-2.7,2.1c-2,0-2.9-1.4-3-3.3c0-1.9,1.2-3.2,2.9-3.2c2.2,0,2.9,2.1,2.8,3.6
				h-4.6c0,1.1,0.6,2,1.9,2c0.8,0,1.4-0.4,1.6-1.2H-60.9z M-61.9,129.7c0-1-0.8-1.8-1.8-1.8c-1.1,0-1.7,0.8-1.8,1.8H-61.9z"/>
		</g>
	</g>
	<g>
		<g>
			<path class="st0" d="M40.1,124.8h1v3.2h0c0.3-0.7,1.1-1,2-1c1.9,0,2.9,1.5,2.9,3.3c0,1.8-0.9,3.2-2.8,3.2c-0.6,0-1.5-0.2-2-1h0
				v0.8h-1V124.8z M43,128c-1.4,0-1.9,1.2-1.9,2.3c0,1.2,0.6,2.4,2,2.4c1.4,0,1.9-1.2,1.9-2.4C44.9,129.1,44.3,128,43,128z"/>
			<path class="st0" d="M52.6,131.4c-0.3,1.4-1.3,2.1-2.7,2.1c-2,0-2.9-1.4-3-3.3c0-1.9,1.2-3.2,2.9-3.2c2.2,0,2.9,2.1,2.8,3.6h-4.6
				c0,1.1,0.6,2,1.9,2c0.8,0,1.4-0.4,1.6-1.2H52.6z M51.6,129.7c0-1-0.8-1.8-1.8-1.8c-1.1,0-1.7,0.8-1.8,1.8H51.6z"/>
			<path class="st0" d="M54,124.8h1v8.6h-1V124.8z"/>
			<path class="st0" d="M56.7,124.8h1v8.6h-1V124.8z"/>
		</g>
	</g>
	<g>
		<g>
			<path class="st0" d="M158.8,124.8h1v3.2h0c0.3-0.7,1.1-1,2-1c1.9,0,2.9,1.5,2.9,3.3c0,1.8-0.9,3.2-2.8,3.2c-0.6,0-1.5-0.2-2-1h0
				v0.8h-1V124.8z M161.7,128c-1.4,0-1.9,1.2-1.9,2.3c0,1.2,0.6,2.4,2,2.4c1.4,0,1.9-1.2,1.9-2.4C163.6,129.1,163,128,161.7,128z"/>
			<path class="st0" d="M166,127.2h1v1.3h0c0.5-1,1.2-1.5,2.3-1.5v1.1c-1.6,0-2.2,0.9-2.2,2.5v2.8h-1V127.2z"/>
			<path class="st0" d="M175.6,133.4c-0.2,0.1-0.4,0.2-0.7,0.2c-0.5,0-0.9-0.3-0.9-1c-0.6,0.7-1.3,1-2.2,1c-1.1,0-2.1-0.5-2.1-1.7
				c0-1.4,1-1.7,2.1-1.9c1.1-0.2,2.1-0.1,2.1-0.9c0-0.9-0.7-1-1.4-1c-0.9,0-1.5,0.3-1.5,1.2h-1c0.1-1.5,1.2-2.1,2.6-2.1
				c1.1,0,2.3,0.3,2.3,1.7v3.2c0,0.5,0,0.7,0.3,0.7c0.1,0,0.2,0,0.3-0.1V133.4z M174,130.2c-0.4,0.3-1.2,0.3-1.8,0.4
				c-0.7,0.1-1.2,0.4-1.2,1.1c0,0.7,0.6,0.9,1.2,0.9c1.3,0,1.9-0.8,1.9-1.4V130.2z"/>
			<path class="st0" d="M176.7,127.2h1v1h0c0.4-0.8,1.1-1.1,2-1.1c1.6,0,2.1,0.9,2.1,2.3v4.1h-1v-4.2c0-0.8-0.5-1.2-1.3-1.2
				c-1.2,0-1.8,0.8-1.8,1.9v3.5h-1V127.2z"/>
			<path class="st0" d="M189,133.4h-1v-0.8h0c-0.3,0.7-1.1,1-2,1c-1.9,0-2.9-1.5-2.9-3.3c0-1.8,0.9-3.2,2.8-3.2c0.6,0,1.5,0.2,2,1h0
				v-3.2h1V133.4z M186.1,132.7c1.4,0,1.9-1.2,1.9-2.3c0-1.2-0.6-2.4-2-2.4c-1.4,0-1.9,1.2-1.9,2.4
				C184.2,131.5,184.8,132.7,186.1,132.7z"/>
			<path class="st0" d="M193.1,134.2c-0.5,1.2-0.9,1.7-1.8,1.7c-0.2,0-0.5,0-0.7-0.1v-0.9c0.2,0.1,0.4,0.1,0.6,0.1
				c0.4,0,0.6-0.2,0.8-0.6l0.4-1.1l-2.5-6.2h1.2l1.8,5.1h0l1.7-5.1h1.1L193.1,134.2z"/>
		</g>
	</g>
	<g>
		<g>
			<path class="st0" d="M291.7,129.2c-0.2-0.8-0.7-1.2-1.5-1.2c-1.5,0-1.9,1.2-1.9,2.4c0,1.1,0.5,2.3,1.8,2.3c1,0,1.6-0.6,1.7-1.5h1
				c-0.2,1.5-1.2,2.4-2.7,2.4c-1.9,0-2.9-1.3-2.9-3.2c0-1.9,1-3.3,2.9-3.3c1.4,0,2.5,0.7,2.7,2.1H291.7z"/>
			<path class="st0" d="M299.6,133.4c-0.2,0.1-0.4,0.2-0.7,0.2c-0.5,0-0.9-0.3-0.9-1c-0.6,0.7-1.3,1-2.2,1c-1.1,0-2.1-0.5-2.1-1.7
				c0-1.4,1-1.7,2.1-1.9c1.1-0.2,2.1-0.1,2.1-0.9c0-0.9-0.7-1-1.4-1c-0.9,0-1.5,0.3-1.5,1.2h-1c0.1-1.5,1.2-2.1,2.6-2.1
				c1.1,0,2.3,0.3,2.3,1.7v3.2c0,0.5,0,0.7,0.3,0.7c0.1,0,0.2,0,0.3-0.1V133.4z M297.9,130.2c-0.4,0.3-1.2,0.3-1.8,0.4
				c-0.7,0.1-1.2,0.4-1.2,1.1c0,0.7,0.6,0.9,1.2,0.9c1.3,0,1.9-0.8,1.9-1.4V130.2z"/>
			<path class="st0" d="M300.7,127.2h1v1h0c0.4-0.8,1.1-1.1,2-1.1c1.6,0,2.1,0.9,2.1,2.3v4.1h-1v-4.2c0-0.8-0.5-1.2-1.3-1.2
				c-1.2,0-1.8,0.8-1.8,1.9v3.5h-1V127.2z"/>
			<path class="st0" d="M313,133.4h-1v-0.8h0c-0.3,0.7-1.1,1-2,1c-1.9,0-2.9-1.5-2.9-3.3c0-1.8,0.9-3.2,2.8-3.2c0.6,0,1.5,0.2,2,1h0
				v-3.2h1V133.4z M310.1,132.7c1.4,0,1.9-1.2,1.9-2.3c0-1.2-0.6-2.4-2-2.4c-1.4,0-1.9,1.2-1.9,2.4
				C308.2,131.5,308.8,132.7,310.1,132.7z"/>
			<path class="st0" d="M314.7,124.8h1v8.6h-1V124.8z"/>
			<path class="st0" d="M322.8,131.4c-0.3,1.4-1.3,2.1-2.7,2.1c-2,0-2.9-1.4-3-3.3c0-1.9,1.2-3.2,2.9-3.2c2.2,0,2.9,2.1,2.8,3.6
				h-4.6c0,1.1,0.6,2,1.9,2c0.8,0,1.4-0.4,1.6-1.2H322.8z M321.8,129.7c0-1-0.8-1.8-1.8-1.8c-1.1,0-1.7,0.8-1.8,1.8H321.8z"/>
		</g>
	</g>
	<g>
		<g>
			<path class="st0" d="M406.4,129.2c-0.2-0.8-0.7-1.2-1.5-1.2c-1.5,0-1.9,1.2-1.9,2.4c0,1.1,0.5,2.3,1.8,2.3c1,0,1.6-0.6,1.7-1.5h1
				c-0.2,1.5-1.2,2.4-2.7,2.4c-1.9,0-2.9-1.3-2.9-3.2c0-1.9,1-3.3,2.9-3.3c1.4,0,2.5,0.7,2.7,2.1H406.4z"/>
			<path class="st0" d="M414.2,133.4c-0.2,0.1-0.4,0.2-0.7,0.2c-0.5,0-0.9-0.3-0.9-1c-0.6,0.7-1.3,1-2.2,1c-1.1,0-2.1-0.5-2.1-1.7
				c0-1.4,1-1.7,2.1-1.9c1.1-0.2,2.1-0.1,2.1-0.9c0-0.9-0.7-1-1.4-1c-0.9,0-1.5,0.3-1.5,1.2h-1c0.1-1.5,1.2-2.1,2.6-2.1
				c1.1,0,2.3,0.3,2.3,1.7v3.2c0,0.5,0,0.7,0.3,0.7c0.1,0,0.2,0,0.3-0.1V133.4z M412.6,130.2c-0.4,0.3-1.2,0.3-1.8,0.4
				c-0.7,0.1-1.2,0.4-1.2,1.1c0,0.7,0.6,0.9,1.2,0.9c1.3,0,1.9-0.8,1.9-1.4V130.2z"/>
			<path class="st0" d="M415.3,127.2h1v1h0c0.4-0.8,1.1-1.1,2-1.1c1.6,0,2.1,0.9,2.1,2.3v4.1h-1v-4.2c0-0.8-0.5-1.2-1.3-1.2
				c-1.2,0-1.8,0.8-1.8,1.9v3.5h-1V127.2z"/>
			<path class="st0" d="M427.6,133.4h-1v-0.8h0c-0.3,0.7-1.1,1-2,1c-1.9,0-2.9-1.5-2.9-3.3c0-1.8,0.9-3.2,2.8-3.2c0.6,0,1.5,0.2,2,1
				h0v-3.2h1V133.4z M424.8,132.7c1.4,0,1.9-1.2,1.9-2.3c0-1.2-0.6-2.4-2-2.4c-1.4,0-1.9,1.2-1.9,2.4
				C422.8,131.5,423.4,132.7,424.8,132.7z"/>
			<path class="st0" d="M431.8,134.2c-0.5,1.2-0.9,1.7-1.8,1.7c-0.2,0-0.5,0-0.7-0.1v-0.9c0.2,0.1,0.4,0.1,0.6,0.1
				c0.4,0,0.6-0.2,0.8-0.6l0.4-1.1l-2.5-6.2h1.2l1.8,5.1h0l1.7-5.1h1.1L431.8,134.2z"/>
			<path class="st0" d="M443.1,129.2c-0.2-0.8-0.7-1.2-1.5-1.2c-1.5,0-1.9,1.2-1.9,2.4c0,1.1,0.5,2.3,1.8,2.3c1,0,1.6-0.6,1.7-1.5h1
				c-0.2,1.5-1.2,2.4-2.7,2.4c-1.9,0-2.9-1.3-2.9-3.2c0-1.9,1-3.3,2.9-3.3c1.4,0,2.5,0.7,2.7,2.1H443.1z"/>
			<path class="st0" d="M451,133.4c-0.2,0.1-0.4,0.2-0.7,0.2c-0.5,0-0.9-0.3-0.9-1c-0.6,0.7-1.3,1-2.2,1c-1.1,0-2.1-0.5-2.1-1.7
				c0-1.4,1-1.7,2.1-1.9c1.1-0.2,2.1-0.1,2.1-0.9c0-0.9-0.7-1-1.4-1c-0.9,0-1.5,0.3-1.5,1.2h-1c0.1-1.5,1.2-2.1,2.6-2.1
				c1.1,0,2.3,0.3,2.3,1.7v3.2c0,0.5,0,0.7,0.3,0.7c0.1,0,0.2,0,0.3-0.1V133.4z M449.3,130.2c-0.4,0.3-1.2,0.3-1.8,0.4
				c-0.7,0.1-1.2,0.4-1.2,1.1c0,0.7,0.6,0.9,1.2,0.9c1.3,0,1.9-0.8,1.9-1.4V130.2z"/>
			<path class="st0" d="M452,127.2h1v1h0c0.4-0.8,1.1-1.1,2-1.1c1.6,0,2.1,0.9,2.1,2.3v4.1h-1v-4.2c0-0.8-0.5-1.2-1.3-1.2
				c-1.2,0-1.8,0.8-1.8,1.9v3.5h-1V127.2z"/>
			<path class="st0" d="M464.1,131.4c-0.3,1.4-1.3,2.1-2.7,2.1c-2,0-2.9-1.4-3-3.3c0-1.9,1.2-3.2,2.9-3.2c2.2,0,2.9,2.1,2.8,3.6
				h-4.6c0,1.1,0.6,2,1.9,2c0.8,0,1.4-0.4,1.6-1.2H464.1z M463.1,129.7c0-1-0.8-1.8-1.8-1.8c-1.1,0-1.7,0.8-1.8,1.8H463.1z"/>
		</g>
	</g>
	<g>
		<g>
			<path class="st0" d="M-94.4,289.2c-0.2-0.8-0.7-1.2-1.5-1.2c-1.5,0-1.9,1.2-1.9,2.4c0,1.1,0.5,2.3,1.8,2.3c1,0,1.6-0.6,1.7-1.5h1
				c-0.2,1.5-1.2,2.4-2.7,2.4c-1.9,0-2.9-1.3-2.9-3.2c0-1.9,1-3.3,2.9-3.3c1.4,0,2.5,0.7,2.7,2.1H-94.4z"/>
			<path class="st0" d="M-92.1,287.2h1v1.3h0c0.5-1,1.2-1.5,2.3-1.5v1.1c-1.6,0-2.2,0.9-2.2,2.5v2.8h-1V287.2z"/>
			<path class="st0" d="M-82.4,293.4c-0.2,0.1-0.4,0.2-0.7,0.2c-0.5,0-0.9-0.3-0.9-1c-0.6,0.7-1.3,1-2.2,1c-1.1,0-2.1-0.5-2.1-1.7
				c0-1.4,1-1.7,2.1-1.9c1.1-0.2,2.1-0.1,2.1-0.9c0-0.9-0.7-1-1.4-1c-0.9,0-1.5,0.3-1.5,1.2h-1c0.1-1.5,1.2-2.1,2.6-2.1
				c1.1,0,2.3,0.3,2.3,1.7v3.2c0,0.5,0,0.7,0.3,0.7c0.1,0,0.2,0,0.3-0.1V293.4z M-84.1,290.2c-0.4,0.3-1.2,0.3-1.8,0.4
				c-0.7,0.1-1.2,0.4-1.2,1.1c0,0.7,0.6,0.9,1.2,0.9c1.3,0,1.9-0.8,1.9-1.4V290.2z"/>
			<path class="st0" d="M-77.2,289.2c-0.2-0.8-0.7-1.2-1.5-1.2c-1.5,0-1.9,1.2-1.9,2.4c0,1.1,0.5,2.3,1.8,2.3c1,0,1.6-0.6,1.7-1.5h1
				c-0.2,1.5-1.2,2.4-2.7,2.4c-1.9,0-2.9-1.3-2.9-3.2c0-1.9,1-3.3,2.9-3.3c1.4,0,2.5,0.7,2.7,2.1H-77.2z"/>
			<path class="st0" d="M-74.8,284.8h1v5.1l2.8-2.7h1.4l-2.5,2.3l2.6,3.9h-1.3l-2.1-3.2l-1,0.9v2.4h-1V284.8z"/>
			<path class="st0" d="M-63.2,291.4c-0.3,1.4-1.3,2.1-2.7,2.1c-2,0-2.9-1.4-3-3.3c0-1.9,1.2-3.2,2.9-3.2c2.2,0,2.9,2.1,2.8,3.6
				h-4.6c0,1.1,0.6,2,1.9,2c0.8,0,1.4-0.4,1.6-1.2H-63.2z M-64.2,289.7c0-1-0.8-1.8-1.8-1.8c-1.1,0-1.7,0.8-1.8,1.8H-64.2z"/>
			<path class="st0" d="M-61.9,287.2h1v1.3h0c0.5-1,1.2-1.5,2.3-1.5v1.1c-1.6,0-2.2,0.9-2.2,2.5v2.8h-1V287.2z"/>
		</g>
	</g>
	<g>
		<g>
			<path class="st0" d="M41.1,293.4h-1v-0.8h0c-0.3,0.7-1.1,1-2,1c-1.9,0-2.9-1.5-2.9-3.3c0-1.8,0.9-3.2,2.8-3.2c0.6,0,1.5,0.2,2,1
				h0v-3.2h1V293.4z M38.2,292.7c1.4,0,1.9-1.2,1.9-2.3c0-1.2-0.6-2.4-2-2.4c-1.4,0-1.9,1.2-1.9,2.4
				C36.3,291.5,36.9,292.7,38.2,292.7z"/>
			<path class="st0" d="M42.7,287.2h1v1.3h0c0.5-1,1.2-1.5,2.3-1.5v1.1c-1.6,0-2.2,0.9-2.2,2.5v2.8h-1V287.2z"/>
			<path class="st0" d="M52,293.4h-1v-1h0c-0.4,0.8-1.1,1.1-2,1.1c-1.6,0-2.1-0.9-2.1-2.3v-4.1h1v4.2c0,0.8,0.5,1.2,1.3,1.2
				c1.2,0,1.8-0.8,1.8-1.9v-3.5h1V293.4z"/>
			<path class="st0" d="M53.7,287.2h1v0.9h0c0.5-0.7,1.2-1.1,2-1.1c0.8,0,1.5,0.3,1.7,1.1c0.4-0.7,1.2-1.1,1.9-1.1
				c1.2,0,2.1,0.5,2.1,1.8v4.5h-1v-4.1c0-0.8-0.2-1.4-1.2-1.4c-1,0-1.6,0.6-1.6,1.6v3.9h-1v-4.1c0-0.8-0.3-1.4-1.2-1.4
				c-1.2,0-1.7,1.1-1.7,1.6v3.9h-1V287.2z"/>
		</g>
	</g>
	<g>
		<g>
			<path class="st0" d="M176.6,291.4c-0.3,1.4-1.3,2.1-2.7,2.1c-2,0-2.9-1.4-3-3.3c0-1.9,1.2-3.2,2.9-3.2c2.2,0,2.9,2.1,2.8,3.6H172
				c0,1.1,0.6,2,1.9,2c0.8,0,1.4-0.4,1.6-1.2H176.6z M175.6,289.7c0-1-0.8-1.8-1.8-1.8c-1.1,0-1.7,0.8-1.8,1.8H175.6z"/>
			<path class="st0" d="M177.9,284.8h1v8.6h-1V284.8z"/>
			<path class="st0" d="M181.1,288.1h-1v-0.9h1v-0.9c0-1,0.6-1.5,1.7-1.5c0.2,0,0.5,0,0.7,0.1v0.9c-0.2-0.1-0.4-0.1-0.6-0.1
				c-0.5,0-0.8,0.2-0.8,0.7v0.9h1.2v0.9h-1.2v5.3h-1V288.1z"/>
		</g>
	</g>
	<g>
		<g>
			<path class="st0" d="M281.2,288.1h-1v-0.9h1v-0.9c0-1,0.6-1.5,1.7-1.5c0.2,0,0.5,0,0.7,0.1v0.9c-0.2-0.1-0.4-0.1-0.6-0.1
				c-0.5,0-0.8,0.2-0.8,0.7v0.9h1.2v0.9h-1.2v5.3h-1V288.1z"/>
			<path class="st0" d="M290,293.4c-0.2,0.1-0.4,0.2-0.7,0.2c-0.5,0-0.9-0.3-0.9-1c-0.6,0.7-1.3,1-2.2,1c-1.1,0-2.1-0.5-2.1-1.7
				c0-1.4,1-1.7,2.1-1.9c1.1-0.2,2.1-0.1,2.1-0.9c0-0.9-0.7-1-1.4-1c-0.9,0-1.5,0.3-1.5,1.2h-1c0.1-1.5,1.2-2.1,2.6-2.1
				c1.1,0,2.3,0.3,2.3,1.7v3.2c0,0.5,0,0.7,0.3,0.7c0.1,0,0.2,0,0.3-0.1V293.4z M288.3,290.2c-0.4,0.3-1.2,0.3-1.8,0.4
				c-0.7,0.1-1.2,0.4-1.2,1.1c0,0.7,0.6,0.9,1.2,0.9c1.3,0,1.9-0.8,1.9-1.4V290.2z"/>
			<path class="st0" d="M292.1,286.1h-1v-1.2h1V286.1z M291.1,287.2h1v6.2h-1V287.2z"/>
			<path class="st0" d="M293.8,287.2h1v1.3h0c0.5-1,1.2-1.5,2.3-1.5v1.1c-1.6,0-2.2,0.9-2.2,2.5v2.8h-1V287.2z"/>
			<path class="st0" d="M300.4,294.2c-0.5,1.2-0.9,1.7-1.8,1.7c-0.2,0-0.5,0-0.7-0.1v-0.9c0.2,0.1,0.4,0.1,0.6,0.1
				c0.4,0,0.6-0.2,0.8-0.6l0.4-1.1l-2.5-6.2h1.2l1.8,5.1h0l1.7-5.1h1.1L300.4,294.2z"/>
			<path class="st0" d="M307.6,284.8h1v8.6h-1V284.8z"/>
			<path class="st0" d="M311.4,286.1h-1v-1.2h1V286.1z M310.3,287.2h1v6.2h-1V287.2z"/>
			<path class="st0" d="M318.4,292.9c0,2-0.9,3-2.9,3c-1.2,0-2.5-0.5-2.6-1.8h1c0,0.7,0.9,1,1.6,1c1.3,0,1.9-1,1.9-2.4v-0.4h0
				c-0.3,0.8-1.2,1.1-1.9,1.1c-1.8,0-2.8-1.5-2.8-3.1c0-1.5,0.7-3.3,2.9-3.3c0.8,0,1.5,0.3,1.8,1h0v-0.9h1V292.9z M317.4,290.2
				c0-1.1-0.5-2.2-1.8-2.2c-1.3,0-1.8,1.1-1.8,2.3c0,1.1,0.4,2.4,1.8,2.4S317.4,291.3,317.4,290.2z"/>
			<path class="st0" d="M320.1,284.8h1v3.3h0c0.3-0.7,1.2-1.1,2-1.1c1.6,0,2.1,0.9,2.1,2.3v4.1h-1v-4.2c0-0.8-0.5-1.2-1.3-1.2
				c-1.2,0-1.8,0.8-1.8,1.9v3.5h-1V284.8z"/>
			<path class="st0" d="M328.3,287.2h1.2v0.9h-1.2v3.9c0,0.5,0.1,0.6,0.8,0.6h0.5v0.9h-0.8c-1.1,0-1.5-0.2-1.5-1.4v-3.9h-1.1v-0.9
				h1.1v-1.9h1V287.2z"/>
		</g>
	</g>
	<g>
		<g>
			<path class="st0" d="M430.5,292.9c0,2-0.9,3-2.9,3c-1.2,0-2.5-0.5-2.6-1.8h1c0,0.7,0.9,1,1.6,1c1.3,0,1.9-1,1.9-2.4v-0.4h0
				c-0.3,0.8-1.2,1.1-1.9,1.1c-1.8,0-2.8-1.5-2.8-3.1c0-1.5,0.7-3.3,2.9-3.3c0.8,0,1.5,0.3,1.8,1h0v-0.9h1V292.9z M429.4,290.2
				c0-1.1-0.5-2.2-1.8-2.2c-1.3,0-1.8,1.1-1.8,2.3c0,1.1,0.4,2.4,1.8,2.4C428.9,292.6,429.4,291.3,429.4,290.2z"/>
			<path class="st0" d="M433.2,286.1h-1v-1.2h1V286.1z M432.2,287.2h1v6.2h-1V287.2z"/>
			<path class="st0" d="M435.3,288.1h-1v-0.9h1v-0.9c0-1,0.6-1.5,1.7-1.5c0.2,0,0.5,0,0.7,0.1v0.9c-0.2-0.1-0.4-0.1-0.6-0.1
				c-0.5,0-0.8,0.2-0.8,0.7v0.9h1.2v0.9h-1.2v5.3h-1V288.1z"/>
			<path class="st0" d="M440,287.2h1.2v0.9H440v3.9c0,0.5,0.1,0.6,0.8,0.6h0.5v0.9h-0.8c-1.1,0-1.5-0.2-1.5-1.4v-3.9h-1.1v-0.9h1.1
				v-1.9h1V287.2z"/>
		</g>
	</g>
	<g>
		<g>
			<path class="st0" d="M-119.3,452.9c0,2-0.9,3-2.9,3c-1.2,0-2.5-0.5-2.6-1.8h1c0,0.7,0.9,1,1.6,1c1.3,0,1.9-1,1.9-2.4v-0.4h0
				c-0.3,0.8-1.2,1.1-1.9,1.1c-1.8,0-2.8-1.5-2.8-3.1c0-1.5,0.7-3.3,2.9-3.3c0.8,0,1.5,0.3,1.8,1h0v-0.9h1V452.9z M-120.3,450.2
				c0-1.1-0.5-2.2-1.8-2.2c-1.3,0-1.8,1.1-1.8,2.3c0,1.1,0.4,2.4,1.8,2.4C-120.8,452.6-120.3,451.3-120.3,450.2z"/>
			<path class="st0" d="M-116.6,446.1h-1v-1.2h1V446.1z M-117.6,447.2h1v6.2h-1V447.2z"/>
			<path class="st0" d="M-114.9,447.2h1v1h0c0.4-0.8,1.1-1.1,2-1.1c1.6,0,2.1,0.9,2.1,2.3v4.1h-1v-4.2c0-0.8-0.5-1.2-1.3-1.2
				c-1.2,0-1.8,0.8-1.8,1.9v3.5h-1V447.2z"/>
			<path class="st0" d="M-102.7,452.9c0,2-0.9,3-2.9,3c-1.2,0-2.5-0.5-2.6-1.8h1c0,0.7,0.9,1,1.6,1c1.3,0,1.9-1,1.9-2.4v-0.4h0
				c-0.3,0.8-1.2,1.1-1.9,1.1c-1.8,0-2.8-1.5-2.8-3.1c0-1.5,0.7-3.3,2.9-3.3c0.8,0,1.5,0.3,1.8,1h0v-0.9h1V452.9z M-103.7,450.2
				c0-1.1-0.5-2.2-1.8-2.2c-1.3,0-1.8,1.1-1.8,2.3c0,1.1,0.4,2.4,1.8,2.4C-104.3,452.6-103.7,451.3-103.7,450.2z"/>
			<path class="st0" d="M-95.8,451.4c-0.3,1.4-1.3,2.1-2.7,2.1c-2,0-2.9-1.4-3-3.3c0-1.9,1.2-3.2,2.9-3.2c2.2,0,2.9,2.1,2.8,3.6
				h-4.6c0,1.1,0.6,2,1.9,2c0.8,0,1.4-0.4,1.6-1.2H-95.8z M-96.8,449.7c0-1-0.8-1.8-1.8-1.8c-1.1,0-1.7,0.8-1.8,1.8H-96.8z"/>
			<path class="st0" d="M-94.6,447.2h1v1.3h0c0.5-1,1.2-1.5,2.3-1.5v1.1c-1.6,0-2.2,0.9-2.2,2.5v2.8h-1V447.2z"/>
			<path class="st0" d="M-90.4,444.8h1v3.2h0c0.3-0.7,1.1-1,2-1c1.9,0,2.9,1.5,2.9,3.3c0,1.8-0.9,3.2-2.8,3.2c-0.6,0-1.5-0.2-2-1h0
				v0.8h-1V444.8z M-87.5,448c-1.4,0-1.9,1.2-1.9,2.3c0,1.2,0.6,2.4,2,2.4c1.4,0,1.9-1.2,1.9-2.4C-85.6,449.1-86.2,448-87.5,448z"/>
			<path class="st0" d="M-83.2,447.2h1v1.3h0c0.5-1,1.2-1.5,2.3-1.5v1.1c-1.6,0-2.2,0.9-2.2,2.5v2.8h-1V447.2z"/>
			<path class="st0" d="M-74,451.4c-0.3,1.4-1.3,2.1-2.7,2.1c-2,0-2.9-1.4-3-3.3c0-1.9,1.2-3.2,2.9-3.2c2.2,0,2.9,2.1,2.8,3.6h-4.6
				c0,1.1,0.6,2,1.9,2c0.8,0,1.4-0.4,1.6-1.2H-74z M-75,449.7c0-1-0.8-1.8-1.8-1.8c-1.1,0-1.7,0.8-1.8,1.8H-75z"/>
			<path class="st0" d="M-67.2,453.4c-0.2,0.1-0.4,0.2-0.7,0.2c-0.5,0-0.9-0.3-0.9-1c-0.6,0.7-1.3,1-2.2,1c-1.1,0-2.1-0.5-2.1-1.7
				c0-1.4,1-1.7,2.1-1.9c1.1-0.2,2.1-0.1,2.1-0.9c0-0.9-0.7-1-1.4-1c-0.9,0-1.5,0.3-1.5,1.2h-1c0.1-1.5,1.2-2.1,2.6-2.1
				c1.1,0,2.3,0.3,2.3,1.7v3.2c0,0.5,0,0.7,0.3,0.7c0.1,0,0.2,0,0.3-0.1V453.4z M-68.9,450.2c-0.4,0.3-1.2,0.3-1.8,0.4
				c-0.7,0.1-1.2,0.4-1.2,1.1c0,0.7,0.6,0.9,1.2,0.9c1.3,0,1.9-0.8,1.9-1.4V450.2z"/>
			<path class="st0" d="M-60.6,453.4h-1v-0.8h0c-0.3,0.7-1.1,1-2,1c-1.9,0-2.9-1.5-2.9-3.3c0-1.8,0.9-3.2,2.8-3.2c0.6,0,1.5,0.2,2,1
				h0v-3.2h1V453.4z M-63.5,452.7c1.4,0,1.9-1.2,1.9-2.3c0-1.2-0.6-2.3-2-2.3c-1.4,0-1.9,1.2-1.9,2.4
				C-65.4,451.5-64.8,452.7-63.5,452.7z"/>
			<path class="st0" d="M-55.4,447.2h1v0.9h0c0.5-0.7,1.2-1.1,2-1.1c0.8,0,1.5,0.3,1.7,1.1c0.4-0.7,1.2-1.1,1.9-1.1
				c1.2,0,2.1,0.5,2.1,1.8v4.5h-1v-4.1c0-0.8-0.2-1.4-1.2-1.4c-1,0-1.6,0.6-1.6,1.6v3.9h-1v-4.1c0-0.8-0.3-1.4-1.2-1.4
				c-1.2,0-1.7,1.1-1.7,1.6v3.9h-1V447.2z"/>
			<path class="st0" d="M-39.6,453.4c-0.2,0.1-0.4,0.2-0.7,0.2c-0.5,0-0.9-0.3-0.9-1c-0.6,0.7-1.3,1-2.2,1c-1.1,0-2.1-0.5-2.1-1.7
				c0-1.4,1-1.7,2.1-1.9c1.1-0.2,2.1-0.1,2.1-0.9c0-0.9-0.7-1-1.4-1c-0.9,0-1.5,0.3-1.5,1.2h-1c0.1-1.5,1.2-2.1,2.6-2.1
				c1.1,0,2.3,0.3,2.3,1.7v3.2c0,0.5,0,0.7,0.3,0.7c0.1,0,0.2,0,0.3-0.1V453.4z M-41.3,450.2c-0.4,0.3-1.2,0.3-1.8,0.4
				c-0.7,0.1-1.2,0.4-1.2,1.1c0,0.7,0.6,0.9,1.2,0.9c1.3,0,1.9-0.8,1.9-1.4V450.2z"/>
			<path class="st0" d="M-38.5,447.2h1v1h0c0.4-0.8,1.1-1.1,2-1.1c1.6,0,2.1,0.9,2.1,2.3v4.1h-1v-4.2c0-0.8-0.5-1.2-1.3-1.2
				c-1.2,0-1.8,0.8-1.8,1.9v3.5h-1V447.2z"/>
		</g>
	</g>
	<g>
		<g>
			<path class="st0" d="M37,444.8h1v3.3h0c0.3-0.7,1.2-1.1,2-1.1c1.6,0,2.1,0.9,2.1,2.3v4.1h-1v-4.2c0-0.8-0.5-1.2-1.3-1.2
				c-1.2,0-1.8,0.8-1.8,1.9v3.5h-1V444.8z"/>
			<path class="st0" d="M46.5,447.1c2,0,3,1.4,3,3.3c0,1.8-1,3.2-3,3.2c-2,0-3-1.4-3-3.2C43.5,448.5,44.5,447.1,46.5,447.1z
				 M46.5,452.7c1.1,0,1.9-0.8,1.9-2.3c0-1.5-0.9-2.3-1.9-2.3c-1.1,0-1.9,0.8-1.9,2.3C44.6,451.8,45.4,452.7,46.5,452.7z"/>
			<path class="st0" d="M50.9,444.8h1v8.6h-1V444.8z"/>
			<path class="st0" d="M53.7,444.8h1v8.6h-1V444.8z"/>
			<path class="st0" d="M58.8,454.2c-0.5,1.2-0.9,1.7-1.8,1.7c-0.2,0-0.5,0-0.7-0.1v-0.9c0.2,0.1,0.4,0.1,0.6,0.1
				c0.4,0,0.6-0.2,0.8-0.6l0.4-1.1l-2.5-6.2h1.2l1.8,5.1h0l1.7-5.1h1.1L58.8,454.2z"/>
		</g>
	</g>
	<g>
		<g>
			<path class="st0" d="M148.6,447.2h1v1h0c0.4-0.8,1.1-1.1,2-1.1c1.6,0,2.1,0.9,2.1,2.3v4.1h-1v-4.2c0-0.8-0.5-1.2-1.3-1.2
				c-1.2,0-1.8,0.8-1.8,1.9v3.5h-1V447.2z"/>
			<path class="st0" d="M160.6,453.4h-1v-1h0c-0.4,0.8-1.1,1.1-2,1.1c-1.6,0-2.1-0.9-2.1-2.3v-4.1h1v4.2c0,0.8,0.5,1.2,1.3,1.2
				c1.2,0,1.8-0.8,1.8-1.9v-3.5h1V453.4z"/>
			<path class="st0" d="M163.6,447.2h1.2v0.9h-1.2v3.9c0,0.5,0.1,0.6,0.8,0.6h0.5v0.9h-0.8c-1.1,0-1.5-0.2-1.5-1.4v-3.9h-1.1v-0.9
				h1.1v-1.9h1V447.2z"/>
			<path class="st0" d="M170.3,449.2c-0.2-0.8-0.7-1.2-1.5-1.2c-1.5,0-1.9,1.2-1.9,2.4c0,1.1,0.5,2.3,1.8,2.3c1,0,1.6-0.6,1.7-1.5h1
				c-0.2,1.5-1.2,2.4-2.7,2.4c-1.9,0-2.9-1.3-2.9-3.2c0-1.9,1-3.3,2.9-3.3c1.4,0,2.5,0.7,2.7,2.1H170.3z"/>
			<path class="st0" d="M172.7,447.2h1v1.3h0c0.5-1,1.2-1.5,2.3-1.5v1.1c-1.6,0-2.2,0.9-2.2,2.5v2.8h-1V447.2z"/>
			<path class="st0" d="M182.3,453.4c-0.2,0.1-0.4,0.2-0.7,0.2c-0.5,0-0.9-0.3-0.9-1c-0.6,0.7-1.3,1-2.2,1c-1.1,0-2.1-0.5-2.1-1.7
				c0-1.4,1-1.7,2.1-1.9c1.1-0.2,2.1-0.1,2.1-0.9c0-0.9-0.7-1-1.4-1c-0.9,0-1.5,0.3-1.5,1.2h-1c0.1-1.5,1.2-2.1,2.6-2.1
				c1.1,0,2.3,0.3,2.3,1.7v3.2c0,0.5,0,0.7,0.3,0.7c0.1,0,0.2,0,0.3-0.1V453.4z M180.6,450.2c-0.4,0.3-1.2,0.3-1.8,0.4
				c-0.7,0.1-1.2,0.4-1.2,1.1c0,0.7,0.6,0.9,1.2,0.9c1.3,0,1.9-0.8,1.9-1.4V450.2z"/>
			<path class="st0" d="M187.6,449.2c-0.2-0.8-0.7-1.2-1.5-1.2c-1.5,0-1.9,1.2-1.9,2.4c0,1.1,0.5,2.3,1.8,2.3c1,0,1.6-0.6,1.7-1.5h1
				c-0.2,1.5-1.2,2.4-2.7,2.4c-1.9,0-2.9-1.3-2.9-3.2c0-1.9,1-3.3,2.9-3.3c1.4,0,2.5,0.7,2.7,2.1H187.6z"/>
			<path class="st0" d="M190,444.8h1v5.1l2.8-2.7h1.4l-2.5,2.3l2.6,3.9h-1.3l-2.1-3.2l-1,0.9v2.4h-1V444.8z"/>
			<path class="st0" d="M201.6,451.4c-0.3,1.4-1.3,2.1-2.7,2.1c-2,0-2.9-1.4-3-3.3c0-1.9,1.2-3.2,2.9-3.2c2.2,0,2.9,2.1,2.8,3.6H197
				c0,1.1,0.6,2,1.9,2c0.8,0,1.4-0.4,1.6-1.2H201.6z M200.6,449.7c0-1-0.8-1.8-1.8-1.8c-1.1,0-1.7,0.8-1.8,1.8H200.6z"/>
			<path class="st0" d="M202.8,447.2h1v1.3h0c0.5-1,1.2-1.5,2.3-1.5v1.1c-1.6,0-2.2,0.9-2.2,2.5v2.8h-1V447.2z"/>
		</g>
	</g>
	<g>
		<g>
			<path class="st0" d="M283.3,447.2h1v0.8h0c0.3-0.7,1.1-1,2-1c1.9,0,2.9,1.5,2.9,3.3c0,1.8-0.9,3.2-2.8,3.2c-0.6,0-1.5-0.2-2-1h0
				v3.2h-1V447.2z M286.2,448c-1.4,0-1.9,1.2-1.9,2.3c0,1.2,0.6,2.4,2,2.4c1.4,0,1.9-1.2,1.9-2.4C288.1,449.1,287.5,448,286.2,448z"
				/>
			<path class="st0" d="M295.6,453.4h-1v-1h0c-0.4,0.8-1.1,1.1-2,1.1c-1.6,0-2.1-0.9-2.1-2.3v-4.1h1v4.2c0,0.8,0.5,1.2,1.3,1.2
				c1.2,0,1.8-0.8,1.8-1.9v-3.5h1V453.4z"/>
			<path class="st0" d="M302.8,453.4h-1v-0.8h0c-0.3,0.7-1.1,1-2,1c-1.9,0-2.9-1.5-2.9-3.3c0-1.8,0.9-3.2,2.8-3.2c0.6,0,1.5,0.2,2,1
				h0v-3.2h1V453.4z M299.9,452.7c1.4,0,1.9-1.2,1.9-2.3c0-1.2-0.6-2.3-2-2.3c-1.4,0-1.9,1.2-1.9,2.4
				C298,451.5,298.6,452.7,299.9,452.7z"/>
			<path class="st0" d="M310,453.4h-1v-0.8h0c-0.3,0.7-1.1,1-2,1c-1.9,0-2.9-1.5-2.9-3.3c0-1.8,0.9-3.2,2.8-3.2c0.6,0,1.5,0.2,2,1h0
				v-3.2h1V453.4z M307.2,452.7c1.4,0,1.9-1.2,1.9-2.3c0-1.2-0.6-2.3-2-2.3c-1.4,0-1.9,1.2-1.9,2.4
				C305.2,451.5,305.8,452.7,307.2,452.7z"/>
			<path class="st0" d="M312.8,446.1h-1v-1.2h1V446.1z M311.8,447.2h1v6.2h-1V447.2z"/>
			<path class="st0" d="M314.5,447.2h1v1h0c0.4-0.8,1.1-1.1,2-1.1c1.6,0,2.1,0.9,2.1,2.3v4.1h-1v-4.2c0-0.8-0.5-1.2-1.3-1.2
				c-1.2,0-1.8,0.8-1.8,1.9v3.5h-1V447.2z"/>
			<path class="st0" d="M326.7,452.9c0,2-0.9,3-2.9,3c-1.2,0-2.5-0.5-2.6-1.8h1c0,0.7,0.9,1,1.6,1c1.3,0,1.9-1,1.9-2.4v-0.4h0
				c-0.3,0.8-1.2,1.1-1.9,1.1c-1.8,0-2.8-1.5-2.8-3.1c0-1.5,0.7-3.3,2.9-3.3c0.8,0,1.5,0.3,1.8,1h0v-0.9h1V452.9z M325.7,450.2
				c0-1.1-0.5-2.2-1.8-2.2c-1.3,0-1.8,1.1-1.8,2.3c0,1.1,0.4,2.4,1.8,2.4C325.2,452.6,325.7,451.3,325.7,450.2z"/>
		</g>
	</g>
	<g>
		<g>
			<path class="st0" d="M421.5,453.4h-1.1l-1.3-4.9h0l-1.2,4.9h-1.1l-2-6.2h1.1l1.4,5.1h0l1.2-5.1h1.1l1.3,5.1h0l1.4-5.1h1.1
				L421.5,453.4z"/>
			<path class="st0" d="M424.5,447.2h1v1.3h0c0.5-1,1.2-1.5,2.3-1.5v1.1c-1.6,0-2.2,0.9-2.2,2.5v2.8h-1V447.2z"/>
			<path class="st0" d="M433.7,451.4c-0.3,1.4-1.3,2.1-2.7,2.1c-2,0-2.9-1.4-3-3.3c0-1.9,1.2-3.2,2.9-3.2c2.2,0,2.9,2.1,2.8,3.6
				h-4.6c0,1.1,0.6,2,1.9,2c0.8,0,1.4-0.4,1.6-1.2H433.7z M432.7,449.7c0-1-0.8-1.8-1.8-1.8c-1.1,0-1.7,0.8-1.8,1.8H432.7z"/>
			<path class="st0" d="M440.5,453.4c-0.2,0.1-0.4,0.2-0.7,0.2c-0.5,0-0.9-0.3-0.9-1c-0.6,0.7-1.3,1-2.2,1c-1.1,0-2.1-0.5-2.1-1.7
				c0-1.4,1-1.7,2.1-1.9c1.1-0.2,2.1-0.1,2.1-0.9c0-0.9-0.7-1-1.4-1c-0.9,0-1.5,0.3-1.5,1.2h-1c0.1-1.5,1.2-2.1,2.6-2.1
				c1.1,0,2.3,0.3,2.3,1.7v3.2c0,0.5,0,0.7,0.3,0.7c0.1,0,0.2,0,0.3-0.1V453.4z M438.8,450.2c-0.4,0.3-1.2,0.3-1.8,0.4
				c-0.7,0.1-1.2,0.4-1.2,1.1c0,0.7,0.6,0.9,1.2,0.9c1.3,0,1.9-0.8,1.9-1.4V450.2z"/>
			<path class="st0" d="M443,447.2h1.2v0.9H443v3.9c0,0.5,0.1,0.6,0.8,0.6h0.5v0.9h-0.8c-1.1,0-1.5-0.2-1.5-1.4v-3.9h-1.1v-0.9h1.1
				v-1.9h1V447.2z"/>
			<path class="st0" d="M445.5,444.8h1v3.3h0c0.3-0.7,1.2-1.1,2-1.1c1.6,0,2.1,0.9,2.1,2.3v4.1h-1v-4.2c0-0.8-0.5-1.2-1.3-1.2
				c-1.2,0-1.8,0.8-1.8,1.9v3.5h-1V444.8z"/>
		</g>
	</g>
	<g>
		<g>
			<path class="st0" d="M-95.8,607.2h1v1.3h0c0.5-1,1.2-1.5,2.3-1.5v1.1c-1.6,0-2.2,0.9-2.2,2.5v2.8h-1V607.2z"/>
			<path class="st0" d="M-90.6,606.1h-1v-1.2h1V606.1z M-91.6,607.2h1v6.2h-1V607.2z"/>
			<path class="st0" d="M-88.9,604.8h1v3.2h0c0.3-0.7,1.1-1,2-1c1.9,0,2.9,1.5,2.9,3.3c0,1.8-0.9,3.2-2.8,3.2c-0.6,0-1.5-0.2-2-1h0
				v0.8h-1V604.8z M-86,608c-1.4,0-1.9,1.2-1.9,2.3c0,1.2,0.6,2.4,2,2.4c1.4,0,1.9-1.2,1.9-2.4C-84.1,609.1-84.7,608-86,608z"/>
			<path class="st0" d="M-81.6,604.8h1v3.2h0c0.3-0.7,1.1-1,2-1c1.9,0,2.9,1.5,2.9,3.3c0,1.8-0.9,3.2-2.8,3.2c-0.6,0-1.5-0.2-2-1h0
				v0.8h-1V604.8z M-78.7,608c-1.4,0-1.9,1.2-1.9,2.3c0,1.2,0.6,2.4,2,2.4c1.4,0,1.9-1.2,1.9-2.4C-76.8,609.1-77.4,608-78.7,608z"/>
			<path class="st0" d="M-71.7,607.1c2,0,3,1.4,3,3.3c0,1.8-1,3.2-3,3.2c-2,0-3-1.4-3-3.2C-74.8,608.5-73.7,607.1-71.7,607.1z
				 M-71.7,612.7c1.1,0,1.9-0.8,1.9-2.3c0-1.5-0.9-2.3-1.9-2.3s-1.9,0.8-1.9,2.3C-73.7,611.8-72.8,612.7-71.7,612.7z"/>
			<path class="st0" d="M-67.4,607.2h1v1h0c0.4-0.8,1.1-1.1,2-1.1c1.6,0,2.1,0.9,2.1,2.3v4.1h-1v-4.2c0-0.8-0.5-1.2-1.3-1.2
				c-1.2,0-1.8,0.8-1.8,1.9v3.5h-1V607.2z"/>
		</g>
	</g>
	<g>
		<g>
			<path class="st0" d="M24,611.5c0,0.9,0.8,1.2,1.7,1.2c0.6,0,1.5-0.1,1.5-0.9c0-0.8-1-0.9-2-1.2c-1-0.2-2-0.6-2-1.8
				c0-1.2,1.2-1.8,2.3-1.8c1.4,0,2.5,0.4,2.5,1.9h-1c-0.1-0.8-0.8-1-1.4-1c-0.6,0-1.3,0.2-1.3,0.8c0,0.7,1.1,0.9,2,1.1
				c1,0.2,2,0.6,2,1.8c0,1.5-1.4,2-2.6,2c-1.4,0-2.6-0.6-2.6-2.1H24z"/>
			<path class="st0" d="M29.5,607.2h1v1h0c0.4-0.8,1.1-1.1,2-1.1c1.6,0,2.1,0.9,2.1,2.3v4.1h-1v-4.2c0-0.8-0.5-1.2-1.3-1.2
				c-1.2,0-1.8,0.8-1.8,1.9v3.5h-1V607.2z"/>
			<path class="st0" d="M38.9,607.1c2,0,3,1.4,3,3.3c0,1.8-1,3.2-3,3.2c-2,0-3-1.4-3-3.2C35.9,608.5,37,607.1,38.9,607.1z
				 M38.9,612.7c1.1,0,1.9-0.8,1.9-2.3c0-1.5-0.9-2.3-1.9-2.3c-1.1,0-1.9,0.8-1.9,2.3C37,611.8,37.9,612.7,38.9,612.7z"/>
			<path class="st0" d="M49.4,613.4h-1.1l-1.3-4.9h0l-1.2,4.9h-1.1l-2-6.2h1.1l1.4,5.1h0l1.2-5.1h1.1l1.3,5.1h0l1.4-5.1h1.1
				L49.4,613.4z"/>
			<path class="st0" d="M52.5,607.2h1v0.9h0c0.5-0.7,1.2-1.1,2-1.1c0.8,0,1.5,0.3,1.7,1.1c0.4-0.7,1.2-1.1,1.9-1.1
				c1.2,0,2.1,0.5,2.1,1.8v4.5h-1v-4.1c0-0.8-0.2-1.4-1.2-1.4c-1,0-1.6,0.6-1.6,1.6v3.9h-1v-4.1c0-0.8-0.3-1.4-1.2-1.4
				c-1.2,0-1.7,1.1-1.7,1.6v3.9h-1V607.2z"/>
			<path class="st0" d="M68.3,613.4c-0.2,0.1-0.4,0.2-0.7,0.2c-0.5,0-0.9-0.3-0.9-1c-0.6,0.7-1.3,1-2.2,1c-1.1,0-2.1-0.5-2.1-1.7
				c0-1.4,1-1.7,2.1-1.9c1.1-0.2,2.1-0.1,2.1-0.9c0-0.9-0.7-1-1.4-1c-0.9,0-1.5,0.3-1.5,1.2h-1c0.1-1.5,1.2-2.1,2.6-2.1
				c1.1,0,2.3,0.3,2.3,1.7v3.2c0,0.5,0,0.7,0.3,0.7c0.1,0,0.2,0,0.3-0.1V613.4z M66.7,610.2c-0.4,0.3-1.2,0.3-1.8,0.4
				c-0.7,0.1-1.2,0.4-1.2,1.1c0,0.7,0.6,0.9,1.2,0.9c1.3,0,1.9-0.8,1.9-1.4V610.2z"/>
			<path class="st0" d="M69.4,607.2h1v1h0c0.4-0.8,1.1-1.1,2-1.1c1.6,0,2.1,0.9,2.1,2.3v4.1h-1v-4.2c0-0.8-0.5-1.2-1.3-1.2
				c-1.2,0-1.8,0.8-1.8,1.9v3.5h-1V607.2z"/>
		</g>
	</g>
	<g>
		<g>
			<path class="st0" d="M168.1,611.5c0,0.9,0.8,1.2,1.7,1.2c0.6,0,1.5-0.1,1.5-0.9c0-0.8-1-0.9-2-1.2c-1-0.2-2-0.6-2-1.8
				c0-1.2,1.2-1.8,2.3-1.8c1.4,0,2.5,0.4,2.5,1.9h-1c-0.1-0.8-0.8-1-1.4-1c-0.6,0-1.3,0.2-1.3,0.8c0,0.7,1.1,0.9,2,1.1
				c1,0.2,2,0.6,2,1.8c0,1.5-1.4,2-2.6,2c-1.4,0-2.6-0.6-2.6-2.1H168.1z"/>
			<path class="st0" d="M175,607.2h1.2v0.9H175v3.9c0,0.5,0.1,0.6,0.8,0.6h0.5v0.9h-0.8c-1.1,0-1.5-0.2-1.5-1.4v-3.9h-1.1v-0.9h1.1
				v-1.9h1V607.2z"/>
			<path class="st0" d="M183,613.4c-0.2,0.1-0.4,0.2-0.7,0.2c-0.5,0-0.9-0.3-0.9-1c-0.6,0.7-1.3,1-2.2,1c-1.1,0-2.1-0.5-2.1-1.7
				c0-1.4,1-1.7,2.1-1.9c1.1-0.2,2.1-0.1,2.1-0.9c0-0.9-0.7-1-1.4-1c-0.9,0-1.5,0.3-1.5,1.2h-1c0.1-1.5,1.2-2.1,2.6-2.1
				c1.1,0,2.3,0.3,2.3,1.7v3.2c0,0.5,0,0.7,0.3,0.7c0.1,0,0.2,0,0.3-0.1V613.4z M181.3,610.2c-0.4,0.3-1.2,0.3-1.8,0.4
				c-0.7,0.1-1.2,0.4-1.2,1.1c0,0.7,0.6,0.9,1.2,0.9c1.3,0,1.9-0.8,1.9-1.4V610.2z"/>
			<path class="st0" d="M184,607.2h1v1.3h0c0.5-1,1.2-1.5,2.3-1.5v1.1c-1.6,0-2.2,0.9-2.2,2.5v2.8h-1V607.2z"/>
		</g>
	</g>
	<g>
		<g>
			<path class="st0" d="M283.1,611.5c0,0.9,0.8,1.2,1.7,1.2c0.6,0,1.5-0.1,1.5-0.9c0-0.8-1-0.9-2-1.2c-1-0.2-2-0.6-2-1.8
				c0-1.2,1.2-1.8,2.3-1.8c1.4,0,2.5,0.4,2.5,1.9h-1c-0.1-0.8-0.8-1-1.4-1c-0.6,0-1.3,0.2-1.3,0.8c0,0.7,1.1,0.9,2,1.1
				c1,0.2,2,0.6,2,1.8c0,1.5-1.4,2-2.6,2c-1.4,0-2.6-0.6-2.6-2.1H283.1z"/>
			<path class="st0" d="M290.1,607.2h1.2v0.9h-1.2v3.9c0,0.5,0.1,0.6,0.8,0.6h0.5v0.9h-0.8c-1.1,0-1.5-0.2-1.5-1.4v-3.9H288v-0.9
				h1.1v-1.9h1V607.2z"/>
			<path class="st0" d="M295.2,607.1c2,0,3,1.4,3,3.3c0,1.8-1,3.2-3,3.2c-2,0-3-1.4-3-3.2C292.2,608.5,293.2,607.1,295.2,607.1z
				 M295.2,612.7c1.1,0,1.9-0.8,1.9-2.3c0-1.5-0.9-2.3-1.9-2.3c-1.1,0-1.9,0.8-1.9,2.3C293.3,611.8,294.1,612.7,295.2,612.7z"/>
			<path class="st0" d="M303.8,609.2c-0.2-0.8-0.7-1.2-1.5-1.2c-1.5,0-1.9,1.2-1.9,2.4c0,1.1,0.5,2.3,1.8,2.3c1,0,1.6-0.6,1.7-1.5h1
				c-0.2,1.5-1.2,2.4-2.7,2.4c-1.9,0-2.9-1.3-2.9-3.2c0-1.9,1-3.3,2.9-3.3c1.4,0,2.5,0.7,2.7,2.1H303.8z"/>
			<path class="st0" d="M306.2,604.8h1v5.1l2.8-2.7h1.4l-2.5,2.3l2.6,3.9h-1.3l-2.1-3.2l-1,0.9v2.4h-1V604.8z"/>
			<path class="st0" d="M313.5,606.1h-1v-1.2h1V606.1z M312.5,607.2h1v6.2h-1V607.2z"/>
			<path class="st0" d="M315.2,607.2h1v1h0c0.4-0.8,1.1-1.1,2-1.1c1.6,0,2.1,0.9,2.1,2.3v4.1h-1v-4.2c0-0.8-0.5-1.2-1.3-1.2
				c-1.2,0-1.8,0.8-1.8,1.9v3.5h-1V607.2z"/>
			<path class="st0" d="M327.4,612.9c0,2-0.9,3-2.9,3c-1.2,0-2.5-0.5-2.6-1.8h1c0,0.7,0.9,1,1.6,1c1.3,0,1.9-1,1.9-2.4v-0.4h0
				c-0.3,0.8-1.2,1.1-1.9,1.1c-1.8,0-2.8-1.5-2.8-3.1c0-1.5,0.7-3.3,2.9-3.3c0.8,0,1.5,0.3,1.8,1h0v-0.9h1V612.9z M326.4,610.2
				c0-1.1-0.5-2.2-1.8-2.2c-1.3,0-1.8,1.1-1.8,2.3c0,1.1,0.4,2.4,1.8,2.4C325.9,612.6,326.4,611.3,326.4,610.2z"/>
		</g>
	</g>
	<g>
		<g>
			<path class="st0" d="M424.7,607.2h1.2v0.9h-1.2v3.9c0,0.5,0.1,0.6,0.8,0.6h0.5v0.9h-0.8c-1.1,0-1.5-0.2-1.5-1.4v-3.9h-1.1v-0.9
				h1.1v-1.9h1V607.2z"/>
			<path class="st0" d="M427.2,607.2h1v1.3h0c0.5-1,1.2-1.5,2.3-1.5v1.1c-1.6,0-2.2,0.9-2.2,2.5v2.8h-1V607.2z"/>
			<path class="st0" d="M436.4,611.4c-0.3,1.4-1.3,2.1-2.7,2.1c-2,0-2.9-1.4-3-3.3c0-1.9,1.2-3.2,2.9-3.2c2.2,0,2.9,2.1,2.8,3.6
				h-4.6c0,1.1,0.6,2,1.9,2c0.8,0,1.4-0.4,1.6-1.2H436.4z M435.4,609.7c0-1-0.8-1.8-1.8-1.8c-1.1,0-1.7,0.8-1.8,1.8H435.4z"/>
			<path class="st0" d="M443,611.4c-0.3,1.4-1.3,2.1-2.7,2.1c-2,0-2.9-1.4-3-3.3c0-1.9,1.2-3.2,2.9-3.2c2.2,0,2.9,2.1,2.8,3.6h-4.6
				c0,1.1,0.6,2,1.9,2c0.8,0,1.4-0.4,1.6-1.2H443z M442,609.7c0-1-0.8-1.8-1.8-1.8c-1.1,0-1.7,0.8-1.8,1.8H442z"/>
		</g>
	</g>
</g>
<g id="icons">
	<g id="tree_2_">
		<path id="tree_3_" class="st1" d="M461.4,563.3c-0.1,0.1-6.4,13-19.6,13.4l-0.7,4.7c0,0.1,0,0.1,0,0.2c0,0.1-1.1,2.3-3.7,2.3h-8.9
			c-2.6,0-3.6-2.2-3.7-2.3c0-0.1,0-0.1,0-0.2l-0.7-4.7c-13.2-0.3-19.5-13.2-19.6-13.4c-0.1-0.2-0.1-0.5,0.1-0.7
			c0.2-0.2,0.4-0.2,0.7-0.1c1.5,0.6,3,0.9,4.4,0.9c4.7,0,7.8-3.3,9.1-4.9c-5-0.8-8.6-6.8-8.8-7c-0.1-0.2-0.1-0.4,0-0.6
			c0.1-0.2,0.3-0.3,0.5-0.3c6,0,10.2-2.8,12-4.4c-6.6-0.6-7.9-4.9-8-5.1c0-0.2,0-0.4,0.1-0.5c0.1-0.1,0.3-0.2,0.5-0.2
			c9.1,0,17.2-17.3,17.2-17.4c0.2-0.4,0.9-0.4,1.1,0c0.1,0.2,8.1,17.4,17.2,17.4c0.2,0,0.4,0.1,0.5,0.2c0.1,0.1,0.1,0.3,0.1,0.5
			c-0.1,0.2-1.4,4.6-8,5.1c1.8,1.5,6.1,4.4,12,4.4c0.2,0,0.4,0.1,0.5,0.3c0.1,0.2,0.1,0.4,0,0.6c-0.2,0.3-3.7,6.2-8.8,7
			c1.2,1.6,4.4,4.9,9.1,4.9c1.4,0,2.9-0.3,4.4-0.9c0.2-0.1,0.5,0,0.7,0.1C461.4,562.9,461.5,563.1,461.4,563.3z"/>
		<path id="star_3_" class="st2" d="M430,515.8c0.3,0.3,0.5,0.8,0.4,1.2l-1,3.3c-0.1,0.4,0.1,0.5,0.4,0.3l2.5-2
			c0.3-0.3,0.9-0.3,1.2,0l2.5,2c0.3,0.3,0.5,0.1,0.4-0.3l-1-3.3c-0.1-0.4,0.1-1,0.4-1.2l2.6-2c0.3-0.3,0.3-0.5-0.2-0.5h-3.1
			c-0.4,0-0.9-0.3-1-0.8l-1-3.4c-0.1-0.4-0.3-0.4-0.5,0l-1,3.4c-0.1,0.4-0.6,0.8-1,0.8h-3.1c-0.4,0-0.5,0.2-0.2,0.5L430,515.8z"/>
	</g>
	<g id="stocking_2_">
		<path class="st3" d="M310.8,532.6c-3.2-3.2-8.5-3.2-11.7,0l-14.1,14.1c-4.9,4.9-6.2,9.2-6.6,13.3c-0.4,4.1,1.7,10.2,4.8,13.6
			l1.9,2.1c3.1,3.3,9.7,7.9,12.6,8.1c2.9,0.1,6.9-4.3,7.3-7.1c0.5-2.7-2-6.2-2-8.5c0-2.2,2.6-6.7,5.8-9.9l8-8
			c3.2-3.2,3.2-8.5,0-11.7L310.8,532.6z"/>
		<path class="st4" d="M286.4,566.8c-0.2-0.1-0.3-0.2-0.5-0.3c-0.6-0.6-0.6-1.7,0-2.3c1.8-1.8,2.7-3.7,2.7-5.7c0-3.4-2.6-6-2.6-6.1
			c-0.6-0.6-0.7-1.7,0-2.3c0.6-0.6,1.7-0.7,2.3,0c0.1,0.1,3.6,3.6,3.6,8.4c0,2.9-1.2,5.6-3.7,8C287.8,567,287,567.1,286.4,566.8z"/>
		<g id="top_1_">
			<path class="st4" d="M326.1,551.5c-2.9,2.9-7.7,2.9-10.6,0l-17.7-17.7c-2.9-2.9-2.9-7.7,0-10.6l3.1-3.1c2.9-2.9,7.7-2.9,10.6,0
				l17.7,17.7c2.9,2.9,2.9,7.7,0,10.6L326.1,551.5z"/>
			<ellipse class="st4" cx="306.8" cy="514.9" rx="2.3" ry="4.5"/>
			<path class="st5" d="M329.3,537.8l-17.7-17.7c-0.5-0.5-1.1-0.9-1.7-1.3c0.5-1.1,0.8-2.4,0.8-4c0-2.8-1.1-5.2-2.7-5.9
				c-0.4-0.2-0.8-0.3-1.2-0.3c-2.3,0-3.9,2.6-3.9,6.2c0,1.3,0.2,2.6,0.7,3.6c-0.9,0.4-1.8,0.9-2.6,1.7l-3.1,3.1
				c-2.9,2.9-2.9,7.7,0,10.6l17.7,17.7c0.6,0.6,1.4,1.1,2.1,1.5c2.8,1.3,6.2,0.8,8.5-1.5l3.1-3.1
				C332.2,545.4,332.2,540.7,329.3,537.8z M306.8,512.2c0.3,0.4,0.6,1.3,0.6,2.7c0,1.4-0.4,2.3-0.6,2.7c-0.3-0.4-0.6-1.3-0.6-2.7
				C306.2,513.5,306.6,512.6,306.8,512.2z M326.9,546l-3.1,3.1c-1.2,1.2-3.1,1.6-4.7,0.8c-0.4-0.2-0.8-0.5-1.2-0.8l-17.7-17.7
				c-0.8-0.8-1.2-1.8-1.2-3c0-1.1,0.4-2.2,1.2-3l3.1-3.1c1.2-1.2,3.1-1.6,4.7-0.8c0.4,0.2,0.8,0.5,1.2,0.8l17.7,17.7
				c0.8,0.8,1.2,1.8,1.2,3C328.2,544.2,327.7,545.3,326.9,546z"/>
		</g>
	</g>
	<path id="star_2_" class="st2" d="M141.9,539.9l16.3,12.8c2.2,1.7,3.3,5.3,2.5,7.9l-6.1,20.7c-0.8,2.6,0.3,3.4,2.5,1.7l16-12.5
		c2.1-1.7,5.7-1.7,7.9,0l16.1,12.5c2.1,1.7,3.3,0.9,2.5-1.7l-6.3-20.8c-0.8-2.6,0.3-6.2,2.5-7.9l16.2-12.7c2.2-1.7,1.7-3.1-1.1-3.1
		h-19.7c-2.7,0-5.6-2.1-6.4-4.8l-6.4-21.2c-0.8-2.6-2.1-2.6-2.9,0l-6.3,21.2c-0.8,2.6-3.7,4.8-6.4,4.8H143
		C140.2,536.8,139.8,538.2,141.9,539.9z"/>
	<g id="snowman_1_">
		<path id="snowman_4_" class="st6" d="M61.8,550.9c0.3,0.3,6.4,6.5,8.9,14.5C76.6,558,60.4,543,58.2,541c2-2.2,3.3-5.1,3.3-8.4
			c0-1.6-0.3-3.1-0.9-4.6c-0.8,0.9-2,1.5-3.4,1.5H40.5c-1.3,0-2.3-0.5-3.1-1.3c-0.5,1.4-0.8,2.9-0.8,4.4c0,3.2,1.2,6.1,3.2,8.3
			c-1.7,1.4-18.3,15.7-12.6,24.3c2.6-7.9,8.5-13.9,8.8-14.3c0.5-0.5,1.2-0.5,1.7,0c0.5,0.5,0.5,1.2,0,1.7c-0.1,0.1-8.7,8.9-9.2,18.5
			c0,0.2,0,0.4,0,0.6c0,0.3,0,0.7,0,1c0.2,4.9,2.7,11.2,14.3,11.2h4.6h3.3h4.6c11.4,0,14-6.1,14.2-10.9c0-0.5,0-0.9,0-1.4
			c0-0.1,0-0.2,0-0.4c-0.5-9.7-9.2-18.5-9.2-18.6c-0.5-0.5-0.5-1.2,0-1.7C60.6,550.4,61.3,550.4,61.8,550.9z M42.7,534.5
			c-1,0-1.8-0.8-1.8-1.8c0-1,0.8-1.8,1.8-1.8c1,0,1.8,0.8,1.8,1.8C44.5,533.7,43.7,534.5,42.7,534.5z M48.7,534.3
			c1.3,0,2.4,1.1,2.4,2.4c0,0.4-0.1,0.8-0.3,1.1l0,0l-2.1,3.6l-2.1-3.6l0,0c-0.2-0.3-0.3-0.7-0.3-1.1
			C46.4,535.4,47.4,534.3,48.7,534.3z M49,573.6c-1.3,0-2.4-1.1-2.4-2.4c0-1.3,1.1-2.4,2.4-2.4c1.3,0,2.4,1.1,2.4,2.4
			C51.4,572.6,50.3,573.6,49,573.6z M49,562.6c-1.3,0-2.4-1.1-2.4-2.4c0-1.3,1.1-2.4,2.4-2.4c1.3,0,2.4,1.1,2.4,2.4
			C51.4,561.5,50.3,562.6,49,562.6z M49,551.6c-1.3,0-2.4-1.1-2.4-2.4c0-1.3,1.1-2.4,2.4-2.4c1.3,0,2.4,1.1,2.4,2.4
			C51.4,550.5,50.3,551.6,49,551.6z M55.2,534.5c-1,0-1.8-0.8-1.8-1.8c0-1,0.8-1.8,1.8-1.8c1,0,1.8,0.8,1.8,1.8
			C57,533.7,56.2,534.5,55.2,534.5z"/>
		<g id="hat_5_">
			<g>
				<path class="st4" d="M65.1,522.4c-1.6,0-2.9,1-3.3,2.4c0-2.6-2-4.8-4.6-4.8H40.5c-2.6,0-4.4,2.1-4.4,4.8s1.7,4.8,4.4,4.8h16.6
					c2.2,0,3.9-1.5,4.4-3.5c0.1,1.9,1.6,3.4,3.5,3.4c2,0,3.6-1.6,3.6-3.6C68.7,524,67.1,522.4,65.1,522.4z"/>
				<path class="st5" d="M65.1,522.3c-1.5,0-2.8,0.9-3.3,2.3c-0.1-2.5-2.1-4.6-4.6-4.6H40.5c-2.6,0-4.4,2.1-4.4,4.8
					c0,2.6,1.7,4.8,4.4,4.8h16.7c2.1,0,3.8-1.4,4.4-3.3c0.2,1.8,1.7,3.3,3.6,3.3c2,0,3.6-1.6,3.6-3.6
					C68.7,523.9,67.1,522.3,65.1,522.3z M57.1,528.4H40.5c-1.9,0-3.3-1.5-3.3-3.7c0-2.2,1.3-3.7,3.3-3.7h16.7c2,0,3.5,1.6,3.5,3.7
					C60.7,526.8,59.1,528.4,57.1,528.4z M65.1,528.3c-1.3,0-2.4-1.1-2.4-2.4c0-1.3,1.1-2.4,2.4-2.4c1.3,0,2.4,1.1,2.4,2.4
					C67.5,527.2,66.4,528.3,65.1,528.3z"/>
			</g>
			<path class="st3" d="M36.1,524.8c0-0.1,0-0.1,0-0.2C36.1,524.7,36.1,524.7,36.1,524.8C36.1,524.8,36.1,524.8,36.1,524.8z
				 M63.1,523c-3.7-5.1-11.6-15-16.4-14.1c-4.5,0.9-6,7.2-6.5,11.1c-0.1,0-0.2,0-0.2,0.1c0.2,0,0.4-0.1,0.6-0.1h16.7
				c2.6,0,4.5,2,4.6,4.6C62,523.9,62.5,523.4,63.1,523z"/>
		</g>
	</g>
	<path id="ribbon_3_" class="st3" d="M-41.5,517.8c0-0.4,0-0.8,0-1.2c0-5.2-11.1-16.9-37.5,5.8c-26.4-22.8-37.5-11-37.5-5.8
		c0,0.4,0,0.8,0,1.2c-0.1-0.4-0.1-0.8-0.1-1.2v24.8c0,8.4,10.2,9.7,20,8.9l-12.2,26.1c-0.5,1.1,0,1.7,1.2,1.3l5.8-2.1
		c1.2-0.4,2.5,0.2,2.9,1.3l2.1,5.8c0.4,1.2,1.2,1.2,1.7,0.1l15.9-34.2l12.5,34.4c0.4,1.2,1.2,1.2,1.7,0.1l2.6-5.5
		c0.5-1.1,1.9-1.6,3-1.1l5.5,2.6c1.1,0.5,1.7,0,1.3-1.2l-10.1-27.7c10.1,1,21.2,0,21.2-8.8v-24.8C-41.4,517-41.5,517.4-41.5,517.8z
		 M-110.6,517c4.5-8.3,24.2,7,24.2,7S-115,525-110.6,517z M-79,545c-4.2,0-7.5-3.4-7.5-7.5s3.4-7.5,7.5-7.5c4.2,0,7.5,3.4,7.5,7.5
		S-74.9,545-79,545z M-71.7,524c0,0,19.7-15.3,24.2-7C-43.1,525-71.7,524-71.7,524z"/>
	<g id="Reef_1_">
		<path class="st1" d="M461.5,377.4c0-15.8-12.8-28.6-28.6-28.6c-15.8,0-28.6,12.8-28.6,28.6c0,7.6,3,14.6,7.9,19.7v-5.3h0v0
			c0-1.6,0.8-3.2,2.2-4.5c0.9-0.8,2.4-1.7,4.5-2c-1.4-2.4-2.1-5.1-2.1-8c0-8.9,7.2-16.1,16.1-16.1c8.9,0,16.1,7.2,16.1,16.1
			c0,2.9-0.8,5.6-2.1,8c4.2,0.5,6.7,3.6,6.7,6.4v0h0v5.3C458.6,392,461.5,385.1,461.5,377.4z M412.2,378.9c-0.5,2.1-2.7,2.1-3.2,0
			c-2.1-0.5-2.1-2.7,0-3.2c0.5-2.1,2.7-2.1,3.2,0C414.3,376.2,414.3,378.4,412.2,378.9z M417.5,364.6c-0.5,2.1-2.7,2.1-3.2,0
			c-2.1-0.5-2.1-2.7,0-3.2c0.5-2.2,2.7-2.1,3.2,0C419.6,361.9,419.6,364.1,417.5,364.6z M434.6,356.7c-0.5,2.1-2.7,2.1-3.2,0
			c-2.1-0.5-2.1-2.7,0-3.2c0.5-2.1,2.7-2.1,3.2,0C436.7,354,436.7,356.2,434.6,356.7z M451.6,364.6c-0.5,2.1-2.7,2.1-3.2,0
			c-2.1-0.5-2.1-2.7,0-3.2c0.5-2.2,2.7-2.1,3.2,0C453.8,361.9,453.8,364.1,451.6,364.6z M453.7,379c-2.1-0.5-2.1-2.7,0-3.2
			c0.5-2.2,2.7-2.1,3.2,0c2.1,0.5,2.1,2.7,0,3.2C456.4,381.2,454.2,381.2,453.7,379z"/>
		<path class="st3" d="M450.8,392.4c0-0.2,0-0.4,0-0.6c0-0.1,0-0.2,0-0.3c0,0,0-0.1,0-0.1c0-0.1,0-0.1,0-0.2c0,0,0-0.1,0-0.1
			c0-0.1,0-0.1-0.1-0.2c0,0,0-0.1,0-0.1c0-0.1,0-0.1-0.1-0.2c0,0,0-0.1-0.1-0.1c0-0.1-0.1-0.1-0.1-0.2c0,0,0-0.1-0.1-0.1
			c0-0.1-0.1-0.1-0.1-0.2c0,0-0.1-0.1-0.1-0.1c0-0.1-0.1-0.1-0.1-0.2c0,0-0.1-0.1-0.1-0.1c-0.1-0.1-0.1-0.1-0.2-0.2
			c0,0-0.1-0.1-0.1-0.1c-0.1-0.1-0.2-0.1-0.2-0.2c0,0-0.1,0-0.1-0.1c-0.2-0.2-0.5-0.3-0.8-0.5c0,0-0.1,0-0.1,0
			c-0.1,0-0.2-0.1-0.3-0.1c-0.1,0-0.1,0-0.2-0.1c-0.1,0-0.2-0.1-0.3-0.1c-0.1,0-0.1,0-0.2-0.1c-0.1,0-0.2,0-0.3-0.1
			c-0.1,0-0.2,0-0.2,0c-0.1,0-0.2,0-0.3,0c-0.1,0-0.2,0-0.3,0c-0.1,0-0.2,0-0.3,0c-0.1,0-0.1,0-0.2,0c0,0-0.1,0-0.1,0
			c-2.7,0-6.6,1.4-11.7,5.7c-0.3,0.2-0.6,0.5-0.9,0.7c-0.3-0.3-0.6-0.5-0.9-0.7c-5.2-4.2-9-5.6-11.7-5.7c0,0-0.1,0-0.1,0
			c-0.1,0-0.1,0-0.2,0c-0.1,0-0.2,0-0.3,0c-0.1,0-0.2,0-0.3,0c-0.1,0-0.2,0-0.3,0c-0.1,0-0.2,0-0.2,0c-0.1,0-0.2,0-0.3,0.1
			c-0.1,0-0.1,0-0.2,0.1c-0.1,0-0.2,0.1-0.3,0.1c-0.1,0-0.1,0-0.2,0.1c-0.1,0-0.2,0.1-0.3,0.1c0,0-0.1,0-0.1,0.1
			c-0.1,0.1-0.3,0.1-0.4,0.2c0,0,0,0,0,0c-0.1,0.1-0.2,0.1-0.3,0.2c0,0-0.1,0.1-0.1,0.1c-0.1,0.1-0.1,0.1-0.2,0.2
			c0,0-0.1,0.1-0.1,0.1c-0.1,0.1-0.1,0.1-0.2,0.2c0,0-0.1,0.1-0.1,0.1c0,0.1-0.1,0.1-0.1,0.2c0,0-0.1,0.1-0.1,0.1
			c0,0.1-0.1,0.1-0.1,0.2c0,0-0.1,0.1-0.1,0.1c0,0.1-0.1,0.1-0.1,0.2c0,0,0,0.1-0.1,0.1c0,0.1-0.1,0.1-0.1,0.2c0,0,0,0.1,0,0.1
			c0,0.1,0,0.1-0.1,0.2c0,0,0,0.1,0,0.1c0,0.1,0,0.1,0,0.2c0,0,0,0.1,0,0.1c0,0.1,0,0.2,0,0.3c0,0.2,0,0.4,0,0.6c0-0.2,0-0.4,0-0.6
			v7.9v3.9c0,4,4.9,4.6,9.5,4.2l-5.8,12.4c-0.2,0.5,0,0.8,0.6,0.6l2.7-1c0.6-0.2,1.2,0.1,1.4,0.6l1,2.7c0.2,0.6,0.6,0.6,0.8,0
			l7.6-16.2l6,16.3c0.2,0.6,0.6,0.6,0.8,0l1.2-2.6c0.2-0.5,0.9-0.8,1.4-0.5l2.6,1.2c0.5,0.2,0.8,0,0.6-0.6l-4.8-13.2
			c4.8,0.5,10.1,0,10.1-4.2v-3.9v-7.9C450.8,392.1,450.8,392.2,450.8,392.4z M418,392.1c2.2-3.9,11.5,3.3,11.5,3.3
			S415.9,395.9,418,392.1z M433,405.4c-2,0-3.6-1.6-3.6-3.6c0-2,1.6-3.6,3.6-3.6c2,0,3.6,1.6,3.6,3.6
			C436.5,403.8,434.9,405.4,433,405.4z M436.4,395.4c0,0,9.4-7.3,11.5-3.3C450,395.9,436.4,395.4,436.4,395.4z"/>
	</g>
	<g id="pudding_1_">
		<path id="pudding_3_" class="st7" d="M304.1,367.9c-16.9,0-30.6,16.3-30.6,33.2v12.5c0,0,0.4,10.2,30.8,10.2
			c30.4,0,30.4-10.2,30.4-10.2v-12.5C334.7,384.2,321,367.9,304.1,367.9z"/>
		<path id="icing_1_" class="st4" d="M304.1,373.1c-11.6,0-22.4,10.2-24.8,22.6l0.1,0.4c0.4,3.2,1.9,5.8,3.3,5.8
			c1.4,0,2.8-2.4,3-5.3c0.3-2.9,1.1-5.3,1.9-5.4c0.7-0.1,1.5,2.5,1.8,5.7l0.7,9.2c0.2,3.2,1.8,5.8,3.6,5.8c1.7,0,3.4-2.6,3.7-5.8
			l1.2-12.5c0.3-3.2,1.7-6,3.1-6.3c1.4-0.2,3,2.2,3.4,5.4l1.4,10.2c0.4,3.2,2.2,5.8,3.9,5.7c1.7-0.1,3.6-2.7,4.1-5.9l0.3-1.9
			c0.5-3.2,2.4-5.8,4.2-5.8s3.7,2.4,4.3,5.4c0.6,3,2.1,5.4,3.4,5.4c1.2,0,2.5-2.6,2.8-5.8l0.1-1
			C328.3,385.3,316.7,373.1,304.1,373.1z"/>
		<g id="leaves_3_">
			<g>
				<path class="st1" d="M301.1,369.4c-1.9-4,0.1-10,0.1-10.1c0.1-0.3,0.1-0.7-0.1-0.9c-0.2-0.3-0.5-0.5-0.8-0.5
					c-0.9-0.1-3.4-0.6-4.5-1.7c-1.1-1.1-1.5-3.5-1.6-4.3c0-0.3-0.2-0.6-0.5-0.8c-0.3-0.2-0.6-0.2-0.9-0.1c-0.1,0-8.1,2.6-11.7-1
					c-0.4-0.4-1.1-0.4-1.5,0c-0.4,0.4-0.4,1.1,0,1.5c3.6,3.6,1,11.6,1,11.7c-0.1,0.3-0.1,0.7,0.1,0.9c0.2,0.3,0.5,0.5,0.8,0.5
					c0.9,0.1,3.3,0.5,4.4,1.6c1.1,1.1,1.6,3.6,1.7,4.5c0,0.3,0.2,0.6,0.5,0.8c0.3,0.2,0.6,0.2,0.9,0.1c0.1,0,5.6-1.8,9.5-0.3
					L301.1,369.4z"/>
				<path class="st1" d="M313.4,366.6c-0.2-0.7-0.5-2.7,0.1-3.8c0.5-1.1,2.2-2.1,2.8-2.3c0.2-0.1,0.4-0.3,0.5-0.6
					c0.1-0.3,0-0.5-0.2-0.7c0-0.1-4.1-5.3-2.4-9c0.2-0.4,0-0.9-0.4-1.2c-0.4-0.2-0.9,0-1.2,0.4c-1.7,3.7-8.4,3.9-8.5,3.9
					c-0.3,0-0.5,0.1-0.7,0.3c-0.2,0.2-0.2,0.5-0.1,0.7c0.2,0.7,0.5,2.6,0,3.7c-0.5,1.1-2.3,2.2-2.9,2.5c-0.2,0.1-0.4,0.3-0.5,0.6
					c-0.1,0.3,0,0.5,0.2,0.7c0,0,2.8,3.7,2.8,7c0.2-0.6,2.5,0.7,2.2,1.3c0,0.1-0.1,0.1-0.1,0.2c2.5-2.5,7.5-2.7,7.6-2.7
					c0.3,0,0.5-0.1,0.7-0.3C313.4,367.1,313.5,366.9,313.4,366.6z"/>
			</g>
		</g>
		<g id="berries_3_">
			<g>
				<circle class="st4" cx="306.8" cy="366.9" r="2.6"/>
				<path class="st3" d="M306.8,364.3c1.4,0,2.6,1.2,2.6,2.6c0,1.4-1.2,2.6-2.6,2.6s-2.6-1.2-2.6-2.6
					C304.2,365.4,305.4,364.3,306.8,364.3 M306.8,359c-4.3,0-7.9,3.5-7.9,7.9c0,4.3,3.5,7.9,7.9,7.9c4.3,0,7.9-3.5,7.9-7.9
					C314.7,362.6,311.2,359,306.8,359L306.8,359z"/>
			</g>
			<g>
				<circle class="st4" cx="298.6" cy="370.3" r="2.6"/>
				<path class="st3" d="M298.6,367.7c1.4,0,2.6,1.2,2.6,2.6c0,1.4-1.2,2.6-2.6,2.6c-1.4,0-2.6-1.2-2.6-2.6
					C296,368.9,297.2,367.7,298.6,367.7 M298.6,362.5c-4.3,0-7.9,3.5-7.9,7.9c0,4.3,3.5,7.9,7.9,7.9c4.3,0,7.9-3.5,7.9-7.9
					C306.5,366,302.9,362.5,298.6,362.5L298.6,362.5z"/>
			</g>
		</g>
	</g>
	<g id="nutcracker_2_">
		<g id="face_3_">
			<g id="head_3_">
				<path class="st4" d="M194.5,394.8h-35.3c-1.4,2.8-2.3,5.9-2.3,9.2c0,11,8.9,19.9,19.9,19.9c11,0,19.9-8.9,19.9-19.9
					C196.8,400.7,196,397.6,194.5,394.8z"/>
				<path class="st8" d="M194.5,394.8h-3.1c1.7,2.7,2.7,5.8,2.7,9.2c0,9.5-7.8,17.3-17.3,17.3c-9.5,0-17.3-7.7-17.3-17.3
					c0-3.4,1-6.5,2.7-9.2h-3.1c-1.4,2.8-2.3,5.9-2.3,9.2c0,11,8.9,19.9,19.9,19.9c11,0,19.9-8.9,19.9-19.9
					C196.8,400.7,196,397.6,194.5,394.8z"/>
			</g>
			<polygon id="nose_3_" class="st8" points="178.9,407.9 174.9,407.9 176.2,394.4 177.5,394.4 			"/>
			<g id="eyes_3_">
				<g>
					<g>
						<circle class="st9" cx="167" cy="399.6" r="2.5"/>
						<circle class="st9" cx="187.1" cy="399.6" r="2.5"/>
					</g>
				</g>
			</g>
			<path id="tash_1_" class="st10" d="M182.4,404c-3.8,0-5.5,3.3-5.5,3.3s-1.7-3.3-5.5-3.3c-3.8,0-12.6,11.3-22.4,1.5
				c0,0,1.6,11,20.7,11c0,0,5.3-0.5,7.2-2.3c1.9,1.9,7.2,2.3,7.2,2.3c19.1,0,20.7-11,20.7-11C195,415.4,186.2,404,182.4,404z"/>
		</g>
		<g id="hat_4_">
			<path class="st3" d="M176.9,384.6l-14.3,1.6v-15.1l14.3,10.2l14.3-10.2v15.1L176.9,384.6z M176.9,387.3l-18.2,2v5.5H195v-5.5
				L176.9,387.3z M176.9,374.4l14.3-10.2v-4.4c0,0-3.7-2.2-14.2-2.2c-10.5,0-14.4,2.2-14.4,2.2v4.4L176.9,374.4z"/>
			<circle class="st2" cx="176.9" cy="352.3" r="3.3"/>
		</g>
	</g>
	<g id="holy_1_">
		<path id="leaves_2_" class="st1" d="M81.4,393.2c-0.1,0.1-7.7,9.3-4.8,16c0.3,0.8,0,1.7-0.8,2c-0.8,0.3-1.7,0-2-0.8
			c-2.9-6.7-14.8-7.5-14.9-7.5c-0.5,0-0.9-0.3-1.2-0.7c-0.3-0.4-0.3-0.9-0.2-1.3c0.1-0.4,0.3-0.9,0.4-1.6c0.1-0.1,0.2-0.1,0.3-0.2
			c1.7-0.9,3-2.4,3.4-4.3c0.4-1.9,0-3.8-1.2-5.3c-1-1.3-3.1-4.5-4.5-7.9c0.2-0.4,0.4-0.8,0.5-1.2c1,0.3,2,0.5,3.1,0.5
			c3.6,0,6.7-1.8,8.5-4.5c3.5,1.1,6.7,1.4,6.8,1.4c0.5,0,0.9,0.3,1.2,0.6c0.3,0.4,0.4,0.9,0.2,1.3c-0.3,1.2-1,4.8-0.1,6.8
			c0.9,2,3.9,3.9,4.9,4.5c0.4,0.2,0.7,0.6,0.8,1.1C81.8,392.3,81.7,392.8,81.4,393.2z M56.9,392c0-0.1-2-2.6-3.8-6.1v0
			c-1.5-2.8-2.8-6.4-3.1-9.8c-0.3,0.3-0.6,0.5-0.9,0.7c-0.4,0.7-0.7,1.5-1.2,2.2c-0.9,1.5-1.9,3-2.7,4.5c-1.7,3-3.4,6.1-5.2,9
			c-1.8,3-3.6,6-5.5,8.9c-0.2,0.3-0.4,0.4-0.5,0.2c-0.1-0.1-0.1-0.3,0-0.5c1-3.3,2.2-6.7,3.3-10c1.1-3.3,2.3-6.6,3.6-9.8
			c0.3-0.9,0.6-1.8,0.9-2.7c-2.1-0.3-4.1-1.2-5.6-2.6c-5,1.5-9.7,1.7-9.8,1.7c-0.6,0-1.2,0.3-1.6,0.8c-0.4,0.5-0.5,1.2-0.4,1.8
			c0.4,1.6,1.1,6.6-0.2,9.4c-1.3,2.8-5.4,5.1-6.8,5.8c-0.6,0.3-1,0.8-1.2,1.4c-0.2,0.6,0,1.3,0.4,1.8c0.1,0.1,10.2,13.1,5.9,22.1
			c-0.5,1.1,0,2.3,1,2.8c1.1,0.5,2.3,0,2.8-1c4.2-9,20.6-9.7,20.8-9.7c0.6,0,1.2-0.3,1.6-0.8c0.4-0.5,0.5-1.2,0.4-1.8
			c-0.4-1.6-1.2-6.4,0.1-9.1c1.3-2.7,5.5-5.3,7-6.1c0.6-0.3,1-0.8,1.1-1.4C57.5,393.2,57.3,392.5,56.9,392z"/>
		<g id="berries_2_">
			<g>
				<path class="st3" d="M53.6,370.5c0,2.5,1.6,4.6,3.8,5.4l0,0c0,0,0,0,0,0c0.3,0.1,0.6,0.2,0.9,0.2c0.3,0.1,0.7,0.1,1,0.1
					c0.4,0,0.7,0,1.1-0.1c0,0,0.1,0,0.1,0c0.3-0.1,0.6-0.2,0.9-0.3c0.1,0,0.2-0.1,0.3-0.1c0.2-0.1,0.4-0.2,0.6-0.3
					c0.5-0.3,0.9-0.6,1.3-1.1c0,0,0,0,0,0v0c0.9-1,1.5-2.3,1.5-3.8c0-3.2-2.6-5.7-5.7-5.7C56.2,364.7,53.6,367.3,53.6,370.5z"/>
				<path class="st3" d="M42.2,374.1c0.3,0.1,0.6,0.1,0.9,0.1c0.1,0,0.2,0,0.3,0l0,0c3-0.2,5.4-2.6,5.4-5.7c0-3.2-2.6-5.7-5.7-5.7
					c-3.2,0-5.7,2.6-5.7,5.7C37.4,371.3,39.5,373.6,42.2,374.1z"/>
				<circle class="st3" cx="53.4" cy="354.7" r="5.7"/>
			</g>
		</g>
	</g>
	<path id="gingerbread_man_1_" class="st10" d="M-62,375.5c0-0.7,0.1-1.4,0.2-2c5.1-1.9,8,1.3,8,1.3c3.5,3.5,2.4,6.9-0.3,9.7
		C-58.6,383.9-62,380.1-62,375.5z M-66.6,420.9c3.2,3.1,7.2,4.8,11.5,0.5c2.7-2.7,2.4-6,0.9-9.2c-0.7-0.1-1.4-0.2-2.1-0.2
		C-61.5,411.9-65.9,415.8-66.6,420.9z M-93.6,363.5c0-8,6.5-14.5,14.5-14.5s14.5,6.5,14.5,14.5c0,5.8-3.4,10.8-8.4,13.1
		c-0.3-0.3-0.7-0.3-1.1-0.2l-1.4,0.5c-0.8,0.3-2.1,0.5-3,0.5h-1.3c-0.8,0-2.2-0.2-3-0.5l-1.4-0.5c-0.4-0.2-0.8-0.1-1.1,0.2
		C-90.1,374.3-93.6,369.3-93.6,363.5z M-75.9,360.1c0,0.2,0,0.4,0.1,0.6c0,0.2,0.2,0.3,0.4,0.3c0,0,0,0,0,0c0.2,0,0.4-0.1,0.4-0.3
		c0.2-1.3,1.3-2.2,2.6-2.2s2.4,0.9,2.6,2.2c0,0.2,0.2,0.3,0.4,0.3c0,0,0,0,0,0c0.2,0,0.4-0.1,0.4-0.3c0-0.2,0.1-0.4,0.1-0.6
		c0-1.9-1.6-3.5-3.5-3.5C-74.4,356.6-75.9,358.2-75.9,360.1z M-79,365.3c-4.6,0-8.4-0.5-8.4,1.6c0,2.1,3.8,6,8.4,6
		c4.6,0,8.4-3.9,8.4-6C-70.6,364.8-74.4,365.3-79,365.3z M-89.2,360.1c0,0.2,0,0.4,0.1,0.6c0,0.2,0.2,0.3,0.4,0.3c0,0,0,0,0,0
		c0.2,0,0.4-0.1,0.4-0.3c0.2-1.3,1.3-2.2,2.6-2.2c1.3,0,2.4,0.9,2.6,2.2c0,0.2,0.2,0.3,0.4,0.3c0,0,0,0,0,0c0.2,0,0.4-0.1,0.4-0.3
		c0-0.2,0.1-0.4,0.1-0.6c0-1.9-1.6-3.5-3.5-3.5C-87.6,356.6-89.2,358.2-89.2,360.1z M-94.2,375.5c0,5-3.4,9.3-8.1,10.5
		c4.3,3.4,10.2,5.7,10.2,5.7l0.1,7.5c0,0-0.8,0.6-2.1,1.6c2,1.6,4.7,3.1,6.9,2.2c2.5-1,5.3-5.5,5-20.9c-0.2,0-0.4,0.1-0.5,0.2
		l-1.4,0.5c-0.8,0.3-1.4-0.2-1.4-1V379c-3-1.4-6.2-3-8.2-4.2c-0.1-0.1-0.3-0.2-0.4-0.3C-94.2,374.9-94.2,375.2-94.2,375.5z
		 M-56.3,409.7c0.3,0,0.5,0,0.8,0c-1.8-2.7-4.3-5.2-6.4-7.1c-1.7,1.3-4,2.6-6.3,2.6c-0.7,0-1.4-0.1-2.1-0.4
		c-4.5-1.8-6.5-9.3-6.2-22.8c-0.7-0.1-1.4-0.2-1.9-0.2h-0.5c-0.1,0-0.1,0-0.1,0s0,0-0.1,0h-0.5c-0.2,0-0.4,0-0.6,0
		c0.3,13.6-1.7,21.2-6.2,23c-0.7,0.3-1.4,0.4-2.1,0.4c-2.6,0-5.3-1.7-7-3.1c-2.2,1.9-5,4.7-7,7.7c0,0,0.1,0,0.1,0
		c6,0,11,4.2,12.3,9.8c2.3-2.5,4.2-5.5,5.4-6.7c3.1-3.1,5.7-2.7,5.7-2.7s2.6-0.4,5.7,2.7c1.1,1.1,2.8,3.7,4.9,6.1
		C-66.9,413.7-62.1,409.7-56.3,409.7z M-102.5,411.9c-0.5,0-1,0-1.4,0.1c-1.6,3.3-1.9,6.6,0.8,9.3c4.1,4.1,7.8,2.8,10.9,0.1
		C-92.6,416.1-97,411.9-102.5,411.9z M-72.5,381.8c0,0.8-0.6,1.3-1.4,1l-0.6-0.2c-0.3,15,2.6,19.4,5,20.4c1.9,0.8,4.3-0.3,6.2-1.7
		c-1.6-1.3-2.7-2.2-2.7-2.2l0.1-7.5c0,0,5.9-2.2,10.2-5.7c-4.7-1.2-8.1-5.5-8.1-10.5c0-0.3,0-0.7,0.1-1c-0.1,0.1-0.3,0.2-0.4,0.3
		c-2,1.3-5.3,2.9-8.2,4.2V381.8z M-104.3,374.8c-3.5,3.5-2.4,6.9,0.3,9.7c4.5-0.5,7.9-4.3,7.9-8.9c0-0.7-0.1-1.4-0.2-2
		C-101.4,371.6-104.3,374.8-104.3,374.8z"/>
	<g id="gift_2_">
		<path id="gift_3_" class="st3" d="M428.6,218h-22.9v-10.9h22.9V218z M437.3,263.8h18c0.9,0,1.6-0.7,1.6-1.6v-39.8h-19.6V263.8z
			 M437.3,207.1V218h22.9v-10.9H437.3z M428.6,222.4h-19.6v39.8c0,0.9,0.7,1.6,1.6,1.6h18V222.4z"/>
		<polygon id="ribbon_1_" class="st2" points="446.6,202.7 452.8,196.6 445,196.6 445,188.8 433,200.9 420.9,188.8 420.9,196.6 
			413.2,196.6 419.3,202.7 		"/>
	</g>
	<g id="fairylight_1_">
		<g>
			<path class="st7" d="M311.2,254.3v4.2c0,0.6-0.5,1-1,1h-10.5c-0.6,0-1-0.5-1-1v-4.2c0-0.6,0.5-1,1-1h10.5
				C310.8,253.2,311.2,253.7,311.2,254.3z"/>
			<path class="st7" d="M309,260.7h-8.1c-0.4,0-0.6,0.3-0.6,0.6v1.9c0,0.4,0.3,0.6,0.6,0.6h8.1c0.4,0,0.6-0.3,0.6-0.6v-1.9
				C309.7,261,309.4,260.7,309,260.7z"/>
		</g>
		<g id="bulb_1_">
			<path class="st4" d="M306.2,212.1c0.4,0.5,9.1,11.5,9.1,22.6c0,6.7-2.4,9.2-4.4,11.1c-1.3,1.4-2.2,2.3-2.2,4.5v1.6h-7.3v-1.6
				c0-2.2-0.9-3.1-2.2-4.5c-2-2-4.4-4.5-4.4-11.1c0-11.1,8.7-22.1,9.1-22.6l1.2-1.5L306.2,212.1z"/>
			<path class="st2" d="M306.2,212.1l-1.2-1.5l-1.2,1.5c-0.4,0.5-9.1,11.5-9.1,22.6c0,6.7,2.4,9.2,4.4,11.1c1.3,1.4,2.2,2.3,2.2,4.5
				v1.6h7.3v-1.6c0-2.2,0.9-3.1,2.2-4.5c2-2,4.4-4.5,4.4-11.1C315.2,223.6,306.5,212.6,306.2,212.1z M308.6,243.7
				c-1.2,1.3-2.6,2.6-3,5.1h-1.3c-0.4-2.4-1.8-3.8-3-5.1c-1.7-1.7-3.5-3.6-3.5-8.9c0-7.6,4.8-15.6,7.2-19c2.3,3.4,7.1,11.3,7.1,19
				C312.1,240.1,310.3,241.9,308.6,243.7z"/>
		</g>
		<g id="shine_1_">
			<g>
				<path class="st2" d="M304.9,207c1.2,0,2.2-11.9,2.2-14.1c0-2.2,0-4.1-2.1-4.1c-2.2,0-2.2,1.8-2.2,4.1
					C302.8,195.1,303.7,207,304.9,207z"/>
				<path class="st2" d="M324.2,199.3c-1.2-1.1-2.1-0.1-3.2,1.1c-1.1,1.2-6.6,8.2-6,8.8c0.7,0.6,7.2-5.4,8.3-6.6
					C324.5,201.4,325.4,200.4,324.2,199.3z"/>
				<path class="st2" d="M295.1,209.1c0.6-0.6-5-7.5-6.2-8.7c-1.2-1.2-2.1-2.2-3.3-1.1c-1.2,1.1-0.2,2.1,0.9,3.3
					C287.8,203.9,294.4,209.7,295.1,209.1z"/>
			</g>
		</g>
	</g>
	<g id="elf_1_">
		<g id="face_2_">
			<g id="ears_1_">
				<g>
					<path class="st4" d="M201.4,232.7c1,2.8,1.6,5.8,1.6,8.9c0.3-0.3,0.5-0.7,0.8-1.2c2.1-3.9,3-9.1,3-9.1S204.2,231.7,201.4,232.7
						z"/>
					<path class="st4" d="M152,241.6c0-2.9,0.5-5.7,1.4-8.3c-3.1-1.3-7-2-7-2s0.9,5.2,3,9.1c0.9,1.6,1.7,2.2,2.6,2.2
						C152.1,242.2,152,241.9,152,241.6z"/>
				</g>
				<g>
					<path class="st1" d="M206.6,229.8c-1.1,0.2-3.4,0.7-5.8,1.5c0.4,0.9,0.8,1.9,1.1,2.8c0.9-0.3,1.9-0.6,3-0.9
						c-0.4,1.6-1.1,3.7-2,5.7c0.1,0.9,0.2,1.8,0.2,2.7c0,0.7-0.1,1.3-0.1,2c1.2-0.7,2-2,2.3-2.6c2.2-4.1,3.1-9.3,3.2-9.6l0.4-2.1
						L206.6,229.8z"/>
					<path class="st1" d="M152,241.6c0-0.2,0-0.4,0-0.6c0,0-0.1,0-0.1,0c-0.1,0-0.6-0.3-1.2-1.4c-1.1-2.1-1.9-4.7-2.4-6.4
						c1.6,0.4,3.2,0.9,4.5,1.5c0.3-1,0.6-1.9,1-2.9c-2.7-1.2-5.8-1.8-7.2-2.1l-2.1-0.4l0.4,2.1c0,0.2,1,5.5,3.2,9.6
						c0.4,0.7,1.6,3,3.8,3c0.1,0,0.1,0,0.2,0C152.1,243.2,152,242.4,152,241.6z"/>
				</g>
			</g>
			<g id="head_2_">
				<path class="st4" d="M197.5,231.2h-39.9c-1.6,3.1-2.6,6.7-2.6,10.4c0,12.4,10.1,22.5,22.5,22.5c12.4,0,22.5-10.1,22.5-22.5
					C200.1,237.9,199.1,234.3,197.5,231.2z"/>
				<path class="st1" d="M197.5,231.2H194c1.9,3,3,6.6,3,10.4c0,10.8-8.8,19.5-19.5,19.5c-10.8,0-19.5-8.8-19.5-19.5
					c0-3.8,1.1-7.4,3-10.4h-3.5c-1.6,3.1-2.6,6.7-2.6,10.4c0,12.4,10.1,22.5,22.5,22.5c12.4,0,22.5-10.1,22.5-22.5
					C200.1,237.9,199.1,234.3,197.5,231.2z"/>
			</g>
			<path id="smile_1_" class="st1" d="M177.6,250.5c-4.7,0-8.4-0.5-8.4,1.6c0,2.1,3.8,6,8.4,6c4.7,0,8.4-3.9,8.4-6
				C186,250,182.2,250.5,177.6,250.5z"/>
			<polygon id="nose_2_" class="st1" points="179.8,246 175.3,246 176.8,230.7 178.3,230.7 			"/>
			<g id="eyes_2_">
				<circle class="st1" cx="166.4" cy="236.6" r="2.8"/>
				<circle class="st1" cx="189.1" cy="236.6" r="2.8"/>
			</g>
		</g>
		<path id="hat_3_" class="st7" d="M177.5,219.7l-15.3,1.7c1.7-10.5,6.4-32.2,15.5-32.2c9,0,13.6,21.7,15.3,32.2L177.5,219.7z
			 M177.5,222.7L157,225v6.3h41.1V225L177.5,222.7z"/>
	</g>
	<g id="drums_2_">
		<g>
			<polygon class="st9" points="35.8,233.6 46,213.7 25.6,213.7 			"/>
			<polygon class="st2" points="48.8,219.1 38.6,239 59.1,239 			"/>
			<polygon class="st2" points="22.8,219.1 22.8,239 33,239 			"/>
			<polygon class="st2" points="64.6,239 74.9,239 74.9,219.1 			"/>
			<polygon class="st9" points="51.6,213.7 61.8,233.6 72.1,213.7 			"/>
		</g>
		<g>
			<path class="st3" d="M79.8,251.4c0,1.4-1.1,2.5-2.5,2.5h-57c-1.4,0-2.5-1.1-2.5-2.5v-5c0-1.4,1.1-2.5,2.5-2.5h57
				c1.4,0,2.5,1.1,2.5,2.5V251.4z"/>
			<path class="st3" d="M79.8,206.3c0,1.4-1.1,2.5-2.5,2.5h-57c-1.4,0-2.5-1.1-2.5-2.5v-5c0-1.4,1.1-2.5,2.5-2.5h57
				c1.4,0,2.5,1.1,2.5,2.5V206.3z"/>
		</g>
	</g>
	<g id="cracker_1_">
		<g>
			<path class="st1" d="M-96.9,252.8l-8.3-0.2l-0.2-8.3l-6.4-0.2l-4.3,4.3c-0.4,0.4-0.4,1.1,0,1.5l13.7,13.7c0.4,0.4,1.1,0.4,1.5,0
				l4.3-4.3L-96.9,252.8z"/>
			<path class="st1" d="M-57,189.2l-4.3,4.3l0.2,6.4l8.3,0.2l0.2,8.3l6.4,0.2l4.3-4.3c0.4-0.4,0.4-1.1,0-1.5l-13.7-13.7
				C-55.9,188.7-56.6,188.7-57,189.2z"/>
			<path class="st3" d="M-55.4,211.3l-0.2-8.3l-8.3-0.2l-0.2-6.4l-4.6,4.6c-0.4,0.4-0.6,1.2-0.4,1.8l1.2,3.7
				c0.2,0.6-0.1,0.9-0.7,0.7l-3.7-1.2c-0.6-0.2-1.4,0-1.8,0.4l-25,25c-0.4,0.4-0.6,1.2-0.4,1.8l1.2,3.7c0.2,0.6-0.1,0.9-0.7,0.7
				l-3.7-1.2c-0.6-0.2-1.4,0-1.8,0.4l-4.6,4.6l6.4,0.2l0.2,8.3l8.3,0.2l0.2,6.4l4.6-4.6c0.4-0.4,0.6-1.2,0.4-1.8l-1.2-3.7
				c-0.2-0.6,0.1-0.9,0.7-0.7l3.7,1.2c0.6,0.2,1.4,0,1.8-0.4l25-25c0.4-0.4,0.6-1.2,0.4-1.8l-1.2-3.7c-0.2-0.6,0.1-0.9,0.7-0.7
				l3.7,1.2c0.6,0.2,1.4,0,1.8-0.4l4.6-4.6L-55.4,211.3z"/>
		</g>
		<g id="dots_1_">
			<g>
				<g>
					
						<ellipse transform="matrix(0.7071 -0.7071 0.7071 0.7071 -192.4258 6.586)" class="st4" cx="-88.3" cy="235.6" rx="2.9" ry="2.9"/>
				</g>
			</g>
			<g>
				<g>
					
						<ellipse transform="matrix(0.7071 -0.7071 0.7071 0.7071 -183.1951 10.4121)" class="st4" cx="-79" cy="226.3" rx="2.9" ry="2.9"/>
				</g>
			</g>
			<g>
				<g>
					
						<ellipse transform="matrix(0.7071 -0.7071 0.7071 0.7071 -173.9616 14.2364)" class="st4" cx="-69.8" cy="217.1" rx="2.9" ry="2.9"/>
				</g>
			</g>
			
				<ellipse transform="matrix(0.707 -0.7072 0.7072 0.707 -171.3669 16.5175)" class="st11" cx="-65.7" cy="215.1" rx="1.4" ry="1.4"/>
			
				<ellipse transform="matrix(0.7072 -0.707 0.707 0.7072 -195.8519 6.3273)" class="st11" cx="-90.3" cy="239.6" rx="1.4" ry="1.4"/>
		</g>
	</g>
	<path id="candy_1_" class="st3" d="M462.2,60c-0.7,1.8-2.3,3.1-4,3.6c-0.1,0-0.2,0.1-0.3,0.1c-0.2,0.1-0.4,0.1-0.6,0.1
		c-0.2,0-0.4,0-0.5,0.1c-0.2,0-0.4,0-0.5,0c-0.2,0-0.5,0-0.7-0.1c-0.1,0-0.3,0-0.4-0.1c-0.4-0.1-0.8-0.2-1.1-0.3
		c-3.2-1.3-4.8-5-3.5-8.2c0.1-0.2,0.1-0.3,0.2-0.6c0,0,0-0.1,0-0.1c0.1-0.2,0.1-0.4,0.2-0.7l0,0c0.4-1.5,0.9-3.6,1-5.8l0,0
		c0.1-1.6-0.1-3.3-0.5-4.8c-0.1-0.4-0.3-0.8-0.4-1.2c-0.6-1.4-1.6-2.6-3-3.6l0,0c-0.5-0.4-1-0.7-1.6-1c-0.6-0.3-1.2-0.6-2-0.9
		c0,0,0,0,0,0c-2.7-1-4.9-1-6.8-0.1c-0.3,0.2-0.6,0.3-0.9,0.5c-0.1,0-0.1,0.1-0.2,0.1c-0.3,0.2-0.5,0.4-0.8,0.6c0,0,0,0,0,0
		c-0.2,0.2-0.5,0.5-0.7,0.7c0,0.1-0.1,0.1-0.1,0.2c-0.2,0.2-0.4,0.5-0.6,0.8l0,0c-1.1,1.4-1.7,2.9-2,3.5l0,0
		c-0.1,0.2-0.1,0.3-0.1,0.3l-0.1,0.3l-3.7,10.2l-1.9,5.2l-3.9,10.7l-1.9,5.2l-3.9,10.7l-1.9,5.2l-1.3,3.5c-0.2,0.4-0.4,0.8-0.6,1.2
		c0,0.1-0.1,0.1-0.1,0.2c-0.2,0.3-0.4,0.6-0.7,0.9c0,0-0.1,0.1-0.1,0.1c-0.3,0.3-0.6,0.5-1,0.8c0,0,0,0,0,0
		c-0.4,0.2-0.8,0.4-1.2,0.6c0,0,0,0,0,0l0,0c-1.4,0.5-2.9,0.6-4.4,0.1c-3.3-1.2-5-4.8-3.8-8.1l2.9-7.9l8.8,7.5l1.9-5.2l-8.8-7.5
		l3.9-10.7l8.8,7.5l1.9-5.2l-8.8-7.5l3.9-10.7l8.8,7.5l1.9-5.2l-8.8-7.5l2.1-5.6c0.2-0.7,0.9-2.5,2.2-4.8l8.4,7.2l1-2.8l0.1-0.3
		c0,0,0.3-0.9,1-1.9l-7.5-6.4c1.7-1.9,3.8-3.8,6.5-5.1c1.5-0.7,3.4-1.4,5.8-1.7c-1.4,1.3-0.7,5.3-0.2,9.3c2-0.9,4.4-0.9,7.2,0.1
		c0.1-2.8-0.2-6.4-0.5-9.2c1.4,0.2,2.8,0.6,4.4,1.1c0,0,0,0,0.1,0c3.7,1.3,6.8,3.3,9.2,5.7c-2,0.5-4.7,3.3-7.4,5.8
		c0.8,0.8,1.4,1.7,1.8,2.7c0.6,1.2,0.9,2.5,1.1,3.8c2.5-1.2,6-4.3,8.6-6.6c0.1,0.3,0.3,0.5,0.4,0.8c1.8,4.1,2.2,8.4,2,12.1
		c-2-1.2-6.9-0.7-11-0.9c-0.2,1.6-0.6,3-1,3.9c-0.3,0.8-0.5,1.7-0.5,2.5c2.4,1.1,7.5,1.3,11.4,1.5C462.9,58.2,462.3,59.6,462.2,60z"
		/>
	<g id="candle_1_">
		<path class="st10" d="M325.4,90.2c0-1.7-1.3-3-3-3h-38.2c-1.7,0-3,1.3-3,3c0,1.5,1,2.7,2.4,2.9c0.1,1.7,1.2,5.3,2.6,5.3h34.2
			c1.3,0,2.4-3.6,2.6-5.3C324.4,92.9,325.4,91.7,325.4,90.2z"/>
		<path class="st6" d="M297.5,62.4v21h16.5V46.8c0,0,0.1-2.5-1.9-2.1c-3.8,0.8-7.7-2.4-10.5,0.4c-1.1,1.1-0.3,2.2-0.3,2.2
			s-4.5-1.5-4.5,2.2c0,6.3-4.1,5.9-4.1,10.1C292.7,64.4,297.5,65.5,297.5,62.4z"/>
		<path class="st2" d="M299.5,35.1c0-4.4,7.7-6.9,9.7-10.2c0,0,0,0,0,0c0,0,0-0.1,0.1-0.1c0.2-0.4-0.1-0.6-0.1-0.6c0,0,0,0,0,0
			c-0.1-0.1-0.2-0.2-0.2-0.3c0-0.2,0.2-0.4,0.4-0.4c0.1,0,0.2,0,0.2,0.1c0,0,0,0,0,0c0,0,2.6,1.2,0.6,5.5c-1.5,3.1,3,3.7,1.7,8
			c-0.4,1.3-1.1,2.8-3.9,3.2c-0.4-0.9-1.2-0.7-2-2.9c-0.8-2.2-0.6-3.8-1-3.8c-2.1,2.1-2.1,3.7-1.4,6.6
			C302,39.6,299.5,38.3,299.5,35.1z"/>
	</g>
	<g id="brandy_2_">
		<g id="glass_1_">
			<path class="st4" d="M205.8,49.8c0-18.3-6.2-25.8-6.2-25.8c-0.2-0.3-0.7-0.5-1.1-0.5h-21.1c-0.4,0-1,0-1.4,0h-21.1
				c-0.4,0-0.9,0.2-1.1,0.5c0,0-6.2,7.5-6.2,25.8c0,25.5,25.7,25.5,25.7,25.5c0.4,0,0.7,0.3,0.7,0.7v8.3c0,0.4-0.2,0.9-0.5,1.1
				l-14,11.2c-0.3,0.2-0.3,0.4,0.1,0.4c0,0,2.8,1.5,17.2,1.5s17.2-1.5,17.2-1.5c0.4,0,0.4-0.2,0.1-0.4l-14-11.2
				c-0.3-0.2-0.5-0.7-0.5-1.1v-8.3c0-0.4,0.3-0.7,0.7-0.7C180.1,75.2,205.8,75.2,205.8,49.8z"/>
			<path class="st5" d="M196.2,28.9c1.4,2.8,4.1,9.4,4.1,20.9c0,8.3-3.1,13.9-9.5,17.2c-5.2,2.7-10.7,2.8-10.7,2.8
				c-1.3,0-2.5,0.4-3.4,1c-1-0.7-2.2-1-3.4-1c-0.1,0-5.3-0.1-10.4-2.6c-6.6-3.3-9.8-8.9-9.8-17.3c0-11.5,2.6-18.1,4.1-20.9H176h1.4
				H196.2 M176.7,89.7l3.9,3.1c-1.2,0-2.5,0-3.9,0c-1.4,0-2.8,0-3.9,0L176.7,89.7 M198.5,23.4h-21.1c-0.4,0-1,0-1.4,0h-21.1
				c-0.4,0-0.9,0.2-1.1,0.5c0,0-6.2,7.5-6.2,25.8c0,25.5,25.7,25.5,25.7,25.5c0.4,0,0.7,0.3,0.7,0.7v8.3c0,0.4-0.2,0.9-0.5,1.1
				l-14,11.2c-0.3,0.2-0.3,0.4,0.1,0.4c0,0,2.8,1.5,17.2,1.5s17.2-1.5,17.2-1.5c0.4,0,0.4-0.2,0.1-0.4l-14-11.2
				c-0.3-0.2-0.5-0.7-0.5-1.1v-8.3c0-0.4,0.3-0.7,0.7-0.7c0,0,25.7,0,25.7-25.5c0-18.3-6.2-25.8-6.2-25.8
				C199.4,23.6,198.9,23.4,198.5,23.4L198.5,23.4z"/>
		</g>
		<path id="drink_1_" class="st10" d="M176.7,45.7c-5.4,0-10.3,0.2-13.9,0.6c0.3,2.9,1,5.8,2.7,8c2.2,2.9,5.6,4.3,10.4,4.3
			c1.1,0,2.1,0.9,2.1,2.1c0,1.1-0.9,2.1-2.1,2.1c-6.2,0-10.8-2-13.7-6c-2.1-2.9-3.1-6.4-3.4-9.9c-1.7,0.3-2.6,0.7-2.6,1.1l0,0.6
			c0,18,18.7,18,18.7,18h3.9c0,0,18.7,0,18.7-18l0-0.6C197.3,46.7,188.1,45.7,176.7,45.7z"/>
	</g>
	<path id="bell_1_" class="st2" d="M53.8,82.5c0,0.1,0,0.1-0.1,0.2c-1,2.8-4.2,4.3-7,3.3c-2.7-1-4.2-3.9-3.4-6.6
		C47.3,80.8,50.8,81.9,53.8,82.5z M45.9,76.1c-0.5-0.2-1-0.4-1.6-0.6C21.1,67.1,25.4,61.4,30,59.3c4.5-2.1,7.6-9.2,12.2-21.8
		c2.6-7.1,8.2-8.6,12.6-8.5c0-0.6,0.1-1.1,0.3-1.7c1.1-3.1,4.6-4.7,7.7-3.6c3.1,1.1,4.7,4.6,3.6,7.7c-0.2,0.5-0.4,0.9-0.7,1.3
		c3.6,2.7,7.4,7.6,4.7,15.1c-4.6,12.6-6.8,20-4.7,24.5c1.8,3.8,1.8,9.5-12.2,6c0,0,0,0,0,0c-0.5-0.1-1.1-0.3-1.7-0.4c0,0,0,0-0.1,0
		C50,77.4,48,76.8,45.9,76.1C45.9,76.1,45.9,76.1,45.9,76.1z M58.1,29.3c1.7,0.3,2.8,0.7,2.8,0.7s0.8,0.3,2,0.9
		c0.1-0.2,0.3-0.4,0.4-0.7c0.5-1.4-0.2-2.9-1.6-3.4c-1.4-0.5-2.9,0.2-3.4,1.6C58.1,28.8,58.1,29,58.1,29.3z M56.6,33.7
		c-0.2-0.2-0.4-0.4-0.6-0.6c-0.8-0.1-1.8-0.1-2.7,0c-3.7,0.3-6.1,2.2-7.4,5.8c-4.6,12.7-8.1,21.2-14.2,24c-0.6,0.3-0.9,0.5-1.1,0.7
		c0.3,0.4,0.9,1.1,2.4,2.2c0.7-0.9,1.8-1.7,2.9-2.2c4.5-2.1,7.6-9.2,12.2-21.8C49.8,36.7,53.2,34.5,56.6,33.7z M52.8,89.4
		c-0.6,0.2,0.9,6.2,1.3,7.3c0.4,1.1,0.7,2,1.7,1.6c1.1-0.4,0.8-1.2,0.4-2.3C55.8,94.9,53.4,89.2,52.8,89.4z M46.8,90.3
		c-0.4-0.2-2.6,3.9-2.9,4.7c-0.3,0.8-0.6,1.4,0.2,1.8c0.8,0.3,1-0.3,1.4-1.1C45.7,94.9,47.2,90.5,46.8,90.3z M61.8,88.9
		c-0.8-0.4-5.1-2.1-5.3-1.7c-0.2,0.4,3.7,2.8,4.5,3.2c0.8,0.4,1.4,0.7,1.8-0.1C63.2,89.6,62.6,89.3,61.8,88.9z"/>
	<g id="ball_ball_1_">
		<g>
			<g>
				<g>
					<path class="st2" d="M-50,69.4c0,0.9-0.1,1.7-0.1,2.6c-0.3-1-0.6-2.1-0.7-3c-0.8-3.7-1.6-7.2-4.4-7.2c-2.8,0-3.6,3.5-4.4,7.2
						c-0.2,1-0.5,2.4-0.9,3.4c-0.3-1-0.6-2.4-0.9-3.4c-0.8-3.7-1.6-7.2-4.4-7.2c-2.8,0-3.6,3.5-4.4,7.2c-0.2,1-0.5,2.4-0.9,3.4
						c-0.3-1-0.6-2.4-0.9-3.4c-0.8-3.7-1.6-7.2-4.4-7.2c-2.8,0-3.6,3.5-4.4,7.2c-0.2,1-0.5,2.4-0.9,3.4c-0.3-1-0.6-2.4-0.9-3.4
						c-0.8-3.7-1.6-7.2-4.4-7.2c-2.8,0-3.6,3.5-4.4,7.2c-0.2,1-0.5,2.4-0.9,3.4c-0.3-1-0.6-2.4-0.9-3.4c-0.8-3.7-1.6-7.2-4.4-7.2
						c-2.8,0-3.6,3.5-4.4,7.2c-0.2,1-0.5,2.4-0.9,3.4c-0.3-1-0.6-2.4-0.9-3.4c-0.7-3.2-1.4-6.3-3.4-7c0.5-1.8,1.1-3.6,2-5.3H-53
						C-51.1,60.5-50,64.8-50,69.4z"/>
				</g>
				<g>
					<path class="st2" d="M-51,76.8c-0.5,1.8-1.1,3.6-2,5.3h-52.1c-1.9-3.8-3-8.1-3-12.7c0-0.9,0.1-1.7,0.1-2.6c0.3,1,0.5,2.1,0.7,3
						c0.8,3.7,1.6,7.2,4.4,7.2c2.8,0,3.6-3.5,4.4-7.2c0.2-1,0.5-2.4,0.9-3.4c0.3,1,0.6,2.4,0.9,3.4c0.8,3.7,1.6,7.2,4.4,7.2
						c2.8,0,3.6-3.5,4.4-7.2c0.2-1,0.5-2.4,0.9-3.4c0.3,1,0.6,2.4,0.9,3.4c0.8,3.7,1.6,7.2,4.4,7.2c2.8,0,3.6-3.5,4.4-7.2
						c0.2-1,0.5-2.4,0.9-3.4c0.3,1,0.6,2.4,0.9,3.4c0.8,3.7,1.6,7.2,4.4,7.2c2.8,0,3.6-3.5,4.4-7.2c0.2-1,0.5-2.4,0.9-3.4
						c0.3,1,0.6,2.4,0.9,3.4c0.8,3.7,1.6,7.2,4.4,7.2c2.8,0,3.6-3.5,4.4-7.2c0.2-1,0.5-2.4,0.9-3.4c0.3,1,0.7,2.4,0.9,3.4
						C-53.7,73-53,76.1-51,76.8z"/>
				</g>
			</g>
		</g>
		<g>
			<g>
				<g>
					<path class="st1" d="M-103,85.7h48c-5.2,7.7-14,12.7-24,12.7C-89,98.4-97.8,93.4-103,85.7z"/>
				</g>
				<g>
					<g>
						<path class="st1" d="M-70,41.8v-9.4c0-5-4.1-9.1-9.1-9.1c-5,0-9.1,4.1-9.1,9.1v9.4c-6.1,2-11.4,6-14.9,11.2h48
							C-58.6,47.9-63.9,43.9-70,41.8z M-83.9,32.5c0-2.7,2.2-4.9,4.9-4.9c2.7,0,4.9,2.2,4.9,4.9H-83.9z"/>
					</g>
				</g>
			</g>
		</g>
	</g>
</g>
<g id="info">
	<path id="om_1_" class="st0" d="M91.6,687.1c-1.8,0-2.8,1.3-2.8,3c0,1.7,1,3,2.8,3c1.8,0,2.8-1.3,2.8-3
		C94.3,688.5,93.4,687.1,91.6,687.1z M91.6,692.3c-1,0-1.8-0.8-1.8-2.1c0-1.4,0.8-2.2,1.8-2.2c1,0,1.8,0.8,1.8,2.2
		C93.3,691.5,92.5,692.3,91.6,692.3z M97.5,685c0.2,0,0.4,0,0.6,0.1v0.8c-0.2-0.1-0.4-0.1-0.5-0.1c-0.5,0-0.7,0.1-0.7,0.6v0.8H98
		v0.8h-1.1v4.9h-0.9v-4.9h-1v-0.8h1v-0.8C95.9,685.5,96.5,685,97.5,685z M100.7,685c0.2,0,0.4,0,0.6,0.1v0.8
		c-0.2-0.1-0.4-0.1-0.5-0.1c-0.5,0-0.7,0.1-0.7,0.6v0.8h1.1v0.8H100v4.9h-0.9v-4.9h-1v-0.8h1v-0.8C99.1,685.5,99.6,685,100.7,685z
		 M106.5,691.3c0,1.4-1.3,1.8-2.4,1.8c-1.3,0-2.4-0.5-2.4-1.9h0.9c0,0.8,0.8,1.1,1.5,1.1c0.6,0,1.4-0.1,1.4-0.8
		c0-0.7-0.9-0.8-1.9-1.1c-0.9-0.2-1.9-0.5-1.9-1.6c0-1.1,1.1-1.6,2.1-1.6c1.3,0,2.3,0.4,2.3,1.8h-0.9c-0.1-0.7-0.7-1-1.3-1
		c-0.6,0-1.2,0.2-1.2,0.7c0,0.7,1,0.8,1.9,1C105.6,689.9,106.5,690.2,106.5,691.3z M110,687.1c-1.6,0-2.7,1.3-2.7,3
		c0.1,1.7,0.9,3,2.7,3c1.3,0,2.2-0.7,2.4-1.9h-0.9c-0.2,0.7-0.7,1.1-1.5,1.1c-1.2,0-1.8-0.9-1.8-1.9h4.3
		C112.7,689,112.1,687.1,110,687.1z M108.4,689.6c0.1-0.9,0.6-1.6,1.6-1.6c0.9,0,1.6,0.7,1.6,1.6H108.4z M115,687.3h1.1v0.8H115v3.5
		c0,0.4,0.1,0.5,0.7,0.5h0.4v0.8h-0.7c-1,0-1.4-0.2-1.4-1.2v-3.6h-1v-0.8h1v-1.7h0.9V687.3z M128.4,688.8v4.2h-0.9v-3.7
		c0-0.7-0.2-1.3-1.1-1.3c-0.9,0-1.5,0.6-1.5,1.5v3.5H124v-3.7c0-0.7-0.2-1.3-1.1-1.3c-1.1,0-1.5,1-1.5,1.5v3.5h-0.9v-5.7h0.9v0.8h0
		c0.4-0.6,1.1-1,1.8-1c0.7,0,1.3,0.3,1.6,1c0.4-0.6,1.1-1,1.8-1C127.7,687.1,128.4,687.6,128.4,688.8z M132.3,687.1
		c-1.6,0-2.7,1.3-2.7,3c0.1,1.7,0.9,3,2.7,3c1.3,0,2.2-0.7,2.4-1.9h-0.9c-0.2,0.7-0.7,1.1-1.5,1.1c-1.2,0-1.8-0.9-1.8-1.9h4.3
		C134.9,689,134.3,687.1,132.3,687.1z M130.6,689.6c0.1-0.9,0.6-1.6,1.6-1.6c0.9,0,1.6,0.7,1.6,1.6H130.6z M140.1,688L140.1,688
		c-0.4-0.7-1.3-0.9-1.9-0.9c-1.7,0-2.6,1.4-2.6,3c0,1.6,0.9,3,2.6,3c0.8,0,1.5-0.3,1.8-0.9h0v0.8h0.9v-7.9h-0.9V688z M138.4,692.3
		c-1.2,0-1.8-1-1.8-2.1c0-1.1,0.4-2.2,1.7-2.2c1.3,0,1.8,1,1.8,2.2C140.1,691.2,139.6,692.3,138.4,692.3z M142.6,685.1h0.9v1.1h-0.9
		V685.1z M142.6,687.3h0.9v5.7h-0.9V687.3z M149.6,691.6v-2.9c0-1.3-1.1-1.6-2.1-1.6c-1.3,0-2.4,0.5-2.4,1.9h0.9
		c0-0.8,0.6-1.1,1.4-1.1c0.6,0,1.3,0.1,1.3,0.9c0,0.7-0.9,0.6-1.9,0.8c-1,0.2-1.9,0.5-1.9,1.8c0,1.1,0.8,1.6,1.9,1.6
		c0.8,0,1.5-0.3,2-0.9c0,0.6,0.3,0.9,0.8,0.9c0.3,0,0.5-0.1,0.7-0.2v-0.7c-0.1,0-0.2,0.1-0.3,0.1
		C149.6,692.3,149.6,692.1,149.6,691.6z M148.7,691c0,0.5-0.5,1.3-1.7,1.3c-0.6,0-1.1-0.2-1.1-0.8c0-0.7,0.5-0.9,1.1-1
		c0.6-0.1,1.3-0.1,1.7-0.4V691z M156.3,685c0.2,0,0.4,0,0.6,0.1v0.8c-0.2-0.1-0.4-0.1-0.5-0.1c-0.5,0-0.7,0.1-0.7,0.6v0.8h1.1v0.8
		h-1.1v4.9h-0.9v-4.9h-1v-0.8h1v-0.8C154.7,685.5,155.3,685,156.3,685z M160,687.1c-1.6,0-2.7,1.3-2.7,3c0.1,1.7,0.9,3,2.7,3
		c1.3,0,2.2-0.7,2.4-1.9h-0.9c-0.2,0.7-0.7,1.1-1.5,1.1c-1.2,0-1.8-0.9-1.8-1.9h4.3C162.7,689,162.1,687.1,160,687.1z M158.4,689.6
		c0.1-0.9,0.6-1.6,1.6-1.6c0.9,0,1.6,0.7,1.6,1.6H158.4z M168.2,691.3c0,1.4-1.3,1.8-2.4,1.8c-1.3,0-2.4-0.5-2.4-1.9h0.9
		c0,0.8,0.8,1.1,1.5,1.1c0.6,0,1.4-0.1,1.4-0.8c0-0.7-0.9-0.8-1.9-1.1c-0.9-0.2-1.9-0.5-1.9-1.6c0-1.1,1.1-1.6,2.1-1.6
		c1.3,0,2.3,0.4,2.3,1.8H167c-0.1-0.7-0.7-1-1.3-1c-0.6,0-1.2,0.2-1.2,0.7c0,0.7,1,0.8,1.9,1C167.2,689.9,168.2,690.2,168.2,691.3z
		 M170.6,687.3h1.1v0.8h-1.1v3.5c0,0.4,0.1,0.5,0.7,0.5h0.4v0.8H171c-1,0-1.4-0.2-1.4-1.2v-3.6h-1v-0.8h1v-1.7h0.9V687.3z
		 M172.9,685.1h0.9v1.1h-0.9V685.1z M172.9,687.3h0.9v5.7h-0.9V687.3z M179.1,687.3h1L178,693h-1l-2.1-5.7h1l1.6,4.7h0L179.1,687.3z
		 M183.4,687.1c-1.6,0-2.7,1.3-2.7,3c0.1,1.7,0.9,3,2.7,3c1.3,0,2.2-0.7,2.4-1.9H185c-0.2,0.7-0.7,1.1-1.5,1.1
		c-1.2,0-1.8-0.9-1.8-1.9h4.3C186,689,185.4,687.1,183.4,687.1z M181.7,689.6c0.1-0.9,0.6-1.6,1.6-1.6c0.9,0,1.6,0.7,1.6,1.6H181.7z
		 M190.3,685.1h0.9v1.1h-0.9V685.1z M190.3,687.3h0.9v5.7h-0.9V687.3z M196.7,690.9h1c-0.2,1.4-1.1,2.2-2.5,2.2
		c-1.7,0-2.7-1.2-2.7-2.9c0-1.7,0.9-3,2.7-3c1.3,0,2.3,0.6,2.5,2h-1c-0.1-0.7-0.6-1.1-1.4-1.1c-1.4,0-1.8,1.1-1.8,2.2
		c0,1,0.5,2.1,1.7,2.1C196,692.3,196.6,691.7,196.7,690.9z M201.3,687.1c-1.8,0-2.8,1.3-2.8,3c0,1.7,1,3,2.8,3c1.8,0,2.8-1.3,2.8-3
		C204,688.5,203.1,687.1,201.3,687.1z M201.3,692.3c-1,0-1.8-0.8-1.8-2.1c0-1.4,0.8-2.2,1.8-2.2c1,0,1.8,0.8,1.8,2.2
		C203,691.5,202.2,692.3,201.3,692.3z M209.9,689.2v3.7H209v-3.9c0-0.7-0.4-1.1-1.2-1.1c-1.1,0-1.7,0.8-1.7,1.8v3.2h-0.9v-5.7h0.9
		v0.9h0c0.4-0.7,1-1,1.8-1C209.5,687.1,209.9,688,209.9,689.2z M217.4,687.1c-0.8,0-1.5,0.3-1.8,0.9h0v-0.8h-0.9v7.9h0.9v-2.9h0
		c0.4,0.7,1.3,0.9,1.8,0.9c1.7,0,2.6-1.4,2.6-3C220,688.5,219.2,687.1,217.4,687.1z M217.3,692.3c-1.3,0-1.8-1-1.8-2.2
		c0-1.1,0.5-2.1,1.7-2.1c1.2,0,1.8,1,1.8,2.1C219.1,691.2,218.6,692.3,217.3,692.3z M225.7,691.6v-2.9c0-1.3-1.1-1.6-2.1-1.6
		c-1.3,0-2.4,0.5-2.4,1.9h0.9c0-0.8,0.6-1.1,1.4-1.1c0.6,0,1.3,0.1,1.3,0.9c0,0.7-0.9,0.6-1.9,0.8c-1,0.2-1.9,0.5-1.9,1.8
		c0,1.1,0.8,1.6,1.9,1.6c0.8,0,1.5-0.3,2-0.9c0,0.6,0.3,0.9,0.8,0.9c0.3,0,0.5-0.1,0.7-0.2v-0.7c-0.1,0-0.2,0.1-0.3,0.1
		C225.7,692.3,225.7,692.1,225.7,691.6z M224.8,691c0,0.5-0.5,1.3-1.7,1.3c-0.6,0-1.1-0.2-1.1-0.8c0-0.7,0.5-0.9,1.1-1
		c0.6-0.1,1.3-0.1,1.7-0.4V691z M231.2,690.9h1c-0.2,1.4-1.1,2.2-2.5,2.2c-1.7,0-2.7-1.2-2.7-2.9c0-1.7,0.9-3,2.7-3
		c1.3,0,2.3,0.6,2.5,2h-1c-0.1-0.7-0.6-1.1-1.4-1.1c-1.4,0-1.8,1.1-1.8,2.2c0,1,0.5,2.1,1.7,2.1
		C230.5,692.3,231.1,691.7,231.2,690.9z M235.9,689.3l2.4,3.6h-1.2l-1.9-3l-0.9,0.8v2.2h-0.9v-7.9h0.9v4.7l2.6-2.5h1.3L235.9,689.3z
		 M242.9,692.1h4v0.8h-5.1c0.2-1.8,1.1-2.5,2.2-3.2c1.3-0.8,2-1.3,2-2.4c0-0.8-0.7-1.4-1.5-1.4c-1.1,0-1.6,1-1.5,1.9h-0.9
		c-0.1-1.6,0.9-2.8,2.5-2.8c1.4,0,2.4,0.8,2.4,2.2c0,1.4-0.9,2.1-1.9,2.7C244.1,690.7,243.1,691.2,242.9,692.1z M250.9,685.2
		c-2.4,0-2.6,2.2-2.6,4c0,1.7,0.2,4,2.6,4c2.4,0,2.6-2.2,2.6-4C253.4,687.4,253.3,685.2,250.9,685.2z M250.9,692.3
		c-1.6,0-1.6-2-1.6-3.1c0-1.2,0-3.1,1.6-3.1c1.6,0,1.6,2,1.6,3.1C252.5,690.3,252.4,692.3,250.9,692.3z M257.2,685.2h0.7v7.8H257
		v-5.6h-2v-0.7C256,686.6,257,686.3,257.2,685.2z M264.2,685.2v7.8h-0.9v-5.6h-2v-0.7c1.1,0,2-0.3,2.2-1.5H264.2z"/>
	<g>
		<g>
			<g>
				<path class="st12" d="M50.2-111.3V-138H63v4h-8.2v6.9h6.1v4h-6.1v11.9H50.2z"/>
				<path class="st12" d="M66.6-111.3V-138h12.3v4h-7.7v6.9h5.9v4h-5.9v7.9h8.2v4H66.6z"/>
				<path class="st12" d="M91.4-131.4c0-0.6-0.2-1-0.3-1.4c-0.2-0.4-0.4-0.7-0.6-0.9c-0.2-0.2-0.5-0.4-0.8-0.5
					c-0.3-0.1-0.5-0.1-0.8-0.1c-0.7,0-1.3,0.2-1.7,0.7c-0.4,0.5-0.6,1.1-0.6,1.9c0,0.8,0.2,1.5,0.7,2.1c0.5,0.6,1,1.3,1.7,1.9
					c0.7,0.6,1.4,1.3,2.3,1.9c0.8,0.7,1.6,1.4,2.3,2.2c0.7,0.8,1.3,1.7,1.7,2.6c0.5,1,0.7,2,0.7,3.2c0,1.1-0.2,2.1-0.5,2.9
					c-0.4,0.9-0.9,1.6-1.5,2.1c-0.6,0.6-1.4,1-2.3,1.3c-0.9,0.3-1.9,0.4-2.9,0.4c-1.1,0-2-0.2-2.9-0.6c-0.8-0.4-1.6-0.9-2.1-1.6
					c-0.6-0.7-1-1.5-1.4-2.4c-0.3-0.9-0.5-1.8-0.6-2.9l4.4-0.6c0.1,1.4,0.4,2.4,0.9,3c0.5,0.7,1.1,1,1.9,1c0.8,0,1.4-0.2,1.9-0.6
					c0.5-0.4,0.7-1,0.7-1.8c0-0.9-0.2-1.7-0.7-2.4c-0.5-0.7-1-1.4-1.7-2c-0.7-0.6-1.4-1.3-2.3-1.9c-0.8-0.6-1.6-1.3-2.3-2.1
					c-0.7-0.8-1.3-1.6-1.7-2.6c-0.5-1-0.7-2.1-0.7-3.4c0-2.1,0.6-3.8,1.9-4.9c1.2-1.1,3-1.7,5.3-1.7c0.9,0,1.8,0.2,2.5,0.5
					c0.7,0.3,1.4,0.8,1.9,1.4c0.5,0.6,1,1.3,1.3,2.1c0.3,0.8,0.5,1.7,0.6,2.6L91.4-131.4z"/>
				<path class="st12" d="M102.1-134h-4.4v-4h13.5v4h-4.4v22.7h-4.6V-134z"/>
				<path class="st12" d="M114.5-111.3V-138h4.6v26.7H114.5z"/>
				<path class="st12" d="M133.6-138h4.5l-5.6,26.7h-4.6l-5.6-26.7h4.5l3.3,18.6h0.1L133.6-138z"/>
				<path class="st12" d="M140.6-111.3V-138h12.3v4h-7.7v6.9h5.9v4h-5.9v7.9h8.2v4H140.6z"/>
				<path class="st12" d="M165.9-111.3V-138h4.6v26.7H165.9z"/>
				<path class="st12" d="M184.8-129.1v-2.1c0-1.1-0.2-2-0.7-2.5c-0.4-0.5-1-0.8-1.6-0.8c-0.9,0-1.6,0.2-1.9,0.7
					c-0.3,0.5-0.5,1.2-0.5,2.2v13.6c0,1,0.2,1.8,0.5,2.2c0.3,0.5,1,0.7,1.9,0.7c0.8,0,1.4-0.2,1.7-0.7c0.3-0.5,0.5-1.1,0.5-2v-3.2
					h4.6v3.1c0,0.9-0.1,1.8-0.4,2.7c-0.3,0.8-0.7,1.6-1.3,2.2c-0.6,0.6-1.3,1.1-2.1,1.5c-0.9,0.4-1.9,0.5-3,0.5
					c-1.2,0-2.3-0.2-3.1-0.5c-0.9-0.4-1.6-0.8-2.2-1.5c-0.6-0.6-1-1.3-1.3-2.2c-0.3-0.8-0.4-1.7-0.4-2.7v-13.8
					c0-0.9,0.1-1.8,0.4-2.7c0.3-0.8,0.7-1.6,1.3-2.2c0.6-0.6,1.3-1.1,2.2-1.5c0.9-0.4,1.9-0.5,3.1-0.5c1.1,0,2.1,0.2,3,0.6
					c0.9,0.4,1.6,0.9,2.1,1.6c0.6,0.7,1,1.4,1.3,2.3c0.3,0.9,0.4,1.8,0.4,2.8v2H184.8z"/>
				<path class="st12" d="M194.1-131.5c0-0.9,0.1-1.8,0.4-2.7c0.3-0.8,0.7-1.6,1.3-2.2c0.6-0.6,1.3-1.1,2.2-1.5
					c0.9-0.4,1.9-0.5,3.1-0.5c1.2,0,2.3,0.2,3.1,0.5c0.9,0.4,1.6,0.8,2.2,1.5c0.6,0.6,1,1.3,1.3,2.2c0.3,0.8,0.4,1.7,0.4,2.7v13.8
					c0,0.9-0.1,1.8-0.4,2.7c-0.3,0.8-0.7,1.6-1.3,2.2c-0.6,0.6-1.3,1.1-2.2,1.5c-0.9,0.4-1.9,0.5-3.1,0.5c-1.2,0-2.3-0.2-3.1-0.5
					c-0.9-0.4-1.6-0.8-2.2-1.5c-0.6-0.6-1-1.3-1.3-2.2c-0.3-0.8-0.4-1.7-0.4-2.7V-131.5z M198.7-117.9c0,1,0.2,1.8,0.5,2.2
					c0.3,0.5,1,0.7,1.9,0.7c0.9,0,1.6-0.2,1.9-0.7c0.3-0.5,0.5-1.2,0.5-2.2v-13.6c0-1-0.2-1.8-0.5-2.2c-0.3-0.5-1-0.7-1.9-0.7
					c-0.9,0-1.6,0.2-1.9,0.7c-0.3,0.5-0.5,1.2-0.5,2.2V-117.9z"/>
				<path class="st12" d="M212.6-111.3V-138h4.3l5.6,15.3h0.1V-138h4.1v26.7h-4l-5.9-16.7h-0.1v16.7H212.6z"/>
				<path class="st12" d="M239.4-111.3V-138h6.6c2.8,0,4.9,0.6,6.3,1.8c1.3,1.2,2,3.2,2,6.1c0,1.4-0.2,2.6-0.5,3.6
					c-0.3,1-0.8,1.8-1.5,2.4c-0.7,0.6-1.5,1.1-2.6,1.4c-1,0.3-2.3,0.4-3.7,0.4h-2v11H239.4z M244-126h1.8c0.7,0,1.4-0.1,1.9-0.2
					c0.5-0.1,0.9-0.3,1.2-0.7c0.3-0.3,0.5-0.7,0.6-1.3c0.1-0.5,0.2-1.2,0.2-2c0-0.8-0.1-1.5-0.2-2c-0.1-0.5-0.3-0.9-0.6-1.3
					c-0.3-0.3-0.7-0.5-1.2-0.7c-0.5-0.1-1.1-0.2-1.9-0.2H244V-126z"/>
				<path class="st12" d="M260.5-111.3h-4.4L261-138h5.7l4.9,26.7h-4.4l-0.8-5.9h-5L260.5-111.3z M262-121.2h3.7l-1.8-11.5h-0.1
					L262-121.2z"/>
				<path class="st12" d="M283.6-129.1v-2.1c0-1.1-0.2-2-0.7-2.5c-0.4-0.5-1-0.8-1.6-0.8c-0.9,0-1.6,0.2-1.9,0.7
					c-0.3,0.5-0.5,1.2-0.5,2.2v13.6c0,1,0.2,1.8,0.5,2.2c0.3,0.5,1,0.7,1.9,0.7c0.8,0,1.4-0.2,1.7-0.7c0.3-0.5,0.5-1.1,0.5-2v-3.2
					h4.6v3.1c0,0.9-0.1,1.8-0.4,2.7c-0.3,0.8-0.7,1.6-1.3,2.2c-0.6,0.6-1.3,1.1-2.1,1.5c-0.9,0.4-1.9,0.5-3,0.5
					c-1.2,0-2.3-0.2-3.1-0.5c-0.9-0.4-1.6-0.8-2.2-1.5c-0.6-0.6-1-1.3-1.3-2.2c-0.3-0.8-0.4-1.7-0.4-2.7v-13.8
					c0-0.9,0.1-1.8,0.4-2.7c0.3-0.8,0.7-1.6,1.3-2.2c0.6-0.6,1.3-1.1,2.2-1.5c0.9-0.4,1.9-0.5,3.1-0.5c1.1,0,2.1,0.2,3,0.6
					c0.9,0.4,1.6,0.9,2.1,1.6c0.6,0.7,1,1.4,1.3,2.3c0.3,0.9,0.4,1.8,0.4,2.8v2H283.6z"/>
				<path class="st12" d="M292.6-111.3V-138h4.6v9.9h0.1l4.8-9.9h4.6l-5,10l5.6,16.8h-4.7l-3.7-12.4h-0.1l-1.6,3v9.5H292.6z"/>
			</g>
			<g>
				<path class="st13" d="M49.1-112.3V-139h12.8v4h-8.2v6.9h6.1v4h-6.1v11.9H49.1z"/>
				<path class="st13" d="M65.6-112.3V-139h12.3v4h-7.7v6.9h5.9v4h-5.9v7.9h8.2v4H65.6z"/>
				<path class="st13" d="M90.4-132.4c-0.1-0.6-0.2-1-0.3-1.4c-0.2-0.4-0.4-0.7-0.6-0.9c-0.2-0.2-0.5-0.4-0.8-0.5
					c-0.3-0.1-0.5-0.1-0.8-0.1c-0.7,0-1.3,0.2-1.7,0.7c-0.4,0.5-0.6,1.1-0.6,1.9c0,0.8,0.2,1.5,0.7,2.1c0.5,0.6,1,1.3,1.7,1.9
					c0.7,0.6,1.4,1.3,2.3,1.9c0.8,0.7,1.6,1.4,2.3,2.2c0.7,0.8,1.3,1.7,1.7,2.6c0.5,1,0.7,2,0.7,3.2c0,1.1-0.2,2.1-0.5,2.9
					c-0.4,0.9-0.9,1.6-1.5,2.1c-0.6,0.6-1.4,1-2.3,1.3c-0.9,0.3-1.9,0.4-2.9,0.4c-1.1,0-2-0.2-2.9-0.6c-0.8-0.4-1.5-0.9-2.1-1.6
					c-0.6-0.7-1-1.5-1.4-2.4c-0.3-0.9-0.5-1.8-0.6-2.9l4.4-0.6c0.1,1.4,0.4,2.4,0.9,3c0.5,0.7,1.1,1,1.9,1c0.8,0,1.4-0.2,1.9-0.6
					c0.5-0.4,0.7-1,0.7-1.8c0-0.9-0.2-1.7-0.7-2.4c-0.5-0.7-1-1.4-1.7-2s-1.4-1.3-2.3-1.9c-0.8-0.6-1.6-1.3-2.3-2.1
					c-0.7-0.8-1.3-1.6-1.7-2.6c-0.5-1-0.7-2.1-0.7-3.4c0-2.1,0.6-3.8,1.9-4.9c1.2-1.1,3-1.7,5.3-1.7c0.9,0,1.8,0.2,2.5,0.5
					c0.7,0.3,1.4,0.8,1.9,1.4c0.5,0.6,1,1.3,1.3,2.1c0.3,0.8,0.5,1.7,0.6,2.6L90.4-132.4z"/>
				<path class="st13" d="M101.1-135h-4.4v-4h13.5v4h-4.4v22.7h-4.6V-135z"/>
				<path class="st13" d="M113.5-112.3V-139h4.6v26.7H113.5z"/>
				<path class="st13" d="M132.5-139h4.5l-5.6,26.7h-4.6l-5.6-26.7h4.5l3.3,18.6h0.1L132.5-139z"/>
				<path class="st13" d="M139.6-112.3V-139h12.3v4h-7.7v6.9h5.9v4h-5.9v7.9h8.2v4H139.6z"/>
				<path class="st13" d="M164.9-112.3V-139h4.6v26.7H164.9z"/>
				<path class="st13" d="M183.8-130.1v-2.1c0-1.1-0.2-2-0.7-2.5c-0.4-0.5-1-0.8-1.6-0.8c-0.9,0-1.6,0.2-1.9,0.7
					c-0.3,0.5-0.5,1.2-0.5,2.2v13.6c0,1,0.2,1.8,0.5,2.2c0.3,0.5,1,0.7,1.9,0.7c0.8,0,1.4-0.2,1.7-0.7c0.3-0.5,0.5-1.1,0.5-2v-3.2
					h4.6v3.1c0,0.9-0.1,1.8-0.4,2.7c-0.3,0.8-0.7,1.6-1.3,2.2c-0.6,0.6-1.3,1.1-2.1,1.5c-0.9,0.4-1.9,0.5-3,0.5
					c-1.2,0-2.3-0.2-3.1-0.5c-0.9-0.4-1.6-0.8-2.2-1.5c-0.6-0.6-1-1.3-1.3-2.2c-0.3-0.8-0.4-1.7-0.4-2.7v-13.8
					c0-0.9,0.1-1.8,0.4-2.7c0.3-0.8,0.7-1.6,1.3-2.2c0.6-0.6,1.3-1.1,2.2-1.5c0.9-0.4,1.9-0.5,3.1-0.5c1.1,0,2.1,0.2,3,0.6
					c0.9,0.4,1.6,0.9,2.1,1.6c0.6,0.7,1,1.4,1.3,2.3c0.3,0.9,0.4,1.8,0.4,2.8v2H183.8z"/>
				<path class="st13" d="M193.1-132.6c0-0.9,0.1-1.8,0.4-2.7c0.3-0.8,0.7-1.6,1.3-2.2c0.6-0.6,1.3-1.1,2.2-1.5
					c0.9-0.4,1.9-0.5,3.1-0.5c1.2,0,2.3,0.2,3.1,0.5c0.9,0.4,1.6,0.8,2.2,1.5c0.6,0.6,1,1.3,1.3,2.2c0.3,0.8,0.4,1.7,0.4,2.7v13.8
					c0,0.9-0.1,1.8-0.4,2.7c-0.3,0.8-0.7,1.6-1.3,2.2c-0.6,0.6-1.3,1.1-2.2,1.5c-0.9,0.4-1.9,0.5-3.1,0.5c-1.2,0-2.3-0.2-3.1-0.5
					c-0.9-0.4-1.6-0.8-2.2-1.5c-0.6-0.6-1-1.3-1.3-2.2c-0.3-0.8-0.4-1.7-0.4-2.7V-132.6z M197.7-118.9c0,1,0.2,1.8,0.5,2.2
					c0.3,0.5,1,0.7,1.9,0.7c0.9,0,1.6-0.2,1.9-0.7c0.3-0.5,0.5-1.2,0.5-2.2v-13.6c0-1-0.2-1.8-0.5-2.2c-0.3-0.5-1-0.7-1.9-0.7
					c-0.9,0-1.6,0.2-1.9,0.7c-0.3,0.5-0.5,1.2-0.5,2.2V-118.9z"/>
				<path class="st13" d="M211.6-112.3V-139h4.3l5.6,15.3h0.1V-139h4.1v26.7h-4l-5.9-16.7h-0.1v16.7H211.6z"/>
				<path class="st13" d="M238.3-112.3V-139h6.6c2.8,0,4.9,0.6,6.3,1.8c1.3,1.2,2,3.2,2,6.1c0,1.4-0.2,2.6-0.5,3.6
					c-0.3,1-0.8,1.8-1.5,2.4c-0.7,0.6-1.5,1.1-2.6,1.4c-1.1,0.3-2.3,0.4-3.7,0.4h-2v11H238.3z M242.9-127h1.8c0.7,0,1.4-0.1,1.9-0.2
					c0.5-0.1,0.9-0.3,1.2-0.7c0.3-0.3,0.5-0.7,0.6-1.3c0.1-0.5,0.2-1.2,0.2-2c0-0.8-0.1-1.4-0.2-2c-0.1-0.5-0.3-1-0.6-1.3
					c-0.3-0.3-0.7-0.5-1.2-0.7c-0.5-0.1-1.1-0.2-1.9-0.2h-1.8V-127z"/>
				<path class="st13" d="M259.5-112.3h-4.4L260-139h5.7l4.9,26.7h-4.4l-0.8-5.9h-5L259.5-112.3z M261-122.2h3.7l-1.8-11.5h-0.1
					L261-122.2z"/>
				<path class="st13" d="M282.6-130.1v-2.1c0-1.1-0.2-2-0.7-2.5c-0.4-0.5-1-0.8-1.6-0.8c-0.9,0-1.6,0.2-1.9,0.7
					c-0.3,0.5-0.5,1.2-0.5,2.2v13.6c0,1,0.2,1.8,0.5,2.2c0.3,0.5,1,0.7,1.9,0.7c0.8,0,1.4-0.2,1.7-0.7c0.3-0.5,0.5-1.1,0.5-2v-3.2
					h4.6v3.1c0,0.9-0.1,1.8-0.4,2.7c-0.3,0.8-0.7,1.6-1.3,2.2c-0.6,0.6-1.3,1.1-2.1,1.5c-0.9,0.4-1.9,0.5-3,0.5
					c-1.2,0-2.3-0.2-3.1-0.5c-0.9-0.4-1.6-0.8-2.2-1.5c-0.6-0.6-1-1.3-1.3-2.2c-0.3-0.8-0.4-1.7-0.4-2.7v-13.8
					c0-0.9,0.1-1.8,0.4-2.7c0.3-0.8,0.7-1.6,1.3-2.2c0.6-0.6,1.3-1.1,2.2-1.5c0.9-0.4,1.9-0.5,3.1-0.5c1.1,0,2.1,0.2,3,0.6
					c0.9,0.4,1.6,0.9,2.1,1.6c0.6,0.7,1,1.4,1.3,2.3c0.3,0.9,0.4,1.8,0.4,2.8v2H282.6z"/>
				<path class="st13" d="M291.6-112.3V-139h4.6v9.9h0.1l4.8-9.9h4.6l-5,10l5.6,16.8h-4.7l-3.7-12.4h-0.1l-1.6,3v9.5H291.6z"/>
			</g>
		</g>
		<g>
			<g>
				<g>
					<path class="st12" d="M104.7-66.7v-2.4c1-1.4,1.8-2.6,2.5-3.7c0.7-1.1,1.3-2.1,1.8-3c0.5-0.9,0.9-1.7,1.1-2.4
						c0.3-0.7,0.4-1.4,0.4-2.1c0-0.7-0.1-1.2-0.4-1.5c-0.2-0.3-0.6-0.5-1-0.5c-0.5,0-0.9,0.2-1.1,0.5c-0.2,0.3-0.4,0.8-0.4,1.3v1.2
						h-2.9v-0.8c0-0.7,0.1-1.3,0.3-1.8c0.2-0.6,0.5-1,0.9-1.5c0.4-0.4,0.9-0.7,1.4-1c0.6-0.2,1.2-0.4,1.9-0.4c0.6,0,1.2,0.1,1.7,0.3
						c0.5,0.2,0.9,0.5,1.3,0.9c0.4,0.4,0.6,0.8,0.8,1.3c0.2,0.5,0.3,1,0.3,1.5c0,0.7-0.1,1.4-0.2,2.1c-0.1,0.7-0.4,1.4-0.8,2.3
						c-0.4,0.9-1,1.9-1.7,3c-0.7,1.2-1.7,2.6-2.9,4.2h5.4v2.5H104.7z"/>
					<path class="st12" d="M116.9-79.9c0-1.7,0.3-2.9,1-3.7c0.7-0.8,1.8-1.2,3.3-1.2c1.5,0,2.7,0.4,3.3,1.2c0.7,0.8,1,2,1,3.7v8.5
						c0,1.7-0.3,2.9-1,3.7c-0.7,0.8-1.8,1.2-3.3,1.2c-1.5,0-2.7-0.4-3.3-1.2c-0.7-0.8-1-2-1-3.7V-79.9z M122.7-80.6
						c0-1.1-0.5-1.7-1.4-1.7c-1,0-1.4,0.6-1.4,1.7v10.1c0,1.1,0.5,1.7,1.4,1.7c1,0,1.4-0.6,1.4-1.7V-80.6z"/>
					<path class="st12" d="M136.2-66.7v-17.8h8.5v2.7h-5.5v4.6h4.1v2.7h-4.1v7.9H136.2z"/>
					<path class="st12" d="M151.4-66.7h-3.1v-17.8h4.3c1.7,0,3,0.4,3.9,1.2c0.9,0.8,1.3,2.2,1.3,4c0,0.7-0.1,1.3-0.2,1.9
						c-0.1,0.5-0.3,0.9-0.5,1.3c-0.2,0.4-0.4,0.6-0.7,0.9c-0.3,0.2-0.5,0.4-0.8,0.5l2.6,8.1h-3.1l-2.2-7.4c-0.2,0-0.4,0.1-0.7,0.1
						c-0.3,0-0.6,0-0.9,0V-66.7z M151.4-76.5h1.1c0.4,0,0.8,0,1-0.1c0.3-0.1,0.5-0.2,0.7-0.4c0.2-0.2,0.3-0.5,0.4-0.9
						c0.1-0.4,0.1-0.8,0.1-1.3c0-1.1-0.2-1.8-0.5-2.2c-0.3-0.4-0.9-0.6-1.8-0.6h-1.1V-76.5z"/>
					<path class="st12" d="M162-66.7v-17.8h8.2v2.7H165v4.6h4v2.7h-4v5.2h5.5v2.7H162z"/>
					<path class="st12" d="M174.2-66.7v-17.8h8.2v2.7h-5.1v4.6h3.9v2.7h-3.9v5.2h5.5v2.7H174.2z"/>
					<path class="st12" d="M193.5-66.7v-17.8h3.1v17.8H193.5z"/>
					<path class="st12" d="M207.3-78.6v-1.4c0-0.8-0.2-1.3-0.4-1.6c-0.3-0.3-0.6-0.5-1-0.5c-0.6,0-1.1,0.2-1.3,0.5
						c-0.2,0.3-0.3,0.8-0.3,1.5v9c0,0.7,0.1,1.2,0.3,1.5c0.2,0.3,0.7,0.5,1.3,0.5c0.6,0,0.9-0.2,1.2-0.5c0.2-0.3,0.3-0.8,0.3-1.3
						V-73h3.1v2c0,0.6-0.1,1.2-0.3,1.8c-0.2,0.6-0.5,1-0.8,1.5c-0.4,0.4-0.8,0.7-1.4,1c-0.6,0.2-1.2,0.4-2,0.4
						c-0.8,0-1.5-0.1-2.1-0.4c-0.6-0.2-1.1-0.6-1.5-1c-0.4-0.4-0.7-0.9-0.9-1.5c-0.2-0.6-0.3-1.2-0.3-1.8v-9.2
						c0-0.6,0.1-1.2,0.3-1.8c0.2-0.6,0.5-1,0.9-1.5c0.4-0.4,0.9-0.7,1.5-1c0.6-0.2,1.3-0.4,2.1-0.4c0.8,0,1.4,0.1,2,0.4
						c0.6,0.3,1.1,0.6,1.4,1.1c0.4,0.4,0.6,1,0.8,1.6c0.2,0.6,0.3,1.2,0.3,1.9v1.3H207.3z"/>
					<path class="st12" d="M214.8-80.2c0-0.6,0.1-1.2,0.3-1.8c0.2-0.6,0.5-1,0.9-1.5c0.4-0.4,0.9-0.7,1.5-1c0.6-0.2,1.3-0.4,2.1-0.4
						c0.8,0,1.5,0.1,2.1,0.4c0.6,0.2,1.1,0.6,1.5,1c0.4,0.4,0.7,0.9,0.9,1.5c0.2,0.6,0.3,1.2,0.3,1.8v9.2c0,0.6-0.1,1.2-0.3,1.8
						c-0.2,0.6-0.5,1-0.9,1.5c-0.4,0.4-0.9,0.7-1.5,1c-0.6,0.2-1.3,0.4-2.1,0.4c-0.8,0-1.5-0.1-2.1-0.4c-0.6-0.2-1.1-0.6-1.5-1
						c-0.4-0.4-0.7-0.9-0.9-1.5c-0.2-0.6-0.3-1.2-0.3-1.8V-80.2z M217.8-71.1c0,0.7,0.1,1.2,0.3,1.5c0.2,0.3,0.7,0.5,1.3,0.5
						c0.6,0,1.1-0.2,1.3-0.5c0.2-0.3,0.3-0.8,0.3-1.5v-9c0-0.7-0.1-1.2-0.3-1.5c-0.2-0.3-0.7-0.5-1.3-0.5c-0.6,0-1.1,0.2-1.3,0.5
						c-0.2,0.3-0.3,0.8-0.3,1.5V-71.1z"/>
					<path class="st12" d="M228.3-66.7v-17.8h2.8l3.7,10.2h0v-10.2h2.8v17.8H235l-3.9-11.1h0v11.1H228.3z"/>
					<path class="st12" d="M247.5-80.1c0-0.4-0.1-0.7-0.2-1c-0.1-0.3-0.2-0.5-0.4-0.6c-0.2-0.1-0.3-0.3-0.5-0.3
						c-0.2-0.1-0.4-0.1-0.5-0.1c-0.5,0-0.9,0.2-1.1,0.5c-0.3,0.3-0.4,0.7-0.4,1.3c0,0.5,0.2,1,0.5,1.4c0.3,0.4,0.7,0.9,1.1,1.3
						c0.5,0.4,1,0.9,1.5,1.3c0.5,0.4,1,0.9,1.5,1.4c0.5,0.5,0.8,1.1,1.1,1.7c0.3,0.6,0.5,1.4,0.5,2.2c0,0.7-0.1,1.4-0.4,2
						c-0.2,0.6-0.6,1-1,1.4c-0.4,0.4-0.9,0.7-1.5,0.9c-0.6,0.2-1.3,0.3-2,0.3c-0.7,0-1.3-0.1-1.9-0.4c-0.6-0.3-1-0.6-1.4-1.1
						c-0.4-0.5-0.7-1-0.9-1.6c-0.2-0.6-0.3-1.2-0.4-1.9l2.9-0.4c0.1,0.9,0.3,1.6,0.6,2c0.3,0.4,0.7,0.7,1.2,0.7c0.5,0,1-0.1,1.3-0.4
						c0.3-0.3,0.5-0.7,0.5-1.2c0-0.6-0.2-1.1-0.5-1.6c-0.3-0.5-0.7-0.9-1.1-1.3c-0.5-0.4-1-0.9-1.5-1.3c-0.5-0.4-1-0.9-1.5-1.4
						c-0.5-0.5-0.8-1.1-1.1-1.7c-0.3-0.6-0.5-1.4-0.5-2.2c0-1.4,0.4-2.5,1.2-3.3c0.8-0.8,2-1.1,3.5-1.1c0.6,0,1.2,0.1,1.7,0.3
						c0.5,0.2,0.9,0.5,1.3,0.9c0.4,0.4,0.6,0.8,0.9,1.4c0.2,0.5,0.4,1.1,0.4,1.7L247.5-80.1z"/>
				</g>
			</g>
			<g>
				<g>
					<path class="st3" d="M103.7-67.7v-2.4c1-1.4,1.8-2.6,2.5-3.7c0.7-1.1,1.3-2.1,1.8-3c0.5-0.9,0.9-1.7,1.1-2.4
						c0.3-0.7,0.4-1.4,0.4-2.1c0-0.7-0.1-1.2-0.4-1.5c-0.2-0.3-0.6-0.5-1-0.5c-0.5,0-0.9,0.2-1.1,0.5c-0.2,0.3-0.4,0.8-0.4,1.3v1.2
						h-2.9v-0.8c0-0.7,0.1-1.3,0.3-1.8c0.2-0.6,0.5-1,0.9-1.5c0.4-0.4,0.9-0.7,1.4-1c0.6-0.2,1.2-0.4,1.9-0.4c0.6,0,1.2,0.1,1.7,0.3
						c0.5,0.2,0.9,0.5,1.3,0.9c0.4,0.4,0.6,0.8,0.8,1.3c0.2,0.5,0.3,1,0.3,1.5c0,0.7-0.1,1.4-0.2,2.1c-0.1,0.7-0.4,1.4-0.8,2.3
						c-0.4,0.9-1,1.9-1.7,3c-0.7,1.2-1.7,2.6-2.9,4.2h5.4v2.5H103.7z"/>
					<path class="st3" d="M115.9-80.9c0-1.7,0.3-2.9,1-3.7c0.7-0.8,1.8-1.2,3.3-1.2c1.5,0,2.7,0.4,3.3,1.2c0.7,0.8,1,2,1,3.7v8.5
						c0,1.7-0.3,2.9-1,3.7c-0.7,0.8-1.8,1.2-3.3,1.2c-1.5,0-2.7-0.4-3.3-1.2c-0.7-0.8-1-2-1-3.7V-80.9z M121.7-81.7
						c0-1.1-0.5-1.7-1.4-1.7c-1,0-1.4,0.6-1.4,1.7v10.1c0,1.1,0.5,1.7,1.4,1.7c1,0,1.4-0.6,1.4-1.7V-81.7z"/>
					<path class="st3" d="M135.2-67.7v-17.8h8.5v2.7h-5.5v4.6h4.1v2.7h-4.1v7.9H135.2z"/>
					<path class="st3" d="M150.4-67.7h-3.1v-17.8h4.3c1.7,0,3,0.4,3.9,1.2c0.9,0.8,1.3,2.2,1.3,4c0,0.7-0.1,1.3-0.2,1.9
						c-0.1,0.5-0.3,0.9-0.5,1.3c-0.2,0.4-0.4,0.6-0.7,0.9c-0.3,0.2-0.5,0.4-0.8,0.5l2.6,8.1h-3.1l-2.2-7.4c-0.2,0-0.4,0.1-0.7,0.1
						c-0.3,0-0.6,0-0.9,0V-67.7z M150.4-77.5h1.1c0.4,0,0.8,0,1-0.1c0.3-0.1,0.5-0.2,0.7-0.4c0.2-0.2,0.3-0.5,0.4-0.9
						c0.1-0.4,0.1-0.8,0.1-1.3c0-1.1-0.2-1.8-0.5-2.2c-0.3-0.4-0.9-0.6-1.8-0.6h-1.1V-77.5z"/>
					<path class="st3" d="M160.9-67.7v-17.8h8.2v2.7H164v4.6h3.9v2.7H164v5.2h5.5v2.7H160.9z"/>
					<path class="st3" d="M173.1-67.7v-17.8h8.2v2.7h-5.1v4.6h4v2.7h-4v5.2h5.5v2.7H173.1z"/>
					<path class="st3" d="M192.5-67.7v-17.8h3.1v17.8H192.5z"/>
					<path class="st3" d="M206.3-79.6V-81c0-0.8-0.1-1.3-0.4-1.6c-0.3-0.3-0.6-0.5-1-0.5c-0.6,0-1.1,0.2-1.3,0.5
						c-0.2,0.3-0.3,0.8-0.3,1.5v9c0,0.7,0.1,1.2,0.3,1.5c0.2,0.3,0.7,0.5,1.3,0.5c0.6,0,0.9-0.2,1.2-0.5c0.2-0.3,0.3-0.8,0.3-1.3
						v-2.1h3.1v2c0,0.6-0.1,1.2-0.3,1.8c-0.2,0.6-0.5,1-0.8,1.5c-0.4,0.4-0.8,0.7-1.4,1c-0.6,0.2-1.2,0.4-2,0.4
						c-0.8,0-1.5-0.1-2.1-0.4c-0.6-0.2-1.1-0.6-1.5-1c-0.4-0.4-0.7-0.9-0.9-1.5c-0.2-0.6-0.3-1.2-0.3-1.8v-9.2
						c0-0.6,0.1-1.2,0.3-1.8c0.2-0.6,0.5-1,0.9-1.5c0.4-0.4,0.9-0.7,1.5-1c0.6-0.2,1.3-0.4,2.1-0.4c0.8,0,1.4,0.1,2,0.4
						c0.6,0.3,1,0.6,1.4,1.1c0.4,0.4,0.7,1,0.8,1.6c0.2,0.6,0.3,1.2,0.3,1.9v1.3H206.3z"/>
					<path class="st3" d="M213.7-81.2c0-0.6,0.1-1.2,0.3-1.8c0.2-0.6,0.5-1,0.9-1.5c0.4-0.4,0.9-0.7,1.5-1c0.6-0.2,1.3-0.4,2.1-0.4
						c0.8,0,1.5,0.1,2.1,0.4c0.6,0.2,1.1,0.6,1.5,1c0.4,0.4,0.7,0.9,0.9,1.5c0.2,0.6,0.3,1.2,0.3,1.8v9.2c0,0.6-0.1,1.2-0.3,1.8
						c-0.2,0.6-0.5,1-0.9,1.5c-0.4,0.4-0.9,0.7-1.5,1c-0.6,0.2-1.3,0.4-2.1,0.4c-0.8,0-1.5-0.1-2.1-0.4c-0.6-0.2-1.1-0.6-1.5-1
						c-0.4-0.4-0.7-0.9-0.9-1.5c-0.2-0.6-0.3-1.2-0.3-1.8V-81.2z M216.8-72.1c0,0.7,0.1,1.2,0.3,1.5c0.2,0.3,0.7,0.5,1.3,0.5
						c0.6,0,1.1-0.2,1.3-0.5c0.2-0.3,0.3-0.8,0.3-1.5v-9c0-0.7-0.1-1.2-0.3-1.5c-0.2-0.3-0.7-0.5-1.3-0.5c-0.6,0-1.1,0.2-1.3,0.5
						c-0.2,0.3-0.3,0.8-0.3,1.5V-72.1z"/>
					<path class="st3" d="M227.3-67.7v-17.8h2.8l3.7,10.2h0v-10.2h2.8v17.8H234l-3.9-11.1h0v11.1H227.3z"/>
					<path class="st3" d="M246.5-81.1c0-0.4-0.1-0.7-0.2-1c-0.1-0.3-0.2-0.5-0.4-0.6c-0.2-0.1-0.3-0.3-0.5-0.3
						c-0.2-0.1-0.4-0.1-0.5-0.1c-0.5,0-0.9,0.2-1.1,0.5c-0.3,0.3-0.4,0.7-0.4,1.3c0,0.5,0.2,1,0.5,1.4c0.3,0.4,0.7,0.9,1.1,1.3
						c0.5,0.4,1,0.9,1.5,1.3c0.5,0.4,1,0.9,1.5,1.4c0.5,0.5,0.8,1.1,1.1,1.7c0.3,0.6,0.5,1.4,0.5,2.2c0,0.7-0.1,1.4-0.4,2
						c-0.2,0.6-0.6,1-1,1.4c-0.4,0.4-0.9,0.7-1.5,0.9c-0.6,0.2-1.3,0.3-2,0.3c-0.7,0-1.3-0.1-1.9-0.4c-0.6-0.3-1-0.6-1.4-1.1
						c-0.4-0.5-0.7-1-0.9-1.6c-0.2-0.6-0.3-1.2-0.4-1.9l2.9-0.4c0.1,0.9,0.3,1.6,0.6,2c0.3,0.4,0.7,0.7,1.2,0.7c0.5,0,1-0.1,1.3-0.4
						c0.3-0.3,0.5-0.7,0.5-1.2c0-0.6-0.2-1.1-0.5-1.6c-0.3-0.5-0.7-0.9-1.1-1.3c-0.5-0.4-1-0.9-1.5-1.3c-0.5-0.4-1-0.9-1.5-1.4
						c-0.5-0.5-0.8-1.1-1.1-1.7c-0.3-0.6-0.5-1.4-0.5-2.2c0-1.4,0.4-2.5,1.2-3.3c0.8-0.8,2-1.1,3.5-1.1c0.6,0,1.2,0.1,1.7,0.3
						c0.5,0.2,0.9,0.5,1.3,0.9c0.4,0.4,0.6,0.8,0.9,1.4c0.2,0.5,0.4,1.1,0.4,1.7L246.5-81.1z"/>
				</g>
			</g>
		</g>
		<line class="st14" x1="17" y1="-97.8" x2="337" y2="-97.8"/>
		<line class="st14" x1="17" y1="-56.6" x2="337" y2="-56.6"/>
	</g>
</g>
</svg>
