<?xml version="1.0" encoding="iso-8859-1"?>
<!-- Generator: Adobe Illustrator 19.0.0, SVG Export Plug-In . SVG Version: 6.00 Build 0)  -->
<svg version="1.1" id="Capa_1" xmlns="http://www.w3.org/2000/svg" xmlns:xlink="http://www.w3.org/1999/xlink" x="0px" y="0px"
	 viewBox="0 0 480 480" style="enable-background:new 0 0 480 480;" xml:space="preserve">
<path style="fill:#F8EED1;" d="M175.432,362.992c-0.976,2.432-3.08,4.2-5.584,4.8c1.112,1.496,1.672,3.344,1.568,5.216
	c1.24-0.728,2.632-1.088,4.016-1.088c1.392,0,2.784,0.36,4.024,1.088c-0.136-1.872,0.408-3.728,1.496-5.232
	C178.472,367.168,176.4,365.408,175.432,362.992z"/>
<path style="fill:#BFD7C2;" d="M384,56c0-4.416-3.592-8-8-8H104c-4.408,0-8,3.584-8,8s3.592,8,8,8h8h128h136
	C380.408,64,384,60.416,384,56z"/>
<path style="fill:#E14A3B;" d="M120,424h112V80H120V424z M211.184,366.736l-14.176,9.088l5.44,16.192
	c1.112,3.328-0.064,6.984-2.912,9.04c-1.4,1.008-3.032,1.504-4.672,1.504c-1.696,0-3.392-0.536-4.816-1.608l-14.72-11.096
	l-14.64,10.536c-2.832,2.048-6.656,2-9.456-0.08c-2.8-2.088-3.92-5.744-2.776-9.04l5.36-15.416l-14.152-9.152
	c-2.976-1.928-4.336-5.584-3.328-8.984c0.992-3.384,4.112-5.72,7.664-5.72h18.184l5.632-17.448c1.064-3.296,4.144-5.536,7.616-5.536
	s6.544,2.24,7.616,5.536L188.672,352h18.192c3.552,0,6.68,2.344,7.672,5.752C215.544,361.16,214.176,364.824,211.184,366.736z
	 M136.424,149.432c1.104-3.248,4.152-5.432,7.576-5.432h18.184l5.632-17.448c1.064-3.296,4.144-5.536,7.616-5.536
	s6.544,2.24,7.616,5.536L188.672,144h18.192c3.424,0,6.472,2.176,7.576,5.424c1.104,3.24,0.016,6.832-2.696,8.92l-14.984,11.52
	l5.72,18.016c1.04,3.288-0.136,6.872-2.936,8.896s-6.576,2.016-9.376,0.008l-14.696-10.608l-14.728,10.84
	c-1.408,1.032-3.072,1.552-4.744,1.552c-1.632,0-3.256-0.496-4.648-1.496c-2.816-2.008-4.016-5.6-2.984-8.896l5.744-18.344
	l-14.992-11.496C136.408,156.264,135.32,152.672,136.424,149.432z M136.376,253.576c1.056-3.32,4.136-5.576,7.624-5.576h18.184
	l5.632-17.448c1.064-3.296,4.144-5.536,7.616-5.536s6.544,2.24,7.616,5.536L188.672,248h18.192c3.488,0,6.568,2.256,7.624,5.576
	c1.056,3.328-0.16,6.952-3.016,8.96l-14.6,10.296l5.592,17.112c1.08,3.304-0.104,6.928-2.92,8.968c-1.4,1.008-3.04,1.512-4.68,1.512
	c-1.664,0-3.336-0.52-4.752-1.56l-14.704-10.848l-14.688,10.696c-2.808,2.056-6.608,2.032-9.424-0.008
	c-2.808-2.04-3.968-5.664-2.88-8.968l5.568-16.88l-14.592-10.32C136.536,260.52,135.32,256.896,136.376,253.576z"/>
<path style="fill:#F8EED1;" d="M171.28,271.264c1.28-0.776,2.712-1.168,4.16-1.168c1.44,0,2.88,0.392,4.152,1.168
	c-0.528-2.672,0.336-5.44,2.296-7.32c-2.88-0.352-5.36-2.24-6.456-4.952c-1.096,2.72-3.592,4.616-6.48,4.952
	C170.92,265.824,171.8,268.584,171.28,271.264z"/>
<path style="fill:#E14A3B;" d="M64,160c0,22.056,17.944,40,40,40v-88c-15.664,0-29.824-6.48-40-16.888V160z"/>
<path style="fill:#F8EED1;" d="M171.056,169.288l-0.112,0.368c2.696-1.824,6.248-1.832,8.96-0.008l-0.088-0.28
	c-1.024-3.208,0.08-6.712,2.744-8.768l0.784-0.6h-0.496c-3.28,0-6.208-2-7.424-5.008C174.216,158,171.288,160,168.008,160h-0.432
	l0.712,0.544C170.96,162.592,172.064,166.088,171.056,169.288z"/>
<g>
	<path style="fill:#E14A3B;" d="M304,216v208h112V199.112C405.824,209.52,391.664,216,376,216H304z M336,408h-16v-16h16V408z
		 M336,376h-16v-16h16V376z M336,344h-16v-16h16V344z M336,312h-16v-16h16V312z M336,280h-16v-16h16V280z M336,248h-16v-16h16V248z
		 M368,408h-16v-16h16V408z M368,376h-16v-16h16V376z M368,344h-16v-16h16V344z M368,312h-16v-16h16V312z M368,280h-16v-16h16V280z
		 M368,248h-16v-16h16V248z M384,232h16v16h-16V232z M384,264h16v16h-16V264z M384,296h16v16h-16V296z M384,328h16v16h-16V328z
		 M384,360h16v16h-16V360z M384,392h16v16h-16V392z"/>
	<path style="fill:#E14A3B;" d="M248,112v88h128c22.056,0,40-17.944,40-40V95.112C405.824,105.52,391.664,112,376,112H248z"/>
	<path style="fill:#E14A3B;" d="M376,16H104c-22.056,0-40,17.944-40,40s17.944,40,40,40V80c-13.232,0-24-10.768-24-24
		s10.768-24,24-24h272c13.232,0,24,10.768,24,24s-10.768,24-24,24H248v16h128c22.056,0,40-17.944,40-40S398.056,16,376,16z"/>
</g>
<g>
	<path style="fill:#593F27;" d="M376,0H104C73.12,0,48,25.128,48,56v104c0,30.872,25.12,56,56,56v216c0,4.424,3.584,8,8,8h8v40h16
		v-40h16v40h16v-40h16v40h16v-40h16v40h16v-40h8c4.416,0,8-3.576,8-8V216h40v216c0,4.424,3.584,8,8,8h8v40h16v-40h16v40h16v-40h16
		v40h16v-40h16v40h16v-40h8c4.416,0,8-3.576,8-8V160V72V56C432,25.128,406.88,0,376,0z M104,16h272c22.056,0,40,17.944,40,40
		s-17.944,40-40,40H248V80h128c13.232,0,24-10.768,24-24s-10.768-24-24-24H104c-13.232,0-24,10.768-24,24s10.768,24,24,24v16
		c-22.056,0-40-17.944-40-40S81.944,16,104,16z M104,64c-4.408,0-8-3.584-8-8s3.592-8,8-8h272c4.408,0,8,3.584,8,8s-3.592,8-8,8H240
		H112H104z M64,160V95.112C74.176,105.52,88.336,112,104,112v88C81.944,200,64,182.056,64,160z M232,424H120V80h112V424z M248,112
		h128c15.664,0,29.824-6.48,40-16.888V160c0,22.056-17.944,40-40,40H248V112z M416,424H304V216h72c15.664,0,29.824-6.48,40-16.888
		V424z"/>
	<path style="fill:#593F27;" d="M154.12,169.84l-5.744,18.344c-1.032,3.296,0.168,6.888,2.984,8.896
		c1.392,1,3.016,1.496,4.648,1.496c1.664,0,3.328-0.528,4.744-1.552l14.728-10.84l14.696,10.608c2.8,2.008,6.576,2.016,9.376-0.008
		s3.976-5.608,2.936-8.896l-5.72-18.016l14.984-11.52c2.712-2.096,3.8-5.68,2.696-8.92c-1.112-3.256-4.16-5.432-7.584-5.432h-18.192
		l-5.632-17.448c-1.064-3.296-4.144-5.536-7.616-5.536s-6.544,2.24-7.616,5.536L162.184,144H144c-3.424,0-6.472,2.184-7.576,5.432
		c-1.104,3.24-0.016,6.832,2.704,8.92L154.12,169.84z M168.008,160c3.28,0,6.208-2,7.416-5.008C176.64,158,179.568,160,182.848,160
		h0.496l-0.784,0.6c-2.664,2.056-3.768,5.552-2.744,8.768l0.088,0.28c-2.704-1.832-6.256-1.816-8.96,0.008l0.112-0.368
		c1.008-3.2-0.096-6.696-2.768-8.744L167.576,160H168.008z"/>
	<path style="fill:#593F27;" d="M139.384,262.528l14.592,10.32l-5.568,16.88c-1.088,3.304,0.08,6.928,2.88,8.968
		c2.816,2.04,6.616,2.064,9.424,0.008l14.688-10.696l14.704,10.848c1.416,1.04,3.08,1.56,4.752,1.56c1.64,0,3.288-0.504,4.68-1.512
		c2.824-2.04,4-5.664,2.92-8.968l-5.592-17.112l14.6-10.296c2.848-2.008,4.072-5.632,3.016-8.96
		c-1.04-3.312-4.128-5.568-7.616-5.568h-18.192l-5.632-17.448c-1.064-3.296-4.144-5.536-7.616-5.536s-6.544,2.24-7.616,5.536
		L162.184,248H144c-3.488,0-6.568,2.256-7.624,5.576C135.32,256.896,136.536,260.52,139.384,262.528z M175.432,258.992
		c1.096,2.712,3.576,4.6,6.456,4.952c-1.96,1.88-2.832,4.648-2.296,7.32c-1.272-0.776-2.712-1.168-4.152-1.168
		c-1.44,0-2.88,0.392-4.16,1.168c0.52-2.68-0.36-5.448-2.328-7.32C171.84,263.608,174.336,261.712,175.432,258.992z"/>
	<path style="fill:#593F27;" d="M206.864,352h-18.192l-5.632-17.448c-1.064-3.296-4.144-5.536-7.616-5.536s-6.544,2.24-7.616,5.536
		L162.184,352H144c-3.544,0-6.672,2.336-7.672,5.736c-1.008,3.4,0.352,7.056,3.328,8.984l14.152,9.152l-5.36,15.416
		c-1.144,3.296-0.024,6.952,2.776,9.04c2.8,2.08,6.624,2.128,9.456,0.08l14.64-10.536l14.72,11.096
		c1.424,1.072,3.12,1.608,4.816,1.608c1.64,0,3.28-0.496,4.672-1.504c2.84-2.056,4.024-5.712,2.912-9.04L197,375.84l14.176-9.088
		c2.992-1.912,4.36-5.576,3.36-8.984C213.544,354.344,210.416,352,206.864,352z M179.456,373.008
		c-1.24-0.728-2.632-1.088-4.024-1.088c-1.384,0-2.776,0.36-4.016,1.088c0.104-1.872-0.456-3.728-1.568-5.216
		c2.504-0.592,4.608-2.368,5.584-4.8c0.976,2.416,3.048,4.168,5.52,4.784C179.864,369.28,179.32,371.136,179.456,373.008z"/>
	<rect x="384" y="232" style="fill:#593F27;" width="16" height="16"/>
	<rect x="384" y="264" style="fill:#593F27;" width="16" height="16"/>
	<rect x="384" y="296" style="fill:#593F27;" width="16" height="16"/>
	<rect x="384" y="328" style="fill:#593F27;" width="16" height="16"/>
	<rect x="384" y="360" style="fill:#593F27;" width="16" height="16"/>
	<rect x="384" y="392" style="fill:#593F27;" width="16" height="16"/>
	<rect x="352" y="232" style="fill:#593F27;" width="16" height="16"/>
	<rect x="352" y="264" style="fill:#593F27;" width="16" height="16"/>
	<rect x="352" y="296" style="fill:#593F27;" width="16" height="16"/>
	<rect x="352" y="328" style="fill:#593F27;" width="16" height="16"/>
	<rect x="352" y="360" style="fill:#593F27;" width="16" height="16"/>
	<rect x="352" y="392" style="fill:#593F27;" width="16" height="16"/>
	<rect x="320" y="232" style="fill:#593F27;" width="16" height="16"/>
	<rect x="320" y="264" style="fill:#593F27;" width="16" height="16"/>
	<rect x="320" y="296" style="fill:#593F27;" width="16" height="16"/>
	<rect x="320" y="328" style="fill:#593F27;" width="16" height="16"/>
	<rect x="320" y="360" style="fill:#593F27;" width="16" height="16"/>
	<rect x="320" y="392" style="fill:#593F27;" width="16" height="16"/>
</g>
<g>
</g>
<g>
</g>
<g>
</g>
<g>
</g>
<g>
</g>
<g>
</g>
<g>
</g>
<g>
</g>
<g>
</g>
<g>
</g>
<g>
</g>
<g>
</g>
<g>
</g>
<g>
</g>
<g>
</g>
</svg>
