<?xml version="1.0" encoding="iso-8859-1"?>
<!-- Generator: Adobe Illustrator 19.0.0, SVG Export Plug-In . SVG Version: 6.00 Build 0)  -->
<svg version="1.1" id="Capa_1" xmlns="http://www.w3.org/2000/svg" xmlns:xlink="http://www.w3.org/1999/xlink" x="0px" y="0px"
	 viewBox="0 0 512 512" style="enable-background:new 0 0 512 512;" xml:space="preserve">
<path style="fill:#32D736;" d="M361.015,150.947H30.967c-8.402,0-15.002,6.6-15.002,15.002v271.04
	C15.965,478.395,49.57,512,90.976,512h210.031c41.406,0,75.011-33.605,75.011-75.011v-271.04
	C376.017,157.547,369.418,150.947,361.015,150.947z"/>
<path style="fill:#FEDB41;" d="M300.405,294.369c-1.8-5.403-6.6-9.303-12.301-10.202l-54.908-8.102l-24.604-49.806
	c-2.699-4.802-7.201-8.102-12.601-8.402h-0.901c-5.699,0-10.802,3.301-13.501,8.402l-24.604,49.806l-54.909,8.102
	c-5.701,0.899-10.501,4.8-12.301,10.202c-1.501,5.401,0,11.4,3.901,15.3l39.905,39.007l-9.601,55.606
	c-0.899,5.701,1.501,11.402,6.001,14.704c4.802,3.3,10.802,3.901,15.903,1.199l49.206-25.804l0.901,0.599l48.307,25.205
	c5.102,2.701,11.102,2.1,15.903-1.199c4.5-3.301,6.9-9.002,6.001-14.704l-9.601-55.606l39.905-39.007
	C300.705,305.77,301.908,299.77,300.405,294.369z"/>
<g>
	<path style="fill:#CCEFFF;" d="M92.675,112.284c-2.9-7.765,1.025-16.408,8.775-19.324c3.517-1.318,5.875-4.718,5.875-8.453
		c0-3.736-2.358-7.135-5.875-8.453C86.316,70.369,76.134,54.69,76.134,38.5S86.316,6.631,101.45,0.947
		c7.735-2.871,16.408,0.996,19.324,8.775c2.9,7.765-1.025,16.408-8.775,19.324c-3.502,1.304-5.86,5.703-5.86,9.453
		s2.358,7.149,5.86,8.453c15.148,5.685,25.331,21.379,25.331,37.554s-10.182,30.869-25.331,36.553
		C104.113,123.976,95.551,119.96,92.675,112.284z"/>
	<path style="fill:#CCEFFF;" d="M272.701,112.284c-2.9-7.765,1.025-16.408,8.775-19.324c3.517-1.318,5.875-4.718,5.875-8.453
		c0-3.736-2.358-7.135-5.875-8.453C266.342,70.369,256.16,54.69,256.16,38.5s10.182-31.87,25.317-37.553
		c7.779-2.871,16.423,0.996,19.324,8.775c2.9,7.765-1.025,16.408-8.775,19.324c-3.502,1.304-5.86,5.703-5.86,9.453
		s2.358,7.149,5.86,8.453c15.148,5.685,25.331,21.379,25.331,37.554s-10.182,30.869-25.331,36.553
		C284.139,123.976,275.578,119.96,272.701,112.284z"/>
</g>
<path style="fill:#0CA656;" d="M421.024,180.951h-75.011v60.009h75.011c8.285,0,15.002,6.717,15.002,15.002V376.98
	c0,8.285-6.717,15.002-15.002,15.002h-75.011v60.009h75.011c41.359,0,75.011-33.652,75.011-75.011V255.962
	C496.035,214.604,462.382,180.951,421.024,180.951z"/>
<path style="fill:#10BB67;" d="M376.017,165.949v271.04c0,41.406-33.605,75.011-75.011,75.011H195.991V150.947h165.024
	C369.418,150.947,376.017,157.547,376.017,165.949z"/>
<path style="fill:#FFCC33;" d="M296.505,309.67L256.6,348.677l9.601,55.606c0.899,5.701-1.501,11.402-6.001,14.704
	c-4.802,3.3-10.802,3.901-15.903,1.199l-48.307-25.205V217.856c5.401,0.3,9.902,3.601,12.601,8.402l24.604,49.806l54.908,8.102
	c5.701,0.899,10.501,4.8,12.301,10.202C301.908,299.77,300.705,305.77,296.505,309.67z"/>
<path style="fill:#CCEFFF;" d="M227.195,84.637c0,15.903-9.9,30.605-25.203,36.306c-2.1,0.901-3.901,1.199-6.001,0.901
	c-5.701-0.3-11.102-3.901-13.202-9.601c-2.999-7.801,0.901-16.503,8.7-19.203c2.1-0.901,3.601-2.401,4.502-3.901
	c0.901-1.499,1.199-2.999,1.199-4.502c0-1.5-0.298-3.3-1.199-4.5c-0.901-1.8-2.401-3.3-4.502-4.201
	c-15.3-5.701-25.203-21.102-25.203-37.306c0-16.201,9.902-31.904,25.203-37.605c1.501-0.601,3.001-0.901,4.502-0.601
	c6.302-0.899,12.601,3.001,14.702,9.301c3.001,7.801-0.899,16.502-8.7,19.203c-3.601,1.5-5.701,5.8-5.701,9.7
	c0,3.601,2.1,6.902,5.701,8.402C217.294,52.734,227.195,68.435,227.195,84.637z"/>
<g>
</g>
<g>
</g>
<g>
</g>
<g>
</g>
<g>
</g>
<g>
</g>
<g>
</g>
<g>
</g>
<g>
</g>
<g>
</g>
<g>
</g>
<g>
</g>
<g>
</g>
<g>
</g>
<g>
</g>
</svg>
