<?xml version="1.0" encoding="utf-8"?>
<!-- Generator: Adobe Illustrator 21.0.2, SVG Export Plug-In . SVG Version: 6.00 Build 0)  -->
<svg version="1.1" xmlns="http://www.w3.org/2000/svg" xmlns:xlink="http://www.w3.org/1999/xlink" x="0px" y="0px"
	 viewBox="0 0 102 99" style="enable-background:new 0 0 102 99;" xml:space="preserve">
<style type="text/css">
	.st0{fill:#A29F9D;}
	.st1{fill:#8EBF22;}
	.st2{fill:#FEC92C;}
	.st3{fill:#DA2B18;}
	.st4{fill:#FFFFFF;}
	.st5{fill:#C6C3C2;}
	.st6{fill:#B5E1FA;}
	.st7{fill:#905D24;}
	.st8{fill:#FCD1A0;}
	.st9{fill:#6FBFEB;}
	.st10{fill:#CD6116;}
	.st11{display:none;fill:#FFFFFF;}
	.st12{fill:#D6D4D4;}
	.st13{fill:#5C5856;}
	.st14{fill:none;stroke:#A29F9D;stroke-width:0.2572;stroke-miterlimit:10;}
</style>
<g id="text_1_">
	<g>
		<g>
			<path class="st0" d="M-477.2-212.1h1v3.2h0c0.3-0.7,1.1-1,2-1c1.9,0,2.9,1.5,2.9,3.3c0,1.8-0.9,3.2-2.8,3.2c-0.6,0-1.5-0.2-2-1h0
				v0.8h-1V-212.1z M-474.4-209c-1.4,0-1.9,1.2-1.9,2.3c0,1.2,0.6,2.4,2,2.4c1.4,0,1.9-1.2,1.9-2.4C-472.4-207.9-473-209-474.4-209z
				"/>
			<path class="st0" d="M-464.5-203.6c-0.2,0.1-0.4,0.2-0.7,0.2c-0.5,0-0.9-0.3-0.9-1c-0.6,0.7-1.3,1-2.2,1c-1.1,0-2.1-0.5-2.1-1.7
				c0-1.4,1-1.7,2.1-1.9c1.1-0.2,2.1-0.1,2.1-0.9c0-0.9-0.7-1-1.4-1c-0.9,0-1.5,0.3-1.5,1.2h-1c0.1-1.5,1.2-2.1,2.6-2.1
				c1.1,0,2.3,0.3,2.3,1.7v3.2c0,0.5,0,0.7,0.3,0.7c0.1,0,0.2,0,0.3-0.1V-203.6z M-466.2-206.8c-0.4,0.3-1.2,0.3-1.8,0.4
				c-0.7,0.1-1.2,0.4-1.2,1.1c0,0.7,0.6,0.9,1.2,0.9c1.3,0,1.9-0.8,1.9-1.4V-206.8z"/>
			<path class="st0" d="M-458.3-203.6h-1v-1h0c-0.4,0.8-1.1,1.1-2,1.1c-1.6,0-2.1-0.9-2.1-2.3v-4.1h1v4.2c0,0.8,0.5,1.2,1.3,1.2
				c1.2,0,1.8-0.8,1.8-1.9v-3.5h1V-203.6z"/>
			<path class="st0" d="M-456.6-212.1h1v3.2h0c0.3-0.7,1.1-1,2-1c1.9,0,2.9,1.5,2.9,3.3c0,1.8-0.9,3.2-2.8,3.2c-0.6,0-1.5-0.2-2-1h0
				v0.8h-1V-212.1z M-453.8-209c-1.4,0-1.9,1.2-1.9,2.3c0,1.2,0.6,2.4,2,2.4c1.4,0,1.9-1.2,1.9-2.4
				C-451.8-207.9-452.4-209-453.8-209z"/>
			<path class="st0" d="M-449.4-212.1h1v8.6h-1V-212.1z"/>
			<path class="st0" d="M-441.4-205.5c-0.3,1.4-1.3,2.1-2.7,2.1c-2,0-2.9-1.4-3-3.3c0-1.9,1.2-3.2,2.9-3.2c2.2,0,2.9,2.1,2.8,3.6
				h-4.6c0,1.1,0.6,2,1.9,2c0.8,0,1.4-0.4,1.6-1.2H-441.4z M-442.4-207.3c0-1-0.8-1.8-1.8-1.8c-1.1,0-1.7,0.8-1.8,1.8H-442.4z"/>
		</g>
	</g>
	<g>
		<g>
			<path class="st0" d="M-340.3-212.1h1v3.2h0c0.3-0.7,1.1-1,2-1c1.9,0,2.9,1.5,2.9,3.3c0,1.8-0.9,3.2-2.8,3.2c-0.6,0-1.5-0.2-2-1h0
				v0.8h-1V-212.1z M-337.5-209c-1.4,0-1.9,1.2-1.9,2.3c0,1.2,0.6,2.4,2,2.4c1.4,0,1.9-1.2,1.9-2.4
				C-335.6-207.9-336.2-209-337.5-209z"/>
			<path class="st0" d="M-327.9-205.5c-0.3,1.4-1.3,2.1-2.7,2.1c-2,0-2.9-1.4-3-3.3c0-1.9,1.2-3.2,2.9-3.2c2.2,0,2.9,2.1,2.8,3.6
				h-4.6c0,1.1,0.6,2,1.9,2c0.8,0,1.4-0.4,1.6-1.2H-327.9z M-328.8-207.3c0-1-0.8-1.8-1.8-1.8c-1.1,0-1.7,0.8-1.8,1.8H-328.8z"/>
			<path class="st0" d="M-326.5-212.1h1v8.6h-1V-212.1z"/>
			<path class="st0" d="M-323.7-212.1h1v8.6h-1V-212.1z"/>
		</g>
	</g>
	<g>
		<g>
			<path class="st0" d="M-221.7-212.1h1v3.2h0c0.3-0.7,1.1-1,2-1c1.9,0,2.9,1.5,2.9,3.3c0,1.8-0.9,3.2-2.8,3.2c-0.6,0-1.5-0.2-2-1h0
				v0.8h-1V-212.1z M-218.8-209c-1.4,0-1.9,1.2-1.9,2.3c0,1.2,0.6,2.4,2,2.4c1.4,0,1.9-1.2,1.9-2.4
				C-216.9-207.9-217.5-209-218.8-209z"/>
			<path class="st0" d="M-214.5-209.8h1v1.3h0c0.5-1,1.2-1.5,2.3-1.5v1.1c-1.6,0-2.2,0.9-2.2,2.5v2.8h-1V-209.8z"/>
			<path class="st0" d="M-204.9-203.6c-0.2,0.1-0.4,0.2-0.7,0.2c-0.5,0-0.9-0.3-0.9-1c-0.6,0.7-1.3,1-2.2,1c-1.1,0-2.1-0.5-2.1-1.7
				c0-1.4,1-1.7,2.1-1.9c1.1-0.2,2.1-0.1,2.1-0.9c0-0.9-0.7-1-1.4-1c-0.9,0-1.5,0.3-1.5,1.2h-1c0.1-1.5,1.2-2.1,2.6-2.1
				c1.1,0,2.3,0.3,2.3,1.7v3.2c0,0.5,0,0.7,0.3,0.7c0.1,0,0.2,0,0.3-0.1V-203.6z M-206.5-206.8c-0.4,0.3-1.2,0.3-1.8,0.4
				c-0.7,0.1-1.2,0.4-1.2,1.1c0,0.7,0.6,0.9,1.2,0.9c1.3,0,1.9-0.8,1.9-1.4V-206.8z"/>
			<path class="st0" d="M-203.8-209.8h1v1h0c0.4-0.8,1.1-1.1,2-1.1c1.6,0,2.1,0.9,2.1,2.3v4.1h-1v-4.2c0-0.8-0.5-1.2-1.3-1.2
				c-1.2,0-1.8,0.8-1.8,1.9v3.5h-1V-209.8z"/>
			<path class="st0" d="M-191.5-203.6h-1v-0.8h0c-0.3,0.7-1.1,1-2,1c-1.9,0-2.9-1.5-2.9-3.3c0-1.8,0.9-3.2,2.8-3.2
				c0.6,0,1.5,0.2,2,1h0v-3.2h1V-203.6z M-194.3-204.3c1.4,0,1.9-1.2,1.9-2.3c0-1.2-0.6-2.4-2-2.4c-1.4,0-1.9,1.2-1.9,2.4
				C-196.3-205.4-195.7-204.3-194.3-204.3z"/>
			<path class="st0" d="M-187.3-202.7c-0.5,1.2-0.9,1.7-1.8,1.7c-0.2,0-0.5,0-0.7-0.1v-0.9c0.2,0.1,0.4,0.1,0.6,0.1
				c0.4,0,0.6-0.2,0.8-0.6l0.4-1.1l-2.5-6.2h1.2l1.8,5.1h0l1.7-5.1h1.1L-187.3-202.7z"/>
		</g>
	</g>
	<g>
		<g>
			<path class="st0" d="M-88.7-207.8c-0.2-0.8-0.7-1.2-1.5-1.2c-1.5,0-1.9,1.2-1.9,2.4c0,1.1,0.5,2.3,1.8,2.3c1,0,1.6-0.6,1.7-1.5h1
				c-0.2,1.5-1.2,2.4-2.7,2.4c-1.9,0-2.9-1.3-2.9-3.2c0-1.9,1-3.3,2.9-3.3c1.4,0,2.5,0.7,2.7,2.1H-88.7z"/>
			<path class="st0" d="M-80.9-203.6c-0.2,0.1-0.4,0.2-0.7,0.2c-0.5,0-0.9-0.3-0.9-1c-0.6,0.7-1.3,1-2.2,1c-1.1,0-2.1-0.5-2.1-1.7
				c0-1.4,1-1.7,2.1-1.9c1.1-0.2,2.1-0.1,2.1-0.9c0-0.9-0.7-1-1.4-1c-0.9,0-1.5,0.3-1.5,1.2h-1c0.1-1.5,1.2-2.1,2.6-2.1
				c1.1,0,2.3,0.3,2.3,1.7v3.2c0,0.5,0,0.7,0.3,0.7c0.1,0,0.2,0,0.3-0.1V-203.6z M-82.6-206.8c-0.4,0.3-1.2,0.3-1.8,0.4
				c-0.7,0.1-1.2,0.4-1.2,1.1c0,0.7,0.6,0.9,1.2,0.9c1.3,0,1.9-0.8,1.9-1.4V-206.8z"/>
			<path class="st0" d="M-79.8-209.8h1v1h0c0.4-0.8,1.1-1.1,2-1.1c1.6,0,2.1,0.9,2.1,2.3v4.1h-1v-4.2c0-0.8-0.5-1.2-1.3-1.2
				c-1.2,0-1.8,0.8-1.8,1.9v3.5h-1V-209.8z"/>
			<path class="st0" d="M-67.5-203.6h-1v-0.8h0c-0.3,0.7-1.1,1-2,1c-1.9,0-2.9-1.5-2.9-3.3c0-1.8,0.9-3.2,2.8-3.2c0.6,0,1.5,0.2,2,1
				h0v-3.2h1V-203.6z M-70.4-204.3c1.4,0,1.9-1.2,1.9-2.3c0-1.2-0.6-2.4-2-2.4c-1.4,0-1.9,1.2-1.9,2.4
				C-72.3-205.4-71.7-204.3-70.4-204.3z"/>
			<path class="st0" d="M-65.7-212.1h1v8.6h-1V-212.1z"/>
			<path class="st0" d="M-57.7-205.5c-0.3,1.4-1.3,2.1-2.7,2.1c-2,0-2.9-1.4-3-3.3c0-1.9,1.2-3.2,2.9-3.2c2.2,0,2.9,2.1,2.8,3.6
				h-4.6c0,1.1,0.6,2,1.9,2c0.8,0,1.4-0.4,1.6-1.2H-57.7z M-58.7-207.3c0-1-0.8-1.8-1.8-1.8c-1.1,0-1.7,0.8-1.8,1.8H-58.7z"/>
		</g>
	</g>
	<g>
		<g>
			<path class="st0" d="M25.9-207.8c-0.2-0.8-0.7-1.2-1.5-1.2c-1.5,0-1.9,1.2-1.9,2.4c0,1.1,0.5,2.3,1.8,2.3c1,0,1.6-0.6,1.7-1.5h1
				c-0.2,1.5-1.2,2.4-2.7,2.4c-1.9,0-2.9-1.3-2.9-3.2c0-1.9,1-3.3,2.9-3.3c1.4,0,2.5,0.7,2.7,2.1H25.9z"/>
			<path class="st0" d="M33.7-203.6c-0.2,0.1-0.4,0.2-0.7,0.2c-0.5,0-0.9-0.3-0.9-1c-0.6,0.7-1.3,1-2.2,1c-1.1,0-2.1-0.5-2.1-1.7
				c0-1.4,1-1.7,2.1-1.9c1.1-0.2,2.1-0.1,2.1-0.9c0-0.9-0.7-1-1.4-1c-0.9,0-1.5,0.3-1.5,1.2h-1c0.1-1.5,1.2-2.1,2.6-2.1
				c1.1,0,2.3,0.3,2.3,1.7v3.2c0,0.5,0,0.7,0.3,0.7c0.1,0,0.2,0,0.3-0.1V-203.6z M32.1-206.8c-0.4,0.3-1.2,0.3-1.8,0.4
				c-0.7,0.1-1.2,0.4-1.2,1.1c0,0.7,0.6,0.9,1.2,0.9c1.3,0,1.9-0.8,1.9-1.4V-206.8z"/>
			<path class="st0" d="M34.8-209.8h1v1h0c0.4-0.8,1.1-1.1,2-1.1c1.6,0,2.1,0.9,2.1,2.3v4.1h-1v-4.2c0-0.8-0.5-1.2-1.3-1.2
				c-1.2,0-1.8,0.8-1.8,1.9v3.5h-1V-209.8z"/>
			<path class="st0" d="M47.2-203.6h-1v-0.8h0c-0.3,0.7-1.1,1-2,1c-1.9,0-2.9-1.5-2.9-3.3c0-1.8,0.9-3.2,2.8-3.2c0.6,0,1.5,0.2,2,1
				h0v-3.2h1V-203.6z M44.3-204.3c1.4,0,1.9-1.2,1.9-2.3c0-1.2-0.6-2.4-2-2.4c-1.4,0-1.9,1.2-1.9,2.4
				C42.4-205.4,43-204.3,44.3-204.3z"/>
			<path class="st0" d="M51.3-202.7c-0.5,1.2-0.9,1.7-1.8,1.7c-0.2,0-0.5,0-0.7-0.1v-0.9c0.2,0.1,0.4,0.1,0.6,0.1
				c0.4,0,0.6-0.2,0.8-0.6l0.4-1.1l-2.5-6.2h1.2l1.8,5.1h0l1.7-5.1H54L51.3-202.7z"/>
			<path class="st0" d="M62.6-207.8c-0.2-0.8-0.7-1.2-1.5-1.2c-1.5,0-1.9,1.2-1.9,2.4c0,1.1,0.5,2.3,1.8,2.3c1,0,1.6-0.6,1.7-1.5h1
				c-0.2,1.5-1.2,2.4-2.7,2.4c-1.9,0-2.9-1.3-2.9-3.2c0-1.9,1-3.3,2.9-3.3c1.4,0,2.5,0.7,2.7,2.1H62.6z"/>
			<path class="st0" d="M70.5-203.6c-0.2,0.1-0.4,0.2-0.7,0.2c-0.5,0-0.9-0.3-0.9-1c-0.6,0.7-1.3,1-2.2,1c-1.1,0-2.1-0.5-2.1-1.7
				c0-1.4,1-1.7,2.1-1.9c1.1-0.2,2.1-0.1,2.1-0.9c0-0.9-0.7-1-1.4-1c-0.9,0-1.5,0.3-1.5,1.2h-1c0.1-1.5,1.2-2.1,2.6-2.1
				c1.1,0,2.3,0.3,2.3,1.7v3.2c0,0.5,0,0.7,0.3,0.7c0.1,0,0.2,0,0.3-0.1V-203.6z M68.8-206.8c-0.4,0.3-1.2,0.3-1.8,0.4
				c-0.7,0.1-1.2,0.4-1.2,1.1c0,0.7,0.6,0.9,1.2,0.9c1.3,0,1.9-0.8,1.9-1.4V-206.8z"/>
			<path class="st0" d="M71.6-209.8h1v1h0c0.4-0.8,1.1-1.1,2-1.1c1.6,0,2.1,0.9,2.1,2.3v4.1h-1v-4.2c0-0.8-0.5-1.2-1.3-1.2
				c-1.2,0-1.8,0.8-1.8,1.9v3.5h-1V-209.8z"/>
			<path class="st0" d="M83.6-205.5c-0.3,1.4-1.3,2.1-2.7,2.1c-2,0-2.9-1.4-3-3.3c0-1.9,1.2-3.2,2.9-3.2c2.2,0,2.9,2.1,2.8,3.6h-4.6
				c0,1.1,0.6,2,1.9,2c0.8,0,1.4-0.4,1.6-1.2H83.6z M82.6-207.3c0-1-0.8-1.8-1.8-1.8c-1.1,0-1.7,0.8-1.8,1.8H82.6z"/>
		</g>
	</g>
	<g>
		<g>
			<path class="st0" d="M-474.9-47.8c-0.2-0.8-0.7-1.2-1.5-1.2c-1.5,0-1.9,1.2-1.9,2.4c0,1.1,0.5,2.3,1.8,2.3c1,0,1.6-0.6,1.7-1.5h1
				c-0.2,1.5-1.2,2.4-2.7,2.4c-1.9,0-2.9-1.3-2.9-3.2c0-1.9,1-3.3,2.9-3.3c1.4,0,2.5,0.7,2.7,2.1H-474.9z"/>
			<path class="st0" d="M-472.6-49.8h1v1.3h0c0.5-1,1.2-1.5,2.3-1.5v1.1c-1.6,0-2.2,0.9-2.2,2.5v2.8h-1V-49.8z"/>
			<path class="st0" d="M-462.9-43.6c-0.2,0.1-0.4,0.2-0.7,0.2c-0.5,0-0.9-0.3-0.9-1c-0.6,0.7-1.3,1-2.2,1c-1.1,0-2.1-0.5-2.1-1.7
				c0-1.4,1-1.7,2.1-1.9c1.1-0.2,2.1-0.1,2.1-0.9c0-0.9-0.7-1-1.4-1c-0.9,0-1.5,0.3-1.5,1.2h-1c0.1-1.5,1.2-2.1,2.6-2.1
				c1.1,0,2.3,0.3,2.3,1.7v3.2c0,0.5,0,0.7,0.3,0.7c0.1,0,0.2,0,0.3-0.1V-43.6z M-464.6-46.8c-0.4,0.3-1.2,0.3-1.8,0.4
				c-0.7,0.1-1.2,0.4-1.2,1.1c0,0.7,0.6,0.9,1.2,0.9c1.3,0,1.9-0.8,1.9-1.4V-46.8z"/>
			<path class="st0" d="M-457.7-47.8c-0.2-0.8-0.7-1.2-1.5-1.2c-1.5,0-1.9,1.2-1.9,2.4c0,1.1,0.5,2.3,1.8,2.3c1,0,1.6-0.6,1.7-1.5h1
				c-0.2,1.5-1.2,2.4-2.7,2.4c-1.9,0-2.9-1.3-2.9-3.2c0-1.9,1-3.3,2.9-3.3c1.4,0,2.5,0.7,2.7,2.1H-457.7z"/>
			<path class="st0" d="M-455.2-52.1h1v5.1l2.8-2.7h1.4l-2.5,2.3l2.6,3.9h-1.3l-2.1-3.2l-1,0.9v2.4h-1V-52.1z"/>
			<path class="st0" d="M-443.7-45.5c-0.3,1.4-1.3,2.1-2.7,2.1c-2,0-2.9-1.4-3-3.3c0-1.9,1.2-3.2,2.9-3.2c2.2,0,2.9,2.1,2.8,3.6
				h-4.6c0,1.1,0.6,2,1.9,2c0.8,0,1.4-0.4,1.6-1.2H-443.7z M-444.6-47.3c0-1-0.8-1.8-1.8-1.8c-1.1,0-1.7,0.8-1.8,1.8H-444.6z"/>
			<path class="st0" d="M-442.4-49.8h1v1.3h0c0.5-1,1.2-1.5,2.3-1.5v1.1c-1.6,0-2.2,0.9-2.2,2.5v2.8h-1V-49.8z"/>
		</g>
	</g>
	<g>
		<g>
			<path class="st0" d="M-339.4-43.6h-1v-0.8h0c-0.3,0.7-1.1,1-2,1c-1.9,0-2.9-1.5-2.9-3.3c0-1.8,0.9-3.2,2.8-3.2c0.6,0,1.5,0.2,2,1
				h0v-3.2h1V-43.6z M-342.3-44.3c1.4,0,1.9-1.2,1.9-2.3c0-1.2-0.6-2.4-2-2.4c-1.4,0-1.9,1.2-1.9,2.4
				C-344.2-45.4-343.6-44.3-342.3-44.3z"/>
			<path class="st0" d="M-337.8-49.8h1v1.3h0c0.5-1,1.2-1.5,2.3-1.5v1.1c-1.6,0-2.2,0.9-2.2,2.5v2.8h-1V-49.8z"/>
			<path class="st0" d="M-328.5-43.6h-1v-1h0c-0.4,0.8-1.1,1.1-2,1.1c-1.6,0-2.1-0.9-2.1-2.3v-4.1h1v4.2c0,0.8,0.5,1.2,1.3,1.2
				c1.2,0,1.8-0.8,1.8-1.9v-3.5h1V-43.6z"/>
			<path class="st0" d="M-326.8-49.8h1v0.9h0c0.5-0.7,1.2-1.1,2-1.1c0.8,0,1.5,0.3,1.7,1.1c0.4-0.7,1.2-1.1,1.9-1.1
				c1.2,0,2.1,0.5,2.1,1.8v4.5h-1v-4.1c0-0.8-0.2-1.4-1.2-1.4c-1,0-1.6,0.6-1.6,1.6v3.9h-1v-4.1c0-0.8-0.3-1.4-1.2-1.4
				c-1.2,0-1.7,1.1-1.7,1.6v3.9h-1V-49.8z"/>
		</g>
	</g>
	<g>
		<g>
			<path class="st0" d="M-203.9-45.5c-0.3,1.4-1.3,2.1-2.7,2.1c-2,0-2.9-1.4-3-3.3c0-1.9,1.2-3.2,2.9-3.2c2.2,0,2.9,2.1,2.8,3.6
				h-4.6c0,1.1,0.6,2,1.9,2c0.8,0,1.4-0.4,1.6-1.2H-203.9z M-204.9-47.3c0-1-0.8-1.8-1.8-1.8c-1.1,0-1.7,0.8-1.8,1.8H-204.9z"/>
			<path class="st0" d="M-202.6-52.1h1v8.6h-1V-52.1z"/>
			<path class="st0" d="M-199.4-48.9h-1v-0.9h1v-0.9c0-1,0.6-1.5,1.7-1.5c0.2,0,0.5,0,0.7,0.1v0.9c-0.2-0.1-0.4-0.1-0.6-0.1
				c-0.5,0-0.8,0.2-0.8,0.7v0.9h1.2v0.9h-1.2v5.3h-1V-48.9z"/>
		</g>
	</g>
	<g>
		<g>
			<path class="st0" d="M-99.3-48.9h-1v-0.9h1v-0.9c0-1,0.6-1.5,1.7-1.5c0.2,0,0.5,0,0.7,0.1v0.9c-0.2-0.1-0.4-0.1-0.6-0.1
				c-0.5,0-0.8,0.2-0.8,0.7v0.9h1.2v0.9h-1.2v5.3h-1V-48.9z"/>
			<path class="st0" d="M-90.5-43.6c-0.2,0.1-0.4,0.2-0.7,0.2c-0.5,0-0.9-0.3-0.9-1c-0.6,0.7-1.3,1-2.2,1c-1.1,0-2.1-0.5-2.1-1.7
				c0-1.4,1-1.7,2.1-1.9c1.1-0.2,2.1-0.1,2.1-0.9c0-0.9-0.7-1-1.4-1c-0.9,0-1.5,0.3-1.5,1.2h-1c0.1-1.5,1.2-2.1,2.6-2.1
				c1.1,0,2.3,0.3,2.3,1.7v3.2c0,0.5,0,0.7,0.3,0.7c0.1,0,0.2,0,0.3-0.1V-43.6z M-92.2-46.8c-0.4,0.3-1.2,0.3-1.8,0.4
				c-0.7,0.1-1.2,0.4-1.2,1.1c0,0.7,0.6,0.9,1.2,0.9c1.3,0,1.9-0.8,1.9-1.4V-46.8z"/>
			<path class="st0" d="M-88.4-50.9h-1v-1.2h1V-50.9z M-89.4-49.8h1v6.2h-1V-49.8z"/>
			<path class="st0" d="M-86.7-49.8h1v1.3h0c0.5-1,1.2-1.5,2.3-1.5v1.1c-1.6,0-2.2,0.9-2.2,2.5v2.8h-1V-49.8z"/>
			<path class="st0" d="M-80.1-42.7c-0.5,1.2-0.9,1.7-1.8,1.7c-0.2,0-0.5,0-0.7-0.1v-0.9c0.2,0.1,0.4,0.1,0.6,0.1
				c0.4,0,0.6-0.2,0.8-0.6l0.4-1.1l-2.5-6.2h1.2l1.8,5.1h0l1.7-5.1h1.1L-80.1-42.7z"/>
			<path class="st0" d="M-72.9-52.1h1v8.6h-1V-52.1z"/>
			<path class="st0" d="M-69.1-50.9h-1v-1.2h1V-50.9z M-70.1-49.8h1v6.2h-1V-49.8z"/>
			<path class="st0" d="M-62.1-44.1c0,2-0.9,3-2.9,3c-1.2,0-2.5-0.5-2.6-1.8h1c0,0.7,0.9,1,1.6,1c1.3,0,1.9-1,1.9-2.4v-0.4h0
				c-0.3,0.8-1.2,1.1-1.9,1.1c-1.8,0-2.8-1.5-2.8-3.1c0-1.5,0.7-3.3,2.9-3.3c0.8,0,1.5,0.3,1.8,1h0v-0.9h1V-44.1z M-63.1-46.8
				c0-1.1-0.5-2.2-1.8-2.2c-1.3,0-1.8,1.1-1.8,2.3c0,1.1,0.4,2.4,1.8,2.4C-63.6-44.4-63.1-45.6-63.1-46.8z"/>
			<path class="st0" d="M-60.4-52.1h1v3.3h0c0.3-0.7,1.2-1.1,2-1.1c1.6,0,2.1,0.9,2.1,2.3v4.1h-1v-4.2c0-0.8-0.5-1.2-1.3-1.2
				c-1.2,0-1.8,0.8-1.8,1.9v3.5h-1V-52.1z"/>
			<path class="st0" d="M-52.2-49.8h1.2v0.9h-1.2v3.9c0,0.5,0.1,0.6,0.8,0.6h0.5v0.9h-0.8c-1.1,0-1.5-0.2-1.5-1.4v-3.9h-1.1v-0.9
				h1.1v-1.9h1V-49.8z"/>
		</g>
	</g>
	<g>
		<g>
			<path class="st0" d="M50-44.1c0,2-0.9,3-2.9,3c-1.2,0-2.5-0.5-2.6-1.8h1c0,0.7,0.9,1,1.6,1c1.3,0,1.9-1,1.9-2.4v-0.4h0
				c-0.3,0.8-1.2,1.1-1.9,1.1c-1.8,0-2.8-1.5-2.8-3.1c0-1.5,0.7-3.3,2.9-3.3c0.8,0,1.5,0.3,1.8,1h0v-0.9h1V-44.1z M49-46.8
				c0-1.1-0.5-2.2-1.8-2.2c-1.3,0-1.8,1.1-1.8,2.3c0,1.1,0.4,2.4,1.8,2.4C48.5-44.4,49-45.6,49-46.8z"/>
			<path class="st0" d="M52.7-50.9h-1v-1.2h1V-50.9z M51.7-49.8h1v6.2h-1V-49.8z"/>
			<path class="st0" d="M54.8-48.9h-1v-0.9h1v-0.9c0-1,0.6-1.5,1.7-1.5c0.2,0,0.5,0,0.7,0.1v0.9c-0.2-0.1-0.4-0.1-0.6-0.1
				c-0.5,0-0.8,0.2-0.8,0.7v0.9H57v0.9h-1.2v5.3h-1V-48.9z"/>
			<path class="st0" d="M59.5-49.8h1.2v0.9h-1.2v3.9c0,0.5,0.1,0.6,0.8,0.6h0.5v0.9H60c-1.1,0-1.5-0.2-1.5-1.4v-3.9h-1.1v-0.9h1.1
				v-1.9h1V-49.8z"/>
		</g>
	</g>
	<g>
		<g>
			<path class="st0" d="M-499.8,115.9c0,2-0.9,3-2.9,3c-1.2,0-2.5-0.5-2.6-1.8h1c0,0.7,0.9,1,1.6,1c1.3,0,1.9-1,1.9-2.4v-0.4h0
				c-0.3,0.8-1.2,1.1-1.9,1.1c-1.8,0-2.8-1.5-2.8-3.1c0-1.5,0.7-3.3,2.9-3.3c0.8,0,1.5,0.3,1.8,1h0v-0.9h1V115.9z M-500.8,113.2
				c0-1.1-0.5-2.2-1.8-2.2c-1.3,0-1.8,1.1-1.8,2.3c0,1.1,0.4,2.4,1.8,2.4C-501.3,115.6-500.8,114.4-500.8,113.2z"/>
			<path class="st0" d="M-497.1,109.1h-1v-1.2h1V109.1z M-498.1,110.2h1v6.2h-1V110.2z"/>
			<path class="st0" d="M-495.4,110.2h1v1h0c0.4-0.8,1.1-1.1,2-1.1c1.6,0,2.1,0.9,2.1,2.3v4.1h-1v-4.2c0-0.8-0.5-1.2-1.3-1.2
				c-1.2,0-1.8,0.8-1.8,1.9v3.5h-1V110.2z"/>
			<path class="st0" d="M-483.2,115.9c0,2-0.9,3-2.9,3c-1.2,0-2.5-0.5-2.6-1.8h1c0,0.7,0.9,1,1.6,1c1.3,0,1.9-1,1.9-2.4v-0.4h0
				c-0.3,0.8-1.2,1.1-1.9,1.1c-1.8,0-2.8-1.5-2.8-3.1c0-1.5,0.7-3.3,2.9-3.3c0.8,0,1.5,0.3,1.8,1h0v-0.9h1V115.9z M-484.2,113.2
				c0-1.1-0.5-2.2-1.8-2.2c-1.3,0-1.8,1.1-1.8,2.3c0,1.1,0.4,2.4,1.8,2.4C-484.7,115.6-484.2,114.4-484.2,113.2z"/>
			<path class="st0" d="M-476.3,114.5c-0.3,1.4-1.3,2.1-2.7,2.1c-2,0-2.9-1.4-3-3.3c0-1.9,1.2-3.2,2.9-3.2c2.2,0,2.9,2.1,2.8,3.6
				h-4.6c0,1.1,0.6,2,1.9,2c0.8,0,1.4-0.4,1.6-1.2H-476.3z M-477.3,112.7c0-1-0.8-1.8-1.8-1.8c-1.1,0-1.7,0.8-1.8,1.8H-477.3z"/>
			<path class="st0" d="M-475,110.2h1v1.3h0c0.5-1,1.2-1.5,2.3-1.5v1.1c-1.6,0-2.2,0.9-2.2,2.5v2.8h-1V110.2z"/>
			<path class="st0" d="M-470.8,107.9h1v3.2h0c0.3-0.7,1.1-1,2-1c1.9,0,2.9,1.5,2.9,3.3c0,1.8-0.9,3.2-2.8,3.2c-0.6,0-1.5-0.2-2-1h0
				v0.8h-1V107.9z M-468,111c-1.4,0-1.9,1.2-1.9,2.3c0,1.2,0.6,2.4,2,2.4c1.4,0,1.9-1.2,1.9-2.4C-466.1,112.1-466.6,111-468,111z"/>
			<path class="st0" d="M-463.7,110.2h1v1.3h0c0.5-1,1.2-1.5,2.3-1.5v1.1c-1.6,0-2.2,0.9-2.2,2.5v2.8h-1V110.2z"/>
			<path class="st0" d="M-454.5,114.5c-0.3,1.4-1.3,2.1-2.7,2.1c-2,0-2.9-1.4-3-3.3c0-1.9,1.2-3.2,2.9-3.2c2.2,0,2.9,2.1,2.8,3.6
				h-4.6c0,1.1,0.6,2,1.9,2c0.8,0,1.4-0.4,1.6-1.2H-454.5z M-455.4,112.7c0-1-0.8-1.8-1.8-1.8c-1.1,0-1.7,0.8-1.8,1.8H-455.4z"/>
			<path class="st0" d="M-447.7,116.4c-0.2,0.1-0.4,0.2-0.7,0.2c-0.5,0-0.9-0.3-0.9-1c-0.6,0.7-1.3,1-2.2,1c-1.1,0-2.1-0.5-2.1-1.7
				c0-1.4,1-1.7,2.1-1.9c1.1-0.2,2.1-0.1,2.1-0.9c0-0.9-0.7-1-1.4-1c-0.9,0-1.5,0.3-1.5,1.2h-1c0.1-1.5,1.2-2.1,2.6-2.1
				c1.1,0,2.3,0.3,2.3,1.7v3.2c0,0.5,0,0.7,0.3,0.7c0.1,0,0.2,0,0.3-0.1V116.4z M-449.3,113.2c-0.4,0.3-1.2,0.3-1.8,0.4
				c-0.7,0.1-1.2,0.4-1.2,1.1c0,0.7,0.6,0.9,1.2,0.9c1.3,0,1.9-0.8,1.9-1.4V113.2z"/>
			<path class="st0" d="M-441.1,116.4h-1v-0.8h0c-0.3,0.7-1.1,1-2,1c-1.9,0-2.9-1.5-2.9-3.3c0-1.8,0.9-3.2,2.8-3.2
				c0.6,0,1.5,0.2,2,1h0v-3.2h1V116.4z M-444,115.7c1.4,0,1.9-1.2,1.9-2.3c0-1.2-0.6-2.3-2-2.3c-1.4,0-1.9,1.2-1.9,2.4
				C-445.9,114.6-445.3,115.7-444,115.7z"/>
			<path class="st0" d="M-435.9,110.2h1v0.9h0c0.5-0.7,1.2-1.1,2-1.1c0.8,0,1.5,0.3,1.7,1.1c0.4-0.7,1.2-1.1,1.9-1.1
				c1.2,0,2.1,0.5,2.1,1.8v4.5h-1v-4.1c0-0.8-0.2-1.4-1.2-1.4c-1,0-1.6,0.6-1.6,1.6v3.9h-1v-4.1c0-0.8-0.3-1.4-1.2-1.4
				c-1.2,0-1.7,1.1-1.7,1.6v3.9h-1V110.2z"/>
			<path class="st0" d="M-420.1,116.4c-0.2,0.1-0.4,0.2-0.7,0.2c-0.5,0-0.9-0.3-0.9-1c-0.6,0.7-1.3,1-2.2,1c-1.1,0-2.1-0.5-2.1-1.7
				c0-1.4,1-1.7,2.1-1.9c1.1-0.2,2.1-0.1,2.1-0.9c0-0.9-0.7-1-1.4-1c-0.9,0-1.5,0.3-1.5,1.2h-1c0.1-1.5,1.2-2.1,2.6-2.1
				c1.1,0,2.3,0.3,2.3,1.7v3.2c0,0.5,0,0.7,0.3,0.7c0.1,0,0.2,0,0.3-0.1V116.4z M-421.7,113.2c-0.4,0.3-1.2,0.3-1.8,0.4
				c-0.7,0.1-1.2,0.4-1.2,1.1c0,0.7,0.6,0.9,1.2,0.9c1.3,0,1.9-0.8,1.9-1.4V113.2z"/>
			<path class="st0" d="M-419,110.2h1v1h0c0.4-0.8,1.1-1.1,2-1.1c1.6,0,2.1,0.9,2.1,2.3v4.1h-1v-4.2c0-0.8-0.5-1.2-1.3-1.2
				c-1.2,0-1.8,0.8-1.8,1.9v3.5h-1V110.2z"/>
		</g>
	</g>
	<g>
		<g>
			<path class="st0" d="M-343.4,107.9h1v3.3h0c0.3-0.7,1.2-1.1,2-1.1c1.6,0,2.1,0.9,2.1,2.3v4.1h-1v-4.2c0-0.8-0.5-1.2-1.3-1.2
				c-1.2,0-1.8,0.8-1.8,1.9v3.5h-1V107.9z"/>
			<path class="st0" d="M-334,110.1c2,0,3,1.4,3,3.3c0,1.8-1,3.2-3,3.2c-2,0-3-1.4-3-3.2C-337,111.5-335.9,110.1-334,110.1z
				 M-334,115.7c1.1,0,1.9-0.8,1.9-2.3c0-1.5-0.9-2.3-1.9-2.3c-1.1,0-1.9,0.8-1.9,2.3C-335.9,114.8-335,115.7-334,115.7z"/>
			<path class="st0" d="M-329.6,107.9h1v8.6h-1V107.9z"/>
			<path class="st0" d="M-326.8,107.9h1v8.6h-1V107.9z"/>
			<path class="st0" d="M-321.6,117.3c-0.5,1.2-0.9,1.7-1.8,1.7c-0.2,0-0.5,0-0.7-0.1v-0.9c0.2,0.1,0.4,0.1,0.6,0.1
				c0.4,0,0.6-0.2,0.8-0.6l0.4-1.1l-2.5-6.2h1.2l1.8,5.1h0l1.7-5.1h1.1L-321.6,117.3z"/>
		</g>
	</g>
	<g>
		<g>
			<path class="st0" d="M-231.8,110.2h1v1h0c0.4-0.8,1.1-1.1,2-1.1c1.6,0,2.1,0.9,2.1,2.3v4.1h-1v-4.2c0-0.8-0.5-1.2-1.3-1.2
				c-1.2,0-1.8,0.8-1.8,1.9v3.5h-1V110.2z"/>
			<path class="st0" d="M-219.9,116.4h-1v-1h0c-0.4,0.8-1.1,1.1-2,1.1c-1.6,0-2.1-0.9-2.1-2.3v-4.1h1v4.2c0,0.8,0.5,1.2,1.3,1.2
				c1.2,0,1.8-0.8,1.8-1.9v-3.5h1V116.4z"/>
			<path class="st0" d="M-216.8,110.2h1.2v0.9h-1.2v3.9c0,0.5,0.1,0.6,0.8,0.6h0.5v0.9h-0.8c-1.1,0-1.5-0.2-1.5-1.4v-3.9h-1.1v-0.9
				h1.1v-1.9h1V110.2z"/>
			<path class="st0" d="M-210.1,112.2c-0.2-0.8-0.7-1.2-1.5-1.2c-1.5,0-1.9,1.2-1.9,2.4c0,1.1,0.5,2.3,1.8,2.3c1,0,1.6-0.6,1.7-1.5
				h1c-0.2,1.5-1.2,2.4-2.7,2.4c-1.9,0-2.9-1.3-2.9-3.2c0-1.9,1-3.3,2.9-3.3c1.4,0,2.5,0.7,2.7,2.1H-210.1z"/>
			<path class="st0" d="M-207.8,110.2h1v1.3h0c0.5-1,1.2-1.5,2.3-1.5v1.1c-1.6,0-2.2,0.9-2.2,2.5v2.8h-1V110.2z"/>
			<path class="st0" d="M-198.2,116.4c-0.2,0.1-0.4,0.2-0.7,0.2c-0.5,0-0.9-0.3-0.9-1c-0.6,0.7-1.3,1-2.2,1c-1.1,0-2.1-0.5-2.1-1.7
				c0-1.4,1-1.7,2.1-1.9c1.1-0.2,2.1-0.1,2.1-0.9c0-0.9-0.7-1-1.4-1c-0.9,0-1.5,0.3-1.5,1.2h-1c0.1-1.5,1.2-2.1,2.6-2.1
				c1.1,0,2.3,0.3,2.3,1.7v3.2c0,0.5,0,0.7,0.3,0.7c0.1,0,0.2,0,0.3-0.1V116.4z M-199.8,113.2c-0.4,0.3-1.2,0.3-1.8,0.4
				c-0.7,0.1-1.2,0.4-1.2,1.1c0,0.7,0.6,0.9,1.2,0.9c1.3,0,1.9-0.8,1.9-1.4V113.2z"/>
			<path class="st0" d="M-192.9,112.2c-0.2-0.8-0.7-1.2-1.5-1.2c-1.5,0-1.9,1.2-1.9,2.4c0,1.1,0.5,2.3,1.8,2.3c1,0,1.6-0.6,1.7-1.5
				h1c-0.2,1.5-1.2,2.4-2.7,2.4c-1.9,0-2.9-1.3-2.9-3.2c0-1.9,1-3.3,2.9-3.3c1.4,0,2.5,0.7,2.7,2.1H-192.9z"/>
			<path class="st0" d="M-190.5,107.9h1v5.1l2.8-2.7h1.4l-2.5,2.3l2.6,3.9h-1.3l-2.1-3.2l-1,0.9v2.4h-1V107.9z"/>
			<path class="st0" d="M-178.9,114.5c-0.3,1.4-1.3,2.1-2.7,2.1c-2,0-2.9-1.4-3-3.3c0-1.9,1.2-3.2,2.9-3.2c2.2,0,2.9,2.1,2.8,3.6
				h-4.6c0,1.1,0.6,2,1.9,2c0.8,0,1.4-0.4,1.6-1.2H-178.9z M-179.9,112.7c0-1-0.8-1.8-1.8-1.8c-1.1,0-1.7,0.8-1.8,1.8H-179.9z"/>
			<path class="st0" d="M-177.7,110.2h1v1.3h0c0.5-1,1.2-1.5,2.3-1.5v1.1c-1.6,0-2.2,0.9-2.2,2.5v2.8h-1V110.2z"/>
		</g>
	</g>
	<g>
		<g>
			<path class="st0" d="M-97.2,110.2h1v0.8h0c0.3-0.7,1.1-1,2-1c1.9,0,2.9,1.5,2.9,3.3c0,1.8-0.9,3.2-2.8,3.2c-0.6,0-1.5-0.2-2-1h0
				v3.2h-1V110.2z M-94.3,111c-1.4,0-1.9,1.2-1.9,2.3c0,1.2,0.6,2.4,2,2.4c1.4,0,1.9-1.2,1.9-2.4C-92.4,112.1-93,111-94.3,111z"/>
			<path class="st0" d="M-84.9,116.4h-1v-1h0c-0.4,0.8-1.1,1.1-2,1.1c-1.6,0-2.1-0.9-2.1-2.3v-4.1h1v4.2c0,0.8,0.5,1.2,1.3,1.2
				c1.2,0,1.8-0.8,1.8-1.9v-3.5h1V116.4z"/>
			<path class="st0" d="M-77.7,116.4h-1v-0.8h0c-0.3,0.7-1.1,1-2,1c-1.9,0-2.9-1.5-2.9-3.3c0-1.8,0.9-3.2,2.8-3.2c0.6,0,1.5,0.2,2,1
				h0v-3.2h1V116.4z M-80.6,115.7c1.4,0,1.9-1.2,1.9-2.3c0-1.2-0.6-2.3-2-2.3c-1.4,0-1.9,1.2-1.9,2.4
				C-82.5,114.6-81.9,115.7-80.6,115.7z"/>
			<path class="st0" d="M-70.4,116.4h-1v-0.8h0c-0.3,0.7-1.1,1-2,1c-1.9,0-2.9-1.5-2.9-3.3c0-1.8,0.9-3.2,2.8-3.2c0.6,0,1.5,0.2,2,1
				h0v-3.2h1V116.4z M-73.3,115.7c1.4,0,1.9-1.2,1.9-2.3c0-1.2-0.6-2.3-2-2.3c-1.4,0-1.9,1.2-1.9,2.4
				C-75.2,114.6-74.6,115.7-73.3,115.7z"/>
			<path class="st0" d="M-67.7,109.1h-1v-1.2h1V109.1z M-68.7,110.2h1v6.2h-1V110.2z"/>
			<path class="st0" d="M-66,110.2h1v1h0c0.4-0.8,1.1-1.1,2-1.1c1.6,0,2.1,0.9,2.1,2.3v4.1h-1v-4.2c0-0.8-0.5-1.2-1.3-1.2
				c-1.2,0-1.8,0.8-1.8,1.9v3.5h-1V110.2z"/>
			<path class="st0" d="M-53.8,115.9c0,2-0.9,3-2.9,3c-1.2,0-2.5-0.5-2.6-1.8h1c0,0.7,0.9,1,1.6,1c1.3,0,1.9-1,1.9-2.4v-0.4h0
				c-0.3,0.8-1.2,1.1-1.9,1.1c-1.8,0-2.8-1.5-2.8-3.1c0-1.5,0.7-3.3,2.9-3.3c0.8,0,1.5,0.3,1.8,1h0v-0.9h1V115.9z M-54.8,113.2
				c0-1.1-0.5-2.2-1.8-2.2c-1.3,0-1.8,1.1-1.8,2.3c0,1.1,0.4,2.4,1.8,2.4C-55.3,115.6-54.8,114.4-54.8,113.2z"/>
		</g>
	</g>
	<g>
		<g>
			<path class="st0" d="M41,116.4h-1.1l-1.3-4.9h0l-1.2,4.9h-1.1l-2-6.2h1.1l1.4,5.1h0l1.2-5.1h1.1l1.3,5.1h0l1.4-5.1H43L41,116.4z"
				/>
			<path class="st0" d="M44,110.2h1v1.3h0c0.5-1,1.2-1.5,2.3-1.5v1.1c-1.6,0-2.2,0.9-2.2,2.5v2.8h-1V110.2z"/>
			<path class="st0" d="M53.2,114.5c-0.3,1.4-1.3,2.1-2.7,2.1c-2,0-2.9-1.4-3-3.3c0-1.9,1.2-3.2,2.9-3.2c2.2,0,2.9,2.1,2.8,3.6h-4.6
				c0,1.1,0.6,2,1.9,2c0.8,0,1.4-0.4,1.6-1.2H53.2z M52.3,112.7c0-1-0.8-1.8-1.8-1.8c-1.1,0-1.7,0.8-1.8,1.8H52.3z"/>
			<path class="st0" d="M60,116.4c-0.2,0.1-0.4,0.2-0.7,0.2c-0.5,0-0.9-0.3-0.9-1c-0.6,0.7-1.3,1-2.2,1c-1.1,0-2.1-0.5-2.1-1.7
				c0-1.4,1-1.7,2.1-1.9c1.1-0.2,2.1-0.1,2.1-0.9c0-0.9-0.7-1-1.4-1c-0.9,0-1.5,0.3-1.5,1.2h-1c0.1-1.5,1.2-2.1,2.6-2.1
				c1.1,0,2.3,0.3,2.3,1.7v3.2c0,0.5,0,0.7,0.3,0.7c0.1,0,0.2,0,0.3-0.1V116.4z M58.3,113.2c-0.4,0.3-1.2,0.3-1.8,0.4
				c-0.7,0.1-1.2,0.4-1.2,1.1c0,0.7,0.6,0.9,1.2,0.9c1.3,0,1.9-0.8,1.9-1.4V113.2z"/>
			<path class="st0" d="M62.5,110.2h1.2v0.9h-1.2v3.9c0,0.5,0.1,0.6,0.8,0.6h0.5v0.9h-0.8c-1.1,0-1.5-0.2-1.5-1.4v-3.9h-1.1v-0.9
				h1.1v-1.9h1V110.2z"/>
			<path class="st0" d="M65,107.9h1v3.3h0c0.3-0.7,1.2-1.1,2-1.1c1.6,0,2.1,0.9,2.1,2.3v4.1h-1v-4.2c0-0.8-0.5-1.2-1.3-1.2
				c-1.2,0-1.8,0.8-1.8,1.9v3.5h-1V107.9z"/>
		</g>
	</g>
	<g>
		<g>
			<path class="st0" d="M-476.3,270.2h1v1.3h0c0.5-1,1.2-1.5,2.3-1.5v1.1c-1.6,0-2.2,0.9-2.2,2.5v2.8h-1V270.2z"/>
			<path class="st0" d="M-471.1,269.1h-1v-1.2h1V269.1z M-472.1,270.2h1v6.2h-1V270.2z"/>
			<path class="st0" d="M-469.3,267.9h1v3.2h0c0.3-0.7,1.1-1,2-1c1.9,0,2.9,1.5,2.9,3.3c0,1.8-0.9,3.2-2.8,3.2c-0.6,0-1.5-0.2-2-1h0
				v0.8h-1V267.9z M-466.5,271c-1.4,0-1.9,1.2-1.9,2.3c0,1.2,0.6,2.4,2,2.4c1.4,0,1.9-1.2,1.9-2.4C-464.5,272.1-465.1,271-466.5,271
				z"/>
			<path class="st0" d="M-462.1,267.9h1v3.2h0c0.3-0.7,1.1-1,2-1c1.9,0,2.9,1.5,2.9,3.3c0,1.8-0.9,3.2-2.8,3.2c-0.6,0-1.5-0.2-2-1h0
				v0.8h-1V267.9z M-459.2,271c-1.4,0-1.9,1.2-1.9,2.3c0,1.2,0.6,2.4,2,2.4c1.4,0,1.9-1.2,1.9-2.4C-457.3,272.1-457.9,271-459.2,271
				z"/>
			<path class="st0" d="M-452.2,270.1c2,0,3,1.4,3,3.3c0,1.8-1,3.2-3,3.2c-2,0-3-1.4-3-3.2C-455.2,271.5-454.2,270.1-452.2,270.1z
				 M-452.2,275.7c1.1,0,1.9-0.8,1.9-2.3c0-1.5-0.9-2.3-1.9-2.3c-1.1,0-1.9,0.8-1.9,2.3C-454.2,274.8-453.3,275.7-452.2,275.7z"/>
			<path class="st0" d="M-447.9,270.2h1v1h0c0.4-0.8,1.1-1.1,2-1.1c1.6,0,2.1,0.9,2.1,2.3v4.1h-1v-4.2c0-0.8-0.5-1.2-1.3-1.2
				c-1.2,0-1.8,0.8-1.8,1.9v3.5h-1V270.2z"/>
		</g>
	</g>
	<g>
		<g>
			<path class="st0" d="M-356.5,274.5c0,0.9,0.8,1.2,1.7,1.2c0.6,0,1.5-0.1,1.5-0.9c0-0.8-1-0.9-2-1.2c-1-0.2-2-0.6-2-1.8
				c0-1.2,1.2-1.8,2.3-1.8c1.4,0,2.5,0.4,2.5,1.9h-1c-0.1-0.8-0.8-1-1.4-1c-0.6,0-1.3,0.2-1.3,0.8c0,0.7,1.1,0.9,2,1.1
				c1,0.2,2,0.6,2,1.8c0,1.5-1.4,2-2.6,2c-1.4,0-2.6-0.6-2.6-2.1H-356.5z"/>
			<path class="st0" d="M-351,270.2h1v1h0c0.4-0.8,1.1-1.1,2-1.1c1.6,0,2.1,0.9,2.1,2.3v4.1h-1v-4.2c0-0.8-0.5-1.2-1.3-1.2
				c-1.2,0-1.8,0.8-1.8,1.9v3.5h-1V270.2z"/>
			<path class="st0" d="M-341.5,270.1c2,0,3,1.4,3,3.3c0,1.8-1,3.2-3,3.2c-2,0-3-1.4-3-3.2C-344.5,271.5-343.5,270.1-341.5,270.1z
				 M-341.5,275.7c1.1,0,1.9-0.8,1.9-2.3c0-1.5-0.9-2.3-1.9-2.3c-1.1,0-1.9,0.8-1.9,2.3C-343.5,274.8-342.6,275.7-341.5,275.7z"/>
			<path class="st0" d="M-331.1,276.4h-1.1l-1.3-4.9h0l-1.2,4.9h-1.1l-2-6.2h1.1l1.4,5.1h0l1.2-5.1h1.1l1.3,5.1h0l1.4-5.1h1.1
				L-331.1,276.4z"/>
			<path class="st0" d="M-328,270.2h1v0.9h0c0.5-0.7,1.2-1.1,2-1.1c0.8,0,1.5,0.3,1.7,1.1c0.4-0.7,1.2-1.1,1.9-1.1
				c1.2,0,2.1,0.5,2.1,1.8v4.5h-1v-4.1c0-0.8-0.2-1.4-1.2-1.4c-1,0-1.6,0.6-1.6,1.6v3.9h-1v-4.1c0-0.8-0.3-1.4-1.2-1.4
				c-1.2,0-1.7,1.1-1.7,1.6v3.9h-1V270.2z"/>
			<path class="st0" d="M-312.1,276.4c-0.2,0.1-0.4,0.2-0.7,0.2c-0.5,0-0.9-0.3-0.9-1c-0.6,0.7-1.3,1-2.2,1c-1.1,0-2.1-0.5-2.1-1.7
				c0-1.4,1-1.7,2.1-1.9c1.1-0.2,2.1-0.1,2.1-0.9c0-0.9-0.7-1-1.4-1c-0.9,0-1.5,0.3-1.5,1.2h-1c0.1-1.5,1.2-2.1,2.6-2.1
				c1.1,0,2.3,0.3,2.3,1.7v3.2c0,0.5,0,0.7,0.3,0.7c0.1,0,0.2,0,0.3-0.1V276.4z M-313.8,273.2c-0.4,0.3-1.2,0.3-1.8,0.4
				c-0.7,0.1-1.2,0.4-1.2,1.1c0,0.7,0.6,0.9,1.2,0.9c1.3,0,1.9-0.8,1.9-1.4V273.2z"/>
			<path class="st0" d="M-311.1,270.2h1v1h0c0.4-0.8,1.1-1.1,2-1.1c1.6,0,2.1,0.9,2.1,2.3v4.1h-1v-4.2c0-0.8-0.5-1.2-1.3-1.2
				c-1.2,0-1.8,0.8-1.8,1.9v3.5h-1V270.2z"/>
		</g>
	</g>
	<g>
		<g>
			<path class="st0" d="M-212.4,274.5c0,0.9,0.8,1.2,1.7,1.2c0.6,0,1.5-0.1,1.5-0.9c0-0.8-1-0.9-2-1.2c-1-0.2-2-0.6-2-1.8
				c0-1.2,1.2-1.8,2.3-1.8c1.4,0,2.5,0.4,2.5,1.9h-1c-0.1-0.8-0.8-1-1.4-1c-0.6,0-1.3,0.2-1.3,0.8c0,0.7,1.1,0.9,2,1.1
				c1,0.2,2,0.6,2,1.8c0,1.5-1.4,2-2.6,2c-1.4,0-2.6-0.6-2.6-2.1H-212.4z"/>
			<path class="st0" d="M-205.5,270.2h1.2v0.9h-1.2v3.9c0,0.5,0.1,0.6,0.8,0.6h0.5v0.9h-0.8c-1.1,0-1.5-0.2-1.5-1.4v-3.9h-1.1v-0.9
				h1.1v-1.9h1V270.2z"/>
			<path class="st0" d="M-197.5,276.4c-0.2,0.1-0.4,0.2-0.7,0.2c-0.5,0-0.9-0.3-0.9-1c-0.6,0.7-1.3,1-2.2,1c-1.1,0-2.1-0.5-2.1-1.7
				c0-1.4,1-1.7,2.1-1.9c1.1-0.2,2.1-0.1,2.1-0.9c0-0.9-0.7-1-1.4-1c-0.9,0-1.5,0.3-1.5,1.2h-1c0.1-1.5,1.2-2.1,2.6-2.1
				c1.1,0,2.3,0.3,2.3,1.7v3.2c0,0.5,0,0.7,0.3,0.7c0.1,0,0.2,0,0.3-0.1V276.4z M-199.2,273.2c-0.4,0.3-1.2,0.3-1.8,0.4
				c-0.7,0.1-1.2,0.4-1.2,1.1c0,0.7,0.6,0.9,1.2,0.9c1.3,0,1.9-0.8,1.9-1.4V273.2z"/>
			<path class="st0" d="M-196.5,270.2h1v1.3h0c0.5-1,1.2-1.5,2.3-1.5v1.1c-1.6,0-2.2,0.9-2.2,2.5v2.8h-1V270.2z"/>
		</g>
	</g>
	<g>
		<g>
			<path class="st0" d="M-97.3,274.5c0,0.9,0.8,1.2,1.7,1.2c0.6,0,1.5-0.1,1.5-0.9c0-0.8-1-0.9-2-1.2c-1-0.2-2-0.6-2-1.8
				c0-1.2,1.2-1.8,2.3-1.8c1.4,0,2.5,0.4,2.5,1.9h-1c-0.1-0.8-0.8-1-1.4-1c-0.6,0-1.3,0.2-1.3,0.8c0,0.7,1.1,0.9,2,1.1
				c1,0.2,2,0.6,2,1.8c0,1.5-1.4,2-2.6,2c-1.4,0-2.6-0.6-2.6-2.1H-97.3z"/>
			<path class="st0" d="M-90.4,270.2h1.2v0.9h-1.2v3.9c0,0.5,0.1,0.6,0.8,0.6h0.5v0.9H-90c-1.1,0-1.5-0.2-1.5-1.4v-3.9h-1.1v-0.9
				h1.1v-1.9h1V270.2z"/>
			<path class="st0" d="M-85.3,270.1c2,0,3,1.4,3,3.3c0,1.8-1,3.2-3,3.2c-2,0-3-1.4-3-3.2C-88.3,271.5-87.2,270.1-85.3,270.1z
				 M-85.3,275.7c1.1,0,1.9-0.8,1.9-2.3c0-1.5-0.9-2.3-1.9-2.3c-1.1,0-1.9,0.8-1.9,2.3C-87.2,274.8-86.3,275.7-85.3,275.7z"/>
			<path class="st0" d="M-76.7,272.2c-0.2-0.8-0.7-1.2-1.5-1.2c-1.5,0-1.9,1.2-1.9,2.4c0,1.1,0.5,2.3,1.8,2.3c1,0,1.6-0.6,1.7-1.5h1
				c-0.2,1.5-1.2,2.4-2.7,2.4c-1.9,0-2.9-1.3-2.9-3.2c0-1.9,1-3.3,2.9-3.3c1.4,0,2.5,0.7,2.7,2.1H-76.7z"/>
			<path class="st0" d="M-74.3,267.9h1v5.1l2.8-2.7h1.4l-2.5,2.3l2.6,3.9h-1.3l-2.1-3.2l-1,0.9v2.4h-1V267.9z"/>
			<path class="st0" d="M-66.9,269.1h-1v-1.2h1V269.1z M-68,270.2h1v6.2h-1V270.2z"/>
			<path class="st0" d="M-65.2,270.2h1v1h0c0.4-0.8,1.1-1.1,2-1.1c1.6,0,2.1,0.9,2.1,2.3v4.1h-1v-4.2c0-0.8-0.5-1.2-1.3-1.2
				c-1.2,0-1.8,0.8-1.8,1.9v3.5h-1V270.2z"/>
			<path class="st0" d="M-53.1,275.9c0,2-0.9,3-2.9,3c-1.2,0-2.5-0.5-2.6-1.8h1c0,0.7,0.9,1,1.6,1c1.3,0,1.9-1,1.9-2.4v-0.4h0
				c-0.3,0.8-1.2,1.1-1.9,1.1c-1.8,0-2.8-1.5-2.8-3.1c0-1.5,0.7-3.3,2.9-3.3c0.8,0,1.5,0.3,1.8,1h0v-0.9h1V275.9z M-54.1,273.2
				c0-1.1-0.5-2.2-1.8-2.2c-1.3,0-1.8,1.1-1.8,2.3c0,1.1,0.4,2.4,1.8,2.4C-54.6,275.6-54.1,274.4-54.1,273.2z"/>
		</g>
	</g>
	<g>
		<g>
			<path class="st0" d="M44.2,270.2h1.2v0.9h-1.2v3.9c0,0.5,0.1,0.6,0.8,0.6h0.5v0.9h-0.8c-1.1,0-1.5-0.2-1.5-1.4v-3.9h-1.1v-0.9
				h1.1v-1.9h1V270.2z"/>
			<path class="st0" d="M46.7,270.2h1v1.3h0c0.5-1,1.2-1.5,2.3-1.5v1.1c-1.6,0-2.2,0.9-2.2,2.5v2.8h-1V270.2z"/>
			<path class="st0" d="M55.9,274.5c-0.3,1.4-1.3,2.1-2.7,2.1c-2,0-2.9-1.4-3-3.3c0-1.9,1.2-3.2,2.9-3.2c2.2,0,2.9,2.1,2.8,3.6h-4.6
				c0,1.1,0.6,2,1.9,2c0.8,0,1.4-0.4,1.6-1.2H55.9z M54.9,272.7c0-1-0.8-1.8-1.8-1.8c-1.1,0-1.7,0.8-1.8,1.8H54.9z"/>
			<path class="st0" d="M62.5,274.5c-0.3,1.4-1.3,2.1-2.7,2.1c-2,0-2.9-1.4-3-3.3c0-1.9,1.2-3.2,2.9-3.2c2.2,0,2.9,2.1,2.8,3.6h-4.6
				c0,1.1,0.6,2,1.9,2c0.8,0,1.4-0.4,1.6-1.2H62.5z M61.5,272.7c0-1-0.8-1.8-1.8-1.8c-1.1,0-1.7,0.8-1.8,1.8H61.5z"/>
		</g>
	</g>
</g>
<g id="icons">
	<g id="tree_2_">
		<path id="tree_3_" class="st1" d="M80.9,226.4c-0.1,0.1-6.4,13-19.6,13.4l-0.7,4.7c0,0.1,0,0.1,0,0.2c0,0.1-1.1,2.3-3.7,2.3H48
			c-2.6,0-3.6-2.2-3.7-2.3c0-0.1,0-0.1,0-0.2l-0.7-4.7c-13.2-0.3-19.5-13.2-19.6-13.4c-0.1-0.2-0.1-0.5,0.1-0.7
			c0.2-0.2,0.4-0.2,0.7-0.1c1.5,0.6,3,0.9,4.4,0.9c4.7,0,7.8-3.3,9.1-4.9c-5-0.8-8.6-6.8-8.8-7c-0.1-0.2-0.1-0.4,0-0.6
			c0.1-0.2,0.3-0.3,0.5-0.3c6,0,10.2-2.8,12-4.4c-6.6-0.6-7.9-4.9-8-5.1c0-0.2,0-0.4,0.1-0.5c0.1-0.1,0.3-0.2,0.5-0.2
			c9.1,0,17.2-17.3,17.2-17.4c0.2-0.4,0.9-0.4,1.1,0c0.1,0.2,8.1,17.4,17.2,17.4c0.2,0,0.4,0.1,0.5,0.2c0.1,0.1,0.1,0.3,0.1,0.5
			c-0.1,0.2-1.4,4.6-8,5.1c1.8,1.5,6.1,4.4,12,4.4c0.2,0,0.4,0.1,0.5,0.3c0.1,0.2,0.1,0.4,0,0.6c-0.2,0.3-3.7,6.2-8.8,7
			c1.2,1.6,4.4,4.9,9.1,4.9c1.4,0,2.9-0.3,4.4-0.9c0.2-0.1,0.5,0,0.7,0.1C80.9,225.9,81,226.2,80.9,226.4z"/>
		<path id="star_3_" class="st2" d="M49.5,178.8c0.3,0.3,0.5,0.8,0.4,1.2l-1,3.3c-0.1,0.4,0.1,0.5,0.4,0.3l2.5-2
			c0.3-0.3,0.9-0.3,1.2,0l2.5,2c0.3,0.3,0.5,0.1,0.4-0.3l-1-3.3c-0.1-0.4,0.1-1,0.4-1.2l2.6-2c0.3-0.3,0.3-0.5-0.2-0.5h-3.1
			c-0.4,0-0.9-0.3-1-0.8l-1-3.4c-0.1-0.4-0.3-0.4-0.5,0l-1,3.4c-0.1,0.4-0.6,0.8-1,0.8h-3.1c-0.4,0-0.5,0.2-0.2,0.5L49.5,178.8z"/>
	</g>
	<g id="stocking_2_">
		<path class="st3" d="M-69.7,195.6c-3.2-3.2-8.5-3.2-11.7,0l-14.1,14.1c-4.9,4.9-6.2,9.2-6.6,13.3c-0.4,4.1,1.7,10.2,4.8,13.6
			l1.9,2.1c3.1,3.3,9.7,7.9,12.6,8.1c2.9,0.1,6.9-4.3,7.3-7.1c0.5-2.7-2-6.2-2-8.5c0-2.2,2.6-6.7,5.8-9.9l8-8
			c3.2-3.2,3.2-8.5,0-11.7L-69.7,195.6z"/>
		<path class="st4" d="M-94.1,229.9c-0.2-0.1-0.3-0.2-0.5-0.3c-0.6-0.6-0.6-1.7,0-2.3c1.8-1.8,2.7-3.7,2.7-5.7c0-3.4-2.6-6-2.6-6.1
			c-0.6-0.6-0.7-1.7,0-2.3c0.6-0.6,1.7-0.7,2.3,0c0.1,0.1,3.6,3.6,3.6,8.4c0,2.9-1.2,5.6-3.7,8C-92.7,230-93.5,230.1-94.1,229.9z"/>
		<g id="top_1_">
			<path class="st4" d="M-54.4,214.6c-2.9,2.9-7.7,2.9-10.6,0l-17.7-17.7c-2.9-2.9-2.9-7.7,0-10.6l3.1-3.1c2.9-2.9,7.7-2.9,10.6,0
				l17.7,17.7c2.9,2.9,2.9,7.7,0,10.6L-54.4,214.6z"/>
			<ellipse class="st4" cx="-73.7" cy="177.9" rx="2.3" ry="4.5"/>
			<path class="st5" d="M-51.2,200.8l-17.7-17.7c-0.5-0.5-1.1-0.9-1.7-1.3c0.5-1.1,0.8-2.4,0.8-4c0-2.8-1.1-5.2-2.7-5.9
				c-0.4-0.2-0.8-0.3-1.2-0.3c-2.3,0-3.9,2.6-3.9,6.2c0,1.3,0.2,2.6,0.7,3.6c-0.9,0.4-1.8,0.9-2.6,1.7l-3.1,3.1
				c-2.9,2.9-2.9,7.7,0,10.6l17.7,17.7c0.6,0.6,1.4,1.1,2.1,1.5c2.8,1.3,6.2,0.8,8.5-1.5l3.1-3.1C-48.3,208.5-48.3,203.7-51.2,200.8
				z M-73.7,175.2c0.3,0.4,0.6,1.3,0.6,2.7c0,1.4-0.4,2.3-0.6,2.7c-0.3-0.4-0.6-1.3-0.6-2.7C-74.3,176.5-73.9,175.6-73.7,175.2z
				 M-53.6,209.1l-3.1,3.1c-1.2,1.2-3.1,1.6-4.7,0.8c-0.4-0.2-0.8-0.5-1.2-0.8l-17.7-17.7c-0.8-0.8-1.2-1.8-1.2-3
				c0-1.1,0.4-2.2,1.2-3l3.1-3.1c1.2-1.2,3.1-1.6,4.7-0.8c0.4,0.2,0.8,0.5,1.2,0.8l17.7,17.7c0.8,0.8,1.2,1.8,1.2,3
				C-52.3,207.2-52.8,208.3-53.6,209.1z"/>
		</g>
	</g>
	<path id="star_2_" class="st2" d="M-238.5,202.9l16.3,12.8c2.2,1.7,3.3,5.3,2.5,7.9l-6.1,20.7c-0.8,2.6,0.3,3.4,2.5,1.7l16-12.5
		c2.1-1.7,5.7-1.7,7.9,0l16.1,12.5c2.1,1.7,3.3,0.9,2.5-1.7l-6.3-20.8c-0.8-2.6,0.3-6.2,2.5-7.9l16.2-12.7c2.2-1.7,1.7-3.1-1.1-3.1
		h-19.7c-2.7,0-5.6-2.1-6.4-4.8l-6.4-21.2c-0.8-2.6-2.1-2.6-2.9,0l-6.3,21.2c-0.8,2.6-3.7,4.8-6.4,4.8h-19.8
		C-240.2,199.8-240.7,201.2-238.5,202.9z"/>
	<g id="snowman_1_">
		<path id="snowman_4_" class="st6" d="M-318.7,213.9c0.3,0.3,6.4,6.5,8.9,14.5c5.9-7.4-10.3-22.4-12.5-24.4c2-2.2,3.3-5.1,3.3-8.4
			c0-1.6-0.3-3.1-0.9-4.6c-0.8,0.9-2,1.5-3.4,1.5H-340c-1.3,0-2.3-0.5-3.1-1.3c-0.5,1.4-0.8,2.9-0.8,4.4c0,3.2,1.2,6.1,3.2,8.3
			c-1.7,1.4-18.3,15.7-12.6,24.3c2.6-7.9,8.5-13.9,8.8-14.3c0.5-0.5,1.2-0.5,1.7,0c0.5,0.5,0.5,1.2,0,1.7c-0.1,0.1-8.7,8.9-9.2,18.5
			c0,0.2,0,0.4,0,0.6c0,0.3,0,0.7,0,1c0.2,4.9,2.7,11.2,14.3,11.2h4.6h3.3h4.6c11.4,0,14-6.1,14.2-10.9c0-0.5,0-0.9,0-1.4
			c0-0.1,0-0.2,0-0.4c-0.5-9.7-9.2-18.5-9.2-18.6c-0.5-0.5-0.5-1.2,0-1.7C-319.9,213.4-319.2,213.4-318.7,213.9z M-337.8,197.5
			c-1,0-1.8-0.8-1.8-1.8c0-1,0.8-1.8,1.8-1.8c1,0,1.8,0.8,1.8,1.8C-336,196.7-336.8,197.5-337.8,197.5z M-331.7,197.3
			c1.3,0,2.4,1.1,2.4,2.4c0,0.4-0.1,0.8-0.3,1.1l0,0l-2.1,3.6l-2.1-3.6l0,0c-0.2-0.3-0.3-0.7-0.3-1.1
			C-334.1,198.4-333,197.3-331.7,197.3z M-331.5,236.7c-1.3,0-2.4-1.1-2.4-2.4c0-1.3,1.1-2.4,2.4-2.4c1.3,0,2.4,1.1,2.4,2.4
			C-329.1,235.6-330.2,236.7-331.5,236.7z M-331.5,225.6c-1.3,0-2.4-1.1-2.4-2.4c0-1.3,1.1-2.4,2.4-2.4c1.3,0,2.4,1.1,2.4,2.4
			C-329.1,224.6-330.2,225.6-331.5,225.6z M-331.5,214.6c-1.3,0-2.4-1.1-2.4-2.4c0-1.3,1.1-2.4,2.4-2.4c1.3,0,2.4,1.1,2.4,2.4
			C-329.1,213.5-330.2,214.6-331.5,214.6z M-325.3,197.5c-1,0-1.8-0.8-1.8-1.8c0-1,0.8-1.8,1.8-1.8c1,0,1.8,0.8,1.8,1.8
			C-323.5,196.7-324.3,197.5-325.3,197.5z"/>
		<g id="hat_5_">
			<g>
				<path class="st4" d="M-315.4,185.4c-1.6,0-2.9,1-3.3,2.4c0-2.6-2-4.8-4.6-4.8H-340c-2.6,0-4.4,2.1-4.4,4.8
					c0,2.6,1.7,4.8,4.4,4.8h16.6c2.2,0,3.9-1.5,4.4-3.5c0.1,1.9,1.6,3.4,3.5,3.4c2,0,3.6-1.6,3.6-3.6
					C-311.8,187-313.4,185.4-315.4,185.4z"/>
				<path class="st5" d="M-315.4,185.3c-1.5,0-2.8,0.9-3.3,2.3c-0.1-2.5-2.1-4.6-4.6-4.6H-340c-2.6,0-4.4,2.1-4.4,4.8
					c0,2.6,1.7,4.8,4.4,4.8h16.7c2.1,0,3.8-1.4,4.4-3.3c0.2,1.8,1.7,3.3,3.6,3.3c2,0,3.6-1.6,3.6-3.6
					C-311.8,187-313.4,185.3-315.4,185.3z M-323.3,191.5H-340c-1.9,0-3.3-1.5-3.3-3.7c0-2.2,1.3-3.7,3.3-3.7h16.7
					c2,0,3.5,1.6,3.5,3.7C-319.8,189.9-321.4,191.5-323.3,191.5z M-315.4,191.3c-1.3,0-2.4-1.1-2.4-2.4c0-1.3,1.1-2.4,2.4-2.4
					c1.3,0,2.4,1.1,2.4,2.4C-313,190.3-314.1,191.3-315.4,191.3z"/>
			</g>
			<path class="st3" d="M-344.4,187.8c0-0.1,0-0.1,0-0.2C-344.3,187.7-344.4,187.7-344.4,187.8
				C-344.4,187.8-344.4,187.8-344.4,187.8z M-317.4,186c-3.7-5.1-11.6-15-16.4-14.1c-4.5,0.9-6,7.2-6.5,11.1c-0.1,0-0.2,0-0.2,0.1
				c0.2,0,0.4-0.1,0.6-0.1h16.7c2.6,0,4.5,2,4.6,4.6C-318.5,187-318,186.4-317.4,186z"/>
		</g>
	</g>
	<path id="ribbon_3_" class="st3" d="M-422,180.8c0-0.4,0-0.8,0-1.2c0-5.2-11.1-16.9-37.5,5.8c-26.4-22.8-37.5-11-37.5-5.8
		c0,0.4,0,0.8,0,1.2c-0.1-0.4-0.1-0.8-0.1-1.2v24.8c0,8.4,10.2,9.7,20,8.9l-12.2,26.1c-0.5,1.1,0,1.7,1.2,1.3l5.8-2.1
		c1.2-0.4,2.5,0.2,2.9,1.3l2.1,5.8c0.4,1.2,1.2,1.2,1.7,0.1l15.9-34.2l12.5,34.4c0.4,1.2,1.2,1.2,1.7,0.1l2.6-5.5
		c0.5-1.1,1.9-1.6,3-1.1l5.5,2.6c1.1,0.5,1.7,0,1.3-1.2l-10.1-27.7c10.1,1,21.2,0,21.2-8.8v-24.8C-421.9,180-422,180.4-422,180.8z
		 M-491.1,180c4.5-8.3,24.2,7,24.2,7S-495.4,188-491.1,180z M-459.5,208.1c-4.2,0-7.5-3.4-7.5-7.5s3.4-7.5,7.5-7.5
		c4.2,0,7.5,3.4,7.5,7.5S-455.4,208.1-459.5,208.1z M-452.2,187c0,0,19.7-15.3,24.2-7C-423.6,188-452.2,187-452.2,187z"/>
	<g id="Reef_1_">
		<path class="st1" d="M81.1,40.5c0-15.8-12.8-28.6-28.6-28.6S23.9,24.7,23.9,40.5c0,7.6,3,14.6,7.9,19.7v-5.3h0v0
			c0-1.6,0.8-3.2,2.2-4.5c0.9-0.8,2.4-1.7,4.5-2c-1.4-2.4-2.1-5.1-2.1-8c0-8.9,7.2-16.1,16.1-16.1c8.9,0,16.1,7.2,16.1,16.1
			c0,2.9-0.8,5.6-2.1,8c4.2,0.5,6.7,3.6,6.7,6.4v0h0v5.3C78.1,55,81.1,48.1,81.1,40.5z M31.7,41.9c-0.5,2.1-2.7,2.1-3.2,0
			c-2.1-0.5-2.1-2.7,0-3.2c0.5-2.1,2.7-2.1,3.2,0C33.9,39.2,33.9,41.4,31.7,41.9z M37,27.7c-0.5,2.1-2.7,2.1-3.2,0
			c-2.1-0.5-2.1-2.7,0-3.2c0.5-2.2,2.7-2.1,3.2,0C39.2,24.9,39.2,27.1,37,27.7z M54.1,19.7c-0.5,2.1-2.7,2.1-3.2,0
			c-2.1-0.5-2.1-2.7,0-3.2c0.5-2.1,2.7-2.1,3.2,0C56.2,17,56.2,19.2,54.1,19.7z M71.1,27.7c-0.5,2.1-2.7,2.1-3.2,0
			c-2.1-0.5-2.1-2.7,0-3.2c0.5-2.2,2.7-2.1,3.2,0C73.3,24.9,73.3,27.1,71.1,27.7z M73.2,42.1c-2.1-0.5-2.1-2.7,0-3.2
			c0.5-2.2,2.7-2.1,3.2,0c2.1,0.5,2.1,2.7,0,3.2C75.9,44.2,73.7,44.2,73.2,42.1z"/>
		<path class="st3" d="M70.3,55.5c0-0.2,0-0.4,0-0.6c0-0.1,0-0.2,0-0.3c0,0,0-0.1,0-0.1c0-0.1,0-0.1,0-0.2c0,0,0-0.1,0-0.1
			c0-0.1,0-0.1-0.1-0.2c0,0,0-0.1,0-0.1c0-0.1,0-0.1-0.1-0.2c0,0,0-0.1-0.1-0.1c0-0.1-0.1-0.1-0.1-0.2c0,0,0-0.1-0.1-0.1
			c0-0.1-0.1-0.1-0.1-0.2c0,0-0.1-0.1-0.1-0.1c0-0.1-0.1-0.1-0.1-0.2c0,0-0.1-0.1-0.1-0.1c-0.1-0.1-0.1-0.1-0.2-0.2
			c0,0-0.1-0.1-0.1-0.1c-0.1-0.1-0.2-0.1-0.2-0.2c0,0-0.1,0-0.1-0.1c-0.2-0.2-0.5-0.3-0.8-0.5c0,0-0.1,0-0.1,0
			c-0.1,0-0.2-0.1-0.3-0.1c-0.1,0-0.1,0-0.2-0.1c-0.1,0-0.2-0.1-0.3-0.1c-0.1,0-0.1,0-0.2-0.1c-0.1,0-0.2,0-0.3-0.1
			c-0.1,0-0.2,0-0.2,0c-0.1,0-0.2,0-0.3,0c-0.1,0-0.2,0-0.3,0c-0.1,0-0.2,0-0.3,0c-0.1,0-0.1,0-0.2,0c0,0-0.1,0-0.1,0
			c-2.7,0-6.6,1.4-11.7,5.7c-0.3,0.2-0.6,0.5-0.9,0.7c-0.3-0.3-0.6-0.5-0.9-0.7c-5.2-4.2-9-5.6-11.7-5.7c0,0-0.1,0-0.1,0
			c-0.1,0-0.1,0-0.2,0c-0.1,0-0.2,0-0.3,0c-0.1,0-0.2,0-0.3,0c-0.1,0-0.2,0-0.3,0c-0.1,0-0.2,0-0.2,0c-0.1,0-0.2,0-0.3,0.1
			c-0.1,0-0.1,0-0.2,0.1c-0.1,0-0.2,0.1-0.3,0.1c-0.1,0-0.1,0-0.2,0.1c-0.1,0-0.2,0.1-0.3,0.1c0,0-0.1,0-0.1,0.1
			c-0.1,0.1-0.3,0.1-0.4,0.2c0,0,0,0,0,0c-0.1,0.1-0.2,0.1-0.3,0.2c0,0-0.1,0.1-0.1,0.1c-0.1,0.1-0.1,0.1-0.2,0.2
			c0,0-0.1,0.1-0.1,0.1c-0.1,0.1-0.1,0.1-0.2,0.2c0,0-0.1,0.1-0.1,0.1c0,0.1-0.1,0.1-0.1,0.2c0,0-0.1,0.1-0.1,0.1
			c0,0.1-0.1,0.1-0.1,0.2c0,0-0.1,0.1-0.1,0.1c0,0.1-0.1,0.1-0.1,0.2c0,0,0,0.1-0.1,0.1c0,0.1-0.1,0.1-0.1,0.2c0,0,0,0.1,0,0.1
			c0,0.1,0,0.1-0.1,0.2c0,0,0,0.1,0,0.1c0,0.1,0,0.1,0,0.2c0,0,0,0.1,0,0.1c0,0.1,0,0.2,0,0.3c0,0.2,0,0.4,0,0.6c0-0.2,0-0.4,0-0.6
			v7.9v3.9c0,4,4.9,4.6,9.5,4.2l-5.8,12.4c-0.2,0.5,0,0.8,0.6,0.6l2.7-1c0.6-0.2,1.2,0.1,1.4,0.6l1,2.7c0.2,0.6,0.6,0.6,0.8,0
			l7.6-16.2l6,16.3c0.2,0.6,0.6,0.6,0.8,0l1.2-2.6c0.2-0.5,0.9-0.8,1.4-0.5l2.6,1.2c0.5,0.2,0.8,0,0.6-0.6l-4.8-13.2
			c4.8,0.5,10.1,0,10.1-4.2v-3.9v-7.9C70.3,55.1,70.3,55.3,70.3,55.5z M37.5,55.1c2.2-3.9,11.5,3.3,11.5,3.3S35.4,58.9,37.5,55.1z
			 M52.5,68.4c-2,0-3.6-1.6-3.6-3.6c0-2,1.6-3.6,3.6-3.6c2,0,3.6,1.6,3.6,3.6C56,66.8,54.4,68.4,52.5,68.4z M55.9,58.4
			c0,0,9.4-7.3,11.5-3.3C69.5,58.9,55.9,58.4,55.9,58.4z"/>
	</g>
	<g id="pudding_1_">
		<path id="pudding_3_" class="st7" d="M-76.4,30.9c-16.9,0-30.6,16.3-30.6,33.2v12.5c0,0,0.4,10.2,30.8,10.2
			c30.4,0,30.4-10.2,30.4-10.2V64.1C-45.8,47.2-59.5,30.9-76.4,30.9z"/>
		<path id="icing_1_" class="st4" d="M-76.4,36.1c-11.6,0-22.4,10.2-24.8,22.6l0.1,0.4c0.4,3.2,1.9,5.8,3.3,5.8c1.4,0,2.8-2.4,3-5.3
			c0.3-2.9,1.1-5.3,1.9-5.4c0.7-0.1,1.5,2.5,1.8,5.7l0.7,9.2c0.2,3.2,1.8,5.8,3.6,5.8c1.7,0,3.4-2.6,3.7-5.8l1.2-12.5
			c0.3-3.2,1.7-6,3.1-6.3c1.4-0.2,3,2.2,3.4,5.4l1.4,10.2c0.4,3.2,2.2,5.8,3.9,5.7c1.7-0.1,3.6-2.7,4.1-5.9l0.3-1.9
			c0.5-3.2,2.4-5.8,4.2-5.8c1.8,0,3.7,2.4,4.3,5.4c0.6,3,2.1,5.4,3.4,5.4c1.2,0,2.5-2.6,2.8-5.8l0.1-1
			C-52.2,48.3-63.7,36.1-76.4,36.1z"/>
		<g id="leaves_3_">
			<g>
				<path class="st1" d="M-79.4,32.5c-1.9-4,0.1-10,0.1-10.1c0.1-0.3,0.1-0.7-0.1-0.9c-0.2-0.3-0.5-0.5-0.8-0.5
					c-0.9-0.1-3.4-0.6-4.5-1.7c-1.1-1.1-1.5-3.5-1.6-4.3c0-0.3-0.2-0.6-0.5-0.8c-0.3-0.2-0.6-0.2-0.9-0.1c-0.1,0-8.1,2.6-11.7-1
					c-0.4-0.4-1.1-0.4-1.5,0c-0.4,0.4-0.4,1.1,0,1.5c3.6,3.6,1,11.6,1,11.7c-0.1,0.3-0.1,0.7,0.1,0.9c0.2,0.3,0.5,0.5,0.8,0.5
					c0.9,0.1,3.3,0.5,4.4,1.6c1.1,1.1,1.6,3.6,1.7,4.5c0,0.3,0.2,0.6,0.5,0.8c0.3,0.2,0.6,0.2,0.9,0.1c0.1,0,5.6-1.8,9.5-0.3
					L-79.4,32.5z"/>
				<path class="st1" d="M-67.1,29.7c-0.2-0.7-0.5-2.7,0.1-3.8c0.5-1.1,2.2-2.1,2.8-2.3c0.2-0.1,0.4-0.3,0.5-0.6
					c0.1-0.3,0-0.5-0.2-0.7c0-0.1-4.1-5.3-2.4-9c0.2-0.4,0-0.9-0.4-1.2c-0.4-0.2-0.9,0-1.2,0.4c-1.7,3.7-8.4,3.9-8.5,3.9
					c-0.3,0-0.5,0.1-0.7,0.3c-0.2,0.2-0.2,0.5-0.1,0.7c0.2,0.7,0.5,2.6,0,3.7c-0.5,1.1-2.3,2.2-2.9,2.5c-0.2,0.1-0.4,0.3-0.5,0.6
					c-0.1,0.3,0,0.5,0.2,0.7c0,0,2.8,3.7,2.8,7c0.2-0.6,2.5,0.7,2.2,1.3c0,0.1-0.1,0.1-0.1,0.2c2.5-2.5,7.5-2.7,7.6-2.7
					c0.3,0,0.5-0.1,0.7-0.3C-67.1,30.2-67,29.9-67.1,29.7z"/>
			</g>
		</g>
		<g id="berries_3_">
			<g>
				<circle class="st4" cx="-73.6" cy="29.9" r="2.6"/>
				<path class="st3" d="M-73.6,27.3c1.4,0,2.6,1.2,2.6,2.6c0,1.4-1.2,2.6-2.6,2.6s-2.6-1.2-2.6-2.6C-76.3,28.5-75.1,27.3-73.6,27.3
					 M-73.6,22.1c-4.3,0-7.9,3.5-7.9,7.9c0,4.3,3.5,7.9,7.9,7.9c4.3,0,7.9-3.5,7.9-7.9C-65.8,25.6-69.3,22.1-73.6,22.1L-73.6,22.1z"
					/>
			</g>
			<g>
				<circle class="st4" cx="-81.9" cy="33.4" r="2.6"/>
				<path class="st3" d="M-81.9,30.8c1.4,0,2.6,1.2,2.6,2.6c0,1.4-1.2,2.6-2.6,2.6c-1.4,0-2.6-1.2-2.6-2.6
					C-84.5,31.9-83.3,30.8-81.9,30.8 M-81.9,25.5c-4.3,0-7.9,3.5-7.9,7.9c0,4.3,3.5,7.9,7.9,7.9s7.9-3.5,7.9-7.9
					C-74,29.1-77.5,25.5-81.9,25.5L-81.9,25.5z"/>
			</g>
		</g>
	</g>
	<g id="nutcracker_2_">
		<g id="face_3_">
			<g id="head_3_">
				<path class="st4" d="M-186,57.8h-35.3c-1.4,2.8-2.3,5.9-2.3,9.2c0,11,8.9,19.9,19.9,19.9c11,0,19.9-8.9,19.9-19.9
					C-183.7,63.7-184.5,60.6-186,57.8z"/>
				<path class="st8" d="M-186,57.8h-3.1c1.7,2.7,2.7,5.8,2.7,9.2c0,9.5-7.8,17.3-17.3,17.3c-9.5,0-17.3-7.7-17.3-17.3
					c0-3.4,1-6.5,2.7-9.2h-3.1c-1.4,2.8-2.3,5.9-2.3,9.2c0,11,8.9,19.9,19.9,19.9c11,0,19.9-8.9,19.9-19.9
					C-183.7,63.7-184.5,60.6-186,57.8z"/>
			</g>
			<polygon id="nose_3_" class="st8" points="-201.6,71 -205.6,71 -204.3,57.4 -202.9,57.4 			"/>
			<g id="eyes_3_">
				<g>
					<g>
						<circle class="st9" cx="-213.5" cy="62.6" r="2.5"/>
						<circle class="st9" cx="-193.4" cy="62.6" r="2.5"/>
					</g>
				</g>
			</g>
			<path id="tash_1_" class="st10" d="M-198,67.1c-3.8,0-5.5,3.3-5.5,3.3s-1.7-3.3-5.5-3.3c-3.8,0-12.6,11.3-22.4,1.5
				c0,0,1.6,11,20.7,11c0,0,5.3-0.5,7.2-2.3c1.9,1.9,7.2,2.3,7.2,2.3c19.1,0,20.7-11,20.7-11C-185.4,78.4-194.3,67.1-198,67.1z"/>
		</g>
		<g id="hat_4_">
			<path class="st3" d="M-203.6,47.7l-14.3,1.6V34.1l14.3,10.2l14.3-10.2v15.1L-203.6,47.7z M-203.6,50.3l-18.2,2v5.5h36.3v-5.5
				L-203.6,50.3z M-203.6,37.4l14.3-10.2v-4.4c0,0-3.7-2.2-14.2-2.2c-10.5,0-14.4,2.2-14.4,2.2v4.4L-203.6,37.4z"/>
			<circle class="st2" cx="-203.6" cy="15.3" r="3.3"/>
		</g>
	</g>
	<g id="holy_1_">
		<path id="leaves_2_" class="st1" d="M-299.1,56.2c-0.1,0.1-7.7,9.3-4.8,16c0.3,0.8,0,1.7-0.8,2c-0.8,0.3-1.7,0-2-0.8
			c-2.9-6.7-14.8-7.5-14.9-7.5c-0.5,0-0.9-0.3-1.2-0.7c-0.3-0.4-0.3-0.9-0.2-1.3c0.1-0.4,0.3-0.9,0.4-1.6c0.1-0.1,0.2-0.1,0.3-0.2
			c1.7-0.9,3-2.4,3.4-4.3c0.4-1.9,0-3.8-1.2-5.3c-1-1.3-3.1-4.5-4.5-7.9c0.2-0.4,0.4-0.8,0.5-1.2c1,0.3,2,0.5,3.1,0.5
			c3.6,0,6.7-1.8,8.5-4.5c3.5,1.1,6.7,1.4,6.8,1.4c0.5,0,0.9,0.3,1.2,0.6c0.3,0.4,0.4,0.9,0.2,1.3c-0.3,1.2-1,4.8-0.1,6.8
			c0.9,2,3.9,3.9,4.9,4.5c0.4,0.2,0.7,0.6,0.8,1.1C-298.7,55.4-298.8,55.8-299.1,56.2z M-323.5,55.1c0-0.1-2-2.6-3.8-6.1v0
			c-1.5-2.8-2.8-6.4-3.1-9.8c-0.3,0.3-0.6,0.5-0.9,0.7c-0.4,0.7-0.7,1.5-1.2,2.2c-0.9,1.5-1.9,3-2.7,4.5c-1.7,3-3.4,6.1-5.2,9
			c-1.8,3-3.6,6-5.5,8.9c-0.2,0.3-0.4,0.4-0.5,0.2c-0.1-0.1-0.1-0.3,0-0.5c1-3.3,2.2-6.7,3.3-10c1.1-3.3,2.3-6.6,3.6-9.8
			c0.3-0.9,0.6-1.8,0.9-2.7c-2.1-0.3-4.1-1.2-5.6-2.6c-5,1.5-9.7,1.7-9.8,1.7c-0.6,0-1.2,0.3-1.6,0.8c-0.4,0.5-0.5,1.2-0.4,1.8
			c0.4,1.6,1.1,6.6-0.2,9.4c-1.3,2.8-5.4,5.1-6.8,5.8c-0.6,0.3-1,0.8-1.2,1.4c-0.2,0.6,0,1.3,0.4,1.8c0.1,0.1,10.2,13.1,5.9,22.1
			c-0.5,1.1,0,2.3,1,2.8c1.1,0.5,2.3,0,2.8-1c4.2-9,20.6-9.7,20.8-9.7c0.6,0,1.2-0.3,1.6-0.8c0.4-0.5,0.5-1.2,0.4-1.8
			c-0.4-1.6-1.2-6.4,0.1-9.1c1.3-2.7,5.5-5.3,7-6.1c0.6-0.3,1-0.8,1.1-1.4C-323,56.2-323.1,55.6-323.5,55.1z"/>
		<g id="berries_2_">
			<g>
				<path class="st3" d="M-326.8,33.5c0,2.5,1.6,4.6,3.8,5.4l0,0c0,0,0,0,0,0c0.3,0.1,0.6,0.2,0.9,0.2c0.3,0.1,0.7,0.1,1,0.1
					c0.4,0,0.7,0,1.1-0.1c0,0,0.1,0,0.1,0c0.3-0.1,0.6-0.2,0.9-0.3c0.1,0,0.2-0.1,0.3-0.1c0.2-0.1,0.4-0.2,0.6-0.3
					c0.5-0.3,0.9-0.6,1.3-1.1c0,0,0,0,0,0v0c0.9-1,1.5-2.3,1.5-3.8c0-3.2-2.6-5.7-5.7-5.7S-326.8,30.3-326.8,33.5z"/>
				<path class="st3" d="M-338.3,37.1c0.3,0.1,0.6,0.1,0.9,0.1c0.1,0,0.2,0,0.3,0l0,0c3-0.2,5.4-2.6,5.4-5.7c0-3.2-2.6-5.7-5.7-5.7
					c-3.2,0-5.7,2.6-5.7,5.7C-343.1,34.3-341,36.7-338.3,37.1z"/>
				<circle class="st3" cx="-327.1" cy="17.7" r="5.7"/>
			</g>
		</g>
	</g>
	<path id="gingerbread_man_1_" class="st10" d="M-442.5,38.6c0-0.7,0.1-1.4,0.2-2c5.1-1.9,8,1.3,8,1.3c3.5,3.5,2.4,6.9-0.3,9.7
		C-439,46.9-442.5,43.2-442.5,38.6z M-447,83.9c3.2,3.1,7.2,4.8,11.5,0.5c2.7-2.7,2.4-6,0.9-9.2c-0.7-0.1-1.4-0.2-2.1-0.2
		C-442,75-446.4,78.9-447,83.9z M-474.1,26.5c0-8,6.5-14.5,14.5-14.5c8,0,14.5,6.5,14.5,14.5c0,5.8-3.4,10.8-8.4,13.1
		c-0.3-0.3-0.7-0.3-1.1-0.2l-1.4,0.5c-0.8,0.3-2.1,0.5-3,0.5h-1.3c-0.8,0-2.2-0.2-3-0.5l-1.4-0.5c-0.4-0.2-0.8-0.1-1.1,0.2
		C-470.6,37.4-474.1,32.3-474.1,26.5z M-456.4,23.1c0,0.2,0,0.4,0.1,0.6c0,0.2,0.2,0.3,0.4,0.3c0,0,0,0,0,0c0.2,0,0.4-0.1,0.4-0.3
		c0.2-1.3,1.3-2.2,2.6-2.2c1.3,0,2.4,0.9,2.6,2.2c0,0.2,0.2,0.3,0.4,0.3c0,0,0,0,0,0c0.2,0,0.4-0.1,0.4-0.3c0-0.2,0.1-0.4,0.1-0.6
		c0-1.9-1.6-3.5-3.5-3.5C-454.8,19.6-456.4,21.2-456.4,23.1z M-459.5,28.4c-4.6,0-8.4-0.5-8.4,1.6c0,2.1,3.8,6,8.4,6
		c4.6,0,8.4-3.9,8.4-6C-451.1,27.8-454.9,28.4-459.5,28.4z M-469.7,23.1c0,0.2,0,0.4,0.1,0.6c0,0.2,0.2,0.3,0.4,0.3c0,0,0,0,0,0
		c0.2,0,0.4-0.1,0.4-0.3c0.2-1.3,1.3-2.2,2.6-2.2c1.3,0,2.4,0.9,2.6,2.2c0,0.2,0.2,0.3,0.4,0.3c0,0,0,0,0,0c0.2,0,0.4-0.1,0.4-0.3
		c0-0.2,0.1-0.4,0.1-0.6c0-1.9-1.6-3.5-3.5-3.5C-468.1,19.6-469.7,21.2-469.7,23.1z M-474.6,38.6c0,5-3.4,9.3-8.1,10.5
		c4.3,3.4,10.2,5.7,10.2,5.7l0.1,7.5c0,0-0.8,0.6-2.1,1.6c2,1.6,4.7,3.1,6.9,2.2c2.5-1,5.3-5.5,5-20.9c-0.2,0-0.4,0.1-0.5,0.2
		l-1.4,0.5c-0.8,0.3-1.4-0.2-1.4-1V42c-3-1.4-6.2-3-8.2-4.2c-0.1-0.1-0.3-0.2-0.4-0.3C-474.7,37.9-474.6,38.2-474.6,38.6z
		 M-436.8,72.8c0.3,0,0.5,0,0.8,0c-1.8-2.7-4.3-5.2-6.4-7.1c-1.7,1.3-4,2.6-6.3,2.6c-0.7,0-1.4-0.1-2.1-0.4
		c-4.5-1.8-6.5-9.3-6.2-22.8c-0.7-0.1-1.4-0.2-1.9-0.2h-0.5c-0.1,0-0.1,0-0.1,0s0,0-0.1,0h-0.5c-0.2,0-0.4,0-0.6,0
		c0.3,13.6-1.7,21.2-6.2,23c-0.7,0.3-1.4,0.4-2.1,0.4c-2.6,0-5.3-1.7-7-3.1c-2.2,1.9-5,4.7-7,7.7c0,0,0.1,0,0.1,0
		c6,0,11,4.2,12.3,9.8c2.3-2.5,4.2-5.5,5.4-6.7c3.1-3.1,5.7-2.7,5.7-2.7s2.6-0.4,5.7,2.7c1.1,1.1,2.8,3.7,4.9,6.1
		C-447.4,76.7-442.6,72.8-436.8,72.8z M-482.9,75c-0.5,0-1,0-1.4,0.1c-1.6,3.3-1.9,6.6,0.8,9.3c4.1,4.1,7.8,2.8,10.9,0.1
		C-473.1,79.2-477.5,75-482.9,75z M-453,44.8c0,0.8-0.6,1.3-1.4,1l-0.6-0.2c-0.3,15,2.6,19.4,5,20.4c1.9,0.8,4.3-0.3,6.2-1.7
		c-1.6-1.3-2.7-2.2-2.7-2.2l0.1-7.5c0,0,5.9-2.2,10.2-5.7c-4.7-1.2-8.1-5.5-8.1-10.5c0-0.3,0-0.7,0.1-1c-0.1,0.1-0.3,0.2-0.4,0.3
		c-2,1.3-5.3,2.9-8.2,4.2V44.8z M-484.8,37.8c-3.5,3.5-2.4,6.9,0.3,9.7c4.5-0.5,7.9-4.3,7.9-8.9c0-0.7-0.1-1.4-0.2-2
		C-481.8,34.7-484.8,37.8-484.8,37.8z"/>
	<g id="gift_2_">
		<path id="gift_3_" class="st3" d="M48.1-119H25.2v-10.9h22.9V-119z M56.8-73.1h18c0.9,0,1.6-0.7,1.6-1.6v-39.8H56.8V-73.1z
			 M56.8-129.9v10.9h22.9v-10.9H56.8z M48.1-114.6H28.5v39.8c0,0.9,0.7,1.6,1.6,1.6h18V-114.6z"/>
		<polygon id="ribbon_1_" class="st2" points="66.1,-134.2 72.3,-140.4 64.6,-140.4 64.6,-148.1 52.5,-136 40.4,-148.1 40.4,-140.4 
			32.7,-140.4 38.8,-134.2 		"/>
	</g>
	<g id="fairylight_1_">
		<g>
			<path class="st7" d="M-69.3-82.7v4.2c0,0.6-0.5,1-1,1h-10.5c-0.6,0-1-0.5-1-1v-4.2c0-0.6,0.5-1,1-1h10.5
				C-69.7-83.7-69.3-83.2-69.3-82.7z"/>
			<path class="st7" d="M-71.5-76.3h-8.1c-0.4,0-0.6,0.3-0.6,0.6v1.9c0,0.4,0.3,0.6,0.6,0.6h8.1c0.4,0,0.6-0.3,0.6-0.6v-1.9
				C-70.8-76-71.1-76.3-71.5-76.3z"/>
		</g>
		<g id="bulb_1_">
			<path class="st4" d="M-74.3-124.8c0.4,0.5,9.1,11.5,9.1,22.6c0,6.7-2.4,9.2-4.4,11.1c-1.3,1.4-2.2,2.3-2.2,4.5v1.6h-7.3v-1.6
				c0-2.2-0.9-3.1-2.2-4.5c-2-2-4.4-4.5-4.4-11.1c0-11.1,8.7-22.1,9.1-22.6l1.2-1.5L-74.3-124.8z"/>
			<path class="st2" d="M-74.3-124.8l-1.2-1.5l-1.2,1.5c-0.4,0.5-9.1,11.5-9.1,22.6c0,6.7,2.4,9.2,4.4,11.1c1.3,1.4,2.2,2.3,2.2,4.5
				v1.6h7.3v-1.6c0-2.2,0.9-3.1,2.2-4.5c2-2,4.4-4.5,4.4-11.1C-65.2-113.4-73.9-124.4-74.3-124.8z M-71.9-93.3
				c-1.2,1.3-2.6,2.6-3,5.1h-1.3c-0.4-2.4-1.8-3.8-3-5.1c-1.7-1.7-3.5-3.6-3.5-8.9c0-7.6,4.8-15.6,7.2-19c2.3,3.4,7.1,11.3,7.1,19
				C-68.4-96.8-70.2-95-71.9-93.3z"/>
		</g>
		<g id="shine_1_">
			<g>
				<path class="st2" d="M-75.6-129.9c1.2,0,2.2-11.9,2.2-14.1c0-2.2,0-4.1-2.1-4.1c-2.2,0-2.2,1.8-2.2,4.1
					C-77.7-141.8-76.8-129.9-75.6-129.9z"/>
				<path class="st2" d="M-56.3-137.6c-1.2-1.1-2.1-0.1-3.2,1.1c-1.1,1.2-6.6,8.2-6,8.8c0.7,0.6,7.2-5.4,8.3-6.6
					C-56-135.6-55.1-136.5-56.3-137.6z"/>
				<path class="st2" d="M-85.4-127.8c0.6-0.6-5-7.5-6.2-8.7c-1.2-1.2-2.1-2.2-3.3-1.1c-1.2,1.1-0.2,2.1,0.9,3.3
					C-92.7-133.1-86-127.2-85.4-127.8z"/>
			</g>
		</g>
	</g>
	<g id="elf_1_">
		<g id="face_2_">
			<g id="ears_1_">
				<g>
					<path class="st4" d="M-179-104.3c1,2.8,1.6,5.8,1.6,8.9c0.3-0.3,0.5-0.7,0.8-1.2c2.1-3.9,3-9.1,3-9.1S-176.3-105.2-179-104.3z"
						/>
					<path class="st4" d="M-228.5-95.3c0-2.9,0.5-5.7,1.4-8.3c-3.1-1.3-7-2-7-2s0.9,5.2,3,9.1c0.9,1.6,1.7,2.2,2.6,2.2
						C-228.4-94.7-228.5-95-228.5-95.3z"/>
				</g>
				<g>
					<path class="st1" d="M-173.8-107.2c-1.1,0.2-3.4,0.7-5.8,1.5c0.4,0.9,0.8,1.9,1.1,2.8c0.9-0.3,1.9-0.6,3-0.9
						c-0.4,1.6-1.1,3.7-2,5.7c0.1,0.9,0.2,1.8,0.2,2.7c0,0.7-0.1,1.3-0.1,2c1.2-0.7,2-2,2.3-2.6c2.2-4.1,3.1-9.3,3.2-9.6l0.4-2.1
						L-173.8-107.2z"/>
					<path class="st1" d="M-228.5-95.3c0-0.2,0-0.4,0-0.6c0,0-0.1,0-0.1,0c-0.1,0-0.6-0.3-1.2-1.4c-1.1-2.1-1.9-4.7-2.4-6.4
						c1.6,0.4,3.2,0.9,4.5,1.5c0.3-1,0.6-1.9,1-2.9c-2.7-1.2-5.8-1.8-7.2-2.1l-2.1-0.4l0.4,2.1c0,0.2,1,5.5,3.2,9.6
						c0.4,0.7,1.6,3,3.8,3c0.1,0,0.1,0,0.2,0C-228.4-93.7-228.5-94.5-228.5-95.3z"/>
				</g>
			</g>
			<g id="head_2_">
				<path class="st4" d="M-183-105.8h-39.9c-1.6,3.1-2.6,6.7-2.6,10.4c0,12.4,10.1,22.5,22.5,22.5c12.4,0,22.5-10.1,22.5-22.5
					C-180.4-99.1-181.3-102.6-183-105.8z"/>
				<path class="st1" d="M-183-105.8h-3.5c1.9,3,3,6.6,3,10.4c0,10.8-8.8,19.5-19.5,19.5c-10.8,0-19.5-8.8-19.5-19.5
					c0-3.8,1.1-7.4,3-10.4h-3.5c-1.6,3.1-2.6,6.7-2.6,10.4c0,12.4,10.1,22.5,22.5,22.5c12.4,0,22.5-10.1,22.5-22.5
					C-180.4-99.1-181.3-102.6-183-105.8z"/>
			</g>
			<path id="smile_1_" class="st1" d="M-202.9-86.5c-4.7,0-8.4-0.5-8.4,1.6c0,2.1,3.8,6,8.4,6c4.7,0,8.4-3.9,8.4-6
				C-194.5-87-198.3-86.5-202.9-86.5z"/>
			<polygon id="nose_2_" class="st1" points="-200.7,-90.9 -205.2,-90.9 -203.7,-106.2 -202.2,-106.2 			"/>
			<g id="eyes_2_">
				<circle class="st1" cx="-214.1" cy="-100.4" r="2.8"/>
				<circle class="st1" cx="-191.4" cy="-100.4" r="2.8"/>
			</g>
		</g>
		<path id="hat_3_" class="st7" d="M-202.9-117.3l-15.3,1.7c1.7-10.5,6.4-32.2,15.5-32.2c9,0,13.6,21.7,15.3,32.2L-202.9-117.3z
			 M-202.9-114.3l-20.5,2.3v6.3h41.1v-6.3L-202.9-114.3z"/>
	</g>
	<g id="drums_2_">
		<g>
			<polygon class="st9" points="-344.7,-103.4 -334.4,-123.3 -354.9,-123.3 			"/>
			<polygon class="st2" points="-331.7,-117.8 -341.9,-98 -321.4,-98 			"/>
			<polygon class="st2" points="-357.7,-117.8 -357.7,-98 -347.5,-98 			"/>
			<polygon class="st2" points="-315.9,-98 -305.6,-98 -305.6,-117.8 			"/>
			<polygon class="st9" points="-328.9,-123.3 -318.6,-103.4 -308.4,-123.3 			"/>
		</g>
		<g>
			<path class="st3" d="M-300.7-85.6c0,1.4-1.1,2.5-2.5,2.5h-57c-1.4,0-2.5-1.1-2.5-2.5v-5c0-1.4,1.1-2.5,2.5-2.5h57
				c1.4,0,2.5,1.1,2.5,2.5V-85.6z"/>
			<path class="st3" d="M-300.7-130.7c0,1.4-1.1,2.5-2.5,2.5h-57c-1.4,0-2.5-1.1-2.5-2.5v-5c0-1.4,1.1-2.5,2.5-2.5h57
				c1.4,0,2.5,1.1,2.5,2.5V-130.7z"/>
		</g>
	</g>
	<g id="cracker_1_">
		<g>
			<path class="st1" d="M-477.4-84.2l-8.3-0.2l-0.2-8.3l-6.4-0.2l-4.3,4.3c-0.4,0.4-0.4,1.1,0,1.5l13.7,13.7c0.4,0.4,1.1,0.4,1.5,0
				l4.3-4.3L-477.4-84.2z"/>
			<path class="st1" d="M-437.5-147.8l-4.3,4.3l0.2,6.4l8.3,0.2l0.2,8.3l6.4,0.2l4.3-4.3c0.4-0.4,0.4-1.1,0-1.5l-13.7-13.7
				C-436.4-148.2-437.1-148.2-437.5-147.8z"/>
			<path class="st3" d="M-435.9-125.7l-0.2-8.3l-8.3-0.2l-0.2-6.4l-4.6,4.6c-0.4,0.4-0.6,1.2-0.4,1.8l1.2,3.7
				c0.2,0.6-0.1,0.9-0.7,0.7l-3.7-1.2c-0.6-0.2-1.4,0-1.8,0.4l-25,25c-0.4,0.4-0.6,1.2-0.4,1.8l1.2,3.7c0.2,0.6-0.1,0.9-0.7,0.7
				l-3.7-1.2c-0.6-0.2-1.4,0-1.8,0.4l-4.6,4.6l6.4,0.2l0.2,8.3l8.3,0.2l0.2,6.4l4.6-4.6c0.4-0.4,0.6-1.2,0.4-1.8l-1.2-3.7
				c-0.2-0.6,0.1-0.9,0.7-0.7l3.7,1.2c0.6,0.2,1.4,0,1.8-0.4l25-25c0.4-0.4,0.6-1.2,0.4-1.8l-1.2-3.7c-0.2-0.6,0.1-0.9,0.7-0.7
				l3.7,1.2c0.6,0.2,1.4,0,1.8-0.4l4.6-4.6L-435.9-125.7z"/>
		</g>
		<g id="dots_1_">
			<g>
				<g>
					
						<ellipse transform="matrix(0.7071 -0.7071 0.7071 0.7071 -65.5948 -361.1523)" class="st4" cx="-468.7" cy="-101.4" rx="2.9" ry="2.9"/>
				</g>
			</g>
			<g>
				<g>
					
						<ellipse transform="matrix(0.7071 -0.7071 0.7071 0.7071 -56.3645 -357.3323)" class="st4" cx="-459.5" cy="-110.6" rx="2.9" ry="2.9"/>
				</g>
			</g>
			<g>
				<g>
					
						<ellipse transform="matrix(0.7071 -0.7071 0.7071 0.7071 -47.1309 -353.5081)" class="st4" cx="-450.3" cy="-119.9" rx="2.9" ry="2.9"/>
				</g>
			</g>
			
				<ellipse transform="matrix(0.707 -0.7072 0.7072 0.707 -44.5397 -351.2834)" class="st11" cx="-446.2" cy="-121.9" rx="1.4" ry="1.4"/>
			
				<ellipse transform="matrix(0.7072 -0.707 0.707 0.7072 -69.0171 -361.3483)" class="st11" cx="-470.8" cy="-97.3" rx="1.4" ry="1.4"/>
		</g>
	</g>
	<path id="candy_1_" class="st3" d="M81.7-277c-0.7,1.8-2.3,3.1-4,3.6c-0.1,0-0.2,0.1-0.3,0.1c-0.2,0.1-0.4,0.1-0.6,0.1
		c-0.2,0-0.4,0-0.5,0.1c-0.2,0-0.4,0-0.5,0c-0.2,0-0.5,0-0.7-0.1c-0.1,0-0.3,0-0.4-0.1c-0.4-0.1-0.8-0.2-1.1-0.3
		c-3.2-1.3-4.8-5-3.5-8.2c0.1-0.2,0.1-0.3,0.2-0.6c0,0,0-0.1,0-0.1c0.1-0.2,0.1-0.4,0.2-0.7l0,0c0.4-1.5,0.9-3.6,1-5.8l0,0
		c0.1-1.6-0.1-3.3-0.5-4.8c-0.1-0.4-0.3-0.8-0.4-1.2c-0.6-1.4-1.6-2.6-3-3.6l0,0c-0.5-0.4-1-0.7-1.6-1c-0.6-0.3-1.2-0.6-2-0.9
		c0,0,0,0,0,0c-2.7-1-4.9-1-6.8-0.1c-0.3,0.2-0.6,0.3-0.9,0.5c-0.1,0-0.1,0.1-0.2,0.1c-0.3,0.2-0.5,0.4-0.8,0.6c0,0,0,0,0,0
		c-0.2,0.2-0.5,0.5-0.7,0.7c0,0.1-0.1,0.1-0.1,0.2c-0.2,0.2-0.4,0.5-0.6,0.8l0,0c-1.1,1.4-1.7,2.9-2,3.5l0,0
		c-0.1,0.2-0.1,0.3-0.1,0.3l-0.1,0.3l-3.7,10.2l-1.9,5.2l-3.9,10.7l-1.9,5.2l-3.9,10.7l-1.9,5.2l-1.3,3.5c-0.2,0.4-0.4,0.8-0.6,1.2
		c0,0.1-0.1,0.1-0.1,0.2c-0.2,0.3-0.4,0.6-0.7,0.9c0,0-0.1,0.1-0.1,0.1c-0.3,0.3-0.6,0.5-1,0.8c0,0,0,0,0,0
		c-0.4,0.2-0.8,0.4-1.2,0.6c0,0,0,0,0,0l0,0c-1.4,0.5-2.9,0.6-4.4,0.1c-3.3-1.2-5-4.8-3.8-8.1l2.9-7.9l8.8,7.5l1.9-5.2l-8.8-7.5
		l3.9-10.7l8.8,7.5l1.9-5.2l-8.8-7.5l3.9-10.7l8.8,7.5l1.9-5.2l-8.8-7.5l2.1-5.6c0.2-0.7,0.9-2.5,2.2-4.8l8.4,7.2l1-2.8l0.1-0.3
		c0,0,0.3-0.9,1-1.9l-7.5-6.4c1.7-1.9,3.8-3.8,6.5-5.1c1.5-0.7,3.4-1.4,5.8-1.7c-1.4,1.3-0.7,5.3-0.2,9.3c2-0.9,4.4-0.9,7.2,0.1
		c0.1-2.8-0.2-6.4-0.5-9.2c1.4,0.2,2.8,0.6,4.4,1.1c0,0,0,0,0.1,0c3.7,1.3,6.8,3.3,9.2,5.7c-2,0.5-4.7,3.3-7.4,5.8
		c0.8,0.8,1.4,1.7,1.8,2.7c0.6,1.2,0.9,2.5,1.1,3.8c2.5-1.2,6-4.3,8.6-6.6c0.1,0.3,0.3,0.5,0.4,0.8c1.8,4.1,2.2,8.4,2,12.1
		c-2-1.2-6.9-0.7-11-0.9c-0.2,1.6-0.6,3-1,3.9c-0.3,0.8-0.5,1.7-0.5,2.5c2.4,1.1,7.5,1.3,11.4,1.5C82.4-278.8,81.9-277.4,81.7-277z"
		/>
	<g id="candle_1_">
		<path class="st10" d="M-55.1-246.8c0-1.7-1.3-3-3-3h-38.2c-1.7,0-3,1.3-3,3c0,1.5,1,2.7,2.4,2.9c0.1,1.7,1.2,5.3,2.6,5.3h34.2
			c1.3,0,2.4-3.6,2.6-5.3C-56.1-244.1-55.1-245.3-55.1-246.8z"/>
		<path class="st6" d="M-83-274.6v21h16.5v-36.6c0,0,0.1-2.5-1.9-2.1c-3.8,0.8-7.7-2.4-10.5,0.4c-1.1,1.1-0.3,2.2-0.3,2.2
			s-4.5-1.5-4.5,2.2c0,6.3-4.1,5.9-4.1,10.1C-87.8-272.6-83-271.5-83-274.6z"/>
		<path class="st2" d="M-81-301.9c0-4.4,7.7-6.9,9.7-10.2c0,0,0,0,0,0c0,0,0-0.1,0.1-0.1c0.2-0.4-0.1-0.6-0.1-0.6c0,0,0,0,0,0
			c-0.1-0.1-0.2-0.2-0.2-0.3c0-0.2,0.2-0.4,0.4-0.4c0.1,0,0.2,0,0.2,0.1c0,0,0,0,0,0c0,0,2.6,1.2,0.6,5.5c-1.5,3.1,3,3.7,1.7,8
			c-0.4,1.3-1.1,2.8-3.9,3.2c-0.4-0.9-1.2-0.7-2-2.9c-0.8-2.2-0.6-3.8-1-3.8c-2.1,2.1-2.1,3.7-1.4,6.6
			C-78.5-297.4-81-298.6-81-301.9z"/>
	</g>
	<g id="brandy_2_">
		<g id="glass_1_">
			<path class="st4" d="M-174.7-287.2c0-18.3-6.2-25.8-6.2-25.8c-0.2-0.3-0.7-0.5-1.1-0.5h-21.1c-0.4,0-1,0-1.4,0h-21.1
				c-0.4,0-0.9,0.2-1.1,0.5c0,0-6.2,7.5-6.2,25.8c0,25.5,25.7,25.5,25.7,25.5c0.4,0,0.7,0.3,0.7,0.7v8.3c0,0.4-0.2,0.9-0.5,1.1
				l-14,11.2c-0.3,0.2-0.3,0.4,0.1,0.4c0,0,2.8,1.5,17.2,1.5s17.2-1.5,17.2-1.5c0.4,0,0.4-0.2,0.1-0.4l-14-11.2
				c-0.3-0.2-0.5-0.7-0.5-1.1v-8.3c0-0.4,0.3-0.7,0.7-0.7C-200.3-261.7-174.7-261.7-174.7-287.2z"/>
			<path class="st5" d="M-184.2-308.1c1.4,2.8,4.1,9.4,4.1,20.9c0,8.3-3.1,13.9-9.5,17.2c-5.2,2.7-10.7,2.8-10.7,2.8
				c-1.3,0-2.5,0.4-3.4,1c-1-0.7-2.2-1-3.4-1c-0.1,0-5.3-0.1-10.4-2.6c-6.6-3.3-9.8-8.9-9.8-17.3c0-11.5,2.6-18.1,4.1-20.9h18.8h1.4
				H-184.2 M-203.8-247.3l3.9,3.1c-1.2,0-2.5,0-3.9,0c-1.4,0-2.8,0-3.9,0L-203.8-247.3 M-182-313.6h-21.1c-0.4,0-1,0-1.4,0h-21.1
				c-0.4,0-0.9,0.2-1.1,0.5c0,0-6.2,7.5-6.2,25.8c0,25.5,25.7,25.5,25.7,25.5c0.4,0,0.7,0.3,0.7,0.7v8.3c0,0.4-0.2,0.9-0.5,1.1
				l-14,11.2c-0.3,0.2-0.3,0.4,0.1,0.4c0,0,2.8,1.5,17.2,1.5s17.2-1.5,17.2-1.5c0.4,0,0.4-0.2,0.1-0.4l-14-11.2
				c-0.3-0.2-0.5-0.7-0.5-1.1v-8.3c0-0.4,0.3-0.7,0.7-0.7c0,0,25.7,0,25.7-25.5c0-18.3-6.2-25.8-6.2-25.8
				C-181.1-313.3-181.6-313.6-182-313.6L-182-313.6z"/>
		</g>
		<path id="drink_1_" class="st10" d="M-203.8-291.3c-5.4,0-10.3,0.2-13.9,0.6c0.3,2.9,1,5.8,2.7,8c2.2,2.9,5.6,4.3,10.4,4.3
			c1.1,0,2.1,0.9,2.1,2.1c0,1.1-0.9,2.1-2.1,2.1c-6.2,0-10.8-2-13.7-6c-2.1-2.9-3.1-6.4-3.4-9.9c-1.7,0.3-2.6,0.7-2.6,1.1l0,0.6
			c0,18,18.7,18,18.7,18h3.9c0,0,18.7,0,18.7-18l0-0.6C-183.1-290.3-192.4-291.3-203.8-291.3z"/>
	</g>
	<path id="bell_1_" class="st2" d="M-326.7-254.4c0,0.1,0,0.1-0.1,0.2c-1,2.8-4.2,4.3-7,3.3c-2.7-1-4.2-3.9-3.4-6.6
		C-333.2-256.2-329.7-255.1-326.7-254.4z M-334.6-260.9c-0.5-0.2-1-0.4-1.6-0.6c-23.2-8.4-18.9-14.1-14.3-16.2
		c4.5-2.1,7.6-9.2,12.2-21.8c2.6-7.1,8.2-8.6,12.6-8.5c0-0.6,0.1-1.1,0.3-1.7c1.1-3.1,4.6-4.7,7.7-3.6c3.1,1.1,4.7,4.6,3.6,7.7
		c-0.2,0.5-0.4,0.9-0.7,1.3c3.6,2.7,7.4,7.6,4.7,15.1c-4.6,12.6-6.8,20-4.7,24.5c1.8,3.8,1.8,9.5-12.2,6c0,0,0,0,0,0
		c-0.5-0.1-1.1-0.3-1.7-0.4c0,0,0,0-0.1,0C-330.5-259.5-332.4-260.2-334.6-260.9C-334.6-260.9-334.6-260.9-334.6-260.9z
		 M-322.4-307.6c1.7,0.3,2.8,0.7,2.8,0.7s0.8,0.3,2,0.9c0.1-0.2,0.3-0.4,0.4-0.7c0.5-1.4-0.2-2.9-1.6-3.4c-1.4-0.5-2.9,0.2-3.4,1.6
		C-322.3-308.2-322.4-307.9-322.4-307.6z M-323.9-303.3c-0.2-0.2-0.4-0.4-0.6-0.6c-0.8-0.1-1.8-0.1-2.7,0c-3.8,0.3-6.1,2.2-7.4,5.8
		c-4.6,12.7-8.1,21.2-14.2,24c-0.6,0.3-0.9,0.5-1.1,0.7c0.3,0.4,0.9,1.1,2.4,2.2c0.7-0.9,1.8-1.7,2.9-2.2c4.5-2.1,7.6-9.2,12.2-21.8
		C-330.6-300.2-327.3-302.4-323.9-303.3z M-327.7-247.6c-0.6,0.2,0.9,6.2,1.3,7.3c0.4,1.1,0.7,2,1.7,1.6c1.1-0.4,0.8-1.2,0.4-2.3
		C-324.6-242.1-327.1-247.8-327.7-247.6z M-333.7-246.6c-0.4-0.2-2.6,3.9-2.9,4.7c-0.3,0.8-0.6,1.4,0.2,1.8c0.8,0.3,1-0.3,1.4-1.1
		C-334.8-242.1-333.3-246.4-333.7-246.6z M-318.6-248.1c-0.8-0.4-5.1-2.1-5.3-1.7c-0.2,0.4,3.7,2.8,4.5,3.2c0.8,0.4,1.4,0.7,1.8-0.1
		S-317.9-247.7-318.6-248.1z"/>
	<g id="ball_ball_1_">
		<g>
			<g>
				<g>
					<path class="st2" d="M-430.5-267.6c0,0.9-0.1,1.7-0.1,2.6c-0.3-1-0.6-2.1-0.7-3c-0.8-3.7-1.6-7.2-4.4-7.2
						c-2.8,0-3.6,3.5-4.4,7.2c-0.2,1-0.5,2.4-0.9,3.4c-0.3-1-0.6-2.4-0.9-3.4c-0.8-3.7-1.6-7.2-4.4-7.2c-2.8,0-3.6,3.5-4.4,7.2
						c-0.2,1-0.5,2.4-0.9,3.4c-0.3-1-0.6-2.4-0.9-3.4c-0.8-3.7-1.6-7.2-4.4-7.2s-3.6,3.5-4.4,7.2c-0.2,1-0.5,2.4-0.9,3.4
						c-0.3-1-0.6-2.4-0.9-3.4c-0.8-3.7-1.6-7.2-4.4-7.2c-2.8,0-3.6,3.5-4.4,7.2c-0.2,1-0.5,2.4-0.9,3.4c-0.3-1-0.6-2.4-0.9-3.4
						c-0.8-3.7-1.6-7.2-4.4-7.2c-2.8,0-3.6,3.5-4.4,7.2c-0.2,1-0.5,2.4-0.9,3.4c-0.3-1-0.6-2.4-0.9-3.4c-0.7-3.2-1.4-6.3-3.4-7
						c0.5-1.8,1.1-3.6,2-5.3h52.1C-431.6-276.4-430.5-272.1-430.5-267.6z"/>
				</g>
				<g>
					<path class="st2" d="M-431.5-260.1c-0.5,1.8-1.1,3.6-2,5.3h-52.1c-1.9-3.8-3-8.1-3-12.7c0-0.9,0.1-1.7,0.1-2.6
						c0.3,1,0.5,2.1,0.7,3c0.8,3.7,1.6,7.2,4.4,7.2c2.8,0,3.6-3.5,4.4-7.2c0.2-1,0.5-2.4,0.9-3.4c0.3,1,0.6,2.4,0.9,3.4
						c0.8,3.7,1.6,7.2,4.4,7.2c2.8,0,3.6-3.5,4.4-7.2c0.2-1,0.5-2.4,0.9-3.4c0.3,1,0.6,2.4,0.9,3.4c0.8,3.7,1.6,7.2,4.4,7.2
						c2.8,0,3.6-3.5,4.4-7.2c0.2-1,0.5-2.4,0.9-3.4c0.3,1,0.6,2.4,0.9,3.4c0.8,3.7,1.6,7.2,4.4,7.2c2.8,0,3.6-3.5,4.4-7.2
						c0.2-1,0.5-2.4,0.9-3.4c0.3,1,0.6,2.4,0.9,3.4c0.8,3.7,1.6,7.2,4.4,7.2c2.8,0,3.6-3.5,4.4-7.2c0.2-1,0.5-2.4,0.9-3.4
						c0.3,1,0.7,2.4,0.9,3.4C-434.2-264-433.5-260.9-431.5-260.1z"/>
				</g>
			</g>
		</g>
		<g>
			<g>
				<g>
					<path class="st1" d="M-483.5-251.3h48c-5.2,7.7-14,12.7-24,12.7S-478.3-243.6-483.5-251.3z"/>
				</g>
				<g>
					<g>
						<path class="st1" d="M-450.5-295.1v-9.4c0-5-4.1-9.1-9.1-9.1s-9.1,4.1-9.1,9.1v9.4c-6.1,2-11.4,6-14.9,11.2h48
							C-439.1-289.1-444.3-293.1-450.5-295.1z M-464.4-304.5c0-2.7,2.2-4.9,4.9-4.9c2.7,0,4.9,2.2,4.9,4.9H-464.4z"/>
					</g>
				</g>
			</g>
		</g>
	</g>
</g>
<g id="info">
	<path id="om_1_" class="st0" d="M-288.9,350.2c-1.8,0-2.8,1.3-2.8,3c0,1.7,1,3,2.8,3c1.8,0,2.8-1.3,2.8-3
		C-286.2,351.5-287.1,350.2-288.9,350.2z M-288.9,355.3c-1,0-1.8-0.8-1.8-2.1c0-1.4,0.8-2.2,1.8-2.2c1,0,1.8,0.8,1.8,2.2
		C-287.1,354.5-287.9,355.3-288.9,355.3z M-283,348.1c0.2,0,0.4,0,0.6,0.1v0.8c-0.2-0.1-0.4-0.1-0.5-0.1c-0.5,0-0.7,0.1-0.7,0.6v0.8
		h1.1v0.8h-1.1v4.9h-0.9v-4.9h-1v-0.8h1v-0.8C-284.6,348.5-284,348.1-283,348.1z M-279.8,348.1c0.2,0,0.4,0,0.6,0.1v0.8
		c-0.2-0.1-0.4-0.1-0.5-0.1c-0.5,0-0.7,0.1-0.7,0.6v0.8h1.1v0.8h-1.1v4.9h-0.9v-4.9h-1v-0.8h1v-0.8
		C-281.4,348.5-280.8,348.1-279.8,348.1z M-273.9,354.3c0,1.4-1.3,1.8-2.4,1.8c-1.3,0-2.4-0.5-2.4-1.9h0.9c0,0.8,0.8,1.1,1.5,1.1
		c0.6,0,1.4-0.1,1.4-0.8c0-0.7-0.9-0.8-1.9-1.1c-0.9-0.2-1.9-0.5-1.9-1.6c0-1.1,1.1-1.6,2.1-1.6c1.3,0,2.3,0.4,2.3,1.8h-0.9
		c-0.1-0.7-0.7-1-1.3-1c-0.6,0-1.2,0.2-1.2,0.7c0,0.7,1,0.8,1.9,1C-274.9,352.9-273.9,353.2-273.9,354.3z M-270.4,350.2
		c-1.6,0-2.7,1.3-2.7,3c0.1,1.7,0.9,3,2.7,3c1.3,0,2.2-0.7,2.4-1.9h-0.9c-0.2,0.7-0.7,1.1-1.5,1.1c-1.2,0-1.8-0.9-1.8-1.9h4.3
		C-267.8,352.1-268.4,350.2-270.4,350.2z M-272.1,352.6c0.1-0.9,0.6-1.6,1.6-1.6c0.9,0,1.6,0.7,1.6,1.6H-272.1z M-265.5,350.3h1.1
		v0.8h-1.1v3.5c0,0.4,0.1,0.5,0.7,0.5h0.4v0.8h-0.7c-1,0-1.4-0.2-1.4-1.2v-3.6h-1v-0.8h1v-1.7h0.9V350.3z M-252.1,351.8v4.2h-0.9
		v-3.7c0-0.7-0.2-1.3-1.1-1.3c-0.9,0-1.5,0.6-1.5,1.5v3.5h-0.9v-3.7c0-0.7-0.2-1.3-1.1-1.3c-1.1,0-1.5,1-1.5,1.5v3.5h-0.9v-5.7h0.9
		v0.8h0c0.4-0.6,1.1-1,1.8-1c0.7,0,1.3,0.3,1.6,1c0.4-0.6,1.1-1,1.8-1C-252.8,350.2-252.1,350.7-252.1,351.8z M-248.2,350.2
		c-1.6,0-2.7,1.3-2.7,3c0.1,1.7,0.9,3,2.7,3c1.3,0,2.2-0.7,2.4-1.9h-0.9c-0.2,0.7-0.7,1.1-1.5,1.1c-1.2,0-1.8-0.9-1.8-1.9h4.3
		C-245.6,352.1-246.2,350.2-248.2,350.2z M-249.9,352.6c0.1-0.9,0.6-1.6,1.6-1.6c0.9,0,1.6,0.7,1.6,1.6H-249.9z M-240.4,351.1
		L-240.4,351.1c-0.4-0.7-1.3-0.9-1.9-0.9c-1.7,0-2.6,1.4-2.6,3c0,1.6,0.9,3,2.6,3c0.8,0,1.5-0.3,1.8-0.9h0v0.8h0.9v-7.9h-0.9V351.1z
		 M-242.1,355.3c-1.2,0-1.8-1-1.8-2.1c0-1.1,0.4-2.2,1.7-2.2c1.3,0,1.8,1,1.8,2.2C-240.4,354.2-240.8,355.3-242.1,355.3z
		 M-237.8,348.1h0.9v1.1h-0.9V348.1z M-237.8,350.3h0.9v5.7h-0.9V350.3z M-230.9,354.7v-2.9c0-1.3-1.1-1.6-2.1-1.6
		c-1.3,0-2.4,0.5-2.4,1.9h0.9c0-0.8,0.6-1.1,1.4-1.1c0.6,0,1.3,0.1,1.3,0.9c0,0.7-0.9,0.6-1.9,0.8c-1,0.2-1.9,0.5-1.9,1.8
		c0,1.1,0.8,1.6,1.9,1.6c0.8,0,1.5-0.3,2-0.9c0,0.6,0.3,0.9,0.8,0.9c0.3,0,0.5-0.1,0.7-0.2v-0.7c-0.1,0-0.2,0.1-0.3,0.1
		C-230.9,355.3-230.9,355.1-230.9,354.7z M-231.8,354c0,0.5-0.5,1.3-1.7,1.3c-0.6,0-1.1-0.2-1.1-0.8c0-0.7,0.5-0.9,1.1-1
		c0.6-0.1,1.3-0.1,1.7-0.4V354z M-224.2,348.1c0.2,0,0.4,0,0.6,0.1v0.8c-0.2-0.1-0.4-0.1-0.5-0.1c-0.5,0-0.7,0.1-0.7,0.6v0.8h1.1
		v0.8h-1.1v4.9h-0.9v-4.9h-1v-0.8h1v-0.8C-225.8,348.5-225.2,348.1-224.2,348.1z M-220.4,350.2c-1.6,0-2.7,1.3-2.7,3
		c0.1,1.7,0.9,3,2.7,3c1.3,0,2.2-0.7,2.4-1.9h-0.9c-0.2,0.7-0.7,1.1-1.5,1.1c-1.2,0-1.8-0.9-1.8-1.9h4.3
		C-217.8,352.1-218.4,350.2-220.4,350.2z M-222.1,352.6c0.1-0.9,0.6-1.6,1.6-1.6c0.9,0,1.6,0.7,1.6,1.6H-222.1z M-212.3,354.3
		c0,1.4-1.3,1.8-2.4,1.8c-1.3,0-2.4-0.5-2.4-1.9h0.9c0,0.8,0.8,1.1,1.5,1.1c0.6,0,1.4-0.1,1.4-0.8c0-0.7-0.9-0.8-1.9-1.1
		c-0.9-0.2-1.9-0.5-1.9-1.6c0-1.1,1.1-1.6,2.1-1.6c1.3,0,2.3,0.4,2.3,1.8h-0.9c-0.1-0.7-0.7-1-1.3-1c-0.6,0-1.2,0.2-1.2,0.7
		c0,0.7,1,0.8,1.9,1C-213.2,352.9-212.3,353.2-212.3,354.3z M-209.9,350.3h1.1v0.8h-1.1v3.5c0,0.4,0.1,0.5,0.7,0.5h0.4v0.8h-0.7
		c-1,0-1.4-0.2-1.4-1.2v-3.6h-1v-0.8h1v-1.7h0.9V350.3z M-207.5,348.1h0.9v1.1h-0.9V348.1z M-207.5,350.3h0.9v5.7h-0.9V350.3z
		 M-201.4,350.3h1l-2.1,5.7h-1l-2.1-5.7h1l1.6,4.7h0L-201.4,350.3z M-197.1,350.2c-1.6,0-2.7,1.3-2.7,3c0.1,1.7,0.9,3,2.7,3
		c1.3,0,2.2-0.7,2.4-1.9h-0.9c-0.2,0.7-0.7,1.1-1.5,1.1c-1.2,0-1.8-0.9-1.8-1.9h4.3C-194.4,352.1-195.1,350.2-197.1,350.2z
		 M-198.8,352.6c0.1-0.9,0.6-1.6,1.6-1.6c0.9,0,1.6,0.7,1.6,1.6H-198.8z M-190.2,348.1h0.9v1.1h-0.9V348.1z M-190.2,350.3h0.9v5.7
		h-0.9V350.3z M-183.8,353.9h1c-0.2,1.4-1.1,2.2-2.5,2.2c-1.7,0-2.7-1.2-2.7-2.9c0-1.7,0.9-3,2.7-3c1.3,0,2.3,0.6,2.5,2h-1
		c-0.1-0.7-0.6-1.1-1.4-1.1c-1.4,0-1.8,1.1-1.8,2.2c0,1,0.5,2.1,1.7,2.1C-184.5,355.3-183.9,354.8-183.8,353.9z M-179.2,350.2
		c-1.8,0-2.8,1.3-2.8,3c0,1.7,1,3,2.8,3c1.8,0,2.8-1.3,2.8-3C-176.5,351.5-177.4,350.2-179.2,350.2z M-179.2,355.3
		c-1,0-1.8-0.8-1.8-2.1c0-1.4,0.8-2.2,1.8-2.2c1,0,1.8,0.8,1.8,2.2C-177.5,354.5-178.3,355.3-179.2,355.3z M-170.6,352.3v3.7h-0.9
		v-3.9c0-0.7-0.4-1.1-1.2-1.1c-1.1,0-1.7,0.8-1.7,1.8v3.2h-0.9v-5.7h0.9v0.9h0c0.4-0.7,1-1,1.8-1C-171,350.2-170.6,351-170.6,352.3z
		 M-163.1,350.2c-0.8,0-1.5,0.3-1.8,0.9h0v-0.8h-0.9v7.9h0.9v-2.9h0c0.4,0.7,1.3,0.9,1.8,0.9c1.7,0,2.6-1.4,2.6-3
		C-160.4,351.6-161.3,350.2-163.1,350.2z M-163.1,355.3c-1.3,0-1.8-1-1.8-2.2c0-1.1,0.5-2.1,1.7-2.1c1.2,0,1.8,1,1.8,2.1
		C-161.4,354.2-161.9,355.3-163.1,355.3z M-154.8,354.7v-2.9c0-1.3-1.1-1.6-2.1-1.6c-1.3,0-2.4,0.5-2.4,1.9h0.9
		c0-0.8,0.6-1.1,1.4-1.1c0.6,0,1.3,0.1,1.3,0.9c0,0.7-0.9,0.6-1.9,0.8c-1,0.2-1.9,0.5-1.9,1.8c0,1.1,0.8,1.6,1.9,1.6
		c0.8,0,1.5-0.3,2-0.9c0,0.6,0.3,0.9,0.8,0.9c0.3,0,0.5-0.1,0.7-0.2v-0.7c-0.1,0-0.2,0.1-0.3,0.1
		C-154.8,355.3-154.8,355.1-154.8,354.7z M-155.7,354c0,0.5-0.5,1.3-1.7,1.3c-0.6,0-1.1-0.2-1.1-0.8c0-0.7,0.5-0.9,1.1-1
		c0.6-0.1,1.3-0.1,1.7-0.4V354z M-149.3,353.9h1c-0.2,1.4-1.1,2.2-2.5,2.2c-1.7,0-2.7-1.2-2.7-2.9c0-1.7,0.9-3,2.7-3
		c1.3,0,2.3,0.6,2.5,2h-1c-0.1-0.7-0.6-1.1-1.4-1.1c-1.4,0-1.8,1.1-1.8,2.2c0,1,0.5,2.1,1.7,2.1C-150,355.3-149.4,354.8-149.3,353.9
		z M-144.6,352.4l2.4,3.6h-1.2l-1.9-3l-0.9,0.8v2.2h-0.9v-7.9h0.9v4.7l2.6-2.5h1.3L-144.6,352.4z M-137.6,355.2h4v0.8h-5.1
		c0.2-1.8,1.1-2.5,2.2-3.2c1.3-0.8,2-1.3,2-2.4c0-0.8-0.7-1.4-1.5-1.4c-1.1,0-1.6,1-1.5,1.9h-0.9c-0.1-1.6,0.9-2.8,2.5-2.8
		c1.4,0,2.4,0.8,2.4,2.2c0,1.4-0.9,2.1-1.9,2.7C-136.4,353.7-137.4,354.2-137.6,355.2z M-129.6,348.2c-2.4,0-2.6,2.2-2.6,4
		c0,1.7,0.2,4,2.6,4c2.4,0,2.6-2.2,2.6-4C-127,350.4-127.2,348.2-129.6,348.2z M-129.6,355.3c-1.6,0-1.6-2-1.6-3.1
		c0-1.2,0-3.1,1.6-3.1c1.6,0,1.6,2,1.6,3.1C-128,353.3-128,355.3-129.6,355.3z M-123.3,348.2h0.7v7.8h-0.9v-5.6h-2v-0.7
		C-124.4,349.7-123.5,349.4-123.3,348.2z M-116.3,348.2v7.8h-0.9v-5.6h-2v-0.7c1.1,0,2-0.3,2.2-1.5H-116.3z"/>
	<g>
		<g>
			<g>
				<path class="st12" d="M-330.3-448.2V-475h12.8v4h-8.2v6.9h6.1v4h-6.1v11.9H-330.3z"/>
				<path class="st12" d="M-313.9-448.2V-475h12.3v4h-7.7v6.9h5.9v4h-5.9v7.9h8.2v4H-313.9z"/>
				<path class="st12" d="M-289.1-468.4c0-0.6-0.2-1-0.3-1.4c-0.2-0.4-0.4-0.7-0.6-0.9c-0.2-0.2-0.5-0.4-0.8-0.5
					c-0.3-0.1-0.5-0.1-0.8-0.1c-0.7,0-1.3,0.2-1.7,0.7c-0.4,0.5-0.6,1.1-0.6,1.9c0,0.8,0.2,1.5,0.7,2.1c0.5,0.6,1,1.3,1.7,1.9
					c0.7,0.6,1.4,1.3,2.3,1.9c0.8,0.7,1.6,1.4,2.3,2.2c0.7,0.8,1.3,1.7,1.7,2.6c0.5,1,0.7,2,0.7,3.2c0,1.1-0.2,2.1-0.5,2.9
					c-0.4,0.9-0.9,1.6-1.5,2.1c-0.6,0.6-1.4,1-2.3,1.3c-0.9,0.3-1.9,0.4-2.9,0.4c-1.1,0-2-0.2-2.9-0.6c-0.8-0.4-1.6-0.9-2.1-1.6
					c-0.6-0.7-1-1.5-1.4-2.4c-0.3-0.9-0.5-1.8-0.6-2.9l4.4-0.6c0.1,1.4,0.4,2.4,0.9,3c0.5,0.7,1.1,1,1.9,1c0.8,0,1.4-0.2,1.9-0.6
					c0.5-0.4,0.7-1,0.7-1.8c0-0.9-0.2-1.7-0.7-2.4c-0.5-0.7-1-1.4-1.7-2c-0.7-0.6-1.4-1.3-2.3-1.9c-0.8-0.6-1.6-1.3-2.3-2.1
					c-0.7-0.8-1.3-1.6-1.7-2.6c-0.5-1-0.7-2.1-0.7-3.4c0-2.1,0.6-3.8,1.9-4.9c1.2-1.1,3-1.7,5.3-1.7c0.9,0,1.8,0.2,2.5,0.5
					c0.7,0.3,1.4,0.8,1.9,1.4c0.5,0.6,1,1.3,1.3,2.1c0.3,0.8,0.5,1.7,0.6,2.6L-289.1-468.4z"/>
				<path class="st12" d="M-278.3-471h-4.4v-4h13.5v4h-4.4v22.7h-4.6V-471z"/>
				<path class="st12" d="M-266-448.2V-475h4.6v26.7H-266z"/>
				<path class="st12" d="M-246.9-475h4.5l-5.6,26.7h-4.6l-5.6-26.7h4.5l3.3,18.6h0.1L-246.9-475z"/>
				<path class="st12" d="M-239.9-448.2V-475h12.3v4h-7.7v6.9h5.9v4h-5.9v7.9h8.2v4H-239.9z"/>
				<path class="st12" d="M-214.6-448.2V-475h4.6v26.7H-214.6z"/>
				<path class="st12" d="M-195.6-466v-2.1c0-1.1-0.2-2-0.7-2.5c-0.4-0.5-1-0.8-1.6-0.8c-0.9,0-1.6,0.2-1.9,0.7
					c-0.3,0.5-0.5,1.2-0.5,2.2v13.6c0,1,0.2,1.8,0.5,2.2c0.3,0.5,1,0.7,1.9,0.7c0.8,0,1.4-0.2,1.7-0.7c0.3-0.5,0.5-1.1,0.5-2v-3.2
					h4.6v3.1c0,0.9-0.1,1.8-0.4,2.7c-0.3,0.8-0.7,1.6-1.3,2.2c-0.6,0.6-1.3,1.1-2.1,1.5c-0.9,0.4-1.9,0.5-3,0.5
					c-1.2,0-2.3-0.2-3.1-0.5c-0.9-0.4-1.6-0.8-2.2-1.5c-0.6-0.6-1-1.3-1.3-2.2c-0.3-0.8-0.4-1.7-0.4-2.7v-13.8
					c0-0.9,0.1-1.8,0.4-2.7c0.3-0.8,0.7-1.6,1.3-2.2c0.6-0.6,1.3-1.1,2.2-1.5c0.9-0.4,1.9-0.5,3.1-0.5c1.1,0,2.1,0.2,3,0.6
					c0.9,0.4,1.6,0.9,2.1,1.6c0.6,0.7,1,1.4,1.3,2.3c0.3,0.9,0.4,1.8,0.4,2.8v2H-195.6z"/>
				<path class="st12" d="M-186.4-468.5c0-0.9,0.1-1.8,0.4-2.7c0.3-0.8,0.7-1.6,1.3-2.2c0.6-0.6,1.3-1.1,2.2-1.5
					c0.9-0.4,1.9-0.5,3.1-0.5c1.2,0,2.3,0.2,3.1,0.5c0.9,0.4,1.6,0.8,2.2,1.5c0.6,0.6,1,1.3,1.3,2.2c0.3,0.8,0.4,1.7,0.4,2.7v13.8
					c0,0.9-0.1,1.8-0.4,2.7c-0.3,0.8-0.7,1.6-1.3,2.2c-0.6,0.6-1.3,1.1-2.2,1.5c-0.9,0.4-1.9,0.5-3.1,0.5c-1.2,0-2.3-0.2-3.1-0.5
					c-0.9-0.4-1.6-0.8-2.2-1.5c-0.6-0.6-1-1.3-1.3-2.2c-0.3-0.8-0.4-1.7-0.4-2.7V-468.5z M-181.8-454.8c0,1,0.2,1.8,0.5,2.2
					c0.3,0.5,1,0.7,1.9,0.7c0.9,0,1.6-0.2,1.9-0.7c0.3-0.5,0.5-1.2,0.5-2.2v-13.6c0-1-0.2-1.8-0.5-2.2c-0.3-0.5-1-0.7-1.9-0.7
					c-0.9,0-1.6,0.2-1.9,0.7c-0.3,0.5-0.5,1.2-0.5,2.2V-454.8z"/>
				<path class="st12" d="M-167.9-448.2V-475h4.3l5.6,15.3h0.1V-475h4.1v26.7h-4l-5.9-16.7h-0.1v16.7H-167.9z"/>
				<path class="st12" d="M-141.1-448.2V-475h6.6c2.8,0,4.9,0.6,6.3,1.8c1.3,1.2,2,3.2,2,6.1c0,1.4-0.2,2.6-0.5,3.6
					c-0.3,1-0.8,1.8-1.5,2.4c-0.7,0.6-1.5,1.1-2.6,1.4c-1,0.3-2.3,0.4-3.7,0.4h-2v11H-141.1z M-136.5-463h1.8c0.7,0,1.4-0.1,1.9-0.2
					c0.5-0.1,0.9-0.3,1.2-0.7c0.3-0.3,0.5-0.7,0.6-1.3c0.1-0.5,0.2-1.2,0.2-2c0-0.8-0.1-1.5-0.2-2c-0.1-0.5-0.3-0.9-0.6-1.3
					c-0.3-0.3-0.7-0.5-1.2-0.7c-0.5-0.1-1.1-0.2-1.9-0.2h-1.8V-463z"/>
				<path class="st12" d="M-119.9-448.2h-4.4l4.9-26.7h5.7l4.9,26.7h-4.4l-0.8-5.9h-5L-119.9-448.2z M-118.5-458.2h3.7l-1.8-11.5
					h-0.1L-118.5-458.2z"/>
				<path class="st12" d="M-96.9-466v-2.1c0-1.1-0.2-2-0.7-2.5c-0.4-0.5-1-0.8-1.6-0.8c-0.9,0-1.6,0.2-1.9,0.7
					c-0.3,0.5-0.5,1.2-0.5,2.2v13.6c0,1,0.2,1.8,0.5,2.2c0.3,0.5,1,0.7,1.9,0.7c0.8,0,1.4-0.2,1.7-0.7c0.3-0.5,0.5-1.1,0.5-2v-3.2
					h4.6v3.1c0,0.9-0.1,1.8-0.4,2.7c-0.3,0.8-0.7,1.6-1.3,2.2c-0.6,0.6-1.3,1.1-2.1,1.5c-0.9,0.4-1.9,0.5-3,0.5
					c-1.2,0-2.3-0.2-3.1-0.5c-0.9-0.4-1.6-0.8-2.2-1.5c-0.6-0.6-1-1.3-1.3-2.2c-0.3-0.8-0.4-1.7-0.4-2.7v-13.8
					c0-0.9,0.1-1.8,0.4-2.7c0.3-0.8,0.7-1.6,1.3-2.2c0.6-0.6,1.3-1.1,2.2-1.5c0.9-0.4,1.9-0.5,3.1-0.5c1.1,0,2.1,0.2,3,0.6
					c0.9,0.4,1.6,0.9,2.1,1.6c0.6,0.7,1,1.4,1.3,2.3c0.3,0.9,0.4,1.8,0.4,2.8v2H-96.9z"/>
				<path class="st12" d="M-87.9-448.2V-475h4.6v9.9h0.1l4.8-9.9h4.6l-5,10l5.6,16.8h-4.7l-3.7-12.4h-0.1l-1.6,3v9.5H-87.9z"/>
			</g>
			<g>
				<path class="st13" d="M-331.4-449.3V-476h12.8v4h-8.2v6.9h6.1v4h-6.1v11.9H-331.4z"/>
				<path class="st13" d="M-314.9-449.3V-476h12.3v4h-7.7v6.9h5.9v4h-5.9v7.9h8.2v4H-314.9z"/>
				<path class="st13" d="M-290.1-469.4c-0.1-0.6-0.2-1-0.3-1.4c-0.2-0.4-0.4-0.7-0.6-0.9c-0.2-0.2-0.5-0.4-0.8-0.5
					c-0.3-0.1-0.5-0.1-0.8-0.1c-0.7,0-1.3,0.2-1.7,0.7c-0.4,0.5-0.6,1.1-0.6,1.9c0,0.8,0.2,1.5,0.7,2.1c0.5,0.6,1,1.3,1.7,1.9
					c0.7,0.6,1.4,1.3,2.3,1.9c0.8,0.7,1.6,1.4,2.3,2.2c0.7,0.8,1.3,1.7,1.7,2.6c0.5,1,0.7,2,0.7,3.2c0,1.1-0.2,2.1-0.5,2.9
					c-0.4,0.9-0.9,1.6-1.5,2.1c-0.6,0.6-1.4,1-2.3,1.3c-0.9,0.3-1.9,0.4-2.9,0.4c-1.1,0-2-0.2-2.9-0.6c-0.8-0.4-1.5-0.9-2.1-1.6
					c-0.6-0.7-1-1.5-1.4-2.4c-0.3-0.9-0.5-1.8-0.6-2.9l4.4-0.6c0.1,1.4,0.4,2.4,0.9,3c0.5,0.7,1.1,1,1.9,1c0.8,0,1.4-0.2,1.9-0.6
					c0.5-0.4,0.7-1,0.7-1.8c0-0.9-0.2-1.7-0.7-2.4c-0.5-0.7-1-1.4-1.7-2c-0.7-0.6-1.4-1.3-2.3-1.9c-0.8-0.6-1.6-1.3-2.3-2.1
					c-0.7-0.8-1.3-1.6-1.7-2.6c-0.5-1-0.7-2.1-0.7-3.4c0-2.1,0.6-3.8,1.9-4.9c1.2-1.1,3-1.7,5.3-1.7c0.9,0,1.8,0.2,2.5,0.5
					c0.7,0.3,1.4,0.8,1.9,1.4c0.5,0.6,1,1.3,1.3,2.1c0.3,0.8,0.5,1.7,0.6,2.6L-290.1-469.4z"/>
				<path class="st13" d="M-279.4-472h-4.4v-4h13.5v4h-4.4v22.7h-4.6V-472z"/>
				<path class="st13" d="M-267-449.3V-476h4.6v26.7H-267z"/>
				<path class="st13" d="M-248-476h4.5l-5.6,26.7h-4.6l-5.6-26.7h4.5l3.3,18.6h0.1L-248-476z"/>
				<path class="st13" d="M-240.9-449.3V-476h12.3v4h-7.7v6.9h5.9v4h-5.9v7.9h8.2v4H-240.9z"/>
				<path class="st13" d="M-215.6-449.3V-476h4.6v26.7H-215.6z"/>
				<path class="st13" d="M-196.7-467.1v-2.1c0-1.1-0.2-2-0.7-2.5c-0.4-0.5-1-0.8-1.6-0.8c-0.9,0-1.6,0.2-1.9,0.7
					c-0.3,0.5-0.5,1.2-0.5,2.2v13.6c0,1,0.2,1.8,0.5,2.2c0.3,0.5,1,0.7,1.9,0.7c0.8,0,1.4-0.2,1.7-0.7c0.3-0.5,0.5-1.1,0.5-2v-3.2
					h4.6v3.1c0,0.9-0.1,1.8-0.4,2.7c-0.3,0.8-0.7,1.6-1.3,2.2c-0.6,0.6-1.3,1.1-2.1,1.5c-0.9,0.4-1.9,0.5-3,0.5
					c-1.2,0-2.3-0.2-3.1-0.5c-0.9-0.4-1.6-0.8-2.2-1.5c-0.6-0.6-1-1.3-1.3-2.2c-0.3-0.8-0.4-1.7-0.4-2.7v-13.8
					c0-0.9,0.1-1.8,0.4-2.7c0.3-0.8,0.7-1.6,1.3-2.2c0.6-0.6,1.3-1.1,2.2-1.5c0.9-0.4,1.9-0.5,3.1-0.5c1.1,0,2.1,0.2,3,0.6
					c0.9,0.4,1.6,0.9,2.1,1.6c0.6,0.7,1,1.4,1.3,2.3c0.3,0.9,0.4,1.8,0.4,2.8v2H-196.7z"/>
				<path class="st13" d="M-187.4-469.5c0-0.9,0.1-1.8,0.4-2.7c0.3-0.8,0.7-1.6,1.3-2.2c0.6-0.6,1.3-1.1,2.2-1.5
					c0.9-0.4,1.9-0.5,3.1-0.5c1.2,0,2.3,0.2,3.1,0.5c0.9,0.4,1.6,0.8,2.2,1.5c0.6,0.6,1,1.3,1.3,2.2c0.3,0.8,0.4,1.7,0.4,2.7v13.8
					c0,0.9-0.1,1.8-0.4,2.7c-0.3,0.8-0.7,1.6-1.3,2.2c-0.6,0.6-1.3,1.1-2.2,1.5c-0.9,0.4-1.9,0.5-3.1,0.5c-1.2,0-2.3-0.2-3.1-0.5
					c-0.9-0.4-1.6-0.8-2.2-1.5c-0.6-0.6-1-1.3-1.3-2.2c-0.3-0.8-0.4-1.7-0.4-2.7V-469.5z M-182.8-455.9c0,1,0.2,1.8,0.5,2.2
					c0.3,0.5,1,0.7,1.9,0.7c0.9,0,1.6-0.2,1.9-0.7c0.3-0.5,0.5-1.2,0.5-2.2v-13.6c0-1-0.2-1.8-0.5-2.2c-0.3-0.5-1-0.7-1.9-0.7
					c-0.9,0-1.6,0.2-1.9,0.7c-0.3,0.5-0.5,1.2-0.5,2.2V-455.9z"/>
				<path class="st13" d="M-168.9-449.3V-476h4.3l5.6,15.3h0.1V-476h4.1v26.7h-4l-5.9-16.7h-0.1v16.7H-168.9z"/>
				<path class="st13" d="M-142.2-449.3V-476h6.6c2.8,0,4.9,0.6,6.3,1.8c1.3,1.2,2,3.2,2,6.1c0,1.4-0.2,2.6-0.5,3.6
					c-0.3,1-0.8,1.8-1.5,2.4c-0.7,0.6-1.5,1.1-2.6,1.4c-1.1,0.3-2.3,0.4-3.7,0.4h-2v11H-142.2z M-137.6-464h1.8
					c0.7,0,1.4-0.1,1.9-0.2c0.5-0.1,0.9-0.3,1.2-0.7c0.3-0.3,0.5-0.7,0.6-1.3c0.1-0.5,0.2-1.2,0.2-2c0-0.8-0.1-1.4-0.2-2
					c-0.1-0.5-0.3-1-0.6-1.3c-0.3-0.3-0.7-0.5-1.2-0.7c-0.5-0.1-1.1-0.2-1.9-0.2h-1.8V-464z"/>
				<path class="st13" d="M-121-449.3h-4.4l4.9-26.7h5.7l4.9,26.7h-4.4l-0.8-5.9h-5L-121-449.3z M-119.5-459.2h3.7l-1.8-11.5h-0.1
					L-119.5-459.2z"/>
				<path class="st13" d="M-97.9-467.1v-2.1c0-1.1-0.2-2-0.7-2.5c-0.4-0.5-1-0.8-1.6-0.8c-0.9,0-1.6,0.2-1.9,0.7
					c-0.3,0.5-0.5,1.2-0.5,2.2v13.6c0,1,0.2,1.8,0.5,2.2c0.3,0.5,1,0.7,1.9,0.7c0.8,0,1.4-0.2,1.7-0.7c0.3-0.5,0.5-1.1,0.5-2v-3.2
					h4.6v3.1c0,0.9-0.1,1.8-0.4,2.7c-0.3,0.8-0.7,1.6-1.3,2.2c-0.6,0.6-1.3,1.1-2.1,1.5c-0.9,0.4-1.9,0.5-3,0.5
					c-1.2,0-2.3-0.2-3.1-0.5c-0.9-0.4-1.6-0.8-2.2-1.5c-0.6-0.6-1-1.3-1.3-2.2c-0.3-0.8-0.4-1.7-0.4-2.7v-13.8
					c0-0.9,0.1-1.8,0.4-2.7c0.3-0.8,0.7-1.6,1.3-2.2c0.6-0.6,1.3-1.1,2.2-1.5c0.9-0.4,1.9-0.5,3.1-0.5c1.1,0,2.1,0.2,3,0.6
					c0.9,0.4,1.6,0.9,2.1,1.6c0.6,0.7,1,1.4,1.3,2.3c0.3,0.9,0.4,1.8,0.4,2.8v2H-97.9z"/>
				<path class="st13" d="M-88.9-449.3V-476h4.6v9.9h0.1l4.8-9.9h4.6l-5,10l5.6,16.8h-4.7l-3.7-12.4h-0.1l-1.6,3v9.5H-88.9z"/>
			</g>
		</g>
		<g>
			<g>
				<g>
					<path class="st12" d="M-275.8-403.6v-2.4c1-1.4,1.8-2.6,2.5-3.7c0.7-1.1,1.3-2.1,1.8-3c0.5-0.9,0.9-1.7,1.1-2.4
						c0.3-0.7,0.4-1.4,0.4-2.1c0-0.7-0.1-1.2-0.4-1.5c-0.2-0.3-0.6-0.5-1-0.5c-0.5,0-0.9,0.2-1.1,0.5c-0.2,0.3-0.4,0.8-0.4,1.3v1.2
						h-2.9v-0.8c0-0.7,0.1-1.3,0.3-1.8c0.2-0.6,0.5-1,0.9-1.5c0.4-0.4,0.9-0.7,1.4-1c0.6-0.2,1.2-0.4,1.9-0.4c0.6,0,1.2,0.1,1.7,0.3
						c0.5,0.2,0.9,0.5,1.3,0.9c0.4,0.4,0.6,0.8,0.8,1.3c0.2,0.5,0.3,1,0.3,1.5c0,0.7-0.1,1.4-0.2,2.1c-0.1,0.7-0.4,1.4-0.8,2.3
						c-0.4,0.9-1,1.9-1.7,3c-0.7,1.2-1.7,2.6-2.9,4.2h5.4v2.5H-275.8z"/>
					<path class="st12" d="M-263.6-416.8c0-1.7,0.3-2.9,1-3.7c0.7-0.8,1.8-1.2,3.3-1.2c1.5,0,2.7,0.4,3.3,1.2c0.7,0.8,1,2,1,3.7v8.5
						c0,1.7-0.3,2.9-1,3.7c-0.7,0.8-1.8,1.2-3.3,1.2c-1.5,0-2.7-0.4-3.3-1.2c-0.7-0.8-1-2-1-3.7V-416.8z M-257.8-417.6
						c0-1.1-0.5-1.7-1.4-1.7c-1,0-1.4,0.6-1.4,1.7v10.1c0,1.1,0.5,1.7,1.4,1.7c1,0,1.4-0.6,1.4-1.7V-417.6z"/>
					<path class="st12" d="M-244.3-403.6v-17.8h8.5v2.7h-5.5v4.6h4.1v2.7h-4.1v7.9H-244.3z"/>
					<path class="st12" d="M-229-403.6h-3.1v-17.8h4.3c1.7,0,3,0.4,3.9,1.2c0.9,0.8,1.3,2.2,1.3,4c0,0.7-0.1,1.3-0.2,1.9
						c-0.1,0.5-0.3,0.9-0.5,1.3c-0.2,0.4-0.4,0.6-0.7,0.9c-0.3,0.2-0.5,0.4-0.8,0.5l2.6,8.1h-3.1l-2.2-7.4c-0.2,0-0.4,0.1-0.7,0.1
						c-0.3,0-0.6,0-0.9,0V-403.6z M-229-413.5h1.1c0.4,0,0.8,0,1-0.1c0.3-0.1,0.5-0.2,0.7-0.4c0.2-0.2,0.3-0.5,0.4-0.9
						c0.1-0.4,0.1-0.8,0.1-1.3c0-1.1-0.2-1.8-0.5-2.2c-0.3-0.4-0.9-0.6-1.8-0.6h-1.1V-413.5z"/>
					<path class="st12" d="M-218.5-403.6v-17.8h8.2v2.7h-5.1v4.6h4v2.7h-4v5.2h5.5v2.7H-218.5z"/>
					<path class="st12" d="M-206.3-403.6v-17.8h8.2v2.7h-5.1v4.6h3.9v2.7h-3.9v5.2h5.5v2.7H-206.3z"/>
					<path class="st12" d="M-187-403.6v-17.8h3.1v17.8H-187z"/>
					<path class="st12" d="M-173.1-415.5v-1.4c0-0.8-0.2-1.3-0.4-1.6c-0.3-0.3-0.6-0.5-1-0.5c-0.6,0-1.1,0.2-1.3,0.5
						c-0.2,0.3-0.3,0.8-0.3,1.5v9c0,0.7,0.1,1.2,0.3,1.5c0.2,0.3,0.7,0.5,1.3,0.5c0.6,0,0.9-0.2,1.2-0.5c0.2-0.3,0.3-0.8,0.3-1.3
						v-2.1h3.1v2c0,0.6-0.1,1.2-0.3,1.8c-0.2,0.6-0.5,1-0.8,1.5c-0.4,0.4-0.8,0.7-1.4,1c-0.6,0.2-1.2,0.4-2,0.4
						c-0.8,0-1.5-0.1-2.1-0.4c-0.6-0.2-1.1-0.6-1.5-1c-0.4-0.4-0.7-0.9-0.9-1.5c-0.2-0.6-0.3-1.2-0.3-1.8v-9.2
						c0-0.6,0.1-1.2,0.3-1.8c0.2-0.6,0.5-1,0.9-1.5c0.4-0.4,0.9-0.7,1.5-1c0.6-0.2,1.3-0.4,2.1-0.4c0.8,0,1.4,0.1,2,0.4
						c0.6,0.3,1.1,0.6,1.4,1.1c0.4,0.4,0.6,1,0.8,1.6c0.2,0.6,0.3,1.2,0.3,1.9v1.3H-173.1z"/>
					<path class="st12" d="M-165.7-417.2c0-0.6,0.1-1.2,0.3-1.8c0.2-0.6,0.5-1,0.9-1.5c0.4-0.4,0.9-0.7,1.5-1
						c0.6-0.2,1.3-0.4,2.1-0.4c0.8,0,1.5,0.1,2.1,0.4c0.6,0.2,1.1,0.6,1.5,1c0.4,0.4,0.7,0.9,0.9,1.5c0.2,0.6,0.3,1.2,0.3,1.8v9.2
						c0,0.6-0.1,1.2-0.3,1.8c-0.2,0.6-0.5,1-0.9,1.5c-0.4,0.4-0.9,0.7-1.5,1c-0.6,0.2-1.3,0.4-2.1,0.4c-0.8,0-1.5-0.1-2.1-0.4
						c-0.6-0.2-1.1-0.6-1.5-1c-0.4-0.4-0.7-0.9-0.9-1.5c-0.2-0.6-0.3-1.2-0.3-1.8V-417.2z M-162.7-408c0,0.7,0.1,1.2,0.3,1.5
						c0.2,0.3,0.7,0.5,1.3,0.5c0.6,0,1.1-0.2,1.3-0.5c0.2-0.3,0.3-0.8,0.3-1.5v-9c0-0.7-0.1-1.2-0.3-1.5c-0.2-0.3-0.7-0.5-1.3-0.5
						c-0.6,0-1.1,0.2-1.3,0.5c-0.2,0.3-0.3,0.8-0.3,1.5V-408z"/>
					<path class="st12" d="M-152.1-403.6v-17.8h2.8l3.7,10.2h0v-10.2h2.8v17.8h-2.7l-3.9-11.1h0v11.1H-152.1z"/>
					<path class="st12" d="M-133-417.1c0-0.4-0.1-0.7-0.2-1c-0.1-0.3-0.2-0.5-0.4-0.6c-0.2-0.1-0.3-0.3-0.5-0.3
						c-0.2-0.1-0.4-0.1-0.5-0.1c-0.5,0-0.9,0.2-1.1,0.5c-0.3,0.3-0.4,0.7-0.4,1.3c0,0.5,0.2,1,0.5,1.4s0.7,0.9,1.1,1.3
						c0.5,0.4,1,0.9,1.5,1.3c0.5,0.4,1,0.9,1.5,1.4c0.5,0.5,0.8,1.1,1.1,1.7c0.3,0.6,0.5,1.4,0.5,2.2c0,0.7-0.1,1.4-0.4,2
						c-0.2,0.6-0.6,1-1,1.4c-0.4,0.4-0.9,0.7-1.5,0.9c-0.6,0.2-1.3,0.3-2,0.3c-0.7,0-1.3-0.1-1.9-0.4c-0.6-0.3-1-0.6-1.4-1.1
						c-0.4-0.5-0.7-1-0.9-1.6c-0.2-0.6-0.3-1.2-0.4-1.9l2.9-0.4c0.1,0.9,0.3,1.6,0.6,2c0.3,0.4,0.7,0.7,1.2,0.7c0.5,0,1-0.1,1.3-0.4
						c0.3-0.3,0.5-0.7,0.5-1.2c0-0.6-0.2-1.1-0.5-1.6c-0.3-0.5-0.7-0.9-1.1-1.3c-0.5-0.4-1-0.9-1.5-1.3c-0.5-0.4-1-0.9-1.5-1.4
						c-0.5-0.5-0.8-1.1-1.1-1.7c-0.3-0.6-0.5-1.4-0.5-2.2c0-1.4,0.4-2.5,1.2-3.3c0.8-0.8,2-1.1,3.5-1.1c0.6,0,1.2,0.1,1.7,0.3
						c0.5,0.2,0.9,0.5,1.3,0.9c0.4,0.4,0.6,0.8,0.9,1.4c0.2,0.5,0.4,1.1,0.4,1.7L-133-417.1z"/>
				</g>
			</g>
			<g>
				<g>
					<path class="st3" d="M-276.8-404.7v-2.4c1-1.4,1.8-2.6,2.5-3.7c0.7-1.1,1.3-2.1,1.8-3c0.5-0.9,0.9-1.7,1.1-2.4
						c0.3-0.7,0.4-1.4,0.4-2.1c0-0.7-0.1-1.2-0.4-1.5c-0.2-0.3-0.6-0.5-1-0.5c-0.5,0-0.9,0.2-1.1,0.5c-0.2,0.3-0.4,0.8-0.4,1.3v1.2
						h-2.9v-0.8c0-0.7,0.1-1.3,0.3-1.8c0.2-0.6,0.5-1,0.9-1.5c0.4-0.4,0.9-0.7,1.4-1c0.6-0.2,1.2-0.4,1.9-0.4c0.6,0,1.2,0.1,1.7,0.3
						c0.5,0.2,0.9,0.5,1.3,0.9c0.4,0.4,0.6,0.8,0.8,1.3c0.2,0.5,0.3,1,0.3,1.5c0,0.7-0.1,1.4-0.2,2.1c-0.1,0.7-0.4,1.4-0.8,2.3
						c-0.4,0.9-1,1.9-1.7,3c-0.7,1.2-1.7,2.6-2.9,4.2h5.4v2.5H-276.8z"/>
					<path class="st3" d="M-264.6-417.9c0-1.7,0.3-2.9,1-3.7c0.7-0.8,1.8-1.2,3.3-1.2c1.5,0,2.7,0.4,3.3,1.2c0.7,0.8,1,2,1,3.7v8.5
						c0,1.7-0.3,2.9-1,3.7c-0.7,0.8-1.8,1.2-3.3,1.2c-1.5,0-2.7-0.4-3.3-1.2c-0.7-0.8-1-2-1-3.7V-417.9z M-258.8-418.6
						c0-1.1-0.5-1.7-1.4-1.7c-1,0-1.4,0.6-1.4,1.7v10.1c0,1.1,0.5,1.7,1.4,1.7c1,0,1.4-0.6,1.4-1.7V-418.6z"/>
					<path class="st3" d="M-245.3-404.7v-17.8h8.5v2.7h-5.5v4.6h4.1v2.7h-4.1v7.9H-245.3z"/>
					<path class="st3" d="M-230.1-404.7h-3.1v-17.8h4.3c1.7,0,3,0.4,3.9,1.2c0.9,0.8,1.3,2.2,1.3,4c0,0.7-0.1,1.3-0.2,1.9
						c-0.1,0.5-0.3,0.9-0.5,1.3c-0.2,0.4-0.4,0.6-0.7,0.9c-0.3,0.2-0.5,0.4-0.8,0.5l2.6,8.1h-3.1l-2.2-7.4c-0.2,0-0.4,0.1-0.7,0.1
						c-0.3,0-0.6,0-0.9,0V-404.7z M-230.1-414.5h1.1c0.4,0,0.8,0,1-0.1c0.3-0.1,0.5-0.2,0.7-0.4c0.2-0.2,0.3-0.5,0.4-0.9
						c0.1-0.4,0.1-0.8,0.1-1.3c0-1.1-0.2-1.8-0.5-2.2c-0.3-0.4-0.9-0.6-1.8-0.6h-1.1V-414.5z"/>
					<path class="st3" d="M-219.5-404.7v-17.8h8.2v2.7h-5.1v4.6h3.9v2.7h-3.9v5.2h5.5v2.7H-219.5z"/>
					<path class="st3" d="M-207.3-404.7v-17.8h8.2v2.7h-5.1v4.6h4v2.7h-4v5.2h5.5v2.7H-207.3z"/>
					<path class="st3" d="M-188-404.7v-17.8h3.1v17.8H-188z"/>
					<path class="st3" d="M-174.2-416.6v-1.4c0-0.8-0.1-1.3-0.4-1.6c-0.3-0.3-0.6-0.5-1-0.5c-0.6,0-1.1,0.2-1.3,0.5
						c-0.2,0.3-0.3,0.8-0.3,1.5v9c0,0.7,0.1,1.2,0.3,1.5c0.2,0.3,0.7,0.5,1.3,0.5c0.6,0,0.9-0.2,1.2-0.5c0.2-0.3,0.3-0.8,0.3-1.3
						v-2.1h3.1v2c0,0.6-0.1,1.2-0.3,1.8c-0.2,0.6-0.5,1-0.8,1.5c-0.4,0.4-0.8,0.7-1.4,1c-0.6,0.2-1.2,0.4-2,0.4
						c-0.8,0-1.5-0.1-2.1-0.4c-0.6-0.2-1.1-0.6-1.5-1c-0.4-0.4-0.7-0.9-0.9-1.5c-0.2-0.6-0.3-1.2-0.3-1.8v-9.2
						c0-0.6,0.1-1.2,0.3-1.8c0.2-0.6,0.5-1,0.9-1.5c0.4-0.4,0.9-0.7,1.5-1c0.6-0.2,1.3-0.4,2.1-0.4c0.8,0,1.4,0.1,2,0.4
						c0.6,0.3,1,0.6,1.4,1.1c0.4,0.4,0.7,1,0.8,1.6c0.2,0.6,0.3,1.2,0.3,1.9v1.3H-174.2z"/>
					<path class="st3" d="M-166.8-418.2c0-0.6,0.1-1.2,0.3-1.8c0.2-0.6,0.5-1,0.9-1.5c0.4-0.4,0.9-0.7,1.5-1
						c0.6-0.2,1.3-0.4,2.1-0.4c0.8,0,1.5,0.1,2.1,0.4c0.6,0.2,1.1,0.6,1.5,1c0.4,0.4,0.7,0.9,0.9,1.5c0.2,0.6,0.3,1.2,0.3,1.8v9.2
						c0,0.6-0.1,1.2-0.3,1.8c-0.2,0.6-0.5,1-0.9,1.5c-0.4,0.4-0.9,0.7-1.5,1c-0.6,0.2-1.3,0.4-2.1,0.4c-0.8,0-1.5-0.1-2.1-0.4
						c-0.6-0.2-1.1-0.6-1.5-1c-0.4-0.4-0.7-0.9-0.9-1.5c-0.2-0.6-0.3-1.2-0.3-1.8V-418.2z M-163.7-409.1c0,0.7,0.1,1.2,0.3,1.5
						c0.2,0.3,0.7,0.5,1.3,0.5c0.6,0,1.1-0.2,1.3-0.5c0.2-0.3,0.3-0.8,0.3-1.5v-9c0-0.7-0.1-1.2-0.3-1.5c-0.2-0.3-0.7-0.5-1.3-0.5
						c-0.6,0-1.1,0.2-1.3,0.5c-0.2,0.3-0.3,0.8-0.3,1.5V-409.1z"/>
					<path class="st3" d="M-153.2-404.7v-17.8h2.8l3.7,10.2h0v-10.2h2.8v17.8h-2.7l-3.9-11.1h0v11.1H-153.2z"/>
					<path class="st3" d="M-134-418.1c0-0.4-0.1-0.7-0.2-1c-0.1-0.3-0.2-0.5-0.4-0.6c-0.2-0.1-0.3-0.3-0.5-0.3
						c-0.2-0.1-0.4-0.1-0.5-0.1c-0.5,0-0.9,0.2-1.1,0.5c-0.3,0.3-0.4,0.7-0.4,1.3c0,0.5,0.2,1,0.5,1.4c0.3,0.4,0.7,0.9,1.1,1.3
						c0.5,0.4,1,0.9,1.5,1.3c0.5,0.4,1,0.9,1.5,1.4c0.5,0.5,0.8,1.1,1.1,1.7c0.3,0.6,0.5,1.4,0.5,2.2c0,0.7-0.1,1.4-0.4,2
						c-0.2,0.6-0.6,1-1,1.4c-0.4,0.4-0.9,0.7-1.5,0.9c-0.6,0.2-1.3,0.3-2,0.3c-0.7,0-1.3-0.1-1.9-0.4c-0.6-0.3-1-0.6-1.4-1.1
						c-0.4-0.5-0.7-1-0.9-1.6c-0.2-0.6-0.3-1.2-0.4-1.9l2.9-0.4c0.1,0.9,0.3,1.6,0.6,2c0.3,0.4,0.7,0.7,1.2,0.7c0.5,0,1-0.1,1.3-0.4
						c0.3-0.3,0.5-0.7,0.5-1.2c0-0.6-0.2-1.1-0.5-1.6c-0.3-0.5-0.7-0.9-1.1-1.3c-0.5-0.4-1-0.9-1.5-1.3c-0.5-0.4-1-0.9-1.5-1.4
						c-0.5-0.5-0.8-1.1-1.1-1.7c-0.3-0.6-0.5-1.4-0.5-2.2c0-1.4,0.4-2.5,1.2-3.3c0.8-0.8,2-1.1,3.5-1.1c0.6,0,1.2,0.1,1.7,0.3
						c0.5,0.2,0.9,0.5,1.3,0.9c0.4,0.4,0.6,0.8,0.9,1.4c0.2,0.5,0.4,1.1,0.4,1.7L-134-418.1z"/>
				</g>
			</g>
		</g>
		<line class="st14" x1="-363.5" y1="-434.7" x2="-43.5" y2="-434.7"/>
		<line class="st14" x1="-363.5" y1="-393.6" x2="-43.5" y2="-393.6"/>
	</g>
</g>
</svg>
