<?xml version="1.0" encoding="iso-8859-1"?>
<!-- Generator: Adobe Illustrator 19.0.0, SVG Export Plug-In . SVG Version: 6.00 Build 0)  -->
<svg version="1.1" id="Capa_1" xmlns="http://www.w3.org/2000/svg" xmlns:xlink="http://www.w3.org/1999/xlink" x="0px" y="0px"
	 viewBox="0 0 512 512" style="enable-background:new 0 0 512 512;" xml:space="preserve">
<path style="fill:#FEA832;" d="M451,316.971c0,21-7.2,41.4-20.4,60H61v-60c0-74.401,87.599-135,195-135
	c14.7,0,29.399,1.199,43.5,3.3l94.2,35.7C430.6,246.47,451,280.37,451,316.971z"/>
<path style="fill:#E50027;" d="M181,421.971L181,421.971c-33.137,0-60-26.863-60-60l0,0c0-33.137,26.863-60,60-60l0,0
	c33.137,0,60,26.863,60,60l0,0C241,395.108,214.137,421.971,181,421.971z"/>
<path style="fill:#FE9923;" d="M451,316.971c0,21-7.2,41.4-20.4,60H256v-195c14.7,0,29.399,1.199,43.5,3.3l94.2,35.7
	C430.6,246.47,451,280.37,451,316.971z"/>
<path style="fill:#CCEFFF;" d="M446.499,147.47l-38.699,39c-5.7,5.7-15.3,5.7-21.301,0c-5.7-5.999-5.7-15.599,0-21.299L425.5,126.47
	c5.7-5.999,15.298-5.999,20.999,0C452.5,132.17,452.5,141.77,446.499,147.47z"/>
<path style="fill:#ACE3FC;" d="M446.499,147.47l-38.699,39c-5.7,5.7-15.3,5.7-21.301,0l60-60
	C452.5,132.17,452.5,141.77,446.499,147.47z"/>
<path style="fill:#FEC478;" d="M407.8,165.171c-17.701-17.701-46.199-17.401-63.9,0.3c-8.699,8.699-20.7,15.899-33.3,16.8
	c-19.501,1.199-36.899,9.899-49.501,23.399c-27.599,29.7-26.699,75.601,1.8,104.399c28.801,28.5,74.7,29.401,104.401,1.8
	c13.499-12.599,22.2-30,23.399-49.799c0.901-12.599,8.101-24.3,17.1-33.3C425.501,211.37,425.501,182.57,407.8,165.171z"/>
<path style="fill:#FEB756;" d="M407.8,228.771c-9,9-16.199,20.7-17.1,33.3c-1.199,19.799-9.901,37.2-23.399,49.799
	c-29.702,27.601-75.601,26.7-104.401-1.8l144.9-144.899C425.501,182.57,425.501,211.37,407.8,228.771z"/>
<path style="fill:#FEC478;" d="M479.2,93.771c-5.7-18.3-22.8-31.8-43.2-31.8c-24.901,0-45,20.099-45,45c0,20.4,13.5,37.5,31.8,43.2
	c5.7,18.3,22.8,31.8,43.2,31.8c24.901,0,46-20.101,46-45C512,116.571,497.5,99.471,479.2,93.771z"/>
<path style="fill:#FEB756;" d="M512,136.971c0,24.899-21.099,45-46,45c-20.4,0-37.5-13.5-43.2-31.8l56.4-56.4
	C497.5,99.471,512,116.571,512,136.971z"/>
<path style="fill:#FD003A;" d="M91,421.971L91,421.971c-33.137,0-60-26.863-60-60l0,0c0-33.137,26.863-60,60-60l0,0
	c33.137,0,60,26.863,60,60l0,0C151,395.108,124.137,421.971,91,421.971z"/>
<path style="fill:#CCEFFF;" d="M436,421.971H76c-8.401,0-15,6.599-15,15v30c0,24.899,20.099,45,45,45h300c24.901,0,45-20.101,45-45
	v-30C451,428.57,444.401,421.971,436,421.971z"/>
<path style="fill:#ACE3FC;" d="M451,436.971v30c0,24.899-20.099,45-45,45H256v-90h180C444.401,421.971,451,428.57,451,436.971z"/>
<g>
	<path style="fill:#CCEFFF;" d="M130.067,2.56c-6.929-4.614-16.23-2.739-20.801,4.16c-4.6,6.899-2.725,16.216,4.16,20.801
		c5.962,3.97,9.375,12.356,9.375,19.52s-3.413,14.55-9.375,18.52c-14.238,9.492-22.734,25.371-22.734,42.48
		s8.496,32.988,22.734,42.48c7.01,4.646,16.277,2.637,20.801-4.16c4.6-6.899,2.739-16.201-4.16-20.801
		c-5.962-3.97-9.375-10.356-9.375-17.52s3.413-13.55,9.375-17.52c14.238-9.492,22.734-26.371,22.734-43.48
		S144.306,12.052,130.067,2.56z"/>
	<path style="fill:#CCEFFF;" d="M220.067,2.56c-6.914-4.614-16.216-2.739-20.801,4.16c-4.6,6.899-2.725,16.216,4.16,20.801
		c5.962,3.97,9.375,12.356,9.375,19.52s-3.413,14.55-9.375,18.52c-14.238,9.492-22.734,25.371-22.734,42.48
		s8.496,32.988,22.734,42.48c7.01,4.646,16.277,2.637,20.801-4.16c4.6-6.899,2.739-16.201-4.16-20.801
		c-5.962-3.97-9.375-10.356-9.375-17.52s3.413-13.55,9.375-17.52c14.238-9.492,22.734-26.371,22.734-43.48
		S234.306,12.052,220.067,2.56z"/>
</g>
<path style="fill:#ACE3FC;" d="M332.802,47.04c0-17.109-8.496-34.988-22.734-44.48c-6.943-4.614-16.216-2.739-20.801,4.16
	c-4.6,6.899-2.725,16.216,4.16,20.801c5.962,3.97,9.375,12.356,9.375,19.52s-3.413,14.55-9.375,18.52
	c-14.238,9.492-22.734,25.371-22.734,42.48s8.496,32.988,22.734,42.48c7.01,4.646,16.277,2.637,20.801-4.16
	c4.6-6.899,2.739-16.201-4.16-20.801c-5.962-3.97-9.375-10.356-9.375-17.52s3.413-13.55,9.375-17.52
	C324.306,81.029,332.802,64.15,332.802,47.04z"/>
<path style="fill:#DCF4FF;" d="M497,361.971H15c-8.401,0-15,6.599-15,15c0,41.4,34.6,75,76,75h360c41.4,0,76-33.6,76-75
	C512,368.57,505.401,361.971,497,361.971z"/>
<path style="fill:#CCEFFF;" d="M512,376.971c0,41.4-34.6,75-76,75H256v-90h241C505.401,361.971,512,368.57,512,376.971z"/>
<g>
</g>
<g>
</g>
<g>
</g>
<g>
</g>
<g>
</g>
<g>
</g>
<g>
</g>
<g>
</g>
<g>
</g>
<g>
</g>
<g>
</g>
<g>
</g>
<g>
</g>
<g>
</g>
<g>
</g>
</svg>
