<?xml version="1.0" encoding="iso-8859-1"?>
<!-- Generator: Adobe Illustrator 19.0.0, SVG Export Plug-In . SVG Version: 6.00 Build 0)  -->
<svg version="1.1" id="Capa_1" xmlns="http://www.w3.org/2000/svg" xmlns:xlink="http://www.w3.org/1999/xlink" x="0px" y="0px"
	 viewBox="0 0 512 512" style="enable-background:new 0 0 512 512;" xml:space="preserve">
<path style="fill:#FD003A;" d="M256,0c-74.399,0-136,61.601-136,136c0,8.401,6.599,15,15,15h242c8.401,0,15-6.599,15-15
	C392,61.601,330.399,0,256,0z"/>
<path style="fill:#E50027;" d="M392,136c0,8.401-6.599,15-15,15H256V0C330.399,0,392,61.601,392,136z"/>
<path style="fill:#C85F03;" d="M75,271L75,271c-41.421,0-75-33.579-75-75l0,0c0-41.421,33.579-75,75-75l0,0
	c41.421,0,75,33.579,75,75l0,0C150,237.421,116.421,271,75,271z"/>
<g>
	<path style="fill:#994C0F;" d="M75,241c-24.814,0-45-20.186-45-45s20.186-45,45-45s45,20.186,45,45S99.814,241,75,241z"/>
	<path style="fill:#994C0F;" d="M437,271L437,271c-41.421,0-75-33.579-75-75l0,0c0-41.421,33.579-75,75-75l0,0
		c41.421,0,75,33.579,75,75l0,0C512,237.421,478.421,271,437,271z"/>
</g>
<path style="fill:#713708;" d="M437,241c-24.814,0-45-20.186-45-45s20.186-45,45-45s45,20.186,45,45S461.814,241,437,241z"/>
<path style="fill:#E4741B;" d="M452,316c0,107.701-88.299,196-196,196S60,423.701,60,316c0-69.6,36.599-130.499,91.5-165h209
	C415.401,185.501,452,246.4,452,316z"/>
<path style="fill:#BF6015;" d="M452,316c0,107.701-88.299,196-196,196V151h104.5C415.401,185.501,452,246.4,452,316z"/>
<circle style="fill:#994C0F;" cx="195" cy="256" r="15"/>
<circle style="fill:#713708;" cx="317" cy="256" r="15"/>
<path style="fill:#C85F03;" d="M256,271c-57.9,0-106,40.499-106,90s48.1,90,106,90s106-40.499,106-90S313.9,271,256,271z"/>
<g>
	<path style="fill:#994C0F;" d="M362,361c0,49.501-48.1,90-106,90V271C313.9,271,362,311.499,362,361z"/>
	<path style="fill:#994C0F;" d="M271,346v60c0,8.401-6.599,15-15,15s-15-6.599-15-15v-60c0-8.401,6.599-15,15-15
		S271,337.599,271,346z"/>
</g>
<path style="fill:#CCEFFF;" d="M422,151c0,16.5-13.5,30-30,30H120c-16.5,0-30-13.5-30-30s13.5-30,30-30h272
	C408.5,121,422,134.5,422,151z"/>
<path style="fill:#ACE3FC;" d="M422,151c0,16.5-13.5,30-30,30H256v-60h136C408.5,121,422,134.5,422,151z"/>
<path style="fill:#713708;" d="M271,346v60c0,8.401-6.599,15-15,15v-90C264.401,331,271,337.599,271,346z"/>
<path style="fill:#994C0F;" d="M256,271c-24.901,0-46,20.099-46,45s21.099,45,46,45s46-20.099,46-45S280.901,271,256,271z"/>
<path style="fill:#713708;" d="M302,316c0,24.901-21.099,45-46,45v-90C280.901,271,302,291.099,302,316z"/>
<g>
</g>
<g>
</g>
<g>
</g>
<g>
</g>
<g>
</g>
<g>
</g>
<g>
</g>
<g>
</g>
<g>
</g>
<g>
</g>
<g>
</g>
<g>
</g>
<g>
</g>
<g>
</g>
<g>
</g>
</svg>
