<?xml version="1.0" encoding="utf-8"?>
<!-- Generator: Adobe Illustrator 21.0.2, SVG Export Plug-In . SVG Version: 6.00 Build 0)  -->
<svg version="1.1" xmlns="http://www.w3.org/2000/svg" xmlns:xlink="http://www.w3.org/1999/xlink" x="0px" y="0px"
	 viewBox="0 0 121.9 101.6" style="enable-background:new 0 0 121.9 101.6;" xml:space="preserve">
<style type="text/css">
	.st0{fill:#A29F9D;}
	.st1{fill:#8EBF22;}
	.st2{fill:#FEC92C;}
	.st3{fill:#DA2B18;}
	.st4{fill:#FFFFFF;}
	.st5{fill:#C6C3C2;}
	.st6{fill:#B5E1FA;}
	.st7{fill:#905D24;}
	.st8{fill:#FCD1A0;}
	.st9{fill:#6FBFEB;}
	.st10{fill:#CD6116;}
	.st11{display:none;fill:#FFFFFF;}
	.st12{fill:#D6D4D4;}
	.st13{fill:#5C5856;}
	.st14{fill:none;stroke:#A29F9D;stroke-width:0.2572;stroke-miterlimit:10;}
</style>
<g id="text_1_">
	<g>
		<g>
			<path class="st0" d="M-82.2-202.6h1v3.2h0c0.3-0.7,1.1-1,2-1c1.9,0,2.9,1.5,2.9,3.3c0,1.8-0.9,3.2-2.8,3.2c-0.6,0-1.5-0.2-2-1h0
				v0.8h-1V-202.6z M-79.4-199.5c-1.4,0-1.9,1.2-1.9,2.3c0,1.2,0.6,2.4,2,2.4c1.4,0,1.9-1.2,1.9-2.4
				C-77.4-198.3-78-199.5-79.4-199.5z"/>
			<path class="st0" d="M-69.5-194c-0.2,0.1-0.4,0.2-0.7,0.2c-0.5,0-0.9-0.3-0.9-1c-0.6,0.7-1.3,1-2.2,1c-1.1,0-2.1-0.5-2.1-1.7
				c0-1.4,1-1.7,2.1-1.9c1.1-0.2,2.1-0.1,2.1-0.9c0-0.9-0.7-1-1.4-1c-0.9,0-1.5,0.3-1.5,1.2h-1c0.1-1.5,1.2-2.1,2.6-2.1
				c1.1,0,2.3,0.3,2.3,1.7v3.2c0,0.5,0,0.7,0.3,0.7c0.1,0,0.2,0,0.3-0.1V-194z M-71.2-197.2c-0.4,0.3-1.2,0.3-1.8,0.4
				c-0.7,0.1-1.2,0.4-1.2,1.1c0,0.7,0.6,0.9,1.2,0.9c1.3,0,1.9-0.8,1.9-1.4V-197.2z"/>
			<path class="st0" d="M-63.3-194h-1v-1h0c-0.4,0.8-1.1,1.1-2,1.1c-1.6,0-2.1-0.9-2.1-2.3v-4.1h1v4.2c0,0.8,0.5,1.2,1.3,1.2
				c1.2,0,1.8-0.8,1.8-1.9v-3.5h1V-194z"/>
			<path class="st0" d="M-61.6-202.6h1v3.2h0c0.3-0.7,1.1-1,2-1c1.9,0,2.9,1.5,2.9,3.3c0,1.8-0.9,3.2-2.8,3.2c-0.6,0-1.5-0.2-2-1h0
				v0.8h-1V-202.6z M-58.8-199.5c-1.4,0-1.9,1.2-1.9,2.3c0,1.2,0.6,2.4,2,2.4c1.4,0,1.9-1.2,1.9-2.4
				C-56.8-198.3-57.4-199.5-58.8-199.5z"/>
			<path class="st0" d="M-54.4-202.6h1v8.6h-1V-202.6z"/>
			<path class="st0" d="M-46.4-196c-0.3,1.4-1.3,2.1-2.7,2.1c-2,0-2.9-1.4-3-3.3c0-1.9,1.2-3.2,2.9-3.2c2.2,0,2.9,2.1,2.8,3.6h-4.6
				c0,1.1,0.6,2,1.9,2c0.8,0,1.4-0.4,1.6-1.2H-46.4z M-47.4-197.7c0-1-0.8-1.8-1.8-1.8c-1.1,0-1.7,0.8-1.8,1.8H-47.4z"/>
		</g>
	</g>
	<g>
		<g>
			<path class="st0" d="M54.7-202.6h1v3.2h0c0.3-0.7,1.1-1,2-1c1.9,0,2.9,1.5,2.9,3.3c0,1.8-0.9,3.2-2.8,3.2c-0.6,0-1.5-0.2-2-1h0
				v0.8h-1V-202.6z M57.5-199.5c-1.4,0-1.9,1.2-1.9,2.3c0,1.2,0.6,2.4,2,2.4c1.4,0,1.9-1.2,1.9-2.4
				C59.4-198.3,58.8-199.5,57.5-199.5z"/>
			<path class="st0" d="M67.1-196c-0.3,1.4-1.3,2.1-2.7,2.1c-2,0-2.9-1.4-3-3.3c0-1.9,1.2-3.2,2.9-3.2c2.2,0,2.9,2.1,2.8,3.6h-4.6
				c0,1.1,0.6,2,1.9,2c0.8,0,1.4-0.4,1.6-1.2H67.1z M66.2-197.7c0-1-0.8-1.8-1.8-1.8c-1.1,0-1.7,0.8-1.8,1.8H66.2z"/>
			<path class="st0" d="M68.5-202.6h1v8.6h-1V-202.6z"/>
			<path class="st0" d="M71.3-202.6h1v8.6h-1V-202.6z"/>
		</g>
	</g>
	<g>
		<g>
			<path class="st0" d="M173.3-202.6h1v3.2h0c0.3-0.7,1.1-1,2-1c1.9,0,2.9,1.5,2.9,3.3c0,1.8-0.9,3.2-2.8,3.2c-0.6,0-1.5-0.2-2-1h0
				v0.8h-1V-202.6z M176.2-199.5c-1.4,0-1.9,1.2-1.9,2.3c0,1.2,0.6,2.4,2,2.4c1.4,0,1.9-1.2,1.9-2.4
				C178.1-198.3,177.5-199.5,176.2-199.5z"/>
			<path class="st0" d="M180.5-200.2h1v1.3h0c0.5-1,1.2-1.5,2.3-1.5v1.1c-1.6,0-2.2,0.9-2.2,2.5v2.8h-1V-200.2z"/>
			<path class="st0" d="M190.1-194c-0.2,0.1-0.4,0.2-0.7,0.2c-0.5,0-0.9-0.3-0.9-1c-0.6,0.7-1.3,1-2.2,1c-1.1,0-2.1-0.5-2.1-1.7
				c0-1.4,1-1.7,2.1-1.9c1.1-0.2,2.1-0.1,2.1-0.9c0-0.9-0.7-1-1.4-1c-0.9,0-1.5,0.3-1.5,1.2h-1c0.1-1.5,1.2-2.1,2.6-2.1
				c1.1,0,2.3,0.3,2.3,1.7v3.2c0,0.5,0,0.7,0.3,0.7c0.1,0,0.2,0,0.3-0.1V-194z M188.5-197.2c-0.4,0.3-1.2,0.3-1.8,0.4
				c-0.7,0.1-1.2,0.4-1.2,1.1c0,0.7,0.6,0.9,1.2,0.9c1.3,0,1.9-0.8,1.9-1.4V-197.2z"/>
			<path class="st0" d="M191.2-200.2h1v1h0c0.4-0.8,1.1-1.1,2-1.1c1.6,0,2.1,0.9,2.1,2.3v4.1h-1v-4.2c0-0.8-0.5-1.2-1.3-1.2
				c-1.2,0-1.8,0.8-1.8,1.9v3.5h-1V-200.2z"/>
			<path class="st0" d="M203.5-194h-1v-0.8h0c-0.3,0.7-1.1,1-2,1c-1.9,0-2.9-1.5-2.9-3.3c0-1.8,0.9-3.2,2.8-3.2c0.6,0,1.5,0.2,2,1h0
				v-3.2h1V-194z M200.7-194.8c1.4,0,1.9-1.2,1.9-2.3c0-1.2-0.6-2.4-2-2.4c-1.4,0-1.9,1.2-1.9,2.4
				C198.7-195.9,199.3-194.8,200.7-194.8z"/>
			<path class="st0" d="M207.7-193.2c-0.5,1.2-0.9,1.7-1.8,1.7c-0.2,0-0.5,0-0.7-0.1v-0.9c0.2,0.1,0.4,0.1,0.6,0.1
				c0.4,0,0.6-0.2,0.8-0.6l0.4-1.1l-2.5-6.2h1.2l1.8,5.1h0l1.7-5.1h1.1L207.7-193.2z"/>
		</g>
	</g>
	<g>
		<g>
			<path class="st0" d="M306.3-198.2c-0.2-0.8-0.7-1.2-1.5-1.2c-1.5,0-1.9,1.2-1.9,2.4c0,1.1,0.5,2.3,1.8,2.3c1,0,1.6-0.6,1.7-1.5h1
				c-0.2,1.5-1.2,2.4-2.7,2.4c-1.9,0-2.9-1.3-2.9-3.2c0-1.9,1-3.3,2.9-3.3c1.4,0,2.5,0.7,2.7,2.1H306.3z"/>
			<path class="st0" d="M314.1-194c-0.2,0.1-0.4,0.2-0.7,0.2c-0.5,0-0.9-0.3-0.9-1c-0.6,0.7-1.3,1-2.2,1c-1.1,0-2.1-0.5-2.1-1.7
				c0-1.4,1-1.7,2.1-1.9c1.1-0.2,2.1-0.1,2.1-0.9c0-0.9-0.7-1-1.4-1c-0.9,0-1.5,0.3-1.5,1.2h-1c0.1-1.5,1.2-2.1,2.6-2.1
				c1.1,0,2.3,0.3,2.3,1.7v3.2c0,0.5,0,0.7,0.3,0.7c0.1,0,0.2,0,0.3-0.1V-194z M312.4-197.2c-0.4,0.3-1.2,0.3-1.8,0.4
				c-0.7,0.1-1.2,0.4-1.2,1.1c0,0.7,0.6,0.9,1.2,0.9c1.3,0,1.9-0.8,1.9-1.4V-197.2z"/>
			<path class="st0" d="M315.2-200.2h1v1h0c0.4-0.8,1.1-1.1,2-1.1c1.6,0,2.1,0.9,2.1,2.3v4.1h-1v-4.2c0-0.8-0.5-1.2-1.3-1.2
				c-1.2,0-1.8,0.8-1.8,1.9v3.5h-1V-200.2z"/>
			<path class="st0" d="M327.5-194h-1v-0.8h0c-0.3,0.7-1.1,1-2,1c-1.9,0-2.9-1.5-2.9-3.3c0-1.8,0.9-3.2,2.8-3.2c0.6,0,1.5,0.2,2,1h0
				v-3.2h1V-194z M324.6-194.8c1.4,0,1.9-1.2,1.9-2.3c0-1.2-0.6-2.4-2-2.4c-1.4,0-1.9,1.2-1.9,2.4
				C322.7-195.9,323.3-194.8,324.6-194.8z"/>
			<path class="st0" d="M329.3-202.6h1v8.6h-1V-202.6z"/>
			<path class="st0" d="M337.3-196c-0.3,1.4-1.3,2.1-2.7,2.1c-2,0-2.9-1.4-3-3.3c0-1.9,1.2-3.2,2.9-3.2c2.2,0,2.9,2.1,2.8,3.6h-4.6
				c0,1.1,0.6,2,1.9,2c0.8,0,1.4-0.4,1.6-1.2H337.3z M336.3-197.7c0-1-0.8-1.8-1.8-1.8c-1.1,0-1.7,0.8-1.8,1.8H336.3z"/>
		</g>
	</g>
	<g>
		<g>
			<path class="st0" d="M420.9-198.2c-0.2-0.8-0.7-1.2-1.5-1.2c-1.5,0-1.9,1.2-1.9,2.4c0,1.1,0.5,2.3,1.8,2.3c1,0,1.6-0.6,1.7-1.5h1
				c-0.2,1.5-1.2,2.4-2.7,2.4c-1.9,0-2.9-1.3-2.9-3.2c0-1.9,1-3.3,2.9-3.3c1.4,0,2.5,0.7,2.7,2.1H420.9z"/>
			<path class="st0" d="M428.7-194c-0.2,0.1-0.4,0.2-0.7,0.2c-0.5,0-0.9-0.3-0.9-1c-0.6,0.7-1.3,1-2.2,1c-1.1,0-2.1-0.5-2.1-1.7
				c0-1.4,1-1.7,2.1-1.9c1.1-0.2,2.1-0.1,2.1-0.9c0-0.9-0.7-1-1.4-1c-0.9,0-1.5,0.3-1.5,1.2h-1c0.1-1.5,1.2-2.1,2.6-2.1
				c1.1,0,2.3,0.3,2.3,1.7v3.2c0,0.5,0,0.7,0.3,0.7c0.1,0,0.2,0,0.3-0.1V-194z M427.1-197.2c-0.4,0.3-1.2,0.3-1.8,0.4
				c-0.7,0.1-1.2,0.4-1.2,1.1c0,0.7,0.6,0.9,1.2,0.9c1.3,0,1.9-0.8,1.9-1.4V-197.2z"/>
			<path class="st0" d="M429.8-200.2h1v1h0c0.4-0.8,1.1-1.1,2-1.1c1.6,0,2.1,0.9,2.1,2.3v4.1h-1v-4.2c0-0.8-0.5-1.2-1.3-1.2
				c-1.2,0-1.8,0.8-1.8,1.9v3.5h-1V-200.2z"/>
			<path class="st0" d="M442.2-194h-1v-0.8h0c-0.3,0.7-1.1,1-2,1c-1.9,0-2.9-1.5-2.9-3.3c0-1.8,0.9-3.2,2.8-3.2c0.6,0,1.5,0.2,2,1h0
				v-3.2h1V-194z M439.3-194.8c1.4,0,1.9-1.2,1.9-2.3c0-1.2-0.6-2.4-2-2.4c-1.4,0-1.9,1.2-1.9,2.4
				C437.4-195.9,438-194.8,439.3-194.8z"/>
			<path class="st0" d="M446.3-193.2c-0.5,1.2-0.9,1.7-1.8,1.7c-0.2,0-0.5,0-0.7-0.1v-0.9c0.2,0.1,0.4,0.1,0.6,0.1
				c0.4,0,0.6-0.2,0.8-0.6l0.4-1.1l-2.5-6.2h1.2l1.8,5.1h0l1.7-5.1h1.1L446.3-193.2z"/>
			<path class="st0" d="M457.6-198.2c-0.2-0.8-0.7-1.2-1.5-1.2c-1.5,0-1.9,1.2-1.9,2.4c0,1.1,0.5,2.3,1.8,2.3c1,0,1.6-0.6,1.7-1.5h1
				c-0.2,1.5-1.2,2.4-2.7,2.4c-1.9,0-2.9-1.3-2.9-3.2c0-1.9,1-3.3,2.9-3.3c1.4,0,2.5,0.7,2.7,2.1H457.6z"/>
			<path class="st0" d="M465.5-194c-0.2,0.1-0.4,0.2-0.7,0.2c-0.5,0-0.9-0.3-0.9-1c-0.6,0.7-1.3,1-2.2,1c-1.1,0-2.1-0.5-2.1-1.7
				c0-1.4,1-1.7,2.1-1.9c1.1-0.2,2.1-0.1,2.1-0.9c0-0.9-0.7-1-1.4-1c-0.9,0-1.5,0.3-1.5,1.2h-1c0.1-1.5,1.2-2.1,2.6-2.1
				c1.1,0,2.3,0.3,2.3,1.7v3.2c0,0.5,0,0.7,0.3,0.7c0.1,0,0.2,0,0.3-0.1V-194z M463.8-197.2c-0.4,0.3-1.2,0.3-1.8,0.4
				c-0.7,0.1-1.2,0.4-1.2,1.1c0,0.7,0.6,0.9,1.2,0.9c1.3,0,1.9-0.8,1.9-1.4V-197.2z"/>
			<path class="st0" d="M466.6-200.2h1v1h0c0.4-0.8,1.1-1.1,2-1.1c1.6,0,2.1,0.9,2.1,2.3v4.1h-1v-4.2c0-0.8-0.5-1.2-1.3-1.2
				c-1.2,0-1.8,0.8-1.8,1.9v3.5h-1V-200.2z"/>
			<path class="st0" d="M478.6-196c-0.3,1.4-1.3,2.1-2.7,2.1c-2,0-2.9-1.4-3-3.3c0-1.9,1.2-3.2,2.9-3.2c2.2,0,2.9,2.1,2.8,3.6h-4.6
				c0,1.1,0.6,2,1.9,2c0.8,0,1.4-0.4,1.6-1.2H478.6z M477.6-197.7c0-1-0.8-1.8-1.8-1.8c-1.1,0-1.7,0.8-1.8,1.8H477.6z"/>
		</g>
	</g>
	<g>
		<g>
			<path class="st0" d="M-79.9-38.2c-0.2-0.8-0.7-1.2-1.5-1.2c-1.5,0-1.9,1.2-1.9,2.4c0,1.1,0.5,2.3,1.8,2.3c1,0,1.6-0.6,1.7-1.5h1
				c-0.2,1.5-1.2,2.4-2.7,2.4c-1.9,0-2.9-1.3-2.9-3.2c0-1.9,1-3.3,2.9-3.3c1.4,0,2.5,0.7,2.7,2.1H-79.9z"/>
			<path class="st0" d="M-77.6-40.2h1v1.3h0c0.5-1,1.2-1.5,2.3-1.5v1.1c-1.6,0-2.2,0.9-2.2,2.5v2.8h-1V-40.2z"/>
			<path class="st0" d="M-67.9-34c-0.2,0.1-0.4,0.2-0.7,0.2c-0.5,0-0.9-0.3-0.9-1c-0.6,0.7-1.3,1-2.2,1c-1.1,0-2.1-0.5-2.1-1.7
				c0-1.4,1-1.7,2.1-1.9c1.1-0.2,2.1-0.1,2.1-0.9c0-0.9-0.7-1-1.4-1c-0.9,0-1.5,0.3-1.5,1.2h-1c0.1-1.5,1.2-2.1,2.6-2.1
				c1.1,0,2.3,0.3,2.3,1.7v3.2c0,0.5,0,0.7,0.3,0.7c0.1,0,0.2,0,0.3-0.1V-34z M-69.6-37.2c-0.4,0.3-1.2,0.3-1.8,0.4
				c-0.7,0.1-1.2,0.4-1.2,1.1c0,0.7,0.6,0.9,1.2,0.9c1.3,0,1.9-0.8,1.9-1.4V-37.2z"/>
			<path class="st0" d="M-62.7-38.2c-0.2-0.8-0.7-1.2-1.5-1.2c-1.5,0-1.9,1.2-1.9,2.4c0,1.1,0.5,2.3,1.8,2.3c1,0,1.6-0.6,1.7-1.5h1
				c-0.2,1.5-1.2,2.4-2.7,2.4c-1.9,0-2.9-1.3-2.9-3.2c0-1.9,1-3.3,2.9-3.3c1.4,0,2.5,0.7,2.7,2.1H-62.7z"/>
			<path class="st0" d="M-60.2-42.6h1v5.1l2.8-2.7h1.4l-2.5,2.3l2.6,3.9h-1.3l-2.1-3.2l-1,0.9v2.4h-1V-42.6z"/>
			<path class="st0" d="M-48.7-36c-0.3,1.4-1.3,2.1-2.7,2.1c-2,0-2.9-1.4-3-3.3c0-1.9,1.2-3.2,2.9-3.2c2.2,0,2.9,2.1,2.8,3.6h-4.6
				c0,1.1,0.6,2,1.9,2c0.8,0,1.4-0.4,1.6-1.2H-48.7z M-49.6-37.7c0-1-0.8-1.8-1.8-1.8c-1.1,0-1.7,0.8-1.8,1.8H-49.6z"/>
			<path class="st0" d="M-47.4-40.2h1v1.3h0c0.5-1,1.2-1.5,2.3-1.5v1.1c-1.6,0-2.2,0.9-2.2,2.5v2.8h-1V-40.2z"/>
		</g>
	</g>
	<g>
		<g>
			<path class="st0" d="M55.6-34h-1v-0.8h0c-0.3,0.7-1.1,1-2,1c-1.9,0-2.9-1.5-2.9-3.3c0-1.8,0.9-3.2,2.8-3.2c0.6,0,1.5,0.2,2,1h0
				v-3.2h1V-34z M52.7-34.8c1.4,0,1.9-1.2,1.9-2.3c0-1.2-0.6-2.4-2-2.4c-1.4,0-1.9,1.2-1.9,2.4C50.8-35.9,51.4-34.8,52.7-34.8z"/>
			<path class="st0" d="M57.2-40.2h1v1.3h0c0.5-1,1.2-1.5,2.3-1.5v1.1c-1.6,0-2.2,0.9-2.2,2.5v2.8h-1V-40.2z"/>
			<path class="st0" d="M66.5-34h-1v-1h0c-0.4,0.8-1.1,1.1-2,1.1c-1.6,0-2.1-0.9-2.1-2.3v-4.1h1v4.2c0,0.8,0.5,1.2,1.3,1.2
				c1.2,0,1.8-0.8,1.8-1.9v-3.5h1V-34z"/>
			<path class="st0" d="M68.2-40.2h1v0.9h0c0.5-0.7,1.2-1.1,2-1.1c0.8,0,1.5,0.3,1.7,1.1c0.4-0.7,1.2-1.1,1.9-1.1
				c1.2,0,2.1,0.5,2.1,1.8v4.5h-1v-4.1c0-0.8-0.2-1.4-1.2-1.4c-1,0-1.6,0.6-1.6,1.6v3.9h-1v-4.1c0-0.8-0.3-1.4-1.2-1.4
				c-1.2,0-1.7,1.1-1.7,1.6v3.9h-1V-40.2z"/>
		</g>
	</g>
	<g>
		<g>
			<path class="st0" d="M191.1-36c-0.3,1.4-1.3,2.1-2.7,2.1c-2,0-2.9-1.4-3-3.3c0-1.9,1.2-3.2,2.9-3.2c2.2,0,2.9,2.1,2.8,3.6h-4.6
				c0,1.1,0.6,2,1.9,2c0.8,0,1.4-0.4,1.6-1.2H191.1z M190.1-37.7c0-1-0.8-1.8-1.8-1.8c-1.1,0-1.7,0.8-1.8,1.8H190.1z"/>
			<path class="st0" d="M192.4-42.6h1v8.6h-1V-42.6z"/>
			<path class="st0" d="M195.6-39.3h-1v-0.9h1v-0.9c0-1,0.6-1.5,1.7-1.5c0.2,0,0.5,0,0.7,0.1v0.9c-0.2-0.1-0.4-0.1-0.6-0.1
				c-0.5,0-0.8,0.2-0.8,0.7v0.9h1.2v0.9h-1.2v5.3h-1V-39.3z"/>
		</g>
	</g>
	<g>
		<g>
			<path class="st0" d="M295.7-39.3h-1v-0.9h1v-0.9c0-1,0.6-1.5,1.7-1.5c0.2,0,0.5,0,0.7,0.1v0.9c-0.2-0.1-0.4-0.1-0.6-0.1
				c-0.5,0-0.8,0.2-0.8,0.7v0.9h1.2v0.9h-1.2v5.3h-1V-39.3z"/>
			<path class="st0" d="M304.5-34c-0.2,0.1-0.4,0.2-0.7,0.2c-0.5,0-0.9-0.3-0.9-1c-0.6,0.7-1.3,1-2.2,1c-1.1,0-2.1-0.5-2.1-1.7
				c0-1.4,1-1.7,2.1-1.9c1.1-0.2,2.1-0.1,2.1-0.9c0-0.9-0.7-1-1.4-1c-0.9,0-1.5,0.3-1.5,1.2h-1c0.1-1.5,1.2-2.1,2.6-2.1
				c1.1,0,2.3,0.3,2.3,1.7v3.2c0,0.5,0,0.7,0.3,0.7c0.1,0,0.2,0,0.3-0.1V-34z M302.8-37.2c-0.4,0.3-1.2,0.3-1.8,0.4
				c-0.7,0.1-1.2,0.4-1.2,1.1c0,0.7,0.6,0.9,1.2,0.9c1.3,0,1.9-0.8,1.9-1.4V-37.2z"/>
			<path class="st0" d="M306.6-41.3h-1v-1.2h1V-41.3z M305.6-40.2h1v6.2h-1V-40.2z"/>
			<path class="st0" d="M308.3-40.2h1v1.3h0c0.5-1,1.2-1.5,2.3-1.5v1.1c-1.6,0-2.2,0.9-2.2,2.5v2.8h-1V-40.2z"/>
			<path class="st0" d="M314.9-33.2c-0.5,1.2-0.9,1.7-1.8,1.7c-0.2,0-0.5,0-0.7-0.1v-0.9c0.2,0.1,0.4,0.1,0.6,0.1
				c0.4,0,0.6-0.2,0.8-0.6l0.4-1.1l-2.5-6.2h1.2l1.8,5.1h0l1.7-5.1h1.1L314.9-33.2z"/>
			<path class="st0" d="M322.1-42.6h1v8.6h-1V-42.6z"/>
			<path class="st0" d="M325.9-41.3h-1v-1.2h1V-41.3z M324.9-40.2h1v6.2h-1V-40.2z"/>
			<path class="st0" d="M332.9-34.5c0,2-0.9,3-2.9,3c-1.2,0-2.5-0.5-2.6-1.8h1c0,0.7,0.9,1,1.6,1c1.3,0,1.9-1,1.9-2.4v-0.4h0
				c-0.3,0.8-1.2,1.1-1.9,1.1c-1.8,0-2.8-1.5-2.8-3.1c0-1.5,0.7-3.3,2.9-3.3c0.8,0,1.5,0.3,1.8,1h0v-0.9h1V-34.5z M331.9-37.2
				c0-1.1-0.5-2.2-1.8-2.2c-1.3,0-1.8,1.1-1.8,2.3c0,1.1,0.4,2.4,1.8,2.4C331.4-34.8,331.9-36.1,331.9-37.2z"/>
			<path class="st0" d="M334.6-42.6h1v3.3h0c0.3-0.7,1.2-1.1,2-1.1c1.6,0,2.1,0.9,2.1,2.3v4.1h-1v-4.2c0-0.8-0.5-1.2-1.3-1.2
				c-1.2,0-1.8,0.8-1.8,1.9v3.5h-1V-42.6z"/>
			<path class="st0" d="M342.8-40.2h1.2v0.9h-1.2v3.9c0,0.5,0.1,0.6,0.8,0.6h0.5v0.9h-0.8c-1.1,0-1.5-0.2-1.5-1.4v-3.9h-1.1v-0.9
				h1.1v-1.9h1V-40.2z"/>
		</g>
	</g>
	<g>
		<g>
			<path class="st0" d="M445-34.5c0,2-0.9,3-2.9,3c-1.2,0-2.5-0.5-2.6-1.8h1c0,0.7,0.9,1,1.6,1c1.3,0,1.9-1,1.9-2.4v-0.4h0
				c-0.3,0.8-1.2,1.1-1.9,1.1c-1.8,0-2.8-1.5-2.8-3.1c0-1.5,0.7-3.3,2.9-3.3c0.8,0,1.5,0.3,1.8,1h0v-0.9h1V-34.5z M444-37.2
				c0-1.1-0.5-2.2-1.8-2.2c-1.3,0-1.8,1.1-1.8,2.3c0,1.1,0.4,2.4,1.8,2.4C443.5-34.8,444-36.1,444-37.2z"/>
			<path class="st0" d="M447.7-41.3h-1v-1.2h1V-41.3z M446.7-40.2h1v6.2h-1V-40.2z"/>
			<path class="st0" d="M449.8-39.3h-1v-0.9h1v-0.9c0-1,0.6-1.5,1.7-1.5c0.2,0,0.5,0,0.7,0.1v0.9c-0.2-0.1-0.4-0.1-0.6-0.1
				c-0.5,0-0.8,0.2-0.8,0.7v0.9h1.2v0.9h-1.2v5.3h-1V-39.3z"/>
			<path class="st0" d="M454.5-40.2h1.2v0.9h-1.2v3.9c0,0.5,0.1,0.6,0.8,0.6h0.5v0.9H455c-1.1,0-1.5-0.2-1.5-1.4v-3.9h-1.1v-0.9h1.1
				v-1.9h1V-40.2z"/>
		</g>
	</g>
	<g>
		<g>
			<path class="st0" d="M-104.8,125.5c0,2-0.9,3-2.9,3c-1.2,0-2.5-0.5-2.6-1.8h1c0,0.7,0.9,1,1.6,1c1.3,0,1.9-1,1.9-2.4v-0.4h0
				c-0.3,0.8-1.2,1.1-1.9,1.1c-1.8,0-2.8-1.5-2.8-3.1c0-1.5,0.7-3.3,2.9-3.3c0.8,0,1.5,0.3,1.8,1h0v-0.9h1V125.5z M-105.8,122.8
				c0-1.1-0.5-2.2-1.8-2.2c-1.3,0-1.8,1.1-1.8,2.3c0,1.1,0.4,2.4,1.8,2.4C-106.3,125.2-105.8,123.9-105.8,122.8z"/>
			<path class="st0" d="M-102.1,118.7h-1v-1.2h1V118.7z M-103.1,119.8h1v6.2h-1V119.8z"/>
			<path class="st0" d="M-100.4,119.8h1v1h0c0.4-0.8,1.1-1.1,2-1.1c1.6,0,2.1,0.9,2.1,2.3v4.1h-1v-4.2c0-0.8-0.5-1.2-1.3-1.2
				c-1.2,0-1.8,0.8-1.8,1.9v3.5h-1V119.8z"/>
			<path class="st0" d="M-88.2,125.5c0,2-0.9,3-2.9,3c-1.2,0-2.5-0.5-2.6-1.8h1c0,0.7,0.9,1,1.6,1c1.3,0,1.9-1,1.9-2.4v-0.4h0
				c-0.3,0.8-1.2,1.1-1.9,1.1c-1.8,0-2.8-1.5-2.8-3.1c0-1.5,0.7-3.3,2.9-3.3c0.8,0,1.5,0.3,1.8,1h0v-0.9h1V125.5z M-89.2,122.8
				c0-1.1-0.5-2.2-1.8-2.2c-1.3,0-1.8,1.1-1.8,2.3c0,1.1,0.4,2.4,1.8,2.4C-89.7,125.2-89.2,123.9-89.2,122.8z"/>
			<path class="st0" d="M-81.3,124c-0.3,1.4-1.3,2.1-2.7,2.1c-2,0-2.9-1.4-3-3.3c0-1.9,1.2-3.2,2.9-3.2c2.2,0,2.9,2.1,2.8,3.6h-4.6
				c0,1.1,0.6,2,1.9,2c0.8,0,1.4-0.4,1.6-1.2H-81.3z M-82.3,122.3c0-1-0.8-1.8-1.8-1.8c-1.1,0-1.7,0.8-1.8,1.8H-82.3z"/>
			<path class="st0" d="M-80,119.8h1v1.3h0c0.5-1,1.2-1.5,2.3-1.5v1.1c-1.6,0-2.2,0.9-2.2,2.5v2.8h-1V119.8z"/>
			<path class="st0" d="M-75.8,117.4h1v3.2h0c0.3-0.7,1.1-1,2-1c1.9,0,2.9,1.5,2.9,3.3c0,1.8-0.9,3.2-2.8,3.2c-0.6,0-1.5-0.2-2-1h0
				v0.8h-1V117.4z M-73,120.5c-1.4,0-1.9,1.2-1.9,2.3c0,1.2,0.6,2.4,2,2.4c1.4,0,1.9-1.2,1.9-2.4C-71.1,121.7-71.6,120.5-73,120.5z"
				/>
			<path class="st0" d="M-68.7,119.8h1v1.3h0c0.5-1,1.2-1.5,2.3-1.5v1.1c-1.6,0-2.2,0.9-2.2,2.5v2.8h-1V119.8z"/>
			<path class="st0" d="M-59.5,124c-0.3,1.4-1.3,2.1-2.7,2.1c-2,0-2.9-1.4-3-3.3c0-1.9,1.2-3.2,2.9-3.2c2.2,0,2.9,2.1,2.8,3.6H-64
				c0,1.1,0.6,2,1.9,2c0.8,0,1.4-0.4,1.6-1.2H-59.5z M-60.4,122.3c0-1-0.8-1.8-1.8-1.8c-1.1,0-1.7,0.8-1.8,1.8H-60.4z"/>
			<path class="st0" d="M-52.7,126c-0.2,0.1-0.4,0.2-0.7,0.2c-0.5,0-0.9-0.3-0.9-1c-0.6,0.7-1.3,1-2.2,1c-1.1,0-2.1-0.5-2.1-1.7
				c0-1.4,1-1.7,2.1-1.9c1.1-0.2,2.1-0.1,2.1-0.9c0-0.9-0.7-1-1.4-1c-0.9,0-1.5,0.3-1.5,1.2h-1c0.1-1.5,1.2-2.1,2.6-2.1
				c1.1,0,2.3,0.3,2.3,1.7v3.2c0,0.5,0,0.7,0.3,0.7c0.1,0,0.2,0,0.3-0.1V126z M-54.3,122.8c-0.4,0.3-1.2,0.3-1.8,0.4
				c-0.7,0.1-1.2,0.4-1.2,1.1c0,0.7,0.6,0.9,1.2,0.9c1.3,0,1.9-0.8,1.9-1.4V122.8z"/>
			<path class="st0" d="M-46.1,126h-1v-0.8h0c-0.3,0.7-1.1,1-2,1c-1.9,0-2.9-1.5-2.9-3.3c0-1.8,0.9-3.2,2.8-3.2c0.6,0,1.5,0.2,2,1h0
				v-3.2h1V126z M-49,125.2c1.4,0,1.9-1.2,1.9-2.3c0-1.2-0.6-2.3-2-2.3c-1.4,0-1.9,1.2-1.9,2.4C-50.9,124.1-50.3,125.2-49,125.2z"/>
			<path class="st0" d="M-40.9,119.8h1v0.9h0c0.5-0.7,1.2-1.1,2-1.1c0.8,0,1.5,0.3,1.7,1.1c0.4-0.7,1.2-1.1,1.9-1.1
				c1.2,0,2.1,0.5,2.1,1.8v4.5h-1v-4.1c0-0.8-0.2-1.4-1.2-1.4c-1,0-1.6,0.6-1.6,1.6v3.9h-1v-4.1c0-0.8-0.3-1.4-1.2-1.4
				c-1.2,0-1.7,1.1-1.7,1.6v3.9h-1V119.8z"/>
			<path class="st0" d="M-25.1,126c-0.2,0.1-0.4,0.2-0.7,0.2c-0.5,0-0.9-0.3-0.9-1c-0.6,0.7-1.3,1-2.2,1c-1.1,0-2.1-0.5-2.1-1.7
				c0-1.4,1-1.7,2.1-1.9c1.1-0.2,2.1-0.1,2.1-0.9c0-0.9-0.7-1-1.4-1c-0.9,0-1.5,0.3-1.5,1.2h-1c0.1-1.5,1.2-2.1,2.6-2.1
				c1.1,0,2.3,0.3,2.3,1.7v3.2c0,0.5,0,0.7,0.3,0.7c0.1,0,0.2,0,0.3-0.1V126z M-26.7,122.8c-0.4,0.3-1.2,0.3-1.8,0.4
				c-0.7,0.1-1.2,0.4-1.2,1.1c0,0.7,0.6,0.9,1.2,0.9c1.3,0,1.9-0.8,1.9-1.4V122.8z"/>
			<path class="st0" d="M-24,119.8h1v1h0c0.4-0.8,1.1-1.1,2-1.1c1.6,0,2.1,0.9,2.1,2.3v4.1h-1v-4.2c0-0.8-0.5-1.2-1.3-1.2
				c-1.2,0-1.8,0.8-1.8,1.9v3.5h-1V119.8z"/>
		</g>
	</g>
	<g>
		<g>
			<path class="st0" d="M51.6,117.4h1v3.3h0c0.3-0.7,1.2-1.1,2-1.1c1.6,0,2.1,0.9,2.1,2.3v4.1h-1v-4.2c0-0.8-0.5-1.2-1.3-1.2
				c-1.2,0-1.8,0.8-1.8,1.9v3.5h-1V117.4z"/>
			<path class="st0" d="M61,119.6c2,0,3,1.4,3,3.3c0,1.8-1,3.2-3,3.2c-2,0-3-1.4-3-3.2C58,121.1,59.1,119.6,61,119.6z M61,125.2
				c1.1,0,1.9-0.8,1.9-2.3c0-1.5-0.9-2.3-1.9-2.3c-1.1,0-1.9,0.8-1.9,2.3C59.1,124.4,60,125.2,61,125.2z"/>
			<path class="st0" d="M65.4,117.4h1v8.6h-1V117.4z"/>
			<path class="st0" d="M68.2,117.4h1v8.6h-1V117.4z"/>
			<path class="st0" d="M73.4,126.8c-0.5,1.2-0.9,1.7-1.8,1.7c-0.2,0-0.5,0-0.7-0.1v-0.9c0.2,0.1,0.4,0.1,0.6,0.1
				c0.4,0,0.6-0.2,0.8-0.6l0.4-1.1l-2.5-6.2h1.2l1.8,5.1h0l1.7-5.1h1.1L73.4,126.8z"/>
		</g>
	</g>
	<g>
		<g>
			<path class="st0" d="M163.2,119.8h1v1h0c0.4-0.8,1.1-1.1,2-1.1c1.6,0,2.1,0.9,2.1,2.3v4.1h-1v-4.2c0-0.8-0.5-1.2-1.3-1.2
				c-1.2,0-1.8,0.8-1.8,1.9v3.5h-1V119.8z"/>
			<path class="st0" d="M175.1,126h-1v-1h0c-0.4,0.8-1.1,1.1-2,1.1c-1.6,0-2.1-0.9-2.1-2.3v-4.1h1v4.2c0,0.8,0.5,1.2,1.3,1.2
				c1.2,0,1.8-0.8,1.8-1.9v-3.5h1V126z"/>
			<path class="st0" d="M178.2,119.8h1.2v0.9h-1.2v3.9c0,0.5,0.1,0.6,0.8,0.6h0.5v0.9h-0.8c-1.1,0-1.5-0.2-1.5-1.4v-3.9h-1.1v-0.9
				h1.1v-1.9h1V119.8z"/>
			<path class="st0" d="M184.9,121.8c-0.2-0.8-0.7-1.2-1.5-1.2c-1.5,0-1.9,1.2-1.9,2.4c0,1.1,0.5,2.3,1.8,2.3c1,0,1.6-0.6,1.7-1.5h1
				c-0.2,1.5-1.2,2.4-2.7,2.4c-1.9,0-2.9-1.3-2.9-3.2c0-1.9,1-3.3,2.9-3.3c1.4,0,2.5,0.7,2.7,2.1H184.9z"/>
			<path class="st0" d="M187.2,119.8h1v1.3h0c0.5-1,1.2-1.5,2.3-1.5v1.1c-1.6,0-2.2,0.9-2.2,2.5v2.8h-1V119.8z"/>
			<path class="st0" d="M196.8,126c-0.2,0.1-0.4,0.2-0.7,0.2c-0.5,0-0.9-0.3-0.9-1c-0.6,0.7-1.3,1-2.2,1c-1.1,0-2.1-0.5-2.1-1.7
				c0-1.4,1-1.7,2.1-1.9c1.1-0.2,2.1-0.1,2.1-0.9c0-0.9-0.7-1-1.4-1c-0.9,0-1.5,0.3-1.5,1.2h-1c0.1-1.5,1.2-2.1,2.6-2.1
				c1.1,0,2.3,0.3,2.3,1.7v3.2c0,0.5,0,0.7,0.3,0.7c0.1,0,0.2,0,0.3-0.1V126z M195.2,122.8c-0.4,0.3-1.2,0.3-1.8,0.4
				c-0.7,0.1-1.2,0.4-1.2,1.1c0,0.7,0.6,0.9,1.2,0.9c1.3,0,1.9-0.8,1.9-1.4V122.8z"/>
			<path class="st0" d="M202.1,121.8c-0.2-0.8-0.7-1.2-1.5-1.2c-1.5,0-1.9,1.2-1.9,2.4c0,1.1,0.5,2.3,1.8,2.3c1,0,1.6-0.6,1.7-1.5h1
				c-0.2,1.5-1.2,2.4-2.7,2.4c-1.9,0-2.9-1.3-2.9-3.2c0-1.9,1-3.3,2.9-3.3c1.4,0,2.5,0.7,2.7,2.1H202.1z"/>
			<path class="st0" d="M204.5,117.4h1v5.1l2.8-2.7h1.4l-2.5,2.3l2.6,3.9h-1.3l-2.1-3.2l-1,0.9v2.4h-1V117.4z"/>
			<path class="st0" d="M216.1,124c-0.3,1.4-1.3,2.1-2.7,2.1c-2,0-2.9-1.4-3-3.3c0-1.9,1.2-3.2,2.9-3.2c2.2,0,2.9,2.1,2.8,3.6h-4.6
				c0,1.1,0.6,2,1.9,2c0.8,0,1.4-0.4,1.6-1.2H216.1z M215.1,122.3c0-1-0.8-1.8-1.8-1.8c-1.1,0-1.7,0.8-1.8,1.8H215.1z"/>
			<path class="st0" d="M217.3,119.8h1v1.3h0c0.5-1,1.2-1.5,2.3-1.5v1.1c-1.6,0-2.2,0.9-2.2,2.5v2.8h-1V119.8z"/>
		</g>
	</g>
	<g>
		<g>
			<path class="st0" d="M297.8,119.8h1v0.8h0c0.3-0.7,1.1-1,2-1c1.9,0,2.9,1.5,2.9,3.3c0,1.8-0.9,3.2-2.8,3.2c-0.6,0-1.5-0.2-2-1h0
				v3.2h-1V119.8z M300.7,120.5c-1.4,0-1.9,1.2-1.9,2.3c0,1.2,0.6,2.4,2,2.4c1.4,0,1.9-1.2,1.9-2.4
				C302.6,121.7,302,120.5,300.7,120.5z"/>
			<path class="st0" d="M310.1,126h-1v-1h0c-0.4,0.8-1.1,1.1-2,1.1c-1.6,0-2.1-0.9-2.1-2.3v-4.1h1v4.2c0,0.8,0.5,1.2,1.3,1.2
				c1.2,0,1.8-0.8,1.8-1.9v-3.5h1V126z"/>
			<path class="st0" d="M317.3,126h-1v-0.8h0c-0.3,0.7-1.1,1-2,1c-1.9,0-2.9-1.5-2.9-3.3c0-1.8,0.9-3.2,2.8-3.2c0.6,0,1.5,0.2,2,1h0
				v-3.2h1V126z M314.4,125.2c1.4,0,1.9-1.2,1.9-2.3c0-1.2-0.6-2.3-2-2.3c-1.4,0-1.9,1.2-1.9,2.4
				C312.5,124.1,313.1,125.2,314.4,125.2z"/>
			<path class="st0" d="M324.6,126h-1v-0.8h0c-0.3,0.7-1.1,1-2,1c-1.9,0-2.9-1.5-2.9-3.3c0-1.8,0.9-3.2,2.8-3.2c0.6,0,1.5,0.2,2,1h0
				v-3.2h1V126z M321.7,125.2c1.4,0,1.9-1.2,1.9-2.3c0-1.2-0.6-2.3-2-2.3c-1.4,0-1.9,1.2-1.9,2.4
				C319.8,124.1,320.4,125.2,321.7,125.2z"/>
			<path class="st0" d="M327.3,118.7h-1v-1.2h1V118.7z M326.3,119.8h1v6.2h-1V119.8z"/>
			<path class="st0" d="M329,119.8h1v1h0c0.4-0.8,1.1-1.1,2-1.1c1.6,0,2.1,0.9,2.1,2.3v4.1h-1v-4.2c0-0.8-0.5-1.2-1.3-1.2
				c-1.2,0-1.8,0.8-1.8,1.9v3.5h-1V119.8z"/>
			<path class="st0" d="M341.2,125.5c0,2-0.9,3-2.9,3c-1.2,0-2.5-0.5-2.6-1.8h1c0,0.7,0.9,1,1.6,1c1.3,0,1.9-1,1.9-2.4v-0.4h0
				c-0.3,0.8-1.2,1.1-1.9,1.1c-1.8,0-2.8-1.5-2.8-3.1c0-1.5,0.7-3.3,2.9-3.3c0.8,0,1.5,0.3,1.8,1h0v-0.9h1V125.5z M340.2,122.8
				c0-1.1-0.5-2.2-1.8-2.2c-1.3,0-1.8,1.1-1.8,2.3c0,1.1,0.4,2.4,1.8,2.4C339.7,125.2,340.2,123.9,340.2,122.8z"/>
		</g>
	</g>
	<g>
		<g>
			<path class="st0" d="M436,126h-1.1l-1.3-4.9h0l-1.2,4.9h-1.1l-2-6.2h1.1l1.4,5.1h0l1.2-5.1h1.1l1.3,5.1h0l1.4-5.1h1.1L436,126z"
				/>
			<path class="st0" d="M439,119.8h1v1.3h0c0.5-1,1.2-1.5,2.3-1.5v1.1c-1.6,0-2.2,0.9-2.2,2.5v2.8h-1V119.8z"/>
			<path class="st0" d="M448.2,124c-0.3,1.4-1.3,2.1-2.7,2.1c-2,0-2.9-1.4-3-3.3c0-1.9,1.2-3.2,2.9-3.2c2.2,0,2.9,2.1,2.8,3.6h-4.6
				c0,1.1,0.6,2,1.9,2c0.8,0,1.4-0.4,1.6-1.2H448.2z M447.3,122.3c0-1-0.8-1.8-1.8-1.8c-1.1,0-1.7,0.8-1.8,1.8H447.3z"/>
			<path class="st0" d="M455,126c-0.2,0.1-0.4,0.2-0.7,0.2c-0.5,0-0.9-0.3-0.9-1c-0.6,0.7-1.3,1-2.2,1c-1.1,0-2.1-0.5-2.1-1.7
				c0-1.4,1-1.7,2.1-1.9c1.1-0.2,2.1-0.1,2.1-0.9c0-0.9-0.7-1-1.4-1c-0.9,0-1.5,0.3-1.5,1.2h-1c0.1-1.5,1.2-2.1,2.6-2.1
				c1.1,0,2.3,0.3,2.3,1.7v3.2c0,0.5,0,0.7,0.3,0.7c0.1,0,0.2,0,0.3-0.1V126z M453.3,122.8c-0.4,0.3-1.2,0.3-1.8,0.4
				c-0.7,0.1-1.2,0.4-1.2,1.1c0,0.7,0.6,0.9,1.2,0.9c1.3,0,1.9-0.8,1.9-1.4V122.8z"/>
			<path class="st0" d="M457.5,119.8h1.2v0.9h-1.2v3.9c0,0.5,0.1,0.6,0.8,0.6h0.5v0.9h-0.8c-1.1,0-1.5-0.2-1.5-1.4v-3.9h-1.1v-0.9
				h1.1v-1.9h1V119.8z"/>
			<path class="st0" d="M460,117.4h1v3.3h0c0.3-0.7,1.2-1.1,2-1.1c1.6,0,2.1,0.9,2.1,2.3v4.1h-1v-4.2c0-0.8-0.5-1.2-1.3-1.2
				c-1.2,0-1.8,0.8-1.8,1.9v3.5h-1V117.4z"/>
		</g>
	</g>
	<g>
		<g>
			<path class="st0" d="M-81.3,279.8h1v1.3h0c0.5-1,1.2-1.5,2.3-1.5v1.1c-1.6,0-2.2,0.9-2.2,2.5v2.8h-1V279.8z"/>
			<path class="st0" d="M-76.1,278.7h-1v-1.2h1V278.7z M-77.1,279.8h1v6.2h-1V279.8z"/>
			<path class="st0" d="M-74.3,277.4h1v3.2h0c0.3-0.7,1.1-1,2-1c1.9,0,2.9,1.5,2.9,3.3c0,1.8-0.9,3.2-2.8,3.2c-0.6,0-1.5-0.2-2-1h0
				v0.8h-1V277.4z M-71.5,280.5c-1.4,0-1.9,1.2-1.9,2.3c0,1.2,0.6,2.4,2,2.4c1.4,0,1.9-1.2,1.9-2.4
				C-69.5,281.7-70.1,280.5-71.5,280.5z"/>
			<path class="st0" d="M-67.1,277.4h1v3.2h0c0.3-0.7,1.1-1,2-1c1.9,0,2.9,1.5,2.9,3.3c0,1.8-0.9,3.2-2.8,3.2c-0.6,0-1.5-0.2-2-1h0
				v0.8h-1V277.4z M-64.2,280.5c-1.4,0-1.9,1.2-1.9,2.3c0,1.2,0.6,2.4,2,2.4c1.4,0,1.9-1.2,1.9-2.4
				C-62.3,281.7-62.9,280.5-64.2,280.5z"/>
			<path class="st0" d="M-57.2,279.6c2,0,3,1.4,3,3.3c0,1.8-1,3.2-3,3.2c-2,0-3-1.4-3-3.2C-60.2,281.1-59.2,279.6-57.2,279.6z
				 M-57.2,285.2c1.1,0,1.9-0.8,1.9-2.3c0-1.5-0.9-2.3-1.9-2.3c-1.1,0-1.9,0.8-1.9,2.3C-59.2,284.4-58.3,285.2-57.2,285.2z"/>
			<path class="st0" d="M-52.9,279.8h1v1h0c0.4-0.8,1.1-1.1,2-1.1c1.6,0,2.1,0.9,2.1,2.3v4.1h-1v-4.2c0-0.8-0.5-1.2-1.3-1.2
				c-1.2,0-1.8,0.8-1.8,1.9v3.5h-1V279.8z"/>
		</g>
	</g>
	<g>
		<g>
			<path class="st0" d="M38.5,284c0,0.9,0.8,1.2,1.7,1.2c0.6,0,1.5-0.1,1.5-0.9c0-0.8-1-0.9-2-1.2c-1-0.2-2-0.6-2-1.8
				c0-1.2,1.2-1.8,2.3-1.8c1.4,0,2.5,0.4,2.5,1.9h-1c-0.1-0.8-0.8-1-1.4-1c-0.6,0-1.3,0.2-1.3,0.8c0,0.7,1.1,0.9,2,1.1
				c1,0.2,2,0.6,2,1.8c0,1.5-1.4,2-2.6,2c-1.4,0-2.6-0.6-2.6-2.1H38.5z"/>
			<path class="st0" d="M44,279.8h1v1h0c0.4-0.8,1.1-1.1,2-1.1c1.6,0,2.1,0.9,2.1,2.3v4.1h-1v-4.2c0-0.8-0.5-1.2-1.3-1.2
				c-1.2,0-1.8,0.8-1.8,1.9v3.5h-1V279.8z"/>
			<path class="st0" d="M53.5,279.6c2,0,3,1.4,3,3.3c0,1.8-1,3.2-3,3.2c-2,0-3-1.4-3-3.2C50.5,281.1,51.5,279.6,53.5,279.6z
				 M53.5,285.2c1.1,0,1.9-0.8,1.9-2.3c0-1.5-0.9-2.3-1.9-2.3c-1.1,0-1.9,0.8-1.9,2.3C51.5,284.4,52.4,285.2,53.5,285.2z"/>
			<path class="st0" d="M63.9,286h-1.1l-1.3-4.9h0l-1.2,4.9h-1.1l-2-6.2h1.1l1.4,5.1h0l1.2-5.1h1.1l1.3,5.1h0l1.4-5.1h1.1L63.9,286z
				"/>
			<path class="st0" d="M67,279.8h1v0.9h0c0.5-0.7,1.2-1.1,2-1.1c0.8,0,1.5,0.3,1.7,1.1c0.4-0.7,1.2-1.1,1.9-1.1
				c1.2,0,2.1,0.5,2.1,1.8v4.5h-1v-4.1c0-0.8-0.2-1.4-1.2-1.4c-1,0-1.6,0.6-1.6,1.6v3.9h-1v-4.1c0-0.8-0.3-1.4-1.2-1.4
				c-1.2,0-1.7,1.1-1.7,1.6v3.9h-1V279.8z"/>
			<path class="st0" d="M82.9,286c-0.2,0.1-0.4,0.2-0.7,0.2c-0.5,0-0.9-0.3-0.9-1c-0.6,0.7-1.3,1-2.2,1c-1.1,0-2.1-0.5-2.1-1.7
				c0-1.4,1-1.7,2.1-1.9c1.1-0.2,2.1-0.1,2.1-0.9c0-0.9-0.7-1-1.4-1c-0.9,0-1.5,0.3-1.5,1.2h-1c0.1-1.5,1.2-2.1,2.6-2.1
				c1.1,0,2.3,0.3,2.3,1.7v3.2c0,0.5,0,0.7,0.3,0.7c0.1,0,0.2,0,0.3-0.1V286z M81.2,282.8c-0.4,0.3-1.2,0.3-1.8,0.4
				c-0.7,0.1-1.2,0.4-1.2,1.1c0,0.7,0.6,0.9,1.2,0.9c1.3,0,1.9-0.8,1.9-1.4V282.8z"/>
			<path class="st0" d="M83.9,279.8h1v1h0c0.4-0.8,1.1-1.1,2-1.1c1.6,0,2.1,0.9,2.1,2.3v4.1h-1v-4.2c0-0.8-0.5-1.2-1.3-1.2
				c-1.2,0-1.8,0.8-1.8,1.9v3.5h-1V279.8z"/>
		</g>
	</g>
	<g>
		<g>
			<path class="st0" d="M182.6,284c0,0.9,0.8,1.2,1.7,1.2c0.6,0,1.5-0.1,1.5-0.9c0-0.8-1-0.9-2-1.2c-1-0.2-2-0.6-2-1.8
				c0-1.2,1.2-1.8,2.3-1.8c1.4,0,2.5,0.4,2.5,1.9h-1c-0.1-0.8-0.8-1-1.4-1c-0.6,0-1.3,0.2-1.3,0.8c0,0.7,1.1,0.9,2,1.1
				c1,0.2,2,0.6,2,1.8c0,1.5-1.4,2-2.6,2c-1.4,0-2.6-0.6-2.6-2.1H182.6z"/>
			<path class="st0" d="M189.5,279.8h1.2v0.9h-1.2v3.9c0,0.5,0.1,0.6,0.8,0.6h0.5v0.9H190c-1.1,0-1.5-0.2-1.5-1.4v-3.9h-1.1v-0.9
				h1.1v-1.9h1V279.8z"/>
			<path class="st0" d="M197.5,286c-0.2,0.1-0.4,0.2-0.7,0.2c-0.5,0-0.9-0.3-0.9-1c-0.6,0.7-1.3,1-2.2,1c-1.1,0-2.1-0.5-2.1-1.7
				c0-1.4,1-1.7,2.1-1.9c1.1-0.2,2.1-0.1,2.1-0.9c0-0.9-0.7-1-1.4-1c-0.9,0-1.5,0.3-1.5,1.2h-1c0.1-1.5,1.2-2.1,2.6-2.1
				c1.1,0,2.3,0.3,2.3,1.7v3.2c0,0.5,0,0.7,0.3,0.7c0.1,0,0.2,0,0.3-0.1V286z M195.8,282.8c-0.4,0.3-1.2,0.3-1.8,0.4
				c-0.7,0.1-1.2,0.4-1.2,1.1c0,0.7,0.6,0.9,1.2,0.9c1.3,0,1.9-0.8,1.9-1.4V282.8z"/>
			<path class="st0" d="M198.5,279.8h1v1.3h0c0.5-1,1.2-1.5,2.3-1.5v1.1c-1.6,0-2.2,0.9-2.2,2.5v2.8h-1V279.8z"/>
		</g>
	</g>
	<g>
		<g>
			<path class="st0" d="M297.7,284c0,0.9,0.8,1.2,1.7,1.2c0.6,0,1.5-0.1,1.5-0.9c0-0.8-1-0.9-2-1.2c-1-0.2-2-0.6-2-1.8
				c0-1.2,1.2-1.8,2.3-1.8c1.4,0,2.5,0.4,2.5,1.9h-1c-0.1-0.8-0.8-1-1.4-1c-0.6,0-1.3,0.2-1.3,0.8c0,0.7,1.1,0.9,2,1.1
				c1,0.2,2,0.6,2,1.8c0,1.5-1.4,2-2.6,2c-1.4,0-2.6-0.6-2.6-2.1H297.7z"/>
			<path class="st0" d="M304.6,279.8h1.2v0.9h-1.2v3.9c0,0.5,0.1,0.6,0.8,0.6h0.5v0.9H305c-1.1,0-1.5-0.2-1.5-1.4v-3.9h-1.1v-0.9
				h1.1v-1.9h1V279.8z"/>
			<path class="st0" d="M309.7,279.6c2,0,3,1.4,3,3.3c0,1.8-1,3.2-3,3.2c-2,0-3-1.4-3-3.2C306.7,281.1,307.8,279.6,309.7,279.6z
				 M309.7,285.2c1.1,0,1.9-0.8,1.9-2.3c0-1.5-0.9-2.3-1.9-2.3c-1.1,0-1.9,0.8-1.9,2.3C307.8,284.4,308.7,285.2,309.7,285.2z"/>
			<path class="st0" d="M318.3,281.8c-0.2-0.8-0.7-1.2-1.5-1.2c-1.5,0-1.9,1.2-1.9,2.4c0,1.1,0.5,2.3,1.8,2.3c1,0,1.6-0.6,1.7-1.5h1
				c-0.2,1.5-1.2,2.4-2.7,2.4c-1.9,0-2.9-1.3-2.9-3.2c0-1.9,1-3.3,2.9-3.3c1.4,0,2.5,0.7,2.7,2.1H318.3z"/>
			<path class="st0" d="M320.7,277.4h1v5.1l2.8-2.7h1.4l-2.5,2.3l2.6,3.9h-1.3l-2.1-3.2l-1,0.9v2.4h-1V277.4z"/>
			<path class="st0" d="M328.1,278.7h-1v-1.2h1V278.7z M327,279.8h1v6.2h-1V279.8z"/>
			<path class="st0" d="M329.8,279.8h1v1h0c0.4-0.8,1.1-1.1,2-1.1c1.6,0,2.1,0.9,2.1,2.3v4.1h-1v-4.2c0-0.8-0.5-1.2-1.3-1.2
				c-1.2,0-1.8,0.8-1.8,1.9v3.5h-1V279.8z"/>
			<path class="st0" d="M341.9,285.5c0,2-0.9,3-2.9,3c-1.2,0-2.5-0.5-2.6-1.8h1c0,0.7,0.9,1,1.6,1c1.3,0,1.9-1,1.9-2.4v-0.4h0
				c-0.3,0.8-1.2,1.1-1.9,1.1c-1.8,0-2.8-1.5-2.8-3.1c0-1.5,0.7-3.3,2.9-3.3c0.8,0,1.5,0.3,1.8,1h0v-0.9h1V285.5z M340.9,282.8
				c0-1.1-0.5-2.2-1.8-2.2c-1.3,0-1.8,1.1-1.8,2.3c0,1.1,0.4,2.4,1.8,2.4S340.9,283.9,340.9,282.8z"/>
		</g>
	</g>
	<g>
		<g>
			<path class="st0" d="M439.3,279.8h1.2v0.9h-1.2v3.9c0,0.5,0.1,0.6,0.8,0.6h0.5v0.9h-0.8c-1.1,0-1.5-0.2-1.5-1.4v-3.9h-1.1v-0.9
				h1.1v-1.9h1V279.8z"/>
			<path class="st0" d="M441.7,279.8h1v1.3h0c0.5-1,1.2-1.5,2.3-1.5v1.1c-1.6,0-2.2,0.9-2.2,2.5v2.8h-1V279.8z"/>
			<path class="st0" d="M450.9,284c-0.3,1.4-1.3,2.1-2.7,2.1c-2,0-2.9-1.4-3-3.3c0-1.9,1.2-3.2,2.9-3.2c2.2,0,2.9,2.1,2.8,3.6h-4.6
				c0,1.1,0.6,2,1.9,2c0.8,0,1.4-0.4,1.6-1.2H450.9z M449.9,282.3c0-1-0.8-1.8-1.8-1.8c-1.1,0-1.7,0.8-1.8,1.8H449.9z"/>
			<path class="st0" d="M457.5,284c-0.3,1.4-1.3,2.1-2.7,2.1c-2,0-2.9-1.4-3-3.3c0-1.9,1.2-3.2,2.9-3.2c2.2,0,2.9,2.1,2.8,3.6h-4.6
				c0,1.1,0.6,2,1.9,2c0.8,0,1.4-0.4,1.6-1.2H457.5z M456.5,282.3c0-1-0.8-1.8-1.8-1.8c-1.1,0-1.7,0.8-1.8,1.8H456.5z"/>
		</g>
	</g>
</g>
<g id="icons">
	<g id="tree_2_">
		<path id="tree_3_" class="st1" d="M475.9,235.9c-0.1,0.1-6.4,13-19.6,13.4l-0.7,4.7c0,0.1,0,0.1,0,0.2c0,0.1-1.1,2.3-3.7,2.3H443
			c-2.6,0-3.6-2.2-3.7-2.3c0-0.1,0-0.1,0-0.2l-0.7-4.7c-13.2-0.3-19.5-13.2-19.6-13.4c-0.1-0.2-0.1-0.5,0.1-0.7
			c0.2-0.2,0.4-0.2,0.7-0.1c1.5,0.6,3,0.9,4.4,0.9c4.7,0,7.8-3.3,9.1-4.9c-5-0.8-8.6-6.8-8.8-7c-0.1-0.2-0.1-0.4,0-0.6
			c0.1-0.2,0.3-0.3,0.5-0.3c6,0,10.2-2.8,12-4.4c-6.6-0.6-7.9-4.9-8-5.1c0-0.2,0-0.4,0.1-0.5c0.1-0.1,0.3-0.2,0.5-0.2
			c9.1,0,17.2-17.3,17.2-17.4c0.2-0.4,0.9-0.4,1.1,0c0.1,0.2,8.1,17.4,17.2,17.4c0.2,0,0.4,0.1,0.5,0.2c0.1,0.1,0.1,0.3,0.1,0.5
			c-0.1,0.2-1.4,4.6-8,5.1c1.8,1.5,6.1,4.4,12,4.4c0.2,0,0.4,0.1,0.5,0.3c0.1,0.2,0.1,0.4,0,0.6c-0.2,0.3-3.7,6.2-8.8,7
			c1.2,1.6,4.4,4.9,9.1,4.9c1.4,0,2.9-0.3,4.4-0.9c0.2-0.1,0.5,0,0.7,0.1C475.9,235.4,476,235.7,475.9,235.9z"/>
		<path id="star_3_" class="st2" d="M444.5,188.3c0.3,0.3,0.5,0.8,0.4,1.2l-1,3.3c-0.1,0.4,0.1,0.5,0.4,0.3l2.5-2
			c0.3-0.3,0.9-0.3,1.2,0l2.5,2c0.3,0.3,0.5,0.1,0.4-0.3l-1-3.3c-0.1-0.4,0.1-1,0.4-1.2l2.6-2c0.3-0.3,0.3-0.5-0.2-0.5h-3.1
			c-0.4,0-0.9-0.3-1-0.8l-1-3.4c-0.1-0.4-0.3-0.4-0.5,0l-1,3.4c-0.1,0.4-0.6,0.8-1,0.8h-3.1c-0.4,0-0.5,0.2-0.2,0.5L444.5,188.3z"/>
	</g>
	<g id="stocking_2_">
		<path class="st3" d="M325.3,205.2c-3.2-3.2-8.5-3.2-11.7,0l-14.1,14.1c-4.9,4.9-6.2,9.2-6.6,13.3c-0.4,4.1,1.7,10.2,4.8,13.6
			l1.9,2.1c3.1,3.3,9.7,7.9,12.6,8.1c2.9,0.1,6.9-4.3,7.3-7.1c0.5-2.7-2-6.2-2-8.5c0-2.2,2.6-6.7,5.8-9.9l8-8
			c3.2-3.2,3.2-8.5,0-11.7L325.3,205.2z"/>
		<path class="st4" d="M300.9,239.4c-0.2-0.1-0.3-0.2-0.5-0.3c-0.6-0.6-0.6-1.7,0-2.3c1.8-1.8,2.7-3.7,2.7-5.7c0-3.4-2.6-6-2.6-6.1
			c-0.6-0.6-0.7-1.7,0-2.3c0.6-0.6,1.7-0.7,2.3,0c0.1,0.1,3.6,3.6,3.6,8.4c0,2.9-1.2,5.6-3.7,8C302.3,239.6,301.5,239.7,300.9,239.4
			z"/>
		<g id="top_1_">
			<path class="st4" d="M340.6,224.1c-2.9,2.9-7.7,2.9-10.6,0l-17.7-17.7c-2.9-2.9-2.9-7.7,0-10.6l3.1-3.1c2.9-2.9,7.7-2.9,10.6,0
				l17.7,17.7c2.9,2.9,2.9,7.7,0,10.6L340.6,224.1z"/>
			<ellipse class="st4" cx="321.3" cy="187.5" rx="2.3" ry="4.5"/>
			<path class="st5" d="M343.8,210.4l-17.7-17.7c-0.5-0.5-1.1-0.9-1.7-1.3c0.5-1.1,0.8-2.4,0.8-4c0-2.8-1.1-5.2-2.7-5.9
				c-0.4-0.2-0.8-0.3-1.2-0.3c-2.3,0-3.9,2.6-3.9,6.2c0,1.3,0.2,2.6,0.7,3.6c-0.9,0.4-1.8,0.9-2.6,1.7l-3.1,3.1
				c-2.9,2.9-2.9,7.7,0,10.6l17.7,17.7c0.6,0.6,1.4,1.1,2.1,1.5c2.8,1.3,6.2,0.8,8.5-1.5l3.1-3.1C346.7,218,346.7,213.3,343.8,210.4
				z M321.3,184.8c0.3,0.4,0.6,1.3,0.6,2.7c0,1.4-0.4,2.3-0.6,2.7c-0.3-0.4-0.6-1.3-0.6-2.7C320.7,186.1,321.1,185.2,321.3,184.8z
				 M341.4,218.6l-3.1,3.1c-1.2,1.2-3.1,1.6-4.7,0.8c-0.4-0.2-0.8-0.5-1.2-0.8l-17.7-17.7c-0.8-0.8-1.2-1.8-1.2-3
				c0-1.1,0.4-2.2,1.2-3l3.1-3.1c1.2-1.2,3.1-1.6,4.7-0.8c0.4,0.2,0.8,0.5,1.2,0.8l17.7,17.7c0.8,0.8,1.2,1.8,1.2,3
				C342.7,216.8,342.2,217.8,341.4,218.6z"/>
		</g>
	</g>
	<path id="star_2_" class="st2" d="M156.5,212.5l16.3,12.8c2.2,1.7,3.3,5.3,2.5,7.9l-6.1,20.7c-0.8,2.6,0.3,3.4,2.5,1.7l16-12.5
		c2.1-1.7,5.7-1.7,7.9,0l16.1,12.5c2.1,1.7,3.3,0.9,2.5-1.7l-6.3-20.8c-0.8-2.6,0.3-6.2,2.5-7.9l16.2-12.7c2.2-1.7,1.7-3.1-1.1-3.1
		h-19.7c-2.7,0-5.6-2.1-6.4-4.8l-6.4-21.2c-0.8-2.6-2.1-2.6-2.9,0l-6.3,21.2c-0.8,2.6-3.7,4.8-6.4,4.8h-19.8
		C154.8,209.4,154.3,210.8,156.5,212.5z"/>
	<g id="snowman_1_">
		<path id="snowman_4_" class="st6" d="M76.3,223.4c0.3,0.3,6.4,6.5,8.9,14.5c5.9-7.4-10.3-22.4-12.5-24.4c2-2.2,3.3-5.1,3.3-8.4
			c0-1.6-0.3-3.1-0.9-4.6c-0.8,0.9-2,1.5-3.4,1.5H55c-1.3,0-2.3-0.5-3.1-1.3c-0.5,1.4-0.8,2.9-0.8,4.4c0,3.2,1.2,6.1,3.2,8.3
			c-1.7,1.4-18.3,15.7-12.6,24.3c2.6-7.9,8.5-13.9,8.8-14.3c0.5-0.5,1.2-0.5,1.7,0c0.5,0.5,0.5,1.2,0,1.7c-0.1,0.1-8.7,8.9-9.2,18.5
			c0,0.2,0,0.4,0,0.6c0,0.3,0,0.7,0,1c0.2,4.9,2.7,11.2,14.3,11.2h4.6H65h4.6c11.4,0,14-6.1,14.2-10.9c0-0.5,0-0.9,0-1.4
			c0-0.1,0-0.2,0-0.4c-0.5-9.7-9.2-18.5-9.2-18.6c-0.5-0.5-0.5-1.2,0-1.7C75.1,223,75.8,223,76.3,223.4z M57.2,207.1
			c-1,0-1.8-0.8-1.8-1.8c0-1,0.8-1.8,1.8-1.8c1,0,1.8,0.8,1.8,1.8C59,206.3,58.2,207.1,57.2,207.1z M63.3,206.9
			c1.3,0,2.4,1.1,2.4,2.4c0,0.4-0.1,0.8-0.3,1.1l0,0l-2.1,3.6l-2.1-3.6l0,0c-0.2-0.3-0.3-0.7-0.3-1.1
			C60.9,207.9,62,206.9,63.3,206.9z M63.5,246.2c-1.3,0-2.4-1.1-2.4-2.4c0-1.3,1.1-2.4,2.4-2.4c1.3,0,2.4,1.1,2.4,2.4
			C65.9,245.1,64.8,246.2,63.5,246.2z M63.5,235.2c-1.3,0-2.4-1.1-2.4-2.4c0-1.3,1.1-2.4,2.4-2.4c1.3,0,2.4,1.1,2.4,2.4
			C65.9,234.1,64.8,235.2,63.5,235.2z M63.5,224.1c-1.3,0-2.4-1.1-2.4-2.4c0-1.3,1.1-2.4,2.4-2.4c1.3,0,2.4,1.1,2.4,2.4
			C65.9,223.1,64.8,224.1,63.5,224.1z M69.7,207.1c-1,0-1.8-0.8-1.8-1.8c0-1,0.8-1.8,1.8-1.8c1,0,1.8,0.8,1.8,1.8
			C71.5,206.3,70.7,207.1,69.7,207.1z"/>
		<g id="hat_5_">
			<g>
				<path class="st4" d="M79.6,194.9c-1.6,0-2.9,1-3.3,2.4c0-2.6-2-4.8-4.6-4.8H55c-2.6,0-4.4,2.1-4.4,4.8s1.7,4.8,4.4,4.8h16.6
					c2.2,0,3.9-1.5,4.4-3.5c0.1,1.9,1.6,3.4,3.5,3.4c2,0,3.6-1.6,3.6-3.6C83.2,196.5,81.6,194.9,79.6,194.9z"/>
				<path class="st5" d="M79.6,194.9c-1.5,0-2.8,0.9-3.3,2.3c-0.1-2.5-2.1-4.6-4.6-4.6H55c-2.6,0-4.4,2.1-4.4,4.8
					c0,2.6,1.7,4.8,4.4,4.8h16.7c2.1,0,3.8-1.4,4.4-3.3c0.2,1.8,1.7,3.3,3.6,3.3c2,0,3.6-1.6,3.6-3.6
					C83.2,196.5,81.6,194.9,79.6,194.9z M71.7,201H55c-1.9,0-3.3-1.5-3.3-3.7c0-2.2,1.3-3.7,3.3-3.7h16.7c2,0,3.5,1.6,3.5,3.7
					C75.2,199.4,73.6,201,71.7,201z M79.6,200.9c-1.3,0-2.4-1.1-2.4-2.4c0-1.3,1.1-2.4,2.4-2.4c1.3,0,2.4,1.1,2.4,2.4
					C82,199.8,80.9,200.9,79.6,200.9z"/>
			</g>
			<path class="st3" d="M50.6,197.3c0-0.1,0-0.1,0-0.2C50.7,197.2,50.6,197.3,50.6,197.3C50.6,197.3,50.6,197.3,50.6,197.3z
				 M77.6,195.5c-3.7-5.1-11.6-15-16.4-14.1c-4.5,0.9-6,7.2-6.5,11.1c-0.1,0-0.2,0-0.2,0.1c0.2,0,0.4-0.1,0.6-0.1h16.7
				c2.6,0,4.5,2,4.6,4.6C76.5,196.5,77,195.9,77.6,195.5z"/>
		</g>
	</g>
	<path id="ribbon_3_" class="st3" d="M-27,190.3c0-0.4,0-0.8,0-1.2c0-5.2-11.1-16.9-37.5,5.8c-26.4-22.8-37.5-11-37.5-5.8
		c0,0.4,0,0.8,0,1.2c-0.1-0.4-0.1-0.8-0.1-1.2v24.8c0,8.4,10.2,9.7,20,8.9l-12.2,26.1c-0.5,1.1,0,1.7,1.2,1.3l5.8-2.1
		c1.2-0.4,2.5,0.2,2.9,1.3l2.1,5.8c0.4,1.2,1.2,1.2,1.7,0.1l15.9-34.2l12.5,34.4c0.4,1.2,1.2,1.2,1.7,0.1l2.6-5.5
		c0.5-1.1,1.9-1.6,3-1.1l5.5,2.6c1.1,0.5,1.7,0,1.3-1.2l-10.1-27.7c10.1,1,21.2,0,21.2-8.8v-24.8C-26.9,189.5-27,189.9-27,190.3z
		 M-96.1,189.6c4.5-8.3,24.2,7,24.2,7S-100.4,197.5-96.1,189.6z M-64.5,217.6c-4.2,0-7.5-3.4-7.5-7.5s3.4-7.5,7.5-7.5
		c4.2,0,7.5,3.4,7.5,7.5S-60.4,217.6-64.5,217.6z M-57.2,196.6c0,0,19.7-15.3,24.2-7C-28.6,197.5-57.2,196.6-57.2,196.6z"/>
	<g id="Reef_1_">
		<path class="st1" d="M476.1,50c0-15.8-12.8-28.6-28.6-28.6S418.9,34.2,418.9,50c0,7.6,3,14.6,7.9,19.7v-5.3h0v0
			c0-1.6,0.8-3.2,2.2-4.5c0.9-0.8,2.4-1.7,4.5-2c-1.4-2.4-2.1-5.1-2.1-8c0-8.9,7.2-16.1,16.1-16.1c8.9,0,16.1,7.2,16.1,16.1
			c0,2.9-0.8,5.6-2.1,8c4.2,0.5,6.7,3.6,6.7,6.4v0h0v5.3C473.1,64.6,476.1,57.6,476.1,50z M426.7,51.5c-0.5,2.1-2.7,2.1-3.2,0
			c-2.1-0.5-2.1-2.7,0-3.2c0.5-2.1,2.7-2.1,3.2,0C428.9,48.8,428.9,50.9,426.7,51.5z M432,37.2c-0.5,2.1-2.7,2.1-3.2,0
			c-2.1-0.5-2.1-2.7,0-3.2c0.5-2.2,2.7-2.1,3.2,0C434.2,34.5,434.2,36.7,432,37.2z M449.1,29.3c-0.5,2.1-2.7,2.1-3.2,0
			c-2.1-0.5-2.1-2.7,0-3.2c0.5-2.1,2.7-2.1,3.2,0C451.2,26.6,451.2,28.8,449.1,29.3z M466.1,37.2c-0.5,2.1-2.7,2.1-3.2,0
			c-2.1-0.5-2.1-2.7,0-3.2c0.5-2.2,2.7-2.1,3.2,0C468.3,34.5,468.3,36.7,466.1,37.2z M468.2,51.6c-2.1-0.5-2.1-2.7,0-3.2
			c0.5-2.2,2.7-2.1,3.2,0c2.1,0.5,2.1,2.7,0,3.2C470.9,53.8,468.7,53.8,468.2,51.6z"/>
		<path class="st3" d="M465.3,65c0-0.2,0-0.4,0-0.6c0-0.1,0-0.2,0-0.3c0,0,0-0.1,0-0.1c0-0.1,0-0.1,0-0.2c0,0,0-0.1,0-0.1
			c0-0.1,0-0.1-0.1-0.2c0,0,0-0.1,0-0.1c0-0.1,0-0.1-0.1-0.2c0,0,0-0.1-0.1-0.1c0-0.1-0.1-0.1-0.1-0.2c0,0,0-0.1-0.1-0.1
			c0-0.1-0.1-0.1-0.1-0.2c0,0-0.1-0.1-0.1-0.1c0-0.1-0.1-0.1-0.1-0.2c0,0-0.1-0.1-0.1-0.1c-0.1-0.1-0.1-0.1-0.2-0.2
			c0,0-0.1-0.1-0.1-0.1c-0.1-0.1-0.2-0.1-0.2-0.2c0,0-0.1,0-0.1-0.1c-0.2-0.2-0.5-0.3-0.8-0.5c0,0-0.1,0-0.1,0
			c-0.1,0-0.2-0.1-0.3-0.1c-0.1,0-0.1,0-0.2-0.1c-0.1,0-0.2-0.1-0.3-0.1c-0.1,0-0.1,0-0.2-0.1c-0.1,0-0.2,0-0.3-0.1
			c-0.1,0-0.2,0-0.2,0c-0.1,0-0.2,0-0.3,0c-0.1,0-0.2,0-0.3,0c-0.1,0-0.2,0-0.3,0c-0.1,0-0.1,0-0.2,0c0,0-0.1,0-0.1,0
			c-2.7,0-6.6,1.4-11.7,5.7c-0.3,0.2-0.6,0.5-0.9,0.7c-0.3-0.3-0.6-0.5-0.9-0.7c-5.2-4.2-9-5.6-11.7-5.7c0,0-0.1,0-0.1,0
			c-0.1,0-0.1,0-0.2,0c-0.1,0-0.2,0-0.3,0c-0.1,0-0.2,0-0.3,0c-0.1,0-0.2,0-0.3,0c-0.1,0-0.2,0-0.2,0c-0.1,0-0.2,0-0.3,0.1
			c-0.1,0-0.1,0-0.2,0.1c-0.1,0-0.2,0.1-0.3,0.1c-0.1,0-0.1,0-0.2,0.1c-0.1,0-0.2,0.1-0.3,0.1c0,0-0.1,0-0.1,0.1
			c-0.1,0.1-0.3,0.1-0.4,0.2c0,0,0,0,0,0c-0.1,0.1-0.2,0.1-0.3,0.2c0,0-0.1,0.1-0.1,0.1c-0.1,0.1-0.1,0.1-0.2,0.2
			c0,0-0.1,0.1-0.1,0.1c-0.1,0.1-0.1,0.1-0.2,0.2c0,0-0.1,0.1-0.1,0.1c0,0.1-0.1,0.1-0.1,0.2c0,0-0.1,0.1-0.1,0.1
			c0,0.1-0.1,0.1-0.1,0.2c0,0-0.1,0.1-0.1,0.1c0,0.1-0.1,0.1-0.1,0.2c0,0,0,0.1-0.1,0.1c0,0.1-0.1,0.1-0.1,0.2c0,0,0,0.1,0,0.1
			c0,0.1,0,0.1-0.1,0.2c0,0,0,0.1,0,0.1c0,0.1,0,0.1,0,0.2c0,0,0,0.1,0,0.1c0,0.1,0,0.2,0,0.3c0,0.2,0,0.4,0,0.6c0-0.2,0-0.4,0-0.6
			v7.9v3.9c0,4,4.9,4.6,9.5,4.2l-5.8,12.4c-0.2,0.5,0,0.8,0.6,0.6l2.7-1c0.6-0.2,1.2,0.1,1.4,0.6l1,2.7c0.2,0.6,0.6,0.6,0.8,0
			l7.6-16.2l6,16.3c0.2,0.6,0.6,0.6,0.8,0l1.2-2.6c0.2-0.5,0.9-0.8,1.4-0.5l2.6,1.2c0.5,0.2,0.8,0,0.6-0.6l-4.8-13.2
			c4.8,0.5,10.1,0,10.1-4.2v-3.9v-7.9C465.3,64.6,465.3,64.8,465.3,65z M432.5,64.7C434.6,60.7,444,68,444,68S430.4,68.4,432.5,64.7
			z M447.5,78c-2,0-3.6-1.6-3.6-3.6c0-2,1.6-3.6,3.6-3.6c2,0,3.6,1.6,3.6,3.6C451,76.4,449.4,78,447.5,78z M450.9,68
			c0,0,9.4-7.3,11.5-3.3C464.5,68.4,450.9,68,450.9,68z"/>
	</g>
	<g id="pudding_1_">
		<path id="pudding_3_" class="st7" d="M318.6,40.5c-16.9,0-30.6,16.3-30.6,33.2v12.5c0,0,0.4,10.2,30.8,10.2
			c30.4,0,30.4-10.2,30.4-10.2V73.7C349.2,56.8,335.5,40.5,318.6,40.5z"/>
		<path id="icing_1_" class="st4" d="M318.6,45.7c-11.6,0-22.4,10.2-24.8,22.6l0.1,0.4c0.4,3.2,1.9,5.8,3.3,5.8c1.4,0,2.8-2.4,3-5.3
			c0.3-2.9,1.1-5.3,1.9-5.4c0.7-0.1,1.5,2.5,1.8,5.7l0.7,9.2c0.2,3.2,1.8,5.8,3.6,5.8c1.7,0,3.4-2.6,3.7-5.8l1.2-12.5
			c0.3-3.2,1.7-6,3.1-6.3c1.4-0.2,3,2.2,3.4,5.4l1.4,10.2c0.4,3.2,2.2,5.8,3.9,5.7c1.7-0.1,3.6-2.7,4.1-5.9l0.3-1.9
			c0.5-3.2,2.4-5.8,4.2-5.8c1.8,0,3.7,2.4,4.3,5.4c0.6,3,2.1,5.4,3.4,5.4c1.2,0,2.5-2.6,2.8-5.8l0.1-1
			C342.8,57.9,331.3,45.7,318.6,45.7z"/>
		<g id="leaves_3_">
			<g>
				<path class="st1" d="M315.6,42c-1.9-4,0.1-10,0.1-10.1c0.1-0.3,0.1-0.7-0.1-0.9c-0.2-0.3-0.5-0.5-0.8-0.5
					c-0.9-0.1-3.4-0.6-4.5-1.7c-1.1-1.1-1.5-3.5-1.6-4.3c0-0.3-0.2-0.6-0.5-0.8c-0.3-0.2-0.6-0.2-0.9-0.1c-0.1,0-8.1,2.6-11.7-1
					c-0.4-0.4-1.1-0.4-1.5,0c-0.4,0.4-0.4,1.1,0,1.5c3.6,3.6,1,11.6,1,11.7c-0.1,0.3-0.1,0.7,0.1,0.9c0.2,0.3,0.5,0.5,0.8,0.5
					c0.9,0.1,3.3,0.5,4.4,1.6c1.1,1.1,1.6,3.6,1.7,4.5c0,0.3,0.2,0.6,0.5,0.8c0.3,0.2,0.6,0.2,0.9,0.1c0.1,0,5.6-1.8,9.5-0.3
					L315.6,42z"/>
				<path class="st1" d="M327.9,39.2c-0.2-0.7-0.5-2.7,0.1-3.8c0.5-1.1,2.2-2.1,2.8-2.3c0.2-0.1,0.4-0.3,0.5-0.6
					c0.1-0.3,0-0.5-0.2-0.7c0-0.1-4.1-5.3-2.4-9c0.2-0.4,0-0.9-0.4-1.2c-0.4-0.2-0.9,0-1.2,0.4c-1.7,3.7-8.4,3.9-8.5,3.9
					c-0.3,0-0.5,0.1-0.7,0.3c-0.2,0.2-0.2,0.5-0.1,0.7c0.2,0.7,0.5,2.6,0,3.7c-0.5,1.1-2.3,2.2-2.9,2.5c-0.2,0.1-0.4,0.3-0.5,0.6
					c-0.1,0.3,0,0.5,0.2,0.7c0,0,2.8,3.7,2.8,7c0.2-0.6,2.5,0.7,2.2,1.3c0,0.1-0.1,0.1-0.1,0.2c2.5-2.5,7.5-2.7,7.6-2.7
					c0.3,0,0.5-0.1,0.7-0.3C327.9,39.7,328,39.5,327.9,39.2z"/>
			</g>
		</g>
		<g id="berries_3_">
			<g>
				<circle class="st4" cx="321.4" cy="39.5" r="2.6"/>
				<path class="st3" d="M321.4,36.9c1.4,0,2.6,1.2,2.6,2.6c0,1.4-1.2,2.6-2.6,2.6c-1.4,0-2.6-1.2-2.6-2.6
					C318.7,38,319.9,36.9,321.4,36.9 M321.4,31.6c-4.3,0-7.9,3.5-7.9,7.9c0,4.3,3.5,7.9,7.9,7.9c4.3,0,7.9-3.5,7.9-7.9
					C329.2,35.1,325.7,31.6,321.4,31.6L321.4,31.6z"/>
			</g>
			<g>
				<circle class="st4" cx="313.1" cy="42.9" r="2.6"/>
				<path class="st3" d="M313.1,40.3c1.4,0,2.6,1.2,2.6,2.6c0,1.4-1.2,2.6-2.6,2.6c-1.4,0-2.6-1.2-2.6-2.6
					C310.5,41.5,311.7,40.3,313.1,40.3 M313.1,35.1c-4.3,0-7.9,3.5-7.9,7.9c0,4.3,3.5,7.9,7.9,7.9c4.3,0,7.9-3.5,7.9-7.9
					C321,38.6,317.5,35.1,313.1,35.1L313.1,35.1z"/>
			</g>
		</g>
	</g>
	<g id="nutcracker_2_">
		<g id="face_3_">
			<g id="head_3_">
				<path class="st4" d="M209,67.4h-35.3c-1.4,2.8-2.3,5.9-2.3,9.2c0,11,8.9,19.9,19.9,19.9c11,0,19.9-8.9,19.9-19.9
					C211.3,73.3,210.5,70.2,209,67.4z"/>
				<path class="st8" d="M209,67.4H206c1.7,2.7,2.7,5.8,2.7,9.2c0,9.5-7.8,17.3-17.3,17.3c-9.5,0-17.3-7.7-17.3-17.3
					c0-3.4,1-6.5,2.7-9.2h-3.1c-1.4,2.8-2.3,5.9-2.3,9.2c0,11,8.9,19.9,19.9,19.9c11,0,19.9-8.9,19.9-19.9
					C211.3,73.3,210.5,70.2,209,67.4z"/>
			</g>
			<polygon id="nose_3_" class="st8" points="193.4,80.5 189.4,80.5 190.7,67 192.1,67 			"/>
			<g id="eyes_3_">
				<g>
					<g>
						<circle class="st9" cx="181.5" cy="72.2" r="2.5"/>
						<circle class="st9" cx="201.6" cy="72.2" r="2.5"/>
					</g>
				</g>
			</g>
			<path id="tash_1_" class="st10" d="M197,76.6c-3.8,0-5.5,3.3-5.5,3.3s-1.7-3.3-5.5-3.3c-3.8,0-12.6,11.3-22.4,1.5
				c0,0,1.6,11,20.7,11c0,0,5.3-0.5,7.2-2.3c1.9,1.9,7.2,2.3,7.2,2.3c19.1,0,20.7-11,20.7-11C209.6,87.9,200.7,76.6,197,76.6z"/>
		</g>
		<g id="hat_4_">
			<path class="st3" d="M191.4,57.2l-14.3,1.6V43.7l14.3,10.2l14.3-10.2v15.1L191.4,57.2z M191.4,59.9l-18.2,2v5.5h36.3v-5.5
				L191.4,59.9z M191.4,47l14.3-10.2v-4.4c0,0-3.7-2.2-14.2-2.2c-10.5,0-14.4,2.2-14.4,2.2v4.4L191.4,47z"/>
			<circle class="st2" cx="191.4" cy="24.9" r="3.3"/>
		</g>
	</g>
	<g id="holy_1_">
		<path id="leaves_2_" class="st1" d="M95.9,65.7c-0.1,0.1-7.7,9.3-4.8,16c0.3,0.8,0,1.7-0.8,2c-0.8,0.3-1.7,0-2-0.8
			c-2.9-6.7-14.8-7.5-14.9-7.5c-0.5,0-0.9-0.3-1.2-0.7c-0.3-0.4-0.3-0.9-0.2-1.3c0.1-0.4,0.3-0.9,0.4-1.6c0.1-0.1,0.2-0.1,0.3-0.2
			c1.7-0.9,3-2.4,3.4-4.3c0.4-1.9,0-3.8-1.2-5.3c-1-1.3-3.1-4.5-4.5-7.9c0.2-0.4,0.4-0.8,0.5-1.2c1,0.3,2,0.5,3.1,0.5
			c3.6,0,6.7-1.8,8.5-4.5c3.5,1.1,6.7,1.4,6.8,1.4c0.5,0,0.9,0.3,1.2,0.6c0.3,0.4,0.4,0.9,0.2,1.3c-0.3,1.2-1,4.8-0.1,6.8
			c0.9,2,3.9,3.9,4.9,4.5c0.4,0.2,0.7,0.6,0.8,1.1C96.3,64.9,96.2,65.4,95.9,65.7z M71.5,64.6c0-0.1-2-2.6-3.8-6.1v0
			c-1.5-2.8-2.8-6.4-3.1-9.8c-0.3,0.3-0.6,0.5-0.9,0.7c-0.4,0.7-0.7,1.5-1.2,2.2c-0.9,1.5-1.9,3-2.7,4.5c-1.7,3-3.4,6.1-5.2,9
			c-1.8,3-3.6,6-5.5,8.9c-0.2,0.3-0.4,0.4-0.5,0.2c-0.1-0.1-0.1-0.3,0-0.5c1-3.3,2.2-6.7,3.3-10c1.1-3.3,2.3-6.6,3.6-9.8
			c0.3-0.9,0.6-1.8,0.9-2.7c-2.1-0.3-4.1-1.2-5.6-2.6c-5,1.5-9.7,1.7-9.8,1.7c-0.6,0-1.2,0.3-1.6,0.8c-0.4,0.5-0.5,1.2-0.4,1.8
			c0.4,1.6,1.1,6.6-0.2,9.4c-1.3,2.8-5.4,5.1-6.8,5.8c-0.6,0.3-1,0.8-1.2,1.4c-0.2,0.6,0,1.3,0.4,1.8c0.1,0.1,10.2,13.1,5.9,22.1
			c-0.5,1.1,0,2.3,1,2.8c1.1,0.5,2.3,0,2.8-1c4.2-9,20.6-9.7,20.8-9.7c0.6,0,1.2-0.3,1.6-0.8c0.4-0.5,0.5-1.2,0.4-1.8
			c-0.4-1.6-1.2-6.4,0.1-9.1c1.3-2.7,5.5-5.3,7-6.1c0.6-0.3,1-0.8,1.1-1.4C72,65.8,71.9,65.1,71.5,64.6z"/>
		<g id="berries_2_">
			<g>
				<path class="st3" d="M68.2,43c0,2.5,1.6,4.6,3.8,5.4l0,0c0,0,0,0,0,0c0.3,0.1,0.6,0.2,0.9,0.2c0.3,0.1,0.7,0.1,1,0.1
					c0.4,0,0.7,0,1.1-0.1c0,0,0.1,0,0.1,0c0.3-0.1,0.6-0.2,0.9-0.3c0.1,0,0.2-0.1,0.3-0.1c0.2-0.1,0.4-0.2,0.6-0.3
					c0.5-0.3,0.9-0.6,1.3-1.1c0,0,0,0,0,0v0c0.9-1,1.5-2.3,1.5-3.8c0-3.2-2.6-5.7-5.7-5.7C70.7,37.3,68.2,39.9,68.2,43z"/>
				<path class="st3" d="M56.7,46.7c0.3,0.1,0.6,0.1,0.9,0.1c0.1,0,0.2,0,0.3,0l0,0c3-0.2,5.4-2.6,5.4-5.7c0-3.2-2.6-5.7-5.7-5.7
					c-3.2,0-5.7,2.6-5.7,5.7C51.9,43.9,54,46.2,56.7,46.7z"/>
				<circle class="st3" cx="67.9" cy="27.3" r="5.7"/>
			</g>
		</g>
	</g>
	<path id="gingerbread_man_1_" class="st10" d="M-47.5,48.1c0-0.7,0.1-1.4,0.2-2c5.1-1.9,8,1.3,8,1.3c3.5,3.5,2.4,6.9-0.3,9.7
		C-44,56.5-47.5,52.7-47.5,48.1z M-52,93.5c3.2,3.1,7.2,4.8,11.5,0.5c2.7-2.7,2.4-6,0.9-9.2c-0.7-0.1-1.4-0.2-2.1-0.2
		C-47,84.5-51.4,88.4-52,93.5z M-79.1,36.1c0-8,6.5-14.5,14.5-14.5c8,0,14.5,6.5,14.5,14.5c0,5.8-3.4,10.8-8.4,13.1
		c-0.3-0.3-0.7-0.3-1.1-0.2l-1.4,0.5c-0.8,0.3-2.1,0.5-3,0.5h-1.3c-0.8,0-2.2-0.2-3-0.5l-1.4-0.5c-0.4-0.2-0.8-0.1-1.1,0.2
		C-75.6,46.9-79.1,41.9-79.1,36.1z M-61.4,32.7c0,0.2,0,0.4,0.1,0.6c0,0.2,0.2,0.3,0.4,0.3c0,0,0,0,0,0c0.2,0,0.4-0.1,0.4-0.3
		c0.2-1.3,1.3-2.2,2.6-2.2s2.4,0.9,2.6,2.2c0,0.2,0.2,0.3,0.4,0.3c0,0,0,0,0,0c0.2,0,0.4-0.1,0.4-0.3c0-0.2,0.1-0.4,0.1-0.6
		c0-1.9-1.6-3.5-3.5-3.5C-59.8,29.2-61.4,30.8-61.4,32.7z M-64.5,37.9c-4.6,0-8.4-0.5-8.4,1.6c0,2.1,3.8,6,8.4,6s8.4-3.9,8.4-6
		C-56.1,37.4-59.9,37.9-64.5,37.9z M-74.7,32.7c0,0.2,0,0.4,0.1,0.6c0,0.2,0.2,0.3,0.4,0.3c0,0,0,0,0,0c0.2,0,0.4-0.1,0.4-0.3
		c0.2-1.3,1.3-2.2,2.6-2.2c1.3,0,2.4,0.9,2.6,2.2c0,0.2,0.2,0.3,0.4,0.3c0,0,0,0,0,0c0.2,0,0.4-0.1,0.4-0.3c0-0.2,0.1-0.4,0.1-0.6
		c0-1.9-1.6-3.5-3.5-3.5C-73.1,29.2-74.7,30.8-74.7,32.7z M-79.6,48.1c0,5-3.4,9.3-8.1,10.5c4.3,3.4,10.2,5.7,10.2,5.7l0.1,7.5
		c0,0-0.8,0.6-2.1,1.6c2,1.6,4.7,3.1,6.9,2.2c2.5-1,5.3-5.5,5-20.9c-0.2,0-0.4,0.1-0.5,0.2l-1.4,0.5c-0.8,0.3-1.4-0.2-1.4-1v-2.8
		c-3-1.4-6.2-3-8.2-4.2c-0.1-0.1-0.3-0.2-0.4-0.3C-79.7,47.4-79.6,47.8-79.6,48.1z M-41.8,82.3c0.3,0,0.5,0,0.8,0
		c-1.8-2.7-4.3-5.2-6.4-7.1c-1.7,1.3-4,2.6-6.3,2.6c-0.7,0-1.4-0.1-2.1-0.4c-4.5-1.8-6.5-9.3-6.2-22.8c-0.7-0.1-1.4-0.2-1.9-0.2
		h-0.5c-0.1,0-0.1,0-0.1,0s0,0-0.1,0h-0.5c-0.2,0-0.4,0-0.6,0c0.3,13.6-1.7,21.2-6.2,23c-0.7,0.3-1.4,0.4-2.1,0.4
		c-2.6,0-5.3-1.7-7-3.1c-2.2,1.9-5,4.7-7,7.7c0,0,0.1,0,0.1,0c6,0,11,4.2,12.3,9.8c2.3-2.5,4.2-5.5,5.4-6.7c3.1-3.1,5.7-2.7,5.7-2.7
		s2.6-0.4,5.7,2.7c1.1,1.1,2.8,3.7,4.9,6.1C-52.4,86.2-47.6,82.3-41.8,82.3z M-87.9,84.5c-0.5,0-1,0-1.4,0.1
		c-1.6,3.3-1.9,6.6,0.8,9.3c4.1,4.1,7.8,2.8,10.9,0.1C-78.1,88.7-82.5,84.5-87.9,84.5z M-58,54.4c0,0.8-0.6,1.3-1.4,1l-0.6-0.2
		c-0.3,15,2.6,19.4,5,20.4c1.9,0.8,4.3-0.3,6.2-1.7c-1.6-1.3-2.7-2.2-2.7-2.2l0.1-7.5c0,0,5.9-2.2,10.2-5.7
		c-4.7-1.2-8.1-5.5-8.1-10.5c0-0.3,0-0.7,0.1-1c-0.1,0.1-0.3,0.2-0.4,0.3c-2,1.3-5.3,2.9-8.2,4.2V54.4z M-89.8,47.4
		c-3.5,3.5-2.4,6.9,0.3,9.7c4.5-0.5,7.9-4.3,7.9-8.9c0-0.7-0.1-1.4-0.2-2C-86.8,44.2-89.8,47.4-89.8,47.4z"/>
	<g id="gift_2_">
		<path id="gift_3_" class="st3" d="M443.1-109.4h-22.9v-10.9h22.9V-109.4z M451.8-63.6h18c0.9,0,1.6-0.7,1.6-1.6v-39.8h-19.6V-63.6
			z M451.8-120.3v10.9h22.9v-10.9H451.8z M443.1-105.1h-19.6v39.8c0,0.9,0.7,1.6,1.6,1.6h18V-105.1z"/>
		<polygon id="ribbon_1_" class="st2" points="461.1,-124.7 467.3,-130.9 459.6,-130.9 459.6,-138.6 447.5,-126.5 435.4,-138.6 
			435.4,-130.9 427.7,-130.9 433.8,-124.7 		"/>
	</g>
	<g id="fairylight_1_">
		<g>
			<path class="st7" d="M325.7-73.1v4.2c0,0.6-0.5,1-1,1h-10.5c-0.6,0-1-0.5-1-1v-4.2c0-0.6,0.5-1,1-1h10.5
				C325.3-74.2,325.7-73.7,325.7-73.1z"/>
			<path class="st7" d="M323.5-66.7h-8.1c-0.4,0-0.6,0.3-0.6,0.6v1.9c0,0.4,0.3,0.6,0.6,0.6h8.1c0.4,0,0.6-0.3,0.6-0.6v-1.9
				C324.2-66.4,323.9-66.7,323.5-66.7z"/>
		</g>
		<g id="bulb_1_">
			<path class="st4" d="M320.7-115.3c0.4,0.5,9.1,11.5,9.1,22.6c0,6.7-2.4,9.2-4.4,11.1c-1.3,1.4-2.2,2.3-2.2,4.5v1.6h-7.3v-1.6
				c0-2.2-0.9-3.1-2.2-4.5c-2-2-4.4-4.5-4.4-11.1c0-11.1,8.7-22.1,9.1-22.6l1.2-1.5L320.7-115.3z"/>
			<path class="st2" d="M320.7-115.3l-1.2-1.5l-1.2,1.5c-0.4,0.5-9.1,11.5-9.1,22.6c0,6.7,2.4,9.2,4.4,11.1c1.3,1.4,2.2,2.3,2.2,4.5
				v1.6h7.3v-1.6c0-2.2,0.9-3.1,2.2-4.5c2-2,4.4-4.5,4.4-11.1C329.8-103.8,321.1-114.8,320.7-115.3z M323.1-83.7
				c-1.2,1.3-2.6,2.6-3,5.1h-1.3c-0.4-2.4-1.8-3.8-3-5.1c-1.7-1.7-3.5-3.6-3.5-8.9c0-7.6,4.8-15.6,7.2-19c2.3,3.4,7.1,11.3,7.1,19
				C326.6-87.3,324.8-85.5,323.1-83.7z"/>
		</g>
		<g id="shine_1_">
			<g>
				<path class="st2" d="M319.4-120.4c1.2,0,2.2-11.9,2.2-14.1c0-2.2,0-4.1-2.1-4.1c-2.2,0-2.2,1.8-2.2,4.1
					C317.3-132.3,318.2-120.4,319.4-120.4z"/>
				<path class="st2" d="M338.7-128.1c-1.2-1.1-2.1-0.1-3.2,1.1c-1.1,1.2-6.6,8.2-6,8.8c0.7,0.6,7.2-5.4,8.3-6.6
					C339-126,339.9-127,338.7-128.1z"/>
				<path class="st2" d="M309.6-118.3c0.6-0.6-5-7.5-6.2-8.7c-1.2-1.2-2.1-2.2-3.3-1.1c-1.2,1.1-0.2,2.1,0.9,3.3
					C302.3-123.5,309-117.7,309.6-118.3z"/>
			</g>
		</g>
	</g>
	<g id="elf_1_">
		<g id="face_2_">
			<g id="ears_1_">
				<g>
					<path class="st4" d="M216-94.7c1,2.8,1.6,5.8,1.6,8.9c0.3-0.3,0.5-0.7,0.8-1.2c2.1-3.9,3-9.1,3-9.1S218.7-95.7,216-94.7z"/>
					<path class="st4" d="M166.5-85.8c0-2.9,0.5-5.7,1.4-8.3c-3.1-1.3-7-2-7-2s0.9,5.2,3,9.1c0.9,1.6,1.7,2.2,2.6,2.2
						C166.6-85.2,166.5-85.5,166.5-85.8z"/>
				</g>
				<g>
					<path class="st1" d="M221.2-97.7c-1.1,0.2-3.4,0.7-5.8,1.5c0.4,0.9,0.8,1.9,1.1,2.8c0.9-0.3,1.9-0.6,3-0.9
						c-0.4,1.6-1.1,3.7-2,5.7c0.1,0.9,0.2,1.8,0.2,2.7c0,0.7-0.1,1.3-0.1,2c1.2-0.7,2-2,2.3-2.6c2.2-4.1,3.1-9.3,3.2-9.6l0.4-2.1
						L221.2-97.7z"/>
					<path class="st1" d="M166.5-85.8c0-0.2,0-0.4,0-0.6c0,0-0.1,0-0.1,0c-0.1,0-0.6-0.3-1.2-1.4c-1.1-2.1-1.9-4.7-2.4-6.4
						c1.6,0.4,3.2,0.9,4.5,1.5c0.3-1,0.6-1.9,1-2.9c-2.7-1.2-5.8-1.8-7.2-2.1l-2.1-0.4l0.4,2.1c0,0.2,1,5.5,3.2,9.6
						c0.4,0.7,1.6,3,3.8,3c0.1,0,0.1,0,0.2,0C166.6-84.2,166.5-85,166.5-85.8z"/>
				</g>
			</g>
			<g id="head_2_">
				<path class="st4" d="M212-96.2h-39.9c-1.6,3.1-2.6,6.7-2.6,10.4c0,12.4,10.1,22.5,22.5,22.5c12.4,0,22.5-10.1,22.5-22.5
					C214.6-89.6,213.7-93.1,212-96.2z"/>
				<path class="st1" d="M212-96.2h-3.5c1.9,3,3,6.6,3,10.4c0,10.8-8.8,19.5-19.5,19.5c-10.8,0-19.5-8.8-19.5-19.5
					c0-3.8,1.1-7.4,3-10.4h-3.5c-1.6,3.1-2.6,6.7-2.6,10.4c0,12.4,10.1,22.5,22.5,22.5c12.4,0,22.5-10.1,22.5-22.5
					C214.6-89.6,213.7-93.1,212-96.2z"/>
			</g>
			<path id="smile_1_" class="st1" d="M192.1-76.9c-4.7,0-8.4-0.5-8.4,1.6c0,2.1,3.8,6,8.4,6c4.7,0,8.4-3.9,8.4-6
				C200.5-77.4,196.7-76.9,192.1-76.9z"/>
			<polygon id="nose_2_" class="st1" points="194.3,-81.4 189.8,-81.4 191.3,-96.7 192.8,-96.7 			"/>
			<g id="eyes_2_">
				<circle class="st1" cx="180.9" cy="-90.8" r="2.8"/>
				<circle class="st1" cx="203.6" cy="-90.8" r="2.8"/>
			</g>
		</g>
		<path id="hat_3_" class="st7" d="M192.1-107.7l-15.3,1.7c1.7-10.5,6.4-32.2,15.5-32.2c9,0,13.6,21.7,15.3,32.2L192.1-107.7z
			 M192.1-104.7l-20.5,2.3v6.3h41.1v-6.3L192.1-104.7z"/>
	</g>
	<g id="drums_2_">
		<g>
			<polygon class="st9" points="50.3,-93.9 60.6,-113.7 40.1,-113.7 			"/>
			<polygon class="st2" points="63.3,-108.3 53.1,-88.5 73.6,-88.5 			"/>
			<polygon class="st2" points="37.3,-108.3 37.3,-88.5 47.5,-88.5 			"/>
			<polygon class="st2" points="79.1,-88.5 89.4,-88.5 89.4,-108.3 			"/>
			<polygon class="st9" points="66.1,-113.7 76.4,-93.9 86.6,-113.7 			"/>
		</g>
		<g>
			<path class="st3" d="M94.3-76.1c0,1.4-1.1,2.5-2.5,2.5h-57c-1.4,0-2.5-1.1-2.5-2.5v-5c0-1.4,1.1-2.5,2.5-2.5h57
				c1.4,0,2.5,1.1,2.5,2.5V-76.1z"/>
			<path class="st3" d="M94.3-121.1c0,1.4-1.1,2.5-2.5,2.5h-57c-1.4,0-2.5-1.1-2.5-2.5v-5c0-1.4,1.1-2.5,2.5-2.5h57
				c1.4,0,2.5,1.1,2.5,2.5V-121.1z"/>
		</g>
	</g>
	<g id="cracker_1_">
		<g>
			<path class="st1" d="M-82.4-74.7l-8.3-0.2l-0.2-8.3l-6.4-0.2l-4.3,4.3c-0.4,0.4-0.4,1.1,0,1.5L-88-63.9c0.4,0.4,1.1,0.4,1.5,0
				l4.3-4.3L-82.4-74.7z"/>
			<path class="st1" d="M-42.5-138.3l-4.3,4.3l0.2,6.4l8.3,0.2l0.2,8.3l6.4,0.2l4.3-4.3c0.4-0.4,0.4-1.1,0-1.5L-41-138.3
				C-41.4-138.7-42.1-138.7-42.5-138.3z"/>
			<path class="st3" d="M-40.9-116.1l-0.2-8.3l-8.3-0.2l-0.2-6.4l-4.6,4.6c-0.4,0.4-0.6,1.2-0.4,1.8l1.2,3.7
				c0.2,0.6-0.1,0.9-0.7,0.7l-3.7-1.2c-0.6-0.2-1.4,0-1.8,0.4l-25,25c-0.4,0.4-0.6,1.2-0.4,1.8l1.2,3.7c0.2,0.6-0.1,0.9-0.7,0.7
				l-3.7-1.2c-0.6-0.2-1.4,0-1.8,0.4l-4.6,4.6l6.4,0.2l0.2,8.3l8.3,0.2l0.2,6.4l4.6-4.6c0.4-0.4,0.6-1.2,0.4-1.8l-1.2-3.7
				c-0.2-0.6,0.1-0.9,0.7-0.7l3.7,1.2c0.6,0.2,1.4,0,1.8-0.4l25-25c0.4-0.4,0.6-1.2,0.4-1.8l-1.2-3.7c-0.2-0.6,0.1-0.9,0.7-0.7
				l3.7,1.2c0.6,0.2,1.4,0,1.8-0.4l4.6-4.6L-40.9-116.1z"/>
		</g>
		<g id="dots_1_">
			<g>
				<g>
					
						<ellipse transform="matrix(0.7071 -0.7071 0.7071 0.7071 43.3463 -79.0485)" class="st4" cx="-73.7" cy="-91.8" rx="2.9" ry="2.9"/>
				</g>
			</g>
			<g>
				<g>
					
						<ellipse transform="matrix(0.7071 -0.7071 0.7071 0.7071 52.5799 -75.225)" class="st4" cx="-64.5" cy="-101.1" rx="2.9" ry="2.9"/>
				</g>
			</g>
			<g>
				<g>
					
						<ellipse transform="matrix(0.7071 -0.7071 0.7071 0.7071 61.8135 -71.4007)" class="st4" cx="-55.3" cy="-110.3" rx="2.9" ry="2.9"/>
				</g>
			</g>
			
				<ellipse transform="matrix(0.707 -0.7072 0.7072 0.707 64.4351 -69.1443)" class="st11" cx="-51.2" cy="-112.3" rx="1.4" ry="1.4"/>
			
				<ellipse transform="matrix(0.7072 -0.707 0.707 0.7072 39.8903 -79.2798)" class="st11" cx="-75.8" cy="-87.8" rx="1.4" ry="1.4"/>
		</g>
	</g>
	<path id="candy_1_" class="st3" d="M476.7-267.4c-0.7,1.8-2.3,3.1-4,3.6c-0.1,0-0.2,0.1-0.3,0.1c-0.2,0.1-0.4,0.1-0.6,0.1
		c-0.2,0-0.4,0-0.5,0.1c-0.2,0-0.4,0-0.5,0c-0.2,0-0.5,0-0.7-0.1c-0.1,0-0.3,0-0.4-0.1c-0.4-0.1-0.8-0.2-1.1-0.3
		c-3.2-1.3-4.8-5-3.5-8.2c0.1-0.2,0.1-0.3,0.2-0.6c0,0,0-0.1,0-0.1c0.1-0.2,0.1-0.4,0.2-0.7l0,0c0.4-1.5,0.9-3.6,1-5.8l0,0
		c0.1-1.6-0.1-3.3-0.5-4.8c-0.1-0.4-0.3-0.8-0.4-1.2c-0.6-1.4-1.6-2.6-3-3.6l0,0c-0.5-0.4-1-0.7-1.6-1c-0.6-0.3-1.2-0.6-2-0.9
		c0,0,0,0,0,0c-2.7-1-4.9-1-6.8-0.1c-0.3,0.2-0.6,0.3-0.9,0.5c-0.1,0-0.1,0.1-0.2,0.1c-0.3,0.2-0.5,0.4-0.8,0.6c0,0,0,0,0,0
		c-0.2,0.2-0.5,0.5-0.7,0.7c0,0.1-0.1,0.1-0.1,0.2c-0.2,0.2-0.4,0.5-0.6,0.8l0,0c-1.1,1.4-1.7,2.9-2,3.5l0,0
		c-0.1,0.2-0.1,0.3-0.1,0.3l-0.1,0.3l-3.7,10.2l-1.9,5.2l-3.9,10.7l-1.9,5.2l-3.9,10.7l-1.9,5.2l-1.3,3.5c-0.2,0.4-0.4,0.8-0.6,1.2
		c0,0.1-0.1,0.1-0.1,0.2c-0.2,0.3-0.4,0.6-0.7,0.9c0,0-0.1,0.1-0.1,0.1c-0.3,0.3-0.6,0.5-1,0.8c0,0,0,0,0,0
		c-0.4,0.2-0.8,0.4-1.2,0.6c0,0,0,0,0,0l0,0c-1.4,0.5-2.9,0.6-4.4,0.1c-3.3-1.2-5-4.8-3.8-8.1l2.9-7.9l8.8,7.5l1.9-5.2l-8.8-7.5
		l3.9-10.7l8.8,7.5l1.9-5.2l-8.8-7.5l3.9-10.7l8.8,7.5l1.9-5.2l-8.8-7.5l2.1-5.6c0.2-0.7,0.9-2.5,2.2-4.8l8.4,7.2l1-2.8l0.1-0.3
		c0,0,0.3-0.9,1-1.9l-7.5-6.4c1.7-1.9,3.8-3.8,6.5-5.1c1.5-0.7,3.4-1.4,5.8-1.7c-1.4,1.3-0.7,5.3-0.2,9.3c2-0.9,4.4-0.9,7.2,0.1
		c0.1-2.8-0.2-6.4-0.5-9.2c1.4,0.2,2.8,0.6,4.4,1.1c0,0,0,0,0.1,0c3.7,1.3,6.8,3.3,9.2,5.7c-2,0.5-4.7,3.3-7.4,5.8
		c0.8,0.8,1.4,1.7,1.8,2.7c0.6,1.2,0.9,2.5,1.1,3.8c2.5-1.2,6-4.3,8.6-6.6c0.1,0.3,0.3,0.5,0.4,0.8c1.8,4.1,2.2,8.4,2,12.1
		c-2-1.2-6.9-0.7-11-0.9c-0.2,1.6-0.6,3-1,3.9c-0.3,0.8-0.5,1.7-0.5,2.5c2.4,1.1,7.5,1.3,11.4,1.5
		C477.4-269.3,476.9-267.8,476.7-267.4z"/>
	<g id="candle_1_">
		<path class="st10" d="M339.9-237.2c0-1.7-1.3-3-3-3h-38.2c-1.7,0-3,1.3-3,3c0,1.5,1,2.7,2.4,2.9c0.1,1.7,1.2,5.3,2.6,5.3h34.2
			c1.3,0,2.4-3.6,2.6-5.3C338.9-234.5,339.9-235.8,339.9-237.2z"/>
		<path class="st6" d="M312-265.1v21h16.5v-36.6c0,0,0.1-2.5-1.9-2.1c-3.8,0.8-7.7-2.4-10.5,0.4c-1.1,1.1-0.3,2.2-0.3,2.2
			s-4.5-1.5-4.5,2.2c0,6.3-4.1,5.9-4.1,10.1C307.2-263,312-262,312-265.1z"/>
		<path class="st2" d="M314-292.3c0-4.4,7.7-6.9,9.7-10.2c0,0,0,0,0,0c0,0,0-0.1,0.1-0.1c0.2-0.4-0.1-0.6-0.1-0.6c0,0,0,0,0,0
			c-0.1-0.1-0.2-0.2-0.2-0.3c0-0.2,0.2-0.4,0.4-0.4c0.1,0,0.2,0,0.2,0.1c0,0,0,0,0,0c0,0,2.6,1.2,0.6,5.5c-1.5,3.1,3,3.7,1.7,8
			c-0.4,1.3-1.1,2.8-3.9,3.2c-0.4-0.9-1.2-0.7-2-2.9c-0.8-2.2-0.6-3.8-1-3.8c-2.1,2.1-2.1,3.7-1.4,6.6
			C316.5-287.8,314-289.1,314-292.3z"/>
	</g>
	<g id="brandy_2_">
		<g id="glass_1_">
			<path class="st4" d="M220.3-277.6c0-18.3-6.2-25.8-6.2-25.8c-0.2-0.3-0.7-0.5-1.1-0.5h-21.1c-0.4,0-1,0-1.4,0h-21.1
				c-0.4,0-0.9,0.2-1.1,0.5c0,0-6.2,7.5-6.2,25.8c0,25.5,25.7,25.5,25.7,25.5c0.4,0,0.7,0.3,0.7,0.7v8.3c0,0.4-0.2,0.9-0.5,1.1
				l-14,11.2c-0.3,0.2-0.3,0.4,0.1,0.4c0,0,2.8,1.5,17.2,1.5s17.2-1.5,17.2-1.5c0.4,0,0.4-0.2,0.1-0.4l-14-11.2
				c-0.3-0.2-0.5-0.7-0.5-1.1v-8.3c0-0.4,0.3-0.7,0.7-0.7C194.7-252.2,220.3-252.2,220.3-277.6z"/>
			<path class="st5" d="M210.8-298.5c1.4,2.8,4.1,9.4,4.1,20.9c0,8.3-3.1,13.9-9.5,17.2c-5.2,2.7-10.7,2.8-10.7,2.8
				c-1.3,0-2.5,0.4-3.4,1c-1-0.7-2.2-1-3.4-1c-0.1,0-5.3-0.1-10.4-2.6c-6.6-3.3-9.8-8.9-9.8-17.3c0-11.5,2.6-18.1,4.1-20.9h18.8h1.4
				H210.8 M191.2-237.7l3.9,3.1c-1.2,0-2.5,0-3.9,0c-1.4,0-2.8,0-3.9,0L191.2-237.7 M213-304h-21.1c-0.4,0-1,0-1.4,0h-21.1
				c-0.4,0-0.9,0.2-1.1,0.5c0,0-6.2,7.5-6.2,25.8c0,25.5,25.7,25.5,25.7,25.5c0.4,0,0.7,0.3,0.7,0.7v8.3c0,0.4-0.2,0.9-0.5,1.1
				l-14,11.2c-0.3,0.2-0.3,0.4,0.1,0.4c0,0,2.8,1.5,17.2,1.5s17.2-1.5,17.2-1.5c0.4,0,0.4-0.2,0.1-0.4l-14-11.2
				c-0.3-0.2-0.5-0.7-0.5-1.1v-8.3c0-0.4,0.3-0.7,0.7-0.7c0,0,25.7,0,25.7-25.5c0-18.3-6.2-25.8-6.2-25.8
				C213.9-303.8,213.4-304,213-304L213-304z"/>
		</g>
		<path id="drink_1_" class="st10" d="M191.2-281.7c-5.4,0-10.3,0.2-13.9,0.6c0.3,2.9,1,5.8,2.7,8c2.2,2.9,5.6,4.3,10.4,4.3
			c1.1,0,2.1,0.9,2.1,2.1c0,1.1-0.9,2.1-2.1,2.1c-6.2,0-10.8-2-13.7-6c-2.1-2.9-3.1-6.4-3.4-9.9c-1.7,0.3-2.6,0.7-2.6,1.1l0,0.6
			c0,18,18.7,18,18.7,18h3.9c0,0,18.7,0,18.7-18l0-0.6C211.9-280.7,202.6-281.7,191.2-281.7z"/>
	</g>
	<path id="bell_1_" class="st2" d="M68.3-244.9c0,0.1,0,0.1-0.1,0.2c-1,2.8-4.2,4.3-7,3.3c-2.7-1-4.2-3.9-3.4-6.6
		C61.8-246.6,65.3-245.6,68.3-244.9z M60.4-251.4c-0.5-0.2-1-0.4-1.6-0.6C35.7-260.4,40-266,44.5-268.1c4.5-2.1,7.6-9.2,12.2-21.8
		c2.6-7.1,8.2-8.6,12.6-8.5c0-0.6,0.1-1.1,0.3-1.7c1.1-3.1,4.6-4.7,7.7-3.6c3.1,1.1,4.7,4.6,3.6,7.7c-0.2,0.5-0.4,0.9-0.7,1.3
		c3.6,2.7,7.4,7.6,4.7,15.1c-4.6,12.6-6.8,20-4.7,24.5c1.8,3.8,1.8,9.5-12.2,6c0,0,0,0,0,0c-0.5-0.1-1.1-0.3-1.7-0.4c0,0,0,0-0.1,0
		C64.5-250,62.6-250.6,60.4-251.4C60.4-251.4,60.4-251.4,60.4-251.4z M72.6-298.1c1.7,0.3,2.8,0.7,2.8,0.7s0.8,0.3,2,0.9
		c0.1-0.2,0.3-0.4,0.4-0.7c0.5-1.4-0.2-2.9-1.6-3.4c-1.4-0.5-2.9,0.2-3.4,1.6C72.7-298.7,72.6-298.4,72.6-298.1z M71.1-293.7
		c-0.2-0.2-0.4-0.4-0.6-0.6c-0.8-0.1-1.8-0.1-2.7,0c-3.8,0.3-6.1,2.2-7.4,5.8c-4.6,12.7-8.1,21.2-14.2,24c-0.6,0.3-0.9,0.5-1.1,0.7
		c0.3,0.4,0.9,1.1,2.4,2.2c0.7-0.9,1.8-1.7,2.9-2.2c4.5-2.1,7.6-9.2,12.2-21.8C64.4-290.7,67.7-292.9,71.1-293.7z M67.3-238
		c-0.6,0.2,0.9,6.2,1.3,7.3c0.4,1.1,0.7,2,1.7,1.6c1.1-0.4,0.8-1.2,0.4-2.3C70.4-232.5,67.9-238.2,67.3-238z M61.3-237.1
		c-0.4-0.2-2.6,3.9-2.9,4.7c-0.3,0.8-0.6,1.4,0.2,1.8c0.8,0.3,1-0.3,1.4-1.1C60.2-232.5,61.7-236.9,61.3-237.1z M76.4-238.5
		c-0.8-0.4-5.1-2.1-5.3-1.7c-0.2,0.4,3.7,2.8,4.5,3.2c0.8,0.4,1.4,0.7,1.8-0.1C77.8-237.9,77.1-238.2,76.4-238.5z"/>
	<g id="ball_ball_1_">
		<g>
			<g>
				<g>
					<path class="st2" d="M-35.5-258c0,0.9-0.1,1.7-0.1,2.6c-0.3-1-0.6-2.1-0.7-3c-0.8-3.7-1.6-7.2-4.4-7.2c-2.8,0-3.6,3.5-4.4,7.2
						c-0.2,1-0.5,2.4-0.9,3.4c-0.3-1-0.6-2.4-0.9-3.4c-0.8-3.7-1.6-7.2-4.4-7.2c-2.8,0-3.6,3.5-4.4,7.2c-0.2,1-0.5,2.4-0.9,3.4
						c-0.3-1-0.6-2.4-0.9-3.4c-0.8-3.7-1.6-7.2-4.4-7.2c-2.8,0-3.6,3.5-4.4,7.2c-0.2,1-0.5,2.4-0.9,3.4c-0.3-1-0.6-2.4-0.9-3.4
						c-0.8-3.7-1.6-7.2-4.4-7.2c-2.8,0-3.6,3.5-4.4,7.2c-0.2,1-0.5,2.4-0.9,3.4c-0.3-1-0.6-2.4-0.9-3.4c-0.8-3.7-1.6-7.2-4.4-7.2
						c-2.8,0-3.6,3.5-4.4,7.2c-0.2,1-0.5,2.4-0.9,3.4c-0.3-1-0.6-2.4-0.9-3.4c-0.7-3.2-1.4-6.3-3.4-7c0.5-1.8,1.1-3.6,2-5.3h52.1
						C-36.6-266.9-35.5-262.6-35.5-258z"/>
				</g>
				<g>
					<path class="st2" d="M-36.5-250.6c-0.5,1.8-1.1,3.6-2,5.3h-52.1c-1.9-3.8-3-8.1-3-12.7c0-0.9,0.1-1.7,0.1-2.6
						c0.3,1,0.5,2.1,0.7,3c0.8,3.7,1.6,7.2,4.4,7.2c2.8,0,3.6-3.5,4.4-7.2c0.2-1,0.5-2.4,0.9-3.4c0.3,1,0.6,2.4,0.9,3.4
						c0.8,3.7,1.6,7.2,4.4,7.2c2.8,0,3.6-3.5,4.4-7.2c0.2-1,0.5-2.4,0.9-3.4c0.3,1,0.6,2.4,0.9,3.4c0.8,3.7,1.6,7.2,4.4,7.2
						c2.8,0,3.6-3.5,4.4-7.2c0.2-1,0.5-2.4,0.9-3.4c0.3,1,0.6,2.4,0.9,3.4c0.8,3.7,1.6,7.2,4.4,7.2c2.8,0,3.6-3.5,4.4-7.2
						c0.2-1,0.5-2.4,0.9-3.4c0.3,1,0.6,2.4,0.9,3.4c0.8,3.7,1.6,7.2,4.4,7.2c2.8,0,3.6-3.5,4.4-7.2c0.2-1,0.5-2.4,0.9-3.4
						c0.3,1,0.7,2.4,0.9,3.4C-39.2-254.4-38.5-251.3-36.5-250.6z"/>
				</g>
			</g>
		</g>
		<g>
			<g>
				<g>
					<path class="st1" d="M-88.5-241.7h48c-5.2,7.7-14,12.7-24,12.7C-74.5-229-83.3-234.1-88.5-241.7z"/>
				</g>
				<g>
					<g>
						<path class="st1" d="M-55.5-285.6v-9.4c0-5-4.1-9.1-9.1-9.1c-5,0-9.1,4.1-9.1,9.1v9.4c-6.1,2-11.4,6-14.9,11.2h48
							C-44.1-279.6-49.3-283.6-55.5-285.6z M-69.4-295c0-2.7,2.2-4.9,4.9-4.9c2.7,0,4.9,2.2,4.9,4.9H-69.4z"/>
					</g>
				</g>
			</g>
		</g>
	</g>
</g>
<g id="info">
	<path id="om_1_" class="st0" d="M106.1,359.7c-1.8,0-2.8,1.3-2.8,3c0,1.7,1,3,2.8,3c1.8,0,2.8-1.3,2.8-3
		C108.8,361,107.9,359.7,106.1,359.7z M106.1,364.9c-1,0-1.8-0.8-1.8-2.1c0-1.4,0.8-2.2,1.8-2.2c1,0,1.8,0.8,1.8,2.2
		C107.9,364.1,107.1,364.9,106.1,364.9z M112,357.6c0.2,0,0.4,0,0.6,0.1v0.8c-0.2-0.1-0.4-0.1-0.5-0.1c-0.5,0-0.7,0.1-0.7,0.6v0.8
		h1.1v0.8h-1.1v4.9h-0.9v-4.9h-1v-0.8h1V359C110.4,358.1,111,357.6,112,357.6z M115.2,357.6c0.2,0,0.4,0,0.6,0.1v0.8
		c-0.2-0.1-0.4-0.1-0.5-0.1c-0.5,0-0.7,0.1-0.7,0.6v0.8h1.1v0.8h-1.1v4.9h-0.9v-4.9h-1v-0.8h1V359
		C113.6,358.1,114.2,357.6,115.2,357.6z M121.1,363.9c0,1.4-1.3,1.8-2.4,1.8c-1.3,0-2.4-0.5-2.4-1.9h0.9c0,0.8,0.8,1.1,1.5,1.1
		c0.6,0,1.4-0.1,1.4-0.8c0-0.7-0.9-0.8-1.9-1.1c-0.9-0.2-1.9-0.5-1.9-1.6c0-1.1,1.1-1.6,2.1-1.6c1.3,0,2.3,0.4,2.3,1.8h-0.9
		c-0.1-0.7-0.7-1-1.3-1c-0.6,0-1.2,0.2-1.2,0.7c0,0.7,1,0.8,1.9,1C120.1,362.5,121.1,362.8,121.1,363.9z M124.6,359.7
		c-1.6,0-2.7,1.3-2.7,3c0.1,1.7,0.9,3,2.7,3c1.3,0,2.2-0.7,2.4-1.9h-0.9c-0.2,0.7-0.7,1.1-1.5,1.1c-1.2,0-1.8-0.9-1.8-1.9h4.3
		C127.2,361.6,126.6,359.7,124.6,359.7z M122.9,362.2c0.1-0.9,0.6-1.6,1.6-1.6c0.9,0,1.6,0.7,1.6,1.6H122.9z M129.5,359.9h1.1v0.8
		h-1.1v3.5c0,0.4,0.1,0.5,0.7,0.5h0.4v0.8h-0.7c-1,0-1.4-0.2-1.4-1.2v-3.6h-1v-0.8h1v-1.7h0.9V359.9z M142.9,361.4v4.2H142v-3.7
		c0-0.7-0.2-1.3-1.1-1.3c-0.9,0-1.5,0.6-1.5,1.5v3.5h-0.9v-3.7c0-0.7-0.2-1.3-1.1-1.3c-1.1,0-1.5,1-1.5,1.5v3.5H135v-5.7h0.9v0.8h0
		c0.4-0.6,1.1-1,1.8-1c0.7,0,1.3,0.3,1.6,1c0.4-0.6,1.1-1,1.8-1C142.2,359.7,142.9,360.2,142.9,361.4z M146.8,359.7
		c-1.6,0-2.7,1.3-2.7,3c0.1,1.7,0.9,3,2.7,3c1.3,0,2.2-0.7,2.4-1.9h-0.9c-0.2,0.7-0.7,1.1-1.5,1.1c-1.2,0-1.8-0.9-1.8-1.9h4.3
		C149.4,361.6,148.8,359.7,146.8,359.7z M145.1,362.2c0.1-0.9,0.6-1.6,1.6-1.6c0.9,0,1.6,0.7,1.6,1.6H145.1z M154.6,360.6
		L154.6,360.6c-0.4-0.7-1.3-0.9-1.9-0.9c-1.7,0-2.6,1.4-2.6,3c0,1.6,0.9,3,2.6,3c0.8,0,1.5-0.3,1.8-0.9h0v0.8h0.9v-7.9h-0.9V360.6z
		 M152.9,364.9c-1.2,0-1.8-1-1.8-2.1c0-1.1,0.4-2.2,1.7-2.2c1.3,0,1.8,1,1.8,2.2C154.6,363.8,154.2,364.9,152.9,364.9z M157.2,357.7
		h0.9v1.1h-0.9V357.7z M157.2,359.9h0.9v5.7h-0.9V359.9z M164.1,364.2v-2.9c0-1.3-1.1-1.6-2.1-1.6c-1.3,0-2.4,0.5-2.4,1.9h0.9
		c0-0.8,0.6-1.1,1.4-1.1c0.6,0,1.3,0.1,1.3,0.9c0,0.7-0.9,0.6-1.9,0.8c-1,0.2-1.9,0.5-1.9,1.8c0,1.1,0.8,1.6,1.9,1.6
		c0.8,0,1.5-0.3,2-0.9c0,0.6,0.3,0.9,0.8,0.9c0.3,0,0.5-0.1,0.7-0.2v-0.7c-0.1,0-0.2,0.1-0.3,0.1
		C164.1,364.9,164.1,364.7,164.1,364.2z M163.2,363.6c0,0.5-0.5,1.3-1.7,1.3c-0.6,0-1.1-0.2-1.1-0.8c0-0.7,0.5-0.9,1.1-1
		c0.6-0.1,1.3-0.1,1.7-0.4V363.6z M170.8,357.6c0.2,0,0.4,0,0.6,0.1v0.8c-0.2-0.1-0.4-0.1-0.5-0.1c-0.5,0-0.7,0.1-0.7,0.6v0.8h1.1
		v0.8h-1.1v4.9h-0.9v-4.9h-1v-0.8h1V359C169.2,358.1,169.8,357.6,170.8,357.6z M174.6,359.7c-1.6,0-2.7,1.3-2.7,3
		c0.1,1.7,0.9,3,2.7,3c1.3,0,2.2-0.7,2.4-1.9h-0.9c-0.2,0.7-0.7,1.1-1.5,1.1c-1.2,0-1.8-0.9-1.8-1.9h4.3
		C177.2,361.6,176.6,359.7,174.6,359.7z M172.9,362.2c0.1-0.9,0.6-1.6,1.6-1.6c0.9,0,1.6,0.7,1.6,1.6H172.9z M182.7,363.9
		c0,1.4-1.3,1.8-2.4,1.8c-1.3,0-2.4-0.5-2.4-1.9h0.9c0,0.8,0.8,1.1,1.5,1.1c0.6,0,1.4-0.1,1.4-0.8c0-0.7-0.9-0.8-1.9-1.1
		c-0.9-0.2-1.9-0.5-1.9-1.6c0-1.1,1.1-1.6,2.1-1.6c1.3,0,2.3,0.4,2.3,1.8h-0.9c-0.1-0.7-0.7-1-1.3-1c-0.6,0-1.2,0.2-1.2,0.7
		c0,0.7,1,0.8,1.9,1C181.8,362.5,182.7,362.8,182.7,363.9z M185.1,359.9h1.1v0.8h-1.1v3.5c0,0.4,0.1,0.5,0.7,0.5h0.4v0.8h-0.7
		c-1,0-1.4-0.2-1.4-1.2v-3.6h-1v-0.8h1v-1.7h0.9V359.9z M187.5,357.7h0.9v1.1h-0.9V357.7z M187.5,359.9h0.9v5.7h-0.9V359.9z
		 M193.6,359.9h1l-2.1,5.7h-1l-2.1-5.7h1l1.6,4.7h0L193.6,359.9z M197.9,359.7c-1.6,0-2.7,1.3-2.7,3c0.1,1.7,0.9,3,2.7,3
		c1.3,0,2.2-0.7,2.4-1.9h-0.9c-0.2,0.7-0.7,1.1-1.5,1.1c-1.2,0-1.8-0.9-1.8-1.9h4.3C200.6,361.6,199.9,359.7,197.9,359.7z
		 M196.2,362.2c0.1-0.9,0.6-1.6,1.6-1.6c0.9,0,1.6,0.7,1.6,1.6H196.2z M204.8,357.7h0.9v1.1h-0.9V357.7z M204.8,359.9h0.9v5.7h-0.9
		V359.9z M211.2,363.5h1c-0.2,1.4-1.1,2.2-2.5,2.2c-1.7,0-2.7-1.2-2.7-2.9c0-1.7,0.9-3,2.7-3c1.3,0,2.3,0.6,2.5,2h-1
		c-0.1-0.7-0.6-1.1-1.4-1.1c-1.4,0-1.8,1.1-1.8,2.2c0,1,0.5,2.1,1.7,2.1C210.5,364.9,211.1,364.3,211.2,363.5z M215.8,359.7
		c-1.8,0-2.8,1.3-2.8,3c0,1.7,1,3,2.8,3c1.8,0,2.8-1.3,2.8-3C218.5,361,217.6,359.7,215.8,359.7z M215.8,364.9c-1,0-1.8-0.8-1.8-2.1
		c0-1.4,0.8-2.2,1.8-2.2c1,0,1.8,0.8,1.8,2.2C217.5,364.1,216.8,364.9,215.8,364.9z M224.4,361.8v3.7h-0.9v-3.9
		c0-0.7-0.4-1.1-1.2-1.1c-1.1,0-1.7,0.8-1.7,1.8v3.2h-0.9v-5.7h0.9v0.9h0c0.4-0.7,1-1,1.8-1C224,359.7,224.4,360.6,224.4,361.8z
		 M231.9,359.7c-0.8,0-1.5,0.3-1.8,0.9h0v-0.8h-0.9v7.9h0.9v-2.9h0c0.4,0.7,1.3,0.9,1.8,0.9c1.7,0,2.6-1.4,2.6-3
		C234.6,361.1,233.7,359.7,231.9,359.7z M231.9,364.9c-1.3,0-1.8-1-1.8-2.2c0-1.1,0.5-2.1,1.7-2.1c1.2,0,1.8,1,1.8,2.1
		C233.6,363.8,233.1,364.9,231.9,364.9z M240.2,364.2v-2.9c0-1.3-1.1-1.6-2.1-1.6c-1.3,0-2.4,0.5-2.4,1.9h0.9c0-0.8,0.6-1.1,1.4-1.1
		c0.6,0,1.3,0.1,1.3,0.9c0,0.7-0.9,0.6-1.9,0.8c-1,0.2-1.9,0.5-1.9,1.8c0,1.1,0.8,1.6,1.9,1.6c0.8,0,1.5-0.3,2-0.9
		c0,0.6,0.3,0.9,0.8,0.9c0.3,0,0.5-0.1,0.7-0.2v-0.7c-0.1,0-0.2,0.1-0.3,0.1C240.2,364.9,240.2,364.7,240.2,364.2z M239.3,363.6
		c0,0.5-0.5,1.3-1.7,1.3c-0.6,0-1.1-0.2-1.1-0.8c0-0.7,0.5-0.9,1.1-1c0.6-0.1,1.3-0.1,1.7-0.4V363.6z M245.7,363.5h1
		c-0.2,1.4-1.1,2.2-2.5,2.2c-1.7,0-2.7-1.2-2.7-2.9c0-1.7,0.9-3,2.7-3c1.3,0,2.3,0.6,2.5,2h-1c-0.1-0.7-0.6-1.1-1.4-1.1
		c-1.4,0-1.8,1.1-1.8,2.2c0,1,0.5,2.1,1.7,2.1C245,364.9,245.6,364.3,245.7,363.5z M250.4,361.9l2.4,3.6h-1.2l-1.9-3l-0.9,0.8v2.2
		h-0.9v-7.9h0.9v4.7l2.6-2.5h1.3L250.4,361.9z M257.4,364.7h4v0.8h-5.1c0.2-1.8,1.1-2.5,2.2-3.2c1.3-0.8,2-1.3,2-2.4
		c0-0.8-0.7-1.4-1.5-1.4c-1.1,0-1.6,1-1.5,1.9h-0.9c-0.1-1.6,0.9-2.8,2.5-2.8c1.4,0,2.4,0.8,2.4,2.2c0,1.4-0.9,2.1-1.9,2.7
		C258.6,363.3,257.6,363.8,257.4,364.7z M265.4,357.7c-2.4,0-2.6,2.2-2.6,4c0,1.7,0.2,4,2.6,4c2.4,0,2.6-2.2,2.6-4
		C268,360,267.8,357.7,265.4,357.7z M265.4,364.9c-1.6,0-1.6-2-1.6-3.1c0-1.2,0-3.1,1.6-3.1s1.6,2,1.6,3.1
		C267,362.9,267,364.9,265.4,364.9z M271.7,357.7h0.7v7.8h-0.9V360h-2v-0.7C270.6,359.2,271.5,358.9,271.7,357.7z M278.7,357.7v7.8
		h-0.9V360h-2v-0.7c1.1,0,2-0.3,2.2-1.5H278.7z"/>
	<g>
		<g>
			<g>
				<path class="st12" d="M64.7-438.7v-26.7h12.8v4h-8.2v6.9h6.1v4h-6.1v11.9H64.7z"/>
				<path class="st12" d="M81.1-438.7v-26.7h12.3v4h-7.7v6.9h5.9v4h-5.9v7.9h8.2v4H81.1z"/>
				<path class="st12" d="M105.9-458.8c0-0.6-0.2-1-0.3-1.4c-0.2-0.4-0.4-0.7-0.6-0.9c-0.2-0.2-0.5-0.4-0.8-0.5
					c-0.3-0.1-0.5-0.1-0.8-0.1c-0.7,0-1.3,0.2-1.7,0.7c-0.4,0.5-0.6,1.1-0.6,1.9c0,0.8,0.2,1.5,0.7,2.1c0.5,0.6,1,1.3,1.7,1.9
					c0.7,0.6,1.4,1.3,2.3,1.9c0.8,0.7,1.6,1.4,2.3,2.2c0.7,0.8,1.3,1.7,1.7,2.6c0.5,1,0.7,2,0.7,3.2c0,1.1-0.2,2.1-0.5,2.9
					c-0.4,0.9-0.9,1.6-1.5,2.1c-0.6,0.6-1.4,1-2.3,1.3c-0.9,0.3-1.9,0.4-2.9,0.4c-1.1,0-2-0.2-2.9-0.6c-0.8-0.4-1.6-0.9-2.1-1.6
					c-0.6-0.7-1-1.5-1.4-2.4c-0.3-0.9-0.5-1.8-0.6-2.9l4.4-0.6c0.1,1.4,0.4,2.4,0.9,3c0.5,0.7,1.1,1,1.9,1c0.8,0,1.4-0.2,1.9-0.6
					c0.5-0.4,0.7-1,0.7-1.8c0-0.9-0.2-1.7-0.7-2.4c-0.5-0.7-1-1.4-1.7-2c-0.7-0.6-1.4-1.3-2.3-1.9c-0.8-0.6-1.6-1.3-2.3-2.1
					c-0.7-0.8-1.3-1.6-1.7-2.6c-0.5-1-0.7-2.1-0.7-3.4c0-2.1,0.6-3.8,1.9-4.9c1.2-1.1,3-1.7,5.3-1.7c0.9,0,1.8,0.2,2.5,0.5
					c0.7,0.3,1.4,0.8,1.9,1.4c0.5,0.6,1,1.3,1.3,2.1c0.3,0.8,0.5,1.7,0.6,2.6L105.9-458.8z"/>
				<path class="st12" d="M116.7-461.4h-4.4v-4h13.5v4h-4.4v22.7h-4.6V-461.4z"/>
				<path class="st12" d="M129-438.7v-26.7h4.6v26.7H129z"/>
				<path class="st12" d="M148.1-465.4h4.5l-5.6,26.7h-4.6l-5.6-26.7h4.5l3.3,18.6h0.1L148.1-465.4z"/>
				<path class="st12" d="M155.1-438.7v-26.7h12.3v4h-7.7v6.9h5.9v4h-5.9v7.9h8.2v4H155.1z"/>
				<path class="st12" d="M180.4-438.7v-26.7h4.6v26.7H180.4z"/>
				<path class="st12" d="M199.4-456.5v-2.1c0-1.1-0.2-2-0.7-2.5c-0.4-0.5-1-0.8-1.6-0.8c-0.9,0-1.6,0.2-1.9,0.7
					c-0.3,0.5-0.5,1.2-0.5,2.2v13.6c0,1,0.2,1.8,0.5,2.2c0.3,0.5,1,0.7,1.9,0.7c0.8,0,1.4-0.2,1.7-0.7c0.3-0.5,0.5-1.1,0.5-2v-3.2
					h4.6v3.1c0,0.9-0.1,1.8-0.4,2.7c-0.3,0.8-0.7,1.6-1.3,2.2c-0.6,0.6-1.3,1.1-2.1,1.5c-0.9,0.4-1.9,0.5-3,0.5
					c-1.2,0-2.3-0.2-3.1-0.5c-0.9-0.4-1.6-0.8-2.2-1.5c-0.6-0.6-1-1.3-1.3-2.2c-0.3-0.8-0.4-1.7-0.4-2.7v-13.8
					c0-0.9,0.1-1.8,0.4-2.7c0.3-0.8,0.7-1.6,1.3-2.2c0.6-0.6,1.3-1.1,2.2-1.5c0.9-0.4,1.9-0.5,3.1-0.5c1.1,0,2.1,0.2,3,0.6
					c0.9,0.4,1.6,0.9,2.1,1.6c0.6,0.7,1,1.4,1.3,2.3c0.3,0.9,0.4,1.8,0.4,2.8v2H199.4z"/>
				<path class="st12" d="M208.6-458.9c0-0.9,0.1-1.8,0.4-2.7c0.3-0.8,0.7-1.6,1.3-2.2c0.6-0.6,1.3-1.1,2.2-1.5
					c0.9-0.4,1.9-0.5,3.1-0.5c1.2,0,2.3,0.2,3.1,0.5c0.9,0.4,1.6,0.8,2.2,1.5c0.6,0.6,1,1.3,1.3,2.2c0.3,0.8,0.4,1.7,0.4,2.7v13.8
					c0,0.9-0.1,1.8-0.4,2.7c-0.3,0.8-0.7,1.6-1.3,2.2c-0.6,0.6-1.3,1.1-2.2,1.5c-0.9,0.4-1.9,0.5-3.1,0.5c-1.2,0-2.3-0.2-3.1-0.5
					c-0.9-0.4-1.6-0.8-2.2-1.5c-0.6-0.6-1-1.3-1.3-2.2c-0.3-0.8-0.4-1.7-0.4-2.7V-458.9z M213.2-445.3c0,1,0.2,1.8,0.5,2.2
					c0.3,0.5,1,0.7,1.9,0.7c0.9,0,1.6-0.2,1.9-0.7c0.3-0.5,0.5-1.2,0.5-2.2v-13.6c0-1-0.2-1.8-0.5-2.2c-0.3-0.5-1-0.7-1.9-0.7
					c-0.9,0-1.6,0.2-1.9,0.7c-0.3,0.5-0.5,1.2-0.5,2.2V-445.3z"/>
				<path class="st12" d="M227.1-438.7v-26.7h4.3l5.6,15.3h0.1v-15.3h4.1v26.7h-4l-5.9-16.7h-0.1v16.7H227.1z"/>
				<path class="st12" d="M253.9-438.7v-26.7h6.6c2.8,0,4.9,0.6,6.3,1.8c1.3,1.2,2,3.2,2,6.1c0,1.4-0.2,2.6-0.5,3.6
					c-0.3,1-0.8,1.8-1.5,2.4c-0.7,0.6-1.5,1.1-2.6,1.4c-1,0.3-2.3,0.4-3.7,0.4h-2v11H253.9z M258.5-453.4h1.8c0.7,0,1.4-0.1,1.9-0.2
					c0.5-0.1,0.9-0.3,1.2-0.7c0.3-0.3,0.5-0.7,0.6-1.3c0.1-0.5,0.2-1.2,0.2-2c0-0.8-0.1-1.5-0.2-2c-0.1-0.5-0.3-0.9-0.6-1.3
					c-0.3-0.3-0.7-0.5-1.2-0.7c-0.5-0.1-1.1-0.2-1.9-0.2h-1.8V-453.4z"/>
				<path class="st12" d="M275.1-438.7h-4.4l4.9-26.7h5.7l4.9,26.7h-4.4l-0.8-5.9h-5L275.1-438.7z M276.5-448.6h3.7l-1.8-11.5h-0.1
					L276.5-448.6z"/>
				<path class="st12" d="M298.1-456.5v-2.1c0-1.1-0.2-2-0.7-2.5c-0.4-0.5-1-0.8-1.6-0.8c-0.9,0-1.6,0.2-1.9,0.7
					c-0.3,0.5-0.5,1.2-0.5,2.2v13.6c0,1,0.2,1.8,0.5,2.2c0.3,0.5,1,0.7,1.9,0.7c0.8,0,1.4-0.2,1.7-0.7c0.3-0.5,0.5-1.1,0.5-2v-3.2
					h4.6v3.1c0,0.9-0.1,1.8-0.4,2.7c-0.3,0.8-0.7,1.6-1.3,2.2c-0.6,0.6-1.3,1.1-2.1,1.5c-0.9,0.4-1.9,0.5-3,0.5
					c-1.2,0-2.3-0.2-3.1-0.5c-0.9-0.4-1.6-0.8-2.2-1.5c-0.6-0.6-1-1.3-1.3-2.2c-0.3-0.8-0.4-1.7-0.4-2.7v-13.8
					c0-0.9,0.1-1.8,0.4-2.7c0.3-0.8,0.7-1.6,1.3-2.2c0.6-0.6,1.3-1.1,2.2-1.5c0.9-0.4,1.9-0.5,3.1-0.5c1.1,0,2.1,0.2,3,0.6
					c0.9,0.4,1.6,0.9,2.1,1.6c0.6,0.7,1,1.4,1.3,2.3c0.3,0.9,0.4,1.8,0.4,2.8v2H298.1z"/>
				<path class="st12" d="M307.1-438.7v-26.7h4.6v9.9h0.1l4.8-9.9h4.6l-5,10l5.6,16.8h-4.7l-3.7-12.4h-0.1l-1.6,3v9.5H307.1z"/>
			</g>
			<g>
				<path class="st13" d="M63.6-439.7v-26.7h12.8v4h-8.2v6.9h6.1v4h-6.1v11.9H63.6z"/>
				<path class="st13" d="M80.1-439.7v-26.7h12.3v4h-7.7v6.9h5.9v4h-5.9v7.9h8.2v4H80.1z"/>
				<path class="st13" d="M104.9-459.9c-0.1-0.6-0.2-1-0.3-1.4c-0.2-0.4-0.4-0.7-0.6-0.9c-0.2-0.2-0.5-0.4-0.8-0.5
					c-0.3-0.1-0.5-0.1-0.8-0.1c-0.7,0-1.3,0.2-1.7,0.7c-0.4,0.5-0.6,1.1-0.6,1.9c0,0.8,0.2,1.5,0.7,2.1c0.5,0.6,1,1.3,1.7,1.9
					c0.7,0.6,1.4,1.3,2.3,1.9c0.8,0.7,1.6,1.4,2.3,2.2c0.7,0.8,1.3,1.7,1.7,2.6c0.5,1,0.7,2,0.7,3.2c0,1.1-0.2,2.1-0.5,2.9
					c-0.4,0.9-0.9,1.6-1.5,2.1c-0.6,0.6-1.4,1-2.3,1.3c-0.9,0.3-1.9,0.4-2.9,0.4c-1.1,0-2-0.2-2.9-0.6c-0.8-0.4-1.5-0.9-2.1-1.6
					c-0.6-0.7-1-1.5-1.4-2.4c-0.3-0.9-0.5-1.8-0.6-2.9l4.4-0.6c0.1,1.4,0.4,2.4,0.9,3c0.5,0.7,1.1,1,1.9,1c0.8,0,1.4-0.2,1.9-0.6
					c0.5-0.4,0.7-1,0.7-1.8c0-0.9-0.2-1.7-0.7-2.4c-0.5-0.7-1-1.4-1.7-2c-0.7-0.6-1.4-1.3-2.3-1.9c-0.8-0.6-1.6-1.3-2.3-2.1
					c-0.7-0.8-1.3-1.6-1.7-2.6c-0.5-1-0.7-2.1-0.7-3.4c0-2.1,0.6-3.8,1.9-4.9c1.2-1.1,3-1.7,5.3-1.7c0.9,0,1.8,0.2,2.5,0.5
					c0.7,0.3,1.4,0.8,1.9,1.4c0.5,0.6,1,1.3,1.3,2.1c0.3,0.8,0.5,1.7,0.6,2.6L104.9-459.9z"/>
				<path class="st13" d="M115.6-462.5h-4.4v-4h13.5v4h-4.4v22.7h-4.6V-462.5z"/>
				<path class="st13" d="M128-439.7v-26.7h4.6v26.7H128z"/>
				<path class="st13" d="M147-466.5h4.5l-5.6,26.7h-4.6l-5.6-26.7h4.5l3.3,18.6h0.1L147-466.5z"/>
				<path class="st13" d="M154.1-439.7v-26.7h12.3v4h-7.7v6.9h5.9v4h-5.9v7.9h8.2v4H154.1z"/>
				<path class="st13" d="M179.4-439.7v-26.7h4.6v26.7H179.4z"/>
				<path class="st13" d="M198.3-457.5v-2.1c0-1.1-0.2-2-0.7-2.5c-0.4-0.5-1-0.8-1.6-0.8c-0.9,0-1.6,0.2-1.9,0.7
					c-0.3,0.5-0.5,1.2-0.5,2.2v13.6c0,1,0.2,1.8,0.5,2.2c0.3,0.5,1,0.7,1.9,0.7c0.8,0,1.4-0.2,1.7-0.7c0.3-0.5,0.5-1.1,0.5-2v-3.2
					h4.6v3.1c0,0.9-0.1,1.8-0.4,2.7c-0.3,0.8-0.7,1.6-1.3,2.2c-0.6,0.6-1.3,1.1-2.1,1.5c-0.9,0.4-1.9,0.5-3,0.5
					c-1.2,0-2.3-0.2-3.1-0.5c-0.9-0.4-1.6-0.8-2.2-1.5c-0.6-0.6-1-1.3-1.3-2.2c-0.3-0.8-0.4-1.7-0.4-2.7V-460c0-0.9,0.1-1.8,0.4-2.7
					c0.3-0.8,0.7-1.6,1.3-2.2c0.6-0.6,1.3-1.1,2.2-1.5c0.9-0.4,1.9-0.5,3.1-0.5c1.1,0,2.1,0.2,3,0.6c0.9,0.4,1.6,0.9,2.1,1.6
					c0.6,0.7,1,1.4,1.3,2.3c0.3,0.9,0.4,1.8,0.4,2.8v2H198.3z"/>
				<path class="st13" d="M207.6-460c0-0.9,0.1-1.8,0.4-2.7c0.3-0.8,0.7-1.6,1.3-2.2c0.6-0.6,1.3-1.1,2.2-1.5
					c0.9-0.4,1.9-0.5,3.1-0.5c1.2,0,2.3,0.2,3.1,0.5c0.9,0.4,1.6,0.8,2.2,1.5c0.6,0.6,1,1.3,1.3,2.2c0.3,0.8,0.4,1.7,0.4,2.7v13.8
					c0,0.9-0.1,1.8-0.4,2.7c-0.3,0.8-0.7,1.6-1.3,2.2c-0.6,0.6-1.3,1.1-2.2,1.5c-0.9,0.4-1.9,0.5-3.1,0.5c-1.2,0-2.3-0.2-3.1-0.5
					c-0.9-0.4-1.6-0.8-2.2-1.5c-0.6-0.6-1-1.3-1.3-2.2c-0.3-0.8-0.4-1.7-0.4-2.7V-460z M212.2-446.3c0,1,0.2,1.8,0.5,2.2
					c0.3,0.5,1,0.7,1.9,0.7c0.9,0,1.6-0.2,1.9-0.7c0.3-0.5,0.5-1.2,0.5-2.2v-13.6c0-1-0.2-1.8-0.5-2.2c-0.3-0.5-1-0.7-1.9-0.7
					c-0.9,0-1.6,0.2-1.9,0.7c-0.3,0.5-0.5,1.2-0.5,2.2V-446.3z"/>
				<path class="st13" d="M226.1-439.7v-26.7h4.3l5.6,15.3h0.1v-15.3h4.1v26.7h-4l-5.9-16.7h-0.1v16.7H226.1z"/>
				<path class="st13" d="M252.8-439.7v-26.7h6.6c2.8,0,4.9,0.6,6.3,1.8c1.3,1.2,2,3.2,2,6.1c0,1.4-0.2,2.6-0.5,3.6
					c-0.3,1-0.8,1.8-1.5,2.4c-0.7,0.6-1.5,1.1-2.6,1.4c-1.1,0.3-2.3,0.4-3.7,0.4h-2v11H252.8z M257.4-454.5h1.8
					c0.7,0,1.4-0.1,1.9-0.2c0.5-0.1,0.9-0.3,1.2-0.7c0.3-0.3,0.5-0.7,0.6-1.3c0.1-0.5,0.2-1.2,0.2-2c0-0.8-0.1-1.4-0.2-2
					c-0.1-0.5-0.3-1-0.6-1.3c-0.3-0.3-0.7-0.5-1.2-0.7c-0.5-0.1-1.1-0.2-1.9-0.2h-1.8V-454.5z"/>
				<path class="st13" d="M274-439.7h-4.4l4.9-26.7h5.7l4.9,26.7h-4.4l-0.8-5.9h-5L274-439.7z M275.5-449.6h3.7l-1.8-11.5h-0.1
					L275.5-449.6z"/>
				<path class="st13" d="M297.1-457.5v-2.1c0-1.1-0.2-2-0.7-2.5c-0.4-0.5-1-0.8-1.6-0.8c-0.9,0-1.6,0.2-1.9,0.7
					c-0.3,0.5-0.5,1.2-0.5,2.2v13.6c0,1,0.2,1.8,0.5,2.2c0.3,0.5,1,0.7,1.9,0.7c0.8,0,1.4-0.2,1.7-0.7c0.3-0.5,0.5-1.1,0.5-2v-3.2
					h4.6v3.1c0,0.9-0.1,1.8-0.4,2.7c-0.3,0.8-0.7,1.6-1.3,2.2c-0.6,0.6-1.3,1.1-2.1,1.5c-0.9,0.4-1.9,0.5-3,0.5
					c-1.2,0-2.3-0.2-3.1-0.5c-0.9-0.4-1.6-0.8-2.2-1.5c-0.6-0.6-1-1.3-1.3-2.2c-0.3-0.8-0.4-1.7-0.4-2.7V-460c0-0.9,0.1-1.8,0.4-2.7
					c0.3-0.8,0.7-1.6,1.3-2.2c0.6-0.6,1.3-1.1,2.2-1.5c0.9-0.4,1.9-0.5,3.1-0.5c1.1,0,2.1,0.2,3,0.6c0.9,0.4,1.6,0.9,2.1,1.6
					c0.6,0.7,1,1.4,1.3,2.3c0.3,0.9,0.4,1.8,0.4,2.8v2H297.1z"/>
				<path class="st13" d="M306.1-439.7v-26.7h4.6v9.9h0.1l4.8-9.9h4.6l-5,10l5.6,16.8h-4.7l-3.7-12.4h-0.1l-1.6,3v9.5H306.1z"/>
			</g>
		</g>
		<g>
			<g>
				<g>
					<path class="st12" d="M119.2-394.1v-2.4c1-1.4,1.8-2.6,2.5-3.7c0.7-1.1,1.3-2.1,1.8-3c0.5-0.9,0.9-1.7,1.1-2.4
						c0.3-0.7,0.4-1.4,0.4-2.1c0-0.7-0.1-1.2-0.4-1.5c-0.2-0.3-0.6-0.5-1-0.5c-0.5,0-0.9,0.2-1.1,0.5c-0.2,0.3-0.4,0.8-0.4,1.3v1.2
						h-2.9v-0.8c0-0.7,0.1-1.3,0.3-1.8c0.2-0.6,0.5-1,0.9-1.5c0.4-0.4,0.9-0.7,1.4-1c0.6-0.2,1.2-0.4,1.9-0.4c0.6,0,1.2,0.1,1.7,0.3
						c0.5,0.2,0.9,0.5,1.3,0.9c0.4,0.4,0.6,0.8,0.8,1.3c0.2,0.5,0.3,1,0.3,1.5c0,0.7-0.1,1.4-0.2,2.1c-0.1,0.7-0.4,1.4-0.8,2.3
						c-0.4,0.9-1,1.9-1.7,3c-0.7,1.2-1.7,2.6-2.9,4.2h5.4v2.5H119.2z"/>
					<path class="st12" d="M131.4-407.3c0-1.7,0.3-2.9,1-3.7c0.7-0.8,1.8-1.2,3.3-1.2c1.5,0,2.7,0.4,3.3,1.2c0.7,0.8,1,2,1,3.7v8.5
						c0,1.7-0.3,2.9-1,3.7c-0.7,0.8-1.8,1.2-3.3,1.2c-1.5,0-2.7-0.4-3.3-1.2c-0.7-0.8-1-2-1-3.7V-407.3z M137.2-408.1
						c0-1.1-0.5-1.7-1.4-1.7c-1,0-1.4,0.6-1.4,1.7v10.1c0,1.1,0.5,1.7,1.4,1.7c1,0,1.4-0.6,1.4-1.7V-408.1z"/>
					<path class="st12" d="M150.7-394.1v-17.8h8.5v2.7h-5.5v4.6h4.1v2.7h-4.1v7.9H150.7z"/>
					<path class="st12" d="M166-394.1h-3.1v-17.8h4.3c1.7,0,3,0.4,3.9,1.2c0.9,0.8,1.3,2.2,1.3,4c0,0.7-0.1,1.3-0.2,1.9
						c-0.1,0.5-0.3,0.9-0.5,1.3c-0.2,0.4-0.4,0.6-0.7,0.9c-0.3,0.2-0.5,0.4-0.8,0.5l2.6,8.1h-3.1l-2.2-7.4c-0.2,0-0.4,0.1-0.7,0.1
						c-0.3,0-0.6,0-0.9,0V-394.1z M166-403.9h1.1c0.4,0,0.8,0,1-0.1c0.3-0.1,0.5-0.2,0.7-0.4c0.2-0.2,0.3-0.5,0.4-0.9
						c0.1-0.4,0.1-0.8,0.1-1.3c0-1.1-0.2-1.8-0.5-2.2c-0.3-0.4-0.9-0.6-1.8-0.6H166V-403.9z"/>
					<path class="st12" d="M176.5-394.1v-17.8h8.2v2.7h-5.1v4.6h4v2.7h-4v5.2h5.5v2.7H176.5z"/>
					<path class="st12" d="M188.7-394.1v-17.8h8.2v2.7h-5.1v4.6h3.9v2.7h-3.9v5.2h5.5v2.7H188.7z"/>
					<path class="st12" d="M208-394.1v-17.8h3.1v17.8H208z"/>
					<path class="st12" d="M221.9-406v-1.4c0-0.8-0.2-1.3-0.4-1.6c-0.3-0.3-0.6-0.5-1-0.5c-0.6,0-1.1,0.2-1.3,0.5
						c-0.2,0.3-0.3,0.8-0.3,1.5v9c0,0.7,0.1,1.2,0.3,1.5c0.2,0.3,0.7,0.5,1.3,0.5c0.6,0,0.9-0.2,1.2-0.5c0.2-0.3,0.3-0.8,0.3-1.3
						v-2.1h3.1v2c0,0.6-0.1,1.2-0.3,1.8c-0.2,0.6-0.5,1-0.8,1.5c-0.4,0.4-0.8,0.7-1.4,1c-0.6,0.2-1.2,0.4-2,0.4
						c-0.8,0-1.5-0.1-2.1-0.4c-0.6-0.2-1.1-0.6-1.5-1c-0.4-0.4-0.7-0.9-0.9-1.5c-0.2-0.6-0.3-1.2-0.3-1.8v-9.2
						c0-0.6,0.1-1.2,0.3-1.8c0.2-0.6,0.5-1,0.9-1.5c0.4-0.4,0.9-0.7,1.5-1c0.6-0.2,1.3-0.4,2.1-0.4c0.8,0,1.4,0.1,2,0.4
						c0.6,0.3,1.1,0.6,1.4,1.1c0.4,0.4,0.6,1,0.8,1.6c0.2,0.6,0.3,1.2,0.3,1.9v1.3H221.9z"/>
					<path class="st12" d="M229.3-407.6c0-0.6,0.1-1.2,0.3-1.8c0.2-0.6,0.5-1,0.9-1.5c0.4-0.4,0.9-0.7,1.5-1
						c0.6-0.2,1.3-0.4,2.1-0.4c0.8,0,1.5,0.1,2.1,0.4c0.6,0.2,1.1,0.6,1.5,1c0.4,0.4,0.7,0.9,0.9,1.5c0.2,0.6,0.3,1.2,0.3,1.8v9.2
						c0,0.6-0.1,1.2-0.3,1.8c-0.2,0.6-0.5,1-0.9,1.5c-0.4,0.4-0.9,0.7-1.5,1c-0.6,0.2-1.3,0.4-2.1,0.4c-0.8,0-1.5-0.1-2.1-0.4
						c-0.6-0.2-1.1-0.6-1.5-1c-0.4-0.4-0.7-0.9-0.9-1.5c-0.2-0.6-0.3-1.2-0.3-1.8V-407.6z M232.3-398.5c0,0.7,0.1,1.2,0.3,1.5
						c0.2,0.3,0.7,0.5,1.3,0.5c0.6,0,1.1-0.2,1.3-0.5c0.2-0.3,0.3-0.8,0.3-1.5v-9c0-0.7-0.1-1.2-0.3-1.5c-0.2-0.3-0.7-0.5-1.3-0.5
						c-0.6,0-1.1,0.2-1.3,0.5c-0.2,0.3-0.3,0.8-0.3,1.5V-398.5z"/>
					<path class="st12" d="M242.9-394.1v-17.8h2.8l3.7,10.2h0v-10.2h2.8v17.8h-2.7l-3.9-11.1h0v11.1H242.9z"/>
					<path class="st12" d="M262-407.5c0-0.4-0.1-0.7-0.2-1c-0.1-0.3-0.2-0.5-0.4-0.6c-0.2-0.1-0.3-0.3-0.5-0.3
						c-0.2-0.1-0.4-0.1-0.5-0.1c-0.5,0-0.9,0.2-1.1,0.5c-0.3,0.3-0.4,0.7-0.4,1.3c0,0.5,0.2,1,0.5,1.4c0.3,0.4,0.7,0.9,1.1,1.3
						c0.5,0.4,1,0.9,1.5,1.3c0.5,0.4,1,0.9,1.5,1.4c0.5,0.5,0.8,1.1,1.1,1.7c0.3,0.6,0.5,1.4,0.5,2.2c0,0.7-0.1,1.4-0.4,2
						c-0.2,0.6-0.6,1-1,1.4c-0.4,0.4-0.9,0.7-1.5,0.9c-0.6,0.2-1.3,0.3-2,0.3c-0.7,0-1.3-0.1-1.9-0.4c-0.6-0.3-1-0.6-1.4-1.1
						c-0.4-0.5-0.7-1-0.9-1.6c-0.2-0.6-0.3-1.2-0.4-1.9l2.9-0.4c0.1,0.9,0.3,1.6,0.6,2c0.3,0.4,0.7,0.7,1.2,0.7c0.5,0,1-0.1,1.3-0.4
						c0.3-0.3,0.5-0.7,0.5-1.2c0-0.6-0.2-1.1-0.5-1.6c-0.3-0.5-0.7-0.9-1.1-1.3c-0.5-0.4-1-0.9-1.5-1.3c-0.5-0.4-1-0.9-1.5-1.4
						c-0.5-0.5-0.8-1.1-1.1-1.7c-0.3-0.6-0.5-1.4-0.5-2.2c0-1.4,0.4-2.5,1.2-3.3c0.8-0.8,2-1.1,3.5-1.1c0.6,0,1.2,0.1,1.7,0.3
						c0.5,0.2,0.9,0.5,1.3,0.9c0.4,0.4,0.6,0.8,0.9,1.4c0.2,0.5,0.4,1.1,0.4,1.7L262-407.5z"/>
				</g>
			</g>
			<g>
				<g>
					<path class="st3" d="M118.2-395.1v-2.4c1-1.4,1.8-2.6,2.5-3.7c0.7-1.1,1.3-2.1,1.8-3c0.5-0.9,0.9-1.7,1.1-2.4
						c0.3-0.7,0.4-1.4,0.4-2.1c0-0.7-0.1-1.2-0.4-1.5c-0.2-0.3-0.6-0.5-1-0.5c-0.5,0-0.9,0.2-1.1,0.5c-0.2,0.3-0.4,0.8-0.4,1.3v1.2
						h-2.9v-0.8c0-0.7,0.1-1.3,0.3-1.8c0.2-0.6,0.5-1,0.9-1.5c0.4-0.4,0.9-0.7,1.4-1c0.6-0.2,1.2-0.4,1.9-0.4c0.6,0,1.2,0.1,1.7,0.3
						c0.5,0.2,0.9,0.5,1.3,0.9c0.4,0.4,0.6,0.8,0.8,1.3c0.2,0.5,0.3,1,0.3,1.5c0,0.7-0.1,1.4-0.2,2.1c-0.1,0.7-0.4,1.4-0.8,2.3
						c-0.4,0.9-1,1.9-1.7,3c-0.7,1.2-1.7,2.6-2.9,4.2h5.4v2.5H118.2z"/>
					<path class="st3" d="M130.4-408.3c0-1.7,0.3-2.9,1-3.7c0.7-0.8,1.8-1.2,3.3-1.2c1.5,0,2.7,0.4,3.3,1.2c0.7,0.8,1,2,1,3.7v8.5
						c0,1.7-0.3,2.9-1,3.7c-0.7,0.8-1.8,1.2-3.3,1.2c-1.5,0-2.7-0.4-3.3-1.2c-0.7-0.8-1-2-1-3.7V-408.3z M136.2-409.1
						c0-1.1-0.5-1.7-1.4-1.7c-1,0-1.4,0.6-1.4,1.7v10.1c0,1.1,0.5,1.7,1.4,1.7c1,0,1.4-0.6,1.4-1.7V-409.1z"/>
					<path class="st3" d="M149.7-395.1V-413h8.5v2.7h-5.5v4.6h4.1v2.7h-4.1v7.9H149.7z"/>
					<path class="st3" d="M164.9-395.1h-3.1V-413h4.3c1.7,0,3,0.4,3.9,1.2c0.9,0.8,1.3,2.2,1.3,4c0,0.7-0.1,1.3-0.2,1.9
						c-0.1,0.5-0.3,0.9-0.5,1.3c-0.2,0.4-0.4,0.6-0.7,0.9c-0.3,0.2-0.5,0.4-0.8,0.5l2.6,8.1h-3.1l-2.2-7.4c-0.2,0-0.4,0.1-0.7,0.1
						c-0.3,0-0.6,0-0.9,0V-395.1z M164.9-405h1.1c0.4,0,0.8,0,1-0.1c0.3-0.1,0.5-0.2,0.7-0.4c0.2-0.2,0.3-0.5,0.4-0.9
						c0.1-0.4,0.1-0.8,0.1-1.3c0-1.1-0.2-1.8-0.5-2.2c-0.3-0.4-0.9-0.6-1.8-0.6h-1.1V-405z"/>
					<path class="st3" d="M175.5-395.1V-413h8.2v2.7h-5.1v4.6h3.9v2.7h-3.9v5.2h5.5v2.7H175.5z"/>
					<path class="st3" d="M187.7-395.1V-413h8.2v2.7h-5.1v4.6h4v2.7h-4v5.2h5.5v2.7H187.7z"/>
					<path class="st3" d="M207-395.1V-413h3.1v17.8H207z"/>
					<path class="st3" d="M220.8-407v-1.4c0-0.8-0.1-1.3-0.4-1.6c-0.3-0.3-0.6-0.5-1-0.5c-0.6,0-1.1,0.2-1.3,0.5
						c-0.2,0.3-0.3,0.8-0.3,1.5v9c0,0.7,0.1,1.2,0.3,1.5c0.2,0.3,0.7,0.5,1.3,0.5c0.6,0,0.9-0.2,1.2-0.5c0.2-0.3,0.3-0.8,0.3-1.3
						v-2.1h3.1v2c0,0.6-0.1,1.2-0.3,1.8c-0.2,0.6-0.5,1-0.8,1.5c-0.4,0.4-0.8,0.7-1.4,1c-0.6,0.2-1.2,0.4-2,0.4
						c-0.8,0-1.5-0.1-2.1-0.4c-0.6-0.2-1.1-0.6-1.5-1c-0.4-0.4-0.7-0.9-0.9-1.5c-0.2-0.6-0.3-1.2-0.3-1.8v-9.2
						c0-0.6,0.1-1.2,0.3-1.8c0.2-0.6,0.5-1,0.9-1.5c0.4-0.4,0.9-0.7,1.5-1c0.6-0.2,1.3-0.4,2.1-0.4c0.8,0,1.4,0.1,2,0.4
						c0.6,0.3,1,0.6,1.4,1.1c0.4,0.4,0.7,1,0.8,1.6c0.2,0.6,0.3,1.2,0.3,1.9v1.3H220.8z"/>
					<path class="st3" d="M228.2-408.6c0-0.6,0.1-1.2,0.3-1.8c0.2-0.6,0.5-1,0.9-1.5c0.4-0.4,0.9-0.7,1.5-1c0.6-0.2,1.3-0.4,2.1-0.4
						c0.8,0,1.5,0.1,2.1,0.4c0.6,0.2,1.1,0.6,1.5,1c0.4,0.4,0.7,0.9,0.9,1.5c0.2,0.6,0.3,1.2,0.3,1.8v9.2c0,0.6-0.1,1.2-0.3,1.8
						c-0.2,0.6-0.5,1-0.9,1.5c-0.4,0.4-0.9,0.7-1.5,1c-0.6,0.2-1.3,0.4-2.1,0.4c-0.8,0-1.5-0.1-2.1-0.4c-0.6-0.2-1.1-0.6-1.5-1
						c-0.4-0.4-0.7-0.9-0.9-1.5c-0.2-0.6-0.3-1.2-0.3-1.8V-408.6z M231.3-399.5c0,0.7,0.1,1.2,0.3,1.5c0.2,0.3,0.7,0.5,1.3,0.5
						c0.6,0,1.1-0.2,1.3-0.5c0.2-0.3,0.3-0.8,0.3-1.5v-9c0-0.7-0.1-1.2-0.3-1.5c-0.2-0.3-0.7-0.5-1.3-0.5c-0.6,0-1.1,0.2-1.3,0.5
						c-0.2,0.3-0.3,0.8-0.3,1.5V-399.5z"/>
					<path class="st3" d="M241.8-395.1V-413h2.8l3.7,10.2h0V-413h2.8v17.8h-2.7l-3.9-11.1h0v11.1H241.8z"/>
					<path class="st3" d="M261-408.6c0-0.4-0.1-0.7-0.2-1c-0.1-0.3-0.2-0.5-0.4-0.6c-0.2-0.1-0.3-0.3-0.5-0.3
						c-0.2-0.1-0.4-0.1-0.5-0.1c-0.5,0-0.9,0.2-1.1,0.5c-0.3,0.3-0.4,0.7-0.4,1.3c0,0.5,0.2,1,0.5,1.4c0.3,0.4,0.7,0.9,1.1,1.3
						c0.5,0.4,1,0.9,1.5,1.3c0.5,0.4,1,0.9,1.5,1.4c0.5,0.5,0.8,1.1,1.1,1.7c0.3,0.6,0.5,1.4,0.5,2.2c0,0.7-0.1,1.4-0.4,2
						c-0.2,0.6-0.6,1-1,1.4c-0.4,0.4-0.9,0.7-1.5,0.9c-0.6,0.2-1.3,0.3-2,0.3c-0.7,0-1.3-0.1-1.9-0.4c-0.6-0.3-1-0.6-1.4-1.1
						c-0.4-0.5-0.7-1-0.9-1.6c-0.2-0.6-0.3-1.2-0.4-1.9l2.9-0.4c0.1,0.9,0.3,1.6,0.6,2c0.3,0.4,0.7,0.7,1.2,0.7c0.5,0,1-0.1,1.3-0.4
						c0.3-0.3,0.5-0.7,0.5-1.2c0-0.6-0.2-1.1-0.5-1.6c-0.3-0.5-0.7-0.9-1.1-1.3c-0.5-0.4-1-0.9-1.5-1.3c-0.5-0.4-1-0.9-1.5-1.4
						c-0.5-0.5-0.8-1.1-1.1-1.7c-0.3-0.6-0.5-1.4-0.5-2.2c0-1.4,0.4-2.5,1.2-3.3c0.8-0.8,2-1.1,3.5-1.1c0.6,0,1.2,0.1,1.7,0.3
						c0.5,0.2,0.9,0.5,1.3,0.9c0.4,0.4,0.6,0.8,0.9,1.4c0.2,0.5,0.4,1.1,0.4,1.7L261-408.6z"/>
				</g>
			</g>
		</g>
		<line class="st14" x1="31.5" y1="-425.2" x2="351.5" y2="-425.2"/>
		<line class="st14" x1="31.5" y1="-384" x2="351.5" y2="-384"/>
	</g>
</g>
</svg>
