<?xml version="1.0" encoding="iso-8859-1"?>
<!-- Generator: Adobe Illustrator 19.0.0, SVG Export Plug-In . SVG Version: 6.00 Build 0)  -->
<svg version="1.1" id="Capa_1" xmlns="http://www.w3.org/2000/svg" xmlns:xlink="http://www.w3.org/1999/xlink" x="0px" y="0px"
	 viewBox="0 0 512 512" style="enable-background:new 0 0 512 512;" xml:space="preserve">
<polygon style="fill:#FEA832;" points="422,240 422,481 90,481 90,240 256,120 "/>
<polygon style="fill:#FE9923;" points="422,240 422,481 256,481 256,120 "/>
<g>
	<circle style="fill:#CCEFFF;" cx="45" cy="165" r="15"/>
	<circle style="fill:#CCEFFF;" cx="105" cy="105" r="15"/>
	<circle style="fill:#CCEFFF;" cx="165" cy="45" r="15"/>
	<circle style="fill:#CCEFFF;" cx="45" cy="75" r="15"/>
</g>
<g>
	<circle style="fill:#ACE3FC;" cx="467" cy="165" r="15"/>
	<circle style="fill:#ACE3FC;" cx="407" cy="105" r="15"/>
	<circle style="fill:#ACE3FC;" cx="347" cy="45" r="15"/>
</g>
<path style="fill:#CCEFFF;" d="M271,15c0,8.399-6.599,15-15,15s-15-6.601-15-15c0-8.401,6.599-15,15-15S271,6.599,271,15z"/>
<circle style="fill:#ACE3FC;" cx="467" cy="75" r="15"/>
<path style="fill:#FEDB41;" d="M302,240h-92c-8.401,0-15,6.599-15,15v75c0,8.399,6.599,15,15,15h92c8.401,0,15-6.601,15-15v-75
	C317,246.599,310.401,240,302,240z"/>
<path style="fill:#FCBF29;" d="M317,255v75c0,8.399-6.599,15-15,15h-46V240h46C310.401,240,317,246.599,317,255z"/>
<path style="fill:#C85F03;" d="M475.101,259.2c-10.801,12.9-29.7,14.399-42.301,3.898L256,129L79.2,263.099
	c-12.601,10.501-31.5,9.001-42.301-3.898c-10.499-12.601-9-31.501,3.9-42.301l196-150c5.4-4.501,12.302-6.9,19.201-6.9
	c6.899,0,13.801,2.399,19.2,6.899l196,150C484.1,227.699,485.6,246.599,475.101,259.2z"/>
<path style="fill:#994C0F;" d="M475.101,259.2c-10.801,12.9-29.7,14.399-42.301,3.898L256,129V60c6.899,0,13.801,2.399,19.2,6.899
	l196,150C484.1,227.699,485.6,246.599,475.101,259.2z"/>
<path style="fill:#CCEFFF;" d="M512,429.3V497c0,8.399-6.599,15-15,15H15c-8.401,0-15-6.601-15-15v-54.5
	c0-10.201,10.201-17.701,19.799-14.101C55.201,441.299,100.201,448.2,135,448.2c41.7,0,84.101-9.901,121-28.2s79.3-28.2,121-28.2
	c38.101,0,89.7,8.099,126.301,23.699C508.7,417.9,512,423.3,512,429.3z"/>
<path style="fill:#ACE3FC;" d="M512,429.3V497c0,8.399-6.599,15-15,15H256v-92c36.899-18.3,79.3-28.2,121-28.2
	c38.101,0,89.7,8.099,126.301,23.699C508.7,417.9,512,423.3,512,429.3z"/>
<g>
</g>
<g>
</g>
<g>
</g>
<g>
</g>
<g>
</g>
<g>
</g>
<g>
</g>
<g>
</g>
<g>
</g>
<g>
</g>
<g>
</g>
<g>
</g>
<g>
</g>
<g>
</g>
<g>
</g>
</svg>
