<?xml version="1.0" encoding="utf-8"?>
<!-- Generator: Adobe Illustrator 21.0.2, SVG Export Plug-In . SVG Version: 6.00 Build 0)  -->
<svg version="1.1" xmlns="http://www.w3.org/2000/svg" xmlns:xlink="http://www.w3.org/1999/xlink" x="0px" y="0px"
	 viewBox="0 0 113.2 104.8" style="enable-background:new 0 0 113.2 104.8;" xml:space="preserve">
<style type="text/css">
	.st0{fill:#A29F9D;}
	.st1{fill:#8EBF22;}
	.st2{fill:#FEC92C;}
	.st3{fill:#DA2B18;}
	.st4{fill:#FFFFFF;}
	.st5{fill:#C6C3C2;}
	.st6{fill:#B5E1FA;}
	.st7{fill:#905D24;}
	.st8{fill:#FCD1A0;}
	.st9{fill:#6FBFEB;}
	.st10{fill:#CD6116;}
	.st11{display:none;fill:#FFFFFF;}
	.st12{fill:#D6D4D4;}
	.st13{fill:#5C5856;}
	.st14{fill:none;stroke:#A29F9D;stroke-width:0.2572;stroke-miterlimit:10;}
</style>
<g id="text_1_">
	<g>
		<g>
			<path class="st0" d="M-219-207.4h1v3.2h0c0.3-0.7,1.1-1,2-1c1.9,0,2.9,1.5,2.9,3.3c0,1.8-0.9,3.2-2.8,3.2c-0.6,0-1.5-0.2-2-1h0
				v0.8h-1V-207.4z M-216.2-204.3c-1.4,0-1.9,1.2-1.9,2.3c0,1.2,0.6,2.4,2,2.4c1.4,0,1.9-1.2,1.9-2.4
				C-214.3-203.2-214.9-204.3-216.2-204.3z"/>
			<path class="st0" d="M-206.4-198.9c-0.2,0.1-0.4,0.2-0.7,0.2c-0.5,0-0.9-0.3-0.9-1c-0.6,0.7-1.3,1-2.2,1c-1.1,0-2.1-0.5-2.1-1.7
				c0-1.4,1-1.7,2.1-1.9c1.1-0.2,2.1-0.1,2.1-0.9c0-0.9-0.7-1-1.4-1c-0.9,0-1.5,0.3-1.5,1.2h-1c0.1-1.5,1.2-2.1,2.6-2.1
				c1.1,0,2.3,0.3,2.3,1.7v3.2c0,0.5,0,0.7,0.3,0.7c0.1,0,0.2,0,0.3-0.1V-198.9z M-208-202.1c-0.4,0.3-1.2,0.3-1.8,0.4
				c-0.7,0.1-1.2,0.4-1.2,1.1c0,0.7,0.6,0.9,1.2,0.9c1.3,0,1.9-0.8,1.9-1.4V-202.1z"/>
			<path class="st0" d="M-200.2-198.9h-1v-1h0c-0.4,0.8-1.1,1.1-2,1.1c-1.6,0-2.1-0.9-2.1-2.3v-4.1h1v4.2c0,0.8,0.5,1.2,1.3,1.2
				c1.2,0,1.8-0.8,1.8-1.9v-3.5h1V-198.9z"/>
			<path class="st0" d="M-198.5-207.4h1v3.2h0c0.3-0.7,1.1-1,2-1c1.9,0,2.9,1.5,2.9,3.3c0,1.8-0.9,3.2-2.8,3.2c-0.6,0-1.5-0.2-2-1h0
				v0.8h-1V-207.4z M-195.6-204.3c-1.4,0-1.9,1.2-1.9,2.3c0,1.2,0.6,2.4,2,2.4c1.4,0,1.9-1.2,1.9-2.4
				C-193.7-203.2-194.3-204.3-195.6-204.3z"/>
			<path class="st0" d="M-191.2-207.4h1v8.6h-1V-207.4z"/>
			<path class="st0" d="M-183.2-200.8c-0.3,1.4-1.3,2.1-2.7,2.1c-2,0-2.9-1.4-3-3.3c0-1.9,1.2-3.2,2.9-3.2c2.2,0,2.9,2.1,2.8,3.6
				h-4.6c0,1.1,0.6,2,1.9,2c0.8,0,1.4-0.4,1.6-1.2H-183.2z M-184.2-202.5c0-1-0.8-1.8-1.8-1.8c-1.1,0-1.7,0.8-1.8,1.8H-184.2z"/>
		</g>
	</g>
	<g>
		<g>
			<path class="st0" d="M-82.2-207.4h1v3.2h0c0.3-0.7,1.1-1,2-1c1.9,0,2.9,1.5,2.9,3.3c0,1.8-0.9,3.2-2.8,3.2c-0.6,0-1.5-0.2-2-1h0
				v0.8h-1V-207.4z M-79.3-204.3c-1.4,0-1.9,1.2-1.9,2.3c0,1.2,0.6,2.4,2,2.4c1.4,0,1.9-1.2,1.9-2.4
				C-77.4-203.2-78-204.3-79.3-204.3z"/>
			<path class="st0" d="M-69.7-200.8c-0.3,1.4-1.3,2.1-2.7,2.1c-2,0-2.9-1.4-3-3.3c0-1.9,1.2-3.2,2.9-3.2c2.2,0,2.9,2.1,2.8,3.6
				h-4.6c0,1.1,0.6,2,1.9,2c0.8,0,1.4-0.4,1.6-1.2H-69.7z M-70.7-202.5c0-1-0.8-1.8-1.8-1.8c-1.1,0-1.7,0.8-1.8,1.8H-70.7z"/>
			<path class="st0" d="M-68.3-207.4h1v8.6h-1V-207.4z"/>
			<path class="st0" d="M-65.6-207.4h1v8.6h-1V-207.4z"/>
		</g>
	</g>
	<g>
		<g>
			<path class="st0" d="M36.5-207.4h1v3.2h0c0.3-0.7,1.1-1,2-1c1.9,0,2.9,1.5,2.9,3.3c0,1.8-0.9,3.2-2.8,3.2c-0.6,0-1.5-0.2-2-1h0
				v0.8h-1V-207.4z M39.4-204.3c-1.4,0-1.9,1.2-1.9,2.3c0,1.2,0.6,2.4,2,2.4c1.4,0,1.9-1.2,1.9-2.4
				C41.3-203.2,40.7-204.3,39.4-204.3z"/>
			<path class="st0" d="M43.7-205.1h1v1.3h0c0.5-1,1.2-1.5,2.3-1.5v1.1c-1.6,0-2.2,0.9-2.2,2.5v2.8h-1V-205.1z"/>
			<path class="st0" d="M53.3-198.9c-0.2,0.1-0.4,0.2-0.7,0.2c-0.5,0-0.9-0.3-0.9-1c-0.6,0.7-1.3,1-2.2,1c-1.1,0-2.1-0.5-2.1-1.7
				c0-1.4,1-1.7,2.1-1.9c1.1-0.2,2.1-0.1,2.1-0.9c0-0.9-0.7-1-1.4-1c-0.9,0-1.5,0.3-1.5,1.2h-1c0.1-1.5,1.2-2.1,2.6-2.1
				c1.1,0,2.3,0.3,2.3,1.7v3.2c0,0.5,0,0.7,0.3,0.7c0.1,0,0.2,0,0.3-0.1V-198.9z M51.7-202.1c-0.4,0.3-1.2,0.3-1.8,0.4
				c-0.7,0.1-1.2,0.4-1.2,1.1c0,0.7,0.6,0.9,1.2,0.9c1.3,0,1.9-0.8,1.9-1.4V-202.1z"/>
			<path class="st0" d="M54.4-205.1h1v1h0c0.4-0.8,1.1-1.1,2-1.1c1.6,0,2.1,0.9,2.1,2.3v4.1h-1v-4.2c0-0.8-0.5-1.2-1.3-1.2
				c-1.2,0-1.8,0.8-1.8,1.9v3.5h-1V-205.1z"/>
			<path class="st0" d="M66.7-198.9h-1v-0.8h0c-0.3,0.7-1.1,1-2,1c-1.9,0-2.9-1.5-2.9-3.3c0-1.8,0.9-3.2,2.8-3.2c0.6,0,1.5,0.2,2,1
				h0v-3.2h1V-198.9z M63.8-199.6c1.4,0,1.9-1.2,1.9-2.3c0-1.2-0.6-2.4-2-2.4c-1.4,0-1.9,1.2-1.9,2.4
				C61.9-200.7,62.5-199.6,63.8-199.6z"/>
			<path class="st0" d="M70.9-198c-0.5,1.2-0.9,1.7-1.8,1.7c-0.2,0-0.5,0-0.7-0.1v-0.9c0.2,0.1,0.4,0.1,0.6,0.1
				c0.4,0,0.6-0.2,0.8-0.6l0.4-1.1l-2.5-6.2h1.2l1.8,5.1h0l1.7-5.1h1.1L70.9-198z"/>
		</g>
	</g>
	<g>
		<g>
			<path class="st0" d="M169.4-203.1c-0.2-0.8-0.7-1.2-1.5-1.2c-1.5,0-1.9,1.2-1.9,2.4c0,1.1,0.5,2.3,1.8,2.3c1,0,1.6-0.6,1.7-1.5h1
				c-0.2,1.5-1.2,2.4-2.7,2.4c-1.9,0-2.9-1.3-2.9-3.2c0-1.9,1-3.3,2.9-3.3c1.4,0,2.5,0.7,2.7,2.1H169.4z"/>
			<path class="st0" d="M177.3-198.9c-0.2,0.1-0.4,0.2-0.7,0.2c-0.5,0-0.9-0.3-0.9-1c-0.6,0.7-1.3,1-2.2,1c-1.1,0-2.1-0.5-2.1-1.7
				c0-1.4,1-1.7,2.1-1.9c1.1-0.2,2.1-0.1,2.1-0.9c0-0.9-0.7-1-1.4-1c-0.9,0-1.5,0.3-1.5,1.2h-1c0.1-1.5,1.2-2.1,2.6-2.1
				c1.1,0,2.3,0.3,2.3,1.7v3.2c0,0.5,0,0.7,0.3,0.7c0.1,0,0.2,0,0.3-0.1V-198.9z M175.6-202.1c-0.4,0.3-1.2,0.3-1.8,0.4
				c-0.7,0.1-1.2,0.4-1.2,1.1c0,0.7,0.6,0.9,1.2,0.9c1.3,0,1.9-0.8,1.9-1.4V-202.1z"/>
			<path class="st0" d="M178.4-205.1h1v1h0c0.4-0.8,1.1-1.1,2-1.1c1.6,0,2.1,0.9,2.1,2.3v4.1h-1v-4.2c0-0.8-0.5-1.2-1.3-1.2
				c-1.2,0-1.8,0.8-1.8,1.9v3.5h-1V-205.1z"/>
			<path class="st0" d="M190.7-198.9h-1v-0.8h0c-0.3,0.7-1.1,1-2,1c-1.9,0-2.9-1.5-2.9-3.3c0-1.8,0.9-3.2,2.8-3.2c0.6,0,1.5,0.2,2,1
				h0v-3.2h1V-198.9z M187.8-199.6c1.4,0,1.9-1.2,1.9-2.3c0-1.2-0.6-2.4-2-2.4c-1.4,0-1.9,1.2-1.9,2.4
				C185.9-200.7,186.5-199.6,187.8-199.6z"/>
			<path class="st0" d="M192.5-207.4h1v8.6h-1V-207.4z"/>
			<path class="st0" d="M200.5-200.8c-0.3,1.4-1.3,2.1-2.7,2.1c-2,0-2.9-1.4-3-3.3c0-1.9,1.2-3.2,2.9-3.2c2.2,0,2.9,2.1,2.8,3.6
				h-4.6c0,1.1,0.6,2,1.9,2c0.8,0,1.4-0.4,1.6-1.2H200.5z M199.5-202.5c0-1-0.8-1.8-1.8-1.8c-1.1,0-1.7,0.8-1.8,1.8H199.5z"/>
		</g>
	</g>
	<g>
		<g>
			<path class="st0" d="M284.1-203.1c-0.2-0.8-0.7-1.2-1.5-1.2c-1.5,0-1.9,1.2-1.9,2.4c0,1.1,0.5,2.3,1.8,2.3c1,0,1.6-0.6,1.7-1.5h1
				c-0.2,1.5-1.2,2.4-2.7,2.4c-1.9,0-2.9-1.3-2.9-3.2c0-1.9,1-3.3,2.9-3.3c1.4,0,2.5,0.7,2.7,2.1H284.1z"/>
			<path class="st0" d="M291.9-198.9c-0.2,0.1-0.4,0.2-0.7,0.2c-0.5,0-0.9-0.3-0.9-1c-0.6,0.7-1.3,1-2.2,1c-1.1,0-2.1-0.5-2.1-1.7
				c0-1.4,1-1.7,2.1-1.9c1.1-0.2,2.1-0.1,2.1-0.9c0-0.9-0.7-1-1.4-1c-0.9,0-1.5,0.3-1.5,1.2h-1c0.1-1.5,1.2-2.1,2.6-2.1
				c1.1,0,2.3,0.3,2.3,1.7v3.2c0,0.5,0,0.7,0.3,0.7c0.1,0,0.2,0,0.3-0.1V-198.9z M290.3-202.1c-0.4,0.3-1.2,0.3-1.8,0.4
				c-0.7,0.1-1.2,0.4-1.2,1.1c0,0.7,0.6,0.9,1.2,0.9c1.3,0,1.9-0.8,1.9-1.4V-202.1z"/>
			<path class="st0" d="M293-205.1h1v1h0c0.4-0.8,1.1-1.1,2-1.1c1.6,0,2.1,0.9,2.1,2.3v4.1h-1v-4.2c0-0.8-0.5-1.2-1.3-1.2
				c-1.2,0-1.8,0.8-1.8,1.9v3.5h-1V-205.1z"/>
			<path class="st0" d="M305.3-198.9h-1v-0.8h0c-0.3,0.7-1.1,1-2,1c-1.9,0-2.9-1.5-2.9-3.3c0-1.8,0.9-3.2,2.8-3.2c0.6,0,1.5,0.2,2,1
				h0v-3.2h1V-198.9z M302.5-199.6c1.4,0,1.9-1.2,1.9-2.3c0-1.2-0.6-2.4-2-2.4c-1.4,0-1.9,1.2-1.9,2.4
				C300.5-200.7,301.1-199.6,302.5-199.6z"/>
			<path class="st0" d="M309.5-198c-0.5,1.2-0.9,1.7-1.8,1.7c-0.2,0-0.5,0-0.7-0.1v-0.9c0.2,0.1,0.4,0.1,0.6,0.1
				c0.4,0,0.6-0.2,0.8-0.6l0.4-1.1l-2.5-6.2h1.2l1.8,5.1h0l1.7-5.1h1.1L309.5-198z"/>
			<path class="st0" d="M320.8-203.1c-0.2-0.8-0.7-1.2-1.5-1.2c-1.5,0-1.9,1.2-1.9,2.4c0,1.1,0.5,2.3,1.8,2.3c1,0,1.6-0.6,1.7-1.5h1
				c-0.2,1.5-1.2,2.4-2.7,2.4c-1.9,0-2.9-1.3-2.9-3.2c0-1.9,1-3.3,2.9-3.3c1.4,0,2.5,0.7,2.7,2.1H320.8z"/>
			<path class="st0" d="M328.7-198.9c-0.2,0.1-0.4,0.2-0.7,0.2c-0.5,0-0.9-0.3-0.9-1c-0.6,0.7-1.3,1-2.2,1c-1.1,0-2.1-0.5-2.1-1.7
				c0-1.4,1-1.7,2.1-1.9c1.1-0.2,2.1-0.1,2.1-0.9c0-0.9-0.7-1-1.4-1c-0.9,0-1.5,0.3-1.5,1.2h-1c0.1-1.5,1.2-2.1,2.6-2.1
				c1.1,0,2.3,0.3,2.3,1.7v3.2c0,0.5,0,0.7,0.3,0.7c0.1,0,0.2,0,0.3-0.1V-198.9z M327-202.1c-0.4,0.3-1.2,0.3-1.8,0.4
				c-0.7,0.1-1.2,0.4-1.2,1.1c0,0.7,0.6,0.9,1.2,0.9c1.3,0,1.9-0.8,1.9-1.4V-202.1z"/>
			<path class="st0" d="M329.7-205.1h1v1h0c0.4-0.8,1.1-1.1,2-1.1c1.6,0,2.1,0.9,2.1,2.3v4.1h-1v-4.2c0-0.8-0.5-1.2-1.3-1.2
				c-1.2,0-1.8,0.8-1.8,1.9v3.5h-1V-205.1z"/>
			<path class="st0" d="M341.8-200.8c-0.3,1.4-1.3,2.1-2.7,2.1c-2,0-2.9-1.4-3-3.3c0-1.9,1.2-3.2,2.9-3.2c2.2,0,2.9,2.1,2.8,3.6
				h-4.6c0,1.1,0.6,2,1.9,2c0.8,0,1.4-0.4,1.6-1.2H341.8z M340.8-202.5c0-1-0.8-1.8-1.8-1.8c-1.1,0-1.7,0.8-1.8,1.8H340.8z"/>
		</g>
	</g>
	<g>
		<g>
			<path class="st0" d="M-216.7-43.1c-0.2-0.8-0.7-1.2-1.5-1.2c-1.5,0-1.9,1.2-1.9,2.4c0,1.1,0.5,2.3,1.8,2.3c1,0,1.6-0.6,1.7-1.5h1
				c-0.2,1.5-1.2,2.4-2.7,2.4c-1.9,0-2.9-1.3-2.9-3.2c0-1.9,1-3.3,2.9-3.3c1.4,0,2.5,0.7,2.7,2.1H-216.7z"/>
			<path class="st0" d="M-214.4-45.1h1v1.3h0c0.5-1,1.2-1.5,2.3-1.5v1.1c-1.6,0-2.2,0.9-2.2,2.5v2.8h-1V-45.1z"/>
			<path class="st0" d="M-204.7-38.9c-0.2,0.1-0.4,0.2-0.7,0.2c-0.5,0-0.9-0.3-0.9-1c-0.6,0.7-1.3,1-2.2,1c-1.1,0-2.1-0.5-2.1-1.7
				c0-1.4,1-1.7,2.1-1.9c1.1-0.2,2.1-0.1,2.1-0.9c0-0.9-0.7-1-1.4-1c-0.9,0-1.5,0.3-1.5,1.2h-1c0.1-1.5,1.2-2.1,2.6-2.1
				c1.1,0,2.3,0.3,2.3,1.7v3.2c0,0.5,0,0.7,0.3,0.7c0.1,0,0.2,0,0.3-0.1V-38.9z M-206.4-42.1c-0.4,0.3-1.2,0.3-1.8,0.4
				c-0.7,0.1-1.2,0.4-1.2,1.1c0,0.7,0.6,0.9,1.2,0.9c1.3,0,1.9-0.8,1.9-1.4V-42.1z"/>
			<path class="st0" d="M-199.5-43.1c-0.2-0.8-0.7-1.2-1.5-1.2c-1.5,0-1.9,1.2-1.9,2.4c0,1.1,0.5,2.3,1.8,2.3c1,0,1.6-0.6,1.7-1.5h1
				c-0.2,1.5-1.2,2.4-2.7,2.4c-1.9,0-2.9-1.3-2.9-3.2c0-1.9,1-3.3,2.9-3.3c1.4,0,2.5,0.7,2.7,2.1H-199.5z"/>
			<path class="st0" d="M-197-47.4h1v5.1l2.8-2.7h1.4l-2.5,2.3l2.6,3.9h-1.3l-2.1-3.2l-1,0.9v2.4h-1V-47.4z"/>
			<path class="st0" d="M-185.5-40.8c-0.3,1.4-1.3,2.1-2.7,2.1c-2,0-2.9-1.4-3-3.3c0-1.9,1.2-3.2,2.9-3.2c2.2,0,2.9,2.1,2.8,3.6
				h-4.6c0,1.1,0.6,2,1.9,2c0.8,0,1.4-0.4,1.6-1.2H-185.5z M-186.5-42.5c0-1-0.8-1.8-1.8-1.8c-1.1,0-1.7,0.8-1.8,1.8H-186.5z"/>
			<path class="st0" d="M-184.2-45.1h1v1.3h0c0.5-1,1.2-1.5,2.3-1.5v1.1c-1.6,0-2.2,0.9-2.2,2.5v2.8h-1V-45.1z"/>
		</g>
	</g>
	<g>
		<g>
			<path class="st0" d="M-81.2-38.9h-1v-0.8h0c-0.3,0.7-1.1,1-2,1c-1.9,0-2.9-1.5-2.9-3.3c0-1.8,0.9-3.2,2.8-3.2c0.6,0,1.5,0.2,2,1
				h0v-3.2h1V-38.9z M-84.1-39.6c1.4,0,1.9-1.2,1.9-2.3c0-1.2-0.6-2.4-2-2.4c-1.4,0-1.9,1.2-1.9,2.4C-86-40.7-85.4-39.6-84.1-39.6z"
				/>
			<path class="st0" d="M-79.6-45.1h1v1.3h0c0.5-1,1.2-1.5,2.3-1.5v1.1c-1.6,0-2.2,0.9-2.2,2.5v2.8h-1V-45.1z"/>
			<path class="st0" d="M-70.3-38.9h-1v-1h0c-0.4,0.8-1.1,1.1-2,1.1c-1.6,0-2.1-0.9-2.1-2.3v-4.1h1v4.2c0,0.8,0.5,1.2,1.3,1.2
				c1.2,0,1.8-0.8,1.8-1.9v-3.5h1V-38.9z"/>
			<path class="st0" d="M-68.6-45.1h1v0.9h0c0.5-0.7,1.2-1.1,2-1.1c0.8,0,1.5,0.3,1.7,1.1c0.4-0.7,1.2-1.1,1.9-1.1
				c1.2,0,2.1,0.5,2.1,1.8v4.5h-1v-4.1c0-0.8-0.2-1.4-1.2-1.4c-1,0-1.6,0.6-1.6,1.6v3.9h-1v-4.1c0-0.8-0.3-1.4-1.2-1.4
				c-1.2,0-1.7,1.1-1.7,1.6v3.9h-1V-45.1z"/>
		</g>
	</g>
	<g>
		<g>
			<path class="st0" d="M54.3-40.8c-0.3,1.4-1.3,2.1-2.7,2.1c-2,0-2.9-1.4-3-3.3c0-1.9,1.2-3.2,2.9-3.2c2.2,0,2.9,2.1,2.8,3.6h-4.6
				c0,1.1,0.6,2,1.9,2c0.8,0,1.4-0.4,1.6-1.2H54.3z M53.3-42.5c0-1-0.8-1.8-1.8-1.8c-1.1,0-1.7,0.8-1.8,1.8H53.3z"/>
			<path class="st0" d="M55.6-47.4h1v8.6h-1V-47.4z"/>
			<path class="st0" d="M58.8-44.2h-1v-0.9h1V-46c0-1,0.6-1.5,1.7-1.5c0.2,0,0.5,0,0.7,0.1v0.9c-0.2-0.1-0.4-0.1-0.6-0.1
				c-0.5,0-0.8,0.2-0.8,0.7v0.9H61v0.9h-1.2v5.3h-1V-44.2z"/>
		</g>
	</g>
	<g>
		<g>
			<path class="st0" d="M158.9-44.2h-1v-0.9h1V-46c0-1,0.6-1.5,1.7-1.5c0.2,0,0.5,0,0.7,0.1v0.9c-0.2-0.1-0.4-0.1-0.6-0.1
				c-0.5,0-0.8,0.2-0.8,0.7v0.9h1.2v0.9h-1.2v5.3h-1V-44.2z"/>
			<path class="st0" d="M167.7-38.9c-0.2,0.1-0.4,0.2-0.7,0.2c-0.5,0-0.9-0.3-0.9-1c-0.6,0.7-1.3,1-2.2,1c-1.1,0-2.1-0.5-2.1-1.7
				c0-1.4,1-1.7,2.1-1.9c1.1-0.2,2.1-0.1,2.1-0.9c0-0.9-0.7-1-1.4-1c-0.9,0-1.5,0.3-1.5,1.2h-1c0.1-1.5,1.2-2.1,2.6-2.1
				c1.1,0,2.3,0.3,2.3,1.7v3.2c0,0.5,0,0.7,0.3,0.7c0.1,0,0.2,0,0.3-0.1V-38.9z M166-42.1c-0.4,0.3-1.2,0.3-1.8,0.4
				c-0.7,0.1-1.2,0.4-1.2,1.1c0,0.7,0.6,0.9,1.2,0.9c1.3,0,1.9-0.8,1.9-1.4V-42.1z"/>
			<path class="st0" d="M169.8-46.2h-1v-1.2h1V-46.2z M168.8-45.1h1v6.2h-1V-45.1z"/>
			<path class="st0" d="M171.5-45.1h1v1.3h0c0.5-1,1.2-1.5,2.3-1.5v1.1c-1.6,0-2.2,0.9-2.2,2.5v2.8h-1V-45.1z"/>
			<path class="st0" d="M178.1-38c-0.5,1.2-0.9,1.7-1.8,1.7c-0.2,0-0.5,0-0.7-0.1v-0.9c0.2,0.1,0.4,0.1,0.6,0.1
				c0.4,0,0.6-0.2,0.8-0.6l0.4-1.1l-2.5-6.2h1.2l1.8,5.1h0l1.7-5.1h1.1L178.1-38z"/>
			<path class="st0" d="M185.3-47.4h1v8.6h-1V-47.4z"/>
			<path class="st0" d="M189.1-46.2h-1v-1.2h1V-46.2z M188.1-45.1h1v6.2h-1V-45.1z"/>
			<path class="st0" d="M196.1-39.4c0,2-0.9,3-2.9,3c-1.2,0-2.5-0.5-2.6-1.8h1c0,0.7,0.9,1,1.6,1c1.3,0,1.9-1,1.9-2.4v-0.4h0
				c-0.3,0.8-1.2,1.1-1.9,1.1c-1.8,0-2.8-1.5-2.8-3.1c0-1.5,0.7-3.3,2.9-3.3c0.8,0,1.5,0.3,1.8,1h0v-0.9h1V-39.4z M195.1-42.1
				c0-1.1-0.5-2.2-1.8-2.2c-1.3,0-1.8,1.1-1.8,2.3c0,1.1,0.4,2.4,1.8,2.4C194.6-39.7,195.1-40.9,195.1-42.1z"/>
			<path class="st0" d="M197.8-47.4h1v3.3h0c0.3-0.7,1.2-1.1,2-1.1c1.6,0,2.1,0.9,2.1,2.3v4.1h-1v-4.2c0-0.8-0.5-1.2-1.3-1.2
				c-1.2,0-1.8,0.8-1.8,1.9v3.5h-1V-47.4z"/>
			<path class="st0" d="M206-45.1h1.2v0.9H206v3.9c0,0.5,0.1,0.6,0.8,0.6h0.5v0.9h-0.8c-1.1,0-1.5-0.2-1.5-1.4v-3.9h-1.1v-0.9h1.1
				v-1.9h1V-45.1z"/>
		</g>
	</g>
	<g>
		<g>
			<path class="st0" d="M308.2-39.4c0,2-0.9,3-2.9,3c-1.2,0-2.5-0.5-2.6-1.8h1c0,0.7,0.9,1,1.6,1c1.3,0,1.9-1,1.9-2.4v-0.4h0
				c-0.3,0.8-1.2,1.1-1.9,1.1c-1.8,0-2.8-1.5-2.8-3.1c0-1.5,0.7-3.3,2.9-3.3c0.8,0,1.5,0.3,1.8,1h0v-0.9h1V-39.4z M307.1-42.1
				c0-1.1-0.5-2.2-1.8-2.2c-1.3,0-1.8,1.1-1.8,2.3c0,1.1,0.4,2.4,1.8,2.4C306.6-39.7,307.1-40.9,307.1-42.1z"/>
			<path class="st0" d="M310.9-46.2h-1v-1.2h1V-46.2z M309.9-45.1h1v6.2h-1V-45.1z"/>
			<path class="st0" d="M313-44.2h-1v-0.9h1V-46c0-1,0.6-1.5,1.7-1.5c0.2,0,0.5,0,0.7,0.1v0.9c-0.2-0.1-0.4-0.1-0.6-0.1
				c-0.5,0-0.8,0.2-0.8,0.7v0.9h1.2v0.9H314v5.3h-1V-44.2z"/>
			<path class="st0" d="M317.7-45.1h1.2v0.9h-1.2v3.9c0,0.5,0.1,0.6,0.8,0.6h0.5v0.9h-0.8c-1.1,0-1.5-0.2-1.5-1.4v-3.9h-1.1v-0.9
				h1.1v-1.9h1V-45.1z"/>
		</g>
	</g>
	<g>
		<g>
			<path class="st0" d="M-241.6,120.6c0,2-0.9,3-2.9,3c-1.2,0-2.5-0.5-2.6-1.8h1c0,0.7,0.9,1,1.6,1c1.3,0,1.9-1,1.9-2.4v-0.4h0
				c-0.3,0.8-1.2,1.1-1.9,1.1c-1.8,0-2.8-1.5-2.8-3.1c0-1.5,0.7-3.3,2.9-3.3c0.8,0,1.5,0.3,1.8,1h0v-0.9h1V120.6z M-242.6,117.9
				c0-1.1-0.5-2.2-1.8-2.2c-1.3,0-1.8,1.1-1.8,2.3c0,1.1,0.4,2.4,1.8,2.4C-243.1,120.3-242.6,119.1-242.6,117.9z"/>
			<path class="st0" d="M-238.9,113.8h-1v-1.2h1V113.8z M-239.9,114.9h1v6.2h-1V114.9z"/>
			<path class="st0" d="M-237.2,114.9h1v1h0c0.4-0.8,1.1-1.1,2-1.1c1.6,0,2.1,0.9,2.1,2.3v4.1h-1v-4.2c0-0.8-0.5-1.2-1.3-1.2
				c-1.2,0-1.8,0.8-1.8,1.9v3.5h-1V114.9z"/>
			<path class="st0" d="M-225,120.6c0,2-0.9,3-2.9,3c-1.2,0-2.5-0.5-2.6-1.8h1c0,0.7,0.9,1,1.6,1c1.3,0,1.9-1,1.9-2.4v-0.4h0
				c-0.3,0.8-1.2,1.1-1.9,1.1c-1.8,0-2.8-1.5-2.8-3.1c0-1.5,0.7-3.3,2.9-3.3c0.8,0,1.5,0.3,1.8,1h0v-0.9h1V120.6z M-226,117.9
				c0-1.1-0.5-2.2-1.8-2.2c-1.3,0-1.8,1.1-1.8,2.3c0,1.1,0.4,2.4,1.8,2.4C-226.5,120.3-226,119.1-226,117.9z"/>
			<path class="st0" d="M-218.1,119.2c-0.3,1.4-1.3,2.1-2.7,2.1c-2,0-2.9-1.4-3-3.3c0-1.9,1.2-3.2,2.9-3.2c2.2,0,2.9,2.1,2.8,3.6
				h-4.6c0,1.1,0.6,2,1.9,2c0.8,0,1.4-0.4,1.6-1.2H-218.1z M-219.1,117.5c0-1-0.8-1.8-1.8-1.8c-1.1,0-1.7,0.8-1.8,1.8H-219.1z"/>
			<path class="st0" d="M-216.8,114.9h1v1.3h0c0.5-1,1.2-1.5,2.3-1.5v1.1c-1.6,0-2.2,0.9-2.2,2.5v2.8h-1V114.9z"/>
			<path class="st0" d="M-212.7,112.6h1v3.2h0c0.3-0.7,1.1-1,2-1c1.9,0,2.9,1.5,2.9,3.3c0,1.8-0.9,3.2-2.8,3.2c-0.6,0-1.5-0.2-2-1h0
				v0.8h-1V112.6z M-209.8,115.7c-1.4,0-1.9,1.2-1.9,2.3c0,1.2,0.6,2.4,2,2.4c1.4,0,1.9-1.2,1.9-2.4
				C-207.9,116.8-208.5,115.7-209.8,115.7z"/>
			<path class="st0" d="M-205.5,114.9h1v1.3h0c0.5-1,1.2-1.5,2.3-1.5v1.1c-1.6,0-2.2,0.9-2.2,2.5v2.8h-1V114.9z"/>
			<path class="st0" d="M-196.3,119.2c-0.3,1.4-1.3,2.1-2.7,2.1c-2,0-2.9-1.4-3-3.3c0-1.9,1.2-3.2,2.9-3.2c2.2,0,2.9,2.1,2.8,3.6
				h-4.6c0,1.1,0.6,2,1.9,2c0.8,0,1.4-0.4,1.6-1.2H-196.3z M-197.3,117.5c0-1-0.8-1.8-1.8-1.8c-1.1,0-1.7,0.8-1.8,1.8H-197.3z"/>
			<path class="st0" d="M-189.5,121.1c-0.2,0.1-0.4,0.2-0.7,0.2c-0.5,0-0.9-0.3-0.9-1c-0.6,0.7-1.3,1-2.2,1c-1.1,0-2.1-0.5-2.1-1.7
				c0-1.4,1-1.7,2.1-1.9c1.1-0.2,2.1-0.1,2.1-0.9c0-0.9-0.7-1-1.4-1c-0.9,0-1.5,0.3-1.5,1.2h-1c0.1-1.5,1.2-2.1,2.6-2.1
				c1.1,0,2.3,0.3,2.3,1.7v3.2c0,0.5,0,0.7,0.3,0.7c0.1,0,0.2,0,0.3-0.1V121.1z M-191.2,117.9c-0.4,0.3-1.2,0.3-1.8,0.4
				c-0.7,0.1-1.2,0.4-1.2,1.1c0,0.7,0.6,0.9,1.2,0.9c1.3,0,1.9-0.8,1.9-1.4V117.9z"/>
			<path class="st0" d="M-182.9,121.1h-1v-0.8h0c-0.3,0.7-1.1,1-2,1c-1.9,0-2.9-1.5-2.9-3.3c0-1.8,0.9-3.2,2.8-3.2
				c0.6,0,1.5,0.2,2,1h0v-3.2h1V121.1z M-185.8,120.4c1.4,0,1.9-1.2,1.9-2.3c0-1.2-0.6-2.3-2-2.3c-1.4,0-1.9,1.2-1.9,2.4
				C-187.7,119.3-187.1,120.4-185.8,120.4z"/>
			<path class="st0" d="M-177.7,114.9h1v0.9h0c0.5-0.7,1.2-1.1,2-1.1c0.8,0,1.5,0.3,1.7,1.1c0.4-0.7,1.2-1.1,1.9-1.1
				c1.2,0,2.1,0.5,2.1,1.8v4.5h-1v-4.1c0-0.8-0.2-1.4-1.2-1.4c-1,0-1.6,0.6-1.6,1.6v3.9h-1v-4.1c0-0.8-0.3-1.4-1.2-1.4
				c-1.2,0-1.7,1.1-1.7,1.6v3.9h-1V114.9z"/>
			<path class="st0" d="M-161.9,121.1c-0.2,0.1-0.4,0.2-0.7,0.2c-0.5,0-0.9-0.3-0.9-1c-0.6,0.7-1.3,1-2.2,1c-1.1,0-2.1-0.5-2.1-1.7
				c0-1.4,1-1.7,2.1-1.9c1.1-0.2,2.1-0.1,2.1-0.9c0-0.9-0.7-1-1.4-1c-0.9,0-1.5,0.3-1.5,1.2h-1c0.1-1.5,1.2-2.1,2.6-2.1
				c1.1,0,2.3,0.3,2.3,1.7v3.2c0,0.5,0,0.7,0.3,0.7c0.1,0,0.2,0,0.3-0.1V121.1z M-163.5,117.9c-0.4,0.3-1.2,0.3-1.8,0.4
				c-0.7,0.1-1.2,0.4-1.2,1.1c0,0.7,0.6,0.9,1.2,0.9c1.3,0,1.9-0.8,1.9-1.4V117.9z"/>
			<path class="st0" d="M-160.8,114.9h1v1h0c0.4-0.8,1.1-1.1,2-1.1c1.6,0,2.1,0.9,2.1,2.3v4.1h-1v-4.2c0-0.8-0.5-1.2-1.3-1.2
				c-1.2,0-1.8,0.8-1.8,1.9v3.5h-1V114.9z"/>
		</g>
	</g>
	<g>
		<g>
			<path class="st0" d="M-85.3,112.6h1v3.3h0c0.3-0.7,1.2-1.1,2-1.1c1.6,0,2.1,0.9,2.1,2.3v4.1h-1v-4.2c0-0.8-0.5-1.2-1.3-1.2
				c-1.2,0-1.8,0.8-1.8,1.9v3.5h-1V112.6z"/>
			<path class="st0" d="M-75.8,114.8c2,0,3,1.4,3,3.3c0,1.8-1,3.2-3,3.2c-2,0-3-1.4-3-3.2C-78.8,116.2-77.8,114.8-75.8,114.8z
				 M-75.8,120.4c1.1,0,1.9-0.8,1.9-2.3c0-1.5-0.9-2.3-1.9-2.3c-1.1,0-1.9,0.8-1.9,2.3C-77.7,119.6-76.9,120.4-75.8,120.4z"/>
			<path class="st0" d="M-71.4,112.6h1v8.6h-1V112.6z"/>
			<path class="st0" d="M-68.6,112.6h1v8.6h-1V112.6z"/>
			<path class="st0" d="M-63.5,122c-0.5,1.2-0.9,1.7-1.8,1.7c-0.2,0-0.5,0-0.7-0.1v-0.9c0.2,0.1,0.4,0.1,0.6,0.1
				c0.4,0,0.6-0.2,0.8-0.6l0.4-1.1l-2.5-6.2h1.2l1.8,5.1h0l1.7-5.1h1.1L-63.5,122z"/>
		</g>
	</g>
	<g>
		<g>
			<path class="st0" d="M26.3,114.9h1v1h0c0.4-0.8,1.1-1.1,2-1.1c1.6,0,2.1,0.9,2.1,2.3v4.1h-1v-4.2c0-0.8-0.5-1.2-1.3-1.2
				c-1.2,0-1.8,0.8-1.8,1.9v3.5h-1V114.9z"/>
			<path class="st0" d="M38.3,121.1h-1v-1h0c-0.4,0.8-1.1,1.1-2,1.1c-1.6,0-2.1-0.9-2.1-2.3v-4.1h1v4.2c0,0.8,0.5,1.2,1.3,1.2
				c1.2,0,1.8-0.8,1.8-1.9v-3.5h1V121.1z"/>
			<path class="st0" d="M41.3,114.9h1.2v0.9h-1.2v3.9c0,0.5,0.1,0.6,0.8,0.6h0.5v0.9h-0.8c-1.1,0-1.5-0.2-1.5-1.4v-3.9h-1.1v-0.9
				h1.1v-1.9h1V114.9z"/>
			<path class="st0" d="M48,116.9c-0.2-0.8-0.7-1.2-1.5-1.2c-1.5,0-1.9,1.2-1.9,2.4c0,1.1,0.5,2.3,1.8,2.3c1,0,1.6-0.6,1.7-1.5h1
				c-0.2,1.5-1.2,2.4-2.7,2.4c-1.9,0-2.9-1.3-2.9-3.2c0-1.9,1-3.3,2.9-3.3c1.4,0,2.5,0.7,2.7,2.1H48z"/>
			<path class="st0" d="M50.4,114.9h1v1.3h0c0.5-1,1.2-1.5,2.3-1.5v1.1c-1.6,0-2.2,0.9-2.2,2.5v2.8h-1V114.9z"/>
			<path class="st0" d="M60,121.1c-0.2,0.1-0.4,0.2-0.7,0.2c-0.5,0-0.9-0.3-0.9-1c-0.6,0.7-1.3,1-2.2,1c-1.1,0-2.1-0.5-2.1-1.7
				c0-1.4,1-1.7,2.1-1.9c1.1-0.2,2.1-0.1,2.1-0.9c0-0.9-0.7-1-1.4-1c-0.9,0-1.5,0.3-1.5,1.2h-1c0.1-1.5,1.2-2.1,2.6-2.1
				c1.1,0,2.3,0.3,2.3,1.7v3.2c0,0.5,0,0.7,0.3,0.7c0.1,0,0.2,0,0.3-0.1V121.1z M58.4,117.9c-0.4,0.3-1.2,0.3-1.8,0.4
				c-0.7,0.1-1.2,0.4-1.2,1.1c0,0.7,0.6,0.9,1.2,0.9c1.3,0,1.9-0.8,1.9-1.4V117.9z"/>
			<path class="st0" d="M65.3,116.9c-0.2-0.8-0.7-1.2-1.5-1.2c-1.5,0-1.9,1.2-1.9,2.4c0,1.1,0.5,2.3,1.8,2.3c1,0,1.6-0.6,1.7-1.5h1
				c-0.2,1.5-1.2,2.4-2.7,2.4c-1.9,0-2.9-1.3-2.9-3.2c0-1.9,1-3.3,2.9-3.3c1.4,0,2.5,0.7,2.7,2.1H65.3z"/>
			<path class="st0" d="M67.7,112.6h1v5.1l2.8-2.7h1.4l-2.5,2.3l2.6,3.9h-1.3l-2.1-3.2l-1,0.9v2.4h-1V112.6z"/>
			<path class="st0" d="M79.3,119.2c-0.3,1.4-1.3,2.1-2.7,2.1c-2,0-2.9-1.4-3-3.3c0-1.9,1.2-3.2,2.9-3.2c2.2,0,2.9,2.1,2.8,3.6h-4.6
				c0,1.1,0.6,2,1.9,2c0.8,0,1.4-0.4,1.6-1.2H79.3z M78.3,117.5c0-1-0.8-1.8-1.8-1.8c-1.1,0-1.7,0.8-1.8,1.8H78.3z"/>
			<path class="st0" d="M80.5,114.9h1v1.3h0c0.5-1,1.2-1.5,2.3-1.5v1.1c-1.6,0-2.2,0.9-2.2,2.5v2.8h-1V114.9z"/>
		</g>
	</g>
	<g>
		<g>
			<path class="st0" d="M161,114.9h1v0.8h0c0.3-0.7,1.1-1,2-1c1.9,0,2.9,1.5,2.9,3.3c0,1.8-0.9,3.2-2.8,3.2c-0.6,0-1.5-0.2-2-1h0
				v3.2h-1V114.9z M163.9,115.7c-1.4,0-1.9,1.2-1.9,2.3c0,1.2,0.6,2.4,2,2.4c1.4,0,1.9-1.2,1.9-2.4
				C165.8,116.8,165.2,115.7,163.9,115.7z"/>
			<path class="st0" d="M173.3,121.1h-1v-1h0c-0.4,0.8-1.1,1.1-2,1.1c-1.6,0-2.1-0.9-2.1-2.3v-4.1h1v4.2c0,0.8,0.5,1.2,1.3,1.2
				c1.2,0,1.8-0.8,1.8-1.9v-3.5h1V121.1z"/>
			<path class="st0" d="M180.5,121.1h-1v-0.8h0c-0.3,0.7-1.1,1-2,1c-1.9,0-2.9-1.5-2.9-3.3c0-1.8,0.9-3.2,2.8-3.2c0.6,0,1.5,0.2,2,1
				h0v-3.2h1V121.1z M177.6,120.4c1.4,0,1.9-1.2,1.9-2.3c0-1.2-0.6-2.3-2-2.3c-1.4,0-1.9,1.2-1.9,2.4
				C175.7,119.3,176.3,120.4,177.6,120.4z"/>
			<path class="st0" d="M187.7,121.1h-1v-0.8h0c-0.3,0.7-1.1,1-2,1c-1.9,0-2.9-1.5-2.9-3.3c0-1.8,0.9-3.2,2.8-3.2c0.6,0,1.5,0.2,2,1
				h0v-3.2h1V121.1z M184.9,120.4c1.4,0,1.9-1.2,1.9-2.3c0-1.2-0.6-2.3-2-2.3c-1.4,0-1.9,1.2-1.9,2.4
				C183,119.3,183.6,120.4,184.9,120.4z"/>
			<path class="st0" d="M190.5,113.8h-1v-1.2h1V113.8z M189.5,114.9h1v6.2h-1V114.9z"/>
			<path class="st0" d="M192.2,114.9h1v1h0c0.4-0.8,1.1-1.1,2-1.1c1.6,0,2.1,0.9,2.1,2.3v4.1h-1v-4.2c0-0.8-0.5-1.2-1.3-1.2
				c-1.2,0-1.8,0.8-1.8,1.9v3.5h-1V114.9z"/>
			<path class="st0" d="M204.4,120.6c0,2-0.9,3-2.9,3c-1.2,0-2.5-0.5-2.6-1.8h1c0,0.7,0.9,1,1.6,1c1.3,0,1.9-1,1.9-2.4v-0.4h0
				c-0.3,0.8-1.2,1.1-1.9,1.1c-1.8,0-2.8-1.5-2.8-3.1c0-1.5,0.7-3.3,2.9-3.3c0.8,0,1.5,0.3,1.8,1h0v-0.9h1V120.6z M203.4,117.9
				c0-1.1-0.5-2.2-1.8-2.2c-1.3,0-1.8,1.1-1.8,2.3c0,1.1,0.4,2.4,1.8,2.4C202.9,120.3,203.4,119.1,203.4,117.9z"/>
		</g>
	</g>
	<g>
		<g>
			<path class="st0" d="M299.2,121.1h-1.1l-1.3-4.9h0l-1.2,4.9h-1.1l-2-6.2h1.1l1.4,5.1h0l1.2-5.1h1.1l1.3,5.1h0l1.4-5.1h1.1
				L299.2,121.1z"/>
			<path class="st0" d="M302.2,114.9h1v1.3h0c0.5-1,1.2-1.5,2.3-1.5v1.1c-1.6,0-2.2,0.9-2.2,2.5v2.8h-1V114.9z"/>
			<path class="st0" d="M311.4,119.2c-0.3,1.4-1.3,2.1-2.7,2.1c-2,0-2.9-1.4-3-3.3c0-1.9,1.2-3.2,2.9-3.2c2.2,0,2.9,2.1,2.8,3.6
				h-4.6c0,1.1,0.6,2,1.9,2c0.8,0,1.4-0.4,1.6-1.2H311.4z M310.4,117.5c0-1-0.8-1.8-1.8-1.8c-1.1,0-1.7,0.8-1.8,1.8H310.4z"/>
			<path class="st0" d="M318.2,121.1c-0.2,0.1-0.4,0.2-0.7,0.2c-0.5,0-0.9-0.3-0.9-1c-0.6,0.7-1.3,1-2.2,1c-1.1,0-2.1-0.5-2.1-1.7
				c0-1.4,1-1.7,2.1-1.9c1.1-0.2,2.1-0.1,2.1-0.9c0-0.9-0.7-1-1.4-1c-0.9,0-1.5,0.3-1.5,1.2h-1c0.1-1.5,1.2-2.1,2.6-2.1
				c1.1,0,2.3,0.3,2.3,1.7v3.2c0,0.5,0,0.7,0.3,0.7c0.1,0,0.2,0,0.3-0.1V121.1z M316.5,117.9c-0.4,0.3-1.2,0.3-1.8,0.4
				c-0.7,0.1-1.2,0.4-1.2,1.1c0,0.7,0.6,0.9,1.2,0.9c1.3,0,1.9-0.8,1.9-1.4V117.9z"/>
			<path class="st0" d="M320.7,114.9h1.2v0.9h-1.2v3.9c0,0.5,0.1,0.6,0.8,0.6h0.5v0.9h-0.8c-1.1,0-1.5-0.2-1.5-1.4v-3.9h-1.1v-0.9
				h1.1v-1.9h1V114.9z"/>
			<path class="st0" d="M323.2,112.6h1v3.3h0c0.3-0.7,1.2-1.1,2-1.1c1.6,0,2.1,0.9,2.1,2.3v4.1h-1v-4.2c0-0.8-0.5-1.2-1.3-1.2
				c-1.2,0-1.8,0.8-1.8,1.9v3.5h-1V112.6z"/>
		</g>
	</g>
	<g>
		<g>
			<path class="st0" d="M-218.1,274.9h1v1.3h0c0.5-1,1.2-1.5,2.3-1.5v1.1c-1.6,0-2.2,0.9-2.2,2.5v2.8h-1V274.9z"/>
			<path class="st0" d="M-212.9,273.8h-1v-1.2h1V273.8z M-213.9,274.9h1v6.2h-1V274.9z"/>
			<path class="st0" d="M-211.1,272.6h1v3.2h0c0.3-0.7,1.1-1,2-1c1.9,0,2.9,1.5,2.9,3.3c0,1.8-0.9,3.2-2.8,3.2c-0.6,0-1.5-0.2-2-1h0
				v0.8h-1V272.6z M-208.3,275.7c-1.4,0-1.9,1.2-1.9,2.3c0,1.2,0.6,2.4,2,2.4c1.4,0,1.9-1.2,1.9-2.4
				C-206.3,276.8-206.9,275.7-208.3,275.7z"/>
			<path class="st0" d="M-203.9,272.6h1v3.2h0c0.3-0.7,1.1-1,2-1c1.9,0,2.9,1.5,2.9,3.3c0,1.8-0.9,3.2-2.8,3.2c-0.6,0-1.5-0.2-2-1h0
				v0.8h-1V272.6z M-201,275.7c-1.4,0-1.9,1.2-1.9,2.3c0,1.2,0.6,2.4,2,2.4c1.4,0,1.9-1.2,1.9-2.4
				C-199.1,276.8-199.7,275.7-201,275.7z"/>
			<path class="st0" d="M-194,274.8c2,0,3,1.4,3,3.3c0,1.8-1,3.2-3,3.2c-2,0-3-1.4-3-3.2C-197,276.2-196,274.8-194,274.8z
				 M-194,280.4c1.1,0,1.9-0.8,1.9-2.3c0-1.5-0.9-2.3-1.9-2.3s-1.9,0.8-1.9,2.3C-196,279.6-195.1,280.4-194,280.4z"/>
			<path class="st0" d="M-189.7,274.9h1v1h0c0.4-0.8,1.1-1.1,2-1.1c1.6,0,2.1,0.9,2.1,2.3v4.1h-1v-4.2c0-0.8-0.5-1.2-1.3-1.2
				c-1.2,0-1.8,0.8-1.8,1.9v3.5h-1V274.9z"/>
		</g>
	</g>
	<g>
		<g>
			<path class="st0" d="M-98.3,279.2c0,0.9,0.8,1.2,1.7,1.2c0.6,0,1.5-0.1,1.5-0.9c0-0.8-1-0.9-2-1.2c-1-0.2-2-0.6-2-1.8
				c0-1.2,1.2-1.8,2.3-1.8c1.4,0,2.5,0.4,2.5,1.9h-1c-0.1-0.8-0.8-1-1.4-1c-0.6,0-1.3,0.2-1.3,0.8c0,0.7,1.1,0.9,2,1.1
				c1,0.2,2,0.6,2,1.8c0,1.5-1.4,2-2.6,2c-1.4,0-2.6-0.6-2.6-2.1H-98.3z"/>
			<path class="st0" d="M-92.8,274.9h1v1h0c0.4-0.8,1.1-1.1,2-1.1c1.6,0,2.1,0.9,2.1,2.3v4.1h-1v-4.2c0-0.8-0.5-1.2-1.3-1.2
				c-1.2,0-1.8,0.8-1.8,1.9v3.5h-1V274.9z"/>
			<path class="st0" d="M-83.4,274.8c2,0,3,1.4,3,3.3c0,1.8-1,3.2-3,3.2c-2,0-3-1.4-3-3.2C-86.4,276.2-85.3,274.8-83.4,274.8z
				 M-83.4,280.4c1.1,0,1.9-0.8,1.9-2.3c0-1.5-0.9-2.3-1.9-2.3c-1.1,0-1.9,0.8-1.9,2.3C-85.3,279.6-84.4,280.4-83.4,280.4z"/>
			<path class="st0" d="M-72.9,281.1H-74l-1.3-4.9h0l-1.2,4.9h-1.1l-2-6.2h1.1l1.4,5.1h0l1.2-5.1h1.1l1.3,5.1h0l1.4-5.1h1.1
				L-72.9,281.1z"/>
			<path class="st0" d="M-69.8,274.9h1v0.9h0c0.5-0.7,1.2-1.1,2-1.1c0.8,0,1.5,0.3,1.7,1.1c0.4-0.7,1.2-1.1,1.9-1.1
				c1.2,0,2.1,0.5,2.1,1.8v4.5h-1v-4.1c0-0.8-0.2-1.4-1.2-1.4c-1,0-1.6,0.6-1.6,1.6v3.9h-1v-4.1c0-0.8-0.3-1.4-1.2-1.4
				c-1.2,0-1.7,1.1-1.7,1.6v3.9h-1V274.9z"/>
			<path class="st0" d="M-54,281.1c-0.2,0.1-0.4,0.2-0.7,0.2c-0.5,0-0.9-0.3-0.9-1c-0.6,0.7-1.3,1-2.2,1c-1.1,0-2.1-0.5-2.1-1.7
				c0-1.4,1-1.7,2.1-1.9c1.1-0.2,2.1-0.1,2.1-0.9c0-0.9-0.7-1-1.4-1c-0.9,0-1.5,0.3-1.5,1.2h-1c0.1-1.5,1.2-2.1,2.6-2.1
				c1.1,0,2.3,0.3,2.3,1.7v3.2c0,0.5,0,0.7,0.3,0.7c0.1,0,0.2,0,0.3-0.1V281.1z M-55.6,277.9c-0.4,0.3-1.2,0.3-1.8,0.4
				c-0.7,0.1-1.2,0.4-1.2,1.1c0,0.7,0.6,0.9,1.2,0.9c1.3,0,1.9-0.8,1.9-1.4V277.9z"/>
			<path class="st0" d="M-52.9,274.9h1v1h0c0.4-0.8,1.1-1.1,2-1.1c1.6,0,2.1,0.9,2.1,2.3v4.1h-1v-4.2c0-0.8-0.5-1.2-1.3-1.2
				c-1.2,0-1.8,0.8-1.8,1.9v3.5h-1V274.9z"/>
		</g>
	</g>
	<g>
		<g>
			<path class="st0" d="M45.8,279.2c0,0.9,0.8,1.2,1.7,1.2c0.6,0,1.5-0.1,1.5-0.9c0-0.8-1-0.9-2-1.2c-1-0.2-2-0.6-2-1.8
				c0-1.2,1.2-1.8,2.3-1.8c1.4,0,2.5,0.4,2.5,1.9h-1c-0.1-0.8-0.8-1-1.4-1c-0.6,0-1.3,0.2-1.3,0.8c0,0.7,1.1,0.9,2,1.1
				c1,0.2,2,0.6,2,1.8c0,1.5-1.4,2-2.6,2c-1.4,0-2.6-0.6-2.6-2.1H45.8z"/>
			<path class="st0" d="M52.7,274.9h1.2v0.9h-1.2v3.9c0,0.5,0.1,0.6,0.8,0.6h0.5v0.9h-0.8c-1.1,0-1.5-0.2-1.5-1.4v-3.9h-1.1v-0.9
				h1.1v-1.9h1V274.9z"/>
			<path class="st0" d="M60.7,281.1c-0.2,0.1-0.4,0.2-0.7,0.2c-0.5,0-0.9-0.3-0.9-1c-0.6,0.7-1.3,1-2.2,1c-1.1,0-2.1-0.5-2.1-1.7
				c0-1.4,1-1.7,2.1-1.9c1.1-0.2,2.1-0.1,2.1-0.9c0-0.9-0.7-1-1.4-1c-0.9,0-1.5,0.3-1.5,1.2h-1c0.1-1.5,1.2-2.1,2.6-2.1
				c1.1,0,2.3,0.3,2.3,1.7v3.2c0,0.5,0,0.7,0.3,0.7c0.1,0,0.2,0,0.3-0.1V281.1z M59,277.9c-0.4,0.3-1.2,0.3-1.8,0.4
				c-0.7,0.1-1.2,0.4-1.2,1.1c0,0.7,0.6,0.9,1.2,0.9c1.3,0,1.9-0.8,1.9-1.4V277.9z"/>
			<path class="st0" d="M61.7,274.9h1v1.3h0c0.5-1,1.2-1.5,2.3-1.5v1.1c-1.6,0-2.2,0.9-2.2,2.5v2.8h-1V274.9z"/>
		</g>
	</g>
	<g>
		<g>
			<path class="st0" d="M160.8,279.2c0,0.9,0.8,1.2,1.7,1.2c0.6,0,1.5-0.1,1.5-0.9c0-0.8-1-0.9-2-1.2c-1-0.2-2-0.6-2-1.8
				c0-1.2,1.2-1.8,2.3-1.8c1.4,0,2.5,0.4,2.5,1.9h-1c-0.1-0.8-0.8-1-1.4-1c-0.6,0-1.3,0.2-1.3,0.8c0,0.7,1.1,0.9,2,1.1
				c1,0.2,2,0.6,2,1.8c0,1.5-1.4,2-2.6,2c-1.4,0-2.6-0.6-2.6-2.1H160.8z"/>
			<path class="st0" d="M167.8,274.9h1.2v0.9h-1.2v3.9c0,0.5,0.1,0.6,0.8,0.6h0.5v0.9h-0.8c-1.1,0-1.5-0.2-1.5-1.4v-3.9h-1.1v-0.9
				h1.1v-1.9h1V274.9z"/>
			<path class="st0" d="M172.9,274.8c2,0,3,1.4,3,3.3c0,1.8-1,3.2-3,3.2c-2,0-3-1.4-3-3.2C169.9,276.2,171,274.8,172.9,274.8z
				 M172.9,280.4c1.1,0,1.9-0.8,1.9-2.3c0-1.5-0.9-2.3-1.9-2.3c-1.1,0-1.9,0.8-1.9,2.3C171,279.6,171.9,280.4,172.9,280.4z"/>
			<path class="st0" d="M181.5,276.9c-0.2-0.8-0.7-1.2-1.5-1.2c-1.5,0-1.9,1.2-1.9,2.4c0,1.1,0.5,2.3,1.8,2.3c1,0,1.6-0.6,1.7-1.5h1
				c-0.2,1.5-1.2,2.4-2.7,2.4c-1.9,0-2.9-1.3-2.9-3.2c0-1.9,1-3.3,2.9-3.3c1.4,0,2.5,0.7,2.7,2.1H181.5z"/>
			<path class="st0" d="M183.9,272.6h1v5.1l2.8-2.7h1.4l-2.5,2.3l2.6,3.9H188l-2.1-3.2l-1,0.9v2.4h-1V272.6z"/>
			<path class="st0" d="M191.2,273.8h-1v-1.2h1V273.8z M190.2,274.9h1v6.2h-1V274.9z"/>
			<path class="st0" d="M192.9,274.9h1v1h0c0.4-0.8,1.1-1.1,2-1.1c1.6,0,2.1,0.9,2.1,2.3v4.1h-1v-4.2c0-0.8-0.5-1.2-1.3-1.2
				c-1.2,0-1.8,0.8-1.8,1.9v3.5h-1V274.9z"/>
			<path class="st0" d="M205.1,280.6c0,2-0.9,3-2.9,3c-1.2,0-2.5-0.5-2.6-1.8h1c0,0.7,0.9,1,1.6,1c1.3,0,1.9-1,1.9-2.4v-0.4h0
				c-0.3,0.8-1.2,1.1-1.9,1.1c-1.8,0-2.8-1.5-2.8-3.1c0-1.5,0.7-3.3,2.9-3.3c0.8,0,1.5,0.3,1.8,1h0v-0.9h1V280.6z M204.1,277.9
				c0-1.1-0.5-2.2-1.8-2.2c-1.3,0-1.8,1.1-1.8,2.3c0,1.1,0.4,2.4,1.8,2.4C203.6,280.3,204.1,279.1,204.1,277.9z"/>
		</g>
	</g>
	<g>
		<g>
			<path class="st0" d="M302.4,274.9h1.2v0.9h-1.2v3.9c0,0.5,0.1,0.6,0.8,0.6h0.5v0.9h-0.8c-1.1,0-1.5-0.2-1.5-1.4v-3.9h-1.1v-0.9
				h1.1v-1.9h1V274.9z"/>
			<path class="st0" d="M304.9,274.9h1v1.3h0c0.5-1,1.2-1.5,2.3-1.5v1.1c-1.6,0-2.2,0.9-2.2,2.5v2.8h-1V274.9z"/>
			<path class="st0" d="M314.1,279.2c-0.3,1.4-1.3,2.1-2.7,2.1c-2,0-2.9-1.4-3-3.3c0-1.9,1.2-3.2,2.9-3.2c2.2,0,2.9,2.1,2.8,3.6
				h-4.6c0,1.1,0.6,2,1.9,2c0.8,0,1.4-0.4,1.6-1.2H314.1z M313.1,277.5c0-1-0.8-1.8-1.8-1.8c-1.1,0-1.7,0.8-1.8,1.8H313.1z"/>
			<path class="st0" d="M320.7,279.2c-0.3,1.4-1.3,2.1-2.7,2.1c-2,0-2.9-1.4-3-3.3c0-1.9,1.2-3.2,2.9-3.2c2.2,0,2.9,2.1,2.8,3.6
				h-4.6c0,1.1,0.6,2,1.9,2c0.8,0,1.4-0.4,1.6-1.2H320.7z M319.7,277.5c0-1-0.8-1.8-1.8-1.8c-1.1,0-1.7,0.8-1.8,1.8H319.7z"/>
		</g>
	</g>
</g>
<g id="icons">
	<g id="tree_2_">
		<path id="tree_3_" class="st1" d="M339.1,231.1c-0.1,0.1-6.4,13-19.6,13.4l-0.7,4.7c0,0.1,0,0.1,0,0.2c0,0.1-1.1,2.3-3.7,2.3h-8.9
			c-2.6,0-3.6-2.2-3.7-2.3c0-0.1,0-0.1,0-0.2l-0.7-4.7c-13.2-0.3-19.5-13.2-19.6-13.4c-0.1-0.2-0.1-0.5,0.1-0.7
			c0.2-0.2,0.4-0.2,0.7-0.1c1.5,0.6,3,0.9,4.4,0.9c4.7,0,7.8-3.3,9.1-4.9c-5-0.8-8.6-6.8-8.8-7c-0.1-0.2-0.1-0.4,0-0.6
			c0.1-0.2,0.3-0.3,0.5-0.3c6,0,10.2-2.8,12-4.4c-6.6-0.6-7.9-4.9-8-5.1c0-0.2,0-0.4,0.1-0.5c0.1-0.1,0.3-0.2,0.5-0.2
			c9.1,0,17.2-17.3,17.2-17.4c0.2-0.4,0.9-0.4,1.1,0c0.1,0.2,8.1,17.4,17.2,17.4c0.2,0,0.4,0.1,0.5,0.2c0.1,0.1,0.1,0.3,0.1,0.5
			c-0.1,0.2-1.4,4.6-8,5.1c1.8,1.5,6.1,4.4,12,4.4c0.2,0,0.4,0.1,0.5,0.3c0.1,0.2,0.1,0.4,0,0.6c-0.2,0.3-3.7,6.2-8.8,7
			c1.2,1.6,4.4,4.9,9.1,4.9c1.4,0,2.9-0.3,4.4-0.9c0.2-0.1,0.5,0,0.7,0.1C339.1,230.6,339.2,230.9,339.1,231.1z"/>
		<path id="star_3_" class="st2" d="M307.7,183.5c0.3,0.3,0.5,0.8,0.4,1.2l-1,3.3c-0.1,0.4,0.1,0.5,0.4,0.3l2.5-2
			c0.3-0.3,0.9-0.3,1.2,0l2.5,2c0.3,0.3,0.5,0.1,0.4-0.3l-1-3.3c-0.1-0.4,0.1-1,0.4-1.2l2.6-2c0.3-0.3,0.3-0.5-0.2-0.5h-3.1
			c-0.4,0-0.9-0.3-1-0.8l-1-3.4c-0.1-0.4-0.3-0.4-0.5,0l-1,3.4c-0.1,0.4-0.6,0.8-1,0.8h-3.1c-0.4,0-0.5,0.2-0.2,0.5L307.7,183.5z"/>
	</g>
	<g id="stocking_2_">
		<path class="st3" d="M188.5,200.3c-3.2-3.2-8.5-3.2-11.7,0l-14.1,14.1c-4.9,4.9-6.2,9.2-6.6,13.3c-0.4,4.1,1.7,10.2,4.8,13.6
			l1.9,2.1c3.1,3.3,9.7,7.9,12.6,8.1c2.9,0.1,6.9-4.3,7.3-7.1c0.5-2.7-2-6.2-2-8.5c0-2.2,2.6-6.7,5.8-9.9l8-8
			c3.2-3.2,3.2-8.5,0-11.7L188.5,200.3z"/>
		<path class="st4" d="M164.1,234.6c-0.2-0.1-0.3-0.2-0.5-0.3c-0.6-0.6-0.6-1.7,0-2.3c1.8-1.8,2.7-3.7,2.7-5.7c0-3.4-2.6-6-2.6-6.1
			c-0.6-0.6-0.7-1.7,0-2.3c0.6-0.6,1.7-0.7,2.3,0c0.1,0.1,3.6,3.6,3.6,8.4c0,2.9-1.2,5.6-3.7,8C165.5,234.7,164.7,234.9,164.1,234.6
			z"/>
		<g id="top_1_">
			<path class="st4" d="M203.8,219.3c-2.9,2.9-7.7,2.9-10.6,0l-17.7-17.7c-2.9-2.9-2.9-7.7,0-10.6l3.1-3.1c2.9-2.9,7.7-2.9,10.6,0
				l17.7,17.7c2.9,2.9,2.9,7.7,0,10.6L203.8,219.3z"/>
			<ellipse class="st4" cx="184.5" cy="182.6" rx="2.3" ry="4.5"/>
			<path class="st5" d="M207,205.5l-17.7-17.7c-0.5-0.5-1.1-0.9-1.7-1.3c0.5-1.1,0.8-2.4,0.8-4c0-2.8-1.1-5.2-2.7-5.9
				c-0.4-0.2-0.8-0.3-1.2-0.3c-2.3,0-3.9,2.6-3.9,6.2c0,1.3,0.2,2.6,0.7,3.6c-0.9,0.4-1.8,0.9-2.6,1.7l-3.1,3.1
				c-2.9,2.9-2.9,7.7,0,10.6l17.7,17.7c0.6,0.6,1.4,1.1,2.1,1.5c2.8,1.3,6.2,0.8,8.5-1.5l3.1-3.1C209.9,213.2,209.9,208.4,207,205.5
				z M184.5,179.9c0.3,0.4,0.6,1.3,0.6,2.7c0,1.4-0.4,2.3-0.6,2.7c-0.3-0.4-0.6-1.3-0.6-2.7C183.9,181.2,184.3,180.3,184.5,179.9z
				 M204.6,213.8l-3.1,3.1c-1.2,1.2-3.1,1.6-4.7,0.8c-0.4-0.2-0.8-0.5-1.2-0.8l-17.7-17.7c-0.8-0.8-1.2-1.8-1.2-3
				c0-1.1,0.4-2.2,1.2-3l3.1-3.1c1.2-1.2,3.1-1.6,4.7-0.8c0.4,0.2,0.8,0.5,1.2,0.8l17.7,17.7c0.8,0.8,1.2,1.8,1.2,3
				C205.9,211.9,205.4,213,204.6,213.8z"/>
		</g>
	</g>
	<path id="star_2_" class="st2" d="M19.7,207.6L36,220.4c2.2,1.7,3.3,5.3,2.5,7.9L32.4,249c-0.8,2.6,0.3,3.4,2.5,1.7l16-12.5
		c2.1-1.7,5.7-1.7,7.9,0l16.1,12.5c2.1,1.7,3.3,0.9,2.5-1.7L71,228.2c-0.8-2.6,0.3-6.2,2.5-7.9l16.2-12.7c2.2-1.7,1.7-3.1-1.1-3.1
		H68.9c-2.7,0-5.6-2.1-6.4-4.8l-6.4-21.2c-0.8-2.6-2.1-2.6-2.9,0l-6.3,21.2c-0.8,2.6-3.7,4.8-6.4,4.8H20.7
		C18,204.5,17.5,205.9,19.7,207.6z"/>
	<g id="snowman_1_">
		<path id="snowman_4_" class="st6" d="M-60.5,218.6c0.3,0.3,6.4,6.5,8.9,14.5c5.9-7.4-10.3-22.4-12.5-24.4c2-2.2,3.3-5.1,3.3-8.4
			c0-1.6-0.3-3.1-0.9-4.6c-0.8,0.9-2,1.5-3.4,1.5h-16.7c-1.3,0-2.3-0.5-3.1-1.3c-0.5,1.4-0.8,2.9-0.8,4.4c0,3.2,1.2,6.1,3.2,8.3
			c-1.7,1.4-18.3,15.7-12.6,24.3c2.6-7.9,8.5-13.9,8.8-14.3c0.5-0.5,1.2-0.5,1.7,0c0.5,0.5,0.5,1.2,0,1.7c-0.1,0.1-8.7,8.9-9.2,18.5
			c0,0.2,0,0.4,0,0.6c0,0.3,0,0.7,0,1c0.2,4.9,2.7,11.2,14.3,11.2h4.6h3.3h4.6c11.4,0,14-6.1,14.2-10.9c0-0.5,0-0.9,0-1.4
			c0-0.1,0-0.2,0-0.4c-0.5-9.7-9.2-18.5-9.2-18.6c-0.5-0.5-0.5-1.2,0-1.7C-61.7,218.1-61,218.1-60.5,218.6z M-79.6,202.2
			c-1,0-1.8-0.8-1.8-1.8c0-1,0.8-1.8,1.8-1.8c1,0,1.8,0.8,1.8,1.8C-77.8,201.4-78.6,202.2-79.6,202.2z M-73.5,202
			c1.3,0,2.4,1.1,2.4,2.4c0,0.4-0.1,0.8-0.3,1.1l0,0l-2.1,3.6l-2.1-3.6l0,0c-0.2-0.3-0.3-0.7-0.3-1.1C-75.9,203.1-74.9,202-73.5,202
			z M-73.3,241.4c-1.3,0-2.4-1.1-2.4-2.4c0-1.3,1.1-2.4,2.4-2.4c1.3,0,2.4,1.1,2.4,2.4C-70.9,240.3-72,241.4-73.3,241.4z
			 M-73.3,230.3c-1.3,0-2.4-1.1-2.4-2.4c0-1.3,1.1-2.4,2.4-2.4c1.3,0,2.4,1.1,2.4,2.4C-70.9,229.3-72,230.3-73.3,230.3z
			 M-73.3,219.3c-1.3,0-2.4-1.1-2.4-2.4c0-1.3,1.1-2.4,2.4-2.4c1.3,0,2.4,1.1,2.4,2.4C-70.9,218.2-72,219.3-73.3,219.3z
			 M-67.1,202.2c-1,0-1.8-0.8-1.8-1.8c0-1,0.8-1.8,1.8-1.8c1,0,1.8,0.8,1.8,1.8C-65.3,201.4-66.1,202.2-67.1,202.2z"/>
		<g id="hat_5_">
			<g>
				<path class="st4" d="M-57.2,190.1c-1.6,0-2.9,1-3.3,2.4c0-2.6-2-4.8-4.6-4.8h-16.6c-2.6,0-4.4,2.1-4.4,4.8
					c0,2.6,1.7,4.8,4.4,4.8h16.6c2.2,0,3.9-1.5,4.4-3.5c0.1,1.9,1.6,3.4,3.5,3.4c2,0,3.6-1.6,3.6-3.6
					C-53.6,191.7-55.2,190.1-57.2,190.1z"/>
				<path class="st5" d="M-57.2,190.1c-1.5,0-2.8,0.9-3.3,2.3c-0.1-2.5-2.1-4.6-4.6-4.6h-16.7c-2.6,0-4.4,2.1-4.4,4.8
					c0,2.6,1.7,4.8,4.4,4.8h16.7c2.1,0,3.8-1.4,4.4-3.3c0.2,1.8,1.7,3.3,3.6,3.3c2,0,3.6-1.6,3.6-3.6
					C-53.6,191.7-55.2,190.1-57.2,190.1z M-65.2,196.2h-16.7c-1.9,0-3.3-1.5-3.3-3.7c0-2.2,1.3-3.7,3.3-3.7h16.7
					c2,0,3.5,1.6,3.5,3.7C-61.6,194.6-63.2,196.2-65.2,196.2z M-57.2,196.1c-1.3,0-2.4-1.1-2.4-2.4c0-1.3,1.1-2.4,2.4-2.4
					c1.3,0,2.4,1.1,2.4,2.4C-54.8,195-55.9,196.1-57.2,196.1z"/>
			</g>
			<path class="st3" d="M-86.2,192.5c0-0.1,0-0.1,0-0.2C-86.2,192.4-86.2,192.4-86.2,192.5C-86.2,192.5-86.2,192.5-86.2,192.5z
				 M-59.2,190.7c-3.7-5.1-11.6-15-16.4-14.1c-4.5,0.9-6,7.2-6.5,11.1c-0.1,0-0.2,0-0.2,0.1c0.2,0,0.4-0.1,0.6-0.1h16.7
				c2.6,0,4.5,2,4.6,4.6C-60.3,191.7-59.8,191.1-59.2,190.7z"/>
		</g>
	</g>
	<path id="ribbon_3_" class="st3" d="M-163.8,185.5c0-0.4,0-0.8,0-1.2c0-5.2-11.1-16.9-37.5,5.8c-26.4-22.8-37.5-11-37.5-5.8
		c0,0.4,0,0.8,0,1.2c-0.1-0.4-0.1-0.8-0.1-1.2v24.8c0,8.4,10.2,9.7,20,8.9l-12.2,26.1c-0.5,1.1,0,1.7,1.2,1.3l5.8-2.1
		c1.2-0.4,2.5,0.2,2.9,1.3l2.1,5.8c0.4,1.2,1.2,1.2,1.7,0.1l15.9-34.2l12.5,34.4c0.4,1.2,1.2,1.2,1.7,0.1l2.6-5.5
		c0.5-1.1,1.9-1.6,3-1.1l5.5,2.6c1.1,0.5,1.7,0,1.3-1.2l-10.1-27.7c10.1,1,21.2,0,21.2-8.8v-24.8
		C-163.7,184.7-163.8,185.1-163.8,185.5z M-232.9,184.7c4.5-8.3,24.2,7,24.2,7S-237.3,192.7-232.9,184.7z M-201.3,212.8
		c-4.2,0-7.5-3.4-7.5-7.5s3.4-7.5,7.5-7.5c4.2,0,7.5,3.4,7.5,7.5S-197.2,212.8-201.3,212.8z M-194,191.7c0,0,19.7-15.3,24.2-7
		C-165.4,192.7-194,191.7-194,191.7z"/>
	<g id="Reef_1_">
		<path class="st1" d="M339.3,45.2c0-15.8-12.8-28.6-28.6-28.6s-28.6,12.8-28.6,28.6c0,7.6,3,14.6,7.9,19.7v-5.3h0v0
			c0-1.6,0.8-3.2,2.2-4.5c0.9-0.8,2.4-1.7,4.5-2c-1.4-2.4-2.1-5.1-2.1-8c0-8.9,7.2-16.1,16.1-16.1c8.9,0,16.1,7.2,16.1,16.1
			c0,2.9-0.8,5.6-2.1,8c4.2,0.5,6.7,3.6,6.7,6.4v0h0v5.3C336.3,59.7,339.3,52.8,339.3,45.2z M289.9,46.6c-0.5,2.1-2.7,2.1-3.2,0
			c-2.1-0.5-2.1-2.7,0-3.2c0.5-2.1,2.7-2.1,3.2,0C292,43.9,292,46.1,289.9,46.6z M295.2,32.4c-0.5,2.1-2.7,2.1-3.2,0
			c-2.1-0.5-2.1-2.7,0-3.2c0.5-2.2,2.7-2.1,3.2,0C297.3,29.7,297.3,31.8,295.2,32.4z M312.3,24.5c-0.5,2.1-2.7,2.1-3.2,0
			c-2.1-0.5-2.1-2.7,0-3.2c0.5-2.1,2.7-2.1,3.2,0C314.4,21.8,314.4,23.9,312.3,24.5z M329.3,32.4c-0.5,2.1-2.7,2.1-3.2,0
			c-2.1-0.5-2.1-2.7,0-3.2c0.5-2.2,2.7-2.1,3.2,0C331.5,29.7,331.5,31.8,329.3,32.4z M331.4,46.8c-2.1-0.5-2.1-2.7,0-3.2
			c0.5-2.2,2.7-2.1,3.2,0c2.1,0.5,2.1,2.7,0,3.2C334.1,48.9,331.9,48.9,331.4,46.8z"/>
		<path class="st3" d="M328.5,60.2c0-0.2,0-0.4,0-0.6c0-0.1,0-0.2,0-0.3c0,0,0-0.1,0-0.1c0-0.1,0-0.1,0-0.2c0,0,0-0.1,0-0.1
			c0-0.1,0-0.1-0.1-0.2c0,0,0-0.1,0-0.1c0-0.1,0-0.1-0.1-0.2c0,0,0-0.1-0.1-0.1c0-0.1-0.1-0.1-0.1-0.2c0,0,0-0.1-0.1-0.1
			c0-0.1-0.1-0.1-0.1-0.2c0,0-0.1-0.1-0.1-0.1c0-0.1-0.1-0.1-0.1-0.2c0,0-0.1-0.1-0.1-0.1c-0.1-0.1-0.1-0.1-0.2-0.2
			c0,0-0.1-0.1-0.1-0.1c-0.1-0.1-0.2-0.1-0.2-0.2c0,0-0.1,0-0.1-0.1c-0.2-0.2-0.5-0.3-0.8-0.5c0,0-0.1,0-0.1,0
			c-0.1,0-0.2-0.1-0.3-0.1c-0.1,0-0.1,0-0.2-0.1c-0.1,0-0.2-0.1-0.3-0.1c-0.1,0-0.1,0-0.2-0.1c-0.1,0-0.2,0-0.3-0.1
			c-0.1,0-0.2,0-0.2,0c-0.1,0-0.2,0-0.3,0c-0.1,0-0.2,0-0.3,0c-0.1,0-0.2,0-0.3,0c-0.1,0-0.1,0-0.2,0c0,0-0.1,0-0.1,0
			c-2.7,0-6.6,1.4-11.7,5.7c-0.3,0.2-0.6,0.5-0.9,0.7c-0.3-0.3-0.6-0.5-0.9-0.7c-5.2-4.2-9-5.6-11.7-5.7c0,0-0.1,0-0.1,0
			c-0.1,0-0.1,0-0.2,0c-0.1,0-0.2,0-0.3,0c-0.1,0-0.2,0-0.3,0c-0.1,0-0.2,0-0.3,0c-0.1,0-0.2,0-0.2,0c-0.1,0-0.2,0-0.3,0.1
			c-0.1,0-0.1,0-0.2,0.1c-0.1,0-0.2,0.1-0.3,0.1c-0.1,0-0.1,0-0.2,0.1c-0.1,0-0.2,0.1-0.3,0.1c0,0-0.1,0-0.1,0.1
			c-0.1,0.1-0.3,0.1-0.4,0.2c0,0,0,0,0,0c-0.1,0.1-0.2,0.1-0.3,0.2c0,0-0.1,0.1-0.1,0.1c-0.1,0.1-0.1,0.1-0.2,0.2
			c0,0-0.1,0.1-0.1,0.1c-0.1,0.1-0.1,0.1-0.2,0.2c0,0-0.1,0.1-0.1,0.1c0,0.1-0.1,0.1-0.1,0.2c0,0-0.1,0.1-0.1,0.1
			c0,0.1-0.1,0.1-0.1,0.2c0,0-0.1,0.1-0.1,0.1c0,0.1-0.1,0.1-0.1,0.2c0,0,0,0.1-0.1,0.1c0,0.1-0.1,0.1-0.1,0.2c0,0,0,0.1,0,0.1
			c0,0.1,0,0.1-0.1,0.2c0,0,0,0.1,0,0.1c0,0.1,0,0.1,0,0.2c0,0,0,0.1,0,0.1c0,0.1,0,0.2,0,0.3c0,0.2,0,0.4,0,0.6c0-0.2,0-0.4,0-0.6
			v7.9v3.9c0,4,4.9,4.6,9.5,4.2L296.5,88c-0.2,0.5,0,0.8,0.6,0.6l2.7-1c0.6-0.2,1.2,0.1,1.4,0.6l1,2.7c0.2,0.6,0.6,0.6,0.8,0
			l7.6-16.2l6,16.3c0.2,0.6,0.6,0.6,0.8,0l1.2-2.6c0.2-0.5,0.9-0.8,1.4-0.5l2.6,1.2c0.5,0.2,0.8,0,0.6-0.6l-4.8-13.2
			c4.8,0.5,10.1,0,10.1-4.2v-3.9v-7.9C328.5,59.8,328.5,60,328.5,60.2z M295.7,59.8c2.2-3.9,11.5,3.3,11.5,3.3
			S293.6,63.6,295.7,59.8z M310.7,73.1c-2,0-3.6-1.6-3.6-3.6c0-2,1.6-3.6,3.6-3.6c2,0,3.6,1.6,3.6,3.6
			C314.2,71.5,312.6,73.1,310.7,73.1z M314.1,63.1c0,0,9.4-7.3,11.5-3.3C327.7,63.6,314.1,63.1,314.1,63.1z"/>
	</g>
	<g id="pudding_1_">
		<path id="pudding_3_" class="st7" d="M181.8,35.6c-16.9,0-30.6,16.3-30.6,33.2v12.5c0,0,0.4,10.2,30.8,10.2
			c30.4,0,30.4-10.2,30.4-10.2V68.8C212.4,51.9,198.7,35.6,181.8,35.6z"/>
		<path id="icing_1_" class="st4" d="M181.8,40.9c-11.6,0-22.4,10.2-24.8,22.6l0.1,0.4c0.4,3.2,1.9,5.8,3.3,5.8c1.4,0,2.8-2.4,3-5.3
			c0.3-2.9,1.1-5.3,1.9-5.4c0.7-0.1,1.5,2.5,1.8,5.7l0.7,9.2c0.2,3.2,1.8,5.8,3.6,5.8c1.7,0,3.4-2.6,3.7-5.8l1.2-12.5
			c0.3-3.2,1.7-6,3.1-6.3c1.4-0.2,3,2.2,3.4,5.4l1.4,10.2c0.4,3.2,2.2,5.8,3.9,5.7c1.7-0.1,3.6-2.7,4.1-5.9l0.3-1.9
			c0.5-3.2,2.4-5.8,4.2-5.8c1.8,0,3.7,2.4,4.3,5.4c0.6,3,2.1,5.4,3.4,5.4c1.2,0,2.5-2.6,2.8-5.8l0.1-1C206,53,194.4,40.9,181.8,40.9
			z"/>
		<g id="leaves_3_">
			<g>
				<path class="st1" d="M178.8,37.2c-1.9-4,0.1-10,0.1-10.1c0.1-0.3,0.1-0.7-0.1-0.9c-0.2-0.3-0.5-0.5-0.8-0.5
					c-0.9-0.1-3.4-0.6-4.5-1.7c-1.1-1.1-1.5-3.5-1.6-4.3c0-0.3-0.2-0.6-0.5-0.8c-0.3-0.2-0.6-0.2-0.9-0.1c-0.1,0-8.1,2.6-11.7-1
					c-0.4-0.4-1.1-0.4-1.5,0c-0.4,0.4-0.4,1.1,0,1.5c3.6,3.6,1,11.6,1,11.7c-0.1,0.3-0.1,0.7,0.1,0.9c0.2,0.3,0.5,0.5,0.8,0.5
					c0.9,0.1,3.3,0.5,4.4,1.6c1.1,1.1,1.6,3.6,1.7,4.5c0,0.3,0.2,0.6,0.5,0.8c0.3,0.2,0.6,0.2,0.9,0.1c0.1,0,5.6-1.8,9.5-0.3
					L178.8,37.2z"/>
				<path class="st1" d="M191.1,34.4c-0.2-0.7-0.5-2.7,0.1-3.8c0.5-1.1,2.2-2.1,2.8-2.3c0.2-0.1,0.4-0.3,0.5-0.6
					c0.1-0.3,0-0.5-0.2-0.7c0-0.1-4.1-5.3-2.4-9c0.2-0.4,0-0.9-0.4-1.2c-0.4-0.2-0.9,0-1.2,0.4c-1.7,3.7-8.4,3.9-8.5,3.9
					c-0.3,0-0.5,0.1-0.7,0.3c-0.2,0.2-0.2,0.5-0.1,0.7c0.2,0.7,0.5,2.6,0,3.7c-0.5,1.1-2.3,2.2-2.9,2.5c-0.2,0.1-0.4,0.3-0.5,0.6
					c-0.1,0.3,0,0.5,0.2,0.7c0,0,2.8,3.7,2.8,7c0.2-0.6,2.5,0.7,2.2,1.3c0,0.1-0.1,0.1-0.1,0.2c2.5-2.5,7.5-2.7,7.6-2.7
					c0.3,0,0.5-0.1,0.7-0.3C191.1,34.9,191.2,34.6,191.1,34.4z"/>
			</g>
		</g>
		<g id="berries_3_">
			<g>
				<circle class="st4" cx="184.6" cy="34.6" r="2.6"/>
				<path class="st3" d="M184.6,32c1.4,0,2.6,1.2,2.6,2.6c0,1.4-1.2,2.6-2.6,2.6c-1.4,0-2.6-1.2-2.6-2.6
					C181.9,33.2,183.1,32,184.6,32 M184.6,26.8c-4.3,0-7.9,3.5-7.9,7.9c0,4.3,3.5,7.9,7.9,7.9c4.3,0,7.9-3.5,7.9-7.9
					C192.4,30.3,188.9,26.8,184.6,26.8L184.6,26.8z"/>
			</g>
			<g>
				<circle class="st4" cx="176.3" cy="38.1" r="2.6"/>
				<path class="st3" d="M176.3,35.5c1.4,0,2.6,1.2,2.6,2.6c0,1.4-1.2,2.6-2.6,2.6c-1.4,0-2.6-1.2-2.6-2.6
					C173.7,36.6,174.9,35.5,176.3,35.5 M176.3,30.2c-4.3,0-7.9,3.5-7.9,7.9c0,4.3,3.5,7.9,7.9,7.9s7.9-3.5,7.9-7.9
					C184.2,33.8,180.6,30.2,176.3,30.2L176.3,30.2z"/>
			</g>
		</g>
	</g>
	<g id="nutcracker_2_">
		<g id="face_3_">
			<g id="head_3_">
				<path class="st4" d="M72.2,62.6H36.9c-1.4,2.8-2.3,5.9-2.3,9.2c0,11,8.9,19.9,19.9,19.9c11,0,19.9-8.9,19.9-19.9
					C74.5,68.4,73.7,65.3,72.2,62.6z"/>
				<path class="st8" d="M72.2,62.6h-3.1c1.7,2.7,2.7,5.8,2.7,9.2c0,9.5-7.8,17.3-17.3,17.3c-9.5,0-17.3-7.7-17.3-17.3
					c0-3.4,1-6.5,2.7-9.2h-3.1c-1.4,2.8-2.3,5.9-2.3,9.2c0,11,8.9,19.9,19.9,19.9c11,0,19.9-8.9,19.9-19.9
					C74.5,68.4,73.7,65.3,72.2,62.6z"/>
			</g>
			<polygon id="nose_3_" class="st8" points="56.6,75.7 52.6,75.7 53.9,62.1 55.2,62.1 			"/>
			<g id="eyes_3_">
				<g>
					<g>
						<circle class="st9" cx="44.7" cy="67.3" r="2.5"/>
						<circle class="st9" cx="64.8" cy="67.3" r="2.5"/>
					</g>
				</g>
			</g>
			<path id="tash_1_" class="st10" d="M60.1,71.8c-3.8,0-5.5,3.3-5.5,3.3s-1.7-3.3-5.5-3.3c-3.8,0-12.6,11.3-22.4,1.5
				c0,0,1.6,11,20.7,11c0,0,5.3-0.5,7.2-2.3c1.9,1.9,7.2,2.3,7.2,2.3c19.1,0,20.7-11,20.7-11C72.7,83.1,63.9,71.8,60.1,71.8z"/>
		</g>
		<g id="hat_4_">
			<path class="st3" d="M54.6,52.4l-14.3,1.6V38.8L54.6,49l14.3-10.2v15.1L54.6,52.4z M54.6,55l-18.2,2v5.5h36.3V57L54.6,55z
				 M54.6,42.1l14.3-10.2v-4.4c0,0-3.7-2.2-14.2-2.2c-10.5,0-14.4,2.2-14.4,2.2v4.4L54.6,42.1z"/>
			<circle class="st2" cx="54.6" cy="20" r="3.3"/>
		</g>
	</g>
	<g id="holy_1_">
		<path id="leaves_2_" class="st1" d="M-40.9,60.9c-0.1,0.1-7.7,9.3-4.8,16c0.3,0.8,0,1.7-0.8,2c-0.8,0.3-1.7,0-2-0.8
			c-2.9-6.7-14.8-7.5-14.9-7.5c-0.5,0-0.9-0.3-1.2-0.7c-0.3-0.4-0.3-0.9-0.2-1.3c0.1-0.4,0.3-0.9,0.4-1.6c0.1-0.1,0.2-0.1,0.3-0.2
			c1.7-0.9,3-2.4,3.4-4.3c0.4-1.9,0-3.8-1.2-5.3c-1-1.3-3.1-4.5-4.5-7.9c0.2-0.4,0.4-0.8,0.5-1.2c1,0.3,2,0.5,3.1,0.5
			c3.6,0,6.7-1.8,8.5-4.5c3.5,1.1,6.7,1.4,6.8,1.4c0.5,0,0.9,0.3,1.2,0.6c0.3,0.4,0.4,0.9,0.2,1.3c-0.3,1.2-1,4.8-0.1,6.8
			c0.9,2,3.9,3.9,4.9,4.5c0.4,0.2,0.7,0.6,0.8,1.1C-40.5,60.1-40.6,60.5-40.9,60.9z M-65.3,59.8c0-0.1-2-2.6-3.8-6.1v0
			c-1.5-2.8-2.8-6.4-3.1-9.8c-0.3,0.3-0.6,0.5-0.9,0.7c-0.4,0.7-0.7,1.5-1.2,2.2c-0.9,1.5-1.9,3-2.7,4.5c-1.7,3-3.4,6.1-5.2,9
			c-1.8,3-3.6,6-5.5,8.9c-0.2,0.3-0.4,0.4-0.5,0.2c-0.1-0.1-0.1-0.3,0-0.5c1-3.3,2.2-6.7,3.3-10c1.1-3.3,2.3-6.6,3.6-9.8
			c0.3-0.9,0.6-1.8,0.9-2.7c-2.1-0.3-4.1-1.2-5.6-2.6c-5,1.5-9.7,1.7-9.8,1.7c-0.6,0-1.2,0.3-1.6,0.8c-0.4,0.5-0.5,1.2-0.4,1.8
			c0.4,1.6,1.1,6.6-0.2,9.4c-1.3,2.8-5.4,5.1-6.8,5.8c-0.6,0.3-1,0.8-1.2,1.4c-0.2,0.6,0,1.3,0.4,1.8c0.1,0.1,10.2,13.1,5.9,22.1
			c-0.5,1.1,0,2.3,1,2.8c1.1,0.5,2.3,0,2.8-1c4.2-9,20.6-9.7,20.8-9.7c0.6,0,1.2-0.3,1.6-0.8c0.4-0.5,0.5-1.2,0.4-1.8
			c-0.4-1.6-1.2-6.4,0.1-9.1c1.3-2.7,5.5-5.3,7-6.1c0.6-0.3,1-0.8,1.1-1.4C-64.8,60.9-65,60.3-65.3,59.8z"/>
		<g id="berries_2_">
			<g>
				<path class="st3" d="M-68.7,38.2c0,2.5,1.6,4.6,3.8,5.4l0,0c0,0,0,0,0,0c0.3,0.1,0.6,0.2,0.9,0.2c0.3,0.1,0.7,0.1,1,0.1
					c0.4,0,0.7,0,1.1-0.1c0,0,0.1,0,0.1,0c0.3-0.1,0.6-0.2,0.9-0.3c0.1,0,0.2-0.1,0.3-0.1c0.2-0.1,0.4-0.2,0.6-0.3
					c0.5-0.3,0.9-0.6,1.3-1.1c0,0,0,0,0,0v0c0.9-1,1.5-2.3,1.5-3.8c0-3.2-2.6-5.7-5.7-5.7C-66.1,32.5-68.7,35-68.7,38.2z"/>
				<path class="st3" d="M-80.1,41.8c0.3,0.1,0.6,0.1,0.9,0.1c0.1,0,0.2,0,0.3,0l0,0c3-0.2,5.4-2.6,5.4-5.7c0-3.2-2.6-5.7-5.7-5.7
					c-3.2,0-5.7,2.6-5.7,5.7C-84.9,39-82.8,41.4-80.1,41.8z"/>
				<circle class="st3" cx="-68.9" cy="22.4" r="5.7"/>
			</g>
		</g>
	</g>
	<path id="gingerbread_man_1_" class="st10" d="M-184.3,43.3c0-0.7,0.1-1.4,0.2-2c5.1-1.9,8,1.3,8,1.3c3.5,3.5,2.4,6.9-0.3,9.7
		C-180.9,51.7-184.3,47.9-184.3,43.3z M-188.9,88.7c3.2,3.1,7.2,4.8,11.5,0.5c2.7-2.7,2.4-6,0.9-9.2c-0.7-0.1-1.4-0.2-2.1-0.2
		C-183.8,79.7-188.2,83.6-188.9,88.7z M-215.9,31.2c0-8,6.5-14.5,14.5-14.5s14.5,6.5,14.5,14.5c0,5.8-3.4,10.8-8.4,13.1
		c-0.3-0.3-0.7-0.3-1.1-0.2l-1.4,0.5c-0.8,0.3-2.1,0.5-3,0.5h-1.3c-0.8,0-2.2-0.2-3-0.5l-1.4-0.5c-0.4-0.2-0.8-0.1-1.1,0.2
		C-212.4,42.1-215.9,37.1-215.9,31.2z M-198.2,27.8c0,0.2,0,0.4,0.1,0.6c0,0.2,0.2,0.3,0.4,0.3c0,0,0,0,0,0c0.2,0,0.4-0.1,0.4-0.3
		c0.2-1.3,1.3-2.2,2.6-2.2s2.4,0.9,2.6,2.2c0,0.2,0.2,0.3,0.4,0.3c0,0,0,0,0,0c0.2,0,0.4-0.1,0.4-0.3c0-0.2,0.1-0.4,0.1-0.6
		c0-1.9-1.6-3.5-3.5-3.5C-196.7,24.4-198.2,25.9-198.2,27.8z M-201.3,33.1c-4.6,0-8.4-0.5-8.4,1.6c0,2.1,3.8,6,8.4,6s8.4-3.9,8.4-6
		C-192.9,32.6-196.7,33.1-201.3,33.1z M-211.5,27.8c0,0.2,0,0.4,0.1,0.6c0,0.2,0.2,0.3,0.4,0.3c0,0,0,0,0,0c0.2,0,0.4-0.1,0.4-0.3
		c0.2-1.3,1.3-2.2,2.6-2.2c1.3,0,2.4,0.9,2.6,2.2c0,0.2,0.2,0.3,0.4,0.3c0,0,0,0,0,0c0.2,0,0.4-0.1,0.4-0.3c0-0.2,0.1-0.4,0.1-0.6
		c0-1.9-1.6-3.5-3.5-3.5C-209.9,24.4-211.5,25.9-211.5,27.8z M-216.4,43.3c0,5-3.4,9.3-8.1,10.5c4.3,3.4,10.2,5.7,10.2,5.7l0.1,7.5
		c0,0-0.8,0.6-2.1,1.6c2,1.6,4.7,3.1,6.9,2.2c2.5-1,5.3-5.5,5-20.9c-0.2,0-0.4,0.1-0.5,0.2l-1.4,0.5c-0.8,0.3-1.4-0.2-1.4-1v-2.8
		c-3-1.4-6.2-3-8.2-4.2c-0.1-0.1-0.3-0.2-0.4-0.3C-216.5,42.6-216.4,42.9-216.4,43.3z M-178.6,77.5c0.3,0,0.5,0,0.8,0
		c-1.8-2.7-4.3-5.2-6.4-7.1c-1.7,1.3-4,2.6-6.3,2.6c-0.7,0-1.4-0.1-2.1-0.4c-4.5-1.8-6.5-9.3-6.2-22.8c-0.7-0.1-1.4-0.2-1.9-0.2
		h-0.5c-0.1,0-0.1,0-0.1,0s0,0-0.1,0h-0.5c-0.2,0-0.4,0-0.6,0c0.3,13.6-1.7,21.2-6.2,23c-0.7,0.3-1.4,0.4-2.1,0.4
		c-2.6,0-5.3-1.7-7-3.1c-2.2,1.9-5,4.7-7,7.7c0,0,0.1,0,0.1,0c6,0,11,4.2,12.3,9.8c2.3-2.5,4.2-5.5,5.4-6.7c3.1-3.1,5.7-2.7,5.7-2.7
		s2.6-0.4,5.7,2.7c1.1,1.1,2.8,3.7,4.9,6.1C-189.2,81.4-184.4,77.5-178.6,77.5z M-224.8,79.7c-0.5,0-1,0-1.4,0.1
		c-1.6,3.3-1.9,6.6,0.8,9.3c4.1,4.1,7.8,2.8,10.9,0.1C-214.9,83.9-219.3,79.7-224.8,79.7z M-194.8,49.6c0,0.8-0.6,1.3-1.4,1
		l-0.6-0.2c-0.3,15,2.6,19.4,5,20.4c1.9,0.8,4.3-0.3,6.2-1.7c-1.6-1.3-2.7-2.2-2.7-2.2l0.1-7.5c0,0,5.9-2.2,10.2-5.7
		c-4.7-1.2-8.1-5.5-8.1-10.5c0-0.3,0-0.7,0.1-1c-0.1,0.1-0.3,0.2-0.4,0.3c-2,1.3-5.3,2.9-8.2,4.2V49.6z M-226.6,42.5
		c-3.5,3.5-2.4,6.9,0.3,9.7c4.5-0.5,7.9-4.3,7.9-8.9c0-0.7-0.1-1.4-0.2-2C-223.6,39.4-226.6,42.5-226.6,42.5z"/>
	<g id="gift_2_">
		<path id="gift_3_" class="st3" d="M306.3-114.3h-22.9v-10.9h22.9V-114.3z M315-68.4h18c0.9,0,1.6-0.7,1.6-1.6v-39.8H315V-68.4z
			 M315-125.2v10.9h22.9v-10.9H315z M306.3-109.9h-19.6v39.8c0,0.9,0.7,1.6,1.6,1.6h18V-109.9z"/>
		<polygon id="ribbon_1_" class="st2" points="324.3,-129.5 330.5,-135.7 322.7,-135.7 322.7,-143.4 310.7,-131.3 298.6,-143.4 
			298.6,-135.7 290.9,-135.7 297,-129.5 		"/>
	</g>
	<g id="fairylight_1_">
		<g>
			<path class="st7" d="M188.9-78v4.2c0,0.6-0.5,1-1,1h-10.5c-0.6,0-1-0.5-1-1V-78c0-0.6,0.5-1,1-1h10.5
				C188.5-79,188.9-78.5,188.9-78z"/>
			<path class="st7" d="M186.7-71.6h-8.1c-0.4,0-0.6,0.3-0.6,0.6v1.9c0,0.4,0.3,0.6,0.6,0.6h8.1c0.4,0,0.6-0.3,0.6-0.6v-1.9
				C187.4-71.3,187.1-71.6,186.7-71.6z"/>
		</g>
		<g id="bulb_1_">
			<path class="st4" d="M183.9-120.1c0.4,0.5,9.1,11.5,9.1,22.6c0,6.7-2.4,9.2-4.4,11.1c-1.3,1.4-2.2,2.3-2.2,4.5v1.6H179v-1.6
				c0-2.2-0.9-3.1-2.2-4.5c-2-2-4.4-4.5-4.4-11.1c0-11.1,8.7-22.1,9.1-22.6l1.2-1.5L183.9-120.1z"/>
			<path class="st2" d="M183.9-120.1l-1.2-1.5l-1.2,1.5c-0.4,0.5-9.1,11.5-9.1,22.6c0,6.7,2.4,9.2,4.4,11.1c1.3,1.4,2.2,2.3,2.2,4.5
				v1.6h7.3v-1.6c0-2.2,0.9-3.1,2.2-4.5c2-2,4.4-4.5,4.4-11.1C192.9-108.7,184.3-119.7,183.9-120.1z M186.3-88.6
				c-1.2,1.3-2.6,2.6-3,5.1H182c-0.4-2.4-1.8-3.8-3-5.1c-1.7-1.7-3.5-3.6-3.5-8.9c0-7.6,4.8-15.6,7.2-19c2.3,3.4,7.1,11.3,7.1,19
				C189.8-92.1,188-90.3,186.3-88.6z"/>
		</g>
		<g id="shine_1_">
			<g>
				<path class="st2" d="M182.6-125.2c1.2,0,2.2-11.9,2.2-14.1c0-2.2,0-4.1-2.1-4.1c-2.2,0-2.2,1.8-2.2,4.1
					C180.5-137.1,181.4-125.2,182.6-125.2z"/>
				<path class="st2" d="M201.9-132.9c-1.2-1.1-2.1-0.1-3.2,1.1c-1.1,1.2-6.6,8.2-6,8.8c0.7,0.6,7.2-5.4,8.3-6.6
					C202.2-130.8,203.1-131.8,201.9-132.9z"/>
				<path class="st2" d="M172.8-123.1c0.6-0.6-5-7.5-6.2-8.7c-1.2-1.2-2.1-2.2-3.3-1.1c-1.2,1.1-0.2,2.1,0.9,3.3
					C165.5-128.4,172.1-122.5,172.8-123.1z"/>
			</g>
		</g>
	</g>
	<g id="elf_1_">
		<g id="face_2_">
			<g id="ears_1_">
				<g>
					<path class="st4" d="M79.1-99.5c1,2.8,1.6,5.8,1.6,8.9c0.3-0.3,0.5-0.7,0.8-1.2c2.1-3.9,3-9.1,3-9.1S81.9-100.5,79.1-99.5z"/>
					<path class="st4" d="M29.7-90.6c0-2.9,0.5-5.7,1.4-8.3c-3.1-1.3-7-2-7-2s0.9,5.2,3,9.1c0.9,1.6,1.7,2.2,2.6,2.2
						C29.8-90,29.7-90.3,29.7-90.6z"/>
				</g>
				<g>
					<path class="st1" d="M84.3-102.5c-1.1,0.2-3.4,0.7-5.8,1.5c0.4,0.9,0.8,1.9,1.1,2.8c0.9-0.3,1.9-0.6,3-0.9
						c-0.4,1.6-1.1,3.7-2,5.7c0.1,0.9,0.2,1.8,0.2,2.7c0,0.7-0.1,1.3-0.1,2c1.2-0.7,2-2,2.3-2.6c2.2-4.1,3.1-9.3,3.2-9.6l0.4-2.1
						L84.3-102.5z"/>
					<path class="st1" d="M29.7-90.6c0-0.2,0-0.4,0-0.6c0,0-0.1,0-0.1,0c-0.1,0-0.6-0.3-1.2-1.4c-1.1-2.1-1.9-4.7-2.4-6.4
						c1.6,0.4,3.2,0.9,4.5,1.5c0.3-1,0.6-1.9,1-2.9c-2.7-1.2-5.8-1.8-7.2-2.1l-2.1-0.4l0.4,2.1c0,0.2,1,5.5,3.2,9.6
						c0.4,0.7,1.6,3,3.8,3c0.1,0,0.1,0,0.2,0C29.8-89,29.7-89.8,29.7-90.6z"/>
				</g>
			</g>
			<g id="head_2_">
				<path class="st4" d="M75.2-101.1H35.3c-1.6,3.1-2.6,6.7-2.6,10.4c0,12.4,10.1,22.5,22.5,22.5c12.4,0,22.5-10.1,22.5-22.5
					C77.8-94.4,76.8-97.9,75.2-101.1z"/>
				<path class="st1" d="M75.2-101.1h-3.5c1.9,3,3,6.6,3,10.4c0,10.8-8.8,19.5-19.5,19.5c-10.8,0-19.5-8.8-19.5-19.5
					c0-3.8,1.1-7.4,3-10.4h-3.5c-1.6,3.1-2.6,6.7-2.6,10.4c0,12.4,10.1,22.5,22.5,22.5c12.4,0,22.5-10.1,22.5-22.5
					C77.8-94.4,76.8-97.9,75.2-101.1z"/>
			</g>
			<path id="smile_1_" class="st1" d="M55.3-81.8c-4.7,0-8.4-0.5-8.4,1.6c0,2.1,3.8,6,8.4,6c4.7,0,8.4-3.9,8.4-6
				C63.7-82.3,59.9-81.8,55.3-81.8z"/>
			<polygon id="nose_2_" class="st1" points="57.5,-86.2 53,-86.2 54.5,-101.5 56,-101.5 			"/>
			<g id="eyes_2_">
				<circle class="st1" cx="44.1" cy="-95.7" r="2.8"/>
				<circle class="st1" cx="66.8" cy="-95.7" r="2.8"/>
			</g>
		</g>
		<path id="hat_3_" class="st7" d="M55.3-112.6l-15.3,1.7c1.7-10.5,6.4-32.2,15.5-32.2c9,0,13.6,21.7,15.3,32.2L55.3-112.6z
			 M55.3-109.6l-20.5,2.3v6.3h41.1v-6.3L55.3-109.6z"/>
	</g>
	<g id="drums_2_">
		<g>
			<polygon class="st9" points="-86.5,-98.7 -76.3,-118.5 -96.7,-118.5 			"/>
			<polygon class="st2" points="-73.5,-113.1 -83.7,-93.3 -63.2,-93.3 			"/>
			<polygon class="st2" points="-99.5,-113.1 -99.5,-93.3 -89.3,-93.3 			"/>
			<polygon class="st2" points="-57.7,-93.3 -47.4,-93.3 -47.4,-113.1 			"/>
			<polygon class="st9" points="-70.7,-118.5 -60.5,-98.7 -50.2,-118.5 			"/>
		</g>
		<g>
			<path class="st3" d="M-42.5-80.9c0,1.4-1.1,2.5-2.5,2.5h-57c-1.4,0-2.5-1.1-2.5-2.5v-5c0-1.4,1.1-2.5,2.5-2.5h57
				c1.4,0,2.5,1.1,2.5,2.5V-80.9z"/>
			<path class="st3" d="M-42.5-126c0,1.4-1.1,2.5-2.5,2.5h-57c-1.4,0-2.5-1.1-2.5-2.5v-5c0-1.4,1.1-2.5,2.5-2.5h57
				c1.4,0,2.5,1.1,2.5,2.5V-126z"/>
		</g>
	</g>
	<g id="cracker_1_">
		<g>
			<path class="st1" d="M-219.2-79.5l-8.3-0.2l-0.2-8.3l-6.4-0.2l-4.3,4.3c-0.4,0.4-0.4,1.1,0,1.5l13.7,13.7c0.4,0.4,1.1,0.4,1.5,0
				l4.3-4.3L-219.2-79.5z"/>
			<path class="st1" d="M-179.3-143.1l-4.3,4.3l0.2,6.4l8.3,0.2l0.2,8.3l6.4,0.2l4.3-4.3c0.4-0.4,0.4-1.1,0-1.5l-13.7-13.7
				C-178.2-143.5-178.9-143.5-179.3-143.1z"/>
			<path class="st3" d="M-177.7-121l-0.2-8.3l-8.3-0.2l-0.2-6.4l-4.6,4.6c-0.4,0.4-0.6,1.2-0.4,1.8l1.2,3.7c0.2,0.6-0.1,0.9-0.7,0.7
				l-3.7-1.2c-0.6-0.2-1.4,0-1.8,0.4l-25,25c-0.4,0.4-0.6,1.2-0.4,1.8l1.2,3.7c0.2,0.6-0.1,0.9-0.7,0.7l-3.7-1.2
				c-0.6-0.2-1.4,0-1.8,0.4l-4.6,4.6l6.4,0.2l0.2,8.3l8.3,0.2l0.2,6.4l4.6-4.6c0.4-0.4,0.6-1.2,0.4-1.8l-1.2-3.7
				c-0.2-0.6,0.1-0.9,0.7-0.7l3.7,1.2c0.6,0.2,1.4,0,1.8-0.4l25-25c0.4-0.4,0.6-1.2,0.4-1.8l-1.2-3.7c-0.2-0.6,0.1-0.9,0.7-0.7
				l3.7,1.2c0.6,0.2,1.4,0,1.8-0.4l4.6-4.6L-177.7-121z"/>
		</g>
		<g id="dots_1_">
			<g>
				<g>
					
						<ellipse transform="matrix(0.7071 -0.7071 0.7071 0.7071 6.6966 -177.206)" class="st4" cx="-210.6" cy="-96.7" rx="2.9" ry="2.9"/>
				</g>
			</g>
			<g>
				<g>
					
						<ellipse transform="matrix(0.7071 -0.7071 0.7071 0.7071 15.9291 -173.3838)" class="st4" cx="-201.3" cy="-105.9" rx="2.9" ry="2.9"/>
				</g>
			</g>
			<g>
				<g>
					
						<ellipse transform="matrix(0.7071 -0.7071 0.7071 0.7071 25.1627 -169.5596)" class="st4" cx="-192.1" cy="-115.2" rx="2.9" ry="2.9"/>
				</g>
			</g>
			
				<ellipse transform="matrix(0.707 -0.7072 0.7072 0.707 27.7739 -167.3142)" class="st11" cx="-188" cy="-117.2" rx="1.4" ry="1.4"/>
			
				<ellipse transform="matrix(0.7072 -0.707 0.707 0.7072 3.2522 -177.425)" class="st11" cx="-212.6" cy="-92.6" rx="1.4" ry="1.4"/>
		</g>
	</g>
	<path id="candy_1_" class="st3" d="M339.9-272.3c-0.7,1.8-2.3,3.1-4,3.6c-0.1,0-0.2,0.1-0.3,0.1c-0.2,0.1-0.4,0.1-0.6,0.1
		c-0.2,0-0.4,0-0.5,0.1c-0.2,0-0.4,0-0.5,0c-0.2,0-0.5,0-0.7-0.1c-0.1,0-0.3,0-0.4-0.1c-0.4-0.1-0.8-0.2-1.1-0.3
		c-3.2-1.3-4.8-5-3.5-8.2c0.1-0.2,0.1-0.3,0.2-0.6c0,0,0-0.1,0-0.1c0.1-0.2,0.1-0.4,0.2-0.7l0,0c0.4-1.5,0.9-3.6,1-5.8l0,0
		c0.1-1.6-0.1-3.3-0.5-4.8c-0.1-0.4-0.3-0.8-0.4-1.2c-0.6-1.4-1.6-2.6-3-3.6l0,0c-0.5-0.4-1-0.7-1.6-1c-0.6-0.3-1.2-0.6-2-0.9
		c0,0,0,0,0,0c-2.7-1-4.9-1-6.8-0.1c-0.3,0.2-0.6,0.3-0.9,0.5c-0.1,0-0.1,0.1-0.2,0.1c-0.3,0.2-0.5,0.4-0.8,0.6c0,0,0,0,0,0
		c-0.2,0.2-0.5,0.5-0.7,0.7c0,0.1-0.1,0.1-0.1,0.2c-0.2,0.2-0.4,0.5-0.6,0.8l0,0c-1.1,1.4-1.7,2.9-2,3.5l0,0
		c-0.1,0.2-0.1,0.3-0.1,0.3l-0.1,0.3l-3.7,10.2l-1.9,5.2l-3.9,10.7l-1.9,5.2l-3.9,10.7l-1.9,5.2l-1.3,3.5c-0.2,0.4-0.4,0.8-0.6,1.2
		c0,0.1-0.1,0.1-0.1,0.2c-0.2,0.3-0.4,0.6-0.7,0.9c0,0-0.1,0.1-0.1,0.1c-0.3,0.3-0.6,0.5-1,0.8c0,0,0,0,0,0
		c-0.4,0.2-0.8,0.4-1.2,0.6c0,0,0,0,0,0l0,0c-1.4,0.5-2.9,0.6-4.4,0.1c-3.3-1.2-5-4.8-3.8-8.1l2.9-7.9l8.8,7.5l1.9-5.2l-8.8-7.5
		l3.9-10.7l8.8,7.5l1.9-5.2l-8.8-7.5l3.9-10.7l8.8,7.5l1.9-5.2l-8.8-7.5l2.1-5.6c0.2-0.7,0.9-2.5,2.2-4.8l8.4,7.2l1-2.8l0.1-0.3
		c0,0,0.3-0.9,1-1.9l-7.5-6.4c1.7-1.9,3.8-3.8,6.5-5.1c1.5-0.7,3.4-1.4,5.8-1.7c-1.4,1.3-0.7,5.3-0.2,9.3c2-0.9,4.4-0.9,7.2,0.1
		c0.1-2.8-0.2-6.4-0.5-9.2c1.4,0.2,2.8,0.6,4.4,1.1c0,0,0,0,0.1,0c3.7,1.3,6.8,3.3,9.2,5.7c-2,0.5-4.7,3.3-7.4,5.8
		c0.8,0.8,1.4,1.7,1.8,2.7c0.6,1.2,0.9,2.5,1.1,3.8c2.5-1.2,6-4.3,8.6-6.6c0.1,0.3,0.3,0.5,0.4,0.8c1.8,4.1,2.2,8.4,2,12.1
		c-2-1.2-6.9-0.7-11-0.9c-0.2,1.6-0.6,3-1,3.9c-0.3,0.8-0.5,1.7-0.5,2.5c2.4,1.1,7.5,1.3,11.4,1.5
		C340.6-274.1,340-272.7,339.9-272.3z"/>
	<g id="candle_1_">
		<path class="st10" d="M203.1-242.1c0-1.7-1.3-3-3-3h-38.2c-1.7,0-3,1.3-3,3c0,1.5,1,2.7,2.4,2.9c0.1,1.7,1.2,5.3,2.6,5.3h34.2
			c1.3,0,2.4-3.6,2.6-5.3C202.1-239.4,203.1-240.6,203.1-242.1z"/>
		<path class="st6" d="M175.2-269.9v21h16.5v-36.6c0,0,0.1-2.5-1.9-2.1c-3.8,0.8-7.7-2.4-10.5,0.4c-1.1,1.1-0.3,2.2-0.3,2.2
			s-4.5-1.5-4.5,2.2c0,6.3-4.1,5.9-4.1,10.1C170.4-267.9,175.2-266.8,175.2-269.9z"/>
		<path class="st2" d="M177.2-297.2c0-4.4,7.7-6.9,9.7-10.2c0,0,0,0,0,0c0,0,0-0.1,0.1-0.1c0.2-0.4-0.1-0.6-0.1-0.6c0,0,0,0,0,0
			c-0.1-0.1-0.2-0.2-0.2-0.3c0-0.2,0.2-0.4,0.4-0.4c0.1,0,0.2,0,0.2,0.1c0,0,0,0,0,0c0,0,2.6,1.2,0.6,5.5c-1.5,3.1,3,3.7,1.7,8
			c-0.4,1.3-1.1,2.8-3.9,3.2c-0.4-0.9-1.2-0.7-2-2.9s-0.6-3.8-1-3.8c-2.1,2.1-2.1,3.7-1.4,6.6C179.7-292.7,177.2-293.9,177.2-297.2z
			"/>
	</g>
	<g id="brandy_2_">
		<g id="glass_1_">
			<path class="st4" d="M83.5-282.5c0-18.3-6.2-25.8-6.2-25.8c-0.2-0.3-0.7-0.5-1.1-0.5H55.1c-0.4,0-1,0-1.4,0H32.6
				c-0.4,0-0.9,0.2-1.1,0.5c0,0-6.2,7.5-6.2,25.8C25.3-257,51-257,51-257c0.4,0,0.7,0.3,0.7,0.7v8.3c0,0.4-0.2,0.9-0.5,1.1l-14,11.2
				c-0.3,0.2-0.3,0.4,0.1,0.4c0,0,2.8,1.5,17.2,1.5s17.2-1.5,17.2-1.5c0.4,0,0.4-0.2,0.1-0.4l-14-11.2c-0.3-0.2-0.5-0.7-0.5-1.1
				v-8.3c0-0.4,0.3-0.7,0.7-0.7C57.8-257,83.5-257,83.5-282.5z"/>
			<path class="st5" d="M73.9-303.4c1.4,2.8,4.1,9.4,4.1,20.9c0,8.3-3.1,13.9-9.5,17.2c-5.2,2.7-10.7,2.8-10.7,2.8
				c-1.3,0-2.5,0.4-3.4,1c-1-0.7-2.2-1-3.4-1c-0.1,0-5.3-0.1-10.4-2.6c-6.6-3.3-9.8-8.9-9.8-17.3c0-11.5,2.6-18.1,4.1-20.9h18.8h1.4
				H73.9 M54.4-242.5l3.9,3.1c-1.2,0-2.5,0-3.9,0c-1.4,0-2.8,0-3.9,0L54.4-242.5 M76.2-308.9H55.1c-0.4,0-1,0-1.4,0H32.6
				c-0.4,0-0.9,0.2-1.1,0.5c0,0-6.2,7.5-6.2,25.8C25.3-257,51-257,51-257c0.4,0,0.7,0.3,0.7,0.7v8.3c0,0.4-0.2,0.9-0.5,1.1l-14,11.2
				c-0.3,0.2-0.3,0.4,0.1,0.4c0,0,2.8,1.5,17.2,1.5s17.2-1.5,17.2-1.5c0.4,0,0.4-0.2,0.1-0.4l-14-11.2c-0.3-0.2-0.5-0.7-0.5-1.1
				v-8.3c0-0.4,0.3-0.7,0.7-0.7c0,0,25.7,0,25.7-25.5c0-18.3-6.2-25.8-6.2-25.8C77.1-308.6,76.6-308.9,76.2-308.9L76.2-308.9z"/>
		</g>
		<path id="drink_1_" class="st10" d="M54.4-286.6c-5.4,0-10.3,0.2-13.9,0.6c0.3,2.9,1,5.8,2.7,8c2.2,2.9,5.6,4.3,10.4,4.3
			c1.1,0,2.1,0.9,2.1,2.1c0,1.1-0.9,2.1-2.1,2.1c-6.2,0-10.8-2-13.7-6c-2.1-2.9-3.1-6.4-3.4-9.9c-1.7,0.3-2.6,0.7-2.6,1.1l0,0.6
			c0,18,18.7,18,18.7,18h3.9c0,0,18.7,0,18.7-18l0-0.6C75-285.6,65.8-286.6,54.4-286.6z"/>
	</g>
	<path id="bell_1_" class="st2" d="M-68.5-249.7c0,0.1,0,0.1-0.1,0.2c-1,2.8-4.2,4.3-7,3.3c-2.7-1-4.2-3.9-3.4-6.6
		C-75-251.5-71.5-250.4-68.5-249.7z M-76.4-256.2c-0.5-0.2-1-0.4-1.6-0.6c-23.2-8.4-18.9-14.1-14.3-16.2c4.5-2.1,7.6-9.2,12.2-21.8
		c2.6-7.1,8.2-8.6,12.6-8.5c0-0.6,0.1-1.1,0.3-1.7c1.1-3.1,4.6-4.7,7.7-3.6c3.1,1.1,4.7,4.6,3.6,7.7c-0.2,0.5-0.4,0.9-0.7,1.3
		c3.6,2.7,7.4,7.6,4.7,15.1c-4.6,12.6-6.8,20-4.7,24.5c1.8,3.8,1.8,9.5-12.2,6c0,0,0,0,0,0c-0.5-0.1-1.1-0.3-1.7-0.4c0,0,0,0-0.1,0
		C-72.3-254.8-74.3-255.4-76.4-256.2C-76.4-256.2-76.4-256.2-76.4-256.2z M-64.2-302.9c1.7,0.3,2.8,0.7,2.8,0.7s0.8,0.3,2,0.9
		c0.1-0.2,0.3-0.4,0.4-0.7c0.5-1.4-0.2-2.9-1.6-3.4c-1.4-0.5-2.9,0.2-3.4,1.6C-64.1-303.5-64.2-303.2-64.2-302.9z M-65.7-298.6
		c-0.2-0.2-0.4-0.4-0.6-0.6c-0.8-0.1-1.8-0.1-2.7,0c-3.8,0.3-6.1,2.2-7.4,5.8c-4.6,12.7-8.1,21.2-14.2,24c-0.6,0.3-0.9,0.5-1.1,0.7
		c0.3,0.4,0.9,1.1,2.4,2.2c0.7-0.9,1.8-1.7,2.9-2.2c4.5-2.1,7.6-9.2,12.2-21.8C-72.5-295.5-69.1-297.7-65.7-298.6z M-69.5-242.8
		c-0.6,0.2,0.9,6.2,1.3,7.3c0.4,1.1,0.7,2,1.7,1.6c1.1-0.4,0.8-1.2,0.4-2.3C-66.5-237.4-68.9-243-69.5-242.8z M-75.5-241.9
		c-0.4-0.2-2.6,3.9-2.9,4.7c-0.3,0.8-0.6,1.4,0.2,1.8c0.8,0.3,1-0.3,1.4-1.1C-76.6-237.4-75.1-241.7-75.5-241.9z M-60.4-243.4
		c-0.8-0.4-5.1-2.1-5.3-1.7c-0.2,0.4,3.7,2.8,4.5,3.2c0.8,0.4,1.4,0.7,1.8-0.1C-59.1-242.7-59.7-243-60.4-243.4z"/>
	<g id="ball_ball_1_">
		<g>
			<g>
				<g>
					<path class="st2" d="M-172.3-262.9c0,0.9-0.1,1.7-0.1,2.6c-0.3-1-0.6-2.1-0.7-3c-0.8-3.7-1.6-7.2-4.4-7.2
						c-2.8,0-3.6,3.5-4.4,7.2c-0.2,1-0.5,2.4-0.9,3.4c-0.3-1-0.6-2.4-0.9-3.4c-0.8-3.7-1.6-7.2-4.4-7.2c-2.8,0-3.6,3.5-4.4,7.2
						c-0.2,1-0.5,2.4-0.9,3.4c-0.3-1-0.6-2.4-0.9-3.4c-0.8-3.7-1.6-7.2-4.4-7.2c-2.8,0-3.6,3.5-4.4,7.2c-0.2,1-0.5,2.4-0.9,3.4
						c-0.3-1-0.6-2.4-0.9-3.4c-0.8-3.7-1.6-7.2-4.4-7.2c-2.8,0-3.6,3.5-4.4,7.2c-0.2,1-0.5,2.4-0.9,3.4c-0.3-1-0.6-2.4-0.9-3.4
						c-0.8-3.7-1.6-7.2-4.4-7.2c-2.8,0-3.6,3.5-4.4,7.2c-0.2,1-0.5,2.4-0.9,3.4c-0.3-1-0.6-2.4-0.9-3.4c-0.7-3.2-1.4-6.3-3.4-7
						c0.5-1.8,1.1-3.6,2-5.3h52.1C-173.4-271.7-172.3-267.4-172.3-262.9z"/>
				</g>
				<g>
					<path class="st2" d="M-173.3-255.4c-0.5,1.8-1.1,3.6-2,5.3h-52.1c-1.9-3.8-3-8.1-3-12.7c0-0.9,0.1-1.7,0.1-2.6
						c0.3,1,0.5,2.1,0.7,3c0.8,3.7,1.6,7.2,4.4,7.2c2.8,0,3.6-3.5,4.4-7.2c0.2-1,0.5-2.4,0.9-3.4c0.3,1,0.6,2.4,0.9,3.4
						c0.8,3.7,1.6,7.2,4.4,7.2c2.8,0,3.6-3.5,4.4-7.2c0.2-1,0.5-2.4,0.9-3.4c0.3,1,0.6,2.4,0.9,3.4c0.8,3.7,1.6,7.2,4.4,7.2
						c2.8,0,3.6-3.5,4.4-7.2c0.2-1,0.5-2.4,0.9-3.4c0.3,1,0.6,2.4,0.9,3.4c0.8,3.7,1.6,7.2,4.4,7.2c2.8,0,3.6-3.5,4.4-7.2
						c0.2-1,0.5-2.4,0.9-3.4c0.3,1,0.6,2.4,0.9,3.4c0.8,3.7,1.6,7.2,4.4,7.2c2.8,0,3.6-3.5,4.4-7.2c0.2-1,0.5-2.4,0.9-3.4
						c0.3,1,0.7,2.4,0.9,3.4C-176-259.2-175.3-256.2-173.3-255.4z"/>
				</g>
			</g>
		</g>
		<g>
			<g>
				<g>
					<path class="st1" d="M-225.3-246.5h48c-5.2,7.7-14,12.7-24,12.7C-211.3-233.9-220.1-238.9-225.3-246.5z"/>
				</g>
				<g>
					<g>
						<path class="st1" d="M-192.3-290.4v-9.4c0-5-4.1-9.1-9.1-9.1s-9.1,4.1-9.1,9.1v9.4c-6.1,2-11.4,6-14.9,11.2h48
							C-180.9-284.4-186.2-288.4-192.3-290.4z M-206.2-299.8c0-2.7,2.2-4.9,4.9-4.9c2.7,0,4.9,2.2,4.9,4.9H-206.2z"/>
					</g>
				</g>
			</g>
		</g>
	</g>
</g>
<g id="info">
	<path id="om_1_" class="st0" d="M-30.7,354.9c-1.8,0-2.8,1.3-2.8,3c0,1.7,1,3,2.8,3c1.8,0,2.8-1.3,2.8-3
		C-28,356.2-28.9,354.9-30.7,354.9z M-30.7,360c-1,0-1.8-0.8-1.8-2.1c0-1.4,0.8-2.2,1.8-2.2c1,0,1.8,0.8,1.8,2.2
		C-29,359.2-29.8,360-30.7,360z M-24.8,352.8c0.2,0,0.4,0,0.6,0.1v0.8c-0.2-0.1-0.4-0.1-0.5-0.1c-0.5,0-0.7,0.1-0.7,0.6v0.8h1.1v0.8
		h-1.1v4.9h-0.9v-4.9h-1V355h1v-0.8C-26.4,353.3-25.8,352.8-24.8,352.8z M-21.6,352.8c0.2,0,0.4,0,0.6,0.1v0.8
		c-0.2-0.1-0.4-0.1-0.5-0.1c-0.5,0-0.7,0.1-0.7,0.6v0.8h1.1v0.8h-1.1v4.9h-0.9v-4.9h-1V355h1v-0.8
		C-23.2,353.3-22.7,352.8-21.6,352.8z M-15.8,359c0,1.4-1.3,1.8-2.4,1.8c-1.3,0-2.4-0.5-2.4-1.9h0.9c0,0.8,0.8,1.1,1.5,1.1
		c0.6,0,1.4-0.1,1.4-0.8c0-0.7-0.9-0.8-1.9-1.1c-0.9-0.2-1.9-0.5-1.9-1.6c0-1.1,1.1-1.6,2.1-1.6c1.3,0,2.3,0.4,2.3,1.8h-0.9
		c-0.1-0.7-0.7-1-1.3-1c-0.6,0-1.2,0.2-1.2,0.7c0,0.7,1,0.8,1.9,1C-16.7,357.6-15.8,357.9-15.8,359z M-12.3,354.9
		c-1.6,0-2.7,1.3-2.7,3c0.1,1.7,0.9,3,2.7,3c1.3,0,2.2-0.7,2.4-1.9h-0.9c-0.2,0.7-0.7,1.1-1.5,1.1c-1.2,0-1.8-0.9-1.8-1.9h4.3
		C-9.6,356.8-10.2,354.9-12.3,354.9z M-13.9,357.3c0.1-0.9,0.6-1.6,1.6-1.6c0.9,0,1.6,0.7,1.6,1.6H-13.9z M-7.3,355h1.1v0.8h-1.1
		v3.5c0,0.4,0.1,0.5,0.7,0.5h0.4v0.8h-0.7c-1,0-1.4-0.2-1.4-1.2v-3.6h-1V355h1v-1.7h0.9V355z M6.1,356.5v4.2H5.2V357
		c0-0.7-0.2-1.3-1.1-1.3c-0.9,0-1.5,0.6-1.5,1.5v3.5H1.7V357c0-0.7-0.2-1.3-1.1-1.3c-1.1,0-1.5,1-1.5,1.5v3.5h-0.9V355H-1v0.8h0
		c0.4-0.6,1.1-1,1.8-1c0.7,0,1.3,0.3,1.6,1c0.4-0.6,1.1-1,1.8-1C5.4,354.9,6.1,355.4,6.1,356.5z M10,354.9c-1.6,0-2.7,1.3-2.7,3
		c0.1,1.7,0.9,3,2.7,3c1.3,0,2.2-0.7,2.4-1.9h-0.9c-0.2,0.7-0.7,1.1-1.5,1.1c-1.2,0-1.8-0.9-1.8-1.9h4.3
		C12.6,356.8,12,354.9,10,354.9z M8.3,357.3c0.1-0.9,0.6-1.6,1.6-1.6c0.9,0,1.6,0.7,1.6,1.6H8.3z M17.8,355.8L17.8,355.8
		c-0.4-0.7-1.3-0.9-1.9-0.9c-1.7,0-2.6,1.4-2.6,3c0,1.6,0.9,3,2.6,3c0.8,0,1.5-0.3,1.8-0.9h0v0.8h0.9v-7.9h-0.9V355.8z M16.1,360
		c-1.2,0-1.8-1-1.8-2.1c0-1.1,0.4-2.2,1.7-2.2c1.3,0,1.8,1,1.8,2.2C17.8,358.9,17.4,360,16.1,360z M20.3,352.9h0.9v1.1h-0.9V352.9z
		 M20.3,355h0.9v5.7h-0.9V355z M27.3,359.4v-2.9c0-1.3-1.1-1.6-2.1-1.6c-1.3,0-2.4,0.5-2.4,1.9h0.9c0-0.8,0.6-1.1,1.4-1.1
		c0.6,0,1.3,0.1,1.3,0.9c0,0.7-0.9,0.6-1.9,0.8c-1,0.2-1.9,0.5-1.9,1.8c0,1.1,0.8,1.6,1.9,1.6c0.8,0,1.5-0.3,2-0.9
		c0,0.6,0.3,0.9,0.8,0.9c0.3,0,0.5-0.1,0.7-0.2V360c-0.1,0-0.2,0.1-0.3,0.1C27.3,360,27.3,359.8,27.3,359.4z M26.4,358.7
		c0,0.5-0.5,1.3-1.7,1.3c-0.6,0-1.1-0.2-1.1-0.8c0-0.7,0.5-0.9,1.1-1c0.6-0.1,1.3-0.1,1.7-0.4V358.7z M34,352.8c0.2,0,0.4,0,0.6,0.1
		v0.8c-0.2-0.1-0.4-0.1-0.5-0.1c-0.5,0-0.7,0.1-0.7,0.6v0.8h1.1v0.8h-1.1v4.9h-0.9v-4.9h-1V355h1v-0.8C32.4,353.3,33,352.8,34,352.8
		z M37.8,354.9c-1.6,0-2.7,1.3-2.7,3c0.1,1.7,0.9,3,2.7,3c1.3,0,2.2-0.7,2.4-1.9h-0.9c-0.2,0.7-0.7,1.1-1.5,1.1
		c-1.2,0-1.8-0.9-1.8-1.9h4.3C40.4,356.8,39.8,354.9,37.8,354.9z M36.1,357.3c0.1-0.9,0.6-1.6,1.6-1.6c0.9,0,1.6,0.7,1.6,1.6H36.1z
		 M45.9,359c0,1.4-1.3,1.8-2.4,1.8c-1.3,0-2.4-0.5-2.4-1.9H42c0,0.8,0.8,1.1,1.5,1.1c0.6,0,1.4-0.1,1.4-0.8c0-0.7-0.9-0.8-1.9-1.1
		c-0.9-0.2-1.9-0.5-1.9-1.6c0-1.1,1.1-1.6,2.1-1.6c1.3,0,2.3,0.4,2.3,1.8h-0.9c-0.1-0.7-0.7-1-1.3-1c-0.6,0-1.2,0.2-1.2,0.7
		c0,0.7,1,0.8,1.9,1C44.9,357.6,45.9,357.9,45.9,359z M48.3,355h1.1v0.8h-1.1v3.5c0,0.4,0.1,0.5,0.7,0.5h0.4v0.8h-0.7
		c-1,0-1.4-0.2-1.4-1.2v-3.6h-1V355h1v-1.7h0.9V355z M50.6,352.9h0.9v1.1h-0.9V352.9z M50.6,355h0.9v5.7h-0.9V355z M56.8,355h1
		l-2.1,5.7h-1l-2.1-5.7h1l1.6,4.7h0L56.8,355z M61.1,354.9c-1.6,0-2.7,1.3-2.7,3c0.1,1.7,0.9,3,2.7,3c1.3,0,2.2-0.7,2.4-1.9h-0.9
		c-0.2,0.7-0.7,1.1-1.5,1.1c-1.2,0-1.8-0.9-1.8-1.9h4.3C63.7,356.8,63.1,354.9,61.1,354.9z M59.4,357.3c0.1-0.9,0.6-1.6,1.6-1.6
		c0.9,0,1.6,0.7,1.6,1.6H59.4z M68,352.9h0.9v1.1H68V352.9z M68,355h0.9v5.7H68V355z M74.4,358.6h1c-0.2,1.4-1.1,2.2-2.5,2.2
		c-1.7,0-2.7-1.2-2.7-2.9c0-1.7,0.9-3,2.7-3c1.3,0,2.3,0.6,2.5,2h-1c-0.1-0.7-0.6-1.1-1.4-1.1c-1.4,0-1.8,1.1-1.8,2.2
		c0,1,0.5,2.1,1.7,2.1C73.7,360,74.3,359.5,74.4,358.6z M79,354.9c-1.8,0-2.8,1.3-2.8,3c0,1.7,1,3,2.8,3c1.8,0,2.8-1.3,2.8-3
		C81.7,356.2,80.8,354.9,79,354.9z M79,360c-1,0-1.8-0.8-1.8-2.1c0-1.4,0.8-2.2,1.8-2.2c1,0,1.8,0.8,1.8,2.2
		C80.7,359.2,79.9,360,79,360z M87.6,357v3.7h-0.9v-3.9c0-0.7-0.4-1.1-1.2-1.1c-1.1,0-1.7,0.8-1.7,1.8v3.2h-0.9V355h0.9v0.9h0
		c0.4-0.7,1-1,1.8-1C87.2,354.9,87.6,355.7,87.6,357z M95.1,354.9c-0.8,0-1.5,0.3-1.8,0.9h0V355h-0.9v7.9h0.9V360h0
		c0.4,0.7,1.3,0.9,1.8,0.9c1.7,0,2.6-1.4,2.6-3C97.7,356.3,96.9,354.9,95.1,354.9z M95.1,360c-1.3,0-1.8-1-1.8-2.2
		c0-1.1,0.5-2.1,1.7-2.1c1.2,0,1.8,1,1.8,2.1C96.8,358.9,96.3,360,95.1,360z M103.4,359.4v-2.9c0-1.3-1.1-1.6-2.1-1.6
		c-1.3,0-2.4,0.5-2.4,1.9h0.9c0-0.8,0.6-1.1,1.4-1.1c0.6,0,1.3,0.1,1.3,0.9c0,0.7-0.9,0.6-1.9,0.8c-1,0.2-1.9,0.5-1.9,1.8
		c0,1.1,0.8,1.6,1.9,1.6c0.8,0,1.5-0.3,2-0.9c0,0.6,0.3,0.9,0.8,0.9c0.3,0,0.5-0.1,0.7-0.2V360c-0.1,0-0.2,0.1-0.3,0.1
		C103.4,360,103.4,359.8,103.4,359.4z M102.5,358.7c0,0.5-0.5,1.3-1.7,1.3c-0.6,0-1.1-0.2-1.1-0.8c0-0.7,0.5-0.9,1.1-1
		c0.6-0.1,1.3-0.1,1.7-0.4V358.7z M108.9,358.6h1c-0.2,1.4-1.1,2.2-2.5,2.2c-1.7,0-2.7-1.2-2.7-2.9c0-1.7,0.9-3,2.7-3
		c1.3,0,2.3,0.6,2.5,2h-1c-0.1-0.7-0.6-1.1-1.4-1.1c-1.4,0-1.8,1.1-1.8,2.2c0,1,0.5,2.1,1.7,2.1C108.2,360,108.8,359.5,108.9,358.6z
		 M113.6,357.1l2.4,3.6h-1.2l-1.9-3l-0.9,0.8v2.2H111v-7.9h0.9v4.7l2.6-2.5h1.3L113.6,357.1z M120.6,359.9h4v0.8h-5.1
		c0.2-1.8,1.1-2.5,2.2-3.2c1.3-0.8,2-1.3,2-2.4c0-0.8-0.7-1.4-1.5-1.4c-1.1,0-1.6,1-1.5,1.9h-0.9c-0.1-1.6,0.9-2.8,2.5-2.8
		c1.4,0,2.4,0.8,2.4,2.2c0,1.4-0.9,2.1-1.9,2.7C121.8,358.4,120.8,358.9,120.6,359.9z M128.6,352.9c-2.4,0-2.6,2.2-2.6,4
		c0,1.7,0.2,4,2.6,4c2.4,0,2.6-2.2,2.6-4C131.2,355.2,131,352.9,128.6,352.9z M128.6,360c-1.6,0-1.6-2-1.6-3.1c0-1.2,0-3.1,1.6-3.1
		c1.6,0,1.6,2,1.6,3.1C130.2,358,130.2,360,128.6,360z M134.9,352.9h0.7v7.8h-0.9v-5.6h-2v-0.7C133.7,354.4,134.7,354.1,134.9,352.9
		z M141.9,352.9v7.8h-0.9v-5.6h-2v-0.7c1.1,0,2-0.3,2.2-1.5H141.9z"/>
	<g>
		<g>
			<g>
				<path class="st12" d="M-72.1-443.5v-26.7h12.8v4h-8.2v6.9h6.1v4h-6.1v11.9H-72.1z"/>
				<path class="st12" d="M-55.7-443.5v-26.7h12.3v4h-7.7v6.9h5.9v4h-5.9v7.9h8.2v4H-55.7z"/>
				<path class="st12" d="M-30.9-463.7c0-0.6-0.2-1-0.3-1.4c-0.2-0.4-0.4-0.7-0.6-0.9c-0.2-0.2-0.5-0.4-0.8-0.5
					c-0.3-0.1-0.5-0.1-0.8-0.1c-0.7,0-1.3,0.2-1.7,0.7c-0.4,0.5-0.6,1.1-0.6,1.9c0,0.8,0.2,1.5,0.7,2.1c0.5,0.6,1,1.3,1.7,1.9
					c0.7,0.6,1.4,1.3,2.3,1.9c0.8,0.7,1.6,1.4,2.3,2.2c0.7,0.8,1.3,1.7,1.7,2.6c0.5,1,0.7,2,0.7,3.2c0,1.1-0.2,2.1-0.5,2.9
					c-0.4,0.9-0.9,1.6-1.5,2.1c-0.6,0.6-1.4,1-2.3,1.3c-0.9,0.3-1.9,0.4-2.9,0.4c-1.1,0-2-0.2-2.9-0.6c-0.8-0.4-1.6-0.9-2.1-1.6
					c-0.6-0.7-1-1.5-1.4-2.4c-0.3-0.9-0.5-1.8-0.6-2.9l4.4-0.6c0.1,1.4,0.4,2.4,0.9,3c0.5,0.7,1.1,1,1.9,1c0.8,0,1.4-0.2,1.9-0.6
					c0.5-0.4,0.7-1,0.7-1.8c0-0.9-0.2-1.7-0.7-2.4c-0.5-0.7-1-1.4-1.7-2c-0.7-0.6-1.4-1.3-2.3-1.9c-0.8-0.6-1.6-1.3-2.3-2.1
					c-0.7-0.8-1.3-1.6-1.7-2.6c-0.5-1-0.7-2.1-0.7-3.4c0-2.1,0.6-3.8,1.9-4.9c1.2-1.1,3-1.7,5.3-1.7c0.9,0,1.8,0.2,2.5,0.5
					c0.7,0.3,1.4,0.8,1.9,1.4c0.5,0.6,1,1.3,1.3,2.1c0.3,0.8,0.5,1.7,0.6,2.6L-30.9-463.7z"/>
				<path class="st12" d="M-20.1-466.3h-4.4v-4h13.5v4h-4.4v22.7h-4.6V-466.3z"/>
				<path class="st12" d="M-7.8-443.5v-26.7h4.6v26.7H-7.8z"/>
				<path class="st12" d="M11.3-470.3h4.5l-5.6,26.7H5.6L0-470.3h4.5l3.3,18.6h0.1L11.3-470.3z"/>
				<path class="st12" d="M18.3-443.5v-26.7h12.3v4h-7.7v6.9h5.9v4h-5.9v7.9h8.2v4H18.3z"/>
				<path class="st12" d="M43.6-443.5v-26.7h4.6v26.7H43.6z"/>
				<path class="st12" d="M62.6-461.3v-2.1c0-1.1-0.2-2-0.7-2.5c-0.4-0.5-1-0.8-1.6-0.8c-0.9,0-1.6,0.2-1.9,0.7
					c-0.3,0.5-0.5,1.2-0.5,2.2v13.6c0,1,0.2,1.8,0.5,2.2c0.3,0.5,1,0.7,1.9,0.7c0.8,0,1.4-0.2,1.7-0.7c0.3-0.5,0.5-1.1,0.5-2v-3.2
					h4.6v3.1c0,0.9-0.1,1.8-0.4,2.7c-0.3,0.8-0.7,1.6-1.3,2.2c-0.6,0.6-1.3,1.1-2.1,1.5c-0.9,0.4-1.9,0.5-3,0.5
					c-1.2,0-2.3-0.2-3.1-0.5c-0.9-0.4-1.6-0.8-2.2-1.5c-0.6-0.6-1-1.3-1.3-2.2c-0.3-0.8-0.4-1.7-0.4-2.7v-13.8
					c0-0.9,0.1-1.8,0.4-2.7c0.3-0.8,0.7-1.6,1.3-2.2c0.6-0.6,1.3-1.1,2.2-1.5c0.9-0.4,1.9-0.5,3.1-0.5c1.1,0,2.1,0.2,3,0.6
					c0.9,0.4,1.6,0.9,2.1,1.6c0.6,0.7,1,1.4,1.3,2.3c0.3,0.9,0.4,1.8,0.4,2.8v2H62.6z"/>
				<path class="st12" d="M71.8-463.8c0-0.9,0.1-1.8,0.4-2.7c0.3-0.8,0.7-1.6,1.3-2.2c0.6-0.6,1.3-1.1,2.2-1.5
					c0.9-0.4,1.9-0.5,3.1-0.5c1.2,0,2.3,0.2,3.1,0.5c0.9,0.4,1.6,0.8,2.2,1.5c0.6,0.6,1,1.3,1.3,2.2c0.3,0.8,0.4,1.7,0.4,2.7v13.8
					c0,0.9-0.1,1.8-0.4,2.7c-0.3,0.8-0.7,1.6-1.3,2.2c-0.6,0.6-1.3,1.1-2.2,1.5c-0.9,0.4-1.9,0.5-3.1,0.5c-1.2,0-2.3-0.2-3.1-0.5
					c-0.9-0.4-1.6-0.8-2.2-1.5c-0.6-0.6-1-1.3-1.3-2.2c-0.3-0.8-0.4-1.7-0.4-2.7V-463.8z M76.4-450.1c0,1,0.2,1.8,0.5,2.2
					c0.3,0.5,1,0.7,1.9,0.7c0.9,0,1.6-0.2,1.9-0.7c0.3-0.5,0.5-1.2,0.5-2.2v-13.6c0-1-0.2-1.8-0.5-2.2c-0.3-0.5-1-0.7-1.9-0.7
					c-0.9,0-1.6,0.2-1.9,0.7c-0.3,0.5-0.5,1.2-0.5,2.2V-450.1z"/>
				<path class="st12" d="M90.3-443.5v-26.7h4.3l5.6,15.3h0.1v-15.3h4.1v26.7h-4l-5.9-16.7h-0.1v16.7H90.3z"/>
				<path class="st12" d="M117.1-443.5v-26.7h6.6c2.8,0,4.9,0.6,6.3,1.8c1.3,1.2,2,3.2,2,6.1c0,1.4-0.2,2.6-0.5,3.6
					c-0.3,1-0.8,1.8-1.5,2.4c-0.7,0.6-1.5,1.1-2.6,1.4c-1,0.3-2.3,0.4-3.7,0.4h-2v11H117.1z M121.7-458.3h1.8c0.7,0,1.4-0.1,1.9-0.2
					c0.5-0.1,0.9-0.3,1.2-0.7c0.3-0.3,0.5-0.7,0.6-1.3c0.1-0.5,0.2-1.2,0.2-2c0-0.8-0.1-1.5-0.2-2c-0.1-0.5-0.3-0.9-0.6-1.3
					c-0.3-0.3-0.7-0.5-1.2-0.7c-0.5-0.1-1.1-0.2-1.9-0.2h-1.8V-458.3z"/>
				<path class="st12" d="M138.3-443.5h-4.4l4.9-26.7h5.7l4.9,26.7h-4.4l-0.8-5.9h-5L138.3-443.5z M139.7-453.4h3.7l-1.8-11.5h-0.1
					L139.7-453.4z"/>
				<path class="st12" d="M161.3-461.3v-2.1c0-1.1-0.2-2-0.7-2.5c-0.4-0.5-1-0.8-1.6-0.8c-0.9,0-1.6,0.2-1.9,0.7
					c-0.3,0.5-0.5,1.2-0.5,2.2v13.6c0,1,0.2,1.8,0.5,2.2c0.3,0.5,1,0.7,1.9,0.7c0.8,0,1.4-0.2,1.7-0.7c0.3-0.5,0.5-1.1,0.5-2v-3.2
					h4.6v3.1c0,0.9-0.1,1.8-0.4,2.7c-0.3,0.8-0.7,1.6-1.3,2.2c-0.6,0.6-1.3,1.1-2.1,1.5c-0.9,0.4-1.9,0.5-3,0.5
					c-1.2,0-2.3-0.2-3.1-0.5c-0.9-0.4-1.6-0.8-2.2-1.5c-0.6-0.6-1-1.3-1.3-2.2c-0.3-0.8-0.4-1.7-0.4-2.7v-13.8
					c0-0.9,0.1-1.8,0.4-2.7c0.3-0.8,0.7-1.6,1.3-2.2c0.6-0.6,1.3-1.1,2.2-1.5c0.9-0.4,1.9-0.5,3.1-0.5c1.1,0,2.1,0.2,3,0.6
					c0.9,0.4,1.6,0.9,2.1,1.6c0.6,0.7,1,1.4,1.3,2.3c0.3,0.9,0.4,1.8,0.4,2.8v2H161.3z"/>
				<path class="st12" d="M170.3-443.5v-26.7h4.6v9.9h0.1l4.8-9.9h4.6l-5,10l5.6,16.8h-4.7l-3.7-12.4h-0.1l-1.6,3v9.5H170.3z"/>
			</g>
			<g>
				<path class="st13" d="M-73.2-444.6v-26.7h12.8v4h-8.2v6.9h6.1v4h-6.1v11.9H-73.2z"/>
				<path class="st13" d="M-56.7-444.6v-26.7h12.3v4h-7.7v6.9h5.9v4h-5.9v7.9h8.2v4H-56.7z"/>
				<path class="st13" d="M-31.9-464.7c-0.1-0.6-0.2-1-0.3-1.4c-0.2-0.4-0.4-0.7-0.6-0.9c-0.2-0.2-0.5-0.4-0.8-0.5
					c-0.3-0.1-0.5-0.1-0.8-0.1c-0.7,0-1.3,0.2-1.7,0.7c-0.4,0.5-0.6,1.1-0.6,1.9c0,0.8,0.2,1.5,0.7,2.1c0.5,0.6,1,1.3,1.7,1.9
					c0.7,0.6,1.4,1.3,2.3,1.9c0.8,0.7,1.6,1.4,2.3,2.2c0.7,0.8,1.3,1.7,1.7,2.6c0.5,1,0.7,2,0.7,3.2c0,1.1-0.2,2.1-0.5,2.9
					c-0.4,0.9-0.9,1.6-1.5,2.1c-0.6,0.6-1.4,1-2.3,1.3c-0.9,0.3-1.9,0.4-2.9,0.4c-1.1,0-2-0.2-2.9-0.6c-0.8-0.4-1.5-0.9-2.1-1.6
					c-0.6-0.7-1-1.5-1.4-2.4c-0.3-0.9-0.5-1.8-0.6-2.9l4.4-0.6c0.1,1.4,0.4,2.4,0.9,3c0.5,0.7,1.1,1,1.9,1c0.8,0,1.4-0.2,1.9-0.6
					c0.5-0.4,0.7-1,0.7-1.8c0-0.9-0.2-1.7-0.7-2.4c-0.5-0.7-1-1.4-1.7-2c-0.7-0.6-1.4-1.3-2.3-1.9c-0.8-0.6-1.6-1.3-2.3-2.1
					s-1.3-1.6-1.7-2.6c-0.5-1-0.7-2.1-0.7-3.4c0-2.1,0.6-3.8,1.9-4.9c1.2-1.1,3-1.7,5.3-1.7c0.9,0,1.8,0.2,2.5,0.5
					c0.7,0.3,1.4,0.8,1.9,1.4c0.5,0.6,1,1.3,1.3,2.1c0.3,0.8,0.5,1.7,0.6,2.6L-31.9-464.7z"/>
				<path class="st13" d="M-21.2-467.3h-4.4v-4h13.5v4h-4.4v22.7h-4.6V-467.3z"/>
				<path class="st13" d="M-8.8-444.6v-26.7h4.6v26.7H-8.8z"/>
				<path class="st13" d="M10.2-471.3h4.5l-5.6,26.7H4.6L-1-471.3h4.5l3.3,18.6h0.1L10.2-471.3z"/>
				<path class="st13" d="M17.3-444.6v-26.7h12.3v4h-7.7v6.9h5.9v4h-5.9v7.9h8.2v4H17.3z"/>
				<path class="st13" d="M42.6-444.6v-26.7h4.6v26.7H42.6z"/>
				<path class="st13" d="M61.5-462.4v-2.1c0-1.1-0.2-2-0.7-2.5c-0.4-0.5-1-0.8-1.6-0.8c-0.9,0-1.6,0.2-1.9,0.7
					c-0.3,0.5-0.5,1.2-0.5,2.2v13.6c0,1,0.2,1.8,0.5,2.2c0.3,0.5,1,0.7,1.9,0.7c0.8,0,1.4-0.2,1.7-0.7c0.3-0.5,0.5-1.1,0.5-2v-3.2
					h4.6v3.1c0,0.9-0.1,1.8-0.4,2.7c-0.3,0.8-0.7,1.6-1.3,2.2c-0.6,0.6-1.3,1.1-2.1,1.5c-0.9,0.4-1.9,0.5-3,0.5
					c-1.2,0-2.3-0.2-3.1-0.5c-0.9-0.4-1.6-0.8-2.2-1.5c-0.6-0.6-1-1.3-1.3-2.2c-0.3-0.8-0.4-1.7-0.4-2.7v-13.8
					c0-0.9,0.1-1.8,0.4-2.7c0.3-0.8,0.7-1.6,1.3-2.2c0.6-0.6,1.3-1.1,2.2-1.5c0.9-0.4,1.9-0.5,3.1-0.5c1.1,0,2.1,0.2,3,0.6
					c0.9,0.4,1.6,0.9,2.1,1.6c0.6,0.7,1,1.4,1.3,2.3c0.3,0.9,0.4,1.8,0.4,2.8v2H61.5z"/>
				<path class="st13" d="M70.8-464.8c0-0.9,0.1-1.8,0.4-2.7c0.3-0.8,0.7-1.6,1.3-2.2c0.6-0.6,1.3-1.1,2.2-1.5
					c0.9-0.4,1.9-0.5,3.1-0.5c1.2,0,2.3,0.2,3.1,0.5c0.9,0.4,1.6,0.8,2.2,1.5c0.6,0.6,1,1.3,1.3,2.2c0.3,0.8,0.4,1.7,0.4,2.7v13.8
					c0,0.9-0.1,1.8-0.4,2.7c-0.3,0.8-0.7,1.6-1.3,2.2c-0.6,0.6-1.3,1.1-2.2,1.5c-0.9,0.4-1.9,0.5-3.1,0.5c-1.2,0-2.3-0.2-3.1-0.5
					c-0.9-0.4-1.6-0.8-2.2-1.5c-0.6-0.6-1-1.3-1.3-2.2c-0.3-0.8-0.4-1.7-0.4-2.7V-464.8z M75.4-451.1c0,1,0.2,1.8,0.5,2.2
					c0.3,0.5,1,0.7,1.9,0.7c0.9,0,1.6-0.2,1.9-0.7c0.3-0.5,0.5-1.2,0.5-2.2v-13.6c0-1-0.2-1.8-0.5-2.2c-0.3-0.5-1-0.7-1.9-0.7
					c-0.9,0-1.6,0.2-1.9,0.7c-0.3,0.5-0.5,1.2-0.5,2.2V-451.1z"/>
				<path class="st13" d="M89.3-444.6v-26.7h4.3l5.6,15.3h0.1v-15.3h4.1v26.7h-4l-5.9-16.7h-0.1v16.7H89.3z"/>
				<path class="st13" d="M116-444.6v-26.7h6.6c2.8,0,4.9,0.6,6.3,1.8c1.3,1.2,2,3.2,2,6.1c0,1.4-0.2,2.6-0.5,3.6
					c-0.3,1-0.8,1.8-1.5,2.4c-0.7,0.6-1.5,1.1-2.6,1.4c-1.1,0.3-2.3,0.4-3.7,0.4h-2v11H116z M120.6-459.3h1.8c0.7,0,1.4-0.1,1.9-0.2
					c0.5-0.1,0.9-0.3,1.2-0.7c0.3-0.3,0.5-0.7,0.6-1.3c0.1-0.5,0.2-1.2,0.2-2c0-0.8-0.1-1.4-0.2-2c-0.1-0.5-0.3-1-0.6-1.3
					c-0.3-0.3-0.7-0.5-1.2-0.7c-0.5-0.1-1.1-0.2-1.9-0.2h-1.8V-459.3z"/>
				<path class="st13" d="M137.2-444.6h-4.4l4.9-26.7h5.7l4.9,26.7h-4.4l-0.8-5.9h-5L137.2-444.6z M138.7-454.5h3.7l-1.8-11.5h-0.1
					L138.7-454.5z"/>
				<path class="st13" d="M160.3-462.4v-2.1c0-1.1-0.2-2-0.7-2.5c-0.4-0.5-1-0.8-1.6-0.8c-0.9,0-1.6,0.2-1.9,0.7
					c-0.3,0.5-0.5,1.2-0.5,2.2v13.6c0,1,0.2,1.8,0.5,2.2c0.3,0.5,1,0.7,1.9,0.7c0.8,0,1.4-0.2,1.7-0.7c0.3-0.5,0.5-1.1,0.5-2v-3.2
					h4.6v3.1c0,0.9-0.1,1.8-0.4,2.7c-0.3,0.8-0.7,1.6-1.3,2.2c-0.6,0.6-1.3,1.1-2.1,1.5c-0.9,0.4-1.9,0.5-3,0.5
					c-1.2,0-2.3-0.2-3.1-0.5c-0.9-0.4-1.6-0.8-2.2-1.5c-0.6-0.6-1-1.3-1.3-2.2c-0.3-0.8-0.4-1.7-0.4-2.7v-13.8
					c0-0.9,0.1-1.8,0.4-2.7c0.3-0.8,0.7-1.6,1.3-2.2c0.6-0.6,1.3-1.1,2.2-1.5c0.9-0.4,1.9-0.5,3.1-0.5c1.1,0,2.1,0.2,3,0.6
					c0.9,0.4,1.6,0.9,2.1,1.6c0.6,0.7,1,1.4,1.3,2.3c0.3,0.9,0.4,1.8,0.4,2.8v2H160.3z"/>
				<path class="st13" d="M169.3-444.6v-26.7h4.6v9.9h0.1l4.8-9.9h4.6l-5,10l5.6,16.8h-4.7l-3.7-12.4h-0.1l-1.6,3v9.5H169.3z"/>
			</g>
		</g>
		<g>
			<g>
				<g>
					<path class="st12" d="M-17.6-398.9v-2.4c1-1.4,1.8-2.6,2.5-3.7c0.7-1.1,1.3-2.1,1.8-3c0.5-0.9,0.9-1.7,1.1-2.4
						c0.3-0.7,0.4-1.4,0.4-2.1c0-0.7-0.1-1.2-0.4-1.5c-0.2-0.3-0.6-0.5-1-0.5c-0.5,0-0.9,0.2-1.1,0.5c-0.2,0.3-0.4,0.8-0.4,1.3v1.2
						h-2.9v-0.8c0-0.7,0.1-1.3,0.3-1.8c0.2-0.6,0.5-1,0.9-1.5c0.4-0.4,0.9-0.7,1.4-1c0.6-0.2,1.2-0.4,1.9-0.4c0.6,0,1.2,0.1,1.7,0.3
						c0.5,0.2,0.9,0.5,1.3,0.9c0.4,0.4,0.6,0.8,0.8,1.3c0.2,0.5,0.3,1,0.3,1.5c0,0.7-0.1,1.4-0.2,2.1c-0.1,0.7-0.4,1.4-0.8,2.3
						c-0.4,0.9-1,1.9-1.7,3c-0.7,1.2-1.7,2.6-2.9,4.2h5.4v2.5H-17.6z"/>
					<path class="st12" d="M-5.4-412.1c0-1.7,0.3-2.9,1-3.7c0.7-0.8,1.8-1.2,3.3-1.2c1.5,0,2.7,0.4,3.3,1.2c0.7,0.8,1,2,1,3.7v8.5
						c0,1.7-0.3,2.9-1,3.7c-0.7,0.8-1.8,1.2-3.3,1.2c-1.5,0-2.7-0.4-3.3-1.2c-0.7-0.8-1-2-1-3.7V-412.1z M0.4-412.9
						c0-1.1-0.5-1.7-1.4-1.7c-1,0-1.4,0.6-1.4,1.7v10.1c0,1.1,0.5,1.7,1.4,1.7c1,0,1.4-0.6,1.4-1.7V-412.9z"/>
					<path class="st12" d="M13.9-398.9v-17.8h8.5v2.7H17v4.6h4.1v2.7H17v7.9H13.9z"/>
					<path class="st12" d="M29.2-398.9h-3.1v-17.8h4.3c1.7,0,3,0.4,3.9,1.2c0.9,0.8,1.3,2.2,1.3,4c0,0.7-0.1,1.3-0.2,1.9
						c-0.1,0.5-0.3,0.9-0.5,1.3c-0.2,0.4-0.4,0.6-0.7,0.9c-0.3,0.2-0.5,0.4-0.8,0.5l2.6,8.1h-3.1l-2.2-7.4c-0.2,0-0.4,0.1-0.7,0.1
						c-0.3,0-0.6,0-0.9,0V-398.9z M29.2-408.8h1.1c0.4,0,0.8,0,1-0.1c0.3-0.1,0.5-0.2,0.7-0.4c0.2-0.2,0.3-0.5,0.4-0.9
						c0.1-0.4,0.1-0.8,0.1-1.3c0-1.1-0.2-1.8-0.5-2.2c-0.3-0.4-0.9-0.6-1.8-0.6h-1.1V-408.8z"/>
					<path class="st12" d="M39.7-398.9v-17.8h8.2v2.7h-5.1v4.6h4v2.7h-4v5.2h5.5v2.7H39.7z"/>
					<path class="st12" d="M51.9-398.9v-17.8h8.2v2.7h-5.1v4.6h3.9v2.7h-3.9v5.2h5.5v2.7H51.9z"/>
					<path class="st12" d="M71.2-398.9v-17.8h3.1v17.8H71.2z"/>
					<path class="st12" d="M85.1-410.8v-1.4c0-0.8-0.2-1.3-0.4-1.6c-0.3-0.3-0.6-0.5-1-0.5c-0.6,0-1.1,0.2-1.3,0.5
						c-0.2,0.3-0.3,0.8-0.3,1.5v9c0,0.7,0.1,1.2,0.3,1.5c0.2,0.3,0.7,0.5,1.3,0.5c0.6,0,0.9-0.2,1.2-0.5c0.2-0.3,0.3-0.8,0.3-1.3
						v-2.1h3.1v2c0,0.6-0.1,1.2-0.3,1.8c-0.2,0.6-0.5,1-0.8,1.5c-0.4,0.4-0.8,0.7-1.4,1c-0.6,0.2-1.2,0.4-2,0.4
						c-0.8,0-1.5-0.1-2.1-0.4c-0.6-0.2-1.1-0.6-1.5-1c-0.4-0.4-0.7-0.9-0.9-1.5c-0.2-0.6-0.3-1.2-0.3-1.8v-9.2
						c0-0.6,0.1-1.2,0.3-1.8c0.2-0.6,0.5-1,0.9-1.5c0.4-0.4,0.9-0.7,1.5-1c0.6-0.2,1.3-0.4,2.1-0.4c0.8,0,1.4,0.1,2,0.4
						c0.6,0.3,1.1,0.6,1.4,1.1c0.4,0.4,0.6,1,0.8,1.6c0.2,0.6,0.3,1.2,0.3,1.9v1.3H85.1z"/>
					<path class="st12" d="M92.5-412.4c0-0.6,0.1-1.2,0.3-1.8c0.2-0.6,0.5-1,0.9-1.5c0.4-0.4,0.9-0.7,1.5-1c0.6-0.2,1.3-0.4,2.1-0.4
						c0.8,0,1.5,0.1,2.1,0.4c0.6,0.2,1.1,0.6,1.5,1c0.4,0.4,0.7,0.9,0.9,1.5c0.2,0.6,0.3,1.2,0.3,1.8v9.2c0,0.6-0.1,1.2-0.3,1.8
						c-0.2,0.6-0.5,1-0.9,1.5c-0.4,0.4-0.9,0.7-1.5,1c-0.6,0.2-1.3,0.4-2.1,0.4c-0.8,0-1.5-0.1-2.1-0.4c-0.6-0.2-1.1-0.6-1.5-1
						c-0.4-0.4-0.7-0.9-0.9-1.5c-0.2-0.6-0.3-1.2-0.3-1.8V-412.4z M95.5-403.3c0,0.7,0.1,1.2,0.3,1.5c0.2,0.3,0.7,0.5,1.3,0.5
						c0.6,0,1.1-0.2,1.3-0.5c0.2-0.3,0.3-0.8,0.3-1.5v-9c0-0.7-0.1-1.2-0.3-1.5c-0.2-0.3-0.7-0.5-1.3-0.5c-0.6,0-1.1,0.2-1.3,0.5
						c-0.2,0.3-0.3,0.8-0.3,1.5V-403.3z"/>
					<path class="st12" d="M106-398.9v-17.8h2.8l3.7,10.2h0v-10.2h2.8v17.8h-2.7l-3.9-11.1h0v11.1H106z"/>
					<path class="st12" d="M125.2-412.4c0-0.4-0.1-0.7-0.2-1c-0.1-0.3-0.2-0.5-0.4-0.6c-0.2-0.1-0.3-0.3-0.5-0.3
						c-0.2-0.1-0.4-0.1-0.5-0.1c-0.5,0-0.9,0.2-1.1,0.5c-0.3,0.3-0.4,0.7-0.4,1.3c0,0.5,0.2,1,0.5,1.4c0.3,0.4,0.7,0.9,1.1,1.3
						c0.5,0.4,1,0.9,1.5,1.3c0.5,0.4,1,0.9,1.5,1.4c0.5,0.5,0.8,1.1,1.1,1.7c0.3,0.6,0.5,1.4,0.5,2.2c0,0.7-0.1,1.4-0.4,2
						c-0.2,0.6-0.6,1-1,1.4c-0.4,0.4-0.9,0.7-1.5,0.9c-0.6,0.2-1.3,0.3-2,0.3c-0.7,0-1.3-0.1-1.9-0.4c-0.6-0.3-1-0.6-1.4-1.1
						c-0.4-0.5-0.7-1-0.9-1.6c-0.2-0.6-0.3-1.2-0.4-1.9l2.9-0.4c0.1,0.9,0.3,1.6,0.6,2c0.3,0.4,0.7,0.7,1.2,0.7c0.5,0,1-0.1,1.3-0.4
						c0.3-0.3,0.5-0.7,0.5-1.2c0-0.6-0.2-1.1-0.5-1.6c-0.3-0.5-0.7-0.9-1.1-1.3c-0.5-0.4-1-0.9-1.5-1.3c-0.5-0.4-1-0.9-1.5-1.4
						c-0.5-0.5-0.8-1.1-1.1-1.7c-0.3-0.6-0.5-1.4-0.5-2.2c0-1.4,0.4-2.5,1.2-3.3c0.8-0.8,2-1.1,3.5-1.1c0.6,0,1.2,0.1,1.7,0.3
						c0.5,0.2,0.9,0.5,1.3,0.9c0.4,0.4,0.6,0.8,0.9,1.4c0.2,0.5,0.4,1.1,0.4,1.7L125.2-412.4z"/>
				</g>
			</g>
			<g>
				<g>
					<path class="st3" d="M-18.6-400v-2.4c1-1.4,1.8-2.6,2.5-3.7c0.7-1.1,1.3-2.1,1.8-3c0.5-0.9,0.9-1.7,1.1-2.4
						c0.3-0.7,0.4-1.4,0.4-2.1c0-0.7-0.1-1.2-0.4-1.5c-0.2-0.3-0.6-0.5-1-0.5c-0.5,0-0.9,0.2-1.1,0.5c-0.2,0.3-0.4,0.8-0.4,1.3v1.2
						h-2.9v-0.8c0-0.7,0.1-1.3,0.3-1.8c0.2-0.6,0.5-1,0.9-1.5c0.4-0.4,0.9-0.7,1.4-1c0.6-0.2,1.2-0.4,1.9-0.4c0.6,0,1.2,0.1,1.7,0.3
						c0.5,0.2,0.9,0.5,1.3,0.9c0.4,0.4,0.6,0.8,0.8,1.3c0.2,0.5,0.3,1,0.3,1.5c0,0.7-0.1,1.4-0.2,2.1c-0.1,0.7-0.4,1.4-0.8,2.3
						c-0.4,0.9-1,1.9-1.7,3c-0.7,1.2-1.7,2.6-2.9,4.2h5.4v2.5H-18.6z"/>
					<path class="st3" d="M-6.4-413.2c0-1.7,0.3-2.9,1-3.7c0.7-0.8,1.8-1.2,3.3-1.2c1.5,0,2.7,0.4,3.3,1.2c0.7,0.8,1,2,1,3.7v8.5
						c0,1.7-0.3,2.9-1,3.7c-0.7,0.8-1.8,1.2-3.3,1.2c-1.5,0-2.7-0.4-3.3-1.2c-0.7-0.8-1-2-1-3.7V-413.2z M-0.6-413.9
						c0-1.1-0.5-1.7-1.4-1.7c-1,0-1.4,0.6-1.4,1.7v10.1c0,1.1,0.5,1.7,1.4,1.7c1,0,1.4-0.6,1.4-1.7V-413.9z"/>
					<path class="st3" d="M12.9-400v-17.8h8.5v2.7h-5.5v4.6H20v2.7h-4.1v7.9H12.9z"/>
					<path class="st3" d="M28.1-400h-3.1v-17.8h4.3c1.7,0,3,0.4,3.9,1.2c0.9,0.8,1.3,2.2,1.3,4c0,0.7-0.1,1.3-0.2,1.9
						c-0.1,0.5-0.3,0.9-0.5,1.3c-0.2,0.4-0.4,0.6-0.7,0.9c-0.3,0.2-0.5,0.4-0.8,0.5L35-400h-3.1l-2.2-7.4c-0.2,0-0.4,0.1-0.7,0.1
						c-0.3,0-0.6,0-0.9,0V-400z M28.1-409.8h1.1c0.4,0,0.8,0,1-0.1c0.3-0.1,0.5-0.2,0.7-0.4c0.2-0.2,0.3-0.5,0.4-0.9
						c0.1-0.4,0.1-0.8,0.1-1.3c0-1.1-0.2-1.8-0.5-2.2c-0.3-0.4-0.9-0.6-1.8-0.6h-1.1V-409.8z"/>
					<path class="st3" d="M38.6-400v-17.8h8.2v2.7h-5.1v4.6h3.9v2.7h-3.9v5.2h5.5v2.7H38.6z"/>
					<path class="st3" d="M50.8-400v-17.8H59v2.7h-5.1v4.6h4v2.7h-4v5.2h5.5v2.7H50.8z"/>
					<path class="st3" d="M70.2-400v-17.8h3.1v17.8H70.2z"/>
					<path class="st3" d="M84-411.8v-1.4c0-0.8-0.1-1.3-0.4-1.6c-0.3-0.3-0.6-0.5-1-0.5c-0.6,0-1.1,0.2-1.3,0.5
						c-0.2,0.3-0.3,0.8-0.3,1.5v9c0,0.7,0.1,1.2,0.3,1.5c0.2,0.3,0.7,0.5,1.3,0.5c0.6,0,0.9-0.2,1.2-0.5c0.2-0.3,0.3-0.8,0.3-1.3
						v-2.1h3.1v2c0,0.6-0.1,1.2-0.3,1.8c-0.2,0.6-0.5,1-0.8,1.5c-0.4,0.4-0.8,0.7-1.4,1c-0.6,0.2-1.2,0.4-2,0.4
						c-0.8,0-1.5-0.1-2.1-0.4c-0.6-0.2-1.1-0.6-1.5-1c-0.4-0.4-0.7-0.9-0.9-1.5c-0.2-0.6-0.3-1.2-0.3-1.8v-9.2
						c0-0.6,0.1-1.2,0.3-1.8c0.2-0.6,0.5-1,0.9-1.5c0.4-0.4,0.9-0.7,1.5-1c0.6-0.2,1.3-0.4,2.1-0.4c0.8,0,1.4,0.1,2,0.4
						c0.6,0.3,1,0.6,1.4,1.1c0.4,0.4,0.7,1,0.8,1.6c0.2,0.6,0.3,1.2,0.3,1.9v1.3H84z"/>
					<path class="st3" d="M91.4-413.5c0-0.6,0.1-1.2,0.3-1.8c0.2-0.6,0.5-1,0.9-1.5c0.4-0.4,0.9-0.7,1.5-1c0.6-0.2,1.3-0.4,2.1-0.4
						c0.8,0,1.5,0.1,2.1,0.4c0.6,0.2,1.1,0.6,1.5,1c0.4,0.4,0.7,0.9,0.9,1.5c0.2,0.6,0.3,1.2,0.3,1.8v9.2c0,0.6-0.1,1.2-0.3,1.8
						c-0.2,0.6-0.5,1-0.9,1.5c-0.4,0.4-0.9,0.7-1.5,1c-0.6,0.2-1.3,0.4-2.1,0.4c-0.8,0-1.5-0.1-2.1-0.4c-0.6-0.2-1.1-0.6-1.5-1
						c-0.4-0.4-0.7-0.9-0.9-1.5c-0.2-0.6-0.3-1.2-0.3-1.8V-413.5z M94.5-404.4c0,0.7,0.1,1.2,0.3,1.5c0.2,0.3,0.7,0.5,1.3,0.5
						c0.6,0,1.1-0.2,1.3-0.5c0.2-0.3,0.3-0.8,0.3-1.5v-9c0-0.7-0.1-1.2-0.3-1.5c-0.2-0.3-0.7-0.5-1.3-0.5c-0.6,0-1.1,0.2-1.3,0.5
						c-0.2,0.3-0.3,0.8-0.3,1.5V-404.4z"/>
					<path class="st3" d="M105-400v-17.8h2.8l3.7,10.2h0v-10.2h2.8v17.8h-2.7l-3.9-11.1h0v11.1H105z"/>
					<path class="st3" d="M124.2-413.4c0-0.4-0.1-0.7-0.2-1c-0.1-0.3-0.2-0.5-0.4-0.6c-0.2-0.1-0.3-0.3-0.5-0.3
						c-0.2-0.1-0.4-0.1-0.5-0.1c-0.5,0-0.9,0.2-1.1,0.5c-0.3,0.3-0.4,0.7-0.4,1.3c0,0.5,0.2,1,0.5,1.4c0.3,0.4,0.7,0.9,1.1,1.3
						c0.5,0.4,1,0.9,1.5,1.3c0.5,0.4,1,0.9,1.5,1.4c0.5,0.5,0.8,1.1,1.1,1.7c0.3,0.6,0.5,1.4,0.5,2.2c0,0.7-0.1,1.4-0.4,2
						c-0.2,0.6-0.6,1-1,1.4c-0.4,0.4-0.9,0.7-1.5,0.9c-0.6,0.2-1.3,0.3-2,0.3c-0.7,0-1.3-0.1-1.9-0.4c-0.6-0.3-1-0.6-1.4-1.1
						c-0.4-0.5-0.7-1-0.9-1.6c-0.2-0.6-0.3-1.2-0.4-1.9l2.9-0.4c0.1,0.9,0.3,1.6,0.6,2c0.3,0.4,0.7,0.7,1.2,0.7c0.5,0,1-0.1,1.3-0.4
						c0.3-0.3,0.5-0.7,0.5-1.2c0-0.6-0.2-1.1-0.5-1.6c-0.3-0.5-0.7-0.9-1.1-1.3c-0.5-0.4-1-0.9-1.5-1.3c-0.5-0.4-1-0.9-1.5-1.4
						c-0.5-0.5-0.8-1.1-1.1-1.7c-0.3-0.6-0.5-1.4-0.5-2.2c0-1.4,0.4-2.5,1.2-3.3c0.8-0.8,2-1.1,3.5-1.1c0.6,0,1.2,0.1,1.7,0.3
						c0.5,0.2,0.9,0.5,1.3,0.9c0.4,0.4,0.6,0.8,0.9,1.4c0.2,0.5,0.4,1.1,0.4,1.7L124.2-413.4z"/>
				</g>
			</g>
		</g>
		<line class="st14" x1="-105.3" y1="-430" x2="214.7" y2="-430"/>
		<line class="st14" x1="-105.3" y1="-388.9" x2="214.7" y2="-388.9"/>
	</g>
</g>
</svg>
