<?xml version="1.0" encoding="utf-8"?>
<!-- Generator: Adobe Illustrator 21.0.2, SVG Export Plug-In . SVG Version: 6.00 Build 0)  -->
<svg version="1.1" xmlns="http://www.w3.org/2000/svg" xmlns:xlink="http://www.w3.org/1999/xlink" x="0px" y="0px"
	 viewBox="0 0 79.4 104" style="enable-background:new 0 0 79.4 104;" xml:space="preserve">
<style type="text/css">
	.st0{fill:#A29F9D;}
	.st1{fill:#8EBF22;}
	.st2{fill:#FEC92C;}
	.st3{fill:#DA2B18;}
	.st4{fill:#FFFFFF;}
	.st5{fill:#C6C3C2;}
	.st6{fill:#B5E1FA;}
	.st7{fill:#905D24;}
	.st8{fill:#FCD1A0;}
	.st9{fill:#6FBFEB;}
	.st10{fill:#CD6116;}
	.st11{display:none;fill:#FFFFFF;}
	.st12{fill:#D6D4D4;}
	.st13{fill:#5C5856;}
	.st14{fill:none;stroke:#A29F9D;stroke-width:0.2572;stroke-miterlimit:10;}
</style>
<g id="text_1_">
	<g>
		<g>
			<path class="st0" d="M299.7-444h1v3.2h0c0.3-0.7,1.1-1,2-1c1.9,0,2.9,1.5,2.9,3.3c0,1.8-0.9,3.2-2.8,3.2c-0.6,0-1.5-0.2-2-1h0
				v0.8h-1V-444z M302.6-440.8c-1.4,0-1.9,1.2-1.9,2.3c0,1.2,0.6,2.4,2,2.4c1.4,0,1.9-1.2,1.9-2.4
				C304.5-439.7,303.9-440.8,302.6-440.8z"/>
			<path class="st0" d="M312.4-435.4c-0.2,0.1-0.4,0.2-0.7,0.2c-0.5,0-0.9-0.3-0.9-1c-0.6,0.7-1.3,1-2.2,1c-1.1,0-2.1-0.5-2.1-1.7
				c0-1.4,1-1.7,2.1-1.9c1.1-0.2,2.1-0.1,2.1-0.9c0-0.9-0.7-1-1.4-1c-0.9,0-1.5,0.3-1.5,1.2h-1c0.1-1.5,1.2-2.1,2.6-2.1
				c1.1,0,2.3,0.3,2.3,1.7v3.2c0,0.5,0,0.7,0.3,0.7c0.1,0,0.2,0,0.3-0.1V-435.4z M310.8-438.6c-0.4,0.3-1.2,0.3-1.8,0.4
				c-0.7,0.1-1.2,0.4-1.2,1.1c0,0.7,0.6,0.9,1.2,0.9c1.3,0,1.9-0.8,1.9-1.4V-438.6z"/>
			<path class="st0" d="M318.6-435.4h-1v-1h0c-0.4,0.8-1.1,1.1-2,1.1c-1.6,0-2.1-0.9-2.1-2.3v-4.1h1v4.2c0,0.8,0.5,1.2,1.3,1.2
				c1.2,0,1.8-0.8,1.8-1.9v-3.5h1V-435.4z"/>
			<path class="st0" d="M320.3-444h1v3.2h0c0.3-0.7,1.1-1,2-1c1.9,0,2.9,1.5,2.9,3.3c0,1.8-0.9,3.2-2.8,3.2c-0.6,0-1.5-0.2-2-1h0
				v0.8h-1V-444z M323.2-440.8c-1.4,0-1.9,1.2-1.9,2.3c0,1.2,0.6,2.4,2,2.4c1.4,0,1.9-1.2,1.9-2.4
				C325.1-439.7,324.5-440.8,323.2-440.8z"/>
			<path class="st0" d="M327.6-444h1v8.6h-1V-444z"/>
			<path class="st0" d="M335.6-437.4c-0.3,1.4-1.3,2.1-2.7,2.1c-2,0-2.9-1.4-3-3.3c0-1.9,1.2-3.2,2.9-3.2c2.2,0,2.9,2.1,2.8,3.6H331
				c0,1.1,0.6,2,1.9,2c0.8,0,1.4-0.4,1.6-1.2H335.6z M334.6-439.1c0-1-0.8-1.8-1.8-1.8c-1.1,0-1.7,0.8-1.8,1.8H334.6z"/>
		</g>
	</g>
	<g>
		<g>
			<path class="st0" d="M436.6-444h1v3.2h0c0.3-0.7,1.1-1,2-1c1.9,0,2.9,1.5,2.9,3.3c0,1.8-0.9,3.2-2.8,3.2c-0.6,0-1.5-0.2-2-1h0
				v0.8h-1V-444z M439.5-440.8c-1.4,0-1.9,1.2-1.9,2.3c0,1.2,0.6,2.4,2,2.4c1.4,0,1.9-1.2,1.9-2.4
				C441.4-439.7,440.8-440.8,439.5-440.8z"/>
			<path class="st0" d="M449.1-437.4c-0.3,1.4-1.3,2.1-2.7,2.1c-2,0-2.9-1.4-3-3.3c0-1.9,1.2-3.2,2.9-3.2c2.2,0,2.9,2.1,2.8,3.6
				h-4.6c0,1.1,0.6,2,1.9,2c0.8,0,1.4-0.4,1.6-1.2H449.1z M448.1-439.1c0-1-0.8-1.8-1.8-1.8c-1.1,0-1.7,0.8-1.8,1.8H448.1z"/>
			<path class="st0" d="M450.4-444h1v8.6h-1V-444z"/>
			<path class="st0" d="M453.2-444h1v8.6h-1V-444z"/>
		</g>
	</g>
	<g>
		<g>
			<path class="st0" d="M555.3-444h1v3.2h0c0.3-0.7,1.1-1,2-1c1.9,0,2.9,1.5,2.9,3.3c0,1.8-0.9,3.2-2.8,3.2c-0.6,0-1.5-0.2-2-1h0
				v0.8h-1V-444z M558.2-440.8c-1.4,0-1.9,1.2-1.9,2.3c0,1.2,0.6,2.4,2,2.4c1.4,0,1.9-1.2,1.9-2.4
				C560.1-439.7,559.5-440.8,558.2-440.8z"/>
			<path class="st0" d="M562.5-441.6h1v1.3h0c0.5-1,1.2-1.5,2.3-1.5v1.1c-1.6,0-2.2,0.9-2.2,2.5v2.8h-1V-441.6z"/>
			<path class="st0" d="M572.1-435.4c-0.2,0.1-0.4,0.2-0.7,0.2c-0.5,0-0.9-0.3-0.9-1c-0.6,0.7-1.3,1-2.2,1c-1.1,0-2.1-0.5-2.1-1.7
				c0-1.4,1-1.7,2.1-1.9c1.1-0.2,2.1-0.1,2.1-0.9c0-0.9-0.7-1-1.4-1c-0.9,0-1.5,0.3-1.5,1.2h-1c0.1-1.5,1.2-2.1,2.6-2.1
				c1.1,0,2.3,0.3,2.3,1.7v3.2c0,0.5,0,0.7,0.3,0.7c0.1,0,0.2,0,0.3-0.1V-435.4z M570.4-438.6c-0.4,0.3-1.2,0.3-1.8,0.4
				c-0.7,0.1-1.2,0.4-1.2,1.1c0,0.7,0.6,0.9,1.2,0.9c1.3,0,1.9-0.8,1.9-1.4V-438.6z"/>
			<path class="st0" d="M573.2-441.6h1v1h0c0.4-0.8,1.1-1.1,2-1.1c1.6,0,2.1,0.9,2.1,2.3v4.1h-1v-4.2c0-0.8-0.5-1.2-1.3-1.2
				c-1.2,0-1.8,0.8-1.8,1.9v3.5h-1V-441.6z"/>
			<path class="st0" d="M585.5-435.4h-1v-0.8h0c-0.3,0.7-1.1,1-2,1c-1.9,0-2.9-1.5-2.9-3.3c0-1.8,0.9-3.2,2.8-3.2c0.6,0,1.5,0.2,2,1
				h0v-3.2h1V-435.4z M582.6-436.1c1.4,0,1.9-1.2,1.9-2.3c0-1.2-0.6-2.4-2-2.4c-1.4,0-1.9,1.2-1.9,2.4
				C580.7-437.3,581.3-436.1,582.6-436.1z"/>
			<path class="st0" d="M589.6-434.6c-0.5,1.2-0.9,1.7-1.8,1.7c-0.2,0-0.5,0-0.7-0.1v-0.9c0.2,0.1,0.4,0.1,0.6,0.1
				c0.4,0,0.6-0.2,0.8-0.6l0.4-1.1l-2.5-6.2h1.2l1.8,5.1h0l1.7-5.1h1.1L589.6-434.6z"/>
		</g>
	</g>
	<g>
		<g>
			<path class="st0" d="M688.2-439.6c-0.2-0.8-0.7-1.2-1.5-1.2c-1.5,0-1.9,1.2-1.9,2.4c0,1.1,0.5,2.3,1.8,2.3c1,0,1.6-0.6,1.7-1.5h1
				c-0.2,1.5-1.2,2.4-2.7,2.4c-1.9,0-2.9-1.3-2.9-3.2c0-1.9,1-3.3,2.9-3.3c1.4,0,2.5,0.7,2.7,2.1H688.2z"/>
			<path class="st0" d="M696.1-435.4c-0.2,0.1-0.4,0.2-0.7,0.2c-0.5,0-0.9-0.3-0.9-1c-0.6,0.7-1.3,1-2.2,1c-1.1,0-2.1-0.5-2.1-1.7
				c0-1.4,1-1.7,2.1-1.9c1.1-0.2,2.1-0.1,2.1-0.9c0-0.9-0.7-1-1.4-1c-0.9,0-1.5,0.3-1.5,1.2h-1c0.1-1.5,1.2-2.1,2.6-2.1
				c1.1,0,2.3,0.3,2.3,1.7v3.2c0,0.5,0,0.7,0.3,0.7c0.1,0,0.2,0,0.3-0.1V-435.4z M694.4-438.6c-0.4,0.3-1.2,0.3-1.8,0.4
				c-0.7,0.1-1.2,0.4-1.2,1.1c0,0.7,0.6,0.9,1.2,0.9c1.3,0,1.9-0.8,1.9-1.4V-438.6z"/>
			<path class="st0" d="M697.1-441.6h1v1h0c0.4-0.8,1.1-1.1,2-1.1c1.6,0,2.1,0.9,2.1,2.3v4.1h-1v-4.2c0-0.8-0.5-1.2-1.3-1.2
				c-1.2,0-1.8,0.8-1.8,1.9v3.5h-1V-441.6z"/>
			<path class="st0" d="M709.5-435.4h-1v-0.8h0c-0.3,0.7-1.1,1-2,1c-1.9,0-2.9-1.5-2.9-3.3c0-1.8,0.9-3.2,2.8-3.2c0.6,0,1.5,0.2,2,1
				h0v-3.2h1V-435.4z M706.6-436.1c1.4,0,1.9-1.2,1.9-2.3c0-1.2-0.6-2.4-2-2.4c-1.4,0-1.9,1.2-1.9,2.4
				C704.7-437.3,705.3-436.1,706.6-436.1z"/>
			<path class="st0" d="M711.2-444h1v8.6h-1V-444z"/>
			<path class="st0" d="M719.2-437.4c-0.3,1.4-1.3,2.1-2.7,2.1c-2,0-2.9-1.4-3-3.3c0-1.9,1.2-3.2,2.9-3.2c2.2,0,2.9,2.1,2.8,3.6
				h-4.6c0,1.1,0.6,2,1.9,2c0.8,0,1.4-0.4,1.6-1.2H719.2z M718.3-439.1c0-1-0.8-1.8-1.8-1.8c-1.1,0-1.7,0.8-1.8,1.8H718.3z"/>
		</g>
	</g>
	<g>
		<g>
			<path class="st0" d="M802.9-439.6c-0.2-0.8-0.7-1.2-1.5-1.2c-1.5,0-1.9,1.2-1.9,2.4c0,1.1,0.5,2.3,1.8,2.3c1,0,1.6-0.6,1.7-1.5h1
				c-0.2,1.5-1.2,2.4-2.7,2.4c-1.9,0-2.9-1.3-2.9-3.2c0-1.9,1-3.3,2.9-3.3c1.4,0,2.5,0.7,2.7,2.1H802.9z"/>
			<path class="st0" d="M810.7-435.4c-0.2,0.1-0.4,0.2-0.7,0.2c-0.5,0-0.9-0.3-0.9-1c-0.6,0.7-1.3,1-2.2,1c-1.1,0-2.1-0.5-2.1-1.7
				c0-1.4,1-1.7,2.1-1.9c1.1-0.2,2.1-0.1,2.1-0.9c0-0.9-0.7-1-1.4-1c-0.9,0-1.5,0.3-1.5,1.2h-1c0.1-1.5,1.2-2.1,2.6-2.1
				c1.1,0,2.3,0.3,2.3,1.7v3.2c0,0.5,0,0.7,0.3,0.7c0.1,0,0.2,0,0.3-0.1V-435.4z M809.1-438.6c-0.4,0.3-1.2,0.3-1.8,0.4
				c-0.7,0.1-1.2,0.4-1.2,1.1c0,0.7,0.6,0.9,1.2,0.9c1.3,0,1.9-0.8,1.9-1.4V-438.6z"/>
			<path class="st0" d="M811.8-441.6h1v1h0c0.4-0.8,1.1-1.1,2-1.1c1.6,0,2.1,0.9,2.1,2.3v4.1h-1v-4.2c0-0.8-0.5-1.2-1.3-1.2
				c-1.2,0-1.8,0.8-1.8,1.9v3.5h-1V-441.6z"/>
			<path class="st0" d="M824.1-435.4h-1v-0.8h0c-0.3,0.7-1.1,1-2,1c-1.9,0-2.9-1.5-2.9-3.3c0-1.8,0.9-3.2,2.8-3.2c0.6,0,1.5,0.2,2,1
				h0v-3.2h1V-435.4z M821.2-436.1c1.4,0,1.9-1.2,1.9-2.3c0-1.2-0.6-2.4-2-2.4c-1.4,0-1.9,1.2-1.9,2.4
				C819.3-437.3,819.9-436.1,821.2-436.1z"/>
			<path class="st0" d="M828.2-434.6c-0.5,1.2-0.9,1.7-1.8,1.7c-0.2,0-0.5,0-0.7-0.1v-0.9c0.2,0.1,0.4,0.1,0.6,0.1
				c0.4,0,0.6-0.2,0.8-0.6l0.4-1.1l-2.5-6.2h1.2l1.8,5.1h0l1.7-5.1h1.1L828.2-434.6z"/>
			<path class="st0" d="M839.6-439.6c-0.2-0.8-0.7-1.2-1.5-1.2c-1.5,0-1.9,1.2-1.9,2.4c0,1.1,0.5,2.3,1.8,2.3c1,0,1.6-0.6,1.7-1.5h1
				c-0.2,1.5-1.2,2.4-2.7,2.4c-1.9,0-2.9-1.3-2.9-3.2c0-1.9,1-3.3,2.9-3.3c1.4,0,2.5,0.7,2.7,2.1H839.6z"/>
			<path class="st0" d="M847.4-435.4c-0.2,0.1-0.4,0.2-0.7,0.2c-0.5,0-0.9-0.3-0.9-1c-0.6,0.7-1.3,1-2.2,1c-1.1,0-2.1-0.5-2.1-1.7
				c0-1.4,1-1.7,2.1-1.9c1.1-0.2,2.1-0.1,2.1-0.9c0-0.9-0.7-1-1.4-1c-0.9,0-1.5,0.3-1.5,1.2h-1c0.1-1.5,1.2-2.1,2.6-2.1
				c1.1,0,2.3,0.3,2.3,1.7v3.2c0,0.5,0,0.7,0.3,0.7c0.1,0,0.2,0,0.3-0.1V-435.4z M845.8-438.6c-0.4,0.3-1.2,0.3-1.8,0.4
				c-0.7,0.1-1.2,0.4-1.2,1.1c0,0.7,0.6,0.9,1.2,0.9c1.3,0,1.9-0.8,1.9-1.4V-438.6z"/>
			<path class="st0" d="M848.5-441.6h1v1h0c0.4-0.8,1.1-1.1,2-1.1c1.6,0,2.1,0.9,2.1,2.3v4.1h-1v-4.2c0-0.8-0.5-1.2-1.3-1.2
				c-1.2,0-1.8,0.8-1.8,1.9v3.5h-1V-441.6z"/>
			<path class="st0" d="M860.6-437.4c-0.3,1.4-1.3,2.1-2.7,2.1c-2,0-2.9-1.4-3-3.3c0-1.9,1.2-3.2,2.9-3.2c2.2,0,2.9,2.1,2.8,3.6
				h-4.6c0,1.1,0.6,2,1.9,2c0.8,0,1.4-0.4,1.6-1.2H860.6z M859.6-439.1c0-1-0.8-1.8-1.8-1.8c-1.1,0-1.7,0.8-1.8,1.8H859.6z"/>
		</g>
	</g>
	<g>
		<g>
			<path class="st0" d="M302.1-279.6c-0.2-0.8-0.7-1.2-1.5-1.2c-1.5,0-1.9,1.2-1.9,2.4c0,1.1,0.5,2.3,1.8,2.3c1,0,1.6-0.6,1.7-1.5h1
				c-0.2,1.5-1.2,2.4-2.7,2.4c-1.9,0-2.9-1.3-2.9-3.2c0-1.9,1-3.3,2.9-3.3c1.4,0,2.5,0.7,2.7,2.1H302.1z"/>
			<path class="st0" d="M304.4-281.6h1v1.3h0c0.5-1,1.2-1.5,2.3-1.5v1.1c-1.6,0-2.2,0.9-2.2,2.5v2.8h-1V-281.6z"/>
			<path class="st0" d="M314-275.4c-0.2,0.1-0.4,0.2-0.7,0.2c-0.5,0-0.9-0.3-0.9-1c-0.6,0.7-1.3,1-2.2,1c-1.1,0-2.1-0.5-2.1-1.7
				c0-1.4,1-1.7,2.1-1.9c1.1-0.2,2.1-0.1,2.1-0.9c0-0.9-0.7-1-1.4-1c-0.9,0-1.5,0.3-1.5,1.2h-1c0.1-1.5,1.2-2.1,2.6-2.1
				c1.1,0,2.3,0.3,2.3,1.7v3.2c0,0.5,0,0.7,0.3,0.7c0.1,0,0.2,0,0.3-0.1V-275.4z M312.4-278.6c-0.4,0.3-1.2,0.3-1.8,0.4
				c-0.7,0.1-1.2,0.4-1.2,1.1c0,0.7,0.6,0.9,1.2,0.9c1.3,0,1.9-0.8,1.9-1.4V-278.6z"/>
			<path class="st0" d="M319.3-279.6c-0.2-0.8-0.7-1.2-1.5-1.2c-1.5,0-1.9,1.2-1.9,2.4c0,1.1,0.5,2.3,1.8,2.3c1,0,1.6-0.6,1.7-1.5h1
				c-0.2,1.5-1.2,2.4-2.7,2.4c-1.9,0-2.9-1.3-2.9-3.2c0-1.9,1-3.3,2.9-3.3c1.4,0,2.5,0.7,2.7,2.1H319.3z"/>
			<path class="st0" d="M321.7-284h1v5.1l2.8-2.7h1.4l-2.5,2.3l2.6,3.9h-1.3l-2.1-3.2l-1,0.9v2.4h-1V-284z"/>
			<path class="st0" d="M333.3-277.4c-0.3,1.4-1.3,2.1-2.7,2.1c-2,0-2.9-1.4-3-3.3c0-1.9,1.2-3.2,2.9-3.2c2.2,0,2.9,2.1,2.8,3.6
				h-4.6c0,1.1,0.6,2,1.9,2c0.8,0,1.4-0.4,1.6-1.2H333.3z M332.3-279.1c0-1-0.8-1.8-1.8-1.8c-1.1,0-1.7,0.8-1.8,1.8H332.3z"/>
			<path class="st0" d="M334.5-281.6h1v1.3h0c0.5-1,1.2-1.5,2.3-1.5v1.1c-1.6,0-2.2,0.9-2.2,2.5v2.8h-1V-281.6z"/>
		</g>
	</g>
	<g>
		<g>
			<path class="st0" d="M437.6-275.4h-1v-0.8h0c-0.3,0.7-1.1,1-2,1c-1.9,0-2.9-1.5-2.9-3.3c0-1.8,0.9-3.2,2.8-3.2c0.6,0,1.5,0.2,2,1
				h0v-3.2h1V-275.4z M434.7-276.1c1.4,0,1.9-1.2,1.9-2.3c0-1.2-0.6-2.4-2-2.4c-1.4,0-1.9,1.2-1.9,2.4
				C432.8-277.3,433.4-276.1,434.7-276.1z"/>
			<path class="st0" d="M439.2-281.6h1v1.3h0c0.5-1,1.2-1.5,2.3-1.5v1.1c-1.6,0-2.2,0.9-2.2,2.5v2.8h-1V-281.6z"/>
			<path class="st0" d="M448.5-275.4h-1v-1h0c-0.4,0.8-1.1,1.1-2,1.1c-1.6,0-2.1-0.9-2.1-2.3v-4.1h1v4.2c0,0.8,0.5,1.2,1.3,1.2
				c1.2,0,1.8-0.8,1.8-1.9v-3.5h1V-275.4z"/>
			<path class="st0" d="M450.2-281.6h1v0.9h0c0.5-0.7,1.2-1.1,2-1.1c0.8,0,1.5,0.3,1.7,1.1c0.4-0.7,1.2-1.1,1.9-1.1
				c1.2,0,2.1,0.5,2.1,1.8v4.5h-1v-4.1c0-0.8-0.2-1.4-1.2-1.4c-1,0-1.6,0.6-1.6,1.6v3.9h-1v-4.1c0-0.8-0.3-1.4-1.2-1.4
				c-1.2,0-1.7,1.1-1.7,1.6v3.9h-1V-281.6z"/>
		</g>
	</g>
	<g>
		<g>
			<path class="st0" d="M573.1-277.4c-0.3,1.4-1.3,2.1-2.7,2.1c-2,0-2.9-1.4-3-3.3c0-1.9,1.2-3.2,2.9-3.2c2.2,0,2.9,2.1,2.8,3.6
				h-4.6c0,1.1,0.6,2,1.9,2c0.8,0,1.4-0.4,1.6-1.2H573.1z M572.1-279.1c0-1-0.8-1.8-1.8-1.8c-1.1,0-1.7,0.8-1.8,1.8H572.1z"/>
			<path class="st0" d="M574.4-284h1v8.6h-1V-284z"/>
			<path class="st0" d="M577.5-280.7h-1v-0.9h1v-0.9c0-1,0.6-1.5,1.7-1.5c0.2,0,0.5,0,0.7,0.1v0.9c-0.2-0.1-0.4-0.1-0.6-0.1
				c-0.5,0-0.8,0.2-0.8,0.7v0.9h1.2v0.9h-1.2v5.3h-1V-280.7z"/>
		</g>
	</g>
	<g>
		<g>
			<path class="st0" d="M677.7-280.7h-1v-0.9h1v-0.9c0-1,0.6-1.5,1.7-1.5c0.2,0,0.5,0,0.7,0.1v0.9c-0.2-0.1-0.4-0.1-0.6-0.1
				c-0.5,0-0.8,0.2-0.8,0.7v0.9h1.2v0.9h-1.2v5.3h-1V-280.7z"/>
			<path class="st0" d="M686.4-275.4c-0.2,0.1-0.4,0.2-0.7,0.2c-0.5,0-0.9-0.3-0.9-1c-0.6,0.7-1.3,1-2.2,1c-1.1,0-2.1-0.5-2.1-1.7
				c0-1.4,1-1.7,2.1-1.9c1.1-0.2,2.1-0.1,2.1-0.9c0-0.9-0.7-1-1.4-1c-0.9,0-1.5,0.3-1.5,1.2h-1c0.1-1.5,1.2-2.1,2.6-2.1
				c1.1,0,2.3,0.3,2.3,1.7v3.2c0,0.5,0,0.7,0.3,0.7c0.1,0,0.2,0,0.3-0.1V-275.4z M684.8-278.6c-0.4,0.3-1.2,0.3-1.8,0.4
				c-0.7,0.1-1.2,0.4-1.2,1.1c0,0.7,0.6,0.9,1.2,0.9c1.3,0,1.9-0.8,1.9-1.4V-278.6z"/>
			<path class="st0" d="M688.6-282.7h-1v-1.2h1V-282.7z M687.6-281.6h1v6.2h-1V-281.6z"/>
			<path class="st0" d="M690.3-281.6h1v1.3h0c0.5-1,1.2-1.5,2.3-1.5v1.1c-1.6,0-2.2,0.9-2.2,2.5v2.8h-1V-281.6z"/>
			<path class="st0" d="M696.8-274.6c-0.5,1.2-0.9,1.7-1.8,1.7c-0.2,0-0.5,0-0.7-0.1v-0.9c0.2,0.1,0.4,0.1,0.6,0.1
				c0.4,0,0.6-0.2,0.8-0.6l0.4-1.1l-2.5-6.2h1.2l1.8,5.1h0l1.7-5.1h1.1L696.8-274.6z"/>
			<path class="st0" d="M704-284h1v8.6h-1V-284z"/>
			<path class="st0" d="M707.9-282.7h-1v-1.2h1V-282.7z M706.8-281.6h1v6.2h-1V-281.6z"/>
			<path class="st0" d="M714.9-275.9c0,2-0.9,3-2.9,3c-1.2,0-2.5-0.5-2.6-1.8h1c0,0.7,0.9,1,1.6,1c1.3,0,1.9-1,1.9-2.4v-0.4h0
				c-0.3,0.8-1.2,1.1-1.9,1.1c-1.8,0-2.8-1.5-2.8-3.1c0-1.5,0.7-3.3,2.9-3.3c0.8,0,1.5,0.3,1.8,1h0v-0.9h1V-275.9z M713.9-278.6
				c0-1.1-0.5-2.2-1.8-2.2c-1.3,0-1.8,1.1-1.8,2.3c0,1.1,0.4,2.4,1.8,2.4S713.9-277.5,713.9-278.6z"/>
			<path class="st0" d="M716.6-284h1v3.3h0c0.3-0.7,1.2-1.1,2-1.1c1.6,0,2.1,0.9,2.1,2.3v4.1h-1v-4.2c0-0.8-0.5-1.2-1.3-1.2
				c-1.2,0-1.8,0.8-1.8,1.9v3.5h-1V-284z"/>
			<path class="st0" d="M724.8-281.6h1.2v0.9h-1.2v3.9c0,0.5,0.1,0.6,0.8,0.6h0.5v0.9h-0.8c-1.1,0-1.5-0.2-1.5-1.4v-3.9h-1.1v-0.9
				h1.1v-1.9h1V-281.6z"/>
		</g>
	</g>
	<g>
		<g>
			<path class="st0" d="M826.9-275.9c0,2-0.9,3-2.9,3c-1.2,0-2.5-0.5-2.6-1.8h1c0,0.7,0.9,1,1.6,1c1.3,0,1.9-1,1.9-2.4v-0.4h0
				c-0.3,0.8-1.2,1.1-1.9,1.1c-1.8,0-2.8-1.5-2.8-3.1c0-1.5,0.7-3.3,2.9-3.3c0.8,0,1.5,0.3,1.8,1h0v-0.9h1V-275.9z M825.9-278.6
				c0-1.1-0.5-2.2-1.8-2.2c-1.3,0-1.8,1.1-1.8,2.3c0,1.1,0.4,2.4,1.8,2.4C825.4-276.2,825.9-277.5,825.9-278.6z"/>
			<path class="st0" d="M829.7-282.7h-1v-1.2h1V-282.7z M828.7-281.6h1v6.2h-1V-281.6z"/>
			<path class="st0" d="M831.8-280.7h-1v-0.9h1v-0.9c0-1,0.6-1.5,1.7-1.5c0.2,0,0.5,0,0.7,0.1v0.9c-0.2-0.1-0.4-0.1-0.6-0.1
				c-0.5,0-0.8,0.2-0.8,0.7v0.9h1.2v0.9h-1.2v5.3h-1V-280.7z"/>
			<path class="st0" d="M836.5-281.6h1.2v0.9h-1.2v3.9c0,0.5,0.1,0.6,0.8,0.6h0.5v0.9h-0.8c-1.1,0-1.5-0.2-1.5-1.4v-3.9h-1.1v-0.9
				h1.1v-1.9h1V-281.6z"/>
		</g>
	</g>
	<g>
		<g>
			<path class="st0" d="M277.2-115.9c0,2-0.9,3-2.9,3c-1.2,0-2.5-0.5-2.6-1.8h1c0,0.7,0.9,1,1.6,1c1.3,0,1.9-1,1.9-2.4v-0.4h0
				c-0.3,0.8-1.2,1.1-1.9,1.1c-1.8,0-2.8-1.5-2.8-3.1c0-1.5,0.7-3.3,2.9-3.3c0.8,0,1.5,0.3,1.8,1h0v-0.9h1V-115.9z M276.2-118.6
				c0-1.1-0.5-2.2-1.8-2.2c-1.3,0-1.8,1.1-1.8,2.3c0,1.1,0.4,2.4,1.8,2.4C275.7-116.2,276.2-117.5,276.2-118.6z"/>
			<path class="st0" d="M279.9-122.7h-1v-1.2h1V-122.7z M278.9-121.6h1v6.2h-1V-121.6z"/>
			<path class="st0" d="M281.6-121.6h1v1h0c0.4-0.8,1.1-1.1,2-1.1c1.6,0,2.1,0.9,2.1,2.3v4.1h-1v-4.2c0-0.8-0.5-1.2-1.3-1.2
				c-1.2,0-1.8,0.8-1.8,1.9v3.5h-1V-121.6z"/>
			<path class="st0" d="M293.7-115.9c0,2-0.9,3-2.9,3c-1.2,0-2.5-0.5-2.6-1.8h1c0,0.7,0.9,1,1.6,1c1.3,0,1.9-1,1.9-2.4v-0.4h0
				c-0.3,0.8-1.2,1.1-1.9,1.1c-1.8,0-2.8-1.5-2.8-3.1c0-1.5,0.7-3.3,2.9-3.3c0.8,0,1.5,0.3,1.8,1h0v-0.9h1V-115.9z M292.7-118.6
				c0-1.1-0.5-2.2-1.8-2.2c-1.3,0-1.8,1.1-1.8,2.3c0,1.1,0.4,2.4,1.8,2.4C292.2-116.2,292.7-117.5,292.7-118.6z"/>
			<path class="st0" d="M300.7-117.4c-0.3,1.4-1.3,2.1-2.7,2.1c-2,0-2.9-1.4-3-3.3c0-1.9,1.2-3.2,2.9-3.2c2.2,0,2.9,2.1,2.8,3.6
				h-4.6c0,1.1,0.6,2,1.9,2c0.8,0,1.4-0.4,1.6-1.2H300.7z M299.7-119.1c0-1-0.8-1.8-1.8-1.8c-1.1,0-1.7,0.8-1.8,1.8H299.7z"/>
			<path class="st0" d="M301.9-121.6h1v1.3h0c0.5-1,1.2-1.5,2.3-1.5v1.1c-1.6,0-2.2,0.9-2.2,2.5v2.8h-1V-121.6z"/>
			<path class="st0" d="M306.1-124h1v3.2h0c0.3-0.7,1.1-1,2-1c1.9,0,2.9,1.5,2.9,3.3c0,1.8-0.9,3.2-2.8,3.2c-0.6,0-1.5-0.2-2-1h0
				v0.8h-1V-124z M309-120.8c-1.4,0-1.9,1.2-1.9,2.3c0,1.2,0.6,2.4,2,2.4c1.4,0,1.9-1.2,1.9-2.4C310.9-119.7,310.3-120.8,309-120.8z
				"/>
			<path class="st0" d="M313.3-121.6h1v1.3h0c0.5-1,1.2-1.5,2.3-1.5v1.1c-1.6,0-2.2,0.9-2.2,2.5v2.8h-1V-121.6z"/>
			<path class="st0" d="M322.5-117.4c-0.3,1.4-1.3,2.1-2.7,2.1c-2,0-2.9-1.4-3-3.3c0-1.9,1.2-3.2,2.9-3.2c2.2,0,2.9,2.1,2.8,3.6H318
				c0,1.1,0.6,2,1.9,2c0.8,0,1.4-0.4,1.6-1.2H322.5z M321.5-119.1c0-1-0.8-1.8-1.8-1.8c-1.1,0-1.7,0.8-1.8,1.8H321.5z"/>
			<path class="st0" d="M329.3-115.4c-0.2,0.1-0.4,0.2-0.7,0.2c-0.5,0-0.9-0.3-0.9-1c-0.6,0.7-1.3,1-2.2,1c-1.1,0-2.1-0.5-2.1-1.7
				c0-1.4,1-1.7,2.1-1.9c1.1-0.2,2.1-0.1,2.1-0.9c0-0.9-0.7-1-1.4-1c-0.9,0-1.5,0.3-1.5,1.2h-1c0.1-1.5,1.2-2.1,2.6-2.1
				c1.1,0,2.3,0.3,2.3,1.7v3.2c0,0.5,0,0.7,0.3,0.7c0.1,0,0.2,0,0.3-0.1V-115.4z M327.6-118.6c-0.4,0.3-1.2,0.3-1.8,0.4
				c-0.7,0.1-1.2,0.4-1.2,1.1c0,0.7,0.6,0.9,1.2,0.9c1.3,0,1.9-0.8,1.9-1.4V-118.6z"/>
			<path class="st0" d="M335.9-115.4h-1v-0.8h0c-0.3,0.7-1.1,1-2,1c-1.9,0-2.9-1.5-2.9-3.3c0-1.8,0.9-3.2,2.8-3.2c0.6,0,1.5,0.2,2,1
				h0v-3.2h1V-115.4z M333-116.1c1.4,0,1.9-1.2,1.9-2.3c0-1.2-0.6-2.3-2-2.3c-1.4,0-1.9,1.2-1.9,2.4
				C331.1-117.3,331.7-116.1,333-116.1z"/>
			<path class="st0" d="M341-121.6h1v0.9h0c0.5-0.7,1.2-1.1,2-1.1c0.8,0,1.5,0.3,1.7,1.1c0.4-0.7,1.2-1.1,1.9-1.1
				c1.2,0,2.1,0.5,2.1,1.8v4.5h-1v-4.1c0-0.8-0.2-1.4-1.2-1.4c-1,0-1.6,0.6-1.6,1.6v3.9h-1v-4.1c0-0.8-0.3-1.4-1.2-1.4
				c-1.2,0-1.7,1.1-1.7,1.6v3.9h-1V-121.6z"/>
			<path class="st0" d="M356.9-115.4c-0.2,0.1-0.4,0.2-0.7,0.2c-0.5,0-0.9-0.3-0.9-1c-0.6,0.7-1.3,1-2.2,1c-1.1,0-2.1-0.5-2.1-1.7
				c0-1.4,1-1.7,2.1-1.9c1.1-0.2,2.1-0.1,2.1-0.9c0-0.9-0.7-1-1.4-1c-0.9,0-1.5,0.3-1.5,1.2h-1c0.1-1.5,1.2-2.1,2.6-2.1
				c1.1,0,2.3,0.3,2.3,1.7v3.2c0,0.5,0,0.7,0.3,0.7c0.1,0,0.2,0,0.3-0.1V-115.4z M355.2-118.6c-0.4,0.3-1.2,0.3-1.8,0.4
				c-0.7,0.1-1.2,0.4-1.2,1.1c0,0.7,0.6,0.9,1.2,0.9c1.3,0,1.9-0.8,1.9-1.4V-118.6z"/>
			<path class="st0" d="M358-121.6h1v1h0c0.4-0.8,1.1-1.1,2-1.1c1.6,0,2.1,0.9,2.1,2.3v4.1h-1v-4.2c0-0.8-0.5-1.2-1.3-1.2
				c-1.2,0-1.8,0.8-1.8,1.9v3.5h-1V-121.6z"/>
		</g>
	</g>
	<g>
		<g>
			<path class="st0" d="M433.5-124h1v3.3h0c0.3-0.7,1.2-1.1,2-1.1c1.6,0,2.1,0.9,2.1,2.3v4.1h-1v-4.2c0-0.8-0.5-1.2-1.3-1.2
				c-1.2,0-1.8,0.8-1.8,1.9v3.5h-1V-124z"/>
			<path class="st0" d="M443-121.7c2,0,3,1.4,3,3.3c0,1.8-1,3.2-3,3.2c-2,0-3-1.4-3-3.2C440-120.3,441-121.7,443-121.7z M443-116.1
				c1.1,0,1.9-0.8,1.9-2.3c0-1.5-0.9-2.3-1.9-2.3c-1.1,0-1.9,0.8-1.9,2.3C441.1-117,441.9-116.1,443-116.1z"/>
			<path class="st0" d="M447.4-124h1v8.6h-1V-124z"/>
			<path class="st0" d="M450.2-124h1v8.6h-1V-124z"/>
			<path class="st0" d="M455.3-114.6c-0.5,1.2-0.9,1.7-1.8,1.7c-0.2,0-0.5,0-0.7-0.1v-0.9c0.2,0.1,0.4,0.1,0.6,0.1
				c0.4,0,0.6-0.2,0.8-0.6l0.4-1.1l-2.5-6.2h1.2l1.8,5.1h0l1.7-5.1h1.1L455.3-114.6z"/>
		</g>
	</g>
	<g>
		<g>
			<path class="st0" d="M545.1-121.6h1v1h0c0.4-0.8,1.1-1.1,2-1.1c1.6,0,2.1,0.9,2.1,2.3v4.1h-1v-4.2c0-0.8-0.5-1.2-1.3-1.2
				c-1.2,0-1.8,0.8-1.8,1.9v3.5h-1V-121.6z"/>
			<path class="st0" d="M557.1-115.4h-1v-1h0c-0.4,0.8-1.1,1.1-2,1.1c-1.6,0-2.1-0.9-2.1-2.3v-4.1h1v4.2c0,0.8,0.5,1.2,1.3,1.2
				c1.2,0,1.8-0.8,1.8-1.9v-3.5h1V-115.4z"/>
			<path class="st0" d="M560.1-121.6h1.2v0.9h-1.2v3.9c0,0.5,0.1,0.6,0.8,0.6h0.5v0.9h-0.8c-1.1,0-1.5-0.2-1.5-1.4v-3.9h-1.1v-0.9
				h1.1v-1.9h1V-121.6z"/>
			<path class="st0" d="M566.8-119.6c-0.2-0.8-0.7-1.2-1.5-1.2c-1.5,0-1.9,1.2-1.9,2.4c0,1.1,0.5,2.3,1.8,2.3c1,0,1.6-0.6,1.7-1.5h1
				c-0.2,1.5-1.2,2.4-2.7,2.4c-1.9,0-2.9-1.3-2.9-3.2c0-1.9,1-3.3,2.9-3.3c1.4,0,2.5,0.7,2.7,2.1H566.8z"/>
			<path class="st0" d="M569.1-121.6h1v1.3h0c0.5-1,1.2-1.5,2.3-1.5v1.1c-1.6,0-2.2,0.9-2.2,2.5v2.8h-1V-121.6z"/>
			<path class="st0" d="M578.8-115.4c-0.2,0.1-0.4,0.2-0.7,0.2c-0.5,0-0.9-0.3-0.9-1c-0.6,0.7-1.3,1-2.2,1c-1.1,0-2.1-0.5-2.1-1.7
				c0-1.4,1-1.7,2.1-1.9c1.1-0.2,2.1-0.1,2.1-0.9c0-0.9-0.7-1-1.4-1c-0.9,0-1.5,0.3-1.5,1.2h-1c0.1-1.5,1.2-2.1,2.6-2.1
				c1.1,0,2.3,0.3,2.3,1.7v3.2c0,0.5,0,0.7,0.3,0.7c0.1,0,0.2,0,0.3-0.1V-115.4z M577.1-118.6c-0.4,0.3-1.2,0.3-1.8,0.4
				c-0.7,0.1-1.2,0.4-1.2,1.1c0,0.7,0.6,0.9,1.2,0.9c1.3,0,1.9-0.8,1.9-1.4V-118.6z"/>
			<path class="st0" d="M584.1-119.6c-0.2-0.8-0.7-1.2-1.5-1.2c-1.5,0-1.9,1.2-1.9,2.4c0,1.1,0.5,2.3,1.8,2.3c1,0,1.6-0.6,1.7-1.5h1
				c-0.2,1.5-1.2,2.4-2.7,2.4c-1.9,0-2.9-1.3-2.9-3.2c0-1.9,1-3.3,2.9-3.3c1.4,0,2.5,0.7,2.7,2.1H584.1z"/>
			<path class="st0" d="M586.5-124h1v5.1l2.8-2.7h1.4l-2.5,2.3l2.6,3.9h-1.3l-2.1-3.2l-1,0.9v2.4h-1V-124z"/>
			<path class="st0" d="M598.1-117.4c-0.3,1.4-1.3,2.1-2.7,2.1c-2,0-2.9-1.4-3-3.3c0-1.9,1.2-3.2,2.9-3.2c2.2,0,2.9,2.1,2.8,3.6
				h-4.6c0,1.1,0.6,2,1.9,2c0.8,0,1.4-0.4,1.6-1.2H598.1z M597.1-119.1c0-1-0.8-1.8-1.8-1.8c-1.1,0-1.7,0.8-1.8,1.8H597.1z"/>
			<path class="st0" d="M599.3-121.6h1v1.3h0c0.5-1,1.2-1.5,2.3-1.5v1.1c-1.6,0-2.2,0.9-2.2,2.5v2.8h-1V-121.6z"/>
		</g>
	</g>
	<g>
		<g>
			<path class="st0" d="M679.8-121.6h1v0.8h0c0.3-0.7,1.1-1,2-1c1.9,0,2.9,1.5,2.9,3.3c0,1.8-0.9,3.2-2.8,3.2c-0.6,0-1.5-0.2-2-1h0
				v3.2h-1V-121.6z M682.6-120.8c-1.4,0-1.9,1.2-1.9,2.3c0,1.2,0.6,2.4,2,2.4c1.4,0,1.9-1.2,1.9-2.4
				C684.6-119.7,684-120.8,682.6-120.8z"/>
			<path class="st0" d="M692.1-115.4h-1v-1h0c-0.4,0.8-1.1,1.1-2,1.1c-1.6,0-2.1-0.9-2.1-2.3v-4.1h1v4.2c0,0.8,0.5,1.2,1.3,1.2
				c1.2,0,1.8-0.8,1.8-1.9v-3.5h1V-115.4z"/>
			<path class="st0" d="M699.3-115.4h-1v-0.8h0c-0.3,0.7-1.1,1-2,1c-1.9,0-2.9-1.5-2.9-3.3c0-1.8,0.9-3.2,2.8-3.2c0.6,0,1.5,0.2,2,1
				h0v-3.2h1V-115.4z M696.4-116.1c1.4,0,1.9-1.2,1.9-2.3c0-1.2-0.6-2.3-2-2.3c-1.4,0-1.9,1.2-1.9,2.4
				C694.5-117.3,695.1-116.1,696.4-116.1z"/>
			<path class="st0" d="M706.5-115.4h-1v-0.8h0c-0.3,0.7-1.1,1-2,1c-1.9,0-2.9-1.5-2.9-3.3c0-1.8,0.9-3.2,2.8-3.2c0.6,0,1.5,0.2,2,1
				h0v-3.2h1V-115.4z M703.7-116.1c1.4,0,1.9-1.2,1.9-2.3c0-1.2-0.6-2.3-2-2.3c-1.4,0-1.9,1.2-1.9,2.4
				C701.7-117.3,702.3-116.1,703.7-116.1z"/>
			<path class="st0" d="M709.3-122.7h-1v-1.2h1V-122.7z M708.3-121.6h1v6.2h-1V-121.6z"/>
			<path class="st0" d="M711-121.6h1v1h0c0.4-0.8,1.1-1.1,2-1.1c1.6,0,2.1,0.9,2.1,2.3v4.1h-1v-4.2c0-0.8-0.5-1.2-1.3-1.2
				c-1.2,0-1.8,0.8-1.8,1.9v3.5h-1V-121.6z"/>
			<path class="st0" d="M723.1-115.9c0,2-0.9,3-2.9,3c-1.2,0-2.5-0.5-2.6-1.8h1c0,0.7,0.9,1,1.6,1c1.3,0,1.9-1,1.9-2.4v-0.4h0
				c-0.3,0.8-1.2,1.1-1.9,1.1c-1.8,0-2.8-1.5-2.8-3.1c0-1.5,0.7-3.3,2.9-3.3c0.8,0,1.5,0.3,1.8,1h0v-0.9h1V-115.9z M722.1-118.6
				c0-1.1-0.5-2.2-1.8-2.2c-1.3,0-1.8,1.1-1.8,2.3c0,1.1,0.4,2.4,1.8,2.4C721.6-116.2,722.1-117.5,722.1-118.6z"/>
		</g>
	</g>
	<g>
		<g>
			<path class="st0" d="M817.9-115.4h-1.1l-1.3-4.9h0l-1.2,4.9h-1.1l-2-6.2h1.1l1.4,5.1h0l1.2-5.1h1.1l1.3,5.1h0l1.4-5.1h1.1
				L817.9-115.4z"/>
			<path class="st0" d="M821-121.6h1v1.3h0c0.5-1,1.2-1.5,2.3-1.5v1.1c-1.6,0-2.2,0.9-2.2,2.5v2.8h-1V-121.6z"/>
			<path class="st0" d="M830.2-117.4c-0.3,1.4-1.3,2.1-2.7,2.1c-2,0-2.9-1.4-3-3.3c0-1.9,1.2-3.2,2.9-3.2c2.2,0,2.9,2.1,2.8,3.6
				h-4.6c0,1.1,0.6,2,1.9,2c0.8,0,1.4-0.4,1.6-1.2H830.2z M829.2-119.1c0-1-0.8-1.8-1.8-1.8c-1.1,0-1.7,0.8-1.8,1.8H829.2z"/>
			<path class="st0" d="M837-115.4c-0.2,0.1-0.4,0.2-0.7,0.2c-0.5,0-0.9-0.3-0.9-1c-0.6,0.7-1.3,1-2.2,1c-1.1,0-2.1-0.5-2.1-1.7
				c0-1.4,1-1.7,2.1-1.9c1.1-0.2,2.1-0.1,2.1-0.9c0-0.9-0.7-1-1.4-1c-0.9,0-1.5,0.3-1.5,1.2h-1c0.1-1.5,1.2-2.1,2.6-2.1
				c1.1,0,2.3,0.3,2.3,1.7v3.2c0,0.5,0,0.7,0.3,0.7c0.1,0,0.2,0,0.3-0.1V-115.4z M835.3-118.6c-0.4,0.3-1.2,0.3-1.8,0.4
				c-0.7,0.1-1.2,0.4-1.2,1.1c0,0.7,0.6,0.9,1.2,0.9c1.3,0,1.9-0.8,1.9-1.4V-118.6z"/>
			<path class="st0" d="M839.5-121.6h1.2v0.9h-1.2v3.9c0,0.5,0.1,0.6,0.8,0.6h0.5v0.9h-0.8c-1.1,0-1.5-0.2-1.5-1.4v-3.9h-1.1v-0.9
				h1.1v-1.9h1V-121.6z"/>
			<path class="st0" d="M841.9-124h1v3.3h0c0.3-0.7,1.2-1.1,2-1.1c1.6,0,2.1,0.9,2.1,2.3v4.1h-1v-4.2c0-0.8-0.5-1.2-1.3-1.2
				c-1.2,0-1.8,0.8-1.8,1.9v3.5h-1V-124z"/>
		</g>
	</g>
	<g>
		<g>
			<path class="st0" d="M300.7,38.4h1v1.3h0c0.5-1,1.2-1.5,2.3-1.5v1.1c-1.6,0-2.2,0.9-2.2,2.5v2.8h-1V38.4z"/>
			<path class="st0" d="M305.9,37.3h-1V36h1V37.3z M304.9,38.4h1v6.2h-1V38.4z"/>
			<path class="st0" d="M307.6,36h1v3.2h0c0.3-0.7,1.1-1,2-1c1.9,0,2.9,1.5,2.9,3.3c0,1.8-0.9,3.2-2.8,3.2c-0.6,0-1.5-0.2-2-1h0v0.8
				h-1V36z M310.5,39.2c-1.4,0-1.9,1.2-1.9,2.3c0,1.2,0.6,2.4,2,2.4c1.4,0,1.9-1.2,1.9-2.4C312.4,40.3,311.8,39.2,310.5,39.2z"/>
			<path class="st0" d="M314.9,36h1v3.2h0c0.3-0.7,1.1-1,2-1c1.9,0,2.9,1.5,2.9,3.3c0,1.8-0.9,3.2-2.8,3.2c-0.6,0-1.5-0.2-2-1h0v0.8
				h-1V36z M317.7,39.2c-1.4,0-1.9,1.2-1.9,2.3c0,1.2,0.6,2.4,2,2.4c1.4,0,1.9-1.2,1.9-2.4C319.7,40.3,319.1,39.2,317.7,39.2z"/>
			<path class="st0" d="M324.7,38.3c2,0,3,1.4,3,3.3c0,1.8-1,3.2-3,3.2c-2,0-3-1.4-3-3.2C321.7,39.7,322.8,38.3,324.7,38.3z
				 M324.7,43.9c1.1,0,1.9-0.8,1.9-2.3c0-1.5-0.9-2.3-1.9-2.3s-1.9,0.8-1.9,2.3C322.8,43,323.7,43.9,324.7,43.9z"/>
			<path class="st0" d="M329.1,38.4h1v1h0c0.4-0.8,1.1-1.1,2-1.1c1.6,0,2.1,0.9,2.1,2.3v4.1h-1v-4.2c0-0.8-0.5-1.2-1.3-1.2
				c-1.2,0-1.8,0.8-1.8,1.9v3.5h-1V38.4z"/>
		</g>
	</g>
	<g>
		<g>
			<path class="st0" d="M420.5,42.7c0,0.9,0.8,1.2,1.7,1.2c0.6,0,1.5-0.1,1.5-0.9c0-0.8-1-0.9-2-1.2c-1-0.2-2-0.6-2-1.8
				c0-1.2,1.2-1.8,2.3-1.8c1.4,0,2.5,0.4,2.5,1.9h-1c-0.1-0.8-0.8-1-1.4-1c-0.6,0-1.3,0.2-1.3,0.8c0,0.7,1.1,0.9,2,1.1
				c1,0.2,2,0.6,2,1.8c0,1.5-1.4,2-2.6,2c-1.4,0-2.6-0.6-2.6-2.1H420.5z"/>
			<path class="st0" d="M426,38.4h1v1h0c0.4-0.8,1.1-1.1,2-1.1c1.6,0,2.1,0.9,2.1,2.3v4.1h-1v-4.2c0-0.8-0.5-1.2-1.3-1.2
				c-1.2,0-1.8,0.8-1.8,1.9v3.5h-1V38.4z"/>
			<path class="st0" d="M435.4,38.3c2,0,3,1.4,3,3.3c0,1.8-1,3.2-3,3.2c-2,0-3-1.4-3-3.2C432.4,39.7,433.5,38.3,435.4,38.3z
				 M435.4,43.9c1.1,0,1.9-0.8,1.9-2.3c0-1.5-0.9-2.3-1.9-2.3c-1.1,0-1.9,0.8-1.9,2.3C433.5,43,434.4,43.9,435.4,43.9z"/>
			<path class="st0" d="M445.9,44.6h-1.1l-1.3-4.9h0l-1.2,4.9h-1.1l-2-6.2h1.1l1.4,5.1h0l1.2-5.1h1.1l1.3,5.1h0l1.4-5.1h1.1
				L445.9,44.6z"/>
			<path class="st0" d="M449,38.4h1v0.9h0c0.5-0.7,1.2-1.1,2-1.1c0.8,0,1.5,0.3,1.7,1.1c0.4-0.7,1.2-1.1,1.9-1.1
				c1.2,0,2.1,0.5,2.1,1.8v4.5h-1v-4.1c0-0.8-0.2-1.4-1.2-1.4c-1,0-1.6,0.6-1.6,1.6v3.9h-1v-4.1c0-0.8-0.3-1.4-1.2-1.4
				c-1.2,0-1.7,1.1-1.7,1.6v3.9h-1V38.4z"/>
			<path class="st0" d="M464.8,44.6c-0.2,0.1-0.4,0.2-0.7,0.2c-0.5,0-0.9-0.3-0.9-1c-0.6,0.7-1.3,1-2.2,1c-1.1,0-2.1-0.5-2.1-1.7
				c0-1.4,1-1.7,2.1-1.9c1.1-0.2,2.1-0.1,2.1-0.9c0-0.9-0.7-1-1.4-1c-0.9,0-1.5,0.3-1.5,1.2h-1c0.1-1.5,1.2-2.1,2.6-2.1
				c1.1,0,2.3,0.3,2.3,1.7v3.2c0,0.5,0,0.7,0.3,0.7c0.1,0,0.2,0,0.3-0.1V44.6z M463.2,41.4c-0.4,0.3-1.2,0.3-1.8,0.4
				c-0.7,0.1-1.2,0.4-1.2,1.1c0,0.7,0.6,0.9,1.2,0.9c1.3,0,1.9-0.8,1.9-1.4V41.4z"/>
			<path class="st0" d="M465.9,38.4h1v1h0c0.4-0.8,1.1-1.1,2-1.1c1.6,0,2.1,0.9,2.1,2.3v4.1h-1v-4.2c0-0.8-0.5-1.2-1.3-1.2
				c-1.2,0-1.8,0.8-1.8,1.9v3.5h-1V38.4z"/>
		</g>
	</g>
	<g>
		<g>
			<path class="st0" d="M564.6,42.7c0,0.9,0.8,1.2,1.7,1.2c0.6,0,1.5-0.1,1.5-0.9c0-0.8-1-0.9-2-1.2c-1-0.2-2-0.6-2-1.8
				c0-1.2,1.2-1.8,2.3-1.8c1.4,0,2.5,0.4,2.5,1.9h-1c-0.1-0.8-0.8-1-1.4-1c-0.6,0-1.3,0.2-1.3,0.8c0,0.7,1.1,0.9,2,1.1
				c1,0.2,2,0.6,2,1.8c0,1.5-1.4,2-2.6,2c-1.4,0-2.6-0.6-2.6-2.1H564.6z"/>
			<path class="st0" d="M571.5,38.4h1.2v0.9h-1.2v3.9c0,0.5,0.1,0.6,0.8,0.6h0.5v0.9h-0.8c-1.1,0-1.5-0.2-1.5-1.4v-3.9h-1.1v-0.9
				h1.1v-1.9h1V38.4z"/>
			<path class="st0" d="M579.5,44.6c-0.2,0.1-0.4,0.2-0.7,0.2c-0.5,0-0.9-0.3-0.9-1c-0.6,0.7-1.3,1-2.2,1c-1.1,0-2.1-0.5-2.1-1.7
				c0-1.4,1-1.7,2.1-1.9c1.1-0.2,2.1-0.1,2.1-0.9c0-0.9-0.7-1-1.4-1c-0.9,0-1.5,0.3-1.5,1.2h-1c0.1-1.5,1.2-2.1,2.6-2.1
				c1.1,0,2.3,0.3,2.3,1.7v3.2c0,0.5,0,0.7,0.3,0.7c0.1,0,0.2,0,0.3-0.1V44.6z M577.8,41.4c-0.4,0.3-1.2,0.3-1.8,0.4
				c-0.7,0.1-1.2,0.4-1.2,1.1c0,0.7,0.6,0.9,1.2,0.9c1.3,0,1.9-0.8,1.9-1.4V41.4z"/>
			<path class="st0" d="M580.5,38.4h1v1.3h0c0.5-1,1.2-1.5,2.3-1.5v1.1c-1.6,0-2.2,0.9-2.2,2.5v2.8h-1V38.4z"/>
		</g>
	</g>
	<g>
		<g>
			<path class="st0" d="M679.6,42.7c0,0.9,0.8,1.2,1.7,1.2c0.6,0,1.5-0.1,1.5-0.9c0-0.8-1-0.9-2-1.2c-1-0.2-2-0.6-2-1.8
				c0-1.2,1.2-1.8,2.3-1.8c1.4,0,2.5,0.4,2.5,1.9h-1c-0.1-0.8-0.8-1-1.4-1c-0.6,0-1.3,0.2-1.3,0.8c0,0.7,1.1,0.9,2,1.1
				c1,0.2,2,0.6,2,1.8c0,1.5-1.4,2-2.6,2c-1.4,0-2.6-0.6-2.6-2.1H679.6z"/>
			<path class="st0" d="M686.5,38.4h1.2v0.9h-1.2v3.9c0,0.5,0.1,0.6,0.8,0.6h0.5v0.9H687c-1.1,0-1.5-0.2-1.5-1.4v-3.9h-1.1v-0.9h1.1
				v-1.9h1V38.4z"/>
			<path class="st0" d="M691.7,38.3c2,0,3,1.4,3,3.3c0,1.8-1,3.2-3,3.2c-2,0-3-1.4-3-3.2C688.7,39.7,689.7,38.3,691.7,38.3z
				 M691.7,43.9c1.1,0,1.9-0.8,1.9-2.3c0-1.5-0.9-2.3-1.9-2.3c-1.1,0-1.9,0.8-1.9,2.3C689.8,43,690.6,43.9,691.7,43.9z"/>
			<path class="st0" d="M700.2,40.4c-0.2-0.8-0.7-1.2-1.5-1.2c-1.5,0-1.9,1.2-1.9,2.4c0,1.1,0.5,2.3,1.8,2.3c1,0,1.6-0.6,1.7-1.5h1
				c-0.2,1.5-1.2,2.4-2.7,2.4c-1.9,0-2.9-1.3-2.9-3.2c0-1.9,1-3.3,2.9-3.3c1.4,0,2.5,0.7,2.7,2.1H700.2z"/>
			<path class="st0" d="M702.7,36h1v5.1l2.8-2.7h1.4l-2.5,2.3l2.6,3.9h-1.3l-2.1-3.2l-1,0.9v2.4h-1V36z"/>
			<path class="st0" d="M710,37.3h-1V36h1V37.3z M709,38.4h1v6.2h-1V38.4z"/>
			<path class="st0" d="M711.7,38.4h1v1h0c0.4-0.8,1.1-1.1,2-1.1c1.6,0,2.1,0.9,2.1,2.3v4.1h-1v-4.2c0-0.8-0.5-1.2-1.3-1.2
				c-1.2,0-1.8,0.8-1.8,1.9v3.5h-1V38.4z"/>
			<path class="st0" d="M723.9,44.1c0,2-0.9,3-2.9,3c-1.2,0-2.5-0.5-2.6-1.8h1c0,0.7,0.9,1,1.6,1c1.3,0,1.9-1,1.9-2.4v-0.4h0
				c-0.3,0.8-1.2,1.1-1.9,1.1c-1.8,0-2.8-1.5-2.8-3.1c0-1.5,0.7-3.3,2.9-3.3c0.8,0,1.5,0.3,1.8,1h0v-0.9h1V44.1z M722.9,41.4
				c0-1.1-0.5-2.2-1.8-2.2c-1.3,0-1.8,1.1-1.8,2.3c0,1.1,0.4,2.4,1.8,2.4C722.4,43.8,722.9,42.5,722.9,41.4z"/>
		</g>
	</g>
	<g>
		<g>
			<path class="st0" d="M821.2,38.4h1.2v0.9h-1.2v3.9c0,0.5,0.1,0.6,0.8,0.6h0.5v0.9h-0.8c-1.1,0-1.5-0.2-1.5-1.4v-3.9h-1.1v-0.9
				h1.1v-1.9h1V38.4z"/>
			<path class="st0" d="M823.7,38.4h1v1.3h0c0.5-1,1.2-1.5,2.3-1.5v1.1c-1.6,0-2.2,0.9-2.2,2.5v2.8h-1V38.4z"/>
			<path class="st0" d="M832.9,42.6c-0.3,1.4-1.3,2.1-2.7,2.1c-2,0-2.9-1.4-3-3.3c0-1.9,1.2-3.2,2.9-3.2c2.2,0,2.9,2.1,2.8,3.6h-4.6
				c0,1.1,0.6,2,1.9,2c0.8,0,1.4-0.4,1.6-1.2H832.9z M831.9,40.9c0-1-0.8-1.8-1.8-1.8c-1.1,0-1.7,0.8-1.8,1.8H831.9z"/>
			<path class="st0" d="M839.5,42.6c-0.3,1.4-1.3,2.1-2.7,2.1c-2,0-2.9-1.4-3-3.3c0-1.9,1.2-3.2,2.9-3.2c2.2,0,2.9,2.1,2.8,3.6h-4.6
				c0,1.1,0.6,2,1.9,2c0.8,0,1.4-0.4,1.6-1.2H839.5z M838.5,40.9c0-1-0.8-1.8-1.8-1.8c-1.1,0-1.7,0.8-1.8,1.8H838.5z"/>
		</g>
	</g>
</g>
<g id="icons">
	<g id="tree_2_">
		<path id="tree_3_" class="st1" d="M857.8-5.5c-0.1,0.1-6.4,13-19.6,13.4l-0.7,4.7c0,0.1,0,0.1,0,0.2c0,0.1-1.1,2.3-3.7,2.3H825
			c-2.6,0-3.6-2.2-3.7-2.3c0-0.1,0-0.1,0-0.2l-0.7-4.7C807.4,7.6,801.1-5.3,801-5.5c-0.1-0.2-0.1-0.5,0.1-0.7
			c0.2-0.2,0.4-0.2,0.7-0.1c1.5,0.6,3,0.9,4.4,0.9c4.7,0,7.8-3.3,9.1-4.9c-5-0.8-8.6-6.8-8.8-7c-0.1-0.2-0.1-0.4,0-0.6
			c0.1-0.2,0.3-0.3,0.5-0.3c6,0,10.2-2.8,12-4.4c-6.6-0.6-7.9-4.9-8-5.1c0-0.2,0-0.4,0.1-0.5c0.1-0.1,0.3-0.2,0.5-0.2
			c9.1,0,17.2-17.3,17.2-17.4c0.2-0.4,0.9-0.4,1.1,0c0.1,0.2,8.1,17.4,17.2,17.4c0.2,0,0.4,0.1,0.5,0.2c0.1,0.1,0.1,0.3,0.1,0.5
			c-0.1,0.2-1.4,4.6-8,5.1c1.8,1.5,6.1,4.4,12,4.4c0.2,0,0.4,0.1,0.5,0.3c0.1,0.2,0.1,0.4,0,0.6c-0.2,0.3-3.7,6.2-8.8,7
			c1.2,1.6,4.4,4.9,9.1,4.9c1.4,0,2.9-0.3,4.4-0.9c0.2-0.1,0.5,0,0.7,0.1C857.9-5.9,857.9-5.7,857.8-5.5z"/>
		<path id="star_3_" class="st2" d="M826.5-53c0.3,0.3,0.5,0.8,0.4,1.2l-1,3.3c-0.1,0.4,0.1,0.5,0.4,0.3l2.5-2
			c0.3-0.3,0.9-0.3,1.2,0l2.5,2c0.3,0.3,0.5,0.1,0.4-0.3l-1-3.3c-0.1-0.4,0.1-1,0.4-1.2l2.6-2c0.3-0.3,0.3-0.5-0.2-0.5h-3.1
			c-0.4,0-0.9-0.3-1-0.8l-1-3.4c-0.1-0.4-0.3-0.4-0.5,0l-1,3.4c-0.1,0.4-0.6,0.8-1,0.8h-3.1c-0.4,0-0.5,0.2-0.2,0.5L826.5-53z"/>
	</g>
	<g id="stocking_2_">
		<path class="st3" d="M707.3-36.2c-3.2-3.2-8.5-3.2-11.7,0l-14.1,14.1c-4.9,4.9-6.2,9.2-6.6,13.3c-0.4,4.1,1.7,10.2,4.8,13.6
			l1.9,2.1c3.1,3.3,9.7,7.9,12.6,8.1c2.9,0.1,6.9-4.3,7.3-7.1c0.5-2.7-2-6.2-2-8.5c0-2.2,2.6-6.7,5.8-9.9l8-8
			c3.2-3.2,3.2-8.5,0-11.7L707.3-36.2z"/>
		<path class="st4" d="M682.9-2c-0.2-0.1-0.3-0.2-0.5-0.3c-0.6-0.6-0.6-1.7,0-2.3c1.8-1.8,2.7-3.7,2.7-5.7c0-3.4-2.6-6-2.6-6.1
			c-0.6-0.6-0.7-1.7,0-2.3c0.6-0.6,1.7-0.7,2.3,0c0.1,0.1,3.6,3.6,3.6,8.4c0,2.9-1.2,5.6-3.7,8C684.3-1.8,683.5-1.7,682.9-2z"/>
		<g id="top_1_">
			<path class="st4" d="M722.6-17.3c-2.9,2.9-7.7,2.9-10.6,0l-17.7-17.7c-2.9-2.9-2.9-7.7,0-10.6l3.1-3.1c2.9-2.9,7.7-2.9,10.6,0
				L725.7-31c2.9,2.9,2.9,7.7,0,10.6L722.6-17.3z"/>
			<ellipse class="st4" cx="703.3" cy="-53.9" rx="2.3" ry="4.5"/>
			<path class="st5" d="M725.7-31l-17.7-17.7c-0.5-0.5-1.1-0.9-1.7-1.3c0.5-1.1,0.8-2.4,0.8-4c0-2.8-1.1-5.2-2.7-5.9
				c-0.4-0.2-0.8-0.3-1.2-0.3c-2.3,0-3.9,2.6-3.9,6.2c0,1.3,0.2,2.6,0.7,3.6c-0.9,0.4-1.8,0.9-2.6,1.7l-3.1,3.1
				c-2.9,2.9-2.9,7.7,0,10.6L712-17.3c0.6,0.6,1.4,1.1,2.1,1.5c2.8,1.3,6.2,0.8,8.5-1.5l3.1-3.1C728.7-23.3,728.7-28.1,725.7-31z
				 M703.3-56.6c0.3,0.4,0.6,1.3,0.6,2.7c0,1.4-0.4,2.3-0.6,2.7c-0.3-0.4-0.6-1.3-0.6-2.7C702.7-55.3,703-56.2,703.3-56.6z
				 M723.4-22.8l-3.1,3.1c-1.2,1.2-3.1,1.6-4.7,0.8c-0.4-0.2-0.8-0.5-1.2-0.8l-17.7-17.7c-0.8-0.8-1.2-1.8-1.2-3
				c0-1.1,0.4-2.2,1.2-3l3.1-3.1c1.2-1.2,3.1-1.6,4.7-0.8c0.4,0.2,0.8,0.5,1.2,0.8l17.7,17.7c0.8,0.8,1.2,1.8,1.2,3
				C724.6-24.6,724.2-23.5,723.4-22.8z"/>
		</g>
	</g>
	<path id="star_2_" class="st2" d="M538.4-28.9l16.3,12.8c2.2,1.7,3.3,5.2,2.5,7.9l-6.1,20.7c-0.8,2.6,0.3,3.4,2.5,1.7l16-12.5
		c2.1-1.7,5.7-1.7,7.9,0l16.1,12.5c2.1,1.7,3.3,0.9,2.5-1.7l-6.3-20.8c-0.8-2.6,0.3-6.2,2.5-7.9l16.2-12.7c2.2-1.7,1.7-3.1-1.1-3.1
		h-19.7c-2.7,0-5.6-2.1-6.4-4.8L574.9-58c-0.8-2.6-2.1-2.6-2.9,0l-6.3,21.2c-0.8,2.6-3.7,4.8-6.4,4.8h-19.8
		C536.7-32,536.3-30.6,538.4-28.9z"/>
	<g id="snowman_1_">
		<path id="snowman_4_" class="st6" d="M458.3-17.9c0.3,0.3,6.4,6.5,8.9,14.5c5.9-7.4-10.3-22.4-12.5-24.4c2-2.2,3.3-5.1,3.3-8.4
			c0-1.6-0.3-3.1-0.9-4.6c-0.8,0.9-2,1.5-3.4,1.5H437c-1.3,0-2.3-0.5-3.1-1.3c-0.5,1.4-0.8,2.9-0.8,4.4c0,3.2,1.2,6.1,3.2,8.3
			c-1.7,1.4-18.3,15.7-12.6,24.3c2.6-7.9,8.5-13.9,8.8-14.3c0.5-0.5,1.2-0.5,1.7,0c0.5,0.5,0.5,1.2,0,1.7c-0.1,0.1-8.7,8.9-9.2,18.5
			c0,0.2,0,0.4,0,0.6c0,0.3,0,0.7,0,1c0.2,4.9,2.7,11.2,14.3,11.2h4.6h3.3h4.6c11.4,0,14-6.1,14.2-10.9c0-0.5,0-0.9,0-1.4
			c0-0.1,0-0.2,0-0.4c-0.5-9.7-9.2-18.5-9.2-18.6c-0.5-0.5-0.5-1.2,0-1.7C457.1-18.4,457.8-18.4,458.3-17.9z M439.2-34.3
			c-1,0-1.8-0.8-1.8-1.8c0-1,0.8-1.8,1.8-1.8c1,0,1.8,0.8,1.8,1.8C441-35.1,440.2-34.3,439.2-34.3z M445.2-34.5
			c1.3,0,2.4,1.1,2.4,2.4c0,0.4-0.1,0.8-0.3,1.1l0,0l-2.1,3.6l-2.1-3.6l0,0c-0.2-0.3-0.3-0.7-0.3-1.1
			C442.9-33.4,443.9-34.5,445.2-34.5z M445.5,4.8c-1.3,0-2.4-1.1-2.4-2.4c0-1.3,1.1-2.4,2.4-2.4c1.3,0,2.4,1.1,2.4,2.4
			C447.8,3.8,446.8,4.8,445.5,4.8z M445.5-6.2c-1.3,0-2.4-1.1-2.4-2.4c0-1.3,1.1-2.4,2.4-2.4c1.3,0,2.4,1.1,2.4,2.4
			C447.8-7.3,446.8-6.2,445.5-6.2z M445.5-17.2c-1.3,0-2.4-1.1-2.4-2.4c0-1.3,1.1-2.4,2.4-2.4c1.3,0,2.4,1.1,2.4,2.4
			C447.8-18.3,446.8-17.2,445.5-17.2z M451.7-34.3c-1,0-1.8-0.8-1.8-1.8c0-1,0.8-1.8,1.8-1.8c1,0,1.8,0.8,1.8,1.8
			C453.4-35.1,452.6-34.3,451.7-34.3z"/>
		<g id="hat_5_">
			<g>
				<path class="st4" d="M461.6-46.4c-1.6,0-2.9,1-3.3,2.4c0-2.6-2-4.8-4.6-4.8H437c-2.6,0-4.4,2.1-4.4,4.8c0,2.6,1.7,4.8,4.4,4.8
					h16.6c2.2,0,3.9-1.5,4.4-3.5c0.1,1.9,1.6,3.4,3.5,3.4c2,0,3.6-1.6,3.6-3.6C465.1-44.8,463.5-46.4,461.6-46.4z"/>
				<path class="st5" d="M461.6-46.5c-1.5,0-2.8,0.9-3.3,2.3c-0.1-2.5-2.1-4.6-4.6-4.6H437c-2.6,0-4.4,2.1-4.4,4.8
					c0,2.6,1.7,4.8,4.4,4.8h16.7c2.1,0,3.8-1.4,4.4-3.3c0.2,1.8,1.7,3.3,3.6,3.3c2,0,3.6-1.6,3.6-3.6
					C465.2-44.9,463.6-46.5,461.6-46.5z M453.6-40.4H437c-1.9,0-3.3-1.5-3.3-3.7c0-2.2,1.3-3.7,3.3-3.7h16.7c2,0,3.5,1.6,3.5,3.7
					C457.2-42,455.6-40.4,453.6-40.4z M461.6-40.5c-1.3,0-2.4-1.1-2.4-2.4c0-1.3,1.1-2.4,2.4-2.4c1.3,0,2.4,1.1,2.4,2.4
					C464-41.6,462.9-40.5,461.6-40.5z"/>
			</g>
			<path class="st3" d="M432.6-44c0-0.1,0-0.1,0-0.2C432.6-44.1,432.6-44.1,432.6-44C432.6-44,432.6-44,432.6-44z M459.5-45.8
				c-3.7-5.1-11.6-15-16.4-14.1c-4.5,0.9-6,7.2-6.5,11.1c-0.1,0-0.2,0-0.2,0.1c0.2,0,0.4-0.1,0.6-0.1h16.7c2.6,0,4.5,2,4.6,4.6
				C458.5-44.9,459-45.4,459.5-45.8z"/>
		</g>
	</g>
	<path id="ribbon_3_" class="st3" d="M355-51c0-0.4,0-0.8,0-1.2c0-5.2-11.1-16.9-37.5,5.8c-26.4-22.8-37.5-11-37.5-5.8
		c0,0.4,0,0.8,0,1.2c-0.1-0.4-0.1-0.8-0.1-1.2v24.8c0,8.4,10.2,9.7,20,8.9L287.7,7.6c-0.5,1.1,0,1.7,1.2,1.3l5.8-2.1
		c1.2-0.4,2.5,0.2,2.9,1.3l2.1,5.8c0.4,1.2,1.2,1.2,1.7,0.1l15.9-34.2l12.5,34.4c0.4,1.2,1.2,1.2,1.7,0.1l2.6-5.5
		c0.5-1.1,1.9-1.6,3-1.1l5.5,2.6c1.1,0.5,1.7,0,1.3-1.2l-10.1-27.7c10.1,1,21.2,0,21.2-8.8v-24.8C355-51.8,355-51.4,355-51z
		 M285.9-51.8c4.5-8.3,24.2,7,24.2,7S281.5-43.8,285.9-51.8z M317.4-23.8c-4.2,0-7.5-3.4-7.5-7.5s3.4-7.5,7.5-7.5
		c4.2,0,7.5,3.4,7.5,7.5S321.6-23.8,317.4-23.8z M324.8-44.8c0,0,19.7-15.3,24.2-7C353.4-43.8,324.8-44.8,324.8-44.8z"/>
	<g id="Reef_1_">
		<path class="st1" d="M858-191.4c0-15.8-12.8-28.6-28.6-28.6c-15.8,0-28.6,12.8-28.6,28.6c0,7.6,3,14.6,7.9,19.7v-5.3h0v0
			c0-1.6,0.8-3.2,2.2-4.5c0.9-0.8,2.4-1.7,4.5-2c-1.4-2.4-2.1-5.1-2.1-8c0-8.9,7.2-16.1,16.1-16.1c8.9,0,16.1,7.2,16.1,16.1
			c0,2.9-0.8,5.6-2.1,8c4.2,0.5,6.7,3.6,6.7,6.4v0h0v5.3C855-176.8,858-183.7,858-191.4z M808.7-189.9c-0.5,2.1-2.7,2.1-3.2,0
			c-2.1-0.5-2.1-2.7,0-3.2c0.5-2.1,2.7-2.1,3.2,0C810.8-192.6,810.8-190.4,808.7-189.9z M814-204.2c-0.5,2.1-2.7,2.1-3.2,0
			c-2.1-0.5-2.1-2.7,0-3.2c0.5-2.2,2.7-2.1,3.2,0C816.1-206.9,816.1-204.7,814-204.2z M831.1-212.1c-0.5,2.1-2.7,2.1-3.2,0
			c-2.1-0.5-2.1-2.7,0-3.2c0.5-2.1,2.7-2.1,3.2,0C833.2-214.8,833.2-212.6,831.1-212.1z M848.1-204.2c-0.5,2.1-2.7,2.1-3.2,0
			c-2.1-0.5-2.1-2.7,0-3.2c0.5-2.2,2.7-2.1,3.2,0C850.3-206.9,850.3-204.7,848.1-204.2z M850.2-189.8c-2.1-0.5-2.1-2.7,0-3.2
			c0.5-2.2,2.7-2.1,3.2,0c2.1,0.5,2.1,2.7,0,3.2C852.9-187.6,850.7-187.6,850.2-189.8z"/>
		<path class="st3" d="M847.3-176.4c0-0.2,0-0.4,0-0.6c0-0.1,0-0.2,0-0.3c0,0,0-0.1,0-0.1c0-0.1,0-0.1,0-0.2c0,0,0-0.1,0-0.1
			c0-0.1,0-0.1-0.1-0.2c0,0,0-0.1,0-0.1c0-0.1,0-0.1-0.1-0.2c0,0,0-0.1-0.1-0.1c0-0.1-0.1-0.1-0.1-0.2c0,0,0-0.1-0.1-0.1
			c0-0.1-0.1-0.1-0.1-0.2c0,0-0.1-0.1-0.1-0.1c0-0.1-0.1-0.1-0.1-0.2c0,0-0.1-0.1-0.1-0.1c-0.1-0.1-0.1-0.1-0.2-0.2
			c0,0-0.1-0.1-0.1-0.1c-0.1-0.1-0.2-0.1-0.2-0.2c0,0-0.1,0-0.1-0.1c-0.2-0.2-0.5-0.3-0.8-0.5c0,0-0.1,0-0.1,0
			c-0.1,0-0.2-0.1-0.3-0.1c-0.1,0-0.1,0-0.2-0.1c-0.1,0-0.2-0.1-0.3-0.1c-0.1,0-0.1,0-0.2-0.1c-0.1,0-0.2,0-0.3-0.1
			c-0.1,0-0.2,0-0.2,0c-0.1,0-0.2,0-0.3,0c-0.1,0-0.2,0-0.3,0c-0.1,0-0.2,0-0.3,0c-0.1,0-0.1,0-0.2,0c0,0-0.1,0-0.1,0
			c-2.7,0-6.6,1.4-11.7,5.7c-0.3,0.2-0.6,0.5-0.9,0.7c-0.3-0.3-0.6-0.5-0.9-0.7c-5.2-4.2-9-5.6-11.7-5.7c0,0-0.1,0-0.1,0
			c-0.1,0-0.1,0-0.2,0c-0.1,0-0.2,0-0.3,0c-0.1,0-0.2,0-0.3,0c-0.1,0-0.2,0-0.3,0c-0.1,0-0.2,0-0.2,0c-0.1,0-0.2,0-0.3,0.1
			c-0.1,0-0.1,0-0.2,0.1c-0.1,0-0.2,0.1-0.3,0.1c-0.1,0-0.1,0-0.2,0.1c-0.1,0-0.2,0.1-0.3,0.1c0,0-0.1,0-0.1,0.1
			c-0.1,0.1-0.3,0.1-0.4,0.2c0,0,0,0,0,0c-0.1,0.1-0.2,0.1-0.3,0.2c0,0-0.1,0.1-0.1,0.1c-0.1,0.1-0.1,0.1-0.2,0.2
			c0,0-0.1,0.1-0.1,0.1c-0.1,0.1-0.1,0.1-0.2,0.2c0,0-0.1,0.1-0.1,0.1c0,0.1-0.1,0.1-0.1,0.2c0,0-0.1,0.1-0.1,0.1
			c0,0.1-0.1,0.1-0.1,0.2c0,0-0.1,0.1-0.1,0.1c0,0.1-0.1,0.1-0.1,0.2c0,0,0,0.1-0.1,0.1c0,0.1-0.1,0.1-0.1,0.2c0,0,0,0.1,0,0.1
			c0,0.1,0,0.1-0.1,0.2c0,0,0,0.1,0,0.1c0,0.1,0,0.1,0,0.2c0,0,0,0.1,0,0.1c0,0.1,0,0.2,0,0.3c0,0.2,0,0.4,0,0.6c0-0.2,0-0.4,0-0.6
			v7.9v3.9c0,4,4.9,4.6,9.5,4.2l-5.8,12.4c-0.2,0.5,0,0.8,0.6,0.6l2.7-1c0.6-0.2,1.2,0.1,1.4,0.6l1,2.7c0.2,0.6,0.6,0.6,0.8,0
			l7.6-16.2l6,16.3c0.2,0.6,0.6,0.6,0.8,0l1.2-2.6c0.2-0.5,0.9-0.8,1.4-0.5l2.6,1.2c0.5,0.2,0.8,0,0.6-0.6l-4.8-13.2
			c4.8,0.5,10.1,0,10.1-4.2v-3.9v-7.9C847.3-176.7,847.3-176.6,847.3-176.4z M814.5-176.7c2.2-3.9,11.5,3.3,11.5,3.3
			S812.4-172.9,814.5-176.7z M829.4-163.4c-2,0-3.6-1.6-3.6-3.6c0-2,1.6-3.6,3.6-3.6s3.6,1.6,3.6,3.6
			C833-165,831.4-163.4,829.4-163.4z M832.9-173.4c0,0,9.4-7.3,11.5-3.3C846.5-172.9,832.9-173.4,832.9-173.4z"/>
	</g>
	<g id="pudding_1_">
		<path id="pudding_3_" class="st7" d="M41.9,38C25,38,11.3,54.3,11.3,71.2v12.5c0,0,0.4,10.2,30.8,10.2c30.4,0,30.4-10.2,30.4-10.2
			V71.2C72.5,54.3,58.8,38,41.9,38z"/>
		<path id="icing_1_" class="st4" d="M41.9,43.3c-11.6,0-22.4,10.2-24.8,22.6l0.1,0.4c0.4,3.2,1.9,5.8,3.3,5.8c1.4,0,2.8-2.4,3-5.3
			c0.3-2.9,1.1-5.3,1.9-5.4c0.7-0.1,1.5,2.5,1.8,5.7l0.7,9.2c0.2,3.2,1.8,5.8,3.6,5.8c1.7,0,3.4-2.6,3.7-5.8l1.2-12.5
			c0.3-3.2,1.7-6,3.1-6.3c1.4-0.2,3,2.2,3.4,5.4l1.4,10.2c0.4,3.2,2.2,5.8,3.9,5.7c1.7-0.1,3.6-2.7,4.1-5.9l0.3-1.9
			c0.5-3.2,2.4-5.8,4.2-5.8c1.8,0,3.7,2.4,4.3,5.4c0.6,3,2.1,5.4,3.4,5.4c1.2,0,2.5-2.6,2.8-5.8l0.1-1
			C66.1,55.4,54.6,43.3,41.9,43.3z"/>
		<g id="leaves_3_">
			<g>
				<path class="st1" d="M38.9,39.6c-1.9-4,0.1-10,0.1-10.1c0.1-0.3,0.1-0.7-0.1-0.9c-0.2-0.3-0.5-0.5-0.8-0.5
					c-0.9-0.1-3.4-0.6-4.5-1.7c-1.1-1.1-1.5-3.5-1.6-4.3c0-0.3-0.2-0.6-0.5-0.8c-0.3-0.2-0.6-0.2-0.9-0.1c-0.1,0-8.1,2.6-11.7-1
					c-0.4-0.4-1.1-0.4-1.5,0c-0.4,0.4-0.4,1.1,0,1.5c3.6,3.6,1,11.6,1,11.7c-0.1,0.3-0.1,0.7,0.1,0.9c0.2,0.3,0.5,0.5,0.8,0.5
					c0.9,0.1,3.3,0.5,4.4,1.6c1.1,1.1,1.6,3.6,1.7,4.5c0,0.3,0.2,0.6,0.5,0.8c0.3,0.2,0.6,0.2,0.9,0.1c0.1,0,5.6-1.8,9.5-0.3
					L38.9,39.6z"/>
				<path class="st1" d="M51.2,36.8c-0.2-0.7-0.5-2.7,0.1-3.8c0.5-1.1,2.2-2.1,2.8-2.3c0.2-0.1,0.4-0.3,0.5-0.6
					c0.1-0.3,0-0.5-0.2-0.7c0-0.1-4.1-5.3-2.4-9c0.2-0.4,0-0.9-0.4-1.2c-0.4-0.2-0.9,0-1.2,0.4c-1.7,3.7-8.4,3.9-8.5,3.9
					c-0.3,0-0.5,0.1-0.7,0.3c-0.2,0.2-0.2,0.5-0.1,0.7c0.2,0.7,0.5,2.6,0,3.7c-0.5,1.1-2.3,2.2-2.9,2.5c-0.2,0.1-0.4,0.3-0.5,0.6
					c-0.1,0.3,0,0.5,0.2,0.7c0,0,2.8,3.7,2.8,7c0.2-0.6,2.5,0.7,2.2,1.3c0,0.1-0.1,0.1-0.1,0.2c2.5-2.5,7.5-2.7,7.6-2.7
					c0.3,0,0.5-0.1,0.7-0.3C51.2,37.3,51.3,37,51.2,36.8z"/>
			</g>
		</g>
		<g id="berries_3_">
			<g>
				<circle class="st4" cx="44.7" cy="37" r="2.6"/>
				<path class="st3" d="M44.7,34.4c1.4,0,2.6,1.2,2.6,2.6c0,1.4-1.2,2.6-2.6,2.6s-2.6-1.2-2.6-2.6C42.1,35.6,43.2,34.4,44.7,34.4
					 M44.7,29.2c-4.3,0-7.9,3.5-7.9,7.9c0,4.3,3.5,7.9,7.9,7.9c4.3,0,7.9-3.5,7.9-7.9C52.5,32.7,49,29.2,44.7,29.2L44.7,29.2z"/>
			</g>
			<g>
				<circle class="st4" cx="36.4" cy="40.5" r="2.6"/>
				<path class="st3" d="M36.4,37.9c1.4,0,2.6,1.2,2.6,2.6c0,1.4-1.2,2.6-2.6,2.6c-1.4,0-2.6-1.2-2.6-2.6
					C33.8,39.1,35,37.9,36.4,37.9 M36.4,32.6c-4.3,0-7.9,3.5-7.9,7.9c0,4.3,3.5,7.9,7.9,7.9s7.9-3.5,7.9-7.9
					C44.3,36.2,40.8,32.6,36.4,32.6L36.4,32.6z"/>
			</g>
		</g>
	</g>
	<g id="nutcracker_2_">
		<g id="face_3_">
			<g id="head_3_">
				<path class="st4" d="M591-174h-35.3c-1.4,2.8-2.3,5.9-2.3,9.2c0,11,8.9,19.9,19.9,19.9c11,0,19.9-8.9,19.9-19.9
					C593.3-168.1,592.5-171.2,591-174z"/>
				<path class="st8" d="M591-174h-3.1c1.7,2.7,2.7,5.8,2.7,9.2c0,9.5-7.8,17.3-17.3,17.3c-9.5,0-17.3-7.7-17.3-17.3
					c0-3.4,1-6.5,2.7-9.2h-3.1c-1.4,2.8-2.3,5.9-2.3,9.2c0,11,8.9,19.9,19.9,19.9c11,0,19.9-8.9,19.9-19.9
					C593.3-168.1,592.5-171.2,591-174z"/>
			</g>
			<polygon id="nose_3_" class="st8" points="575.3,-160.9 571.4,-160.9 572.7,-174.4 574,-174.4 			"/>
			<g id="eyes_3_">
				<g>
					<g>
						<circle class="st9" cx="563.5" cy="-169.2" r="2.5"/>
						<circle class="st9" cx="583.6" cy="-169.2" r="2.5"/>
					</g>
				</g>
			</g>
			<path id="tash_1_" class="st10" d="M578.9-164.8c-3.8,0-5.5,3.3-5.5,3.3s-1.7-3.3-5.5-3.3c-3.8,0-12.6,11.3-22.4,1.5
				c0,0,1.6,11,20.7,11c0,0,5.3-0.5,7.2-2.3c1.9,1.9,7.2,2.3,7.2,2.3c19.1,0,20.7-11,20.7-11C591.5-153.4,582.7-164.8,578.9-164.8z"
				/>
		</g>
		<g id="hat_4_">
			<path class="st3" d="M573.4-184.2l-14.3,1.6v-15.1l14.3,10.2l14.3-10.2v15.1L573.4-184.2z M573.4-181.5l-18.2,2v5.5h36.3v-5.5
				L573.4-181.5z M573.4-194.4l14.3-10.2v-4.4c0,0-3.7-2.2-14.2-2.2c-10.5,0-14.4,2.2-14.4,2.2v4.4L573.4-194.4z"/>
			<circle class="st2" cx="573.4" cy="-216.5" r="3.3"/>
		</g>
	</g>
	<g id="holy_1_">
		<path id="leaves_2_" class="st1" d="M477.9-175.6c-0.1,0.1-7.7,9.3-4.8,16c0.3,0.8,0,1.7-0.8,2c-0.8,0.3-1.7,0-2-0.8
			c-2.9-6.7-14.8-7.5-14.9-7.5c-0.5,0-0.9-0.3-1.2-0.7c-0.3-0.4-0.3-0.9-0.2-1.3c0.1-0.4,0.3-0.9,0.4-1.6c0.1-0.1,0.2-0.1,0.3-0.2
			c1.7-0.9,3-2.4,3.4-4.3c0.4-1.9,0-3.8-1.2-5.3c-1-1.3-3.1-4.5-4.5-7.9c0.2-0.4,0.4-0.8,0.5-1.2c1,0.3,2,0.5,3.1,0.5
			c3.6,0,6.7-1.8,8.5-4.5c3.5,1.1,6.7,1.4,6.8,1.4c0.5,0,0.9,0.3,1.2,0.6c0.3,0.4,0.4,0.9,0.2,1.3c-0.3,1.2-1,4.8-0.1,6.8
			c0.9,2,3.9,3.9,4.9,4.5c0.4,0.2,0.7,0.6,0.8,1.1C478.3-176.5,478.2-176,477.9-175.6z M453.4-176.8c0-0.1-2-2.6-3.8-6.1v0
			c-1.5-2.8-2.8-6.4-3.1-9.8c-0.3,0.3-0.6,0.5-0.9,0.7c-0.4,0.7-0.7,1.5-1.2,2.2c-0.9,1.5-1.9,3-2.7,4.5c-1.7,3-3.4,6.1-5.2,9
			c-1.8,3-3.6,6-5.5,8.9c-0.2,0.3-0.4,0.4-0.5,0.2c-0.1-0.1-0.1-0.3,0-0.5c1-3.3,2.2-6.7,3.3-10c1.1-3.3,2.3-6.6,3.6-9.8
			c0.3-0.9,0.6-1.8,0.9-2.7c-2.1-0.3-4.1-1.2-5.6-2.6c-5,1.5-9.7,1.7-9.8,1.7c-0.6,0-1.2,0.3-1.6,0.8c-0.4,0.5-0.5,1.2-0.4,1.8
			c0.4,1.6,1.1,6.6-0.2,9.4c-1.3,2.8-5.4,5.1-6.8,5.8c-0.6,0.3-1,0.8-1.2,1.4c-0.2,0.6,0,1.3,0.4,1.8c0.1,0.1,10.2,13.1,5.9,22.1
			c-0.5,1.1,0,2.3,1,2.8c1.1,0.5,2.3,0,2.8-1c4.2-9,20.6-9.7,20.8-9.7c0.6,0,1.2-0.3,1.6-0.8c0.4-0.5,0.5-1.2,0.4-1.8
			c-0.4-1.6-1.2-6.4,0.1-9.1c1.3-2.7,5.5-5.3,7-6.1c0.6-0.3,1-0.8,1.1-1.4C454-175.6,453.8-176.3,453.4-176.8z"/>
		<g id="berries_2_">
			<g>
				<path class="st3" d="M450.1-198.3c0,2.5,1.6,4.6,3.8,5.4l0,0c0,0,0,0,0,0c0.3,0.1,0.6,0.2,0.9,0.2c0.3,0.1,0.7,0.1,1,0.1
					c0.4,0,0.7,0,1.1-0.1c0,0,0.1,0,0.1,0c0.3-0.1,0.6-0.2,0.9-0.3c0.1,0,0.2-0.1,0.3-0.1c0.2-0.1,0.4-0.2,0.6-0.3
					c0.5-0.3,0.9-0.6,1.3-1.1c0,0,0,0,0,0v0c0.9-1,1.5-2.3,1.5-3.8c0-3.2-2.6-5.7-5.7-5.7S450.1-201.5,450.1-198.3z"/>
				<path class="st3" d="M438.7-194.7c0.3,0.1,0.6,0.1,0.9,0.1c0.1,0,0.2,0,0.3,0l0,0c3-0.2,5.4-2.6,5.4-5.7c0-3.2-2.6-5.7-5.7-5.7
					c-3.2,0-5.7,2.6-5.7,5.7C433.9-197.5,436-195.2,438.7-194.7z"/>
				<circle class="st3" cx="449.9" cy="-214.1" r="5.7"/>
			</g>
		</g>
	</g>
	<path id="gingerbread_man_1_" class="st10" d="M334.5-193.3c0-0.7,0.1-1.4,0.2-2c5.1-1.9,8,1.3,8,1.3c3.5,3.5,2.4,6.9-0.3,9.7
		C337.9-184.9,334.5-188.7,334.5-193.3z M329.9-147.9c3.2,3.1,7.2,4.8,11.5,0.5c2.7-2.7,2.4-6,0.9-9.2c-0.7-0.1-1.4-0.2-2.1-0.2
		C334.9-156.9,330.6-153,329.9-147.9z M302.9-205.3c0-8,6.5-14.5,14.5-14.5c8,0,14.5,6.5,14.5,14.5c0,5.8-3.4,10.8-8.4,13.1
		c-0.3-0.3-0.7-0.3-1.1-0.2l-1.4,0.5c-0.8,0.3-2.1,0.5-3,0.5h-1.3c-0.8,0-2.2-0.2-3-0.5l-1.4-0.5c-0.4-0.2-0.8-0.1-1.1,0.2
		C306.3-194.5,302.9-199.5,302.9-205.3z M320.6-208.7c0,0.2,0,0.4,0.1,0.6c0,0.2,0.2,0.3,0.4,0.3c0,0,0,0,0,0c0.2,0,0.4-0.1,0.4-0.3
		c0.2-1.3,1.3-2.2,2.6-2.2c1.3,0,2.4,0.9,2.6,2.2c0,0.2,0.2,0.3,0.4,0.3c0,0,0,0,0,0c0.2,0,0.4-0.1,0.4-0.3c0-0.2,0.1-0.4,0.1-0.6
		c0-1.9-1.6-3.5-3.5-3.5C322.1-212.2,320.6-210.6,320.6-208.7z M317.4-203.5c-4.6,0-8.4-0.5-8.4,1.6c0,2.1,3.8,6,8.4,6
		c4.6,0,8.4-3.9,8.4-6C325.9-204,322.1-203.5,317.4-203.5z M307.3-208.7c0,0.2,0,0.4,0.1,0.6c0,0.2,0.2,0.3,0.4,0.3c0,0,0,0,0,0
		c0.2,0,0.4-0.1,0.4-0.3c0.2-1.3,1.3-2.2,2.6-2.2c1.3,0,2.4,0.9,2.6,2.2c0,0.2,0.2,0.3,0.4,0.3c0,0,0,0,0,0c0.2,0,0.4-0.1,0.4-0.3
		c0-0.2,0.1-0.4,0.1-0.6c0-1.9-1.6-3.5-3.5-3.5C308.8-212.2,307.3-210.6,307.3-208.7z M302.3-193.3c0,5-3.4,9.3-8.1,10.5
		c4.3,3.4,10.2,5.7,10.2,5.7l0.1,7.5c0,0-0.8,0.6-2.1,1.6c2,1.6,4.7,3.1,6.9,2.2c2.5-1,5.3-5.5,5-20.9c-0.2,0-0.4,0.1-0.5,0.2
		l-1.4,0.5c-0.8,0.3-1.4-0.2-1.4-1v-2.8c-3-1.4-6.2-3-8.2-4.2c-0.1-0.1-0.3-0.2-0.4-0.3C302.3-193.9,302.3-193.6,302.3-193.3z
		 M340.2-159.1c0.3,0,0.5,0,0.8,0c-1.8-2.7-4.3-5.2-6.4-7.1c-1.7,1.3-4,2.6-6.3,2.6c-0.7,0-1.4-0.1-2.1-0.4
		c-4.5-1.8-6.5-9.3-6.2-22.8c-0.7-0.1-1.4-0.2-1.9-0.2h-0.5c-0.1,0-0.1,0-0.1,0s0,0-0.1,0h-0.5c-0.2,0-0.4,0-0.6,0
		c0.3,13.6-1.7,21.2-6.2,23c-0.7,0.3-1.4,0.4-2.1,0.4c-2.6,0-5.3-1.7-7-3.1c-2.2,1.9-5,4.7-7,7.7c0,0,0.1,0,0.1,0
		c6,0,11,4.2,12.3,9.8c2.3-2.5,4.2-5.5,5.4-6.7c3.1-3.1,5.7-2.7,5.7-2.7s2.6-0.4,5.7,2.7c1.1,1.1,2.8,3.7,4.9,6.1
		C329.5-155.1,334.4-159.1,340.2-159.1z M294-156.9c-0.5,0-1,0-1.4,0.1c-1.6,3.3-1.9,6.6,0.8,9.3c4.1,4.1,7.8,2.8,10.9,0.1
		C303.9-152.7,299.5-156.9,294-156.9z M323.9-187c0,0.8-0.6,1.3-1.4,1l-0.6-0.2c-0.3,15,2.6,19.4,5,20.4c1.9,0.8,4.3-0.3,6.2-1.7
		c-1.6-1.3-2.7-2.2-2.7-2.2l0.1-7.5c0,0,5.9-2.2,10.2-5.7c-4.7-1.2-8.1-5.5-8.1-10.5c0-0.3,0-0.7,0.1-1c-0.1,0.1-0.3,0.2-0.4,0.3
		c-2,1.3-5.3,2.9-8.2,4.2V-187z M292.2-194c-3.5,3.5-2.4,6.9,0.3,9.7c4.5-0.5,7.9-4.3,7.9-8.9c0-0.7-0.1-1.4-0.2-2
		C295.1-197.2,292.2-194,292.2-194z"/>
	<g id="gift_2_">
		<path id="gift_3_" class="st3" d="M825.1-350.8h-22.9v-10.9h22.9V-350.8z M833.8-305h18c0.9,0,1.6-0.7,1.6-1.6v-39.8h-19.6V-305z
			 M833.8-361.7v10.9h22.9v-10.9H833.8z M825.1-346.4h-19.6v39.8c0,0.9,0.7,1.6,1.6,1.6h18V-346.4z"/>
		<polygon id="ribbon_1_" class="st2" points="843.1,-366.1 849.2,-372.2 841.5,-372.2 841.5,-380 829.4,-367.9 817.4,-380 
			817.4,-372.2 809.6,-372.2 815.8,-366.1 		"/>
	</g>
	<g id="fairylight_1_">
		<g>
			<path class="st7" d="M707.7-314.5v4.2c0,0.6-0.5,1-1,1h-10.5c-0.6,0-1-0.5-1-1v-4.2c0-0.6,0.5-1,1-1h10.5
				C707.2-315.6,707.7-315.1,707.7-314.5z"/>
			<path class="st7" d="M705.5-308.1h-8.1c-0.4,0-0.6,0.3-0.6,0.6v1.9c0,0.4,0.3,0.6,0.6,0.6h8.1c0.4,0,0.6-0.3,0.6-0.6v-1.9
				C706.1-307.8,705.9-308.1,705.5-308.1z"/>
		</g>
		<g id="bulb_1_">
			<path class="st4" d="M702.7-356.7c0.4,0.5,9.1,11.5,9.1,22.6c0,6.7-2.4,9.2-4.4,11.1c-1.3,1.4-2.2,2.3-2.2,4.5v1.6h-7.3v-1.6
				c0-2.2-0.9-3.1-2.2-4.5c-2-2-4.4-4.5-4.4-11.1c0-11.1,8.7-22.1,9.1-22.6l1.2-1.5L702.7-356.7z"/>
			<path class="st2" d="M702.7-356.7l-1.2-1.5l-1.2,1.5c-0.4,0.5-9.1,11.5-9.1,22.6c0,6.7,2.4,9.2,4.4,11.1c1.3,1.4,2.2,2.3,2.2,4.5
				v1.6h7.3v-1.6c0-2.2,0.9-3.1,2.2-4.5c2-2,4.4-4.5,4.4-11.1C711.7-345.2,703-356.2,702.7-356.7z M705.1-325.1
				c-1.2,1.3-2.6,2.6-3,5.1h-1.3c-0.4-2.4-1.8-3.8-3-5.1c-1.7-1.7-3.5-3.6-3.5-8.9c0-7.6,4.8-15.6,7.2-19c2.3,3.4,7.1,11.3,7.1,19
				C708.6-328.7,706.8-326.9,705.1-325.1z"/>
		</g>
		<g id="shine_1_">
			<g>
				<path class="st2" d="M701.4-361.8c1.2,0,2.2-11.9,2.2-14.1c0-2.2,0-4.1-2.1-4.1c-2.2,0-2.2,1.8-2.2,4.1
					C699.3-373.7,700.2-361.8,701.4-361.8z"/>
				<path class="st2" d="M720.7-369.5c-1.2-1.1-2.1-0.1-3.2,1.1c-1.1,1.2-6.6,8.2-6,8.8c0.7,0.6,7.2-5.4,8.3-6.6
					C721-367.4,721.9-368.4,720.7-369.5z"/>
				<path class="st2" d="M691.6-359.7c0.6-0.6-5-7.5-6.2-8.7c-1.2-1.2-2.1-2.2-3.3-1.1c-1.2,1.1-0.2,2.1,0.9,3.3
					C684.2-364.9,690.9-359.1,691.6-359.7z"/>
			</g>
		</g>
	</g>
	<g id="elf_1_">
		<g id="face_2_">
			<g id="ears_1_">
				<g>
					<path class="st4" d="M597.9-336.1c1,2.8,1.6,5.8,1.6,8.9c0.3-0.3,0.5-0.7,0.8-1.2c2.1-3.9,3-9.1,3-9.1S600.7-337.1,597.9-336.1
						z"/>
					<path class="st4" d="M548.5-327.2c0-2.9,0.5-5.7,1.4-8.3c-3.1-1.3-7-2-7-2s0.9,5.2,3,9.1c0.9,1.6,1.7,2.2,2.6,2.2
						C548.5-326.6,548.5-326.9,548.5-327.2z"/>
				</g>
				<g>
					<path class="st1" d="M603.1-339c-1.1,0.2-3.4,0.7-5.8,1.5c0.4,0.9,0.8,1.9,1.1,2.8c0.9-0.3,1.9-0.6,3-0.9
						c-0.4,1.6-1.1,3.7-2,5.7c0.1,0.9,0.2,1.8,0.2,2.7c0,0.7-0.1,1.3-0.1,2c1.2-0.7,2-2,2.3-2.6c2.2-4.1,3.1-9.3,3.2-9.6l0.4-2.1
						L603.1-339z"/>
					<path class="st1" d="M548.5-327.2c0-0.2,0-0.4,0-0.6c0,0-0.1,0-0.1,0c-0.1,0-0.6-0.3-1.2-1.4c-1.1-2.1-1.9-4.7-2.4-6.4
						c1.6,0.4,3.2,0.9,4.5,1.5c0.3-1,0.6-1.9,1-2.9c-2.7-1.2-5.8-1.8-7.2-2.1l-2.1-0.4l0.4,2.1c0,0.2,1,5.5,3.2,9.6
						c0.4,0.7,1.6,3,3.8,3c0.1,0,0.1,0,0.2,0C548.5-325.6,548.5-326.4,548.5-327.2z"/>
				</g>
			</g>
			<g id="head_2_">
				<path class="st4" d="M594-337.6h-39.9c-1.6,3.1-2.6,6.7-2.6,10.4c0,12.4,10.1,22.5,22.5,22.5c12.4,0,22.5-10.1,22.5-22.5
					C596.6-330.9,595.6-334.5,594-337.6z"/>
				<path class="st1" d="M594-337.6h-3.5c1.9,3,3,6.6,3,10.4c0,10.8-8.8,19.5-19.5,19.5c-10.8,0-19.5-8.8-19.5-19.5
					c0-3.8,1.1-7.4,3-10.4h-3.5c-1.6,3.1-2.6,6.7-2.6,10.4c0,12.4,10.1,22.5,22.5,22.5c12.4,0,22.5-10.1,22.5-22.5
					C596.6-330.9,595.6-334.5,594-337.6z"/>
			</g>
			<path id="smile_1_" class="st1" d="M574-318.3c-4.7,0-8.4-0.5-8.4,1.6c0,2.1,3.8,6,8.4,6c4.7,0,8.4-3.9,8.4-6
				C582.5-318.8,578.7-318.3,574-318.3z"/>
			<polygon id="nose_2_" class="st1" points="576.3,-322.8 571.8,-322.8 573.3,-338.1 574.8,-338.1 			"/>
			<g id="eyes_2_">
				<circle class="st1" cx="562.9" cy="-332.2" r="2.8"/>
				<circle class="st1" cx="585.6" cy="-332.2" r="2.8"/>
			</g>
		</g>
		<path id="hat_3_" class="st7" d="M574-349.1l-15.3,1.7c1.7-10.5,6.4-32.2,15.5-32.2c9,0,13.6,21.7,15.3,32.2L574-349.1z
			 M574-346.1l-20.5,2.3v6.3h41.1v-6.3L574-346.1z"/>
	</g>
	<g id="drums_2_">
		<g>
			<polygon class="st9" points="432.3,-335.2 442.5,-355.1 422.1,-355.1 			"/>
			<polygon class="st2" points="445.3,-349.7 435.1,-329.8 455.5,-329.8 			"/>
			<polygon class="st2" points="419.3,-349.7 419.3,-329.8 429.5,-329.8 			"/>
			<polygon class="st2" points="461.1,-329.8 471.3,-329.8 471.3,-349.7 			"/>
			<polygon class="st9" points="448.1,-355.1 458.3,-335.2 468.6,-355.1 			"/>
		</g>
		<g>
			<path class="st3" d="M476.3-317.4c0,1.4-1.1,2.5-2.5,2.5h-57c-1.4,0-2.5-1.1-2.5-2.5v-5c0-1.4,1.1-2.5,2.5-2.5h57
				c1.4,0,2.5,1.1,2.5,2.5V-317.4z"/>
			<path class="st3" d="M476.3-362.5c0,1.4-1.1,2.5-2.5,2.5h-57c-1.4,0-2.5-1.1-2.5-2.5v-5c0-1.4,1.1-2.5,2.5-2.5h57
				c1.4,0,2.5,1.1,2.5,2.5V-362.5z"/>
		</g>
	</g>
	<g id="cracker_1_">
		<g>
			<path class="st1" d="M299.6-316l-8.3-0.2l-0.2-8.3l-6.4-0.2l-4.3,4.3c-0.4,0.4-0.4,1.1,0,1.5l13.7,13.7c0.4,0.4,1.1,0.4,1.5,0
				l4.3-4.3L299.6-316z"/>
			<path class="st1" d="M339.5-379.6l-4.3,4.3l0.2,6.4l8.3,0.2l0.2,8.3l6.4,0.2l4.3-4.3c0.4-0.4,0.4-1.1,0-1.5L341-379.6
				C340.6-380.1,339.9-380.1,339.5-379.6z"/>
			<path class="st3" d="M341.1-357.5l-0.2-8.3l-8.3-0.2l-0.2-6.4l-4.6,4.6c-0.4,0.4-0.6,1.2-0.4,1.8l1.2,3.7
				c0.2,0.6-0.1,0.9-0.7,0.7l-3.7-1.2c-0.6-0.2-1.4,0-1.8,0.4l-25,25c-0.4,0.4-0.6,1.2-0.4,1.8l1.2,3.7c0.2,0.6-0.1,0.9-0.7,0.7
				l-3.7-1.2c-0.6-0.2-1.4,0-1.8,0.4l-4.6,4.6l6.4,0.2l0.2,8.3l8.3,0.2l0.2,6.4l4.6-4.6c0.4-0.4,0.6-1.2,0.4-1.8l-1.2-3.7
				c-0.2-0.6,0.1-0.9,0.7-0.7l3.7,1.2c0.6,0.2,1.4,0,1.8-0.4l25-25c0.4-0.4,0.6-1.2,0.4-1.8l-1.2-3.7c-0.2-0.6,0.1-0.9,0.7-0.7
				l3.7,1.2c0.6,0.2,1.4,0,1.8-0.4l4.6-4.6L341.1-357.5z"/>
		</g>
		<g id="dots_1_">
			<g>
				<g>
					
						<ellipse transform="matrix(0.7071 -0.7071 0.7071 0.7071 325.9039 120.3456)" class="st4" cx="308.2" cy="-333.2" rx="2.9" ry="2.9"/>
				</g>
			</g>
			<g>
				<g>
					
						<ellipse transform="matrix(0.7071 -0.7071 0.7071 0.7071 335.1427 124.1702)" class="st4" cx="317.5" cy="-342.5" rx="2.9" ry="2.9"/>
				</g>
			</g>
			<g>
				<g>
					
						<ellipse transform="matrix(0.7071 -0.7071 0.7071 0.7071 344.3766 127.9946)" class="st4" cx="326.7" cy="-351.7" rx="2.9" ry="2.9"/>
				</g>
			</g>
			
				<ellipse transform="matrix(0.707 -0.7072 0.7072 0.707 347.0471 130.2621)" class="st11" cx="330.7" cy="-353.7" rx="1.4" ry="1.4"/>
			
				<ellipse transform="matrix(0.7072 -0.707 0.707 0.7072 322.3935 120.102)" class="st11" cx="306.2" cy="-329.2" rx="1.4" ry="1.4"/>
		</g>
	</g>
	<path id="candy_1_" class="st3" d="M858.7-508.8c-0.7,1.8-2.3,3.1-4,3.6c-0.1,0-0.2,0.1-0.3,0.1c-0.2,0.1-0.4,0.1-0.6,0.1
		c-0.2,0-0.4,0-0.5,0.1c-0.2,0-0.4,0-0.5,0c-0.2,0-0.5,0-0.7-0.1c-0.1,0-0.3,0-0.4-0.1c-0.4-0.1-0.8-0.2-1.1-0.3
		c-3.2-1.3-4.8-5-3.5-8.2c0.1-0.2,0.1-0.3,0.2-0.6c0,0,0-0.1,0-0.1c0.1-0.2,0.1-0.4,0.2-0.7l0,0c0.4-1.5,0.9-3.6,1-5.8l0,0
		c0.1-1.6-0.1-3.3-0.5-4.8c-0.1-0.4-0.3-0.8-0.4-1.2c-0.6-1.4-1.6-2.6-3-3.6l0,0c-0.5-0.4-1-0.7-1.6-1c-0.6-0.3-1.2-0.6-2-0.9
		c0,0,0,0,0,0c-2.7-1-4.9-1-6.8-0.1c-0.3,0.2-0.6,0.3-0.9,0.5c-0.1,0-0.1,0.1-0.2,0.1c-0.3,0.2-0.5,0.4-0.8,0.6c0,0,0,0,0,0
		c-0.2,0.2-0.5,0.5-0.7,0.7c0,0.1-0.1,0.1-0.1,0.2c-0.2,0.2-0.4,0.5-0.6,0.8l0,0c-1.1,1.4-1.7,2.9-2,3.5l0,0
		c-0.1,0.2-0.1,0.3-0.1,0.3l-0.1,0.3l-3.7,10.2l-1.9,5.2l-3.9,10.7l-1.9,5.2l-3.9,10.7l-1.9,5.2l-1.3,3.5c-0.2,0.4-0.4,0.8-0.6,1.2
		c0,0.1-0.1,0.1-0.1,0.2c-0.2,0.3-0.4,0.6-0.7,0.9c0,0-0.1,0.1-0.1,0.1c-0.3,0.3-0.6,0.5-1,0.8c0,0,0,0,0,0
		c-0.4,0.2-0.8,0.4-1.2,0.6c0,0,0,0,0,0l0,0c-1.4,0.5-2.9,0.6-4.4,0.1c-3.3-1.2-5-4.8-3.8-8.1l2.9-7.9l8.8,7.5l1.9-5.2L803-492
		l3.9-10.7l8.8,7.5l1.9-5.2l-8.8-7.5l3.9-10.7l8.8,7.5l1.9-5.2l-8.8-7.5l2.1-5.6c0.2-0.7,0.9-2.5,2.2-4.8l8.4,7.2l1-2.8l0.1-0.3
		c0,0,0.3-0.9,1-1.9l-7.5-6.4c1.7-1.9,3.8-3.8,6.5-5.1c1.5-0.7,3.4-1.4,5.8-1.7c-1.4,1.3-0.7,5.3-0.2,9.3c2-0.9,4.4-0.9,7.2,0.1
		c0.1-2.8-0.2-6.4-0.5-9.2c1.4,0.2,2.8,0.6,4.4,1.1c0,0,0,0,0.1,0c3.7,1.3,6.8,3.3,9.2,5.7c-2,0.5-4.7,3.3-7.4,5.8
		c0.8,0.8,1.4,1.7,1.8,2.7c0.6,1.2,0.9,2.5,1.1,3.8c2.5-1.2,6-4.3,8.6-6.6c0.1,0.3,0.3,0.5,0.4,0.8c1.8,4.1,2.2,8.4,2,12.1
		c-2-1.2-6.9-0.7-11-0.9c-0.2,1.6-0.6,3-1,3.9c-0.3,0.8-0.5,1.7-0.5,2.5c2.4,1.1,7.5,1.3,11.4,1.5
		C859.4-510.6,858.8-509.2,858.7-508.8z"/>
	<g id="candle_1_">
		<path class="st10" d="M721.9-478.6c0-1.7-1.3-3-3-3h-38.2c-1.7,0-3,1.3-3,3c0,1.5,1,2.7,2.4,2.9c0.1,1.7,1.2,5.3,2.6,5.3h34.2
			c1.3,0,2.4-3.6,2.6-5.3C720.9-475.9,721.9-477.1,721.9-478.6z"/>
		<path class="st6" d="M693.9-506.4v21h16.5V-522c0,0,0.1-2.5-1.9-2.1c-3.8,0.8-7.7-2.4-10.5,0.4c-1.1,1.1-0.3,2.2-0.3,2.2
			s-4.5-1.5-4.5,2.2c0,6.3-4.1,5.9-4.1,10.1C689.2-504.4,693.9-503.3,693.9-506.4z"/>
		<path class="st2" d="M696-533.7c0-4.4,7.7-6.9,9.7-10.2c0,0,0,0,0,0c0,0,0-0.1,0.1-0.1c0.2-0.4-0.1-0.6-0.1-0.6c0,0,0,0,0,0
			c-0.1-0.1-0.2-0.2-0.2-0.3c0-0.2,0.2-0.4,0.4-0.4c0.1,0,0.2,0,0.2,0.1c0,0,0,0,0,0c0,0,2.6,1.2,0.6,5.5c-1.5,3.1,3,3.7,1.7,8
			c-0.4,1.3-1.1,2.8-3.9,3.2c-0.4-0.9-1.2-0.7-2-2.9s-0.6-3.8-1-3.8c-2.1,2.1-2.1,3.7-1.4,6.6C698.4-529.2,696-530.5,696-533.7z"/>
	</g>
	<g id="brandy_2_">
		<g id="glass_1_">
			<path class="st4" d="M602.3-519c0-18.3-6.2-25.8-6.2-25.8c-0.2-0.3-0.7-0.5-1.1-0.5h-21.1c-0.4,0-1,0-1.4,0h-21.1
				c-0.4,0-0.9,0.2-1.1,0.5c0,0-6.2,7.5-6.2,25.8c0,25.5,25.7,25.5,25.7,25.5c0.4,0,0.7,0.3,0.7,0.7v8.3c0,0.4-0.2,0.9-0.5,1.1
				l-14,11.2c-0.3,0.2-0.3,0.4,0.1,0.4c0,0,2.8,1.5,17.2,1.5s17.2-1.5,17.2-1.5c0.4,0,0.4-0.2,0.1-0.4l-14-11.2
				c-0.3-0.2-0.5-0.7-0.5-1.1v-8.3c0-0.4,0.3-0.7,0.7-0.7C576.6-493.6,602.3-493.6,602.3-519z"/>
			<path class="st5" d="M592.7-539.9c1.4,2.8,4.1,9.4,4.1,20.9c0,8.3-3.1,13.9-9.5,17.2c-5.2,2.7-10.7,2.8-10.7,2.8
				c-1.3,0-2.5,0.4-3.4,1c-1-0.7-2.2-1-3.4-1c-0.1,0-5.3-0.1-10.4-2.6c-6.6-3.3-9.8-8.9-9.8-17.3c0-11.5,2.6-18.1,4.1-20.9h18.8h1.4
				H592.7 M573.2-479.1l3.9,3.1c-1.2,0-2.5,0-3.9,0c-1.4,0-2.8,0-3.9,0L573.2-479.1 M595-545.4h-21.1c-0.4,0-1,0-1.4,0h-21.1
				c-0.4,0-0.9,0.2-1.1,0.5c0,0-6.2,7.5-6.2,25.8c0,25.5,25.7,25.5,25.7,25.5c0.4,0,0.7,0.3,0.7,0.7v8.3c0,0.4-0.2,0.9-0.5,1.1
				l-14,11.2c-0.3,0.2-0.3,0.4,0.1,0.4c0,0,2.8,1.5,17.2,1.5s17.2-1.5,17.2-1.5c0.4,0,0.4-0.2,0.1-0.4l-14-11.2
				c-0.3-0.2-0.5-0.7-0.5-1.1v-8.3c0-0.4,0.3-0.7,0.7-0.7c0,0,25.7,0,25.7-25.5c0-18.3-6.2-25.8-6.2-25.8
				C595.9-545.2,595.4-545.4,595-545.4L595-545.4z"/>
		</g>
		<path id="drink_1_" class="st10" d="M573.2-523.1c-5.4,0-10.3,0.2-13.9,0.6c0.3,2.9,1,5.8,2.7,8c2.2,2.9,5.6,4.3,10.4,4.3
			c1.1,0,2.1,0.9,2.1,2.1c0,1.1-0.9,2.1-2.1,2.1c-6.2,0-10.8-2-13.7-6c-2.1-2.9-3.1-6.4-3.4-9.9c-1.7,0.3-2.6,0.7-2.6,1.1l0,0.6
			c0,18,18.7,18,18.7,18h3.9c0,0,18.7,0,18.7-18l0-0.6C593.8-522.1,584.6-523.1,573.2-523.1z"/>
	</g>
	<path id="bell_1_" class="st2" d="M450.3-486.3c0,0.1,0,0.1-0.1,0.2c-1,2.8-4.2,4.3-7,3.3c-2.7-1-4.2-3.9-3.4-6.6
		C443.8-488,447.2-486.9,450.3-486.3z M442.4-492.7c-0.5-0.2-1-0.4-1.6-0.6c-23.2-8.4-18.9-14.1-14.3-16.2
		c4.5-2.1,7.6-9.2,12.2-21.8c2.6-7.1,8.2-8.6,12.6-8.5c0-0.6,0.1-1.1,0.3-1.7c1.1-3.1,4.6-4.7,7.7-3.6c3.1,1.1,4.7,4.6,3.6,7.7
		c-0.2,0.5-0.4,0.9-0.7,1.3c3.6,2.7,7.4,7.6,4.7,15.1c-4.6,12.6-6.8,20-4.7,24.5c1.8,3.8,1.8,9.5-12.2,6c0,0,0,0,0,0
		c-0.5-0.1-1.1-0.3-1.7-0.4c0,0,0,0-0.1,0C446.5-491.4,444.5-492,442.4-492.7C442.4-492.7,442.4-492.7,442.4-492.7z M454.6-539.5
		c1.7,0.3,2.8,0.7,2.8,0.7s0.8,0.3,2,0.9c0.1-0.2,0.3-0.4,0.4-0.7c0.5-1.4-0.2-2.9-1.6-3.4c-1.4-0.5-2.9,0.2-3.4,1.6
		C454.6-540,454.6-539.8,454.6-539.5z M453.1-535.1c-0.2-0.2-0.4-0.4-0.6-0.6c-0.8-0.1-1.8-0.1-2.7,0c-3.8,0.3-6.1,2.2-7.4,5.8
		c-4.6,12.7-8.1,21.2-14.2,24c-0.6,0.3-0.9,0.5-1.1,0.7c0.3,0.4,0.9,1.1,2.4,2.2c0.7-0.9,1.8-1.7,2.9-2.2c4.5-2.1,7.6-9.2,12.2-21.8
		C446.3-532.1,449.7-534.3,453.1-535.1z M449.3-479.4c-0.6,0.2,0.9,6.2,1.3,7.3c0.4,1.1,0.7,2,1.7,1.6c1.1-0.4,0.8-1.2,0.4-2.3
		C452.3-473.9,449.9-479.6,449.3-479.4z M443.2-478.5c-0.4-0.2-2.6,3.9-2.9,4.7c-0.3,0.8-0.6,1.4,0.2,1.8c0.8,0.3,1-0.3,1.4-1.1
		C442.2-473.9,443.7-478.3,443.2-478.5z M458.3-479.9c-0.8-0.4-5.1-2.1-5.3-1.7c-0.2,0.4,3.7,2.8,4.5,3.2c0.8,0.4,1.4,0.7,1.8-0.1
		C459.7-479.2,459.1-479.5,458.3-479.9z"/>
	<g id="ball_ball_1_">
		<g>
			<g>
				<g>
					<path class="st2" d="M346.4-499.4c0,0.9-0.1,1.7-0.1,2.6c-0.3-1-0.6-2.1-0.7-3c-0.8-3.7-1.6-7.2-4.4-7.2s-3.6,3.5-4.4,7.2
						c-0.2,1-0.5,2.4-0.9,3.4c-0.3-1-0.6-2.4-0.9-3.4c-0.8-3.7-1.6-7.2-4.4-7.2c-2.8,0-3.6,3.5-4.4,7.2c-0.2,1-0.5,2.4-0.9,3.4
						c-0.3-1-0.6-2.4-0.9-3.4c-0.8-3.7-1.6-7.2-4.4-7.2s-3.6,3.5-4.4,7.2c-0.2,1-0.5,2.4-0.9,3.4c-0.3-1-0.6-2.4-0.9-3.4
						c-0.8-3.7-1.6-7.2-4.4-7.2c-2.8,0-3.6,3.5-4.4,7.2c-0.2,1-0.5,2.4-0.9,3.4c-0.3-1-0.6-2.4-0.9-3.4c-0.8-3.7-1.6-7.2-4.4-7.2
						c-2.8,0-3.6,3.5-4.4,7.2c-0.2,1-0.5,2.4-0.9,3.4c-0.3-1-0.6-2.4-0.9-3.4c-0.7-3.2-1.4-6.3-3.4-7c0.5-1.8,1.1-3.6,2-5.3h52.1
						C345.4-508.3,346.4-504,346.4-499.4z"/>
				</g>
				<g>
					<path class="st2" d="M345.4-492c-0.5,1.8-1.1,3.6-2,5.3h-52.1c-1.9-3.8-3-8.1-3-12.7c0-0.9,0.1-1.7,0.1-2.6
						c0.3,1,0.5,2.1,0.7,3c0.8,3.7,1.6,7.2,4.4,7.2c2.8,0,3.6-3.5,4.4-7.2c0.2-1,0.5-2.4,0.9-3.4c0.3,1,0.6,2.4,0.9,3.4
						c0.8,3.7,1.6,7.2,4.4,7.2c2.8,0,3.6-3.5,4.4-7.2c0.2-1,0.5-2.4,0.9-3.4c0.3,1,0.6,2.4,0.9,3.4c0.8,3.7,1.6,7.2,4.4,7.2
						c2.8,0,3.6-3.5,4.4-7.2c0.2-1,0.5-2.4,0.9-3.4c0.3,1,0.6,2.4,0.9,3.4c0.8,3.7,1.6,7.2,4.4,7.2c2.8,0,3.6-3.5,4.4-7.2
						c0.2-1,0.5-2.4,0.9-3.4c0.3,1,0.6,2.4,0.9,3.4c0.8,3.7,1.6,7.2,4.4,7.2s3.6-3.5,4.4-7.2c0.2-1,0.5-2.4,0.9-3.4
						c0.3,1,0.7,2.4,0.9,3.4C342.8-495.8,343.5-492.7,345.4-492z"/>
				</g>
			</g>
		</g>
		<g>
			<g>
				<g>
					<path class="st1" d="M293.5-483.1h48c-5.2,7.7-14,12.7-24,12.7C307.5-470.4,298.7-475.4,293.5-483.1z"/>
				</g>
				<g>
					<g>
						<path class="st1" d="M326.5-527v-9.4c0-5-4.1-9.1-9.1-9.1c-5,0-9.1,4.1-9.1,9.1v9.4c-6.1,2-11.4,6-14.9,11.2h48
							C337.9-520.9,332.6-524.9,326.5-527z M312.6-536.3c0-2.7,2.2-4.9,4.9-4.9c2.7,0,4.9,2.2,4.9,4.9H312.6z"/>
					</g>
				</g>
			</g>
		</g>
	</g>
</g>
<g id="info">
	<path id="om_1_" class="st0" d="M488.1,118.3c-1.8,0-2.8,1.3-2.8,3c0,1.7,1,3,2.8,3c1.8,0,2.8-1.3,2.8-3
		C490.8,119.7,489.9,118.3,488.1,118.3z M488.1,123.5c-1,0-1.8-0.8-1.8-2.1c0-1.4,0.8-2.2,1.8-2.2c1,0,1.8,0.8,1.8,2.2
		C489.8,122.7,489,123.5,488.1,123.5z M494,116.2c0.2,0,0.4,0,0.6,0.1v0.8c-0.2-0.1-0.4-0.1-0.5-0.1c-0.5,0-0.7,0.1-0.7,0.6v0.8h1.1
		v0.8h-1.1v4.9h-0.9v-4.9h-1v-0.8h1v-0.8C492.4,116.7,493,116.2,494,116.2z M497.1,116.2c0.2,0,0.4,0,0.6,0.1v0.8
		c-0.2-0.1-0.4-0.1-0.5-0.1c-0.5,0-0.7,0.1-0.7,0.6v0.8h1.1v0.8h-1.1v4.9h-0.9v-4.9h-1v-0.8h1v-0.8
		C495.6,116.7,496.1,116.2,497.1,116.2z M503,122.5c0,1.4-1.3,1.8-2.4,1.8c-1.3,0-2.4-0.5-2.4-1.9h0.9c0,0.8,0.8,1.1,1.5,1.1
		c0.6,0,1.4-0.1,1.4-0.8c0-0.7-0.9-0.8-1.9-1.1c-0.9-0.2-1.9-0.5-1.9-1.6c0-1.1,1.1-1.6,2.1-1.6c1.3,0,2.3,0.4,2.3,1.8h-0.9
		c-0.1-0.7-0.7-1-1.3-1c-0.6,0-1.2,0.2-1.2,0.7c0,0.7,1,0.8,1.9,1C502.1,121.1,503,121.4,503,122.5z M506.5,118.3
		c-1.6,0-2.7,1.3-2.7,3c0.1,1.7,0.9,3,2.7,3c1.3,0,2.2-0.7,2.4-1.9h-0.9c-0.2,0.7-0.7,1.1-1.5,1.1c-1.2,0-1.8-0.9-1.8-1.9h4.3
		C509.2,120.2,508.5,118.3,506.5,118.3z M504.8,120.8c0.1-0.9,0.6-1.6,1.6-1.6c0.9,0,1.6,0.7,1.6,1.6H504.8z M511.5,118.5h1.1v0.8
		h-1.1v3.5c0,0.4,0.1,0.5,0.7,0.5h0.4v0.8h-0.7c-1,0-1.4-0.2-1.4-1.2v-3.6h-1v-0.8h1v-1.7h0.9V118.5z M524.9,120v4.2H524v-3.7
		c0-0.7-0.2-1.3-1.1-1.3c-0.9,0-1.5,0.6-1.5,1.5v3.5h-0.9v-3.7c0-0.7-0.2-1.3-1.1-1.3c-1.1,0-1.5,1-1.5,1.5v3.5h-0.9v-5.7h0.9v0.8h0
		c0.4-0.6,1.1-1,1.8-1c0.7,0,1.3,0.3,1.6,1c0.4-0.6,1.1-1,1.8-1C524.1,118.3,524.9,118.8,524.9,120z M528.8,118.3
		c-1.6,0-2.7,1.3-2.7,3c0.1,1.7,0.9,3,2.7,3c1.3,0,2.2-0.7,2.4-1.9h-0.9c-0.2,0.7-0.7,1.1-1.5,1.1c-1.2,0-1.8-0.9-1.8-1.9h4.3
		C531.4,120.2,530.8,118.3,528.8,118.3z M527.1,120.8c0.1-0.9,0.6-1.6,1.6-1.6c0.9,0,1.6,0.7,1.6,1.6H527.1z M536.6,119.2
		L536.6,119.2c-0.4-0.7-1.3-0.9-1.9-0.9c-1.7,0-2.6,1.4-2.6,3c0,1.6,0.9,3,2.6,3c0.8,0,1.5-0.3,1.8-0.9h0v0.8h0.9v-7.9h-0.9V119.2z
		 M534.9,123.5c-1.2,0-1.8-1-1.8-2.1c0-1.1,0.4-2.2,1.7-2.2c1.3,0,1.8,1,1.8,2.2C536.6,122.4,536.1,123.5,534.9,123.5z M539.1,116.3
		h0.9v1.1h-0.9V116.3z M539.1,118.5h0.9v5.7h-0.9V118.5z M546.1,122.8v-2.9c0-1.3-1.1-1.6-2.1-1.6c-1.3,0-2.4,0.5-2.4,1.9h0.9
		c0-0.8,0.6-1.1,1.4-1.1c0.6,0,1.3,0.1,1.3,0.9c0,0.7-0.9,0.6-1.9,0.8c-1,0.2-1.9,0.5-1.9,1.8c0,1.1,0.8,1.6,1.9,1.6
		c0.8,0,1.5-0.3,2-0.9c0,0.6,0.3,0.9,0.8,0.9c0.3,0,0.5-0.1,0.7-0.2v-0.7c-0.1,0-0.2,0.1-0.3,0.1
		C546.1,123.5,546.1,123.3,546.1,122.8z M545.1,122.2c0,0.5-0.5,1.3-1.7,1.3c-0.6,0-1.1-0.2-1.1-0.8c0-0.7,0.5-0.9,1.1-1
		c0.6-0.1,1.3-0.1,1.7-0.4V122.2z M552.8,116.2c0.2,0,0.4,0,0.6,0.1v0.8c-0.2-0.1-0.4-0.1-0.5-0.1c-0.5,0-0.7,0.1-0.7,0.6v0.8h1.1
		v0.8h-1.1v4.9h-0.9v-4.9h-1v-0.8h1v-0.8C551.2,116.7,551.7,116.2,552.8,116.2z M556.5,118.3c-1.6,0-2.7,1.3-2.7,3
		c0.1,1.7,0.9,3,2.7,3c1.3,0,2.2-0.7,2.4-1.9h-0.9c-0.2,0.7-0.7,1.1-1.5,1.1c-1.2,0-1.8-0.9-1.8-1.9h4.3
		C559.2,120.2,558.5,118.3,556.5,118.3z M554.9,120.8c0.1-0.9,0.6-1.6,1.6-1.6c0.9,0,1.6,0.7,1.6,1.6H554.9z M564.7,122.5
		c0,1.4-1.3,1.8-2.4,1.8c-1.3,0-2.4-0.5-2.4-1.9h0.9c0,0.8,0.8,1.1,1.5,1.1c0.6,0,1.4-0.1,1.4-0.8c0-0.7-0.9-0.8-1.9-1.1
		c-0.9-0.2-1.9-0.5-1.9-1.6c0-1.1,1.1-1.6,2.1-1.6c1.3,0,2.3,0.4,2.3,1.8h-0.9c-0.1-0.7-0.7-1-1.3-1c-0.6,0-1.2,0.2-1.2,0.7
		c0,0.7,1,0.8,1.9,1C563.7,121.1,564.7,121.4,564.7,122.5z M567.1,118.5h1.1v0.8h-1.1v3.5c0,0.4,0.1,0.5,0.7,0.5h0.4v0.8h-0.7
		c-1,0-1.4-0.2-1.4-1.2v-3.6h-1v-0.8h1v-1.7h0.9V118.5z M569.4,116.3h0.9v1.1h-0.9V116.3z M569.4,118.5h0.9v5.7h-0.9V118.5z
		 M575.6,118.5h1l-2.1,5.7h-1l-2.1-5.7h1l1.6,4.7h0L575.6,118.5z M579.9,118.3c-1.6,0-2.7,1.3-2.7,3c0.1,1.7,0.9,3,2.7,3
		c1.3,0,2.2-0.7,2.4-1.9h-0.9c-0.2,0.7-0.7,1.1-1.5,1.1c-1.2,0-1.8-0.9-1.8-1.9h4.3C582.5,120.2,581.9,118.3,579.9,118.3z
		 M578.2,120.8c0.1-0.9,0.6-1.6,1.6-1.6c0.9,0,1.6,0.7,1.6,1.6H578.2z M586.8,116.3h0.9v1.1h-0.9V116.3z M586.8,118.5h0.9v5.7h-0.9
		V118.5z M593.2,122.1h1c-0.2,1.4-1.1,2.2-2.5,2.2c-1.7,0-2.7-1.2-2.7-2.9c0-1.7,0.9-3,2.7-3c1.3,0,2.3,0.6,2.5,2h-1
		c-0.1-0.7-0.6-1.1-1.4-1.1c-1.4,0-1.8,1.1-1.8,2.2c0,1,0.5,2.1,1.7,2.1C592.5,123.5,593.1,122.9,593.2,122.1z M597.7,118.3
		c-1.8,0-2.8,1.3-2.8,3c0,1.7,1,3,2.8,3c1.8,0,2.8-1.3,2.8-3C600.5,119.7,599.5,118.3,597.7,118.3z M597.7,123.5
		c-1,0-1.8-0.8-1.8-2.1c0-1.4,0.8-2.2,1.8-2.2c1,0,1.8,0.8,1.8,2.2C599.5,122.7,598.7,123.5,597.7,123.5z M606.4,120.4v3.7h-0.9
		v-3.9c0-0.7-0.4-1.1-1.2-1.1c-1.1,0-1.7,0.8-1.7,1.8v3.2h-0.9v-5.7h0.9v0.9h0c0.4-0.7,1-1,1.8-1C606,118.3,606.4,119.2,606.4,120.4
		z M613.9,118.3c-0.8,0-1.5,0.3-1.8,0.9h0v-0.8h-0.9v7.9h0.9v-2.9h0c0.4,0.7,1.3,0.9,1.8,0.9c1.7,0,2.6-1.4,2.6-3
		C616.5,119.7,615.7,118.3,613.9,118.3z M613.8,123.5c-1.3,0-1.8-1-1.8-2.2c0-1.1,0.5-2.1,1.7-2.1c1.2,0,1.8,1,1.8,2.1
		C615.5,122.4,615.1,123.5,613.8,123.5z M622.2,122.8v-2.9c0-1.3-1.1-1.6-2.1-1.6c-1.3,0-2.4,0.5-2.4,1.9h0.9c0-0.8,0.6-1.1,1.4-1.1
		c0.6,0,1.3,0.1,1.3,0.9c0,0.7-0.9,0.6-1.9,0.8c-1,0.2-1.9,0.5-1.9,1.8c0,1.1,0.8,1.6,1.9,1.6c0.8,0,1.5-0.3,2-0.9
		c0,0.6,0.3,0.9,0.8,0.9c0.3,0,0.5-0.1,0.7-0.2v-0.7c-0.1,0-0.2,0.1-0.3,0.1C622.2,123.5,622.2,123.3,622.2,122.8z M621.3,122.2
		c0,0.5-0.5,1.3-1.7,1.3c-0.6,0-1.1-0.2-1.1-0.8c0-0.7,0.5-0.9,1.1-1c0.6-0.1,1.3-0.1,1.7-0.4V122.2z M627.7,122.1h1
		c-0.2,1.4-1.1,2.2-2.5,2.2c-1.7,0-2.7-1.2-2.7-2.9c0-1.7,0.9-3,2.7-3c1.3,0,2.3,0.6,2.5,2h-1c-0.1-0.7-0.6-1.1-1.4-1.1
		c-1.4,0-1.8,1.1-1.8,2.2c0,1,0.5,2.1,1.7,2.1C627,123.5,627.5,122.9,627.7,122.1z M632.4,120.5l2.4,3.6h-1.2l-1.9-3l-0.9,0.8v2.2
		h-0.9v-7.9h0.9v4.7l2.6-2.5h1.3L632.4,120.5z M639.4,123.3h4v0.8h-5.1c0.2-1.8,1.1-2.5,2.2-3.2c1.3-0.8,2-1.3,2-2.4
		c0-0.8-0.7-1.4-1.5-1.4c-1.1,0-1.6,1-1.5,1.9h-0.9c-0.1-1.6,0.9-2.8,2.5-2.8c1.4,0,2.4,0.8,2.4,2.2c0,1.4-0.9,2.1-1.9,2.7
		C640.6,121.9,639.6,122.4,639.4,123.3z M647.3,116.4c-2.4,0-2.6,2.2-2.6,4c0,1.7,0.2,4,2.6,4c2.4,0,2.6-2.2,2.6-4
		C649.9,118.6,649.8,116.4,647.3,116.4z M647.3,123.5c-1.6,0-1.6-2-1.6-3.1c0-1.2,0-3.1,1.6-3.1s1.6,2,1.6,3.1
		C648.9,121.5,648.9,123.5,647.3,123.5z M653.7,116.4h0.7v7.8h-0.9v-5.6h-2v-0.7C652.5,117.8,653.5,117.5,653.7,116.4z M660.6,116.4
		v7.8h-0.9v-5.6h-2v-0.7c1.1,0,2-0.3,2.2-1.5H660.6z"/>
	<g>
		<g>
			<g>
				<path class="st12" d="M446.6-680.1v-26.7h12.8v4h-8.2v6.9h6.1v4h-6.1v11.9H446.6z"/>
				<path class="st12" d="M463.1-680.1v-26.7h12.3v4h-7.7v6.9h5.9v4h-5.9v7.9h8.2v4H463.1z"/>
				<path class="st12" d="M487.9-700.2c0-0.6-0.2-1-0.3-1.4c-0.2-0.4-0.4-0.7-0.6-0.9c-0.2-0.2-0.5-0.4-0.8-0.5
					c-0.3-0.1-0.5-0.1-0.8-0.1c-0.7,0-1.3,0.2-1.7,0.7c-0.4,0.5-0.6,1.1-0.6,1.9c0,0.8,0.2,1.5,0.7,2.1c0.5,0.6,1,1.3,1.7,1.9
					c0.7,0.6,1.4,1.3,2.3,1.9c0.8,0.7,1.6,1.4,2.3,2.2c0.7,0.8,1.3,1.7,1.7,2.6c0.5,1,0.7,2,0.7,3.2c0,1.1-0.2,2.1-0.5,2.9
					c-0.4,0.9-0.9,1.6-1.5,2.1c-0.6,0.6-1.4,1-2.3,1.3c-0.9,0.3-1.9,0.4-2.9,0.4c-1.1,0-2-0.2-2.9-0.6c-0.8-0.4-1.6-0.9-2.1-1.6
					c-0.6-0.7-1-1.5-1.4-2.4c-0.3-0.9-0.5-1.8-0.6-2.9l4.4-0.6c0.1,1.4,0.4,2.4,0.9,3c0.5,0.7,1.1,1,1.9,1c0.8,0,1.4-0.2,1.9-0.6
					c0.5-0.4,0.7-1,0.7-1.8c0-0.9-0.2-1.7-0.7-2.4c-0.5-0.7-1-1.4-1.7-2c-0.7-0.6-1.4-1.3-2.3-1.9c-0.8-0.6-1.6-1.3-2.3-2.1
					c-0.7-0.8-1.3-1.6-1.7-2.6c-0.5-1-0.7-2.1-0.7-3.4c0-2.1,0.6-3.8,1.9-4.9c1.2-1.1,3-1.7,5.3-1.7c0.9,0,1.8,0.2,2.5,0.5
					c0.7,0.3,1.4,0.8,1.9,1.4c0.5,0.6,1,1.3,1.3,2.1c0.3,0.8,0.5,1.7,0.6,2.6L487.9-700.2z"/>
				<path class="st12" d="M498.6-702.8h-4.4v-4h13.5v4h-4.4v22.7h-4.6V-702.8z"/>
				<path class="st12" d="M511-680.1v-26.7h4.6v26.7H511z"/>
				<path class="st12" d="M530-706.8h4.5l-5.6,26.7h-4.6l-5.6-26.7h4.5l3.3,18.6h0.1L530-706.8z"/>
				<path class="st12" d="M537.1-680.1v-26.7h12.3v4h-7.7v6.9h5.9v4h-5.9v7.9h8.2v4H537.1z"/>
				<path class="st12" d="M562.4-680.1v-26.7h4.6v26.7H562.4z"/>
				<path class="st12" d="M581.3-697.9v-2.1c0-1.1-0.2-2-0.7-2.5c-0.4-0.5-1-0.8-1.6-0.8c-0.9,0-1.6,0.2-1.9,0.7
					c-0.3,0.5-0.5,1.2-0.5,2.2v13.6c0,1,0.2,1.8,0.5,2.2c0.3,0.5,1,0.7,1.9,0.7c0.8,0,1.4-0.2,1.7-0.7c0.3-0.5,0.5-1.1,0.5-2v-3.2
					h4.6v3.1c0,0.9-0.1,1.8-0.4,2.7c-0.3,0.8-0.7,1.6-1.3,2.2c-0.6,0.6-1.3,1.1-2.1,1.5c-0.9,0.4-1.9,0.5-3,0.5
					c-1.2,0-2.3-0.2-3.1-0.5c-0.9-0.4-1.6-0.8-2.2-1.5c-0.6-0.6-1-1.3-1.3-2.2c-0.3-0.8-0.4-1.7-0.4-2.7v-13.8
					c0-0.9,0.1-1.8,0.4-2.7c0.3-0.8,0.7-1.6,1.3-2.2c0.6-0.6,1.3-1.1,2.2-1.5c0.9-0.4,1.9-0.5,3.1-0.5c1.1,0,2.1,0.2,3,0.6
					c0.9,0.4,1.6,0.9,2.1,1.6c0.6,0.7,1,1.4,1.3,2.3c0.3,0.9,0.4,1.8,0.4,2.8v2H581.3z"/>
				<path class="st12" d="M590.6-700.3c0-0.9,0.1-1.8,0.4-2.7c0.3-0.8,0.7-1.6,1.3-2.2c0.6-0.6,1.3-1.1,2.2-1.5
					c0.9-0.4,1.9-0.5,3.1-0.5c1.2,0,2.3,0.2,3.1,0.5c0.9,0.4,1.6,0.8,2.2,1.5c0.6,0.6,1,1.3,1.3,2.2c0.3,0.8,0.4,1.7,0.4,2.7v13.8
					c0,0.9-0.1,1.8-0.4,2.7c-0.3,0.8-0.7,1.6-1.3,2.2c-0.6,0.6-1.3,1.1-2.2,1.5c-0.9,0.4-1.9,0.5-3.1,0.5c-1.2,0-2.3-0.2-3.1-0.5
					c-0.9-0.4-1.6-0.8-2.2-1.5c-0.6-0.6-1-1.3-1.3-2.2c-0.3-0.8-0.4-1.7-0.4-2.7V-700.3z M595.2-686.7c0,1,0.2,1.8,0.5,2.2
					c0.3,0.5,1,0.7,1.9,0.7c0.9,0,1.6-0.2,1.9-0.7c0.3-0.5,0.5-1.2,0.5-2.2v-13.6c0-1-0.2-1.8-0.5-2.2c-0.3-0.5-1-0.7-1.9-0.7
					c-0.9,0-1.6,0.2-1.9,0.7c-0.3,0.5-0.5,1.2-0.5,2.2V-686.7z"/>
				<path class="st12" d="M609.1-680.1v-26.7h4.3l5.6,15.3h0.1v-15.3h4.1v26.7h-4l-5.9-16.7h-0.1v16.7H609.1z"/>
				<path class="st12" d="M635.8-680.1v-26.7h6.6c2.8,0,4.9,0.6,6.3,1.8c1.3,1.2,2,3.2,2,6.1c0,1.4-0.2,2.6-0.5,3.6
					c-0.3,1-0.8,1.8-1.5,2.4c-0.7,0.6-1.5,1.1-2.6,1.4c-1,0.3-2.3,0.4-3.7,0.4h-2v11H635.8z M640.4-694.8h1.8c0.7,0,1.4-0.1,1.9-0.2
					c0.5-0.1,0.9-0.3,1.2-0.7c0.3-0.3,0.5-0.7,0.6-1.3c0.1-0.5,0.2-1.2,0.2-2c0-0.8-0.1-1.5-0.2-2c-0.1-0.5-0.3-0.9-0.6-1.3
					c-0.3-0.3-0.7-0.5-1.2-0.7c-0.5-0.1-1.1-0.2-1.9-0.2h-1.8V-694.8z"/>
				<path class="st12" d="M657-680.1h-4.4l4.9-26.7h5.7l4.9,26.7h-4.4l-0.8-5.9h-5L657-680.1z M658.5-690h3.7l-1.8-11.5h-0.1
					L658.5-690z"/>
				<path class="st12" d="M680.1-697.9v-2.1c0-1.1-0.2-2-0.7-2.5c-0.4-0.5-1-0.8-1.6-0.8c-0.9,0-1.6,0.2-1.9,0.7
					c-0.3,0.5-0.5,1.2-0.5,2.2v13.6c0,1,0.2,1.8,0.5,2.2c0.3,0.5,1,0.7,1.9,0.7c0.8,0,1.4-0.2,1.7-0.7c0.3-0.5,0.5-1.1,0.5-2v-3.2
					h4.6v3.1c0,0.9-0.1,1.8-0.4,2.7c-0.3,0.8-0.7,1.6-1.3,2.2c-0.6,0.6-1.3,1.1-2.1,1.5c-0.9,0.4-1.9,0.5-3,0.5
					c-1.2,0-2.3-0.2-3.1-0.5c-0.9-0.4-1.6-0.8-2.2-1.5c-0.6-0.6-1-1.3-1.3-2.2c-0.3-0.8-0.4-1.7-0.4-2.7v-13.8
					c0-0.9,0.1-1.8,0.4-2.7c0.3-0.8,0.7-1.6,1.3-2.2c0.6-0.6,1.3-1.1,2.2-1.5c0.9-0.4,1.9-0.5,3.1-0.5c1.1,0,2.1,0.2,3,0.6
					c0.9,0.4,1.6,0.9,2.1,1.6c0.6,0.7,1,1.4,1.3,2.3c0.3,0.9,0.4,1.8,0.4,2.8v2H680.1z"/>
				<path class="st12" d="M689.1-680.1v-26.7h4.6v9.9h0.1l4.8-9.9h4.6l-5,10l5.6,16.8h-4.7l-3.7-12.4h-0.1l-1.6,3v9.5H689.1z"/>
			</g>
			<g>
				<path class="st13" d="M445.6-681.1v-26.7h12.8v4h-8.2v6.9h6.1v4h-6.1v11.9H445.6z"/>
				<path class="st13" d="M462.1-681.1v-26.7h12.3v4h-7.7v6.9h5.9v4h-5.9v7.9h8.2v4H462.1z"/>
				<path class="st13" d="M486.9-701.2c-0.1-0.6-0.2-1-0.3-1.4c-0.2-0.4-0.4-0.7-0.6-0.9c-0.2-0.2-0.5-0.4-0.8-0.5
					c-0.3-0.1-0.5-0.1-0.8-0.1c-0.7,0-1.3,0.2-1.7,0.7c-0.4,0.5-0.6,1.1-0.6,1.9c0,0.8,0.2,1.5,0.7,2.1c0.5,0.6,1,1.3,1.7,1.9
					c0.7,0.6,1.4,1.3,2.3,1.9c0.8,0.7,1.6,1.4,2.3,2.2c0.7,0.8,1.3,1.7,1.7,2.6c0.5,1,0.7,2,0.7,3.2c0,1.1-0.2,2.1-0.5,2.9
					c-0.4,0.9-0.9,1.6-1.5,2.1c-0.6,0.6-1.4,1-2.3,1.3c-0.9,0.3-1.9,0.4-2.9,0.4c-1.1,0-2-0.2-2.9-0.6c-0.8-0.4-1.5-0.9-2.1-1.6
					c-0.6-0.7-1-1.5-1.4-2.4c-0.3-0.9-0.5-1.8-0.6-2.9l4.4-0.6c0.1,1.4,0.4,2.4,0.9,3c0.5,0.7,1.1,1,1.9,1c0.8,0,1.4-0.2,1.9-0.6
					c0.5-0.4,0.7-1,0.7-1.8c0-0.9-0.2-1.7-0.7-2.4c-0.5-0.7-1-1.4-1.7-2s-1.4-1.3-2.3-1.9c-0.8-0.6-1.6-1.3-2.3-2.1
					c-0.7-0.8-1.3-1.6-1.7-2.6c-0.5-1-0.7-2.1-0.7-3.4c0-2.1,0.6-3.8,1.9-4.9c1.2-1.1,3-1.7,5.3-1.7c0.9,0,1.8,0.2,2.5,0.5
					c0.7,0.3,1.4,0.8,1.9,1.4c0.5,0.6,1,1.3,1.3,2.1c0.3,0.8,0.5,1.7,0.6,2.6L486.9-701.2z"/>
				<path class="st13" d="M497.6-703.8h-4.4v-4h13.5v4h-4.4v22.7h-4.6V-703.8z"/>
				<path class="st13" d="M510-681.1v-26.7h4.6v26.7H510z"/>
				<path class="st13" d="M529-707.8h4.5l-5.6,26.7h-4.6l-5.6-26.7h4.5l3.3,18.6h0.1L529-707.8z"/>
				<path class="st13" d="M536.1-681.1v-26.7h12.3v4h-7.7v6.9h5.9v4h-5.9v7.9h8.2v4H536.1z"/>
				<path class="st13" d="M561.4-681.1v-26.7h4.6v26.7H561.4z"/>
				<path class="st13" d="M580.3-698.9v-2.1c0-1.1-0.2-2-0.7-2.5c-0.4-0.5-1-0.8-1.6-0.8c-0.9,0-1.6,0.2-1.9,0.7
					c-0.3,0.5-0.5,1.2-0.5,2.2v13.6c0,1,0.2,1.8,0.5,2.2c0.3,0.5,1,0.7,1.9,0.7c0.8,0,1.4-0.2,1.7-0.7c0.3-0.5,0.5-1.1,0.5-2v-3.2
					h4.6v3.1c0,0.9-0.1,1.8-0.4,2.7c-0.3,0.8-0.7,1.6-1.3,2.2c-0.6,0.6-1.3,1.1-2.1,1.5c-0.9,0.4-1.9,0.5-3,0.5
					c-1.2,0-2.3-0.2-3.1-0.5c-0.9-0.4-1.6-0.8-2.2-1.5c-0.6-0.6-1-1.3-1.3-2.2c-0.3-0.8-0.4-1.7-0.4-2.7v-13.8
					c0-0.9,0.1-1.8,0.4-2.7c0.3-0.8,0.7-1.6,1.3-2.2c0.6-0.6,1.3-1.1,2.2-1.5c0.9-0.4,1.9-0.5,3.1-0.5c1.1,0,2.1,0.2,3,0.6
					c0.9,0.4,1.6,0.9,2.1,1.6c0.6,0.7,1,1.4,1.3,2.3c0.3,0.9,0.4,1.8,0.4,2.8v2H580.3z"/>
				<path class="st13" d="M589.6-701.3c0-0.9,0.1-1.8,0.4-2.7c0.3-0.8,0.7-1.6,1.3-2.2c0.6-0.6,1.3-1.1,2.2-1.5
					c0.9-0.4,1.9-0.5,3.1-0.5c1.2,0,2.3,0.2,3.1,0.5c0.9,0.4,1.6,0.8,2.2,1.5c0.6,0.6,1,1.3,1.3,2.2c0.3,0.8,0.4,1.7,0.4,2.7v13.8
					c0,0.9-0.1,1.8-0.4,2.7c-0.3,0.8-0.7,1.6-1.3,2.2c-0.6,0.6-1.3,1.1-2.2,1.5c-0.9,0.4-1.9,0.5-3.1,0.5c-1.2,0-2.3-0.2-3.1-0.5
					c-0.9-0.4-1.6-0.8-2.2-1.5c-0.6-0.6-1-1.3-1.3-2.2c-0.3-0.8-0.4-1.7-0.4-2.7V-701.3z M594.2-687.7c0,1,0.2,1.8,0.5,2.2
					c0.3,0.5,1,0.7,1.9,0.7c0.9,0,1.6-0.2,1.9-0.7c0.3-0.5,0.5-1.2,0.5-2.2v-13.6c0-1-0.2-1.8-0.5-2.2c-0.3-0.5-1-0.7-1.9-0.7
					c-0.9,0-1.6,0.2-1.9,0.7c-0.3,0.5-0.5,1.2-0.5,2.2V-687.7z"/>
				<path class="st13" d="M608.1-681.1v-26.7h4.3l5.6,15.3h0.1v-15.3h4.1v26.7h-4l-5.9-16.7h-0.1v16.7H608.1z"/>
				<path class="st13" d="M634.8-681.1v-26.7h6.6c2.8,0,4.9,0.6,6.3,1.8c1.3,1.2,2,3.2,2,6.1c0,1.4-0.2,2.6-0.5,3.6
					c-0.3,1-0.8,1.8-1.5,2.4c-0.7,0.6-1.5,1.1-2.6,1.4c-1.1,0.3-2.3,0.4-3.7,0.4h-2v11H634.8z M639.4-695.8h1.8
					c0.7,0,1.4-0.1,1.9-0.2c0.5-0.1,0.9-0.3,1.2-0.7c0.3-0.3,0.5-0.7,0.6-1.3c0.1-0.5,0.2-1.2,0.2-2c0-0.8-0.1-1.4-0.2-2
					c-0.1-0.5-0.3-1-0.6-1.3c-0.3-0.3-0.7-0.5-1.2-0.7c-0.5-0.1-1.1-0.2-1.9-0.2h-1.8V-695.8z"/>
				<path class="st13" d="M656-681.1h-4.4l4.9-26.7h5.7l4.9,26.7h-4.4l-0.8-5.9h-5L656-681.1z M657.5-691h3.7l-1.8-11.5h-0.1
					L657.5-691z"/>
				<path class="st13" d="M679-698.9v-2.1c0-1.1-0.2-2-0.7-2.5c-0.4-0.5-1-0.8-1.6-0.8c-0.9,0-1.6,0.2-1.9,0.7
					c-0.3,0.5-0.5,1.2-0.5,2.2v13.6c0,1,0.2,1.8,0.5,2.2c0.3,0.5,1,0.7,1.9,0.7c0.8,0,1.4-0.2,1.7-0.7c0.3-0.5,0.5-1.1,0.5-2v-3.2
					h4.6v3.1c0,0.9-0.1,1.8-0.4,2.7c-0.3,0.8-0.7,1.6-1.3,2.2c-0.6,0.6-1.3,1.1-2.1,1.5c-0.9,0.4-1.9,0.5-3,0.5
					c-1.2,0-2.3-0.2-3.1-0.5c-0.9-0.4-1.6-0.8-2.2-1.5c-0.6-0.6-1-1.3-1.3-2.2c-0.3-0.8-0.4-1.7-0.4-2.7v-13.8
					c0-0.9,0.1-1.8,0.4-2.7c0.3-0.8,0.7-1.6,1.3-2.2c0.6-0.6,1.3-1.1,2.2-1.5c0.9-0.4,1.9-0.5,3.1-0.5c1.1,0,2.1,0.2,3,0.6
					c0.9,0.4,1.6,0.9,2.1,1.6c0.6,0.7,1,1.4,1.3,2.3c0.3,0.9,0.4,1.8,0.4,2.8v2H679z"/>
				<path class="st13" d="M688.1-681.1v-26.7h4.6v9.9h0.1l4.8-9.9h4.6l-5,10l5.6,16.8h-4.7l-3.7-12.4h-0.1l-1.6,3v9.5H688.1z"/>
			</g>
		</g>
		<g>
			<g>
				<g>
					<path class="st12" d="M501.2-635.5v-2.4c1-1.4,1.8-2.6,2.5-3.7c0.7-1.1,1.3-2.1,1.8-3c0.5-0.9,0.9-1.7,1.1-2.4
						c0.3-0.7,0.4-1.4,0.4-2.1c0-0.7-0.1-1.2-0.4-1.5c-0.2-0.3-0.6-0.5-1-0.5c-0.5,0-0.9,0.2-1.1,0.5c-0.2,0.3-0.4,0.8-0.4,1.3v1.2
						h-2.9v-0.8c0-0.7,0.1-1.3,0.3-1.8c0.2-0.6,0.5-1,0.9-1.5c0.4-0.4,0.9-0.7,1.4-1c0.6-0.2,1.2-0.4,1.9-0.4c0.6,0,1.2,0.1,1.7,0.3
						c0.5,0.2,0.9,0.5,1.3,0.9c0.4,0.4,0.6,0.8,0.8,1.3c0.2,0.5,0.3,1,0.3,1.5c0,0.7-0.1,1.4-0.2,2.1c-0.1,0.7-0.4,1.4-0.8,2.3
						c-0.4,0.9-1,1.9-1.7,3c-0.7,1.2-1.7,2.6-2.9,4.2h5.4v2.5H501.2z"/>
					<path class="st12" d="M513.4-648.7c0-1.7,0.3-2.9,1-3.7c0.7-0.8,1.8-1.2,3.3-1.2c1.5,0,2.7,0.4,3.3,1.2c0.7,0.8,1,2,1,3.7v8.5
						c0,1.7-0.3,2.9-1,3.7c-0.7,0.8-1.8,1.2-3.3,1.2c-1.5,0-2.7-0.4-3.3-1.2c-0.7-0.8-1-2-1-3.7V-648.7z M519.2-649.4
						c0-1.1-0.5-1.7-1.4-1.7c-1,0-1.4,0.6-1.4,1.7v10.1c0,1.1,0.5,1.7,1.4,1.7c1,0,1.4-0.6,1.4-1.7V-649.4z"/>
					<path class="st12" d="M532.7-635.5v-17.8h8.5v2.7h-5.5v4.6h4.1v2.7h-4.1v7.9H532.7z"/>
					<path class="st12" d="M547.9-635.5h-3.1v-17.8h4.3c1.7,0,3,0.4,3.9,1.2c0.9,0.8,1.3,2.2,1.3,4c0,0.7-0.1,1.3-0.2,1.9
						c-0.1,0.5-0.3,0.9-0.5,1.3c-0.2,0.4-0.4,0.6-0.7,0.9c-0.3,0.2-0.5,0.4-0.8,0.5l2.6,8.1h-3.1l-2.2-7.4c-0.2,0-0.4,0.1-0.7,0.1
						c-0.3,0-0.6,0-0.9,0V-635.5z M547.9-645.3h1.1c0.4,0,0.8,0,1-0.1c0.3-0.1,0.5-0.2,0.7-0.4c0.2-0.2,0.3-0.5,0.4-0.9
						c0.1-0.4,0.1-0.8,0.1-1.3c0-1.1-0.2-1.8-0.5-2.2c-0.3-0.4-0.9-0.6-1.8-0.6h-1.1V-645.3z"/>
					<path class="st12" d="M558.5-635.5v-17.8h8.2v2.7h-5.1v4.6h4v2.7h-4v5.2h5.5v2.7H558.5z"/>
					<path class="st12" d="M570.6-635.5v-17.8h8.2v2.7h-5.1v4.6h3.9v2.7h-3.9v5.2h5.5v2.7H570.6z"/>
					<path class="st12" d="M590-635.5v-17.8h3.1v17.8H590z"/>
					<path class="st12" d="M603.8-647.4v-1.4c0-0.8-0.2-1.3-0.4-1.6c-0.3-0.3-0.6-0.5-1-0.5c-0.6,0-1.1,0.2-1.3,0.5
						c-0.2,0.3-0.3,0.8-0.3,1.5v9c0,0.7,0.1,1.2,0.3,1.5c0.2,0.3,0.7,0.5,1.3,0.5c0.6,0,0.9-0.2,1.2-0.5c0.2-0.3,0.3-0.8,0.3-1.3
						v-2.1h3.1v2c0,0.6-0.1,1.2-0.3,1.8c-0.2,0.6-0.5,1-0.8,1.5c-0.4,0.4-0.8,0.7-1.4,1c-0.6,0.2-1.2,0.4-2,0.4
						c-0.8,0-1.5-0.1-2.1-0.4c-0.6-0.2-1.1-0.6-1.5-1c-0.4-0.4-0.7-0.9-0.9-1.5c-0.2-0.6-0.3-1.2-0.3-1.8v-9.2
						c0-0.6,0.1-1.2,0.3-1.8c0.2-0.6,0.5-1,0.9-1.5c0.4-0.4,0.9-0.7,1.5-1c0.6-0.2,1.3-0.4,2.1-0.4c0.8,0,1.4,0.1,2,0.4
						c0.6,0.3,1.1,0.6,1.4,1.1c0.4,0.4,0.6,1,0.8,1.6c0.2,0.6,0.3,1.2,0.3,1.9v1.3H603.8z"/>
					<path class="st12" d="M611.2-649c0-0.6,0.1-1.2,0.3-1.8c0.2-0.6,0.5-1,0.9-1.5c0.4-0.4,0.9-0.7,1.5-1c0.6-0.2,1.3-0.4,2.1-0.4
						c0.8,0,1.5,0.1,2.1,0.4c0.6,0.2,1.1,0.6,1.5,1c0.4,0.4,0.7,0.9,0.9,1.5c0.2,0.6,0.3,1.2,0.3,1.8v9.2c0,0.6-0.1,1.2-0.3,1.8
						c-0.2,0.6-0.5,1-0.9,1.5c-0.4,0.4-0.9,0.7-1.5,1c-0.6,0.2-1.3,0.4-2.1,0.4c-0.8,0-1.5-0.1-2.1-0.4c-0.6-0.2-1.1-0.6-1.5-1
						c-0.4-0.4-0.7-0.9-0.9-1.5c-0.2-0.6-0.3-1.2-0.3-1.8V-649z M614.3-639.9c0,0.7,0.1,1.2,0.3,1.5c0.2,0.3,0.7,0.5,1.3,0.5
						c0.6,0,1.1-0.2,1.3-0.5c0.2-0.3,0.3-0.8,0.3-1.5v-9c0-0.7-0.1-1.2-0.3-1.5c-0.2-0.3-0.7-0.5-1.3-0.5c-0.6,0-1.1,0.2-1.3,0.5
						c-0.2,0.3-0.3,0.8-0.3,1.5V-639.9z"/>
					<path class="st12" d="M624.8-635.5v-17.8h2.8l3.7,10.2h0v-10.2h2.8v17.8h-2.7l-3.9-11.1h0v11.1H624.8z"/>
					<path class="st12" d="M644-648.9c0-0.4-0.1-0.7-0.2-1c-0.1-0.3-0.2-0.5-0.4-0.6c-0.2-0.1-0.3-0.3-0.5-0.3
						c-0.2-0.1-0.4-0.1-0.5-0.1c-0.5,0-0.9,0.2-1.1,0.5c-0.3,0.3-0.4,0.7-0.4,1.3c0,0.5,0.2,1,0.5,1.4c0.3,0.4,0.7,0.9,1.1,1.3
						c0.5,0.4,1,0.9,1.5,1.3c0.5,0.4,1,0.9,1.5,1.4c0.5,0.5,0.8,1.1,1.1,1.7c0.3,0.6,0.5,1.4,0.5,2.2c0,0.7-0.1,1.4-0.4,2
						c-0.2,0.6-0.6,1-1,1.4c-0.4,0.4-0.9,0.7-1.5,0.9c-0.6,0.2-1.3,0.3-2,0.3c-0.7,0-1.3-0.1-1.9-0.4c-0.6-0.3-1-0.6-1.4-1.1
						c-0.4-0.5-0.7-1-0.9-1.6c-0.2-0.6-0.3-1.2-0.4-1.9l2.9-0.4c0.1,0.9,0.3,1.6,0.6,2c0.3,0.4,0.7,0.7,1.2,0.7c0.5,0,1-0.1,1.3-0.4
						c0.3-0.3,0.5-0.7,0.5-1.2c0-0.6-0.2-1.1-0.5-1.6c-0.3-0.5-0.7-0.9-1.1-1.3c-0.5-0.4-1-0.9-1.5-1.3c-0.5-0.4-1-0.9-1.5-1.4
						c-0.5-0.5-0.8-1.1-1.1-1.7c-0.3-0.6-0.5-1.4-0.5-2.2c0-1.4,0.4-2.5,1.2-3.3c0.8-0.8,2-1.1,3.5-1.1c0.6,0,1.2,0.1,1.7,0.3
						c0.5,0.2,0.9,0.5,1.3,0.9c0.4,0.4,0.6,0.8,0.9,1.4c0.2,0.5,0.4,1.1,0.4,1.7L644-648.9z"/>
				</g>
			</g>
			<g>
				<g>
					<path class="st3" d="M500.1-636.5v-2.4c1-1.4,1.8-2.6,2.5-3.7c0.7-1.1,1.3-2.1,1.8-3c0.5-0.9,0.9-1.7,1.1-2.4
						c0.3-0.7,0.4-1.4,0.4-2.1c0-0.7-0.1-1.2-0.4-1.5c-0.2-0.3-0.6-0.5-1-0.5c-0.5,0-0.9,0.2-1.1,0.5c-0.2,0.3-0.4,0.8-0.4,1.3v1.2
						h-2.9v-0.8c0-0.7,0.1-1.3,0.3-1.8c0.2-0.6,0.5-1,0.9-1.5c0.4-0.4,0.9-0.7,1.4-1c0.6-0.2,1.2-0.4,1.9-0.4c0.6,0,1.2,0.1,1.7,0.3
						c0.5,0.2,0.9,0.5,1.3,0.9c0.4,0.4,0.6,0.8,0.8,1.3c0.2,0.5,0.3,1,0.3,1.5c0,0.7-0.1,1.4-0.2,2.1c-0.1,0.7-0.4,1.4-0.8,2.3
						c-0.4,0.9-1,1.9-1.7,3c-0.7,1.2-1.7,2.6-2.9,4.2h5.4v2.5H500.1z"/>
					<path class="st3" d="M512.4-649.7c0-1.7,0.3-2.9,1-3.7c0.7-0.8,1.8-1.2,3.3-1.2c1.5,0,2.7,0.4,3.3,1.2c0.7,0.8,1,2,1,3.7v8.5
						c0,1.7-0.3,2.9-1,3.7c-0.7,0.8-1.8,1.2-3.3,1.2c-1.5,0-2.7-0.4-3.3-1.2c-0.7-0.8-1-2-1-3.7V-649.7z M518.2-650.5
						c0-1.1-0.5-1.7-1.4-1.7c-1,0-1.4,0.6-1.4,1.7v10.1c0,1.1,0.5,1.7,1.4,1.7c1,0,1.4-0.6,1.4-1.7V-650.5z"/>
					<path class="st3" d="M531.6-636.5v-17.8h8.5v2.7h-5.5v4.6h4.1v2.7h-4.1v7.9H531.6z"/>
					<path class="st3" d="M546.9-636.5h-3.1v-17.8h4.3c1.7,0,3,0.4,3.9,1.2c0.9,0.8,1.3,2.2,1.3,4c0,0.7-0.1,1.3-0.2,1.9
						c-0.1,0.5-0.3,0.9-0.5,1.3c-0.2,0.4-0.4,0.6-0.7,0.9c-0.3,0.2-0.5,0.4-0.8,0.5l2.6,8.1h-3.1l-2.2-7.4c-0.2,0-0.4,0.1-0.7,0.1
						c-0.3,0-0.6,0-0.9,0V-636.5z M546.9-646.3h1.1c0.4,0,0.8,0,1-0.1c0.3-0.1,0.5-0.2,0.7-0.4c0.2-0.2,0.3-0.5,0.4-0.9
						c0.1-0.4,0.1-0.8,0.1-1.3c0-1.1-0.2-1.8-0.5-2.2c-0.3-0.4-0.9-0.6-1.8-0.6h-1.1V-646.3z"/>
					<path class="st3" d="M557.4-636.5v-17.8h8.2v2.7h-5.1v4.6h3.9v2.7h-3.9v5.2h5.5v2.7H557.4z"/>
					<path class="st3" d="M569.6-636.5v-17.8h8.2v2.7h-5.1v4.6h4v2.7h-4v5.2h5.5v2.7H569.6z"/>
					<path class="st3" d="M588.9-636.5v-17.8h3.1v17.8H588.9z"/>
					<path class="st3" d="M602.8-648.4v-1.4c0-0.8-0.1-1.3-0.4-1.6c-0.3-0.3-0.6-0.5-1-0.5c-0.6,0-1.1,0.2-1.3,0.5
						c-0.2,0.3-0.3,0.8-0.3,1.5v9c0,0.7,0.1,1.2,0.3,1.5c0.2,0.3,0.7,0.5,1.3,0.5c0.6,0,0.9-0.2,1.2-0.5c0.2-0.3,0.3-0.8,0.3-1.3
						v-2.1h3.1v2c0,0.6-0.1,1.2-0.3,1.8c-0.2,0.6-0.5,1-0.8,1.5c-0.4,0.4-0.8,0.7-1.4,1c-0.6,0.2-1.2,0.4-2,0.4
						c-0.8,0-1.5-0.1-2.1-0.4c-0.6-0.2-1.1-0.6-1.5-1c-0.4-0.4-0.7-0.9-0.9-1.5c-0.2-0.6-0.3-1.2-0.3-1.8v-9.2
						c0-0.6,0.1-1.2,0.3-1.8c0.2-0.6,0.5-1,0.9-1.5c0.4-0.4,0.9-0.7,1.5-1c0.6-0.2,1.3-0.4,2.1-0.4c0.8,0,1.4,0.1,2,0.4
						c0.6,0.3,1,0.6,1.4,1.1c0.4,0.4,0.7,1,0.8,1.6c0.2,0.6,0.3,1.2,0.3,1.9v1.3H602.8z"/>
					<path class="st3" d="M610.2-650c0-0.6,0.1-1.2,0.3-1.8c0.2-0.6,0.5-1,0.9-1.5c0.4-0.4,0.9-0.7,1.5-1c0.6-0.2,1.3-0.4,2.1-0.4
						c0.8,0,1.5,0.1,2.1,0.4c0.6,0.2,1.1,0.6,1.5,1c0.4,0.4,0.7,0.9,0.9,1.5c0.2,0.6,0.3,1.2,0.3,1.8v9.2c0,0.6-0.1,1.2-0.3,1.8
						c-0.2,0.6-0.5,1-0.9,1.5c-0.4,0.4-0.9,0.7-1.5,1c-0.6,0.2-1.3,0.4-2.1,0.4c-0.8,0-1.5-0.1-2.1-0.4c-0.6-0.2-1.1-0.6-1.5-1
						c-0.4-0.4-0.7-0.9-0.9-1.5c-0.2-0.6-0.3-1.2-0.3-1.8V-650z M613.3-640.9c0,0.7,0.1,1.2,0.3,1.5c0.2,0.3,0.7,0.5,1.3,0.5
						c0.6,0,1.1-0.2,1.3-0.5c0.2-0.3,0.3-0.8,0.3-1.5v-9c0-0.7-0.1-1.2-0.3-1.5c-0.2-0.3-0.7-0.5-1.3-0.5c-0.6,0-1.1,0.2-1.3,0.5
						c-0.2,0.3-0.3,0.8-0.3,1.5V-640.9z"/>
					<path class="st3" d="M623.8-636.5v-17.8h2.8l3.7,10.2h0v-10.2h2.8v17.8h-2.7l-3.9-11.1h0v11.1H623.8z"/>
					<path class="st3" d="M642.9-649.9c0-0.4-0.1-0.7-0.2-1c-0.1-0.3-0.2-0.5-0.4-0.6c-0.2-0.1-0.3-0.3-0.5-0.3
						c-0.2-0.1-0.4-0.1-0.5-0.1c-0.5,0-0.9,0.2-1.1,0.5c-0.3,0.3-0.4,0.7-0.4,1.3c0,0.5,0.2,1,0.5,1.4c0.3,0.4,0.7,0.9,1.1,1.3
						c0.5,0.4,1,0.9,1.5,1.3c0.5,0.4,1,0.9,1.5,1.4c0.5,0.5,0.8,1.1,1.1,1.7c0.3,0.6,0.5,1.4,0.5,2.2c0,0.7-0.1,1.4-0.4,2
						c-0.2,0.6-0.6,1-1,1.4c-0.4,0.4-0.9,0.7-1.5,0.9c-0.6,0.2-1.3,0.3-2,0.3c-0.7,0-1.3-0.1-1.9-0.4c-0.6-0.3-1-0.6-1.4-1.1
						c-0.4-0.5-0.7-1-0.9-1.6c-0.2-0.6-0.3-1.2-0.4-1.9l2.9-0.4c0.1,0.9,0.3,1.6,0.6,2c0.3,0.4,0.7,0.7,1.2,0.7c0.5,0,1-0.1,1.3-0.4
						c0.3-0.3,0.5-0.7,0.5-1.2c0-0.6-0.2-1.1-0.5-1.6c-0.3-0.5-0.7-0.9-1.1-1.3c-0.5-0.4-1-0.9-1.5-1.3c-0.5-0.4-1-0.9-1.5-1.4
						c-0.5-0.5-0.8-1.1-1.1-1.7c-0.3-0.6-0.5-1.4-0.5-2.2c0-1.4,0.4-2.5,1.2-3.3c0.8-0.8,2-1.1,3.5-1.1c0.6,0,1.2,0.1,1.7,0.3
						c0.5,0.2,0.9,0.5,1.3,0.9c0.4,0.4,0.6,0.8,0.9,1.4c0.2,0.5,0.4,1.1,0.4,1.7L642.9-649.9z"/>
				</g>
			</g>
		</g>
		<line class="st14" x1="413.4" y1="-666.6" x2="733.4" y2="-666.6"/>
		<line class="st14" x1="413.4" y1="-625.4" x2="733.4" y2="-625.4"/>
	</g>
</g>
</svg>
