<?xml version="1.0" encoding="iso-8859-1"?>
<!-- Generator: Adobe Illustrator 19.0.0, SVG Export Plug-In . SVG Version: 6.00 Build 0)  -->
<svg version="1.1" id="Capa_1" xmlns="http://www.w3.org/2000/svg" xmlns:xlink="http://www.w3.org/1999/xlink" x="0px" y="0px"
	 viewBox="0 0 512 512" style="enable-background:new 0 0 512 512;" xml:space="preserve">
<polyline style="fill:#E28D40;" points="339.993,512 326.934,464.097 185.412,464.097 172.353,512 "/>
<path style="fill:#F4A14E;" d="M441.335,208.214c-6.29,31.804-29.544,69.082-63.085,81.117c-0.042,0.031-0.084,0.042-0.126,0.052
	H133.747c-33.615-12.014-56.911-49.323-63.211-81.17c40.941-14.181,81.452-9.942,110.64,6.572c0.063,0.031,0.126,0.073,0.188,0.105
	h149.153c0.084-0.042,0.157-0.094,0.241-0.136C359.945,198.251,400.436,194.044,441.335,208.214z"/>
<path style="fill:#E28D40;" d="M216.308,214.891v74.493h-82.561c-33.615-12.014-56.911-49.323-63.211-81.17
	c40.941-14.181,81.452-9.942,110.64,6.572c0.063,0.031,0.126,0.073,0.188,0.105L216.308,214.891L216.308,214.891z"/>
<path style="fill:#FFDAC5;" d="M441.337,208.218c-6.29,31.804-29.544,69.082-63.085,81.117
	c-2.166-16.043-6.269-29.261-11.993-40.124C387.942,209.055,441.337,208.218,441.337,208.218z"/>
<g>
	<path style="fill:#C69A6A;" d="M239.512,201.94v-30.151c0-41.412-32.987-75.246-74.063-76.648
		c-0.419-0.031-0.837-0.063-1.256-0.063c-36.859,0-68.412-26.268-75.026-62.468c-1.559-8.529-9.743-14.181-18.262-12.621
		c-8.529,1.559-14.181,9.733-12.621,18.262c3.694,20.251,12.935,38.282,25.954,52.704C54.275,80.667,32.674,52.222,32.674,18.817
		v-3.119C32.674,7.033,25.641,0,16.976,0S1.278,7.033,1.278,15.698v3.119c0,59.36,48.298,107.657,107.657,107.657h53.865
		c24.981,0,45.315,20.324,45.315,45.315v30.768c0,1.067,0.105,2.124,0.303,3.129"/>
	<path style="fill:#C69A6A;" d="M303.591,205.687c0.199-1.005,0.303-2.062,0.303-3.129v-30.768
		c0-24.991,20.324-45.315,45.305-45.315h53.865c59.36,0,107.657-48.298,107.657-107.657v-3.119C510.722,7.033,503.7,0,495.024,0
		c-8.665,0-15.698,7.033-15.698,15.698v3.119c0,33.406-21.601,61.84-51.563,72.127c13.019-14.411,22.26-32.443,25.965-52.693
		c1.559-8.529-4.092-16.703-12.621-18.262c-8.529-1.559-16.713,4.092-18.262,12.621c-6.625,36.2-38.178,62.468-75.037,62.468
		c-0.419,0-0.837,0.031-1.256,0.063c-41.066,1.402-74.053,35.237-74.053,76.648v30.161"/>
</g>
<path style="fill:#F4A14E;" d="M185.412,464.097c-32.27-32.197-53.411-85.853-53.411-146.614c0-10.22,0.601-19.559,1.742-28.099
	c5.374-40,22.822-62.442,47.435-74.601c11.877-5.877,25.411-9.35,40.086-11.251c11.018-1.436,22.675-1.976,34.737-1.976
	c12.061,0,23.718,0.54,34.737,1.976c14.65,1.902,28.172,5.362,40.025,11.227c24.638,12.135,42.098,34.577,47.485,74.577
	c1.153,8.552,1.755,17.915,1.755,28.148c0,60.54-20.982,114.025-53.068,146.258c-20.098,20.196-44.565,32.037-70.932,32.037
	C229.781,495.778,205.449,484.072,185.412,464.097z"/>
<path style="fill:#E28D40;" d="M255.995,495.778c-26.216,0-50.548-11.7-70.589-31.679c-32.265-32.202-53.405-85.858-53.405-146.62
	c0-10.214,0.597-19.549,1.737-28.1c5.379-39.999,22.825-62.436,47.44-74.597c11.878-5.871,25.41-9.346,40.082-11.25
	c11.02-1.434,22.678-1.978,34.735-1.978c-8.132,0-16.002,0.544-23.432,1.978c-9.9,1.905-19.026,5.379-27.043,11.25
	c-16.598,12.161-28.372,34.599-31.993,74.597c-0.774,8.55-1.183,17.885-1.183,28.1c0,60.762,14.264,114.418,36.032,146.62
	C221.899,484.077,238.308,495.778,255.995,495.778z"/>
<path style="fill:#FCF8F2;" d="M274.941,354.903l-37.288-0.01c1.141-49.868-6.342-100.729-22.448-150.408
	c2.093-0.366,4.218-0.67,6.363-0.952c11.02-1.434,22.678-1.978,34.735-1.978c12.067,0,23.715,0.544,34.735,1.978
	c2.145,0.283,4.27,0.586,6.363,0.942C281.294,254.153,273.801,305.036,274.941,354.903z"/>
<path style="fill:#FFDAC5;" d="M145.627,249.222l0.084,0.052c-5.714,10.863-9.817,24.081-11.962,40.114
	c-33.615-12.014-56.911-49.323-63.211-81.17C70.538,208.218,123.953,209.055,145.627,249.222z"/>
<path style="fill:#FCF8F2;" d="M329.324,411.504c0,17.498-4.636,33.751-12.579,47.22c-3.412,5.787-7.43,11.062-11.962,15.698
	c-12.967,13.291-30.046,21.36-48.779,21.36c-18.723,0-35.813-8.069-48.779-21.36c-4.521-4.636-8.54-9.911-11.962-15.698
	c-7.943-13.469-12.579-29.722-12.579-47.22c0-36.744,20.46-51.866,48.999-56.618l48.633,0.021h0.01
	C308.864,359.638,329.324,374.76,329.324,411.504z"/>
<path style="fill:#E5E1DC;" d="M235.481,474.422c-4.521-4.636-8.54-9.911-11.962-15.698c-7.943-13.469-12.579-29.722-12.579-47.22
	c0-36.715,20.428-51.841,48.931-56.605l-28.188-0.013c-28.539,4.751-48.999,19.874-48.999,56.618
	c0,17.498,4.636,33.751,12.579,47.22c3.422,5.787,7.441,11.062,11.962,15.698c12.967,13.291,30.057,21.36,48.779,21.36
	c4.835,0,9.558-0.547,14.13-1.574C256.992,491.259,245.1,484.282,235.481,474.422z"/>
<g>
	<path style="fill:#313344;" d="M324.617,356.722c-4.336,0-7.849-3.514-7.849-7.849v-16.759c0-4.335,3.513-7.849,7.849-7.849
		s7.849,3.514,7.849,7.849v16.759C332.466,353.208,328.952,356.722,324.617,356.722z"/>
	<path style="fill:#313344;" d="M187.397,356.722c-4.336,0-7.849-3.514-7.849-7.849v-16.759c0-4.335,3.513-7.849,7.849-7.849
		s7.849,3.514,7.849,7.849v16.759C195.246,353.208,191.733,356.722,187.397,356.722z"/>
</g>
<path style="fill:#E5E1DC;" d="M316.744,458.724c-3.412,5.787-7.43,11.062-11.962,15.698h-0.607
	c-20.46,0-38.397-11.031-48.172-27.451c-9.785,16.42-27.712,27.451-48.183,27.451h-0.597c-4.521-4.636-8.54-9.911-11.962-15.698
	h12.558c22.239,0,40.334-18.095,40.334-40.323V402.19c0-4.333,3.516-7.849,7.849-7.849s7.849,3.516,7.849,7.849v16.211
	c0,22.228,18.084,40.323,40.323,40.323H316.744z"/>
<path style="fill:#5C5E70;" d="M255.997,413.28L255.997,413.28c-15.272,0-27.653-12.381-27.653-27.653v-5.05
	c0-12.483,10.12-22.603,22.603-22.603h10.099c12.483,0,22.603,10.12,22.603,22.603v5.05
	C283.65,400.901,271.269,413.28,255.997,413.28z"/>
<path style="fill:#494B5B;" d="M243.526,385.628v-5.05c0-11.623,8.776-21.187,20.062-22.451c-0.835-0.093-1.681-0.152-2.541-0.152
	h-10.099c-12.483,0-22.603,10.12-22.603,22.603v5.05c0,15.272,12.381,27.653,27.653,27.653l0,0c2.633,0,5.177-0.376,7.591-1.063
	C252.007,408.917,243.526,398.266,243.526,385.628z"/>
<g>
</g>
<g>
</g>
<g>
</g>
<g>
</g>
<g>
</g>
<g>
</g>
<g>
</g>
<g>
</g>
<g>
</g>
<g>
</g>
<g>
</g>
<g>
</g>
<g>
</g>
<g>
</g>
<g>
</g>
</svg>
